<?xml version="1.0" encoding="UTF-8" standalone="no"?>
<!-- Created with Inkscape (http://www.inkscape.org/) -->

<svg
   xmlns:dc="http://purl.org/dc/elements/1.1/"
   xmlns:cc="http://creativecommons.org/ns#"
   xmlns:rdf="http://www.w3.org/1999/02/22-rdf-syntax-ns#"
   xmlns:svg="http://www.w3.org/2000/svg"
   xmlns="http://www.w3.org/2000/svg"
   xmlns:sodipodi="http://sodipodi.sourceforge.net/DTD/sodipodi-0.dtd"
   xmlns:inkscape="http://www.inkscape.org/namespaces/inkscape"
   version="1.1"
   id="svg2"
   xml:space="preserve"
   width="299.10666"
   height="52.439999"
   viewBox="0 0 299.10666 52.439999"
   sodipodi:docname="SPSU_HORIZ.svg"
   inkscape:version="0.92.1 r15371"
   inkscape:export-filename="/home/kurt/Desktop/SPSU Visual Identity WIP/Logos/horizontal/SPSU_HORIZ.png"
   inkscape:export-xdpi="96.28672"
   inkscape:export-ydpi="96.28672"><metadata
     id="metadata8"><rdf:RDF><cc:Work
         rdf:about=""><dc:format>image/svg+xml</dc:format><dc:type
           rdf:resource="http://purl.org/dc/dcmitype/StillImage" /><dc:title /></cc:Work></rdf:RDF></metadata><defs
     id="defs6" /><sodipodi:namedview
     pagecolor="#ffffff"
     bordercolor="#666666"
     borderopacity="1"
     objecttolerance="10"
     gridtolerance="10"
     guidetolerance="10"
     inkscape:pageopacity="0"
     inkscape:pageshadow="2"
     inkscape:window-width="1440"
     inkscape:window-height="843"
     id="namedview4"
     showgrid="false"
     inkscape:pagecheckerboard="true"
     inkscape:zoom="3.1627514"
     inkscape:cx="149.55333"
     inkscape:cy="26.219999"
     inkscape:window-x="0"
     inkscape:window-y="31"
     inkscape:window-maximized="1"
     inkscape:current-layer="g10" /><g
     id="g10"
     inkscape:groupmode="layer"
     inkscape:label="ink_ext_XXXXXX"
     transform="matrix(1.3333333,0,0,-1.3333333,0,52.44)"><g
       id="g12"
       transform="scale(0.1)"><path
         d="m 430.352,202.582 c -16.789,0 -29.532,3.578 -40.411,14.606 l 13.989,13.996 c 6.992,-6.993 16.468,-9.329 26.734,-9.329 12.742,0 19.586,4.817 19.586,13.672 0,3.887 -1.094,7.149 -3.43,9.328 -2.172,2.02 -4.656,3.114 -9.789,3.883 l -13.363,1.864 c -9.48,1.406 -16.473,4.359 -21.441,9.168 -5.289,5.289 -7.934,12.437 -7.934,21.761 0,19.739 14.613,33.567 38.539,33.567 15.234,0 26.27,-3.719 35.754,-12.899 l -13.68,-13.515 c -6.996,6.679 -15.386,7.609 -22.683,7.609 -11.508,0 -17.102,-6.371 -17.102,-13.984 0,-2.801 0.934,-5.75 3.262,-7.93 2.18,-2.02 5.754,-3.727 10.262,-4.352 l 13.05,-1.867 c 10.102,-1.39 16.473,-4.195 21.133,-8.543 5.91,-5.594 8.555,-13.676 8.555,-23.465 0,-21.445 -17.875,-33.57 -41.031,-33.57"
         style="fill:#008350;fill-opacity:1;fill-rule:nonzero;stroke:none"
         id="path14"
         inkscape:connector-curvature="0" /><path
         d="m 542.727,289.922 c -3.11,3.578 -7.922,5.902 -13.836,5.902 -5.903,0 -10.883,-2.324 -13.985,-5.902 -4.199,-4.656 -5.281,-9.789 -5.281,-31.074 0,-21.297 1.082,-26.422 5.281,-31.082 3.102,-3.575 8.082,-5.911 13.985,-5.911 5.914,0 10.726,2.336 13.836,5.911 4.199,4.66 5.437,9.785 5.437,31.082 0,21.285 -1.238,26.418 -5.437,31.074 z m 16.003,-75.215 c -7.769,-7.777 -17.246,-12.125 -29.839,-12.125 -12.582,0 -22.219,4.348 -29.989,12.125 -11.187,11.188 -10.882,25.02 -10.882,44.141 0,19.105 -0.305,32.945 10.882,44.125 7.77,7.781 17.407,12.125 29.989,12.125 12.593,0 22.07,-4.344 29.839,-12.125 11.192,-11.18 11.04,-25.02 11.04,-44.125 0,-19.121 0.152,-32.953 -11.04,-44.141"
         style="fill:#008350;fill-opacity:1;fill-rule:nonzero;stroke:none"
         id="path16"
         inkscape:connector-curvature="0" /><path
         d="m 630.863,202.582 c -22.687,0 -40.726,15.387 -40.726,38.848 v 72.734 h 21.609 v -71.945 c 0,-12.75 7.457,-20.364 19.117,-20.364 11.653,0 19.266,7.614 19.266,20.364 v 71.945 h 21.449 V 241.43 c 0,-23.461 -18.023,-38.848 -40.715,-38.848"
         style="fill:#008350;fill-opacity:1;fill-rule:nonzero;stroke:none"
         id="path18"
         inkscape:connector-curvature="0" /><path
         d="m 737.953,294.898 v -91.382 h -21.598 v 91.382 h -28.914 v 19.266 h 79.414 v -19.266 h -28.902"
         style="fill:#008350;fill-opacity:1;fill-rule:nonzero;stroke:none"
         id="path20"
         inkscape:connector-curvature="0" /><path
         d="m 843.496,203.516 v 46.32 h -37.457 v -46.32 h -21.601 v 110.648 h 21.601 v -45.219 h 37.457 v 45.219 h 21.602 V 203.516 h -21.602"
         style="fill:#008350;fill-opacity:1;fill-rule:nonzero;stroke:none"
         id="path22"
         inkscape:connector-curvature="0" /><path
         d="m 885.945,203.516 v 110.648 h 72.899 v -19.266 h -51.293 v -25.953 h 43.672 v -19.277 h -43.672 v -26.887 h 51.293 v -19.265 h -72.899"
         style="fill:#008350;fill-opacity:1;fill-rule:nonzero;stroke:none"
         id="path24"
         inkscape:connector-curvature="0" /><path
         d="m 1021.95,294.898 h -20.36 v -29.222 h 20.36 c 9.48,0 15.69,6.062 15.69,14.613 0,8.551 -6.21,14.609 -15.69,14.609 z m 16.79,-91.382 -21.61,44.136 h -15.54 v -44.136 h -21.602 v 110.648 h 43.362 c 22.53,0 35.9,-15.379 35.9,-33.875 0,-15.543 -9.48,-25.172 -20.2,-29.062 l 24.7,-47.711 h -25.01"
         style="fill:#008350;fill-opacity:1;fill-rule:nonzero;stroke:none"
         id="path26"
         inkscape:connector-curvature="0" /><path
         d="m 1147.07,203.516 -43.83,67.914 v -67.914 h -21.6 v 110.648 h 19.27 l 43.83,-67.762 v 67.762 h 21.6 V 203.516 h -19.27"
         style="fill:#008350;fill-opacity:1;fill-rule:nonzero;stroke:none"
         id="path28"
         inkscape:connector-curvature="0" /><path
         d="m 1288.78,294.898 h -20.22 v -30.312 h 20.22 c 9.78,0 16,6.066 16,15.078 0,9.012 -6.22,15.234 -16,15.234 z m 1.08,-49.734 h -21.3 v -41.648 h -21.6 v 110.648 h 42.9 c 22.85,0 36.52,-15.691 36.52,-34.5 0,-18.805 -13.67,-34.5 -36.52,-34.5"
         style="fill:#008350;fill-opacity:1;fill-rule:nonzero;stroke:none"
         id="path30"
         inkscape:connector-curvature="0" /><path
         d="m 1395.56,289.918 c -3.11,3.582 -7.93,5.906 -13.83,5.906 -5.92,0 -10.88,-2.324 -13.99,-5.906 -4.2,-4.652 -5.29,-9.785 -5.29,-31.07 0,-21.297 1.09,-26.422 5.29,-31.09 3.11,-3.567 8.07,-5.903 13.99,-5.903 5.9,0 10.72,2.336 13.83,5.903 4.2,4.668 5.44,9.793 5.44,31.09 0,21.285 -1.24,26.418 -5.44,31.07 z m 16,-75.211 c -7.77,-7.777 -17.25,-12.125 -29.83,-12.125 -12.6,0 -22.23,4.348 -30,12.125 -11.19,11.184 -10.88,25.02 -10.88,44.141 0,19.105 -0.31,32.945 10.88,44.125 7.77,7.781 17.4,12.125 30,12.125 12.58,0 22.06,-4.344 29.83,-12.125 11.18,-11.18 11.04,-25.02 11.04,-44.125 0,-19.121 0.14,-32.957 -11.04,-44.141"
         style="fill:#008350;fill-opacity:1;fill-rule:nonzero;stroke:none"
         id="path32"
         inkscape:connector-curvature="0" /><path
         d="m 1444.68,203.516 v 110.648 h 21.6 v -91.383 h 50.2 v -19.265 h -71.8"
         style="fill:#008350;fill-opacity:1;fill-rule:nonzero;stroke:none"
         id="path34"
         inkscape:connector-curvature="0" /><path
         d="m 1563.88,248.898 v -45.382 h -21.45 v 45.382 l -33.25,65.266 h 23.47 l 20.66,-44.601 20.36,44.601 h 23.47 l -33.26,-65.266"
         style="fill:#008350;fill-opacity:1;fill-rule:nonzero;stroke:none"
         id="path36"
         inkscape:connector-curvature="0" /><path
         d="m 1652.79,294.895 v -91.379 h -21.61 v 91.379 h -28.9 v 19.269 h 79.41 v -19.269 h -28.9"
         style="fill:#008350;fill-opacity:1;fill-rule:nonzero;stroke:none"
         id="path38"
         inkscape:connector-curvature="0" /><path
         d="m 1699.27,203.516 v 110.648 h 72.89 v -19.269 h -51.28 v -25.95 h 43.66 v -19.277 h -43.66 v -26.887 h 51.28 v -19.265 h -72.89"
         style="fill:#008350;fill-opacity:1;fill-rule:nonzero;stroke:none"
         id="path40"
         inkscape:connector-curvature="0" /><path
         d="m 1830.3,202.582 c -11.81,0 -21.76,4.039 -29.84,12.125 -4.83,4.816 -7.78,10.41 -9.01,16.633 -1.24,6.211 -1.87,15.375 -1.87,27.508 0,12.121 0.63,21.285 1.87,27.496 1.23,6.375 4.18,11.816 9.01,16.629 8.08,8.086 18.03,12.125 29.84,12.125 21.28,0 36.98,-12.43 40.72,-34.965 h -21.93 c -2.32,9.48 -8.23,15.691 -18.65,15.691 -5.9,0 -10.56,-1.867 -13.83,-5.75 -4.5,-4.808 -5.43,-9.785 -5.43,-31.226 0,-21.453 0.93,-26.426 5.43,-31.239 3.27,-3.886 7.93,-5.754 13.83,-5.754 10.42,0 16.33,6.211 18.65,15.696 h 21.93 c -3.74,-22.535 -19.58,-34.969 -40.72,-34.969"
         style="fill:#008350;fill-opacity:1;fill-rule:nonzero;stroke:none"
         id="path42"
         inkscape:connector-curvature="0" /><path
         d="m 1944.68,203.516 v 46.32 h -37.45 v -46.32 h -21.6 v 110.648 h 21.6 v -45.219 h 37.45 v 45.219 h 21.6 V 203.516 h -21.6"
         style="fill:#008350;fill-opacity:1;fill-rule:nonzero;stroke:none"
         id="path44"
         inkscape:connector-curvature="0" /><path
         d="m 2057.52,203.516 -43.83,67.914 v -67.914 h -21.59 v 110.648 h 19.28 l 43.82,-67.766 v 67.766 h 21.6 V 203.516 h -19.28"
         style="fill:#008350;fill-opacity:1;fill-rule:nonzero;stroke:none"
         id="path46"
         inkscape:connector-curvature="0" /><path
         d="m 2102.61,203.516 v 110.648 h 21.61 V 203.516 h -21.61"
         style="fill:#008350;fill-opacity:1;fill-rule:nonzero;stroke:none"
         id="path48"
         inkscape:connector-curvature="0" /><path
         d="m 2187,202.582 c -11.79,0 -21.76,4.039 -29.83,12.125 -4.83,4.816 -7.78,10.41 -9.01,16.633 -1.25,6.211 -1.87,15.375 -1.87,27.508 0,12.121 0.62,21.285 1.87,27.496 1.23,6.375 4.18,11.816 9.01,16.629 8.07,8.086 18.04,12.125 29.83,12.125 21.3,0 36.98,-12.43 40.72,-34.965 h -21.91 c -2.33,9.48 -8.24,15.691 -18.65,15.691 -5.9,0 -10.57,-1.867 -13.83,-5.75 -4.5,-4.808 -5.44,-9.785 -5.44,-31.226 0,-21.453 0.94,-26.426 5.44,-31.239 3.26,-3.886 7.93,-5.757 13.83,-5.757 10.41,0 16.32,6.214 18.65,15.699 h 21.91 c -3.74,-22.535 -19.58,-34.969 -40.72,-34.969"
         style="fill:#008350;fill-opacity:1;fill-rule:nonzero;stroke:none"
         id="path50"
         inkscape:connector-curvature="0" /><path
         d="m 427.539,70.5273 c -15.383,0 -26.453,3.6055 -36.234,13.5274 l 10.351,10.2031 c 7.477,-7.4805 15.672,-9.7734 26.172,-9.7734 13.371,0 21.137,5.75 21.137,15.6716 0,4.453 -1.289,8.203 -4.027,10.633 -2.583,2.453 -5.172,3.457 -11.215,4.32 l -12.082,1.727 c -8.328,1.152 -14.953,4.023 -19.411,8.184 -5.027,4.757 -7.472,11.218 -7.472,19.558 0,17.832 12.941,30.051 34.222,30.051 13.516,0 23,-3.438 31.778,-11.641 l -9.922,-9.773 c -6.328,6.023 -13.664,7.906 -22.285,7.906 -12.082,0 -18.692,-6.902 -18.692,-15.957 0,-3.738 1.149,-7.059 3.875,-9.5 2.594,-2.305 6.758,-4.023 11.504,-4.734 l 11.649,-1.731 c 9.484,-1.445 14.808,-3.738 19.125,-7.617 5.605,-4.891 8.34,-12.227 8.34,-20.996 0,-18.8399 -15.387,-30.0587 -36.813,-30.0587"
         style="fill:#008350;fill-opacity:1;fill-rule:nonzero;stroke:none"
         id="path52"
         inkscape:connector-curvature="0" /><path
         d="M 519.844,159.824 V 71.4063 h -15.528 v 88.4177 h -28.183 v 13.946 h 71.898 v -13.946 h -28.187"
         style="fill:#008350;fill-opacity:1;fill-rule:nonzero;stroke:none"
         id="path54"
         inkscape:connector-curvature="0" /><path
         d="M 588.988,150.625 573.031,105.188 H 604.52 Z M 615.879,71.4063 608.84,91.9531 H 568.434 L 561.387,71.4063 H 544.848 L 582.379,173.77 h 12.508 L 632.422,71.4063 h -16.543"
         style="fill:#008350;fill-opacity:1;fill-rule:nonzero;stroke:none"
         id="path56"
         inkscape:connector-curvature="0" /><path
         d="M 672.949,159.824 V 71.4063 h -15.527 v 88.4177 h -28.18 v 13.946 h 71.895 v -13.946 h -28.188"
         style="fill:#008350;fill-opacity:1;fill-rule:nonzero;stroke:none"
         id="path58"
         inkscape:connector-curvature="0" /><path
         d="M 718.813,71.4063 V 173.77 h 65.425 V 159.824 H 734.34 v -29.902 h 42.558 V 116.113 H 734.34 V 85.3516 h 49.898 V 71.4063 h -65.425"
         style="fill:#008350;fill-opacity:1;fill-rule:nonzero;stroke:none"
         id="path60"
         inkscape:connector-curvature="0" /><path
         d="m 893.043,70.5273 c -20.848,0 -36.66,14.2383 -36.66,35.3907 v 67.852 h 15.519 v -67.149 c 0,-13.6601 8.348,-22.1366 21.141,-22.1366 12.797,0 21.281,8.4765 21.281,22.1366 v 67.149 h 15.531 v -67.852 c 0,-21.1524 -15.96,-35.3907 -36.812,-35.3907"
         style="fill:#008350;fill-opacity:1;fill-rule:nonzero;stroke:none"
         id="path62"
         inkscape:connector-curvature="0" /><path
         d="M 1017.84,71.4063 970.535,143.418 V 71.4063 H 955.012 V 173.77 h 14.23 l 47.308,-71.895 v 71.895 h 15.53 V 71.4063 h -14.24"
         style="fill:#008350;fill-opacity:1;fill-rule:nonzero;stroke:none"
         id="path64"
         inkscape:connector-curvature="0" /><path
         d="M 1058.81,71.4063 V 173.77 h 15.53 V 71.4063 h -15.53"
         style="fill:#008350;fill-opacity:1;fill-rule:nonzero;stroke:none"
         id="path66"
         inkscape:connector-curvature="0" /><path
         d="m 1134.15,71.4063 h -12.07 L 1088.43,173.77 h 16.1 l 23.59,-74.4731 23.57,74.4731 h 16.4 L 1134.15,71.4063"
         style="fill:#008350;fill-opacity:1;fill-rule:nonzero;stroke:none"
         id="path68"
         inkscape:connector-curvature="0" /><path
         d="M 1182.18,71.4063 V 173.77 h 65.42 v -13.946 h -49.89 v -29.902 h 42.55 v -13.809 h -42.55 V 85.3516 h 49.89 V 71.4063 h -65.42"
         style="fill:#008350;fill-opacity:1;fill-rule:nonzero;stroke:none"
         id="path70"
         inkscape:connector-curvature="0" /><path
         d="m 1307.4,159.824 h -23 v -32.07 h 23 c 10.36,0 17.4,5.898 17.4,15.957 0,10.078 -7.04,16.113 -17.4,16.113 z m 17.98,-88.4177 -21.57,43.1247 H 1284.4 V 71.4063 h -15.52 V 173.77 h 39.67 c 19.42,0 31.79,-12.508 31.79,-29.903 0,-14.668 -8.92,-24.023 -20.43,-27.176 l 23.59,-45.2847 h -18.12"
         style="fill:#008350;fill-opacity:1;fill-rule:nonzero;stroke:none"
         id="path72"
         inkscape:connector-curvature="0" /><path
         d="m 1390.22,70.5273 c -15.39,0 -26.46,3.6055 -36.24,13.5274 l 10.37,10.2031 c 7.47,-7.4805 15.66,-9.7734 26.17,-9.7734 13.36,0 21.13,5.75 21.13,15.6716 0,4.453 -1.3,8.203 -4.03,10.633 -2.59,2.453 -5.18,3.457 -11.21,4.32 l -12.08,1.727 c -8.34,1.152 -14.95,4.023 -19.41,8.184 -5.05,4.757 -7.49,11.218 -7.49,19.558 0,17.824 12.95,30.051 34.23,30.051 13.52,0 23.01,-3.438 31.77,-11.641 l -9.91,-9.773 c -6.32,6.023 -13.67,7.906 -22.29,7.906 -12.08,0 -18.7,-6.902 -18.7,-15.957 0,-3.738 1.15,-7.059 3.89,-9.5 2.58,-2.305 6.75,-4.023 11.5,-4.746 l 11.64,-1.719 c 9.49,-1.445 14.82,-3.738 19.13,-7.617 5.61,-4.891 8.34,-12.227 8.34,-20.996 0,-18.8399 -15.38,-30.0587 -36.81,-30.0587"
         style="fill:#008350;fill-opacity:1;fill-rule:nonzero;stroke:none"
         id="path74"
         inkscape:connector-curvature="0" /><path
         d="M 1447.87,71.4063 V 173.77 h 15.54 V 71.4063 h -15.54"
         style="fill:#008350;fill-opacity:1;fill-rule:nonzero;stroke:none"
         id="path76"
         inkscape:connector-curvature="0" /><path
         d="M 1524.79,159.824 V 71.4063 h -15.52 v 88.4177 h -28.19 v 13.946 h 71.9 v -13.946 h -28.19"
         style="fill:#008350;fill-opacity:1;fill-rule:nonzero;stroke:none"
         id="path78"
         inkscape:connector-curvature="0" /><path
         d="M 1604.16,113.527 V 71.4063 h -15.54 V 113.527 L 1558,173.77 h 16.97 l 21.43,-45 21.42,45 h 16.97 l -30.63,-60.243"
         style="fill:#008350;fill-opacity:1;fill-rule:nonzero;stroke:none"
         id="path80"
         inkscape:connector-curvature="0" /><path
         d="m 179.855,15.3047 c -4.187,0 -8.121,0.957 -11.105,2.6836 L 32.25,96.8242 C 26.0117,100.41 21.1211,108.859 21.1211,116.055 v 157.613 c 0,7.211 4.8906,15.664 11.1484,19.246 l 136.4575,78.801 c 3.007,1.726 6.941,2.676 11.128,2.676 4.184,0 8.118,-0.95 11.125,-2.676 l 136.458,-78.801 c 6.246,-3.582 11.125,-12.035 11.125,-19.246 V 116.055 c 0,-7.215 -4.879,-15.664 -11.145,-19.2308 L 190.98,17.9883 c -3.007,-1.7266 -6.941,-2.6836 -11.125,-2.6836 v 0"
         style="fill:#008350;fill-opacity:1;fill-rule:nonzero;stroke:none"
         id="path82"
         inkscape:connector-curvature="0" /><path
         d="m 179.855,376.898 c -4.613,0 -9.003,-1.078 -12.378,-3.031 L 31,295.078 C 24.0664,291.105 18.6211,281.699 18.6211,273.672 V 116.055 c 0,-8.008 5.4414,-17.4027 12.3867,-21.4066 L 167.484,15.8281 c 3.375,-1.9414 7.766,-3.0156 12.371,-3.0156 4.61,0 8.997,1.0742 12.364,3.0156 l 136.469,78.8282 c 6.937,3.9765 12.375,13.3787 12.375,21.3987 v 157.617 c 0,8.027 -5.442,17.433 -12.391,21.418 l -136.453,78.781 c -3.356,1.949 -7.75,3.027 -12.364,3.027 z m 0,-5 c 3.579,0 7.157,-0.785 9.864,-2.355 l 136.469,-78.797 c 5.445,-3.117 9.875,-10.805 9.875,-17.074 V 116.055 c 0,-6.25 -4.43,-13.946 -9.875,-17.0706 L 189.719,20.1563 c -2.707,-1.5625 -6.285,-2.3438 -9.864,-2.3438 -3.582,0 -7.16,0.7813 -9.871,2.3438 L 33.5,98.9844 c -5.4453,3.1326 -9.8789,10.8206 -9.8789,17.0706 v 157.617 c 0,6.269 4.4336,13.957 9.8789,17.074 l 136.484,78.797 c 2.711,1.57 6.289,2.355 9.871,2.355"
         style="fill:#ffffff;fill-opacity:1;fill-rule:nonzero;stroke:none"
         id="path84"
         inkscape:connector-curvature="0" /><path
         d="m 156.234,187.41 c 0,-8.789 0,-15.308 -10.769,-15.308 H 134.43 v 76.261 h 11.035 c 10.769,0 10.769,-8.508 10.769,-20.125 V 187.41 Z m -10.769,75.406 h -28.324 v -138.91 h 17.289 v 33.457 h 11.035 c 28.066,0 28.066,22.383 28.066,31.184 v 43.09 c 0,7.933 0,31.179 -28.066,31.179 v 0 0"
         style="fill:#ffffff;fill-opacity:1;fill-rule:nonzero;stroke:none"
         id="path86"
         inkscape:connector-curvature="0" /><path
         d="M 225.484,196.328 C 211.875,214.75 204,220.703 204,232.609 c 0,9.356 3.906,15.313 11.273,15.313 6.524,0 9.747,-5.676 9.747,-12.481 v -6.261 h 17.582 v 7.113 c 0,13.887 -10.317,26.363 -27.329,26.363 -15.593,0 -28.293,-8.777 -28.293,-30.605 0,-17.301 11.004,-28.074 22.051,-43.106 13.055,-17.285 17.02,-21.828 17.02,-34.57 0,-7.664 -2.274,-16.453 -10.778,-16.453 -9.066,0 -12.753,7.652 -12.753,13.887 v 8.218 h -17.293 v -7.363 c 0,-7.945 4.523,-29.207 30.046,-29.207 15.309,0 28.348,8.789 28.348,31.758 0,17.285 -8.781,28.633 -18.137,41.113 v 0"
         style="fill:#ffffff;fill-opacity:1;fill-rule:nonzero;stroke:none"
         id="path88"
         inkscape:connector-curvature="0" /><path
         d="m 87.6602,196.328 c -13.6094,18.422 -21.4805,24.375 -21.4805,36.281 0,9.356 3.9023,15.313 11.2773,15.313 6.5274,0 9.7539,-5.676 9.7539,-12.481 v -6.261 h 17.5741 v 7.113 c 0,13.887 -10.3162,26.363 -27.328,26.363 -15.5976,0 -28.289,-8.777 -28.289,-30.605 0,-17.301 10.9961,-28.074 22.0468,-43.106 13.0469,-17.285 17.0157,-21.828 17.0157,-34.57 0,-7.664 -2.2696,-16.453 -10.7735,-16.453 -9.0742,0 -12.7578,7.652 -12.7578,13.887 v 8.218 H 47.4023 v -7.363 c 0,-7.945 4.543,-29.207 30.0547,-29.207 15.3086,0 28.356,8.789 28.356,31.758 0,17.285 -8.7974,28.633 -18.1528,41.113 v 0"
         style="fill:#ffffff;fill-opacity:1;fill-rule:nonzero;stroke:none"
         id="path90"
         inkscape:connector-curvature="0" /><path
         d="M 312.258,157.402 V 262.789 H 294.949 V 157.402 c 0,-10.207 -0.222,-19.082 -10.871,-19.082 -10.644,0 -12.64,8.875 -12.64,19.082 V 262.789 H 254.133 V 157.402 c 0,-9.316 1.328,-33.718 29.945,-33.718 28.844,0 28.18,24.402 28.18,33.718 v 0"
         style="fill:#ffffff;fill-opacity:1;fill-rule:nonzero;stroke:none"
         id="path92"
         inkscape:connector-curvature="0" /></g></g></svg>