<?xml version="1.0" encoding="UTF-8" standalone="no"?>
<!-- Created with Inkscape (http://www.inkscape.org/) -->

<svg
   xmlns:dc="http://purl.org/dc/elements/1.1/"
   xmlns:cc="http://creativecommons.org/ns#"
   xmlns:rdf="http://www.w3.org/1999/02/22-rdf-syntax-ns#"
   xmlns:svg="http://www.w3.org/2000/svg"
   xmlns="http://www.w3.org/2000/svg"
   xmlns:sodipodi="http://sodipodi.sourceforge.net/DTD/sodipodi-0.dtd"
   xmlns:inkscape="http://www.inkscape.org/namespaces/inkscape"
   version="1.1"
   id="svg2"
   xml:space="preserve"
   width="653.55719"
   height="293.25708"
   viewBox="0 0 653.55719 293.25708"
   sodipodi:docname="SPSU_LOGO_K.svg"
   inkscape:version="0.92.1 r15371"
   inkscape:export-filename="/home/kurt/Desktop/SPSU Visual Identity WIP/Logos/logo_BW/SPSU_LOGO_K.png"
   inkscape:export-xdpi="44.066532"
   inkscape:export-ydpi="44.066532"><metadata
     id="metadata8"><rdf:RDF><cc:Work
         rdf:about=""><dc:format>image/svg+xml</dc:format><dc:type
           rdf:resource="http://purl.org/dc/dcmitype/StillImage" /><dc:title></dc:title></cc:Work></rdf:RDF></metadata><defs
     id="defs6" /><sodipodi:namedview
     pagecolor="#ffffff"
     bordercolor="#666666"
     borderopacity="1"
     objecttolerance="10"
     gridtolerance="10"
     guidetolerance="10"
     inkscape:pageopacity="0"
     inkscape:pageshadow="2"
     inkscape:window-width="1440"
     inkscape:window-height="843"
     id="namedview4"
     showgrid="false"
     inkscape:zoom="1.4535836"
     inkscape:cx="326.77859"
     inkscape:cy="146.62854"
     inkscape:window-x="0"
     inkscape:window-y="31"
     inkscape:window-maximized="1"
     inkscape:current-layer="g10"
     units="px"
     fit-margin-top="0"
     fit-margin-left="0"
     fit-margin-right="0"
     fit-margin-bottom="0" /><g
     id="g10"
     inkscape:groupmode="layer"
     inkscape:label="ink_ext_XXXXXX"
     transform="matrix(1.3333333,0,0,-1.3333333,-10.64948,304.71333)"><g
       id="g12"
       transform="scale(0.1)"><path
         d="m 1339.36,1253.99 c 0,-25.22 -17.87,-56.22 -39.8,-68.79 L 749.434,867.379 c -21.817,-12.559 -57.704,-12.559 -79.539,0 L 119.668,1185.2 c -21.9141,12.59 -39.7969,43.57 -39.7969,68.79 v 635.37 c 0,25.25 17.8828,56.25 39.7969,68.84 l 550.227,317.64 c 21.835,12.68 57.722,12.68 79.539,0 L 1299.56,1958.2 c 21.93,-12.59 39.8,-43.59 39.8,-68.84 v -635.37"
         style="fill:#231f20;fill-opacity:1;fill-rule:nonzero;stroke:none"
         id="path14"
         inkscape:connector-curvature="0" /><path
         d="m 1002.47,1845.35 h 69.65 v -429.57 c 0,-35.9 0,-71.91 43.59,-71.91 42.81,0 42.81,36.01 42.81,76.46 v 425.02 h 70.4 V 1424.2 c 0,-37.46 0,-139.2 -115.55,-139.2 -110.9,0 -110.9,97.14 -110.9,126.21 v 434.14"
         style="fill:#ffffff;fill-opacity:1;fill-rule:nonzero;stroke:none"
         id="path16"
         inkscape:connector-curvature="0" /><path
         d="m 601.688,1668.32 h -0.079 v -106.48 c 0,-35.95 0,-71.92 -43.613,-71.92 h -29.898 v 296.64 h 30 c 43.59,0 43.59,-35.95 43.59,-71.93 z m -41.297,177.11 h -92.578 l 0.07,-0.08 h -9.68 v -561.38 h 69.895 v 147.02 h 32.175 c 110.926,0 110.926,97.15 110.926,126.23 v 50.94 h 0.051 v 111.06 c 0,29.1 0,126.21 -110.859,126.21"
         style="fill:#ffffff;fill-opacity:1;fill-rule:nonzero;stroke:none"
         id="path18"
         inkscape:connector-curvature="0" /><path
         d="m 332.109,1576.4 c -52.8,76.49 -69.66,101.76 -69.66,156.8 0,26.84 3.098,54.3 35.981,54.3 26.035,0 28.289,-19.85 28.289,-36.68 v -35.88 h 65.058 v 36.66 c 0,55.82 -23.718,92.53 -91.023,92.53 -36.762,0 -69.66,-9.9 -91.059,-44.35 -12.234,-20.64 -18.394,-45.14 -18.394,-74.2 0,-69.64 31.402,-115.51 74.246,-177.47 48.933,-71.88 58.125,-94.85 58.125,-145.34 0,-28.28 -0.75,-62.7 -34.402,-62.7 -36.711,0 -36.711,33.66 -36.711,52.04 v 38.88 h -65.813 v -30.54 c 0,-27.49 0,-117.02 103.266,-117.02 19.883,0 55.828,2.35 81.121,36 16.008,22.15 25.195,56.62 25.195,92.56 0,69.56 -29.812,113.17 -64.219,164.41"
         style="fill:#ffffff;fill-opacity:1;fill-rule:nonzero;stroke:none"
         id="path20"
         inkscape:connector-curvature="0" /><path
         d="m 878.391,1576.4 c -52.805,76.49 -69.661,101.76 -69.661,156.8 0,26.84 3.094,54.3 35.977,54.3 26.035,0 28.289,-19.85 28.289,-36.68 v -35.88 h 65.063 v 36.66 c 0,55.82 -23.723,92.53 -91.028,92.53 -36.758,0 -69.66,-9.9 -91.054,-44.35 -12.239,-20.64 -18.399,-45.14 -18.399,-74.2 0,-69.64 31.406,-115.51 74.246,-177.47 48.938,-71.88 58.125,-94.85 58.125,-145.34 0,-28.28 -0.75,-62.7 -34.402,-62.7 -36.707,0 -36.707,33.66 -36.707,52.04 v 38.88 h -65.813 v -30.54 c 0,-27.49 0,-117.02 103.262,-117.02 19.883,0 55.828,2.35 81.121,36 16.008,22.15 25.195,56.62 25.195,92.56 0,69.56 -29.812,113.17 -64.214,164.41"
         style="fill:#ffffff;fill-opacity:1;fill-rule:nonzero;stroke:none"
         id="path22"
         inkscape:connector-curvature="0" /><path
         d="m 1708.06,888.191 c -7.87,-15.25 -21.9,-24.39 -56.35,-24.679 h -34.92 v 193.298 h 38.35 c 32.9,-0.35 45.79,-10.28 53.5,-26.57 7.72,-16.68 8.04,-42.201 7.95,-70.912 0.09,-30.469 -0.52,-55.527 -8.53,-71.137 z m 63.8,220.159 c -31.32,33.4 -69.43,45.27 -118.46,45.14 H 1515 V 528.328 h 101.79 v 238.5 h 37.55 c 66,-0.258 108.04,25.461 133.03,66.953 21.65,35.16 25.92,72.969 25.92,126.391 0.1,73.218 -9.61,114.658 -41.43,148.178"
         style="fill:#231f20;fill-opacity:1;fill-rule:nonzero;stroke:none"
         id="path24"
         inkscape:connector-curvature="0" /><path
         d="m 1960.9,1002.18 c 0.47,38.51 23.2,54.06 52.03,54.65 28.78,-0.59 51.51,-16.14 52.03,-54.65 V 679.578 c -0.52,-38.496 -23.25,-54 -52.03,-54.609 -28.83,0.609 -51.56,16.113 -52.03,54.609 z m 52.03,156.46 c -74.3,-0.17 -153.7,-52.79 -153.89,-156.46 V 679.578 c 0.19,-103.648 79.59,-156.226 153.89,-156.449 74.28,0.223 153.7,52.801 153.9,156.449 v 322.602 c -0.2,103.67 -79.62,156.29 -153.9,156.46"
         style="fill:#231f20;fill-opacity:1;fill-rule:nonzero;stroke:none"
         id="path26"
         inkscape:connector-curvature="0" /><path
         d="m 2325.28,624.969 0.05,528.521 H 2223.47 V 528.328 h 268.21 v 96.641 h -166.4"
         style="fill:#231f20;fill-opacity:1;fill-rule:nonzero;stroke:none"
         id="path28"
         inkscape:connector-curvature="0" /><path
         d="m 2744.34,1153.49 h -90.84 l -65.86,-227.189 -65.86,227.189 h -108.03 l 122.93,-360.92 v -264.3 h 101.86 v 264.281 l 105.8,310.719 v -46.44 h 95.32 V 528.27 h 101.81 v 528.56 h 107.18 v 96.66 h -287.25 -17.06"
         style="fill:#231f20;fill-opacity:1;fill-rule:nonzero;stroke:none"
         id="path30"
         inkscape:connector-curvature="0" /><path
         d="M 3954.32,1153.49 V 891.789 H 3847.31 V 1153.49 H 3745.6 V 528.27 h 101.71 v 266.859 h 107.01 V 528.27 h 101.81 v 625.22 h -101.81"
         style="fill:#231f20;fill-opacity:1;fill-rule:nonzero;stroke:none"
         id="path32"
         inkscape:connector-curvature="0" /><path
         d="m 4340.59,1153.49 -0.32,-348.72 -125.24,348.72 h -96.18 V 528.27 h 98 v 349.519 l 127.23,-349.461 h 94.5 v 625.162 h -97.99"
         style="fill:#231f20;fill-opacity:1;fill-rule:nonzero;stroke:none"
         id="path34"
         inkscape:connector-curvature="0" /><path
         d="M 4503.83,1153.49 V 528.328 h 101.8 v 625.162 h -101.8"
         style="fill:#231f20;fill-opacity:1;fill-rule:nonzero;stroke:none"
         id="path36"
         inkscape:connector-curvature="0" /><path
         d="m 3347.88,1056.83 v 96.66 H 3077.45 V 528.27 h 270.43 v 96.699 h -168.61 v 170.16 h 155.74 v 96.66 h -155.74 v 165.041 h 168.61"
         style="fill:#231f20;fill-opacity:1;fill-rule:nonzero;stroke:none"
         id="path38"
         inkscape:connector-curvature="0" /><path
         d="m 4493.83,88.4102 h -45.9 V 397.898 h 45.9 V 88.4102"
         style="fill:#918f90;fill-opacity:1;fill-rule:nonzero;stroke:none"
         id="path40"
         inkscape:connector-curvature="0" /><path
         d="m 3365.55,88.4102 h -45.91 V 397.898 h 45.91 V 88.4102"
         style="fill:#918f90;fill-opacity:1;fill-rule:nonzero;stroke:none"
         id="path42"
         inkscape:connector-curvature="0" /><path
         d="M 1901.03,397.898 H 1737.35 V 353.41 h 58.88 V 88.5195 h 45.91 V 353.41 h 58.89 v 44.488"
         style="fill:#918f90;fill-opacity:1;fill-rule:nonzero;stroke:none"
         id="path44"
         inkscape:connector-curvature="0" /><path
         d="M 2323.59,397.898 H 2159.92 V 353.41 h 58.89 V 88.5195 h 45.9 V 353.41 h 58.88 v 44.488"
         style="fill:#918f90;fill-opacity:1;fill-rule:nonzero;stroke:none"
         id="path46"
         inkscape:connector-curvature="0" /><path
         d="M 2916.02,397.898 V 177.82 c 0,-30.101 -19.34,-47.082 -43.21,-47.082 -23.85,0 -43.18,16.981 -43.18,47.082 V 397.898 H 2784 V 177.82 c 0,-62.371 32.04,-91.738 88.81,-91.738 56.8,0 88.82,29.367 88.82,91.738 v 220.078 h -45.61"
         style="fill:#918f90;fill-opacity:1;fill-rule:nonzero;stroke:none"
         id="path48"
         inkscape:connector-curvature="0" /><path
         d="m 2554.57,353.5 v 44.398 H 2387.01 V 88.5195 h 167.56 V 132.93 h -121.65 v 86.019 h 100.95 v 44.102 H 2432.92 V 353.5 h 121.65"
         style="fill:#918f90;fill-opacity:1;fill-rule:nonzero;stroke:none"
         id="path50"
         inkscape:connector-curvature="0" /><path
         d="m 3862.14,353.5 v 44.398 H 3703.59 V 88.5195 h 158.55 V 132.93 H 3749.5 v 86.019 h 91.93 v 44.102 H 3749.5 V 353.5 h 112.64"
         style="fill:#918f90;fill-opacity:1;fill-rule:nonzero;stroke:none"
         id="path52"
         inkscape:connector-curvature="0" /><path
         d="m 4029.26,262.34 h -42.66 v 90.781 h 42.65 c 25.11,0 45.46,-20.223 45.46,-45.32 0,-25.102 -20.35,-45.461 -45.45,-45.461 z m 43.12,-34.738 c 30.3,14.296 51.27,45.109 51.27,80.847 0,49.352 -40.02,89.371 -89.38,89.371 l -88.32,0.078 v -0.078 h -0.05 l 0.05,-309.3005 h 45.9 V 218.949 h 39.79 l 44.1,-130.4295 h 48.46 l -51.82,139.0825"
         style="fill:#918f90;fill-opacity:1;fill-rule:nonzero;stroke:none"
         id="path54"
         inkscape:connector-curvature="0" /><path
         d="M 3227.92,88.5195 V 397.898 h -44.61 V 195.762 l -84,202.136 h -48.3 V 88.4102 h 44.61 V 290.551 l 83.95,-202.0315 h 48.35"
         style="fill:#918f90;fill-opacity:1;fill-rule:nonzero;stroke:none"
         id="path56"
         inkscape:connector-curvature="0" /><path
         d="M 4733.16,397.898 H 4569.48 V 353.41 h 58.88 V 88.5195 h 45.92 V 353.41 h 58.88 v 44.488"
         style="fill:#918f90;fill-opacity:1;fill-rule:nonzero;stroke:none"
         id="path58"
         inkscape:connector-curvature="0" /><path
         d="m 4933.12,397.898 -44.95,-131.089 -44.96,131.089 h -48.42 l 70.42,-197.226 V 88.4297 h 45.9 V 200.672 l 70.44,197.226 h -48.43"
         style="fill:#918f90;fill-opacity:1;fill-rule:nonzero;stroke:none"
         id="path60"
         inkscape:connector-curvature="0" /><path
         d="M 3509.26,88.2695 3438.41,397.898 H 3485 l 49,-214.019 49.03,214.019 h 46.59 L 3558.77,88.2695 h -49.51"
         style="fill:#918f90;fill-opacity:1;fill-rule:nonzero;stroke:none"
         id="path62"
         inkscape:connector-curvature="0" /><path
         d="m 1995.06,198.93 33.53,114 33.53,-114 z m 99.61,-110.6605 h 47.84 l -91.06,309.6285 h -45.72 L 1914.67,88.2695 h 47.85 l 19.02,64.7105 h 94.09 l 19.04,-64.7105"
         style="fill:#918f90;fill-opacity:1;fill-rule:nonzero;stroke:none"
         id="path64"
         inkscape:connector-curvature="0" /><path
         d="m 4966.46,964.738 v 41.222 c 0,89.04 -61.54,152.99 -149.39,152.99 -93.23,0 -148.82,-64.55 -148.82,-147.02 V 674.879 c 0,-114.141 77.7,-151.777 148.82,-151.777 82.46,0 149.39,55.578 149.39,148.789 v 45.398 h -101.6 v -37.641 c 0,-39.437 -16.72,-54.367 -48.37,-54.367 -35.28,0 -45.43,22.11 -46.03,55.59 v 311.938 c 0,36.471 10.75,65.141 46.61,65.141 34.04,0 47.79,-25.68 47.79,-57.37 v -35.842 h 101.6 v 0"
         style="fill:#231f20;fill-opacity:1;fill-rule:nonzero;stroke:none"
         id="path66"
         inkscape:connector-curvature="0" /><path
         d="m 3689.59,964.738 v 41.222 c 0,89.04 -61.54,152.99 -149.39,152.99 -93.24,0 -148.82,-64.55 -148.82,-147.02 V 674.879 c 0,-114.141 77.69,-151.777 148.82,-151.777 82.46,0 149.39,55.578 149.39,148.789 v 45.398 h -101.6 v -37.641 c 0,-39.437 -16.72,-54.367 -48.37,-54.367 -35.28,0 -45.43,22.11 -46.04,55.59 v 311.938 c 0,36.471 10.76,65.141 46.62,65.141 34.04,0 47.79,-25.68 47.79,-57.37 v -35.842 h 101.6 v 0"
         style="fill:#231f20;fill-opacity:1;fill-rule:nonzero;stroke:none"
         id="path68"
         inkscape:connector-curvature="0" /><path
         d="m 2203.13,1419.25 c 0,-41.98 -22.7,-79.34 -86.45,-79.34 -63.73,0 -86.44,37.36 -86.44,79.34 v 286.8 c 0,41.97 22.71,79.33 86.44,79.33 63.75,0 86.45,-37.36 86.45,-79.33 z m -86.45,453.52 c -131.23,0 -173.82,-78.6 -173.82,-149.07 v -322.11 c 0,-70.46 42.59,-149.06 173.82,-149.06 131.25,0 173.83,78.6 173.83,149.06 v 322.11 c 0,70.47 -42.58,149.07 -173.83,149.07"
         style="fill:#656263;fill-opacity:1;fill-rule:nonzero;stroke:none"
         id="path70"
         inkscape:connector-curvature="0" /><path
         d="m 2643.13,1867.63 v -448.38 c 0,-41.98 -22.71,-79.34 -86.45,-79.34 -63.74,0 -86.45,37.36 -86.45,79.34 v 448.38 h -87.38 v -466.04 c 0,-70.46 42.59,-149.06 173.83,-149.06 131.24,0 173.83,78.6 173.83,149.06 v 466.04 h -87.38"
         style="fill:#656263;fill-opacity:1;fill-rule:nonzero;stroke:none"
         id="path72"
         inkscape:connector-curvature="0" /><path
         d="m 2942.77,1780.42 h -128.61 v 87.21 h 344.61 v -87.21 h -128.61 v -522.73 h -87.39 v 522.73"
         style="fill:#656263;fill-opacity:1;fill-rule:nonzero;stroke:none"
         id="path74"
         inkscape:connector-curvature="0" /><path
         d="m 3248.13,1867.63 h 87.39 v -260.02 h 188.56 v 260.02 h 87.38 v -609.94 h -87.38 v 261.79 h -188.56 v -261.79 h -87.39 v 609.94"
         style="fill:#656263;fill-opacity:1;fill-rule:nonzero;stroke:none"
         id="path76"
         inkscape:connector-curvature="0" /><path
         d="m 3733.34,1867.63 h 312.5 v -87.21 h -223.75 v -174.08 h 201.47 v -86.86 h -201.47 v -174.42 h 223.75 v -87.37 h -312.5 v 609.94"
         style="fill:#656263;fill-opacity:1;fill-rule:nonzero;stroke:none"
         id="path78"
         inkscape:connector-curvature="0" /><path
         d="m 4240.84,1607.61 h 83.54 c 60.83,0 89.52,31.56 89.52,82.67 0,52.64 -39.31,90.14 -93.8,90.14 h -79.26 z m -90,260.02 h 176.96 c 88.66,0 173.47,-70.96 173.47,-179.04 0,-70.26 -44.11,-124.83 -99.81,-155.67 l 99.38,-275.23 h -92.51 l -89.37,258.36 h -78.12 v -258.36 h -90 v 609.94"
         style="fill:#656263;fill-opacity:1;fill-rule:nonzero;stroke:none"
         id="path80"
         inkscape:connector-curvature="0" /><path
         d="m 4595.64,1867.63 h 96.03 l 178.2,-396.58 h 1.71 v 396.58 h 87.38 v -609.94 h -95.28 l -178.94,399.61 h -1.72 v -399.61 h -87.38 v 609.94"
         style="fill:#656263;fill-opacity:1;fill-rule:nonzero;stroke:none"
         id="path82"
         inkscape:connector-curvature="0" /><path
         d="m 1560.45,316.73 c 0,21.27 11.58,40.239 43.94,40.239 32.33,0 43.84,-18.969 43.84,-40.239 v -6.859 h 44.46 v 15.828 c 0,35.731 -21.68,75.571 -88.3,75.571 -66.57,0 -89.37,-41.04 -89.37,-83.098 0,-60.922 26.58,-77 88.11,-96.723 30.51,-8.98 43.91,-18.25 43.91,-50.801 0,-21.277 -11.5,-40.308 -43.91,-40.308 -32.32,0 -43.91,19.031 -43.91,40.308 v 6.84 h -44.2 v -15.789 c 0,-35.789 21.49,-75.7771 88.11,-75.7771 66.66,0 89.56,41.1871 89.56,83.2691 0,60.848 -27.53,78.391 -89.56,96.61 -30.41,8.929 -42.68,18.258 -42.68,50.929"
         style="fill:#918f90;fill-opacity:1;fill-rule:nonzero;stroke:none"
         id="path84"
         inkscape:connector-curvature="0" /><path
         d="m 4237.12,316.73 c 0,21.27 11.57,40.239 43.93,40.239 32.34,0 43.85,-18.969 43.85,-40.239 v -6.859 h 44.46 v 15.828 c 0,35.731 -21.68,75.571 -88.31,75.571 -66.56,0 -89.37,-41.04 -89.37,-83.098 0,-60.922 26.58,-77 88.12,-96.723 30.5,-8.98 43.91,-18.25 43.91,-50.801 0,-21.277 -11.5,-40.308 -43.91,-40.308 -32.33,0 -43.91,19.031 -43.91,40.308 v 6.84 h -44.21 v -15.789 c 0,-35.789 21.5,-75.7771 88.12,-75.7771 66.66,0 89.56,41.1871 89.56,83.2691 0,60.848 -27.53,78.391 -89.56,96.61 -30.41,8.929 -42.68,18.258 -42.68,50.929"
         style="fill:#918f90;fill-opacity:1;fill-rule:nonzero;stroke:none"
         id="path86"
         inkscape:connector-curvature="0" /><path
         d="m 1605.56,1708.14 c 0,41.15 21.7,78.86 85.7,78.86 64,0 86.86,-37.71 86.86,-78.86 v -13.71 h 86.86 v 30.85 c 0,70.86 -42.28,148.57 -173.72,148.57 -131.42,0 -176,-80 -176,-163.42 0,-120 52.59,-152 173.72,-190.86 60.59,-17.15 86.86,-35.42 86.86,-99.43 0,-42.29 -22.86,-80 -86.86,-80 -63.99,0 -85.71,37.71 -85.71,80 v 12.57 h -88.01 v -30.86 c 0,-69.7 42.3,-148.56 173.72,-148.56 131.45,0 176,81.14 176,163.42 0,120 -53.71,155.44 -176,190.86 -59.41,17.14 -83.42,35.44 -83.42,100.57 v 0"
         style="fill:#656263;fill-opacity:1;fill-rule:nonzero;stroke:none"
         id="path88"
         inkscape:connector-curvature="0" /></g></g></svg>