<?xml version="1.0" encoding="UTF-8" standalone="no"?>
<!-- Created with Inkscape (http://www.inkscape.org/) -->

<svg
   xmlns:dc="http://purl.org/dc/elements/1.1/"
   xmlns:cc="http://creativecommons.org/ns#"
   xmlns:rdf="http://www.w3.org/1999/02/22-rdf-syntax-ns#"
   xmlns:svg="http://www.w3.org/2000/svg"
   xmlns="http://www.w3.org/2000/svg"
   xmlns:sodipodi="http://sodipodi.sourceforge.net/DTD/sodipodi-0.dtd"
   xmlns:inkscape="http://www.inkscape.org/namespaces/inkscape"
   version="1.1"
   id="svg2"
   xml:space="preserve"
   width="170.06667"
   height="192.45332"
   viewBox="0 0 170.06667 192.45332"
   sodipodi:docname="Baseball_SP.svg"
   inkscape:export-filename="/home/kurt/Desktop/SPSU Visual Identity WIP/Athletics/Baseball_Marks/SP_Ligature/Baseball_SP.png"
   inkscape:export-xdpi="112.8969"
   inkscape:export-ydpi="112.8969"
   inkscape:version="0.92.1 r15371"><metadata
     id="metadata8"><rdf:RDF><cc:Work
         rdf:about=""><dc:format>image/svg+xml</dc:format><dc:type
           rdf:resource="http://purl.org/dc/dcmitype/StillImage" /><dc:title /></cc:Work></rdf:RDF></metadata><defs
     id="defs6" /><sodipodi:namedview
     pagecolor="#ffffff"
     bordercolor="#666666"
     borderopacity="1"
     objecttolerance="10"
     gridtolerance="10"
     guidetolerance="10"
     inkscape:pageopacity="0"
     inkscape:pageshadow="2"
     inkscape:window-width="1440"
     inkscape:window-height="843"
     id="namedview4"
     showgrid="false"
     inkscape:zoom="3.2527368"
     inkscape:cx="85.033333"
     inkscape:cy="96.226662"
     inkscape:window-x="0"
     inkscape:window-y="31"
     inkscape:window-maximized="1"
     inkscape:current-layer="g12" /><g
     id="g10"
     inkscape:groupmode="layer"
     inkscape:label="ink_ext_XXXXXX"
     transform="matrix(1.3333333,0,0,-1.3333333,0,192.45333)"><g
       id="g12"
       transform="scale(0.1)"><path
         d="m 365.027,979.762 159.629,92.148 94.778,54.71 c 4.289,2.56 11.152,4.25 18.105,4.25 h 0.254 c 7.012,0.04 14.004,-1.66 18.34,-4.25 L 979.63656,939.89252 m 0,0 C 988.57418,934.93214 998.098,918.594 997.617,908.281 V 768.785 752.613 581.91 565.738 535.105 c 0.481,-10.292 -9.16,-27.011 -18.332,-31.738 L 656.133,316.699 c -4.336,-2.539 -11.328,-4.219 -18.34,-4.179 -7.031,-0.04 -14.043,1.64 -18.379,4.179 l -89.617,50.723 c -3.086,1.758 -6.906,1.738 -9.973,-0.063 -3.066,-1.777 -4.961,-5.097 -4.961,-8.629 V 312.898 294.41 131.012 l -149.836,87.457 v 162.48 18.5 58.418 198.047 l 149.836,-21.355 v -76.653 c 0,-3.554 1.895,-6.855 5.008,-8.652 l 101.723,-58.77 c 5.523,-3.125 11.558,-4.277 17.586,-4.316 5.996,0.039 12.043,1.191 17.558,4.316 l 171.934,99.336 c 0,0 12.566,9.629 14.492,14.114 2.996,5.203 4.734,11.132 4.961,17.363 l 0.02,152.625 0.007,16.172 v 31.976 c -0.476,12.493 -6.968,23.778 -17.605,30.422 L 656.738,952.859 c -5.515,3.149 -11.562,4.309 -17.558,4.336 -6.028,-0.027 -12.078,-1.211 -17.586,-4.336 l -101.723,-58.73 c -3.113,-1.789 -5.008,-5.09 -5.008,-8.676 v -47.848 l -149.836,21.36 v 120.797"
         style="fill:#9fa3a5;fill-opacity:1;fill-rule:nonzero;stroke:#9fa3a5;stroke-opacity:1"
         id="path18"
         inkscape:connector-curvature="0"
         sodipodi:nodetypes="cccsccccccccccccccccscccccccccscccccccccccccccsccc" /><path
         d="m 1038.46,988.57 -369.905,213.59 c -9.004,5.18 -19.895,7.44 -30.75,7.46 -10.891,-0.02 -21.77,-2.28 -30.774,-7.46 L 237.063,988.551 C 219.141,978.098 206.379,954.66 206.289,925.32 v -52.957 c 0,-4.004 2.922,-7.351 6.887,-7.918 l 69.859,-9.961 c 0.012,0 0.012,-0.004 0.024,-0.004 l 61.968,-8.839 20,-2.852 149.836,-21.363 20,-2.852 81.532,-11.625 c 0.058,-0.008 0.109,-0.004 0.168,-0.008 l 211.562,-30.164 v -155.48 c 0.48,-3.449 -4.309,-11.738 -7.527,-13.059 l -1.528,-0.879 -261.882,37.344 -22.325,3.184 -20,2.851 -149.836,21.36 -20,2.84 -59.714,8.515 c -0.008,0 -0.008,0 -0.02,0 L 16.0352,721.844 v 317.536 c -0.3711,21.64 16.8164,51.46 35.7695,61.91 l 550.2263,317.65 c 9.27,5.43 22.512,8.46 35.789,8.44 13.243,0.02 26.496,-3.01 35.735,-8.42 l 550.135,-317.67 c 18.99,-10.45 36.16,-40.27 35.79,-61.91 V 864.293 h -190.25 l 0.02,71.02 c -0.38,20.601 -13.07,42.652 -30.79,53.257 z m -20.84,-238.804 241.86,-34.477 V 404 c 0.37,-21.602 -16.8,-51.398 -35.77,-61.828 L 673.574,24.3281 C 664.316,18.9883 651.063,15.9805 637.82,16 624.543,15.9805 611.301,18.9883 602.031,24.3516 L 51.8281,342.148 C 32.8516,352.629 15.6641,382.422 16.0352,404 V 573.285 H 206.27 v -65.222 c 0.363,-20.575 13.085,-42.579 30.793,-53.184 L 345.027,392.512 V 212.711 c 0,-3.531 1.899,-6.832 4.961,-8.633 l 169.836,-99.137 c 1.543,-0.902 3.281,-1.363 5.031,-1.363 1.727,0 3.446,0.442 4.981,1.32 3.102,1.782 5.027,5.122 5.027,8.672 v 169.282 l 72.168,-41.68 c 9.024,-5.141 19.883,-7.383 30.774,-7.402 10.84,0.019 21.707,2.242 30.703,7.371 l 369.972,213.738 c 17.7,10.574 30.39,32.609 30.77,53.184 v 56.699 c 0,3.984 -2.94,7.355 -6.9,7.922 l -44.73,6.375 v 170.707"
         style="fill:#026946;fill-opacity:1;fill-rule:nonzero;stroke:#026946;stroke-opacity:1;stroke-width:0.75000002;stroke-miterlimit:4;stroke-dasharray:none;stroke-linejoin:round;stroke-linecap:round"
         id="path16"
         inkscape:connector-curvature="0" /><path
         d="m 1038.46,988.57 -369.905,213.59 c -9.004,5.18 -19.895,7.44 -30.75,7.46 -10.891,-0.02 -21.77,-2.28 -30.774,-7.46 L 237.063,988.551 C 219.141,978.098 206.379,954.66 206.289,925.32 v -52.957 c 0,-4.004 2.922,-7.351 6.887,-7.918 l 69.859,-9.961 c 0.012,0 0.012,-0.004 0.024,-0.004 l 61.968,-8.839 20,-2.852 149.836,-21.363 20,-2.852 81.532,-11.625 c 0.058,-0.008 0.109,-0.004 0.168,-0.008 l 211.562,-30.164 v -155.48 c 0.48,-3.449 -4.309,-11.738 -7.527,-13.059 l -1.528,-0.879 -261.882,37.344 -22.325,3.184 -20,2.851 -149.836,21.36 -20,2.84 -59.714,8.515 h -0.02 L 16.0352,721.844 v 317.536 c -0.3711,21.64 16.8164,51.46 35.7695,61.91 l 550.2263,317.65 c 9.27,5.43 22.512,8.46 35.789,8.44 13.243,0.02 26.496,-3.01 35.735,-8.42 l 550.135,-317.67 c 18.99,-10.45 36.16,-40.27 35.79,-61.91 V 864.293 h -190.25 l 0.02,71.02 c -0.38,20.601 -13.07,42.652 -30.79,53.257 z M 828.125,792.945 534.863,834.754 v 44.941 l 96.739,55.84 c 1.406,0.86 4.472,1.703 7.578,1.66 3.086,0.043 6.14,-0.8 7.55,-1.66 L 820.559,835.168 c 3.257,-1.34 8.046,-9.645 7.566,-13.098 z M 534.863,563.688 v 68.027 l 17.625,-2.52 63.907,-9.109 h 0.023 L 796.621,594.391 646.73,507.809 c -1.359,-0.84 -4.445,-1.68 -7.55,-1.641 -3.133,-0.039 -6.242,0.801 -7.578,1.641 z m 444.395,376.378 c 9.172,-4.726 18.84,-21.472 18.359,-31.785 V 768.785 752.613 581.91 565.738 535.105 c 0.481,-10.292 -9.16,-27.011 -18.332,-31.738 L 656.133,316.699 c -4.336,-2.539 -11.328,-4.219 -18.34,-4.179 -7.031,-0.04 -14.043,1.64 -18.379,4.179 l -89.617,50.723 c -3.086,1.758 -6.906,1.738 -9.973,-0.063 -3.066,-1.777 -4.961,-5.097 -4.961,-8.629 V 312.898 294.41 131.012 l -149.836,87.457 v 162.48 18.5 58.418 198.047 l 149.836,-21.355 v -76.653 c 0,-3.554 1.895,-6.855 5.008,-8.652 l 101.723,-58.77 c 5.523,-3.125 11.558,-4.277 17.586,-4.316 5.996,0.039 12.043,1.191 17.558,4.316 l 171.934,99.336 c 0,0 12.566,9.629 14.492,14.114 2.996,5.203 4.734,11.132 4.961,17.363 l 0.02,152.625 0.007,16.172 v 31.976 c -0.476,12.493 -6.968,23.778 -17.605,30.422 L 656.738,952.859 c -5.515,3.149 -11.562,4.309 -17.558,4.336 -6.028,-0.027 -12.078,-1.211 -17.586,-4.336 l -101.723,-58.73 c -3.113,-1.789 -5.008,-5.09 -5.008,-8.676 v -47.848 l -149.836,21.36 v 120.797 l 159.629,92.148 94.778,54.71 c 4.289,2.56 11.152,4.25 18.105,4.25 h 0.254 c 7.012,0.04 14.004,-1.66 18.34,-4.25 L 979.258,940.066 m 38.362,-404.961 v 27.782 l 35.6,-5.078 v -49.746 c 0.36,-13.329 -10.95,-32.977 -22.72,-39.317 L 660.527,255.039 c -5.672,-3.32 -14.199,-5.289 -22.722,-5.258 -8.567,-0.031 -17.09,1.938 -22.766,5.258 l -80.176,46.301 v 40.238 l 74.629,-42.246 c 8.438,-4.781 18.379,-6.793 28.301,-6.812 9.902,0.019 19.836,2.05 28.328,6.832 L 989.27,486.043 c 16.55,10.027 27.9,29.734 28.35,49.062 z m 0,214.661 241.86,-34.477 V 404 c 0.37,-21.602 -16.8,-51.398 -35.77,-61.828 L 673.574,24.3281 C 664.316,18.9883 651.063,15.9805 637.82,16 624.543,15.9805 611.301,18.9883 602.031,24.3516 L 51.8281,342.148 C 32.8516,352.629 15.6641,382.422 16.0352,404 V 573.285 H 206.27 v -65.222 c 0.363,-20.575 13.085,-42.579 30.793,-53.184 L 345.027,392.512 V 212.711 c 0,-3.531 1.899,-6.832 4.961,-8.633 l 169.836,-99.137 c 1.543,-0.902 3.281,-1.363 5.031,-1.363 1.727,0 3.446,0.442 4.981,1.32 3.102,1.782 5.027,5.122 5.027,8.672 v 169.282 l 72.168,-41.68 c 9.024,-5.141 19.883,-7.383 30.774,-7.402 10.84,0.019 21.707,2.242 30.703,7.371 l 369.972,213.738 c 17.7,10.574 30.39,32.609 30.77,53.184 v 56.699 c 0,3.984 -2.94,7.355 -6.9,7.922 l -44.73,6.375 z m 37.96,100.851 c 1.49,-1.488 3.54,-2.336 5.67,-2.336 h 206.26 c 2.1,0 4.16,0.848 5.65,2.336 1.5,1.492 2.36,3.574 2.36,5.672 v 183.091 c -0.39,28.87 -18.94,61.07 -43.82,75.8 l -550.118,317.63 c -12.578,7.25 -28.191,10.56 -43.762,10.58 -15.625,-0.02 -31.238,-3.33 -43.797,-10.58 L 43.8203,1115.16 C 18.9336,1100.45 0.371094,1068.25 0,1039.38 V 714.898 c 0,-3.984 2.9375,-7.363 6.88672,-7.929 L 345.027,658.766 V 457.867 410.988 l -99.976,57.758 c -11.781,6.34 -23.117,25.988 -22.746,39.317 v 73.222 c 0,2.11 -0.867,4.16 -2.344,5.656 -1.484,1.493 -3.566,2.352 -5.664,2.352 H 8.02734 c -2.12109,0 -4.17968,-0.859 -5.66406,-2.324 C 0.871094,585.445 0,583.395 0,581.285 V 404 C 0.371094,375.172 18.9336,343 43.8203,328.281 L 594.023,10.4688 C 606.621,3.28125 622.227,0.0195313 637.82,0 c 15.571,0.0195313 31.184,3.28125 43.743,10.4688 L 1231.72,328.281 c 24.86,14.688 43.41,46.891 43.8,75.719 v 318.234 c 0,3.977 -2.94,7.352 -6.91,7.918 l -250.99,35.782 v 142.347 c -0.45,19.352 -11.8,39.055 -28.374,49.11 v -0.012 L 666.172,1143.95 c -8.484,4.85 -18.445,6.88 -28.379,6.92 -9.941,-0.04 -19.91,-2.05 -28.406,-6.95 l -94.719,-54.69 -164.641,-95.035 c -3.086,-1.793 -5,-5.093 -5,-8.675 V 861.816 l -122.722,17.497 v 46.007 c -0.086,24.621 11.179,42.891 22.746,49.36 l 370.008,213.6 c 5.695,3.36 14.199,5.35 22.746,5.33 8.523,0.02 17.031,-1.97 22.703,-5.31 L 1030.48,974.68 c 11.79,-6.344 23.1,-25.992 22.74,-39.367 v -79.024 c 0,-2.121 0.86,-4.18 2.36,-5.672"
         style="fill:#231f20;fill-opacity:1;fill-rule:nonzero;stroke:none"
         id="path14"
         inkscape:connector-curvature="0"
         sodipodi:nodetypes="ccccccsccccccccccccccccccccccccccccccccccccccccccccccccccccccccccccccccscccccccccscccccccccccccccscccccsccccccccccccccccccccccccccccccccsccscsccccccsccccsscscccccccsccccccscsscscccccccsccccccccccscccccccccsc" /></g></g></svg>