<?xml version="1.0" encoding="UTF-8" standalone="no"?>
<!-- Created with Inkscape (http://www.inkscape.org/) -->

<svg
   xmlns:dc="http://purl.org/dc/elements/1.1/"
   xmlns:cc="http://creativecommons.org/ns#"
   xmlns:rdf="http://www.w3.org/1999/02/22-rdf-syntax-ns#"
   xmlns:svg="http://www.w3.org/2000/svg"
   xmlns="http://www.w3.org/2000/svg"
   xmlns:sodipodi="http://sodipodi.sourceforge.net/DTD/sodipodi-0.dtd"
   xmlns:inkscape="http://www.inkscape.org/namespaces/inkscape"
   version="1.1"
   id="svg2"
   xml:space="preserve"
   width="298.66666"
   height="210"
   viewBox="0 0 298.66666 210"
   sodipodi:docname="SPSU_WEB_K.svg"
   inkscape:version="0.92.1 r15371"><metadata
     id="metadata8"><rdf:RDF><cc:Work
         rdf:about=""><dc:format>image/svg+xml</dc:format><dc:type
           rdf:resource="http://purl.org/dc/dcmitype/StillImage" /><dc:title></dc:title></cc:Work></rdf:RDF></metadata><defs
     id="defs6" /><sodipodi:namedview
     pagecolor="#ffffff"
     bordercolor="#666666"
     borderopacity="1"
     objecttolerance="10"
     gridtolerance="10"
     guidetolerance="10"
     inkscape:pageopacity="0"
     inkscape:pageshadow="2"
     inkscape:window-width="1440"
     inkscape:window-height="843"
     id="namedview4"
     showgrid="false"
     inkscape:zoom="1.1238095"
     inkscape:cx="-6.3870107"
     inkscape:cy="105"
     inkscape:window-x="0"
     inkscape:window-y="31"
     inkscape:window-maximized="1"
     inkscape:current-layer="g10" /><g
     id="g10"
     inkscape:groupmode="layer"
     inkscape:label="ink_ext_XXXXXX"
     transform="matrix(1.3333333,0,0,-1.3333333,0,210)"><g
       id="g12"
       transform="scale(0.1)"><path
         d="m 1317.46,466.02 c 0,-25.2 -17.85,-56.219 -39.76,-68.79 L 727.539,79.4102 c -21.797,-12.5704 -57.695,-12.5704 -79.531,0 L 97.7734,397.23 c -21.875,12.571 -39.7656,43.59 -39.7656,68.79 v 635.35 c 0,25.27 17.8906,56.25 39.7656,68.86 l 550.2346,317.62 c 21.836,12.7 57.734,12.7 79.531,0 L 1277.7,1170.23 c 21.91,-12.61 39.76,-43.59 39.76,-68.86 V 466.02"
         style="fill:#231f20;fill-opacity:1;fill-rule:nonzero;stroke:none"
         id="path14"
         inkscape:connector-curvature="0" /><path
         d="m 980.586,1057.38 h 69.644 V 627.813 c 0,-35.899 0,-71.915 43.6,-71.915 42.81,0 42.81,36.016 42.81,76.485 v 424.997 h 70.39 V 636.211 c 0,-37.422 0,-139.18 -115.55,-139.18 -110.894,0 -110.894,97.149 -110.894,126.211 v 434.138"
         style="fill:#ffffff;fill-opacity:1;fill-rule:nonzero;stroke:none"
         id="path16"
         inkscape:connector-curvature="0" /><path
         d="m 579.805,880.352 h -0.078 V 773.867 c 0,-35.937 0,-71.914 -43.594,-71.914 h -29.922 v 296.641 h 30 c 43.594,0 43.594,-35.977 43.594,-71.914 z m -41.289,177.108 h -92.578 l 0.078,-0.08 h -9.688 v -561.4 h 69.883 v 147.028 h 32.187 c 110.938,0 110.938,97.187 110.938,126.25 v 50.937 h 0.039 V 931.25 c 0,29.102 0,126.21 -110.859,126.21"
         style="fill:#ffffff;fill-opacity:1;fill-rule:nonzero;stroke:none"
         id="path18"
         inkscape:connector-curvature="0" /><path
         d="m 310.234,788.438 c -52.812,76.484 -69.648,101.757 -69.648,156.796 0,26.836 3.086,54.297 35.977,54.297 26.015,0 28.281,-19.843 28.281,-36.679 v -35.86 h 65.039 v 36.641 c 0,55.817 -23.711,92.497 -91.016,92.497 -36.758,0 -69.648,-9.84 -91.054,-44.29 -12.227,-20.668 -18.399,-45.16 -18.399,-74.223 0,-69.648 31.406,-115.508 74.258,-177.5 48.945,-71.875 58.125,-94.844 58.125,-145.312 0,-28.282 -0.742,-62.696 -34.414,-62.696 -36.719,0 -36.719,33.633 -36.719,52.032 v 38.867 h -65.781 v -30.547 c 0,-27.461 0,-116.992 103.242,-116.992 19.883,0 55.82,2.34 81.133,35.98 16.015,22.18 25.195,56.637 25.195,92.574 0,69.532 -29.805,113.165 -64.219,164.415"
         style="fill:#ffffff;fill-opacity:1;fill-rule:nonzero;stroke:none"
         id="path20"
         inkscape:connector-curvature="0" /><path
         d="m 856.523,788.438 c -52.812,76.484 -69.687,101.757 -69.687,156.796 0,26.836 3.125,54.297 36.016,54.297 26.015,0 28.281,-19.843 28.281,-36.679 v -35.86 h 65.039 v 36.641 c 0,55.817 -23.711,92.497 -91.016,92.497 -36.758,0 -69.648,-9.84 -91.054,-44.29 -12.227,-20.668 -18.399,-45.16 -18.399,-74.223 0,-69.648 31.406,-115.508 74.258,-177.5 48.906,-71.875 58.125,-94.844 58.125,-145.312 0,-28.282 -0.781,-62.696 -34.414,-62.696 -36.719,0 -36.719,33.633 -36.719,52.032 v 38.867 h -65.82 v -30.547 c 0,-27.461 0,-116.992 103.281,-116.992 19.883,0 55.82,2.34 81.133,35.98 15.976,22.18 25.195,56.637 25.195,92.574 0,69.532 -29.844,113.165 -64.219,164.415"
         style="fill:#ffffff;fill-opacity:1;fill-rule:nonzero;stroke:none"
         id="path22"
         inkscape:connector-curvature="0" /><path
         d="m 1380.82,566.871 h 65.31 v -65.312 h -65.31 v 65.312"
         style="fill:#231f20;fill-opacity:1;fill-rule:nonzero;stroke:none"
         id="path24"
         inkscape:connector-curvature="0" /><path
         d="m 1559.41,690.469 h 64.03 v 37.109 c 0,24.336 -12.19,37.149 -32.03,37.149 -19.85,0 -32,-12.813 -32,-37.149 z m 0,-51.25 v -44.141 c 0,-20.508 12.15,-32.027 32,-32.027 25,0 30.74,18.59 32.03,32.652 h 65.31 c 0,-26.875 -9.61,-51.871 -26.25,-69.144 -17.3,-17.93 -40.98,-28.829 -71.09,-28.829 -39.69,0 -69.77,18.602 -85.16,46.719 -8.95,16.68 -12.15,39.731 -12.15,65.981 v 106.914 c 0,26.25 3.2,49.297 12.15,65.957 15.39,28.164 45.47,46.738 85.16,46.738 60.19,0 97.34,-44.18 97.34,-101.172 v -89.648 h -129.34"
         style="fill:#231f20;fill-opacity:1;fill-rule:nonzero;stroke:none"
         id="path26"
         inkscape:connector-curvature="0" /><path
         d="m 1801.95,607.227 c 0,-26.25 9.61,-44.176 32.03,-44.176 19.85,0 32.66,16.637 32.66,40.308 v 126.172 c 0,20.469 -14.1,35.196 -32.66,35.196 -24.96,0 -32.03,-17.93 -32.03,-38.399 z m 64.69,-76.207 c -16.64,-18.559 -29.45,-33.29 -62.11,-33.29 -26.25,0 -45.47,9.61 -56.99,30.75 -7.7,14.102 -10.9,33.942 -10.9,69.801 v 123.555 c 0,46.738 1.95,65.293 10.27,78.75 10.86,17.285 26.88,29.453 58.25,29.453 25.62,0 46.09,-12.168 60.19,-33.301 h 1.29 v 160.703 h 65.31 V 501.559 h -65.31 v 29.461"
         style="fill:#231f20;fill-opacity:1;fill-rule:nonzero;stroke:none"
         id="path28"
         inkscape:connector-curvature="0" /><path
         d="m 2180.94,501.559 h -65.31 v 31.41 h -1.29 c -13.44,-20.508 -31.37,-35.239 -61.49,-35.239 -32.62,0 -67.22,21.141 -67.22,79.379 v 249.082 h 65.31 V 601.484 c 0,-23.711 11.52,-38.433 32.03,-38.433 24.33,0 32.66,16.012 32.66,44.84 v 218.3 h 65.31 V 501.559"
         style="fill:#231f20;fill-opacity:1;fill-rule:nonzero;stroke:none"
         id="path30"
         inkscape:connector-curvature="0" /></g></g></svg>