<?xml version="1.0" encoding="UTF-8" standalone="no"?>
<!-- Created with Inkscape (http://www.inkscape.org/) -->

<svg
   xmlns:dc="http://purl.org/dc/elements/1.1/"
   xmlns:cc="http://creativecommons.org/ns#"
   xmlns:rdf="http://www.w3.org/1999/02/22-rdf-syntax-ns#"
   xmlns:svg="http://www.w3.org/2000/svg"
   xmlns="http://www.w3.org/2000/svg"
   xmlns:sodipodi="http://sodipodi.sourceforge.net/DTD/sodipodi-0.dtd"
   xmlns:inkscape="http://www.inkscape.org/namespaces/inkscape"
   version="1.1"
   id="svg2"
   xml:space="preserve"
   width="628.32001"
   height="730.94666"
   viewBox="0 0 628.32001 730.94666"
   sodipodi:docname="SPSU Soccer HORNET B B&amp;W.svg"
   inkscape:version="0.92.1 r15371"><metadata
     id="metadata8"><rdf:RDF><cc:Work
         rdf:about=""><dc:format>image/svg+xml</dc:format><dc:type
           rdf:resource="http://purl.org/dc/dcmitype/StillImage" /><dc:title></dc:title></cc:Work></rdf:RDF></metadata><defs
     id="defs6"><clipPath
       clipPathUnits="userSpaceOnUse"
       id="clipPath34"><path
         d="m 4367.31,3934.41 c -16.92,-58.64 -60.12,-106.73 -123.92,-147.03 -63.67,-40.2 -147.38,-71.88 -241.92,-97.24 -52.33,-14.07 -107.98,-26.2 -165.4,-36.95 -131.43,-24.61 -426.92,-50.42 -688.54,-69.84 -130.89,-9.74 -253.49,-17.92 -343.35,-23.68 -89.84,-5.73 -146.83,-9.04 -146.96,-9.05 -8.27,-0.49 -14.59,-7.59 -14.1,-15.85 0.47,-8.28 7.56,-14.58 15.84,-14.11 0.16,0.03 111.48,6.48 267.73,17 1.44,-0.53 2.94,-0.9 4.55,-0.96 262.62,-9.91 577.45,-47.58 904.38,-148.35 138.94,-42.81 228.62,-88.41 285.08,-130.77 56.52,-42.43 79.66,-81.14 87.7,-111.02 2.76,-10.32 3.74,-19.71 3.64,-28.01 -0.5,-28.83 -11.86,-66.1 -49.19,-111.16 -37.35,-44.99 -100.78,-97.23 -203.83,-154.08 -99.79,-55.18 -202.18,-127.36 -324.15,-160.01 -135.18,-36.04 -294.88,-25.94 -508.13,111.94 -204.89,132.81 -323.35,212.73 -390.44,259.37 -33.57,23.32 -54.29,38.3 -66.56,47.42 -6.12,4.55 -10.14,7.63 -12.57,9.54 -2.44,1.92 -3.14,2.5 -3.16,2.49 -1.41,1.21 -3.01,2.05 -4.67,2.63 l 0.12,0.19 c -208.28,150.23 -308.33,278.02 -336.58,384.04 -20.73,77.87 -4.81,144.72 36.24,206.54 61.63,92.57 182.35,170.82 316.97,236.46 132.2,64.63 279.95,116.05 395.49,162.34 0.52,0.15 1.04,0.24 1.55,0.45 237.7,97.62 439.03,187.79 603.23,231.85 93.03,25.02 173.92,35.09 242.26,24.41 80.2,-12.3 185.86,-67.12 275.16,-138.36 89.51,-70.94 162.75,-158.9 182.06,-232.18 6.67,-24.91 7.31,-47.71 1.47,-68.02 z"
         id="path32"
         inkscape:connector-curvature="0" /></clipPath><radialGradient
       fx="0"
       fy="0"
       cx="0"
       cy="0"
       r="1"
       gradientUnits="userSpaceOnUse"
       gradientTransform="matrix(1407.83,309.471,309.471,-1407.83,2941.11,3591.14)"
       spreadMethod="pad"
       id="radialGradient42"><stop
         style="stop-opacity:1;stop-color:#bdbcbc"
         offset="0"
         id="stop36" /><stop
         style="stop-opacity:1;stop-color:#bdbcbc"
         offset="0.285714"
         id="stop38" /><stop
         style="stop-opacity:1;stop-color:#ffffff"
         offset="1"
         id="stop40" /></radialGradient><clipPath
       clipPathUnits="userSpaceOnUse"
       id="clipPath52"><path
         d="m 2328.8,3387.05 c -8.21,-35.36 -22.84,-66.2 -45.98,-90.7 -23.18,-24.47 -55.12,-43.1 -100.02,-53.14 -27.99,-6.25 -61.01,-9.05 -99.67,-7.49 -396.3,16.02 -450.14,11.47 -651.3,57.36 -12.64,3.27 -29.22,7.57 -48.97,12.72 -140.51,36.65 -438.551,116.02 -567.43,161.88 -168.7,59.85 -344.785,225.57 -414.578,467.23 -13.457,46.46 -26.758,97.24 -38.45,149.67 -24.441,109.54 -41.765,226.38 -39.089,325.3 2.48,99.26 25.835,178.79 76.316,216.79 14.394,10.99 31.301,18.41 50.637,22.72 73.125,16.8 181.004,-14.73 283.589,-62.89 102.739,-47.87 200.852,-111.23 258.555,-153.75 65.62,-48.33 253.28,-197.76 424.1,-334.79 85.45,-68.52 166.76,-134.02 226.72,-182.38 59.94,-48.36 98.43,-79.5 98.54,-79.58 6.43,-5.21 15.89,-4.2 21.09,2.22 5.2,6.45 4.21,15.89 -2.23,21.11 -0.04,0.03 -55.52,44.91 -136.72,110.37 -0.07,0.07 -0.09,0.16 -0.15,0.24 -284.8,385.47 -446.43,595.62 -563.82,839.78 -50.02,103.94 -84.823,199.62 -103.229,282.33 -25.09,111.77 -19.328,199.2 14.93,251.1 25.515,39.25 69.959,61.72 123.089,73.57 68.51,15.33 149.53,12.14 212.51,7.74 56.36,-3.84 163.16,-8.62 275.09,-65.65 111.74,-57.13 228.99,-165.88 305.63,-382.15 49.78,-140.78 116.83,-345.04 171.39,-514.02 27.28,-84.49 51.47,-160.18 68.79,-214.74 17.35,-54.55 27.86,-87.87 27.87,-87.97 0.46,-1.48 1.19,-2.78 2.03,-3.98 5.95,-18.3 19.1,-58.74 35.05,-108.95 21.88,-68.81 48.9,-155.67 69.55,-227.64 12.47,-43.43 36.81,-114.56 54.3,-193.02 18.05,-80.57 28.35,-168.65 11.86,-239.29 z"
         id="path50"
         inkscape:connector-curvature="0" /></clipPath><radialGradient
       fx="0"
       fy="0"
       cx="0"
       cy="0"
       r="1"
       gradientUnits="userSpaceOnUse"
       gradientTransform="matrix(1491.94,327.96,327.96,-1491.94,1661.53,3872.64)"
       spreadMethod="pad"
       id="radialGradient60"><stop
         style="stop-opacity:1;stop-color:#bdbcbc"
         offset="0"
         id="stop54" /><stop
         style="stop-opacity:1;stop-color:#bdbcbc"
         offset="0.285714"
         id="stop56" /><stop
         style="stop-opacity:1;stop-color:#ffffff"
         offset="1"
         id="stop58" /></radialGradient><clipPath
       clipPathUnits="userSpaceOnUse"
       id="clipPath110"><path
         d="m 186.352,2339.96 c -14.891,27.44 -20.868,51.75 -20.969,84.76 0,69.89 0,104.83 0,174.73 0.043,12.62 3.578,23.27 8.609,31.18 5.039,7.94 12.285,15.74 26.715,22.58 16.984,8.06 25.262,7.64 28.348,5.98 2.996,-1.62 6.883,-5.68 7.078,-23.54 0,-90 0,-135 0,-225 44.457,20.37 66.773,30.26 111.586,49.51 0,92.49 0,138.75 0,231.24 0.422,42.29 -13.293,74.28 -42.133,84.97 -28.617,10.6 -65.945,1.81 -109.348,-18.44 -42.992,-20.07 -81.14,-51.37 -108.8513,-91.26 -27.7031,-39.89 -42.6094,-86.49 -42.3828,-129.7 0,-65.5 0,-98.29 0,-163.81 0.2031,-49.76 14.2578,-104.76 41.6172,-145.99 49.3129,-74.13 74.0939,-111.57 123.8869,-187.13 20.055,-40.91 28.301,-64.09 28.613,-119.11 0,-77.37 0.012,-116.06 0.012,-193.43 -0.141,-21.88 -4.586,-31.71 -8.293,-36.92 -3.668,-5.55 -14.039,-15.21 -36.082,-25.38 -22.75,-10.51 -29.731,-8.2 -33.153,-5.89 -3.558,2.4 -6.695,10.25 -6.632,25.61 0,93.76 0.004,140.66 0.004,234.42 -44.18,-21.19 -66.1879,-32.06 -109.9731,-54.38 0,-91.88 0,-137.84 0,-229.73 -0.1172,-42.48 9.5859,-77.15 36.9414,-91.57 27.2847,-14.38 67.0937,-6.68 117.0157,16.68 0.086,0.04 0.172,0.09 0.258,0.13 50.73,23.72 91.14,53.38 119.254,92.87 28.172,39.57 38.461,82.73 38.281,123.04 0,84.87 0,127.32 0,212.19 0,69.1 -21.766,119.41 -48.137,162.61 -49.125,76.19 -73.582,113.94 -122.265,188.78 z"
         id="path108"
         inkscape:connector-curvature="0" /></clipPath><linearGradient
       x1="0"
       y1="0"
       x2="1"
       y2="0"
       gradientUnits="userSpaceOnUse"
       gradientTransform="matrix(156.664,-1116.66,-1116.66,-156.664,117.646,2722.83)"
       spreadMethod="pad"
       id="linearGradient118"><stop
         style="stop-opacity:1;stop-color:#ffffff"
         offset="0"
         id="stop112" /><stop
         style="stop-opacity:1;stop-color:#ffffff"
         offset="0.527473"
         id="stop114" /><stop
         style="stop-opacity:1;stop-color:#94989a"
         offset="1"
         id="stop116" /></linearGradient><clipPath
       clipPathUnits="userSpaceOnUse"
       id="clipPath128"><path
         d="m 513.32,2740.36 c 0.141,19.3 5.121,31.38 11.227,39.93 6.113,8.57 16.055,17.07 32.582,23.31 16.48,6.22 25.82,5.08 31.57,1.25 5.754,-3.82 10.731,-12.32 10.832,-31.88 0,-297.45 0,-594.9 0,-892.35 -0.101,-19.62 -5.054,-31.75 -10.832,-39.87 -5.773,-8.11 -15.008,-16.09 -31.558,-22.37 -16.45,-6.24 -26.504,-5.41 -32.59,-1.57 -6.067,3.83 -11.09,12.03 -11.231,31.22 0,297.44 0,594.88 0,892.33 z m 43.821,170.04 c -47.336,-17.9 -88.375,-46.42 -118.125,-85.42 -29.793,-39.05 -44.856,-85.92 -44.59,-130.95 -0.012,-298.5 -0.024,-597 0.004,-895.49 -0.266,-45.25 14.816,-79.39 44.574,-94.21 29.707,-14.8 70.766,-10.7 118.137,7.22 0.082,0.03 0.156,0.05 0.238,0.08 47.25,17.85 88.363,44.84 118.148,82.3 29.864,37.55 44.661,82.88 44.414,127.7 -0.023,298.49 -0.007,596.98 -0.007,895.47 0.242,45.01 -14.543,80.44 -44.407,97.1 -29.808,16.64 -71.054,14.09 -118.386,-3.8 z"
         id="path126"
         inkscape:connector-curvature="0" /></clipPath><linearGradient
       x1="0"
       y1="0"
       x2="1"
       y2="0"
       gradientUnits="userSpaceOnUse"
       gradientTransform="matrix(106.666,-1136.66,-1136.66,-106.666,502.72,2888.2)"
       spreadMethod="pad"
       id="linearGradient136"><stop
         style="stop-opacity:1;stop-color:#ffffff"
         offset="0"
         id="stop130" /><stop
         style="stop-opacity:1;stop-color:#ffffff"
         offset="0.527473"
         id="stop132" /><stop
         style="stop-opacity:1;stop-color:#94989a"
         offset="1"
         id="stop134" /></linearGradient><clipPath
       clipPathUnits="userSpaceOnUse"
       id="clipPath146"><path
         d="m 989.563,3045.79 c 0,-346.44 0,-692.9 0,-1039.35 -0.129,-19.62 -5.208,-31.38 -11.079,-38.99 -5.879,-7.63 -15.3,-14.79 -32.175,-19.69 -16.813,-4.87 -27.047,-3.18 -33.274,1.17 -6.219,4.34 -11.336,12.95 -11.48,32.15 0,346.45 0,692.9 0,1039.34 -48.762,-14.55 -73.078,-22.13 -121.543,-37.91 0,-346.96 0,-693.94 0,-1040.9 -0.266,-45.22 15.191,-80.63 45.625,-97.97 30.379,-17.3 72.316,-16.65 120.664,-2.69 0.082,0.02 0.16,0.03 0.242,0.05 48.199,13.87 90.137,37.45 120.457,72.41 30.43,35.08 45.49,79.2 45.24,124.04 0,346.96 -0.01,693.93 -0.01,1040.9 -12.05,-3.04 -18.07,-4.58 -30.11,-7.7 -37.09,-9.58 -55.61,-14.56 -92.557,-24.86 z"
         id="path144"
         inkscape:connector-curvature="0" /></clipPath><linearGradient
       x1="0"
       y1="0"
       x2="1"
       y2="0"
       gradientUnits="userSpaceOnUse"
       gradientTransform="matrix(143.331,-1153.34,-1153.34,-143.331,883.926,3004.24)"
       spreadMethod="pad"
       id="linearGradient154"><stop
         style="stop-opacity:1;stop-color:#ffffff"
         offset="0"
         id="stop148" /><stop
         style="stop-opacity:1;stop-color:#ffffff"
         offset="0.527473"
         id="stop150" /><stop
         style="stop-opacity:1;stop-color:#94989a"
         offset="1"
         id="stop152" /></linearGradient><clipPath
       clipPathUnits="userSpaceOnUse"
       id="clipPath164"><path
         d="m 1144.15,2979.48 c 44.57,10.93 66.91,16.14 111.66,26.04 0,-359.85 0.03,-719.7 0,-1079.55 49.45,10.94 74.23,16.12 123.88,25.82 0.03,359.84 -0.01,719.69 0.01,1079.53 44.93,8.78 67.42,12.92 112.5,20.68 0,42.72 0,64.08 0,106.8 -116.82,-20.08 -232.93,-44.29 -348.05,-72.52 0,-42.72 0,-64.08 0,-106.8 z"
         id="path162"
         inkscape:connector-curvature="0" /></clipPath><linearGradient
       x1="0"
       y1="0"
       x2="1"
       y2="0"
       gradientUnits="userSpaceOnUse"
       gradientTransform="matrix(130,-1173.34,-1173.34,-130,1310.03,3119.77)"
       spreadMethod="pad"
       id="linearGradient172"><stop
         style="stop-opacity:1;stop-color:#ffffff"
         offset="0"
         id="stop166" /><stop
         style="stop-opacity:1;stop-color:#ffffff"
         offset="0.527473"
         id="stop168" /><stop
         style="stop-opacity:1;stop-color:#94989a"
         offset="1"
         id="stop170" /></linearGradient><clipPath
       clipPathUnits="userSpaceOnUse"
       id="clipPath182"><path
         d="m 1739.47,2670.97 c -36.09,-4.4 -54.12,-6.77 -90.15,-11.82 0.01,174.73 0.01,349.45 0.01,524.18 -50,-7.01 -74.96,-10.82 -124.81,-19.07 0,-12 0,-18.02 0,-30.02 0,-385.45 -0.01,-770.9 -0.01,-1156.35 49.86,8.25 74.82,12.09 124.82,19.09 0,185.12 0.01,370.25 0.01,555.36 36.02,5.05 54.05,7.42 90.14,11.82 0,-185.12 0,-370.24 -0.01,-555.36 50.09,6.11 75.17,8.87 125.36,13.73 0,395.44 0,790.88 0,1186.32 -50.19,-4.86 -75.26,-7.6 -125.35,-13.71 0,-174.72 0,-349.45 -0.01,-524.17 z"
         id="path180"
         inkscape:connector-curvature="0" /></clipPath><linearGradient
       x1="0"
       y1="0"
       x2="1"
       y2="0"
       gradientUnits="userSpaceOnUse"
       gradientTransform="matrix(113.335,-1176.66,-1176.66,-113.335,1637.82,3183.63)"
       spreadMethod="pad"
       id="linearGradient190"><stop
         style="stop-opacity:1;stop-color:#ffffff"
         offset="0"
         id="stop184" /><stop
         style="stop-opacity:1;stop-color:#ffffff"
         offset="0.527473"
         id="stop186" /><stop
         style="stop-opacity:1;stop-color:#94989a"
         offset="1"
         id="stop188" /></linearGradient><clipPath
       clipPathUnits="userSpaceOnUse"
       id="clipPath200"><path
         d="m 2046.03,2592.17 c 58.34,3.55 87.55,4.91 145.95,6.8 0,42.72 -0.01,64.09 -0.01,106.81 -58.4,-1.88 -87.6,-3.23 -145.94,-6.8 0,139.13 0,278.24 0,417.36 62.18,3.8 93.31,5.22 155.56,7.11 0,42.72 0,64.08 0,106.79 -93.87,-2.84 -187.65,-8.31 -281.22,-16.32 0,-12.01 0,-18 0,-30 0,-385.46 0,-770.91 0,-1156.37 97.3,8.36 194.83,13.91 292.43,16.68 0,42.72 0,64.09 0,106.82 -66.75,-1.88 -100.1,-3.38 -166.77,-7.45 0,149.53 0,299.05 0,448.57 z"
         id="path198"
         inkscape:connector-curvature="0" /></clipPath><linearGradient
       x1="0"
       y1="0"
       x2="1"
       y2="0"
       gradientUnits="userSpaceOnUse"
       gradientTransform="matrix(20.0005,-1193.34,-1193.34,-20.0005,2050.95,3227.72)"
       spreadMethod="pad"
       id="linearGradient208"><stop
         style="stop-opacity:1;stop-color:#ffffff"
         offset="0"
         id="stop202" /><stop
         style="stop-opacity:1;stop-color:#ffffff"
         offset="0.527473"
         id="stop204" /><stop
         style="stop-opacity:1;stop-color:#94989a"
         offset="1"
         id="stop206" /></linearGradient><clipPath
       clipPathUnits="userSpaceOnUse"
       id="clipPath218"><path
         d="m 2892.08,2593.45 c -30.41,206.58 -60.88,413.16 -91.41,619.72 -61.35,5.38 -92.07,7.59 -153.53,11.11 0,-12 0,-18 0,-30 0,-385.45 0,-770.9 0,-1156.35 50.31,-2.88 75.46,-4.63 125.7,-8.75 0,195.61 0.02,391.22 -0.01,586.83 30.66,-198.38 61.2,-396.77 91.57,-595.19 61.25,-6.14 91.86,-9.68 152.94,-17.67 0,395.44 0,790.9 0,1186.35 -50.05,6.56 -75.1,9.52 -125.26,14.83 0,-203.63 0,-407.25 0,-610.88 z"
         id="path216"
         inkscape:connector-curvature="0" /></clipPath><linearGradient
       x1="0"
       y1="0"
       x2="1"
       y2="0"
       gradientUnits="userSpaceOnUse"
       gradientTransform="matrix(-30.0005,-1176.67,-1176.67,30.0005,2847.47,3210.67)"
       spreadMethod="pad"
       id="linearGradient226"><stop
         style="stop-opacity:1;stop-color:#ffffff"
         offset="0"
         id="stop220" /><stop
         style="stop-opacity:1;stop-color:#ffffff"
         offset="0.527473"
         id="stop222" /><stop
         style="stop-opacity:1;stop-color:#94989a"
         offset="1"
         id="stop224" /></linearGradient><clipPath
       clipPathUnits="userSpaceOnUse"
       id="clipPath236"><path
         d="m 3426.64,2582.19 c 0,143.28 0,286.57 0,429.85 15,-3.22 22.5,-4.86 37.48,-8.2 20.16,-4.47 31.52,-11.75 36.87,-17.85 5.25,-5.99 9.7,-14.22 9.98,-33.05 0,-117.51 0,-235.04 0,-352.56 -0.34,-15.84 -4.43,-21.14 -10.45,-24.95 -6.09,-3.85 -18.25,-5.51 -36.4,-1.45 -14.98,3.34 -22.48,4.99 -37.48,8.21 z m 164.01,465.34 c -29.62,31.52 -69.19,50.13 -115.52,60.63 -68.81,15.5 -103.3,22.65 -172.48,35.74 0,-12 0,-18 0,-30 0,-385.43 0,-770.88 0,-1156.32 49.69,-9.41 74.49,-14.43 123.99,-25.08 0,180.97 0.01,361.92 -0.01,542.89 19.41,-4.18 29.12,-6.32 48.51,-10.68 47.54,-10.73 87.66,-8.06 116.24,9.72 28.61,17.81 42.96,50.75 42.72,89.43 0,122.72 0,245.44 0,368.17 0.36,42.08 -13.64,83.8 -43.45,115.5 z"
         id="path234"
         inkscape:connector-curvature="0" /></clipPath><linearGradient
       x1="0"
       y1="0"
       x2="1"
       y2="0"
       gradientUnits="userSpaceOnUse"
       gradientTransform="matrix(-124.326,-1153.48,-1153.48,124.326,3496.02,3105.9)"
       spreadMethod="pad"
       id="linearGradient244"><stop
         style="stop-opacity:1;stop-color:#ffffff"
         offset="0"
         id="stop238" /><stop
         style="stop-opacity:1;stop-color:#ffffff"
         offset="0.527473"
         id="stop240" /><stop
         style="stop-opacity:1;stop-color:#94989a"
         offset="1"
         id="stop242" /></linearGradient><clipPath
       clipPathUnits="userSpaceOnUse"
       id="clipPath254"><path
         d="m 3805.62,2874.98 c 0.14,19.21 5.29,27.84 11.48,32.14 6.21,4.32 16.45,5.96 33.18,0.8 16.82,-5.19 26.18,-12.69 32.02,-20.5 5.84,-7.8 10.86,-19.72 10.99,-39.35 0,-297.45 0,-594.91 0,-892.36 -0.13,-19.53 -5.16,-28.3 -10.99,-32.41 -5.82,-4.11 -15.29,-5.72 -32.02,-0.6 -16.78,5.13 -26.94,12.83 -33.18,20.91 -6.22,8.06 -11.34,19.72 -11.48,39 0,297.46 0,594.91 0,892.37 z m 44.66,139.74 c -48.14,14.77 -90.26,14.68 -120.88,-3.63 -30.66,-18.33 -46.28,-54.7 -46.01,-99.92 0,-298.49 0,-596.98 0,-895.47 -0.27,-45.06 15.34,-89.68 46.01,-125.22 30.65,-35.5 72.72,-59.83 120.88,-74.59 0.04,-0.01 0.09,-0.05 0.13,-0.06 48.03,-14.69 89.57,-16.04 119.45,1 29.96,17.08 44.72,52.27 44.47,97.3 0,298.5 0,596.98 0,895.48 0.25,44.83 -14.49,90.38 -44.47,127.5 -29.93,37.07 -71.49,62.86 -119.58,77.61 z"
         id="path252"
         inkscape:connector-curvature="0" /></clipPath><linearGradient
       x1="0"
       y1="0"
       x2="1"
       y2="0"
       gradientUnits="userSpaceOnUse"
       gradientTransform="matrix(-126.67,-1136.67,-1136.67,126.67,3912.88,2987.04)"
       spreadMethod="pad"
       id="linearGradient262"><stop
         style="stop-opacity:1;stop-color:#ffffff"
         offset="0"
         id="stop256" /><stop
         style="stop-opacity:1;stop-color:#ffffff"
         offset="0.527473"
         id="stop258" /><stop
         style="stop-opacity:1;stop-color:#94989a"
         offset="1"
         id="stop260" /></linearGradient><clipPath
       clipPathUnits="userSpaceOnUse"
       id="clipPath272"><path
         d="m 4197.22,2888.11 c -47.76,18.52 -71.71,27.47 -119.81,44.75 0,-12 0,-18.01 0,-30.01 0,-385.45 0,-770.91 0,-1156.36 93.96,-33.74 186.9,-70.3 278.69,-109.52 0,42.73 0,64.1 0,106.83 -63.22,27.01 -95,39.96 -158.88,64.75 0,359.85 0,719.7 0,1079.56 z"
         id="path270"
         inkscape:connector-curvature="0" /></clipPath><linearGradient
       x1="0"
       y1="0"
       x2="1"
       y2="0"
       gradientUnits="userSpaceOnUse"
       gradientTransform="matrix(-173.272,-1112.71,-1112.71,173.272,4304.54,2848.58)"
       spreadMethod="pad"
       id="linearGradient280"><stop
         style="stop-opacity:1;stop-color:#ffffff"
         offset="0"
         id="stop274" /><stop
         style="stop-opacity:1;stop-color:#ffffff"
         offset="0.527473"
         id="stop276" /><stop
         style="stop-opacity:1;stop-color:#94989a"
         offset="1"
         id="stop278" /></linearGradient><clipPath
       clipPathUnits="userSpaceOnUse"
       id="clipPath290"><path
         d="m 4549.71,2735.79 c -1.53,-9.39 -2.29,-14.07 -3.81,-23.47 -21.85,-134.1 -43.68,-268.2 -65.51,-402.3 -23.1,163.22 -46.43,326.41 -69.68,489.61 -47.78,21.08 -71.79,31.31 -119.97,51.1 43.92,-256.8 87.6,-513.64 130.98,-770.53 0,-157.26 0,-314.52 0,-471.77 47.04,-20.89 70.46,-31.66 117.09,-53.79 0.02,157.26 0.01,314.51 0.01,471.77 42.94,217.09 85.81,434.2 128.56,651.32 -46.84,23.87 -70.38,35.48 -117.67,58.06 z"
         id="path288"
         inkscape:connector-curvature="0" /></clipPath><linearGradient
       x1="0"
       y1="0"
       x2="1"
       y2="0"
       gradientUnits="userSpaceOnUse"
       gradientTransform="matrix(-209.999,-1090,-1090,209.999,4516.18,2729.06)"
       spreadMethod="pad"
       id="linearGradient298"><stop
         style="stop-opacity:1;stop-color:#ffffff"
         offset="0"
         id="stop292" /><stop
         style="stop-opacity:1;stop-color:#ffffff"
         offset="0.527473"
         id="stop294" /><stop
         style="stop-opacity:1;stop-color:#94989a"
         offset="1"
         id="stop296" /></linearGradient><clipPath
       clipPathUnits="userSpaceOnUse"
       id="clipPath308"><path
         d="m 2374.9,3125.77 c 15.26,-0.06 22.88,-0.12 38.14,-0.29 21.54,-0.24 32.93,-5.22 38.01,-9.91 4.98,-4.59 9.5,-11.89 9.76,-31.06 0,-110.76 0,-221.52 0,-332.28 -0.28,-19.37 -5.16,-27.81 -11.69,-33.51 -6.61,-5.76 -19.76,-10.76 -42.49,-10.54 0,-0.02 0,-0.02 0,-0.02 -12.69,0.13 -19.03,0.17 -31.73,0.22 0,139.13 0,278.26 0,417.39 z m 192.29,-481.97 c 23.1,25.12 19.39,83.85 19.51,116.76 0,110.76 0,221.54 0,332.3 0.45,42.55 -18.21,80.69 -48.96,104.38 -30.72,23.68 -70.4,34.28 -113.47,34.91 -70.13,0.94 -105.2,0.8 -175.31,-0.67 0,-12 0,-18.02 0,-30.02 0,-385.44 0,-770.87 0,-1156.31 50.37,1.06 75.56,1.28 125.94,1.09 0,185.12 0,370.24 0,555.35 9.11,-0.04 14.71,-0.08 22.36,-0.13 18.76,-171.61 45.08,-410.39 63.55,-556.27 50.36,-1.04 75.56,-1.87 125.89,-4.14 -25.08,173.09 -51.35,414.72 -68.39,576.14 9.28,3.11 26.14,1.9 48.88,26.61 z"
         id="path306"
         inkscape:connector-curvature="0" /></clipPath><linearGradient
       x1="0"
       y1="0"
       x2="1"
       y2="0"
       gradientUnits="userSpaceOnUse"
       gradientTransform="matrix(-42.569,-1188.45,-1188.45,42.569,2439.24,3233.91)"
       spreadMethod="pad"
       id="linearGradient316"><stop
         style="stop-opacity:1;stop-color:#ffffff"
         offset="0"
         id="stop310" /><stop
         style="stop-opacity:1;stop-color:#ffffff"
         offset="0.527473"
         id="stop312" /><stop
         style="stop-opacity:1;stop-color:#94989a"
         offset="1"
         id="stop314" /></linearGradient><clipPath
       clipPathUnits="userSpaceOnUse"
       id="clipPath326"><path
         d="M 3184.78,914.219 C 3022.82,460.512 2523.67,224.082 2069.99,385.988 c -453.71,162 -690.21,661.112 -528.2,1114.782 161.97,453.76 661.05,690.23 1114.75,528.28 453.74,-162.01 690.19,-661.11 528.24,-1114.831 z"
         id="path324"
         inkscape:connector-curvature="0" /></clipPath><linearGradient
       x1="0"
       y1="0"
       x2="1"
       y2="0"
       gradientUnits="userSpaceOnUse"
       gradientTransform="matrix(586.538,1643.07,1643.07,-586.538,2070.03,385.98)"
       spreadMethod="pad"
       id="linearGradient336"><stop
         style="stop-opacity:1;stop-color:#dcdedf"
         offset="0"
         id="stop328" /><stop
         style="stop-opacity:1;stop-color:#dcdedf"
         offset="0.00549451"
         id="stop330" /><stop
         style="stop-opacity:1;stop-color:#ecedee"
         offset="0.34360183"
         id="stop332" /><stop
         style="stop-opacity:1;stop-color:#ecedee"
         offset="1"
         id="stop334" /></linearGradient><clipPath
       clipPathUnits="userSpaceOnUse"
       id="clipPath346"><path
         d="m 3107.34,1276.04 c -103.81,-146.51 -398.81,-115.77 -658.93,68.62 -260.1,184.34 -386.76,452.53 -283,598.99 103.78,146.4 398.79,115.62 658.9,-68.7 260.1,-184.43 386.8,-452.52 283.03,-598.91 z"
         id="path344"
         inkscape:connector-curvature="0" /></clipPath><linearGradient
       x1="0"
       y1="0"
       x2="1"
       y2="0"
       gradientUnits="userSpaceOnUse"
       gradientTransform="matrix(416.96,603.395,603.395,-416.96,2437.45,1321.94)"
       spreadMethod="pad"
       id="linearGradient354"><stop
         style="stop-opacity:1;stop-color:#ecedee"
         offset="0"
         id="stop348" /><stop
         style="stop-opacity:1;stop-color:#ffffff"
         offset="0.44170587"
         id="stop350" /><stop
         style="stop-opacity:1;stop-color:#ffffff"
         offset="1"
         id="stop352" /></linearGradient><linearGradient
       x1="0"
       y1="0"
       x2="1"
       y2="0"
       gradientUnits="userSpaceOnUse"
       gradientTransform="matrix(-509.495,-215.732,-215.732,509.495,3483.29,1446.53)"
       spreadMethod="pad"
       id="linearGradient382"><stop
         style="stop-opacity:1;stop-color:#ffffff"
         offset="0"
         id="stop378" /><stop
         style="stop-opacity:1;stop-color:#bdbcbc"
         offset="1"
         id="stop380" /></linearGradient></defs><sodipodi:namedview
     pagecolor="#ffffff"
     bordercolor="#666666"
     borderopacity="1"
     objecttolerance="10"
     gridtolerance="10"
     guidetolerance="10"
     inkscape:pageopacity="0"
     inkscape:pageshadow="2"
     inkscape:window-width="1440"
     inkscape:window-height="843"
     id="namedview4"
     showgrid="false"
     inkscape:zoom="0.32286898"
     inkscape:cx="-227.85552"
     inkscape:cy="365.47333"
     inkscape:window-x="0"
     inkscape:window-y="31"
     inkscape:window-maximized="1"
     inkscape:current-layer="g10" /><g
     id="g10"
     inkscape:groupmode="layer"
     inkscape:label="ink_ext_XXXXXX"
     transform="matrix(1.3333333,0,0,-1.3333333,0,730.94667)"><g
       id="g12"
       transform="scale(0.1)"><path
         d="m 2366.72,110.031 c 29.59,0 58.84,7.86 83.35,23.969 v 0 l 1256.38,950.25 c 47.1,36.71 88.49,100 103.2,166.73 v 0 l 337.89,1826.81 c 0.66,4.72 0.98,9.48 0.98,14.28 v 0 c 0.46,44.12 -30.39,96.47 -89.18,128.53 v 0 l -0.61,0.32 -1604.65,926.37 c -20.39,12.15 -54.25,20.47 -88.29,20.28 v 0 c -34.04,0.19 -67.95,-8.13 -88.46,-20.34 v 0 l -1604.346,-926.2 -0.789,-0.43 c -58.812,-32.08 -89.66,-84.41 -89.191,-128.53 v 0 c 0,-4.95 0.34,-9.79 1.051,-14.61 v 0 L 921.879,1250.98 c 14.652,-66.46 55.766,-129.5 102.631,-166.28 v 0 0 L 2281.6,133.93 c 22.98,-14.871 53.9,-24.008 85.12,-23.899 z m -147.22,-66.9099 -1.38,0.8984 -1260.487,953.3325 -0.297,0.238 c -68.789,54.43 -122.027,136.92 -143.051,230.56 v 0 l -0.258,1.07 -338.437,1829.74 -0.102,0.74 c -1.683,10.83 -2.492,21.66 -2.492,32.37 v 0 c 0.465,92.97 58.68,176.86 145.984,224.8 v 0 l 1603.23,925.53 c 43.25,24.83 93.5,34.96 143.58,35.17 v 0 c 50.05,-0.21 100.28,-10.34 143.4,-35.08 v 0 l 1603.39,-925.63 c 87.24,-47.94 145.47,-131.82 145.94,-224.79 v 0 c 0.02,-10.71 -0.81,-21.49 -2.47,-32.24 v 0 l -0.13,-0.96 -338.4,-1829.52 -0.25,-1.2 c -21.06,-93.64 -74.26,-176.13 -143.07,-230.56 v 0 l -0.2,-0.149 -1259.14,-952.3316 -1.25,-0.961 -1.32,-0.8671 C 2467.5,13.3516 2416.25,0 2366.72,0 v 0 c -52.73,0.109375 -104.19,14.75 -147.22,43.1211 v 0"
         style="fill:#706d6e;fill-opacity:1;fill-rule:nonzero;stroke:none"
         id="path14"
         inkscape:connector-curvature="0" /><path
         d="m 2366.71,110.031 c 29.59,0 58.85,7.86 83.36,23.969 v 0 l 1256.37,950.25 c 47.11,36.71 88.5,100 103.2,166.73 v 0 l 337.89,1826.81 c 0.66,4.72 0.99,9.48 0.99,14.28 v 0 c 0.46,44.12 -30.4,96.47 -89.19,128.53 v 0 l -0.6,0.32 -1604.65,926.37 c -20.39,12.15 -54.26,20.47 -88.3,20.28 v 0 c -34.04,0.19 -67.94,-8.13 -88.46,-20.34 v 0 l -1604.34,-926.2 -0.792,-0.43 c -58.809,-32.08 -89.661,-84.41 -89.192,-128.53 v 0 c 0,-4.95 0.344,-9.79 1.047,-14.61 v 0 L 921.875,1250.98 c 14.648,-66.46 55.762,-129.5 102.625,-166.28 v 0 0 L 2281.59,133.93 c 22.98,-14.871 53.91,-24.008 85.12,-23.899 v 0"
         style="fill:#b2b1b1;fill-opacity:1;fill-rule:nonzero;stroke:none"
         id="path16"
         inkscape:connector-curvature="0" /><path
         d="m 863.535,1566.38 c 431.675,180.1 948.105,284.98 1503.175,284.98 554.32,0 1070.09,-104.59 1501.41,-284.24 l 279.41,1510.67 c 0.66,4.72 0.99,9.48 0.99,14.28 0.46,44.12 -30.4,96.47 -89.19,128.53 l -0.6,0.32 -1604.65,926.37 c -20.39,12.15 -54.26,20.47 -88.3,20.28 -34.04,0.19 -67.94,-8.13 -88.46,-20.34 l -1604.34,-926.2 -0.792,-0.43 c -58.809,-32.08 -89.661,-84.41 -89.192,-128.53 0,-4.95 0.344,-9.79 1.047,-14.61 L 863.535,1566.38"
         style="fill:#231f20;fill-opacity:1;fill-rule:nonzero;stroke:none"
         id="path18"
         inkscape:connector-curvature="0" /><path
         d="m 4417.96,4016.53 c -25.91,93.16 -106.06,184.43 -200.53,260.3 l -14.98,-18.73 14.9,18.79 c -95.12,75.27 -204.91,134.12 -300.38,149.44 -79.93,12.31 -167.68,0.33 -264.62,-25.63 -169.34,-45.6 -368.87,-135.06 -602.79,-231.16 l -0.53,-0.14 -1.35,-0.55 c -153.33,-61.99 -370.15,-135.44 -538.24,-238.84 -83.95,-51.88 -157.18,-110.97 -205.21,-182.54 -48.16,-71.14 -68.81,-157.32 -43.7,-249.89 0.02,0 0.11,-0.43 0.34,-1.16 34.59,-125.94 144.57,-259.57 356.95,-413.3 l 12.89,-9.33 c 30.91,-23.4 138.09,-100.85 466.64,-313.84 220.54,-143.85 400.79,-159.29 549.13,-119.46 0.45,0.13 0.9,0.24 1.38,0.39 0.35,0.08 0.68,0.18 1.01,0.26 133.69,36.16 240.17,112.21 336.22,164.89 107.03,59.12 175.86,114.68 219.28,166.85 43.41,52.06 61.07,101.89 61.67,144.87 0.15,13.22 -1.42,27.64 -5.5,42.83 l -0.02,0.05 c -11.86,44.18 -44.08,92.75 -107.44,140.16 -63.51,47.55 -158.6,95.07 -301.56,139.18 -161.17,49.66 -319.22,84.21 -469.63,107.76 188.94,16.05 366.6,34.23 464.11,52.38 58.46,10.93 115.42,23.36 169.48,37.88 97.63,26.28 185.86,59.12 256.7,103.71 70.57,44.41 125.24,102.37 147.03,177.73 8.31,28.96 7.61,59 0.97,88.21 l 0.12,0.27 -2.34,8.62"
         style="fill:#ffffff;fill-opacity:1;fill-rule:nonzero;stroke:none"
         id="path20"
         inkscape:connector-curvature="0" /><path
         d="m 2314.54,3834.23 c -20.9,72.87 -48.05,160.04 -70,229.13 -10.98,34.54 -20.62,64.54 -27.55,85.91 -3.46,10.69 -6.26,19.22 -8.18,25.09 -0.94,2.93 -1.7,5.2 -2.19,6.72 -0.16,0.5 -0.3,0.91 -0.41,1.24 l -5.5,24.67 -2.65,-0.88 c -36.86,116.49 -173.13,545.19 -259.19,788.56 -80.07,227.47 -208.49,349.68 -332.04,412.26 -122.98,62.77 -240.15,67.5 -295.87,71.41 -64.31,4.31 -149.15,8.41 -227.52,-8.82 -0.34,-0.07 -0.54,-0.11 -0.56,-0.11 -60.22,-13.41 -119.821,-40.84 -156.454,-96.74 -46.699,-73.12 -48.457,-173.91 -22.442,-292.33 19.668,-88.13 55.926,-187.21 107.276,-294.02 93.15,-193.48 211.85,-364.02 391.27,-607.94 -156.87,125.62 -316.86,252.7 -378.09,297.85 -60.487,44.51 -160.514,109.15 -267.768,159.2 -107.219,49.24 -220.688,86.97 -317.512,66.81 -0.476,-0.09 -0.722,-0.15 -0.754,-0.16 -25.664,-5.7 -50.203,-16.16 -71.582,-32.52 -35.996,-27.83 -59.707,-66.74 -74.558,-110.95 -14.903,-44.33 -21.399,-94.36 -22.93,-147.23 -2.781,-106.22 15.391,-226.3 40.359,-338.54 11.985,-53.69 25.532,-105.53 39.27,-152.95 75.183,-258.67 262.09,-436.57 448.359,-503.08 142,-50.41 470.136,-136.84 597.156,-169.83 l -0.03,-0.16 22.63,-5.75 c 3.05,-0.77 6.05,-1.51 9.01,-2.27 6.2,-1.59 11.16,-2.86 14.53,-3.73 1.67,-0.42 2.98,-0.75 3.84,-0.98 0.44,-0.12 0.77,-0.2 0.98,-0.26 0.05,0 0.1,-0.01 0.13,-0.03 -0.05,0.02 -0.15,0.05 -0.44,0.14 l 0.31,-0.09 0.19,-0.06 c -0.01,0.01 -0.03,0.01 -0.06,0.01 0.03,-0.01 0.03,-0.01 0.06,-0.01 l 0.07,-0.03 0.04,0.01 0.09,-0.03 c 1.72,-0.44 3.12,-0.64 4.08,-0.75 89.91,-21.51 155.07,-30.72 243.04,-36.18 88.54,-5.52 200.47,-7.48 388,-15.04 42.47,-1.71 80.14,1.27 113.61,8.72 l 0.22,0.06 c 0.07,0.01 0.18,0.04 0.27,0.05 53.37,11.9 96.08,35.81 127.01,68.67 46.71,49.55 64.63,114.86 68.28,180.64 3.62,66.13 -6.65,134.92 -20.68,198.17 -18.26,81.78 -43.41,155.15 -55.12,196.15"
         style="fill:#ffffff;fill-opacity:1;fill-rule:nonzero;stroke:none"
         id="path22"
         inkscape:connector-curvature="0" /><path
         d="m 4202.45,4258.09 c -92.6,73.5 -200.45,130.52 -289.22,144.53 -74.76,11.58 -159.43,0.45 -254.67,-25.09 -166.78,-44.86 -366.74,-134.41 -601.84,-231.01 l -0.04,0.08 h -0.02 c -154.26,-62.27 -369.96,-135.62 -534.62,-237.04 -82.34,-50.79 -152.87,-108.25 -197.85,-175.43 -45.05,-67.02 -63.6,-144.91 -40.28,-230.99 31.71,-117.23 137.25,-248.27 347.97,-400.58 l 0.63,0.85 c 0.62,-0.82 1.37,-1.59 2.18,-2.29 1.24,-0.98 65.51,-55.11 475.72,-321.05 217.42,-141.29 388.78,-154.28 531.24,-116.04 0.35,0.11 0.67,0.2 1.01,0.29 128.5,34.61 233.11,108.92 330.85,162.73 105.27,58.11 171.68,112.19 212.4,161.18 40.71,48.89 55.59,93.22 56.13,129.88 0.14,11.02 -1.19,23.21 -4.69,36.24 -10.12,37.81 -38.34,82.04 -98.65,127.22 -60.41,45.26 -153.06,91.93 -294.26,135.46 -246.03,75.82 -484.99,116.18 -700.31,135.97 263.38,19.54 562.16,45.46 697.46,70.71 57.99,10.82 114.37,23.14 167.68,37.46 96.26,25.88 182.46,58.19 250.11,100.84 67.55,42.57 117.13,96.15 136.76,164.08 7.71,26.74 6.42,55.32 -1.33,84.11 -23.04,84.48 -100.02,174.12 -192.36,247.89"
         style="fill:#231f20;fill-opacity:1;fill-rule:nonzero;stroke:none"
         id="path24"
         inkscape:connector-curvature="0" /><path
         d="m 2183.05,4175.95 -0.58,-0.18 c -19.82,62.78 -172.87,546.91 -266.22,810.9 -78.54,222.47 -202.04,338.72 -320.29,398.86 -118.09,60.23 -230.63,64.98 -286.65,68.86 -63.82,4.35 -147.02,8.06 -221.12,-8.4 -57.08,-12.71 -109.96,-37.91 -141.686,-86.45 -41.191,-63.78 -44.668,-158.45 -19.094,-274.02 19.113,-85.7 54.746,-183.27 105.49,-288.8 109.54,-227.64 255.72,-424.45 498.82,-752.81 -190.18,152.95 -442,354.41 -521.51,412.99 -59.241,43.64 -158.425,107.69 -263.667,156.79 -105.398,48.82 -216.223,83.81 -302.813,64.99 -22.863,-5.09 -44.023,-14.2 -62.324,-28.18 -62.551,-48.37 -85.156,-137.18 -88.066,-239.81 -2.742,-102.96 15.058,-221.58 39.797,-332.64 11.843,-53.12 25.269,-104.5 38.875,-151.48 72.812,-251.13 254.883,-423.6 433.371,-487.16 149.16,-53 512.807,-147.95 617.617,-175.01 l -0.01,-0.05 c 3.01,-0.78 5.97,-1.52 8.93,-2.26 12.7,-3.27 19.79,-5.09 19.83,-5.1 0.73,-0.17 1.43,-0.21 2.15,-0.28 179.58,-43.04 252.58,-35.84 628.02,-50.96 40.77,-1.64 76.38,1.25 107.43,8.17 0.06,0.01 0.13,0.03 0.21,0.05 49.57,11.05 87.59,32.66 115.06,61.77 41.37,43.83 58.28,102.95 61.77,165.5 3.47,62.7 -6.36,129.61 -20.15,191.64 -17.92,80.29 -42.71,152.66 -54.77,194.74 -41.56,144.91 -108.4,348.24 -108.42,348.33"
         style="fill:#231f20;fill-opacity:1;fill-rule:nonzero;stroke:none"
         id="path26"
         inkscape:connector-curvature="0" /><g
         id="g28"><g
           id="g30"
           clip-path="url(#clipPath34)"><path
             d="m 4367.31,3934.41 c -16.92,-58.64 -60.12,-106.73 -123.92,-147.03 -63.67,-40.2 -147.38,-71.88 -241.92,-97.24 -52.33,-14.07 -107.98,-26.2 -165.4,-36.95 -131.43,-24.61 -426.92,-50.42 -688.54,-69.84 -130.89,-9.74 -253.49,-17.92 -343.35,-23.68 -89.84,-5.73 -146.83,-9.04 -146.96,-9.05 -8.27,-0.49 -14.59,-7.59 -14.1,-15.85 0.47,-8.28 7.56,-14.58 15.84,-14.11 0.16,0.03 111.48,6.48 267.73,17 1.44,-0.53 2.94,-0.9 4.55,-0.96 262.62,-9.91 577.45,-47.58 904.38,-148.35 138.94,-42.81 228.62,-88.41 285.08,-130.77 56.52,-42.43 79.66,-81.14 87.7,-111.02 2.76,-10.32 3.74,-19.71 3.64,-28.01 -0.5,-28.83 -11.86,-66.1 -49.19,-111.16 -37.35,-44.99 -100.78,-97.23 -203.83,-154.08 -99.79,-55.18 -202.18,-127.36 -324.15,-160.01 -135.18,-36.04 -294.88,-25.94 -508.13,111.94 -204.89,132.81 -323.35,212.73 -390.44,259.37 -33.57,23.32 -54.29,38.3 -66.56,47.42 -6.12,4.55 -10.14,7.63 -12.57,9.54 -2.44,1.92 -3.14,2.5 -3.16,2.49 -1.41,1.21 -3.01,2.05 -4.67,2.63 l 0.12,0.19 c -208.28,150.23 -308.33,278.02 -336.58,384.04 -20.73,77.87 -4.81,144.72 36.24,206.54 61.63,92.57 182.35,170.82 316.97,236.46 132.2,64.63 279.95,116.05 395.49,162.34 0.52,0.15 1.04,0.24 1.55,0.45 237.7,97.62 439.03,187.79 603.23,231.85 93.03,25.02 173.92,35.09 242.26,24.41 80.2,-12.3 185.86,-67.12 275.16,-138.36 89.51,-70.94 162.75,-158.9 182.06,-232.18 6.67,-24.91 7.31,-47.71 1.47,-68.02"
             style="fill:url(#radialGradient42);fill-opacity:1;fill-rule:nonzero;stroke:none"
             id="path44"
             inkscape:connector-curvature="0" /></g></g><g
         id="g46"><g
           id="g48"
           clip-path="url(#clipPath52)"><path
             d="m 2328.8,3387.05 c -8.21,-35.36 -22.84,-66.2 -45.98,-90.7 -23.18,-24.47 -55.12,-43.1 -100.02,-53.14 -27.99,-6.25 -61.01,-9.05 -99.67,-7.49 -396.3,16.02 -450.14,11.47 -651.3,57.36 -12.64,3.27 -29.22,7.57 -48.97,12.72 -140.51,36.65 -438.551,116.02 -567.43,161.88 -168.7,59.85 -344.785,225.57 -414.578,467.23 -13.457,46.46 -26.758,97.24 -38.45,149.67 -24.441,109.54 -41.765,226.38 -39.089,325.3 2.48,99.26 25.835,178.79 76.316,216.79 14.394,10.99 31.301,18.41 50.637,22.72 73.125,16.8 181.004,-14.73 283.589,-62.89 102.739,-47.87 200.852,-111.23 258.555,-153.75 65.62,-48.33 253.28,-197.76 424.1,-334.79 85.45,-68.52 166.76,-134.02 226.72,-182.38 59.94,-48.36 98.43,-79.5 98.54,-79.58 6.43,-5.21 15.89,-4.2 21.09,2.22 5.2,6.45 4.21,15.89 -2.23,21.11 -0.04,0.03 -55.52,44.91 -136.72,110.37 -0.07,0.07 -0.09,0.16 -0.15,0.24 -284.8,385.47 -446.43,595.62 -563.82,839.78 -50.02,103.94 -84.823,199.62 -103.229,282.33 -25.09,111.77 -19.328,199.2 14.93,251.1 25.515,39.25 69.959,61.72 123.089,73.57 68.51,15.33 149.53,12.14 212.51,7.74 56.36,-3.84 163.16,-8.62 275.09,-65.65 111.74,-57.13 228.99,-165.88 305.63,-382.15 49.78,-140.78 116.83,-345.04 171.39,-514.02 27.28,-84.49 51.47,-160.18 68.79,-214.74 17.35,-54.55 27.86,-87.87 27.87,-87.97 0.46,-1.48 1.19,-2.78 2.03,-3.98 5.95,-18.3 19.1,-58.74 35.05,-108.95 21.88,-68.81 48.9,-155.67 69.55,-227.64 12.47,-43.43 36.81,-114.56 54.3,-193.02 18.05,-80.57 28.35,-168.65 11.86,-239.29"
             style="fill:url(#radialGradient60);fill-opacity:1;fill-rule:nonzero;stroke:none"
             id="path62"
             inkscape:connector-curvature="0" /></g></g><path
         d="m 1218.34,3461.16 c -13.75,-76.89 -23.21,-157.38 -4.99,-241.04 3.47,-15.89 7.98,-31.79 13.62,-47.71 35.33,-98.23 87.71,-183.23 107.26,-270.45 4.47,-18.87 14.61,-48.27 19.67,-71.53 l 0.01,-0.07 c 0.05,-0.24 0.15,-0.6 0.26,-1.05 0.12,-0.57 0.28,-1.19 0.43,-1.87 1.15,-5.22 1.83,-10.44 2.1,-13.97 0.07,-0.79 0.11,-1.52 0.13,-2.1 -7.69,-27.65 -19.79,-59.25 -32.24,-99.8 73.3,-82.56 205.68,-183.25 432.88,-223.55 210.62,-37.37 358.79,-38.36 453.6,-30.37 4.53,8.78 12.3,20.46 22.01,32.99 13,17 29.3,36.13 45.38,55.81 28.73,35.55 58.25,65.67 80.45,86.7 11.09,10.51 20.33,18.75 26.73,24.31 2.22,1.92 4.09,3.52 5.54,4.76 18.05,8.03 76.14,34.7 144.42,74.51 81.86,48.04 178.65,113.71 240.01,194.33 16.22,21.47 31.22,43.68 44.79,66.69 33.77,-17.04 78,-22.47 132.1,-10.43 0.34,0.09 0.81,0.19 1.4,0.33 22.61,5.01 47.27,12.8 74.64,23.83 0.84,-6.33 1.97,-12.89 3.41,-19.58 0.05,-0.24 0.1,-0.41 0.12,-0.5 8.56,-38.54 27.01,-78.7 60.52,-106.65 26.09,-21.63 55.89,-29.05 84.43,-32.53 31.59,-3.89 59.77,-1.16 86.67,-1.04 20.91,0.61 46.56,-3.07 56.14,-11.12 7.65,-5.65 12.81,-15.14 15.94,-29.16 2.48,-11.13 3.2,-24.29 3.3,-37.17 -0.38,-0.34 -0.76,-0.67 -1.12,-1 -44.35,-40.63 -82.74,-90.96 -87.74,-154.69 -2.1,-27.92 -2.06,-45.16 -2.5,-57.14 -0.5,-12.1 -1.09,-17.75 -4.51,-29.08 -2.79,-9.14 -6.74,-18.95 -9.78,-30.47 -3.02,-11.42 -4.97,-25.24 -1.68,-40.11 1.89,-8.64 5.5,-17.36 10.81,-25.74 9.03,-14.31 15.07,-22.38 20.09,-28.53 5.08,-6.19 7.94,-9.23 13.07,-16.38 4.5,-6.19 10.14,-16.57 16.79,-26.81 2.71,-4.14 5.63,-8.31 9.09,-12.37 -5.07,-12.82 -8.09,-29.64 -3.76,-49.29 2.35,-10.64 6.78,-21.82 13.68,-33.15 16.43,-27.59 39.1,-43.75 61.27,-50.17 21.61,-6.41 41.58,-4.62 56.5,-2.36 18.99,1.43 30.1,4.31 32.33,4.02 1.21,-0.07 0.59,0.12 2.46,-0.55 1.62,-0.65 5.11,-2.51 10.52,-6.26 18.18,-16.32 38.46,-32.11 64.05,-37.87 13.38,-2.82 26.49,-2.6 38.36,0.06 0.17,0.05 0.32,0.09 0.49,0.11 9.27,-5.25 22.55,-10.14 40.4,-11.74 7.97,-0.78 15.77,-0.3 23.05,1.31 14.94,3.24 27.28,11.26 36.59,20.55 9.35,9.33 16.23,19.93 21.94,30.44 15.14,28.51 25.29,55.45 40.85,75.37 16.99,22.26 38.74,45.12 55.28,74.46 12.53,22.32 13.52,45.88 10.34,66.78 0.86,1.44 1.67,2.98 2.43,4.6 7.95,16.35 8.02,33.68 4.78,47.9 -3.17,14.3 -9.16,26.48 -14.78,36.88 -7.03,12.8 -13.17,24.04 -16.45,34.62 -1.81,5.74 -3.33,11.52 -4.63,17.38 -2.55,11.6 -4.18,23.5 -5.25,35.71 -4.35,46.31 0.28,97.34 -11.24,150.8 -0.19,0.78 -0.33,1.36 -0.4,1.72 l -0.1,0.4 c -2.86,12.5 -6.75,25.86 -13.54,39.01 -2.66,5.07 -5.45,9.38 -8.04,13.25 -63.35,235.31 -110.38,363.48 -152.78,440.88 -41.83,77.48 -83.59,104.69 -122,127.39 -37.13,25.54 -77.22,43.22 -116.85,52.71 -32.57,10.79 -58.04,36.02 -84.4,66.43 -0.69,0.8 -1.43,1.54 -2.21,2.23 -38.33,44.39 -85.18,76.53 -133.49,104.23 -57.52,33.01 -117.22,51.42 -183.01,57.69 -11.57,1.1 -23.17,1.92 -34.76,2.45 24.96,3.29 48.18,7.3 69.74,12.03 56.25,12.44 101.56,29.52 136.63,53.03 1.51,-0.52 3.03,-1.03 4.56,-1.52 28.38,-9.19 57.76,-9.6 85.21,-3.55 53.11,11.85 99.94,46.78 126.02,93.48 34.26,62.24 34.39,134.47 20.32,198.77 -2.44,11.09 -5.3,21.95 -8.51,32.51 -11.96,39.15 -29.84,79.99 -53.84,114.74 -12.12,17.51 -25.84,34.69 -40.61,50.89 1.5,1.71 3.09,3.52 4.78,5.47 8.19,9.34 12.91,20.76 14.55,31.77 1.56,10.15 0.86,19.98 -0.95,29.35 1.71,0.47 3.4,1.14 5.02,2.01 8.61,4.64 13.51,13.94 12.5,23.67 -0.08,0.69 -1.15,10.68 -4.49,25.81 -5.74,25.71 -17.55,66.36 -44.05,101.66 -10.52,13.89 -21.43,24.62 -33.76,31.98 -12.13,7.31 -26.86,11.19 -41.41,7.95 -5.89,-1.28 -11.26,-3.61 -16.12,-6.69 -14.86,13.13 -28.63,21.7 -42.81,26.61 -19.71,6.88 -38.18,4.67 -52.6,1.37 -7.82,-1.72 -14.93,-3.68 -21.99,-5.22 -13.85,-3.04 -25.92,-3.29 -36.01,-1.98 37.88,19.39 84.08,44.25 133.1,73.39 53.28,31.69 108.4,51.25 156.3,61.76 28.08,6.17 53.69,9.24 74.71,9.92 20.94,0.75 37.58,-1.19 45.91,-3.72 21.21,-6.14 43.99,-17.78 64.9,-29.68 21.08,-11.89 39.64,-23.84 56.61,-31.17 11.04,-4.65 22.7,-5.2 33.51,-2.84 13.8,3.07 26.91,11.07 35.8,24.04 9,12.9 12.44,30.71 8.37,48.47 -3.59,16.14 -12.4,32.24 -26.54,48.72 l -18.2,-15.64 18.18,15.66 c -25.7,30.08 -59.95,50.37 -101.59,58.3 -41.71,8.04 -90.38,4.92 -149.4,-8.02 -13.18,-2.9 -26.91,-6.29 -41.18,-10.19 -122.34,-33.64 -258.76,-117.06 -370.82,-180.77 -0.39,0.18 -0.79,0.37 -1.17,0.55 -53.65,24.06 -116.92,26.66 -151.47,26.53 -5.87,5.56 -11.9,10.62 -18.08,15.19 30.25,41.8 83.44,118.25 137.85,210.28 39.44,66.7 88.91,120.07 134.55,157.82 45.24,37.78 88.38,59.82 108,63.77 25.09,5.56 54.54,6.37 82.11,5.91 27.76,-0.37 52.94,-2.15 73.48,-0.21 2.24,0.23 4.4,0.58 6.49,1.03 15.89,3.59 29.04,13.25 37.9,26.3 8.79,13 13.2,30.4 9.26,48.21 -6.12,27.42 -29.72,50.3 -68.19,64.58 -35.43,13.4 -72.95,16.65 -111.36,8.11 -62.05,-13.82 -125.38,-55.66 -199.93,-127.41 -115.17,-111.39 -215.12,-294.89 -297.49,-424.64 -0.23,0.03 -0.42,0.06 -0.65,0.08 -25.4,17.98 -67.1,33.73 -132.65,30.61 -10.28,-0.46 -20.59,-1.88 -30.86,-4.14 -44.93,-9.98 -89.11,-35.17 -126.78,-67.62 -33.82,-29.32 -62.4,-64.54 -79.8,-101.98 -2.06,-0.42 -4.11,-0.86 -6.2,-1.33 -67.13,-14.69 -149.32,-48.32 -216.18,-123.85 -64.6,-73.43 -89.41,-168.07 -98.44,-227.88 -1.02,-0.72 -2.05,-1.45 -3.06,-2.2 -23.64,-17.48 -41.23,-37.51 -52.79,-55.83 -13.68,2.45 -26.1,1.12 -35.65,-0.98 -4.69,-1.06 -8.95,-2.31 -12.76,-3.64 -6.64,6.41 -13.52,12.58 -20.6,18.48 -13.19,10.97 -27.89,22.81 -44.32,32.61 -18.74,11.16 -38.88,21.01 -59.41,28.86 -22.06,8.39 -45.03,14.16 -67.89,17.77 -64.59,10.21 -120.14,5.17 -162.88,-4.23 -53.75,-11.83 -87.34,-30.44 -94.48,-34.62 -45.13,46.26 -97.3,68.26 -137.99,73.55 -23.15,2.9 -46.23,0.22 -66.78,-4.26 -4.22,-0.92 -8.32,-1.94 -12.29,-3.01 -0.49,15.4 -1.42,30.49 -2.18,45.28 -0.57,10.36 -1.02,20.63 -1.29,30.84 -0.97,35.39 1.75,71.34 4.95,108.05 1.17,13.56 3.25,27.01 6.6,39.27 5.32,19.54 16.12,38.66 29.25,57.56 2.71,3.94 5.25,7.55 7.64,10.64 40.21,-13.63 82.08,-14.44 122.11,-5.6 28.33,6.24 55.88,17.2 81.98,31.73 11.02,6.15 18.41,13.4 23.11,17.66 2.34,2.15 4.01,3.53 4.69,3.98 0.01,0 0.02,0 0.02,0.01 0.28,0.05 0.56,0.11 0.83,0.17 -0.01,0.07 2.39,0.14 8.47,-1.9 5.91,-1.87 14.55,-5.41 25.77,-7.46 35.6,-6.29 83.24,-13.21 128.74,-5.5 2.93,0.52 5.82,1.08 8.7,1.72 33.39,7.11 66.87,24.93 86.33,59.53 12.19,21.32 13.43,44.93 8.83,65.25 -6.35,27.61 -21.35,51.59 -36.21,71.22 6.52,4 12.67,8.41 18.42,13.28 10.3,8.77 23.32,21.77 34.14,39.5 10.77,17.68 19.24,40.54 18.75,67.18 -0.95,36.98 -3.83,64.19 -0.61,105.95 1.43,18.39 0.34,34.59 -2.81,48.98 -0.02,0.08 -0.04,0.16 -0.05,0.23 -0.04,0.18 -0.07,0.29 -0.07,0.32 -6.01,27.3 -19.77,45.87 -28.4,57.44 -10.76,14.18 -26.29,27.12 -45.78,37.05 -12.98,6.49 -27.99,11.53 -44.62,12.87 h -2.45 v 0.06 c -0.1,-0.01 -0.46,0.01 -1.07,0 -1.94,0.08 -3.89,0.1 -5.85,0.06 -6.07,0.74 -12.31,3.86 -22.21,11.33 -19.57,16.6 -44.41,38.19 -80.48,55.46 -18.98,9.26 -39.19,11.39 -57.1,7.43 -0.07,-0.02 -0.33,-0.07 -0.9,-0.21 -25.68,-6.11 -43.24,-21.49 -55.4,-33.54 -36.68,15.65 -78.77,26.72 -123.5,21.8 -2.8,-0.3 -5.45,-0.75 -7.99,-1.3 -0.2,-0.02 -0.38,-0.06 -0.58,-0.11 -31.79,-7.07 -48.95,-30.76 -56.43,-48.01 -1.22,-2.73 -2.28,-5.42 -3.19,-7.95 -1.49,-0.22 -4.02,-0.49 -7.34,-0.9 -11.61,0.07 -22.74,-0.76 -33.67,-3.11 v -0.01 c -0.16,-0.02 -0.24,-0.04 -0.25,-0.04 -12.31,-2.69 -24.03,-7.47 -34.67,-14.19 -23.12,-14.85 -34.15,-37.17 -40.63,-55.49 -2.46,-7.17 -4.28,-14.05 -5.66,-20.46 -0.04,-0.08 -0.07,-0.16 -0.11,-0.23 -0.39,-0.31 -0.95,-0.72 -1.6,-1.21 -8.85,-6.86 -14.25,-15.42 -20.73,-28.36 -6.32,-13.04 -13.34,-31.09 -22.05,-57.78 -6.22,-19.22 -8.38,-39.64 -8.55,-59.74 -3.15,-16.97 -8.31,-38.48 -16.63,-60.89 -24.65,-66.24 -49.347,-117.02 -102.57,-160.58 -57.434,-46.85 -95.105,-74.8 -185.937,-167.39 -92.461,-94.46 -135.95,-177.66 -138.387,-249.28 -0.891,-32.31 3.543,-64.29 7.41,-92.22 3.711,-25.88 6.582,-48.85 5.637,-61.86 -6.172,-17.55 -12.407,-36.25 -17.375,-53.98 -4.2,-15.01 -7.864,-26.57 -10.403,-37.75 -2.461,-11 -3.925,-22.59 -1.226,-34.9 3.301,-14.89 11.676,-26.92 22.676,-39.2 39.609,-43.62 77.363,-100.01 142.976,-129.43 6.57,-2.9 13.086,-5.41 19.465,-7.72 25.242,-83.7 70.437,-162.09 145.926,-214.46 19.472,-13.45 41.074,-28.36 64.636,-39.67 42.362,-20.25 88.852,-36.17 135.522,-44.71 30.65,-5.61 61.14,-7.48 91.17,-7.73"
         style="fill:#ffffff;fill-opacity:1;fill-rule:nonzero;stroke:none"
         id="path64"
         inkscape:connector-curvature="0" /><path
         d="m 940.703,3573 c 19.336,-13.4 40.051,-27.58 61.307,-37.75 40.59,-19.42 85.24,-34.66 129.48,-42.76 38.22,-7 77.02,-7.91 115.75,-7.13 -16.25,-85.04 -29.78,-171.61 -10.44,-260.13 3.29,-14.91 7.49,-29.85 12.79,-44.79 33.96,-95.13 86.98,-180.61 108.05,-273.16 3.85,-16.53 14.26,-46.87 19.78,-72.04 3.4,-13.98 3.92,-27.16 3.11,-28.24 -2.56,-9.32 -5.55,-18.88 -8.8,-28.83 85.25,-87.59 230.45,-207.69 425.74,-263.48 133.06,-38.02 270.55,-53.91 386.78,-59.4 0.27,0.87 0.45,1.66 0.78,2.57 9.27,26.81 43.1,64.89 74.84,103.76 29.52,36.54 59.75,67.36 82.51,88.93 11.39,10.8 20.9,19.27 27.53,25.03 3.9,3.4 6.76,5.8 8.44,7.19 12.61,5.56 73.28,32.79 145.17,74.69 80.61,47.13 175.38,112.1 232.97,188.09 20.69,27.36 39.24,55.94 55.29,85.78 3.43,-2.55 7.03,-5.04 10.88,-7.37 29,-17.7 69.2,-25.39 124.68,-13.19 0.35,0.07 0.69,0.15 1.03,0.23 28.93,6.38 62.35,17.86 101.7,35.89 0.15,-14.04 1.38,-31.62 5.34,-49.9 7.61,-34.94 24.53,-70.61 52.48,-93.76 21.19,-17.54 45.26,-23.85 72.1,-27.2 28.28,-3.54 55.27,-1.06 83.53,-0.84 22.53,0.17 51.95,-1.93 70.68,-15.9 28.48,-21.24 29.23,-64.56 28.82,-96.99 -3.1,-2.31 -6.08,-4.74 -8.87,-7.3 -42.37,-38.76 -75.88,-84.32 -79.98,-138.78 -4.12,-54.47 0.2,-64.91 -8.05,-91.48 -8.2,-26.59 -20.73,-48.76 -3.28,-76.39 17.45,-27.66 20.8,-27.6 32.39,-43.79 11.59,-16.21 22.61,-41.91 36.42,-46.91 0.27,-0.1 0.53,-0.16 0.78,-0.26 -8.35,-10.61 -23.51,-37.8 -0.4,-75.97 28.18,-46.55 67.32,-45.43 94.64,-41.11 35.5,2.36 35.62,11.29 62.9,-7.83 17.02,-15.69 35.71,-29.34 54.02,-33.19 14.19,-2.99 26.56,-1.45 38.32,2.98 3.65,-3.6 14.56,-11.95 38.24,-14.17 28.51,-2.69 45.75,16.73 58.21,39.82 14.19,26.34 24.55,54.72 42.96,78.61 18.05,23.44 38.83,45.57 53.36,71.52 10.69,19.12 10.33,39.6 5.91,60.24 2.34,3.11 4.5,6.35 6.18,9.84 10.16,21.14 0.99,43.77 -9.47,62.91 -6.88,12.57 -13.97,25.14 -18.27,38.9 -6.01,19.16 -9.16,38.6 -10.9,58.16 -4.47,49.78 0.03,100.37 -11.21,149.68 -2.61,11.43 -6.05,22.83 -11.46,33.28 -2.44,4.69 -5.3,8.98 -8.26,13.35 -0.16,0.25 -0.4,0.63 -0.64,0.98 -127.14,473.81 -188.79,511.72 -265.52,558.02 -35.21,24.35 -73.27,41.05 -110.41,49.81 -40.26,13.11 -68.94,42.71 -96.03,73.82 -0.05,-0.11 -0.07,-0.22 -0.03,-0.34 -36.09,42.73 -81.29,74.11 -129.51,101.74 -54.7,31.35 -110.56,48.59 -173.35,54.62 -16.39,1.56 -32.85,2.51 -49.3,2.91 -26.37,0.62 -51.19,-0.11 -72.96,-1.53 -6.31,13.67 -13.18,26.89 -20.62,39.59 68.24,3.14 126.46,10.18 174.98,20.83 60.24,13.29 105.94,31.97 138.24,56.54 5.28,-2.08 10.48,-4.01 15.5,-5.64 70.23,-22.72 148.98,17.59 182.85,78.73 35.63,64.35 30.64,144.41 9.82,212.7 -11.3,37.12 -28.43,76.02 -50.6,108.05 -15.45,22.34 -33.86,44.34 -53.67,64.16 4.12,4.29 10.27,11 19.44,21.58 19.31,22.22 6.11,57.84 -11.01,87.25 21.21,-6.2 36.38,-18.71 36.38,-18.71 0,0 -6.99,66.8 -43.8,115.54 -28.56,37.79 -55.88,40.6 -71.73,13.86 -52.37,55.25 -75.23,41.38 -112.66,33.16 -27.49,-6.04 -50.52,-3.1 -67.38,3.41 -4.92,7.76 -10.84,15.39 -18.01,22.68 41.78,20.6 101.05,51.35 165.08,89.39 121.33,72.12 250.24,83.71 295.89,70.39 48.72,-14.24 96.59,-50.1 124.16,-61.81 27.59,-11.71 73.95,22.16 23.56,80.65 -50.39,58.48 -128.95,70.48 -267.65,32.59 -121.1,-33.08 -262.06,-120.04 -376.47,-184.81 -3.75,2.04 -7.68,4.02 -11.82,5.89 -52.7,24 -122.32,25.04 -151.32,24.27 -13.52,14.25 -27.93,24.93 -42.82,32.73 23.83,32.11 87,119.57 151.77,229.08 82.1,138.86 204.96,221.15 258.03,232.82 56.65,12.44 124.29,2.73 158.37,6.13 34.07,3.39 61.97,62.77 -20.6,93.76 -82.58,30.99 -167.92,-0.04 -286.2,-114.09 -114.88,-110.78 -217.87,-302 -302.3,-433.38 -7.1,1.4 -14.23,2.29 -21.37,2.73 -20.23,15.99 -55.91,32.94 -122.72,29.99 -85.58,-3.78 -189.2,-88.14 -221.45,-170.93 -66.95,-11.9 -152.79,-42.37 -221.44,-119.92 -63.63,-71.86 -87.13,-170.15 -94.14,-225.91 -3.83,-2.47 -7.58,-5 -11.19,-7.64 -28.73,-20.98 -47.99,-47.97 -55.26,-65.37 -1.4,0.63 -2.72,1.27 -4.17,1.88 -13.96,5.76 -27.54,4.91 -38.03,2.61 -11,-2.46 -19.27,-6.5 -23.38,-8.76 -9.6,10.14 -19.79,19.71 -30.48,28.6 -12.9,10.76 -26.76,21.83 -41.22,30.44 -17.59,10.47 -36.55,19.75 -55.69,27.04 -20.28,7.73 -41.66,13.12 -63.09,16.5 -146.39,23.12 -242.35,-36.36 -242.35,-36.36 l -15.37,-9.98 c -43.85,52.33 -98.3,76.03 -136.92,80.94 -35.68,4.54 -76.79,-7.09 -99.91,-16.87 0.78,25.84 -0.94,51.64 -2.29,77.43 -0.55,10.48 -1.02,20.96 -1.29,31.45 -1.02,37.04 1.79,73.91 5.03,110.79 1.26,14.58 3.49,29.4 7.37,43.52 6.43,23.56 18.83,44.92 32.65,64.88 5.28,7.62 10.78,15.64 17.67,21.93 0.43,0.4 2.01,1.69 3.86,2.95 64.77,-27.56 135.17,-15.95 198.25,19.2 16.02,8.92 22.51,21.59 33.67,23.98 0.91,0.2 1.75,0.37 2.59,0.51 13.17,2.24 25.88,-6.38 42.58,-9.38 34.58,-6.21 80.17,-12.4 120.4,-5.47 32.47,5.6 61.44,19.78 78.21,49.42 25.66,45.36 -14.67,98.27 -42.53,131.22 -0.45,0.53 -0.92,1.15 -1.37,1.7 15.51,5.98 28.96,13.72 40.38,23.35 17.66,15.03 45.1,45.34 44.34,87.91 -0.88,35.55 -3.91,64.44 -0.54,108.22 1.26,16.42 0.28,30.18 -2.32,41.98 -4.88,22.47 -15.72,37.28 -24.33,48.81 -7.95,10.58 -21,21.71 -37.35,29.98 -10.65,5.33 -22.84,9.32 -35.7,10.35 -0.63,-0.05 -1.19,0.01 -1.82,-0.02 -2.12,0.11 -4.27,0.12 -6.43,0.04 -13.62,1.07 -24.69,7.7 -36.49,16.67 -19.78,16.79 -42.57,36.61 -75.78,52.51 -14.66,7.1 -29.19,8.41 -41.84,5.56 -20.09,-4.6 -34.78,-17.62 -46.19,-29.21 -10.95,-7.77 -18.63,-5.29 -23.87,-3.35 -34.51,14.83 -72.76,24.62 -112.02,20.27 -2.07,-0.24 -4.07,-0.58 -5.98,-1 -21.76,-4.77 -33.82,-21.04 -39.7,-34.27 -1.17,-2.65 -2.15,-5.22 -2.99,-7.65 -6.98,-14.94 -15.39,-13.75 -28.02,-15.52 -11.02,0.15 -20.84,-0.58 -30.12,-2.56 -9.75,-2.13 -18.74,-5.8 -27.13,-11.08 -16.21,-10.3 -25.14,-27.12 -30.77,-43.14 -2.34,-6.75 -4.05,-13.42 -5.31,-19.69 -3.31,-8.1 -4.49,-9.08 -10.34,-13.46 -7.24,-5.43 -17.37,-22.25 -34.33,-74.35 -5.37,-16.48 -7.41,-35.46 -7.39,-54.57 -3.3,-18.31 -8.83,-41.98 -18.1,-66.99 -24.91,-67.16 -51.96,-123.53 -109.902,-170.82 -57.954,-47.29 -93.645,-73.57 -183.997,-165.6 -90.351,-92.04 -129.738,-171.35 -131.511,-233.17 -1.7,-59.24 16.621,-123.13 12.644,-158.64 -6.386,-18.05 -12.851,-37.4 -17.859,-55.22 -13.781,-49.1 -20.649,-59.82 5.801,-89.33 40.847,-45.57 77.117,-98.03 134.8,-123.51 9.614,-4.25 19.477,-7.72 29.36,-11.06 0.054,-0.09 0.078,-0.21 0.094,-0.26 23.539,-84.67 66.847,-162.43 139.933,-213.08"
         style="fill:#231f20;fill-opacity:1;fill-rule:nonzero;stroke:none"
         id="path66"
         inkscape:connector-curvature="0" /><path
         d="m 3074.54,3173.62 -0.01,-0.01 v 0 z"
         style="fill:#008350;fill-opacity:1;fill-rule:nonzero;stroke:none"
         id="path68"
         inkscape:connector-curvature="0" /><path
         d="m 1328,3576.81 c 33.9,-8.56 68.53,-15.03 103.47,-17.27 52.2,-3.37 94.9,19.18 115.63,68.51 24.23,57.54 66.51,123.65 66.51,123.65 0,0 -31.38,-66.8 -30.08,-135.62 1.33,-70.28 10.07,-139.75 13.34,-209.85 0.06,-1.25 0.05,-2.49 0.08,-3.74 -1.09,10.56 -5.43,25.46 -19.52,38.7 -18.91,17.78 -44.21,34.97 -52.49,60.82 -1.65,5.2 -1.71,9.87 -5.36,14.21 -15.87,18.86 -53.72,15 -75.77,15.81 -28.51,1.02 -58.99,0.42 -84.65,14.78 -29.67,16.61 -45.82,26.78 -102.59,26.59 0,0 48.65,9.16 71.43,3.41 z m 60.81,-88 c -2.53,1.44 -9.39,0.42 -12.15,0.53 -10.62,0.39 -21.22,0.6 -31.83,0.42 -20.26,-0.36 -40.48,-2.07 -60.72,-3.15 -4,-20.71 -7.81,-41.28 -11.06,-61.69 -11.19,-85.4 -9.79,-199.62 92.14,-226.95 132.18,-35.45 324.73,66.76 424.44,193.1 97.55,123.63 180.3,340.97 166.37,442.84 -11.88,20.04 -27.67,43.11 -47.72,65.49 -52.9,59.01 -143.71,115.84 -143.71,115.84 0,0 60.62,-23.38 107.4,-52.78 -55.62,63 -104.04,119.26 -225.31,142.06 -113.24,21.28 -186.38,-33.79 -209.82,-55.18 33.14,-50.37 41.56,-62.88 62.59,-78.54 0,0 -47.79,21.74 -76.02,52.4 -28.24,30.65 -53.69,69.59 -128.46,102.31 -69.73,30.51 -109.29,8.89 -131.34,-1.66 -0.45,-3 -0.9,-6.01 -1.44,-9 -9.46,-51.54 -39.94,-100.58 -81.19,-132.87 -17.13,-13.42 -37.4,-24.35 -58.27,-32.66 -1.07,-7.6 -1.15,-16.21 0.06,-24.92 2.72,-19.37 24.21,-82.22 24.21,-82.22 0,0 -46.95,25.01 -55.503,56.91 -4.465,16.66 -2.844,30.42 -0.286,39.81 -22.812,-6.03 -46.433,-9.45 -70.046,-9.2 -26.582,0.28 -46.094,9.07 -70.61,16.74 64.16,-20.06 142.68,9.34 191.815,49.71 60.35,49.56 79.14,117.88 83.55,193.22 2.66,45.89 -1.98,93.09 2.58,138.71 7.31,73.14 20.21,147.37 71.35,202.03 -5.71,5.75 -7.01,14.83 -2.56,22.04 5.21,8.47 16.29,11.12 24.76,5.9 33.84,-20.86 75.89,-35.11 115.94,-28.03 44.27,7.84 74.68,45.19 118.03,54.87 1.38,0.29 2.86,0.6 4.34,0.83 19.5,3.39 35.94,0.8 52.79,-2.26 52.95,-9.6 186.99,-23.69 158.76,69.64 -3.89,12.91 -11.19,24.43 -19.63,34.83 -4.41,5.4 -15.08,19.76 -24.11,27.46 -10.47,-1.92 -21.56,-2.6 -31.65,-2.62 1.26,-10.86 2.74,-22.39 7.2,-28.46 5.83,-7.93 22.83,-24.68 22.83,-24.68 0,0 -9.46,-8.21 -27.88,1.05 -18.43,9.26 -30.62,32.17 -28.74,46.92 0.31,2.48 0.83,4.47 1.42,6.27 -5.53,0.48 -9.04,0.95 -9.23,0.93 -0.04,0.01 -0.06,0.02 -0.1,0.02 -10.63,-5.65 -32.19,-14.93 -45.1,-19.89 -4.87,-1.87 -8.89,-3.2 -12.62,-4.27 -0.49,-6.77 0.65,-14.68 1.56,-17.55 1.94,-6.07 5.38,-11.59 9.53,-16.52 3.12,-3.7 6.62,-7.05 10.21,-10.05 17.48,-14.67 40.35,-24 63.22,-24.89 -37.45,-11.61 -77.92,-6.6 -99.26,29.26 -1.4,2.36 -11.1,24.69 -11.16,34.01 -0.25,-0.06 -0.47,-0.1 -0.71,-0.15 -15.76,-3.47 -31.82,-2 -42.47,-2.42 -10.67,-0.42 -32.61,-10.62 -45.57,-14.62 -12.92,-4 -33.59,-4.32 -48.63,1.21 -15.04,5.52 -23.81,10.51 -41.65,16.57 -17.84,6.06 -22.83,0.74 -57.72,18.03 -34.89,17.29 -34.2,42.01 -34.2,42.01 11.88,-5.06 34.79,-2.73 47.52,3.92 9.86,5.13 18.42,13.93 22.83,25.14 -9.49,-2.8 -20.48,-8.99 -48.61,-7.38 -31.88,1.82 -37.92,29.29 -37.92,29.29 0,0 25.52,-7.84 45.26,-5.03 10.32,1.47 18.04,7.2 21.25,10.72 -15.04,2.93 -35.84,8.72 -57.63,30.81 -28.66,29.03 -41.06,81.98 -41.06,81.98 0,0 31.73,-48.32 63.95,-67.35 25.57,-15.1 26.34,-8.03 26.34,-8.03 -3.24,11.19 -6.73,13.11 -8.76,46.84 -2.04,33.72 8.44,37.31 8.44,37.31 3.18,-23.88 22.54,-70.56 39.65,-83.18 17.11,-12.63 22.35,-10.84 34.76,-3.88 0,0 5.86,-41.85 14.19,-56.4 8.31,-14.55 23.79,-32.52 23.79,-32.52 0,0 -3.81,-5.96 -16.16,3.61 -12.34,9.58 -24.25,17.2 -24.25,17.2 0,0 -0.35,-30.67 29.83,-42.59 15,-5.92 33.78,-11.01 54.13,-5.76 20.34,5.23 31.35,26.84 35.24,45.75 0.35,1.65 0.78,3.11 1.24,4.48 6.03,30.88 7.3,66.49 4.07,79.96 -0.23,1.01 -0.47,1.86 -0.66,2.45 -5.74,17.28 -13.49,34.56 -29.04,68.01 -5.33,11.46 -9.02,23.55 -12.03,35.8 -2.97,12.07 -4.78,24.82 -10.26,36.09 -6.78,13.93 -20.29,23.23 -33,31.12 -13.28,8.24 -27.53,14.29 -42.44,18.86 -18.48,5.67 -37.64,7.8 -56.72,10.22 -17.61,2.22 -35.49,3.73 -53.2,1.8 -9.85,-1.08 -19.43,-3.97 -27.87,-9.24 -22.1,-13.82 -28.91,-40.59 -32.87,-64.73 -1.97,-12.04 -4.18,-25.45 -1.51,-37.56 -0.12,0.51 -7.35,7.11 -12.48,16.89 -8.24,-25.69 -19.67,-47.35 -26.29,-84.98 -7.18,-40.74 -8.34,-80.92 -3.84,-108.34 4.5,-27.42 8.95,-37.2 8.95,-37.2 0,0 -6.66,2.38 -16.45,29.41 -2.71,7.49 -5.91,18.91 -8.76,32.5 -9.48,-59.77 -33.21,-115.74 -77.1,-159.2 -31.183,-30.9 -70.319,-52.25 -102.812,-81.66 -34.589,-31.3 -52.011,-94.11 -52.011,-94.11 0.808,34.73 10.066,61.34 10.066,61.34 -26.336,-23.45 -78.523,-74.85 -121.094,-125.67 -42.586,-50.83 -73.906,-127.33 -76.699,-180.94 -1.492,-28.32 3.711,-48.66 8.969,-61.62 2.168,10.77 4.883,24.15 9.734,41.68 7.715,27.8 18.504,48.6 18.504,48.6 0,0 -5.887,-15.12 -6.773,-46.02 -0.879,-30.91 -3.449,-82.16 -11.684,-128.51 -8.262,-46.35 -22.012,-81.63 -22.703,-106.35 -0.496,-17.34 8.699,-28.96 21.309,-39.49 33.593,-28.09 63.547,-62.72 99.992,-87.14 15.215,-10.19 32.644,-16.26 49.058,-24.17 19.641,-9.47 38.539,-20.65 55.149,-34.81 14.199,-12.08 33.078,-25.74 42.656,-42.12 -1.914,0.49 -3.586,1.69 -5.281,2.91 -45.649,32.98 -66.789,31.4 -98.496,42.86 -0.449,0.17 -0.918,0.31 -1.379,0.48 21.14,-38.5 80.676,-137.56 156.98,-184.37 95.855,-58.79 203.985,-82.63 288.105,-81.04 84.12,1.59 99.71,-13.41 117.26,-23.38"
         style="fill:#9c9a9b;fill-opacity:1;fill-rule:nonzero;stroke:none"
         id="path70"
         inkscape:connector-curvature="0" /><path
         d="m 1406.01,5016.81 c 10.81,-11.7 14.29,-26.1 17.84,-40.6 3.45,-14.63 6.67,-30.02 13.74,-45.19 15.52,-33.45 23.73,-51.56 30.1,-70.63 0.46,-1.5 0.89,-3.09 1.27,-4.8 5.2,-25.25 1.54,-76.22 -10.3,-115.05 -3.57,-11.41 -7.76,-21.01 -13.11,-29.05 6.82,0.36 12.95,1.1 18.22,2.25 18.21,4.15 28.06,11.77 36.63,22.15 8.51,10.41 14.9,24.12 23.29,38.5 17.77,30.22 26.45,60.26 26.65,84.22 0.05,5.94 -0.56,11.15 -1.69,16.32 -3.14,14.86 -11.63,30.16 -20.23,54.48 -3.07,8.73 -5.31,17.53 -7.23,26.24 -2.42,11.1 -4.33,22.03 -6.64,32.44 -2.89,13.2 -6.39,25.54 -11.87,36.5 -13.87,28.63 -54.21,50.53 -86.77,65.72 -35.41,16.88 -74.14,28.05 -111.76,23.79 -1.21,-0.13 -2.34,-0.31 -3.48,-0.56 -10.42,-2.34 -16.59,-8.95 -21.2,-17.19 -4.45,-8.11 -6.26,-17.24 -6.69,-20.47 -0.04,-0.18 -0.05,-0.24 -0.06,-0.37 5.47,-0.67 11.19,-1.4 17.25,-2.19 64.22,-8.33 99.12,-38.43 116.04,-56.51"
         style="fill:#9c9a9b;fill-opacity:1;fill-rule:nonzero;stroke:none"
         id="path72"
         inkscape:connector-curvature="0" /><path
         d="m 1653.58,4923.19 c 5.56,-30.09 7.86,-54.87 8.91,-78.58 0.52,-12.2 0.11,-23.47 -4.2,-34.74 -4.28,-11.26 -12.06,-21.4 -23.91,-32.19 -11.3,-10.3 -30.05,-26.04 -49.16,-40.11 -0.23,-0.17 -0.47,-0.34 -0.71,-0.51 0.67,-0.03 1.3,-0.06 2,-0.09 12.34,-0.5 27.98,-0.15 39.87,2.5 25.99,5.72 45.4,14.82 60,27.12 15.14,12.66 36.85,38.21 35.84,68.99 -0.83,34.26 -4.03,64.85 -0.48,110.65 1.1,14.45 0.19,25.74 -1.84,34.98 -3.89,17.5 -11.58,28.1 -20.14,39.65 -4.96,6.75 -15.96,16.44 -28.86,22.83 -10.05,5.06 -21.05,8.13 -31.57,7.92 3.13,-5.97 5.67,-12.52 7.26,-20.07 1.24,-5.73 2.06,-11.9 2.49,-18.67 1.98,-33.51 -0.65,-62.35 4.5,-89.68"
         style="fill:#9c9a9b;fill-opacity:1;fill-rule:nonzero;stroke:none"
         id="path74"
         inkscape:connector-curvature="0" /><path
         d="m 1524.14,5035.35 c 6.87,-13.75 10.76,-28.09 13.87,-42.11 2.42,-11.1 4.33,-22.03 6.63,-32.44 1.81,-8.18 3.82,-16.03 6.41,-23.44 7.75,-22.31 16.6,-37.59 21.04,-57.27 1.49,-6.75 2.34,-13.94 2.26,-21.73 -0.36,-29.37 -10.49,-62.86 -29.97,-96.12 -5.81,-9.83 -11.09,-20.79 -18.1,-31.46 0.35,0.06 0.59,0.1 0.69,0.14 6.84,1.14 26.15,12.56 44.03,25.98 18.22,13.42 36.66,28.89 47.2,38.52 10.31,9.43 15.14,16.39 17.68,23 2.52,6.63 3.12,14.01 2.64,25.13 -1.03,22.93 -3.18,46.33 -8.55,75.27 -5.78,31.71 -2.85,61.41 -4.84,92.56 -0.34,5.76 -1.03,10.71 -1.99,15.02 -4.07,17.63 -11.7,25.87 -28.02,39.57 -23.04,19.08 -45.27,40.42 -80.05,57.09 -10.51,4.96 -18.6,5.39 -26.32,3.77 -13.8,-2.83 -27.12,-14.88 -38.44,-26.88 28.09,-14.76 58.33,-34.49 73.83,-64.6"
         style="fill:#9c9a9b;fill-opacity:1;fill-rule:nonzero;stroke:none"
         id="path76"
         inkscape:connector-curvature="0" /><path
         d="m 2099.38,3875.35 c 91.39,-24.45 287.94,-24.26 361.48,-23.45 -32.19,-12.51 -66.16,-20.19 -100.31,-24.9 -40.62,-5.61 -82.52,-7.31 -123.47,-5.49 -23.5,1.04 -46.96,3.1 -70.34,5.88 11.48,-8.56 25.99,-18.16 44.11,-28.06 60.56,-33.09 160.88,-69.52 318.85,-80.35 194.38,-13.35 338.89,-6.57 437.67,15.18 48.51,10.62 85.8,24.92 112.59,41.53 -50.73,25.14 -108.9,64.07 -163.05,102.34 -84.28,18.94 -181.35,34.7 -332.74,34.76 -116.48,0.04 -234.9,-0.89 -350.03,19.22 -45.92,8.02 -91.98,19.08 -136.06,34.33 -22.49,7.77 -62.72,20.38 -64.9,49.58 -2.37,31.73 17.03,48.28 17.03,48.28 0,0 -4.7,-23.28 8.29,-36.09 46.94,43.32 115.95,91.03 261.11,132.07 l 0.25,0.14 c 0,0 0.09,0 0.15,-0.02 0.28,0.08 0.55,0.16 0.83,0.24 148.97,41.96 337.42,-11.85 466.22,-101.8 0,0 -96.64,38.42 -211.5,62.64 143.34,-57.89 374.78,-227.3 461.86,-284.06 50.75,-33.06 105.23,-57.02 158.17,-46.28 31.72,34.14 91.28,131.35 1.03,325.97 0,0 72.94,-112.98 70.13,-202.67 -1.96,-62.31 -11.99,-87.85 -25.38,-104.42 7.6,4.88 15.15,10.64 22.6,17.43 58.83,53.64 40.67,153.74 17.88,219.8 -37.21,107.75 -114.6,192.37 -199.86,265.31 9.22,-4.84 18.47,-9.81 27.66,-14.97 4.69,2.41 13.05,9.9 2.63,30.84 -13.77,27.7 -25.79,40.41 -25.79,40.41 0,0 37.4,-16.36 48.11,39.76 0.05,0.31 0.12,0.58 0.19,0.89 -20.66,21.17 -52.3,43.73 -92.04,37.28 -28.28,-4.59 -47.54,-6.73 -61.98,-4.68 3.85,-12 6.06,-23.47 7.38,-33.43 4.82,-35.81 -0.24,-33.84 -29.24,7.39 -28.1,39.9 -59.05,99.29 -177.04,92.9 4.75,-8.47 9.32,-17.59 13.67,-27.44 88.84,-201.63 194.14,-184.62 231.88,-125.65 0,0 -36.31,-143.73 -147.61,-95.97 -5.05,-11.24 -12.54,-23.19 -23.21,-30.37 5.01,-1.09 10.01,-2.15 14.97,-3.13 77.08,-15.31 116.14,-11.34 116.14,-11.34 0,0 0,0 -47.21,-8.84 -47.2,-8.83 -153.59,0.04 -249.17,29.71 -95.61,29.67 -260.12,93.34 -321.57,107.48 -61.48,14.13 -164.42,-34.6 -164.42,-34.6 l 0.18,6.18 c 64.56,63.77 137.66,71.43 207.92,58.52 0.19,23.35 9.05,65.17 53.89,91.94 40.48,24.16 82.95,39.13 123.01,40.07 -44.3,31.72 -84.21,47.02 -124.3,35.66 19.93,15.83 53.95,37.2 93.7,50.74 -30.09,3.53 -61.24,-5.13 -124.26,-37.48 -99.36,-51.03 -146.12,-145.76 -146.12,-145.76 -0.31,5.54 -0.14,11.19 0.44,16.92 -60.41,-15.03 -113.05,-39.15 -174.71,-104.38 -54.34,-57.47 -81.47,-130.85 -91.31,-181.8 7.34,3.3 14.59,6.25 21.5,8.81 39.39,19 69.77,19.41 69.77,19.41 -7.12,-0.08 -19.98,-9.72 -26.16,-12.99 -19.99,-10.56 -52.45,-28.96 -68.67,-44.71 -37.58,-36.53 -87.76,-96.37 -70.82,-154.45 15.54,-53.23 104.97,-67.97 149.98,-80.03"
         style="fill:#9c9a9b;fill-opacity:1;fill-rule:nonzero;stroke:none"
         id="path78"
         inkscape:connector-curvature="0" /><path
         d="m 3676.77,2348.49 c -4.52,-5.37 -8.88,-10.88 -13.13,-16.48 0.33,-9.13 0.08,-24.25 -3.86,-37.7 -6.16,-20.92 -18.77,-54.41 -42.63,-71.57 -2.45,-1.76 -4.87,-3.44 -7.29,-5.08 1.23,-0.33 2.43,-0.71 3.68,-0.94 26.79,-5.05 42.18,22.19 50.71,43.24 3.29,8.16 6.54,16.33 9.87,24.46 4.67,11.33 9.36,22.86 15.68,33.38 7.32,12.17 17.82,21.82 27.56,31.96 15.39,15.97 29.95,33.66 39.31,53.91 2.1,4.58 3.97,9.45 5.04,14.38 0.07,0.31 0.09,0.87 0.14,1.52 -9.37,-7.48 -19.57,-14.15 -28.39,-20.68 -20.52,-15.21 -40.13,-30.81 -56.69,-50.4"
         style="fill:#008350;fill-opacity:1;fill-rule:nonzero;stroke:none"
         id="path80"
         inkscape:connector-curvature="0" /><path
         d="m 3716.57,2668.86 c -1.79,26.75 -4.28,66.13 -7.71,86.36 -3.43,20.24 -7.89,33.59 -10.93,38.05 -2.76,4.07 -5.12,6.19 -7.59,13.7 0,0 -0.07,0.2 -0.15,0.44 -0.17,0.57 -0.36,1.11 -0.55,1.72 -3.82,12.42 -23.94,77.09 -51.37,155.35 -30.47,87.02 -69.98,190.75 -105.55,256.65 -70.47,130.89 -205.43,185.3 -300.46,166.79 -1.6,-0.29 -3.18,-0.62 -4.74,-0.98 -91.28,-20.05 -135.63,-101.07 -152.99,-213.33 l 0.06,7.98 c 1.05,21.69 2.33,43.4 5.11,64.95 3.76,29.05 10.16,59.19 24.28,85.11 7.78,14.25 18.54,26.72 30.33,37.81 28.46,26.77 62.93,37.67 98.85,45.57 2.27,0.5 4.55,1 6.89,1.47 2.21,0.46 4.47,0.82 6.73,1.21 -1.34,2.63 -2.65,5.3 -4.05,7.87 -36.45,62.83 -92.97,101.46 -186.23,145.43 -59.23,28.48 -149.09,30.89 -217.89,25.9 8.92,-25.39 16.3,-51.72 22.22,-78.53 24.98,-113.98 24.36,-236.69 6.62,-331.29 -7.24,-38.51 -18.71,-75.15 -33.68,-110.12 9.5,-9.38 20.04,-17.6 32.29,-23.34 24.25,-11.33 52.88,-9.24 78.52,-4.69 44.5,7.87 85.95,25.65 127.4,42.92 1.68,0.51 3.17,0.78 4.52,0.93 -2.66,-0.27 9.6,-75.91 11.15,-82.75 6.1,-26.86 16.15,-51.81 34.94,-72.38 30.27,-33.16 83.37,-39.3 125.72,-37.8 36.17,1.3 77.29,6.23 109.41,-15.55 10.1,-6.85 17.12,-16.8 22.21,-28.05 7.74,-17.11 10.97,-37.21 13.81,-54.09 0.3,-1.77 1.93,-11.46 3.31,-20.87 38.93,16.55 80.01,20.82 80.01,20.82 -33.31,-16.04 -91.28,-44.83 -123.3,-88.06 -32.01,-43.19 -52.89,-79.24 -57.17,-90.23 -4.29,-10.98 -3.74,-19.58 -0.93,-38.38 2.79,-18.8 2.76,-30.87 -0.54,-52.35 -3.32,-21.49 -9.68,-38.28 -12.82,-48.34 -3.14,-10.08 -2.18,-20.58 5.4,-27.63 7.57,-7.02 17.33,-14.93 24.12,-27.51 6.77,-12.55 6.95,-27.34 22.47,-33.98 15.52,-6.65 21.13,-5.98 30.13,-7.35 7.17,-1.09 -9.38,-7.8 -21.89,-7.31 l 0.25,-2.1 c 5.79,-4.24 18.68,-10.39 50.86,-10.98 42.02,-0.74 66.2,27.23 75.72,41.6 9.51,14.39 4.95,26.43 1.7,37.62 -2.8,9.75 -5.57,13.97 -9.16,19.06 -2.94,-0.72 -6.5,-1.54 -10.27,-2.21 -9.61,-1.72 -9.43,3.22 -0.95,11.3 8.89,8.49 23.92,18.71 51.73,49.39 27.52,30.37 41.79,61.41 41.79,61.41 0.67,-27.51 -11.22,-48.54 -28.52,-71.16 -16.85,-22.05 -32.96,-34.05 -43.15,-42.05 9.52,-10.08 31.69,-28.59 61.65,-33.38 33.43,-5.31 59.26,1.13 75,13.42 0,0 -2.21,-19.69 -29.31,-25.63 -8.22,-1.81 -15,-2.85 -20.46,-3.4 2.15,-2.61 5.29,-6.07 9,-9.1 7.02,-5.77 18.41,-8.64 18.41,-8.64 0,0 -27.12,6.33 -42.37,11.05 -12.03,3.73 -21.09,7.89 -32.73,13.12 -4.72,-4.07 -14,-12.56 -22.96,-23.45 -12.73,-15.47 -20.81,-43.34 -27.87,-70.63 0,0 1.26,23.72 4.96,43.19 -31.78,-35.01 -88.28,-34.78 -112.11,-29.1 -1.07,0.25 -2.08,0.55 -3.09,0.84 -1.24,-16.66 -1.11,-33.41 2.47,-45.13 4.15,-13.7 14.8,-32.45 45.5,-34.15 23.55,-1.3 41.05,3.05 47.97,5.16 -8.63,9.19 -12.32,11.79 -21.4,13.73 -4.11,0.87 25.83,-0.47 40.66,-10.28 14.82,-9.78 34.35,-23.54 65.06,-40.97 30.71,-17.45 69.61,-12.74 89.76,14.35 15.28,20.54 21.2,40.53 24.29,52.95 -5.03,-6.83 -10.07,-13.64 -15.35,-20.28 1.85,5.48 4.17,10.84 6.44,16.16 9.54,22.09 22.08,43.01 38.63,60.55 19.4,20.64 42.28,37.48 62.43,57.34 16.74,16.51 27.8,33.82 22.49,58.1 -5.17,23.58 -19.63,43.14 -32.82,62.76 -4.15,6.17 -26.6,35.29 -16.86,42.73 -0.04,-3.35 0.44,-5.18 1.42,-7.44 3.1,-7.05 8.07,-13.98 18.62,-27.02 0.86,-1.06 1.64,-1.99 2.39,-2.87 -5.76,13.34 -8.93,30.04 -11.77,50.21 -3.26,23.28 -2.23,45.07 -4.01,71.81"
         style="fill:#9c9a9b;fill-opacity:1;fill-rule:nonzero;stroke:none"
         id="path82"
         inkscape:connector-curvature="0" /><path
         d="m 2113.24,3834.69 c -3.64,0.48 -7.33,0.96 -11.15,1.45 20.89,-43.29 74.26,-117.41 198.94,-151.45 168.29,-45.94 283.52,-25.23 308.92,-15.03 10.55,4.23 20.11,9.3 27.7,13.79 -34.81,1.12 -71.43,2.96 -110,5.59 -277.25,18.8 -387.3,116.13 -414.41,145.65"
         style="fill:#9c9a9b;fill-opacity:1;fill-rule:nonzero;stroke:none"
         id="path84"
         inkscape:connector-curvature="0" /><path
         d="m 3074.53,3173.61 v 0 l 0.01,0.01 z"
         style="fill:#918f90;fill-opacity:1;fill-rule:nonzero;stroke:none"
         id="path86"
         inkscape:connector-curvature="0" /><path
         d="m 2611.97,4340.19 c 5.29,0.53 10.69,1.37 16.12,2.34 13.78,-10.76 34.38,-24.94 60.13,-36.75 48.68,-22.31 89.42,-36.4 89.42,-36.4 0,0 -64.96,49.81 -99.95,87.88 9.49,4.01 18.57,8.55 26.76,13.69 6.04,3.8 13.9,9.28 20.11,15.9 -30.12,28.53 -57.74,54.96 -83.61,77.73 -57.51,16 -118.46,3.23 -165.21,-35.86 -1.84,-1.55 -26.89,-24.11 -23.53,-27.37 40.11,-38.66 103.88,-66.8 159.76,-61.16"
         style="fill:#706d6e;fill-opacity:1;fill-rule:nonzero;stroke:none"
         id="path88"
         inkscape:connector-curvature="0" /><path
         d="m 3204.46,4299.41 c -1.18,12.9 -2.75,23.8 -4.21,32.32 -1.07,-0.04 -2.13,-0.03 -3.21,-0.12 -24.69,-2.15 -32.84,-8.47 -37.12,-17.28 l -5.67,-19.17 c -1.29,-8.98 -0.78,-18.49 -0.29,-23.86 8.66,-5.8 17.15,-11.85 25.33,-18.23 9.88,6.98 27.34,22.79 25.17,46.34"
         style="fill:#706d6e;fill-opacity:1;fill-rule:nonzero;stroke:none"
         id="path90"
         inkscape:connector-curvature="0" /><path
         d="m 2542.88,4411.03 c 20.9,8.43 34.63,23.21 30.67,33.01 -3.93,9.81 -24.08,10.91 -44.97,2.47 -20.88,-8.43 -34.62,-23.21 -30.67,-33.01 3.97,-9.8 24.09,-10.91 44.97,-2.47"
         style="fill:#ffffff;fill-opacity:1;fill-rule:nonzero;stroke:none"
         id="path92"
         inkscape:connector-curvature="0" /><path
         d="m 3188.13,4319.73 c -3.13,1.91 -8.99,-1.84 -13.12,-8.38 -4.11,-6.53 -4.95,-13.4 -1.82,-15.29 3.1,-1.92 8.96,1.84 13.09,8.38 4.12,6.54 4.94,13.39 1.85,15.29"
         style="fill:#ffffff;fill-opacity:1;fill-rule:nonzero;stroke:none"
         id="path94"
         inkscape:connector-curvature="0" /><path
         d="m 2484.08,4111.94 c -85.74,17.11 -152.59,12.04 -200.44,2.91 -6.48,-12.42 -7.74,-31.72 -3.39,-44.36 98.81,-1.32 240.55,-18.7 341.9,-51.06 0,0 -175.09,28.39 -375.97,17.04 -19,-14.18 -41.96,-40.02 -52.61,-66.15 76.46,-13.99 128.24,-22.69 308.5,-26.43 154.08,-3.2 287.35,-8.85 355.3,-23.18 -12.58,9.08 -24.61,17.76 -35.91,25.8 -87.39,62.19 -220.12,142.06 -337.38,165.43"
         style="fill:#ffffff;fill-opacity:1;fill-rule:nonzero;stroke:none"
         id="path96"
         inkscape:connector-curvature="0" /><path
         d="m 1694.32,3133.73 c 0,0.18 0,0.37 0,0.56 l 0.15,-0.59 c -0.05,0.01 -0.1,0.02 -0.15,0.03 z m 1328.86,100.4 c -50.19,6.58 -76.08,9.64 -126.38,14.95 -12.63,1.34 -25.39,-2.81 -34.83,-11.31 -8.88,-7.98 -14.24,-19.32 -14.83,-31.23 -0.66,4.4 -1.31,8.81 -1.95,13.21 -3.05,20.58 -19.9,36.46 -40.6,38.24 -61.53,5.42 -93.25,7.69 -154.88,11.21 -12.36,0.71 -24.49,-3.71 -33.48,-12.2 -8.99,-8.48 -14.1,-20.35 -14.1,-32.73 0,-11.99 0,-17.99 0,-29.99 0,-0.36 0,-0.72 0,-1.09 -10.06,15.08 -22.44,28.54 -36.92,39.7 -40.71,31.27 -90.48,43.54 -140.29,44.26 -29.27,0.39 -52.55,0.62 -74.91,0.62 -31.46,0 -60.9,-0.41 -102.03,-1.3 -8.79,-0.19 -16.9,-2.97 -23.75,-7.49 -7.23,4.23 -15.47,6.51 -24.01,6.25 -94.71,-2.86 -189.33,-8.39 -283.69,-16.47 -10.58,-0.91 -19.94,-5.56 -27.12,-12.42 -8.53,5.58 -18.65,8.31 -28.92,7.32 -50.35,-4.89 -76.22,-7.71 -126.47,-13.85 -20.76,-2.52 -36.68,-19.14 -39.07,-39.48 l -8.27,7.73 c -2.21,3.36 -4.73,6.53 -7.82,9.22 -9.85,8.56 -22.89,12.42 -35.78,10.61 -50.15,-7.03 -75.92,-10.97 -125.92,-19.23 -5.79,-0.96 -11.13,-3.07 -15.91,-5.97 -5.43,1.11 -11.04,1.43 -16.68,0.45 -117.86,-20.24 -235,-44.68 -351.14,-73.16 -5.63,-1.38 -10.73,-3.89 -15.25,-7.11 -5.61,0.75 -11.36,0.52 -16.95,-0.89 -12.11,-3.06 -18.32,-4.64 -30.36,-7.75 -37.22,-9.62 -56.34,-14.77 -93.39,-25.08 -19.496,-5.45 -32.914,-23.1 -32.914,-43.36 0,-4.02 0,-8.06 0,-12.07 -2.773,9.01 -8.343,16.98 -16.132,22.78 -11.446,8.53 -26.047,11.13 -39.75,7.04 -48.903,-14.58 -74.012,-22.41 -122.625,-38.25 -18.485,-6.03 -31.047,-23.34 -31.047,-42.78 0,-20.67 0,-41.35 0,-62.03 -9.922,13.23 -22.535,24.72 -37.567,33.03 -21.398,11.95 -45.382,16.89 -69.117,16.87 -28.664,-0.07 -57.598,-6.74 -87.133,-17.89 v -0.01 c -54.007,-20.38 -102.488,-53.67 -137.968,-100.21 -15.938,-20.92 -28.192,-43.7 -37.09,-67.35 -11.192,14.64 -26.489,27 -44.922,33.65 -14.008,5.21 -28.574,7.35 -42.742,7.33 -34.641,-0.23 -67.317,-11.52 -101.285,-27.19 C 127.23,2775.36 82.9063,2739.08 50.4141,2692.33 18.0078,2645.49 0.125,2591.3 0,2537.97 c 0,0 -0.0117188,-0.38 0,-1.23 0,-65.34 0,-98.13 0,-163.58 0.484375,-58.18 15.7578,-120.03 49.1211,-170.86 48.7461,-73.28 73.4379,-110.58 122.0549,-184.35 14.941,-31.85 20.09,-43.24 22.062,-74.92 -3.547,5.73 -8.398,10.68 -14.3,14.39 -13.11,8.25 -29.469,9.19 -43.43,2.5 C 91.2031,1938.67 68.4805,1927.43 24.5742,1905.05 9.48047,1897.38 0,1881.9 0,1864.96 c 0,-91.88 0,-137.82 0,-229.73 0,-0.34 0,-0.58 0,-0.73 0.0625,-24.5 2.58594,-48.44 11.1094,-71.54 8.2539,-22.8 24.6133,-45.95 49.8086,-59.08 16.8633,-8.91 35.3164,-12.46 53.082,-12.46 0.105,0 0.211,0 0.313,0 5.816,0.05 11.589,0.48 17.351,1.14 l 85.207,-4.42 c 4.262,-0.45 8.516,-0.67 12.731,-0.67 0.101,0 0.203,0 0.304,0 32.657,0.26 64.133,10.94 98.332,26.72 l 0.082,0.02 c 52.649,24.59 97.852,56.94 129.985,102.1 7.945,11.12 14.472,22.57 20.047,34.15 l 62.246,-7.26 c 12.316,-3.35 24.949,-5.02 37.507,-5.02 28.575,0.09 57.27,7.05 86.821,18.14 l 0.285,0.09 c 50.363,19.02 96.344,48.62 130.375,91.41 11.719,14.75 21.144,30.65 28.812,47.14 11.625,-4.2 23.688,-6.71 35.883,-8.07 l 33.02,-7.44 c 20.195,-9.24 42.094,-13 63.972,-12.97 24.032,0.01 48.457,4.33 73.487,11.48 l 0.28,0.06 c 51.61,14.83 99.24,40.92 134.68,81.74 21.69,24.98 36.64,53.9 45.09,84.35 0,-6.04 0,-12.09 0,-18.13 0,-13.67 6.18,-26.54 16.82,-35.1 5.84,-4.68 12.67,-7.72 19.83,-9.07 l 48.35,-22.12 0.63,0.54 c 5.11,-2.08 10.54,-3.29 16.08,-3.29 3.08,0 6.18,0.34 9.25,1.02 46.77,10.35 69.51,15.1 116.44,24.25 19.98,3.92 34.5,21.54 34.5,41.89 0,11.13 0,22.25 0,33.37 l 22.66,-13.86 c 0.01,-0.01 0.02,-0.03 0.03,-0.04 3.27,-2.76 6.95,-4.87 10.8,-6.59 l 33.36,-20.41 c 0.09,-0.08 0.14,-0.18 0.23,-0.26 3.31,-2.8 7.05,-4.92 10.96,-6.59 l 0.06,-0.03 v 0.01 c 5.25,-2.23 10.87,-3.51 16.61,-3.51 2.31,0 4.64,0.19 6.95,0.58 47.15,7.79 70.04,11.32 117.32,17.94 20.53,2.86 35.87,20.14 36.63,40.7 0.87,-0.22 1.76,-0.36 2.65,-0.53 2.35,-7.09 6.32,-13.61 12,-18.65 9.13,-8.09 21.36,-11.88 33.47,-10.41 47.36,5.78 70.36,8.31 117.85,12.89 9.83,0.96 18.48,5.3 25.17,11.66 6.95,-4.55 15.11,-7.09 23.45,-7.09 1.19,0 2.39,0.05 3.59,0.16 91.44,7.87 183.14,13.07 274.91,15.7 6.03,0.17 11.72,1.66 16.88,4.09 5.39,-2.21 11.21,-3.38 17.1,-3.25 37.96,0.82 60.34,1.11 91.98,1.11 8.13,0 16.68,0 26.21,-0.07 11.4,-0.09 22.3,4.34 30.4,12.39 4.88,4.82 8.45,10.69 10.53,17.09 5.21,-17.5 21.28,-30.1 40.03,-30.48 47.62,-0.98 70.72,-1.74 118.32,-3.9 0.65,-0.03 1.28,-0.05 1.93,-0.05 9.86,0 19.36,3.64 26.96,9.85 7.18,-7.3 16.94,-12.08 27.95,-12.72 47.57,-2.73 70.64,-4.33 118.15,-8.23 11.85,-0.96 23.67,3.11 32.41,11.16 6.68,6.15 11.07,14.32 12.83,23.12 0.6,0.31 1.26,0.53 1.84,0.86 0.36,-2.33 0.72,-4.65 1.08,-6.98 2.93,-19.24 18.54,-34.05 37.91,-36 57.94,-5.83 86.02,-9.06 143.8,-16.62 1.87,-0.25 3.74,-0.36 5.61,-0.36 10.28,0 20.21,3.69 28.08,10.58 5.58,4.92 9.49,11.14 11.89,17.94 8.7,1.15 16.94,4.71 23.71,10.66 9.8,8.58 15.33,20.81 15.33,33.82 -0.02,395.44 -0.02,790.9 0,1186.36 0,22.54 -16.8,41.7 -39.16,44.62"
         style="fill:#231f20;fill-opacity:1;fill-rule:nonzero;stroke:none"
         id="path98"
         inkscape:connector-curvature="0" /><path
         d="m 4687.79,2717.83 c -46.99,23.94 -71.27,35.92 -118.71,58.57 -12.76,6.1 -27.71,5.82 -40.25,-0.75 -3.95,-2.06 -7.45,-4.72 -10.57,-7.77 l -51.52,-42.56 c -3.83,26.89 -7.67,53.78 -11.5,80.67 -2.18,15.34 -12.21,28.58 -26.38,34.82 -47.91,21.14 -72.72,31.7 -121.03,51.56 -15.14,6.2 -32.44,3.71 -45.2,-6.5 -3.09,-2.47 -5.76,-5.3 -8.05,-8.39 l -0.45,0.54 -11.9,-12.78 c 0,7.62 0,15.24 0,22.86 0,18.63 -11.39,35.24 -28.75,41.97 -47.89,18.59 -72.62,27.81 -120.85,45.15 -13.73,4.93 -29.16,2.86 -41.13,-5.55 -11.93,-8.4 -19.09,-22.22 -19.09,-36.8 -0.01,-4.02 -0.01,-7.3 -0.01,-10.43 -7.61,14.98 -16.64,29.44 -27.52,42.93 -36.42,45.11 -86.32,75.5 -141.41,92.37 -26.06,7.99 -51.64,12.6 -76.75,12.63 -27.98,0.02 -55.95,-5.97 -80.48,-20.68 -16.67,-9.91 -30.38,-23.57 -40.86,-39.15 -9.15,24.5 -23,47.64 -41.93,67.8 l -32.81,-30.8 32.79,30.82 c -37.48,39.89 -86.48,62.01 -138.37,73.7 -69.06,15.55 -104.67,22.93 -174.06,36.07 -13.12,2.48 -26.8,-1.05 -37.06,-9.57 -8.7,-7.2 -14.09,-17.5 -15.62,-28.57 l -37.2,-68.05 c -6.31,-7.6 -9.98,-17.19 -9.98,-27.2 0,-11.38 0,-17.06 0,-28.45 0,-365.55 0,-731.12 0,-1096.68 0,-20.49 14.62,-38.12 34.75,-41.93 46.98,-8.89 69.74,-13.51 116.57,-23.59 3,-0.64 6.02,-0.95 9.01,-0.95 9.66,0 19.09,3.27 26.78,9.48 l 30.1,15.02 c 9.59,0.35 18.9,3.67 26.55,9.86 10.65,8.58 16.73,21.34 16.73,35 0,90.5 -0.02,180.99 0,271.47 -0.01,52.7 -0.01,105.4 -0.01,158.08 27.87,0.64 54.96,6.9 78.54,21.47 8.37,5.2 15.54,11.42 22.11,18.11 0,-138.73 0,-277.47 0,-416.22 -0.01,-0.41 -0.02,-1 -0.02,-1.74 -0.03,-52.28 18.32,-104.23 54.03,-145.58 35.29,-40.87 82.43,-67.6 133.55,-83.41 h 0.01 l 0.15,-0.05 c 0.24,-0.07 0.49,-0.15 0.73,-0.23 l 0.15,-0.03 c 25.86,-7.89 51.06,-12.64 75.89,-12.68 0.06,0 0.11,0 0.16,0 24.38,0 48.89,4.84 70.8,17.3 0.46,0.26 0.86,0.59 1.31,0.85 2.74,-0.1 5.49,-0.39 8.23,-0.39 0.05,0 0.1,0 0.16,0 9.55,0 19.12,0.72 28.57,2.28 0,-10.77 0,-21.54 0,-32.33 0,-18.04 11.27,-34.07 28.24,-40.16 88.31,-31.73 175.68,-66.09 261.96,-102.96 5.35,-2.29 11.05,-3.41 16.73,-3.41 7.27,0 14.46,1.95 20.91,5.56 3.07,-12.69 11.78,-23.53 24.05,-28.99 44.46,-19.74 65.96,-29.62 110.08,-50.56 5.83,-2.78 12.08,-4.14 18.3,-4.14 7.94,0 15.84,2.22 22.81,6.64 l 69.12,3.22 c 0.46,-0.21 0.85,-0.4 1.31,-0.62 6.15,-2.91 12.75,-4.35 19.31,-4.35 8.37,0 16.7,2.34 24.03,6.99 13.11,8.28 20.97,22.54 20.97,38.03 0,78.64 -0.02,157.26 0,235.89 -0.02,77.15 0,154.3 0,231.43 42.65,215.69 85.23,431.36 127.71,647.08 3.89,19.74 -5.8,39.67 -23.73,48.78"
         style="fill:#231f20;fill-opacity:1;fill-rule:nonzero;stroke:none"
         id="path100"
         inkscape:connector-curvature="0" /><path
         d="m 3794.14,2668.02 -333.34,-10 -200,46.67 -50,33.33 -166.66,106.67 -193.34,-36.67 -30,-439.99 350,-380 563.34,-26.67 166.66,280 -106.66,426.66"
         style="fill:#231f20;fill-opacity:1;fill-rule:nonzero;stroke:none"
         id="path102"
         inkscape:connector-curvature="0" /><g
         id="g104"><g
           id="g106"
           clip-path="url(#clipPath110)"><path
             d="m 186.352,2339.96 c -14.891,27.44 -20.868,51.75 -20.969,84.76 0,69.89 0,104.83 0,174.73 0.043,12.62 3.578,23.27 8.609,31.18 5.039,7.94 12.285,15.74 26.715,22.58 16.984,8.06 25.262,7.64 28.348,5.98 2.996,-1.62 6.883,-5.68 7.078,-23.54 0,-90 0,-135 0,-225 44.457,20.37 66.773,30.26 111.586,49.51 0,92.49 0,138.75 0,231.24 0.422,42.29 -13.293,74.28 -42.133,84.97 -28.617,10.6 -65.945,1.81 -109.348,-18.44 -42.992,-20.07 -81.14,-51.37 -108.8513,-91.26 -27.7031,-39.89 -42.6094,-86.49 -42.3828,-129.7 0,-65.5 0,-98.29 0,-163.81 0.2031,-49.76 14.2578,-104.76 41.6172,-145.99 49.3129,-74.13 74.0939,-111.57 123.8869,-187.13 20.055,-40.91 28.301,-64.09 28.613,-119.11 0,-77.37 0.012,-116.06 0.012,-193.43 -0.141,-21.88 -4.586,-31.71 -8.293,-36.92 -3.668,-5.55 -14.039,-15.21 -36.082,-25.38 -22.75,-10.51 -29.731,-8.2 -33.153,-5.89 -3.558,2.4 -6.695,10.25 -6.632,25.61 0,93.76 0.004,140.66 0.004,234.42 -44.18,-21.19 -66.1879,-32.06 -109.9731,-54.38 0,-91.88 0,-137.84 0,-229.73 -0.1172,-42.48 9.5859,-77.15 36.9414,-91.57 27.2847,-14.38 67.0937,-6.68 117.0157,16.68 0.086,0.04 0.172,0.09 0.258,0.13 50.73,23.72 91.14,53.38 119.254,92.87 28.172,39.57 38.461,82.73 38.281,123.04 0,84.87 0,127.32 0,212.19 0,69.1 -21.766,119.41 -48.137,162.61 -49.125,76.19 -73.582,113.94 -122.265,188.78"
             style="fill:url(#linearGradient118);fill-opacity:1;fill-rule:nonzero;stroke:none"
             id="path120"
             inkscape:connector-curvature="0" /></g></g><g
         id="g122"><g
           id="g124"
           clip-path="url(#clipPath128)"><path
             d="m 513.32,2740.36 c 0.141,19.3 5.121,31.38 11.227,39.93 6.113,8.57 16.055,17.07 32.582,23.31 16.48,6.22 25.82,5.08 31.57,1.25 5.754,-3.82 10.731,-12.32 10.832,-31.88 0,-297.45 0,-594.9 0,-892.35 -0.101,-19.62 -5.054,-31.75 -10.832,-39.87 -5.773,-8.11 -15.008,-16.09 -31.558,-22.37 -16.45,-6.24 -26.504,-5.41 -32.59,-1.57 -6.067,3.83 -11.09,12.03 -11.231,31.22 0,297.44 0,594.88 0,892.33 z m 43.821,170.04 c -47.336,-17.9 -88.375,-46.42 -118.125,-85.42 -29.793,-39.05 -44.856,-85.92 -44.59,-130.95 -0.012,-298.5 -0.024,-597 0.004,-895.49 -0.266,-45.25 14.816,-79.39 44.574,-94.21 29.707,-14.8 70.766,-10.7 118.137,7.22 0.082,0.03 0.156,0.05 0.238,0.08 47.25,17.85 88.363,44.84 118.148,82.3 29.864,37.55 44.661,82.88 44.414,127.7 -0.023,298.49 -0.007,596.98 -0.007,895.47 0.242,45.01 -14.543,80.44 -44.407,97.1 -29.808,16.64 -71.054,14.09 -118.386,-3.8"
             style="fill:url(#linearGradient136);fill-opacity:1;fill-rule:nonzero;stroke:none"
             id="path138"
             inkscape:connector-curvature="0" /></g></g><g
         id="g140"><g
           id="g142"
           clip-path="url(#clipPath146)"><path
             d="m 989.563,3045.79 c 0,-346.44 0,-692.9 0,-1039.35 -0.129,-19.62 -5.208,-31.38 -11.079,-38.99 -5.879,-7.63 -15.3,-14.79 -32.175,-19.69 -16.813,-4.87 -27.047,-3.18 -33.274,1.17 -6.219,4.34 -11.336,12.95 -11.48,32.15 0,346.45 0,692.9 0,1039.34 -48.762,-14.55 -73.078,-22.13 -121.543,-37.91 0,-346.96 0,-693.94 0,-1040.9 -0.266,-45.22 15.191,-80.63 45.625,-97.97 30.379,-17.3 72.316,-16.65 120.664,-2.69 0.082,0.02 0.16,0.03 0.242,0.05 48.199,13.87 90.137,37.45 120.457,72.41 30.43,35.08 45.49,79.2 45.24,124.04 0,346.96 -0.01,693.93 -0.01,1040.9 -12.05,-3.04 -18.07,-4.58 -30.11,-7.7 -37.09,-9.58 -55.61,-14.56 -92.557,-24.86"
             style="fill:url(#linearGradient154);fill-opacity:1;fill-rule:nonzero;stroke:none"
             id="path156"
             inkscape:connector-curvature="0" /></g></g><g
         id="g158"><g
           id="g160"
           clip-path="url(#clipPath164)"><path
             d="m 1144.15,2979.48 c 44.57,10.93 66.91,16.14 111.66,26.04 0,-359.85 0.03,-719.7 0,-1079.55 49.45,10.94 74.23,16.12 123.88,25.82 0.03,359.84 -0.01,719.69 0.01,1079.53 44.93,8.78 67.42,12.92 112.5,20.68 0,42.72 0,64.08 0,106.8 -116.82,-20.08 -232.93,-44.29 -348.05,-72.52 0,-42.72 0,-64.08 0,-106.8"
             style="fill:url(#linearGradient172);fill-opacity:1;fill-rule:nonzero;stroke:none"
             id="path174"
             inkscape:connector-curvature="0" /></g></g><g
         id="g176"><g
           id="g178"
           clip-path="url(#clipPath182)"><path
             d="m 1739.47,2670.97 c -36.09,-4.4 -54.12,-6.77 -90.15,-11.82 0.01,174.73 0.01,349.45 0.01,524.18 -50,-7.01 -74.96,-10.82 -124.81,-19.07 0,-12 0,-18.02 0,-30.02 0,-385.45 -0.01,-770.9 -0.01,-1156.35 49.86,8.25 74.82,12.09 124.82,19.09 0,185.12 0.01,370.25 0.01,555.36 36.02,5.05 54.05,7.42 90.14,11.82 0,-185.12 0,-370.24 -0.01,-555.36 50.09,6.11 75.17,8.87 125.36,13.73 0,395.44 0,790.88 0,1186.32 -50.19,-4.86 -75.26,-7.6 -125.35,-13.71 0,-174.72 0,-349.45 -0.01,-524.17"
             style="fill:url(#linearGradient190);fill-opacity:1;fill-rule:nonzero;stroke:none"
             id="path192"
             inkscape:connector-curvature="0" /></g></g><g
         id="g194"><g
           id="g196"
           clip-path="url(#clipPath200)"><path
             d="m 2046.03,2592.17 c 58.34,3.55 87.55,4.91 145.95,6.8 0,42.72 -0.01,64.09 -0.01,106.81 -58.4,-1.88 -87.6,-3.23 -145.94,-6.8 0,139.13 0,278.24 0,417.36 62.18,3.8 93.31,5.22 155.56,7.11 0,42.72 0,64.08 0,106.79 -93.87,-2.84 -187.65,-8.31 -281.22,-16.32 0,-12.01 0,-18 0,-30 0,-385.46 0,-770.91 0,-1156.37 97.3,8.36 194.83,13.91 292.43,16.68 0,42.72 0,64.09 0,106.82 -66.75,-1.88 -100.1,-3.38 -166.77,-7.45 0,149.53 0,299.05 0,448.57"
             style="fill:url(#linearGradient208);fill-opacity:1;fill-rule:nonzero;stroke:none"
             id="path210"
             inkscape:connector-curvature="0" /></g></g><g
         id="g212"><g
           id="g214"
           clip-path="url(#clipPath218)"><path
             d="m 2892.08,2593.45 c -30.41,206.58 -60.88,413.16 -91.41,619.72 -61.35,5.38 -92.07,7.59 -153.53,11.11 0,-12 0,-18 0,-30 0,-385.45 0,-770.9 0,-1156.35 50.31,-2.88 75.46,-4.63 125.7,-8.75 0,195.61 0.02,391.22 -0.01,586.83 30.66,-198.38 61.2,-396.77 91.57,-595.19 61.25,-6.14 91.86,-9.68 152.94,-17.67 0,395.44 0,790.9 0,1186.35 -50.05,6.56 -75.1,9.52 -125.26,14.83 0,-203.63 0,-407.25 0,-610.88"
             style="fill:url(#linearGradient226);fill-opacity:1;fill-rule:nonzero;stroke:none"
             id="path228"
             inkscape:connector-curvature="0" /></g></g><g
         id="g230"><g
           id="g232"
           clip-path="url(#clipPath236)"><path
             d="m 3426.64,2582.19 c 0,143.28 0,286.57 0,429.85 15,-3.22 22.5,-4.86 37.48,-8.2 20.16,-4.47 31.52,-11.75 36.87,-17.85 5.25,-5.99 9.7,-14.22 9.98,-33.05 0,-117.51 0,-235.04 0,-352.56 -0.34,-15.84 -4.43,-21.14 -10.45,-24.95 -6.09,-3.85 -18.25,-5.51 -36.4,-1.45 -14.98,3.34 -22.48,4.99 -37.48,8.21 z m 164.01,465.34 c -29.62,31.52 -69.19,50.13 -115.52,60.63 -68.81,15.5 -103.3,22.65 -172.48,35.74 0,-12 0,-18 0,-30 0,-385.43 0,-770.88 0,-1156.32 49.69,-9.41 74.49,-14.43 123.99,-25.08 0,180.97 0.01,361.92 -0.01,542.89 19.41,-4.18 29.12,-6.32 48.51,-10.68 47.54,-10.73 87.66,-8.06 116.24,9.72 28.61,17.81 42.96,50.75 42.72,89.43 0,122.72 0,245.44 0,368.17 0.36,42.08 -13.64,83.8 -43.45,115.5"
             style="fill:url(#linearGradient244);fill-opacity:1;fill-rule:nonzero;stroke:none"
             id="path246"
             inkscape:connector-curvature="0" /></g></g><g
         id="g248"><g
           id="g250"
           clip-path="url(#clipPath254)"><path
             d="m 3805.62,2874.98 c 0.14,19.21 5.29,27.84 11.48,32.14 6.21,4.32 16.45,5.96 33.18,0.8 16.82,-5.19 26.18,-12.69 32.02,-20.5 5.84,-7.8 10.86,-19.72 10.99,-39.35 0,-297.45 0,-594.91 0,-892.36 -0.13,-19.53 -5.16,-28.3 -10.99,-32.41 -5.82,-4.11 -15.29,-5.72 -32.02,-0.6 -16.78,5.13 -26.94,12.83 -33.18,20.91 -6.22,8.06 -11.34,19.72 -11.48,39 0,297.46 0,594.91 0,892.37 z m 44.66,139.74 c -48.14,14.77 -90.26,14.68 -120.88,-3.63 -30.66,-18.33 -46.28,-54.7 -46.01,-99.92 0,-298.49 0,-596.98 0,-895.47 -0.27,-45.06 15.34,-89.68 46.01,-125.22 30.65,-35.5 72.72,-59.83 120.88,-74.59 0.04,-0.01 0.09,-0.05 0.13,-0.06 48.03,-14.69 89.57,-16.04 119.45,1 29.96,17.08 44.72,52.27 44.47,97.3 0,298.5 0,596.98 0,895.48 0.25,44.83 -14.49,90.38 -44.47,127.5 -29.93,37.07 -71.49,62.86 -119.58,77.61"
             style="fill:url(#linearGradient262);fill-opacity:1;fill-rule:nonzero;stroke:none"
             id="path264"
             inkscape:connector-curvature="0" /></g></g><g
         id="g266"><g
           id="g268"
           clip-path="url(#clipPath272)"><path
             d="m 4197.22,2888.11 c -47.76,18.52 -71.71,27.47 -119.81,44.75 0,-12 0,-18.01 0,-30.01 0,-385.45 0,-770.91 0,-1156.36 93.96,-33.74 186.9,-70.3 278.69,-109.52 0,42.73 0,64.1 0,106.83 -63.22,27.01 -95,39.96 -158.88,64.75 0,359.85 0,719.7 0,1079.56"
             style="fill:url(#linearGradient280);fill-opacity:1;fill-rule:nonzero;stroke:none"
             id="path282"
             inkscape:connector-curvature="0" /></g></g><g
         id="g284"><g
           id="g286"
           clip-path="url(#clipPath290)"><path
             d="m 4549.71,2735.79 c -1.53,-9.39 -2.29,-14.07 -3.81,-23.47 -21.85,-134.1 -43.68,-268.2 -65.51,-402.3 -23.1,163.22 -46.43,326.41 -69.68,489.61 -47.78,21.08 -71.79,31.31 -119.97,51.1 43.92,-256.8 87.6,-513.64 130.98,-770.53 0,-157.26 0,-314.52 0,-471.77 47.04,-20.89 70.46,-31.66 117.09,-53.79 0.02,157.26 0.01,314.51 0.01,471.77 42.94,217.09 85.81,434.2 128.56,651.32 -46.84,23.87 -70.38,35.48 -117.67,58.06"
             style="fill:url(#linearGradient298);fill-opacity:1;fill-rule:nonzero;stroke:none"
             id="path300"
             inkscape:connector-curvature="0" /></g></g><g
         id="g302"><g
           id="g304"
           clip-path="url(#clipPath308)"><path
             d="m 2374.9,3125.77 c 15.26,-0.06 22.88,-0.12 38.14,-0.29 21.54,-0.24 32.93,-5.22 38.01,-9.91 4.98,-4.59 9.5,-11.89 9.76,-31.06 0,-110.76 0,-221.52 0,-332.28 -0.28,-19.37 -5.16,-27.81 -11.69,-33.51 -6.61,-5.76 -19.76,-10.76 -42.49,-10.54 0,-0.02 0,-0.02 0,-0.02 -12.69,0.13 -19.03,0.17 -31.73,0.22 0,139.13 0,278.26 0,417.39 z m 192.29,-481.97 c 23.1,25.12 19.39,83.85 19.51,116.76 0,110.76 0,221.54 0,332.3 0.45,42.55 -18.21,80.69 -48.96,104.38 -30.72,23.68 -70.4,34.28 -113.47,34.91 -70.13,0.94 -105.2,0.8 -175.31,-0.67 0,-12 0,-18.02 0,-30.02 0,-385.44 0,-770.87 0,-1156.31 50.37,1.06 75.56,1.28 125.94,1.09 0,185.12 0,370.24 0,555.35 9.11,-0.04 14.71,-0.08 22.36,-0.13 18.76,-171.61 45.08,-410.39 63.55,-556.27 50.36,-1.04 75.56,-1.87 125.89,-4.14 -25.08,173.09 -51.35,414.72 -68.39,576.14 9.28,3.11 26.14,1.9 48.88,26.61"
             style="fill:url(#linearGradient316);fill-opacity:1;fill-rule:nonzero;stroke:none"
             id="path318"
             inkscape:connector-curvature="0" /></g></g><g
         id="g320"><g
           id="g322"
           clip-path="url(#clipPath326)"><path
             d="M 3184.78,914.219 C 3022.82,460.512 2523.67,224.082 2069.99,385.988 c -453.71,162 -690.21,661.112 -528.2,1114.782 161.97,453.76 661.05,690.23 1114.75,528.28 453.74,-162.01 690.19,-661.11 528.24,-1114.831"
             style="fill:url(#linearGradient336);fill-opacity:1;fill-rule:nonzero;stroke:none"
             id="path338"
             inkscape:connector-curvature="0" /></g></g><g
         id="g340"><g
           id="g342"
           clip-path="url(#clipPath346)"><path
             d="m 3107.34,1276.04 c -103.81,-146.51 -398.81,-115.77 -658.93,68.62 -260.1,184.34 -386.76,452.53 -283,598.99 103.78,146.4 398.79,115.62 658.9,-68.7 260.1,-184.43 386.8,-452.52 283.03,-598.91"
             style="fill:url(#linearGradient354);fill-opacity:1;fill-rule:nonzero;stroke:none"
             id="path356"
             inkscape:connector-curvature="0" /></g></g><path
         d="m 3001.55,709.941 c 6.58,-2.703 14.5,-1.031 24.6,7.668 23.44,20.36 54.75,49.313 83.55,88.852 -61.1,-112.813 -145.6,-207.609 -245.06,-280.32 70.15,70.328 120.32,154.238 136.91,183.8 z M 2743.72,453.512 c -0.03,-0.082 -0.15,-0.051 -0.15,-0.082 -75.89,-32.2 -226.16,-56.578 -255.01,-58.782 -14.09,-1.019 -19.41,1.461 -23.67,2.614 -74.51,56.91 -115.7,135.508 -126.01,157.207 11.68,6.242 17.72,14.652 23.38,19.511 13.06,11 105.42,94.059 155.12,172.372 7.74,12.097 12.94,20.527 16.26,26.707 54.13,-1.938 227.35,-0.829 384.19,79.461 0.67,-1.09 1.46,-2.239 2.3,-3.45 12.68,-17.031 47.7,-76.281 57.41,-101.558 3.59,-9.371 7.42,-19.102 12.21,-26.43 C 2969.49,684.82 2869.3,515.18 2742.88,455.23 Z M 2330.8,361.879 c -84.79,3.101 -170.56,19.019 -254.56,48.992 -93.81,33.508 -178.11,81.918 -251.23,141.559 -15.43,21.871 -38.79,55.789 -43.98,68.718 30.37,-0.136 100.19,4.551 207.77,40.84 2.14,-1.379 4.48,-2.726 7.15,-4.019 21.11,-10.719 248.54,-110.43 303.42,-111.508 9.31,-0.16 16.98,0.75 23.5,2.199 9.46,-20.211 48.84,-97.808 123.3,-158.07 -16.12,-10.531 -81.53,-22.82 -115.37,-28.711 z M 1663,739.359 c -17.37,22.012 -32.19,42.641 -44.71,61.27 -7.81,14.101 -15.18,28.449 -22.17,42.992 l 0.95,0.52 c -66.59,142.769 -40.5,325.029 -33.04,368.269 1,0.31 2,0.6 3.11,1.13 22.5,10.7 113.24,37.6 133.79,42.7 7.6,1.88 13.97,2.59 19.51,5.29 14.77,-45.53 73.36,-193.64 235.14,-298.928 -0.3,-2.762 -0.55,-5.801 -0.8,-9.133 -1.35,-21.309 7.13,-233.489 12.27,-254.078 2.55,-10.09 4.42,-17.743 8.36,-24.129 -131.51,-43.071 -203.81,-37.114 -209.44,-36.582 -18.79,15.148 -54.28,39.121 -102.97,100.679 z m -133.27,645.561 c -3.06,-65.34 7.65,-116.27 8.54,-129.86 0.84,-14.12 3.19,-31.19 10.4,-39.14 -5.28,-29.05 -19.46,-121.63 -7.42,-224.498 -33.94,125.768 -39.38,260.258 -11.52,393.498 z m 301.04,490.09 c -43.85,-42.5 -88.99,-95.44 -116.48,-153.1 -23.85,-20.34 -63.21,-56.88 -98.65,-103.12 54.99,100.9 128.69,187.26 215.13,256.22 z m 181.33,110.95 c 55.61,18.3 138.25,43.35 186.28,47.54 45.3,3.94 72.57,4.12 87.42,3.58 l -0.13,-0.38 c 0.79,-0.31 78.11,-36.85 136.86,-125.49 -11.29,-5.21 -23.9,-13.52 -34.36,-23.48 -18.94,-18.19 -89.33,-92.94 -112.26,-122.21 -14.97,-19.16 -28.87,-42.59 -36.7,-56.6 -194.8,9.32 -354.67,-71.63 -394.41,-93.73 -1.02,2.14 -2.39,4.25 -4.18,6.23 -21.18,23.43 -82.34,100.57 -100.63,115.85 63.44,111.26 191.58,203.57 217.94,221.89 17.7,9.58 35.78,18.52 54.17,26.8 z m -267.25,-676.73 c 12.21,51.84 78.39,237.25 88.11,255.59 5.4,10.27 11.57,21.53 13.59,32.35 22.05,12.94 186.16,104.36 389.68,95.35 17.34,-20.63 93.23,-110.52 112.51,-133.91 17.9,-21.92 69.12,-93.96 90.99,-120.05 -17.59,-61.38 -86.3,-294.28 -137.57,-380.52 -55.8,-1.05 -310.35,-68.38 -326.22,-71.56 -7.51,-1.5 -12.3,-4.058 -15.38,-8.3 -167.18,110.62 -219.33,267.46 -227.66,296.14 4.1,7.26 7.93,18.18 11.95,34.91 z m 587.91,751.17 c 1.08,0.37 2.11,0.67 3.19,1.08 103.33,3.29 208.93,-12.33 312.01,-49.13 105.71,-37.75 199.3,-94.43 278.38,-164.75 3.73,-5.27 7.07,-10.51 9.56,-15.32 -31.97,4.19 -113.68,9.76 -193.93,-27.52 l 0.01,-0.11 c -19.8,13.11 -63.25,35.95 -141.3,66.47 -90.37,35.41 -143.13,44.87 -155.12,46.14 -1.95,0.12 -4.23,-0.06 -6.76,-0.5 -46.83,72.27 -104.61,111.68 -131.37,127.22 5.27,5.35 13.68,12.09 25.33,16.42 z m 121.09,-631.35 c 22.46,2.25 112.27,26.42 160.53,34.71 47.39,8.06 141.65,29.25 167.48,38.19 21.96,-14.87 158.32,-112.86 234.12,-290.26 l 0.57,0.29 c -3,-5.68 -5.19,-13.36 -6.49,-23.7 -3.31,-26.85 -18.98,-105.5 -29.83,-135.98 0,0 -41.1,-141.288 -51.78,-162.55 -4.77,-9.531 -9.52,-15.289 -12.13,-20.32 -151.66,-79.739 -321.02,-82.539 -378.25,-80.801 -0.94,4.473 -4.56,8.199 -9.18,16.082 -10.95,18.43 -165.17,216.329 -210.87,248.519 51.32,89.16 116.22,307.79 135.83,375.82 z m 530.74,354.93 c 18.46,-18.68 42.03,-44.85 64.26,-71.71 10.44,-14.23 20.36,-28.87 29.8,-43.7 l -1.48,-1.18 c 92.02,-126.48 89.49,-373.78 87.82,-426.22 -3.32,-0.42 -7.13,-1.19 -11.6,-1.09 -18.57,0.42 -104.38,-12.61 -117.42,-14.28 -2.84,-0.35 -5.55,-1.04 -8.11,-2.23 -77.06,175.84 -211.97,274.14 -236.72,291.06 3.81,29.04 -0.7,112.5 -6.02,156.49 -5.48,45.32 -17.08,99.83 -29.63,120.88 83.2,35.82 168.59,24.5 186.94,21.47 3.1,-4.87 10.01,2.91 42.16,-29.49 z m 223.19,-660.77 c -0.54,23.25 -3.48,45.9 -9.88,66.68 -7.26,23.5 -12.62,36.48 -17.48,43.58 1.07,21.9 5.68,149.41 -21.53,273.56 44.86,-120.69 62.65,-251.8 48.89,-383.82 z m -551.6,909.92 c -449.73,160.54 -956.72,-74.22 -1117.26,-523.91 -160.54,-449.7 75.15,-964.439 524.84,-1125.001 449.66,-160.539 966.82,81.742 1127.32,531.429 160.55,449.692 -85.23,956.962 -534.9,1117.482"
         style="fill:#231f20;fill-opacity:1;fill-rule:nonzero;stroke:none"
         id="path358"
         inkscape:connector-curvature="0" /><path
         d="m 2264.62,1710.77 c 0,0 167.88,-210.19 181.21,-234.48 13.27,-24.29 270.72,31.4 305.57,43.39 34.75,11.93 1.64,242.55 -13.6,261.41 -15.26,18.87 -249.58,118.41 -289.92,118.12 -40.37,-0.2 -139.61,-117.42 -183.26,-188.44"
         style="fill:#656263;fill-opacity:1;fill-rule:nonzero;stroke:none"
         id="path360"
         inkscape:connector-curvature="0" /><path
         d="m 1558.84,1237.59 c 0,0 -27.65,101.75 8.08,212.8 35.65,111.11 48.31,146.46 104.18,202.4 55.9,55.86 72.39,46.04 72.39,46.04 0,0 83.72,-89.8 79.94,-100.41 -3.8,-10.63 -107.73,-312.97 -107.73,-312.97 0,0 -140.18,-45.86 -156.86,-47.86"
         style="fill:#4f4c4c;fill-opacity:1;fill-rule:nonzero;stroke:none"
         id="path362"
         inkscape:connector-curvature="0" /><path
         d="m 3007.09,1369.93 c -32.17,38.53 90.87,240.4 64.27,196.8 -26.58,-43.64 -238.32,-54.83 -285.32,-55.76 -47.05,-0.89 -70.22,16.47 -72.91,7.68 -2.68,-8.79 -25.58,-82.36 -25.58,-82.36 48.23,-61.72 -66.79,-98.19 -96.24,-192.88 0,0 44.14,-12.91 92.93,-98.15 l -29.77,-105.16 c 0,0 39.1,-80.901 74.91,-107.67 0.18,-9.051 80.73,56.172 80.92,47.129 86.97,-37.52 70.38,-16.637 82.69,-43.84 0,0 59.03,5.73 89.8,56.332 23.02,-13.153 38.7,-71.242 62.52,-86.41 0,0 77.55,40.757 68.64,95.409 l 49.77,59.82 -80.42,100.32"
         style="fill:#231f20;fill-opacity:1;fill-rule:nonzero;stroke:none"
         id="path364"
         inkscape:connector-curvature="0" /><path
         d="m 3007.09,1369.93 c -32.17,38.53 90.87,240.4 64.27,196.8 -26.58,-43.64 -238.32,-54.83 -285.32,-55.76 -47.05,-0.89 -70.22,16.47 -72.91,7.68 -2.68,-8.79 -25.58,-82.36 -25.58,-82.36 48.23,-61.72 -66.79,-98.19 -96.24,-192.88 0,0 44.14,-12.91 92.93,-98.15 l -29.77,-105.16 c 0,0 39.1,-80.901 74.91,-107.67 0.18,-9.051 80.73,56.172 80.92,47.129 86.97,-37.52 70.38,-16.637 82.69,-43.84 0,0 59.03,5.73 89.8,56.332 23.02,-13.153 38.7,-71.242 62.52,-86.41 0,0 77.55,40.757 68.64,95.409 l 49.77,59.82 -80.42,100.32"
         style="fill:none;stroke:#231f20;stroke-width:57.85919952;stroke-linecap:butt;stroke-linejoin:miter;stroke-miterlimit:4;stroke-dasharray:none;stroke-opacity:1"
         id="path366"
         inkscape:connector-curvature="0" /><path
         d="m 3010.84,1410.95 c -32.12,38.53 86.91,208.48 60.39,164.87 -26.57,-43.68 -248.7,-60.24 -295.71,-61.13 -47.08,-0.97 -55.97,53.72 -58.65,44.91 -2.7,-8.71 -25.64,-82.26 -25.64,-82.26 48.27,-61.83 -66.7,-98.22 -96.18,-192.91 0,0 44.13,-12.91 92.89,-98.18 l -29.71,-105.18 c 0,0 39.07,-80.92 74.88,-107.609 0.19,-9.09 80.75,56.139 80.9,47.079 86.99,-37.481 70.41,-16.65 82.73,-43.841 0,0 59,5.731 89.82,56.381 22.97,-13.21 38.65,-71.252 62.44,-86.49 0,0 77.63,40.75 68.66,95.47 l 49.79,59.79 -80.37,100.35"
         style="fill:#a7a5a6;fill-opacity:1;fill-rule:nonzero;stroke:none"
         id="path368"
         inkscape:connector-curvature="0" /><path
         d="m 2867.71,1397.89 c 514.76,-41.53 784.76,193.47 784.76,193.47 122.5,67.5 60,-35 60,-35 -514.43,-561.571 -772.25,-463.64 -772.25,-463.64 0,0 -145.44,42.69 -154.71,129.66 -13.63,127.87 82.2,175.51 82.2,175.51"
         style="fill:#231f20;fill-opacity:1;fill-rule:nonzero;stroke:none"
         id="path370"
         inkscape:connector-curvature="0" /><path
         d="m 2694.43,1288.1 c 59.95,-14.16 108.46,-50.66 121.54,-135.7 l -14.97,93.51 c 0,0 -28.31,78.43 -105.29,64.39 -68.44,-12.46 -1.28,-22.2 -1.28,-22.2"
         style="fill:#231f20;fill-opacity:1;fill-rule:nonzero;stroke:none"
         id="path372"
         inkscape:connector-curvature="0" /><path
         d="m 2852.22,1385.04 c 21.54,59.54 20.79,95.87 20.79,95.87 l 30.65,-82.91 -51.44,-12.96"
         style="fill:#231f20;fill-opacity:1;fill-rule:nonzero;stroke:none"
         id="path374"
         inkscape:connector-curvature="0" /><path
         d="m 2940.22,1092.72 c 27.07,-5.46 72.69,-13.68 100.66,-49.51 0,0 8.76,18.38 -55.81,62.57 l -44.85,-13.06"
         style="fill:#231f20;fill-opacity:1;fill-rule:nonzero;stroke:none"
         id="path376"
         inkscape:connector-curvature="0" /><path
         d="m 3280.35,1330.16 c -9.66,-2.3 -21.77,-4.94 -35.56,-7.74 -45.81,-7.88 -85.38,-14.43 -119.21,-19.84 -102.52,-13.46 -214.85,-18.13 -237.49,17.05 l -13.53,-0.89 c 0,0 -49.77,-71.22 6.08,-145.72 42.78,-57.1 95.14,-51.59 95.14,-51.59 0,0 243.95,67.86 369.19,144.93 195,120 340,295 340,295 0,0 -192.66,-175.86 -404.62,-231.2"
         style="fill:url(#linearGradient382);fill-opacity:1;fill-rule:evenodd;stroke:none"
         id="path384"
         inkscape:connector-curvature="0" /></g></g></svg>