<?xml version="1.0" encoding="UTF-8" standalone="no"?>
<!-- Created with Inkscape (http://www.inkscape.org/) -->

<svg
   xmlns:dc="http://purl.org/dc/elements/1.1/"
   xmlns:cc="http://creativecommons.org/ns#"
   xmlns:rdf="http://www.w3.org/1999/02/22-rdf-syntax-ns#"
   xmlns:svg="http://www.w3.org/2000/svg"
   xmlns="http://www.w3.org/2000/svg"
   xmlns:sodipodi="http://sodipodi.sourceforge.net/DTD/sodipodi-0.dtd"
   xmlns:inkscape="http://www.inkscape.org/namespaces/inkscape"
   version="1.1"
   id="svg2"
   xml:space="preserve"
   width="554.17334"
   height="699.12"
   viewBox="0 0 554.17334 699.12"
   sodipodi:docname="SPSU Basketball HORNET BW.svg"
   inkscape:version="0.92.1 r15371"><metadata
     id="metadata8"><rdf:RDF><cc:Work
         rdf:about=""><dc:format>image/svg+xml</dc:format><dc:type
           rdf:resource="http://purl.org/dc/dcmitype/StillImage" /><dc:title></dc:title></cc:Work></rdf:RDF></metadata><defs
     id="defs6"><clipPath
       clipPathUnits="userSpaceOnUse"
       id="clipPath30"><path
         d="m 3626.37,2578 c -17.27,101.09 -33.54,196.55 -46.26,270.99 -7.74,45.54 -14.13,83.25 -18.63,109.53 -4.5,26.37 -7.02,41.22 -7.02,41.22 -2.07,11.79 -10.71,21.51 -22.14,24.84 -0.09,0 -69.03,19.98 -127.44,35.91 -59.13,16.2 -134.46,32.94 -134.73,33.03 -2.24,0.51 -4.51,0.75 -6.76,0.75 -0.35,0 -0.71,-0.01 -1.06,-0.02 -23.13,23.78 -45.8,37.99 -67.42,50.75 -37.17,25.56 -77.22,43.2 -116.91,52.74 -32.49,10.71 -57.96,36 -84.33,66.42 l -2.25,2.16 c -1.73,2 -3.48,3.97 -5.24,5.93 182.65,-22.45 379.21,-60.55 580.34,-122.57 138.96,-42.84 228.69,-88.38 285.12,-130.77 56.52,-42.39 79.65,-81.18 87.75,-111.06 2.7,-10.26 3.69,-19.71 3.6,-27.99 -0.54,-28.8 -11.88,-66.06 -49.23,-111.15 -37.35,-45 -100.71,-97.2 -203.76,-154.08 -21.04,-11.63 -42.2,-24.02 -63.63,-36.63 m -728.38,768.16 c -13.12,8.62 -26.52,16.72 -40.04,24.47 -57.51,32.94 -117.27,51.39 -183.06,57.69 -11.52,1.08 -23.13,1.89 -34.74,2.43 25.02,3.24 48.24,7.29 69.75,11.97 56.25,12.51 101.52,29.52 136.62,53.1 1.53,-0.54 3.06,-1.08 4.59,-1.53 16.08,-5.21 32.51,-7.61 48.73,-7.61 12.37,0 24.62,1.4 36.5,4.01 53.1,11.88 99.9,46.8 126,93.51 34.29,62.28 34.38,134.46 20.34,198.81 -2.52,11.07 -5.31,21.87 -8.55,32.49 -11.97,39.15 -29.79,80.01 -53.82,114.75 -7.49,10.76 -15.56,21.42 -24.1,31.81 151.86,63.1 285.64,116.83 401.11,147.83 68.15,18.32 129.74,28.63 184.69,28.63 20.09,0 39.28,-1.37 57.59,-4.24 80.19,-12.24 185.85,-67.14 275.13,-138.33 89.55,-70.92 162.72,-158.94 182.07,-232.2 6.66,-24.93 7.29,-47.7 1.44,-68.04 -16.92,-58.59 -60.12,-106.74 -123.93,-146.97 -63.63,-40.23 -147.33,-71.91 -241.92,-97.29 -52.29,-14.04 -108,-26.19 -165.33,-36.9 -128.23,-24.05 -412.41,-49.21 -669.07,-68.39"
         id="path28"
         inkscape:connector-curvature="0" /></clipPath><radialGradient
       fx="0"
       fy="0"
       cx="0"
       cy="0"
       r="1"
       gradientUnits="userSpaceOnUse"
       gradientTransform="matrix(1407.83,309.471,309.471,-1407.83,2672.06,3352.47)"
       spreadMethod="pad"
       id="radialGradient38"><stop
         style="stop-opacity:1;stop-color:#bdbcbc"
         offset="0"
         id="stop32" /><stop
         style="stop-opacity:1;stop-color:#bdbcbc"
         offset="0.285714"
         id="stop34" /><stop
         style="stop-opacity:1;stop-color:#ffffff"
         offset="1"
         id="stop36" /></radialGradient><clipPath
       clipPathUnits="userSpaceOnUse"
       id="clipPath48"><path
         d="m 935.355,3114.53 c -140.054,37.9 -302.539,83.72 -388.964,114.44 -168.75,59.85 -344.789,225.63 -414.629,467.28 -13.41,46.44 -26.731,97.2 -38.4339,149.67 -24.3867,109.53 -41.7578,226.35 -39.0586,325.26 2.4297,99.27 25.8321,178.83 76.3205,216.81 14.398,10.98 31.32,18.45 50.582,22.77 13.508,3.09 28.211,4.54 43.836,4.54 69.008,0 156.168,-28.19 239.754,-67.45 29.386,-13.69 58.386,-28.65 86.176,-44.02 -19.727,-18.45 -42.293,-40.49 -69.708,-68.39 -92.429,-94.5 -135.902,-177.66 -138.332,-249.3 -0.898,-32.31 3.512,-64.35 7.383,-92.25 3.688,-25.83 6.571,-48.87 5.668,-61.83 -6.211,-17.55 -12.418,-36.27 -17.371,-54 -4.226,-15.03 -7.918,-26.55 -10.437,-37.71 -2.43,-11.07 -3.961,-22.59 -1.262,-34.92 3.332,-14.94 11.699,-26.91 22.68,-39.24 39.601,-43.56 77.402,-99.99 143.011,-129.42 6.571,-2.88 13.051,-5.4 19.442,-7.74 25.289,-83.7 70.468,-162.09 145.976,-214.47 19.442,-13.41 41.043,-28.35 64.621,-39.6 42.391,-20.25 88.832,-36.18 135.539,-44.73 30.602,-5.58 61.114,-7.47 91.172,-7.74 -6.312,-35.23 -11.715,-71.23 -13.965,-107.96 m 652.785,715.82 c -6.66,6.39 -13.5,12.6 -20.61,18.45 -13.14,10.98 -27.9,22.86 -44.28,32.67 -18.81,11.16 -38.88,20.97 -59.4,28.8 -22.14,8.46 -45.09,14.22 -67.95,17.82 -25.05,3.95 -48.77,5.6 -70.91,5.6 -34.88,0 -65.84,-4.1 -91.99,-9.83 -6.14,-1.36 -12,-2.8 -17.61,-4.3 -90.92,123.13 -166.63,226.96 -231.261,322.44 17.311,-4.23 34.821,-6.23 52.281,-6.23 17.53,0 35,2.01 52.14,5.79 28.35,6.21 55.89,17.19 81.99,31.68 11.07,6.21 18.45,13.41 23.13,17.73 2.34,2.16 4.05,3.51 4.68,3.96 l 0.9,0.18 c -0.02,0.02 0.05,0.03 0.19,0.03 0.69,0 3.23,-0.29 8.27,-1.92 5.85,-1.89 14.49,-5.4 25.74,-7.47 24.32,-4.31 54.33,-8.91 85.42,-8.91 14.35,0 28.92,0.98 43.28,3.42 2.97,0.45 5.85,1.08 8.73,1.71 33.39,7.11 66.87,24.93 86.31,59.49 12.24,21.33 13.41,44.91 8.82,65.25 -6.3,27.63 -21.33,51.66 -36.18,71.28 6.57,3.96 12.69,8.37 18.45,13.23 10.26,8.82 23.31,21.78 34.11,39.51 10.8,17.73 19.26,40.59 18.72,67.23 -0.9,36.9 -3.78,64.17 -0.54,105.93 1.35,18.36 0.27,34.56 -2.88,48.96 v 0.18 l -0.09,0.36 c -6.03,27.27 -19.8,45.9 -28.35,57.42 -10.8,14.22 -26.37,27.18 -45.81,37.08 -12.96,6.48 -27.99,11.52 -44.64,12.87 h -2.43 v 0.09 h -1.08 c -0.99,0.04 -1.96,0.07 -2.93,0.07 -0.96,0 -1.93,-0.03 -2.92,-0.07 -6.03,0.81 -12.33,3.87 -22.23,11.34 -19.53,16.65 -44.37,38.25 -80.46,55.44 -13,6.35 -26.55,9.36 -39.54,9.36 -6,0 -11.87,-0.64 -17.52,-1.89 l -0.9,-0.18 c -25.74,-6.12 -43.29,-21.51 -55.44,-33.57 -30.69,13.09 -65.1,22.97 -101.69,22.97 -7.18,0 -14.45,-0.38 -21.79,-1.19 -2.79,-0.27 -5.49,-0.72 -8.01,-1.26 l -0.54,-0.09 c -31.859,-7.11 -48.961,-30.78 -56.519,-48.06 -1.172,-2.7 -2.25,-5.4 -3.153,-7.92 -1.437,-0.27 -4.046,-0.54 -7.289,-0.9 -0.519,0 -1.043,0.01 -1.562,0.01 -11.051,0 -21.699,-0.93 -32.188,-3.16 h -0.179 c -12.328,-2.7 -24.032,-7.47 -34.739,-14.22 -23.043,-14.85 -34.113,-37.17 -40.589,-55.53 -2.43,-7.11 -4.321,-14.04 -5.672,-20.43 l -0.09,-0.18 -1.621,-1.26 c -8.821,-6.84 -14.219,-15.39 -20.699,-28.35 -6.391,-13.05 -13.411,-31.05 -22.051,-57.78 -6.207,-19.26 -8.367,-39.6 -8.547,-59.76 -1.637,-8.77 -3.824,-18.78 -6.707,-29.5 -44.067,94.81 -75.067,182.25 -92.024,258.64 -25.113,111.78 -19.351,199.17 14.938,251.1 25.473,39.24 69.93,61.74 123.031,73.53 38.352,8.62 80.66,11.39 121.512,11.39 32.101,0 63.298,-1.71 90.978,-3.65 56.43,-3.78 163.17,-8.55 275.13,-65.61 111.78,-57.15 228.96,-165.87 305.64,-382.14 49.77,-140.76 116.82,-345.06 171.36,-513.99 8.71,-26.99 17.11,-53.08 25.07,-77.88 -8.36,-7.85 -16.55,-16.25 -24.53,-25.26 -64.62,-73.44 -89.37,-168.03 -98.46,-227.88 -0.99,-0.72 -1.98,-1.44 -3.06,-2.16 -23.58,-17.46 -41.22,-37.53 -52.74,-55.89 -5.28,0.97 -10.38,1.37 -15.2,1.37 -7.65,0 -14.59,-1 -20.44,-2.27 -4.68,-1.08 -9,-2.34 -12.78,-3.69 m -666.628,125.19 c -0.543,15.39 -1.442,30.42 -2.16,45.27 -0.633,10.35 -1.082,20.61 -1.352,30.78 -0.094,3.66 -0.141,7.34 -0.16,11.01 33.746,-26.75 69.59,-55.28 106.2,-84.49 -8.15,2.14 -16.02,3.67 -23.51,4.63 -6.725,0.86 -13.444,1.25 -20.096,1.25 -16.227,0 -32.067,-2.29 -46.684,-5.48 -4.141,-0.9 -8.281,-1.89 -12.238,-2.97"
         id="path46"
         inkscape:connector-curvature="0" /></clipPath><radialGradient
       fx="0"
       fy="0"
       cx="0"
       cy="0"
       r="1"
       gradientUnits="userSpaceOnUse"
       gradientTransform="matrix(1491.94,327.962,327.962,-1491.94,1392.48,3633.97)"
       spreadMethod="pad"
       id="radialGradient56"><stop
         style="stop-opacity:1;stop-color:#bdbcbc"
         offset="0"
         id="stop50" /><stop
         style="stop-opacity:1;stop-color:#bdbcbc"
         offset="0.285714"
         id="stop52" /><stop
         style="stop-opacity:1;stop-color:#ffffff"
         offset="1"
         id="stop54" /></radialGradient><clipPath
       clipPathUnits="userSpaceOnUse"
       id="clipPath176"><path
         d="M 2724.91,252.02 C 2374.1,-85.0313 1816.47,-73.8281 1479.46,277.059 c -337,350.839 -325.77,908.421 25.05,1245.431 350.84,336.98 908.46,325.83 1245.43,-25.04 C 3087,1146.61 3075.78,589.031 2724.91,252.02 Z"
         id="path174"
         inkscape:connector-curvature="0" /></clipPath><radialGradient
       fx="0"
       fy="0"
       cx="0"
       cy="0"
       r="1"
       gradientUnits="userSpaceOnUse"
       gradientTransform="matrix(1248.29,-25.1304,-25.1304,-1248.29,2148.6,206.6)"
       spreadMethod="pad"
       id="radialGradient186"><stop
         style="stop-opacity:1;stop-color:#a7a5a6"
         offset="0"
         id="stop178" /><stop
         style="stop-opacity:1;stop-color:#a7a5a6"
         offset="0.00549451"
         id="stop180" /><stop
         style="stop-opacity:1;stop-color:#4f4c4d"
         offset="0.70704609"
         id="stop182" /><stop
         style="stop-opacity:1;stop-color:#4f4c4d"
         offset="1"
         id="stop184" /></radialGradient><clipPath
       clipPathUnits="userSpaceOnUse"
       id="clipPath196"><path
         d="m 2813.15,1223.78 c -52.54,-173.7 -345.24,-238.85 -653.83,-145.5 -308.57,93.36 -516.08,309.86 -463.54,483.56 52.6,173.72 345.33,238.86 653.85,145.51 308.56,-93.37 516.05,-309.83 463.52,-483.57 z"
         id="path194"
         inkscape:connector-curvature="0" /></clipPath><linearGradient
       x1="0"
       y1="0"
       x2="1"
       y2="0"
       gradientUnits="userSpaceOnUse"
       gradientTransform="matrix(-190.322,-629.06,-629.06,190.322,2349.64,1707.36)"
       spreadMethod="pad"
       id="linearGradient206"><stop
         style="stop-opacity:1;stop-color:#a7a5a6"
         offset="0"
         id="stop198" /><stop
         style="stop-opacity:1;stop-color:#a7a5a6"
         offset="0.00549451"
         id="stop200" /><stop
         style="stop-opacity:1;stop-color:#4f4c4d"
         offset="0.70704609"
         id="stop202" /><stop
         style="stop-opacity:1;stop-color:#4f4c4d"
         offset="1"
         id="stop204" /></linearGradient><linearGradient
       x1="0"
       y1="0"
       x2="1"
       y2="0"
       gradientUnits="userSpaceOnUse"
       gradientTransform="matrix(-574.76,-181.384,-181.384,574.76,3242.5,1117.35)"
       spreadMethod="pad"
       id="linearGradient230"><stop
         style="stop-opacity:1;stop-color:#ffffff"
         offset="0"
         id="stop226" /><stop
         style="stop-opacity:1;stop-color:#9c9a9b"
         offset="1"
         id="stop228" /></linearGradient></defs><sodipodi:namedview
     pagecolor="#ffffff"
     bordercolor="#666666"
     borderopacity="1"
     objecttolerance="10"
     gridtolerance="10"
     guidetolerance="10"
     inkscape:pageopacity="0"
     inkscape:pageshadow="2"
     inkscape:window-width="1440"
     inkscape:window-height="843"
     id="namedview4"
     showgrid="false"
     inkscape:zoom="0.33756723"
     inkscape:cx="-241.32858"
     inkscape:cy="349.56"
     inkscape:window-x="0"
     inkscape:window-y="31"
     inkscape:window-maximized="1"
     inkscape:current-layer="g10" /><g
     id="g10"
     inkscape:groupmode="layer"
     inkscape:label="ink_ext_XXXXXX"
     transform="matrix(1.3333333,0,0,-1.3333333,0,699.12)"><g
       id="g12"
       transform="scale(0.1)"><path
         d="m 3692.88,1175.17 c 0,-63.09 -44.73,-140.67 -99.63,-172.17 l -1377,-795.512 c -54.54,-31.406 -144.45,-31.406 -199.08,0 L 639.898,1003 c -54.808,31.5 -99.539,109.08 -99.539,172.17 l -0.089,1590.39 c 0,63.18 44.82,140.85 99.628,172.26 l 1377.272,795.15 c 54.63,31.68 144.45,31.68 199.08,0 l 1377,-795.06 c 54.9,-31.5 99.63,-109.17 99.63,-172.35 V 1175.17"
         style="fill:#bdbcbc;fill-opacity:1;fill-rule:nonzero;stroke:none"
         id="path14"
         inkscape:connector-curvature="0" /><path
         d="m 4148.91,3777.88 c -25.92,93.15 -106.02,184.41 -200.52,260.28 l -15.03,-18.72 14.94,18.81 c -95.13,75.24 -204.93,134.1 -300.42,149.4 -79.92,12.33 -167.67,0.36 -264.6,-25.65 -169.29,-45.54 -368.82,-135 -602.73,-231.12 l -0.54,-0.18 -1.35,-0.54 c -153.36,-62.01 -370.17,-135.45 -538.29,-238.86 -83.97,-51.84 -157.14,-110.97 -205.2,-182.52 -48.15,-71.1 -68.76,-157.32 -43.74,-249.84 l 0.36,-1.17 c 34.65,-126 144.63,-259.56 356.94,-413.28 l 12.96,-9.36 c 30.87,-23.4 138.06,-100.89 466.65,-313.83 220.5,-143.91 400.77,-159.3 549.09,-119.52 l 1.35,0.45 0.99,0.27 c 133.74,36.09 240.21,112.14 336.24,164.88 107.1,59.13 175.86,114.66 219.33,166.86 43.38,52.02 61.02,101.88 61.65,144.81 0.18,13.23 -1.44,27.63 -5.49,42.84 v 0.09 c -11.88,44.19 -44.1,92.7 -107.46,140.13 -63.54,47.52 -158.58,95.04 -301.59,139.23 -161.19,49.59 -319.23,84.15 -469.62,107.73 188.91,16.02 366.57,34.2 464.13,52.38 58.41,10.89 115.38,23.31 169.47,37.89 97.65,26.28 185.85,59.13 256.68,103.68 70.56,44.46 125.28,102.42 147.06,177.75 8.28,28.98 7.56,58.95 0.99,88.2 l 0.09,0.27 -2.34,8.64"
         style="fill:#ffffff;fill-opacity:1;fill-rule:nonzero;stroke:none"
         id="path16"
         inkscape:connector-curvature="0" /><path
         d="m 2045.52,3595.54 c -20.97,72.9 -48.06,160.02 -70.02,229.14 -10.98,34.56 -20.61,64.53 -27.54,85.95 -3.51,10.62 -6.3,19.17 -8.19,25.02 -0.99,2.97 -1.71,5.22 -2.16,6.75 l -0.45,1.26 -5.49,24.66 -2.7,-0.9 c -36.81,116.55 -173.07,545.22 -259.2,788.58 -80.01,227.43 -208.44,349.65 -332.01,412.29 -122.94,62.73 -240.12,67.5 -295.83,71.37 -64.352,4.32 -149.219,8.46 -227.52,-8.82 l -0.539,-0.09 C 753.57,5217.34 693.988,5189.89 657.359,5134 c -46.711,-73.08 -48.418,-173.88 -22.41,-292.32 19.621,-88.11 55.891,-187.2 107.281,-294.03 93.149,-193.5 211.86,-364.05 391.23,-607.95 -156.87,125.64 -316.8,252.72 -378.089,297.9 -60.48,44.46 -160.473,109.08 -267.75,159.21 -107.191,49.23 -220.68,86.94 -317.519,66.78 l -0.723,-0.18 c -25.649,-5.67 -50.219,-16.2 -71.6407,-32.49 -36,-27.9 -59.668,-66.78 -74.5195,-110.97 C 8.28125,4275.58 1.80078,4225.54 0.269531,4172.71 -2.51953,4066.51 15.6602,3946.45 40.6797,3834.13 52.6484,3780.49 66.1484,3728.65 79.9219,3681.22 155.07,3422.56 342,3244.63 528.301,3178.12 c 141.929,-50.4 470.07,-136.8 597.149,-169.83 l -0.09,-0.18 22.68,-5.67 c 3.06,-0.81 6.03,-1.53 9,-2.34 6.21,-1.53 11.16,-2.79 14.49,-3.69 1.71,-0.45 3.06,-0.72 3.87,-0.99 l 0.99,-0.27 h 0.09 l -0.45,0.09 0.36,-0.09 h 0.18 -0.09 0.09 l 0.09,-0.09 h 0.09 c 1.71,-0.45 3.15,-0.63 4.14,-0.72 89.91,-21.51 155.07,-30.78 243,-36.18 88.56,-5.58 200.52,-7.47 387.99,-15.03 42.48,-1.71 80.19,1.26 113.67,8.73 h 0.18 l 0.27,0.09 c 53.37,11.88 96.12,35.82 126.99,68.67 46.71,49.5 64.62,114.84 68.31,180.63 3.6,66.15 -6.66,134.91 -20.7,198.18 -18.27,81.72 -43.38,155.16 -55.08,196.11"
         style="fill:#ffffff;fill-opacity:1;fill-rule:nonzero;stroke:none"
         id="path18"
         inkscape:connector-curvature="0" /><path
         d="m 3933.36,4019.44 c -92.52,73.44 -200.43,130.5 -289.17,144.54 -74.79,11.52 -159.48,0.45 -254.7,-25.11 -166.77,-44.91 -366.75,-134.46 -601.83,-231.03 v 0.09 h -0.09 c -154.26,-62.28 -369.9,-135.63 -534.6,-237.06 -82.35,-50.76 -152.82,-108.27 -197.82,-175.41 -45.09,-67.05 -63.63,-144.9 -40.32,-231.03 31.77,-117.18 137.25,-248.22 348.03,-400.5 l 0.63,0.81 2.16,-2.25 c 1.26,-0.99 65.52,-55.17 475.74,-321.12 217.35,-141.3 388.71,-154.26 531.18,-116.01 l 0.99,0.27 c 128.52,34.65 233.19,108.9 330.93,162.72 105.21,58.14 171.63,112.23 212.4,161.19 40.68,48.87 55.53,93.24 56.07,129.87 0.18,11.07 -1.17,23.22 -4.68,36.27 -10.08,37.8 -38.34,82.08 -98.64,127.26 -60.39,45.18 -153.09,91.89 -294.21,135.45 -246.06,75.78 -485.01,116.19 -700.38,135.9 263.43,19.62 562.23,45.54 697.5,70.74 57.96,10.8 114.39,23.13 167.67,37.44 96.21,25.92 182.43,58.23 250.11,100.89 67.59,42.57 117.09,96.12 136.8,164.07 7.65,26.73 6.39,55.35 -1.35,84.06 -23.04,84.51 -100.08,174.15 -192.42,247.95"
         style="fill:#656263;fill-opacity:1;fill-rule:nonzero;stroke:none"
         id="path20"
         inkscape:connector-curvature="0" /><path
         d="m 1914.03,3937.27 -0.63,-0.18 c -19.8,62.82 -172.89,546.93 -266.22,810.9 -78.48,222.48 -202.05,338.76 -320.31,398.88 -118.08,60.21 -230.58,64.98 -286.65,68.85 -63.81,4.32 -146.97,8.1 -221.04,-8.37 -57.149,-12.78 -109.981,-37.98 -141.75,-86.49 -41.129,-63.81 -44.641,-158.4 -19.078,-274.05 19.078,-85.68 54.718,-183.24 105.476,-288.72 109.531,-227.7 255.782,-424.53 498.872,-752.85 -190.17,152.91 -442.079,354.42 -521.552,413.01 -59.218,43.65 -158.398,107.64 -263.699,156.78 -105.39,48.78 -216.179,83.79 -302.758,64.98 -22.863,-5.13 -44.011,-14.22 -62.371,-28.17 -62.5505,-48.42 -85.1403,-137.16 -88.0192,-239.85 -2.7891,-102.96 15.0273,-221.58 39.7773,-332.64 11.8828,-53.1 25.293,-104.49 38.8829,-151.47 72.809,-251.1 254.879,-423.54 433.348,-487.17 149.222,-53.01 512.821,-147.96 617.671,-174.96 v -0.09 c 2.97,-0.72 5.94,-1.53 8.91,-2.25 12.69,-3.24 19.8,-5.04 19.8,-5.13 l 2.16,-0.27 c 179.55,-43.02 252.54,-35.82 628.02,-50.94 40.77,-1.62 76.41,1.26 107.46,8.19 h 0.18 c 49.59,11.07 87.57,32.67 115.02,61.83 41.4,43.83 58.32,102.96 61.83,165.51 3.42,62.64 -6.39,129.6 -20.16,191.61 -17.91,80.28 -42.75,152.64 -54.81,194.76 -41.49,144.9 -108.36,348.21 -108.36,348.3"
         style="fill:#656263;fill-opacity:1;fill-rule:nonzero;stroke:none"
         id="path22"
         inkscape:connector-curvature="0" /><g
         id="g24"><g
           id="g26"
           clip-path="url(#clipPath30)"><path
             d="m 3626.37,2578 c -17.27,101.09 -33.54,196.55 -46.26,270.99 -7.74,45.54 -14.13,83.25 -18.63,109.53 -4.5,26.37 -7.02,41.22 -7.02,41.22 -2.07,11.79 -10.71,21.51 -22.14,24.84 -0.09,0 -69.03,19.98 -127.44,35.91 -59.13,16.2 -134.46,32.94 -134.73,33.03 -2.24,0.51 -4.51,0.75 -6.76,0.75 -0.35,0 -0.71,-0.01 -1.06,-0.02 -23.13,23.78 -45.8,37.99 -67.42,50.75 -37.17,25.56 -77.22,43.2 -116.91,52.74 -32.49,10.71 -57.96,36 -84.33,66.42 l -2.25,2.16 c -1.73,2 -3.48,3.97 -5.24,5.93 182.65,-22.45 379.21,-60.55 580.34,-122.57 138.96,-42.84 228.69,-88.38 285.12,-130.77 56.52,-42.39 79.65,-81.18 87.75,-111.06 2.7,-10.26 3.69,-19.71 3.6,-27.99 -0.54,-28.8 -11.88,-66.06 -49.23,-111.15 -37.35,-45 -100.71,-97.2 -203.76,-154.08 -21.04,-11.63 -42.2,-24.02 -63.63,-36.63 m -728.38,768.16 c -13.12,8.62 -26.52,16.72 -40.04,24.47 -57.51,32.94 -117.27,51.39 -183.06,57.69 -11.52,1.08 -23.13,1.89 -34.74,2.43 25.02,3.24 48.24,7.29 69.75,11.97 56.25,12.51 101.52,29.52 136.62,53.1 1.53,-0.54 3.06,-1.08 4.59,-1.53 16.08,-5.21 32.51,-7.61 48.73,-7.61 12.37,0 24.62,1.4 36.5,4.01 53.1,11.88 99.9,46.8 126,93.51 34.29,62.28 34.38,134.46 20.34,198.81 -2.52,11.07 -5.31,21.87 -8.55,32.49 -11.97,39.15 -29.79,80.01 -53.82,114.75 -7.49,10.76 -15.56,21.42 -24.1,31.81 151.86,63.1 285.64,116.83 401.11,147.83 68.15,18.32 129.74,28.63 184.69,28.63 20.09,0 39.28,-1.37 57.59,-4.24 80.19,-12.24 185.85,-67.14 275.13,-138.33 89.55,-70.92 162.72,-158.94 182.07,-232.2 6.66,-24.93 7.29,-47.7 1.44,-68.04 -16.92,-58.59 -60.12,-106.74 -123.93,-146.97 -63.63,-40.23 -147.33,-71.91 -241.92,-97.29 -52.29,-14.04 -108,-26.19 -165.33,-36.9 -128.23,-24.05 -412.41,-49.21 -669.07,-68.39"
             style="fill:url(#radialGradient38);fill-opacity:1;fill-rule:nonzero;stroke:none"
             id="path40"
             inkscape:connector-curvature="0" /></g></g><g
         id="g42"><g
           id="g44"
           clip-path="url(#clipPath48)"><path
             d="m 935.355,3114.53 c -140.054,37.9 -302.539,83.72 -388.964,114.44 -168.75,59.85 -344.789,225.63 -414.629,467.28 -13.41,46.44 -26.731,97.2 -38.4339,149.67 -24.3867,109.53 -41.7578,226.35 -39.0586,325.26 2.4297,99.27 25.8321,178.83 76.3205,216.81 14.398,10.98 31.32,18.45 50.582,22.77 13.508,3.09 28.211,4.54 43.836,4.54 69.008,0 156.168,-28.19 239.754,-67.45 29.386,-13.69 58.386,-28.65 86.176,-44.02 -19.727,-18.45 -42.293,-40.49 -69.708,-68.39 -92.429,-94.5 -135.902,-177.66 -138.332,-249.3 -0.898,-32.31 3.512,-64.35 7.383,-92.25 3.688,-25.83 6.571,-48.87 5.668,-61.83 -6.211,-17.55 -12.418,-36.27 -17.371,-54 -4.226,-15.03 -7.918,-26.55 -10.437,-37.71 -2.43,-11.07 -3.961,-22.59 -1.262,-34.92 3.332,-14.94 11.699,-26.91 22.68,-39.24 39.601,-43.56 77.402,-99.99 143.011,-129.42 6.571,-2.88 13.051,-5.4 19.442,-7.74 25.289,-83.7 70.468,-162.09 145.976,-214.47 19.442,-13.41 41.043,-28.35 64.621,-39.6 42.391,-20.25 88.832,-36.18 135.539,-44.73 30.602,-5.58 61.114,-7.47 91.172,-7.74 -6.312,-35.23 -11.715,-71.23 -13.965,-107.96 m 652.785,715.82 c -6.66,6.39 -13.5,12.6 -20.61,18.45 -13.14,10.98 -27.9,22.86 -44.28,32.67 -18.81,11.16 -38.88,20.97 -59.4,28.8 -22.14,8.46 -45.09,14.22 -67.95,17.82 -25.05,3.95 -48.77,5.6 -70.91,5.6 -34.88,0 -65.84,-4.1 -91.99,-9.83 -6.14,-1.36 -12,-2.8 -17.61,-4.3 -90.92,123.13 -166.63,226.96 -231.261,322.44 17.311,-4.23 34.821,-6.23 52.281,-6.23 17.53,0 35,2.01 52.14,5.79 28.35,6.21 55.89,17.19 81.99,31.68 11.07,6.21 18.45,13.41 23.13,17.73 2.34,2.16 4.05,3.51 4.68,3.96 l 0.9,0.18 c -0.02,0.02 0.05,0.03 0.19,0.03 0.69,0 3.23,-0.29 8.27,-1.92 5.85,-1.89 14.49,-5.4 25.74,-7.47 24.32,-4.31 54.33,-8.91 85.42,-8.91 14.35,0 28.92,0.98 43.28,3.42 2.97,0.45 5.85,1.08 8.73,1.71 33.39,7.11 66.87,24.93 86.31,59.49 12.24,21.33 13.41,44.91 8.82,65.25 -6.3,27.63 -21.33,51.66 -36.18,71.28 6.57,3.96 12.69,8.37 18.45,13.23 10.26,8.82 23.31,21.78 34.11,39.51 10.8,17.73 19.26,40.59 18.72,67.23 -0.9,36.9 -3.78,64.17 -0.54,105.93 1.35,18.36 0.27,34.56 -2.88,48.96 v 0.18 l -0.09,0.36 c -6.03,27.27 -19.8,45.9 -28.35,57.42 -10.8,14.22 -26.37,27.18 -45.81,37.08 -12.96,6.48 -27.99,11.52 -44.64,12.87 h -2.43 v 0.09 h -1.08 c -0.99,0.04 -1.96,0.07 -2.93,0.07 -0.96,0 -1.93,-0.03 -2.92,-0.07 -6.03,0.81 -12.33,3.87 -22.23,11.34 -19.53,16.65 -44.37,38.25 -80.46,55.44 -13,6.35 -26.55,9.36 -39.54,9.36 -6,0 -11.87,-0.64 -17.52,-1.89 l -0.9,-0.18 c -25.74,-6.12 -43.29,-21.51 -55.44,-33.57 -30.69,13.09 -65.1,22.97 -101.69,22.97 -7.18,0 -14.45,-0.38 -21.79,-1.19 -2.79,-0.27 -5.49,-0.72 -8.01,-1.26 l -0.54,-0.09 c -31.859,-7.11 -48.961,-30.78 -56.519,-48.06 -1.172,-2.7 -2.25,-5.4 -3.153,-7.92 -1.437,-0.27 -4.046,-0.54 -7.289,-0.9 -0.519,0 -1.043,0.01 -1.562,0.01 -11.051,0 -21.699,-0.93 -32.188,-3.16 h -0.179 c -12.328,-2.7 -24.032,-7.47 -34.739,-14.22 -23.043,-14.85 -34.113,-37.17 -40.589,-55.53 -2.43,-7.11 -4.321,-14.04 -5.672,-20.43 l -0.09,-0.18 -1.621,-1.26 c -8.821,-6.84 -14.219,-15.39 -20.699,-28.35 -6.391,-13.05 -13.411,-31.05 -22.051,-57.78 -6.207,-19.26 -8.367,-39.6 -8.547,-59.76 -1.637,-8.77 -3.824,-18.78 -6.707,-29.5 -44.067,94.81 -75.067,182.25 -92.024,258.64 -25.113,111.78 -19.351,199.17 14.938,251.1 25.473,39.24 69.93,61.74 123.031,73.53 38.352,8.62 80.66,11.39 121.512,11.39 32.101,0 63.298,-1.71 90.978,-3.65 56.43,-3.78 163.17,-8.55 275.13,-65.61 111.78,-57.15 228.96,-165.87 305.64,-382.14 49.77,-140.76 116.82,-345.06 171.36,-513.99 8.71,-26.99 17.11,-53.08 25.07,-77.88 -8.36,-7.85 -16.55,-16.25 -24.53,-25.26 -64.62,-73.44 -89.37,-168.03 -98.46,-227.88 -0.99,-0.72 -1.98,-1.44 -3.06,-2.16 -23.58,-17.46 -41.22,-37.53 -52.74,-55.89 -5.28,0.97 -10.38,1.37 -15.2,1.37 -7.65,0 -14.59,-1 -20.44,-2.27 -4.68,-1.08 -9,-2.34 -12.78,-3.69 m -666.628,125.19 c -0.543,15.39 -1.442,30.42 -2.16,45.27 -0.633,10.35 -1.082,20.61 -1.352,30.78 -0.094,3.66 -0.141,7.34 -0.16,11.01 33.746,-26.75 69.59,-55.28 106.2,-84.49 -8.15,2.14 -16.02,3.67 -23.51,4.63 -6.725,0.86 -13.444,1.25 -20.096,1.25 -16.227,0 -32.067,-2.29 -46.684,-5.48 -4.141,-0.9 -8.281,-1.89 -12.238,-2.97"
             style="fill:url(#radialGradient56);fill-opacity:1;fill-rule:nonzero;stroke:none"
             id="path58"
             inkscape:connector-curvature="0" /></g></g><path
         d="m 949.32,3222.49 c -13.769,-76.86 -23.218,-157.41 -5.039,-241.02 3.508,-15.93 8.008,-31.77 13.68,-47.7 35.277,-98.28 87.659,-183.24 107.189,-270.45 4.5,-18.9 14.67,-48.33 19.71,-71.55 v -0.09 l 0.27,-1.08 0.45,-1.8 c 1.08,-5.22 1.8,-10.44 2.07,-14.04 l 0.09,-2.07 c -7.65,-27.63 -19.71,-59.22 -32.22,-99.81 73.35,-82.53 205.74,-183.24 432.9,-223.56 210.6,-37.35 358.83,-38.34 453.6,-30.33 4.5,8.73 12.33,20.43 21.96,32.94 13.05,17.01 29.34,36.18 45.45,55.89 28.71,35.55 58.23,65.61 80.46,86.67 11.07,10.53 20.34,18.72 26.73,24.3 2.16,1.89 4.05,3.51 5.49,4.77 18.09,8.01 76.14,34.65 144.45,74.52 81.81,48.06 178.65,113.67 240.03,194.31 16.2,21.51 31.14,43.65 44.73,66.69 33.84,-17.01 78.03,-22.5 132.12,-10.44 l 1.44,0.36 c 22.59,4.95 47.25,12.78 74.61,23.85 0.81,-6.39 1.98,-12.96 3.42,-19.62 l 0.09,-0.54 c 8.55,-38.52 27,-78.66 60.57,-106.65 26.1,-21.6 55.89,-28.98 84.42,-32.49 31.59,-3.87 59.76,-1.17 86.67,-1.08 20.88,0.63 46.53,-3.06 56.16,-11.07 7.65,-5.67 12.78,-15.12 15.93,-29.16 2.43,-11.16 3.15,-24.3 3.24,-37.17 l -1.08,-0.99 c -44.37,-40.68 -82.8,-90.99 -87.75,-154.71 -2.07,-27.9 -2.07,-45.18 -2.52,-57.15 -0.45,-12.06 -1.08,-17.73 -4.5,-29.07 -2.79,-9.18 -6.75,-18.99 -9.81,-30.51 -2.97,-11.34 -4.95,-25.2 -1.62,-40.05 1.89,-8.64 5.49,-17.37 10.8,-25.74 9,-14.31 15.03,-22.41 20.07,-28.53 5.13,-6.21 7.92,-9.27 13.05,-16.38 4.5,-6.21 10.17,-16.56 16.83,-26.82 2.7,-4.14 5.58,-8.28 9.09,-12.42 -5.04,-12.78 -8.1,-29.61 -3.78,-49.23 2.34,-10.62 6.75,-21.87 13.68,-33.21 16.47,-27.54 39.06,-43.74 61.29,-50.13 21.6,-6.39 41.58,-4.59 56.52,-2.34 18.99,1.44 30.06,4.32 32.31,3.96 1.17,0 0.54,0.18 2.43,-0.54 1.62,-0.63 5.13,-2.52 10.53,-6.21 18.18,-16.38 38.43,-32.13 64.08,-37.89 13.32,-2.79 26.46,-2.61 38.34,0.09 l 0.45,0.09 c 9.27,-5.22 22.59,-10.17 40.41,-11.79 8.01,-0.72 15.84,-0.27 23.04,1.35 14.94,3.24 27.36,11.25 36.63,20.52 9.36,9.36 16.2,19.98 21.96,30.51 15.12,28.44 25.29,55.44 40.86,75.33 16.92,22.23 38.7,45.09 55.26,74.43 12.51,22.32 13.5,45.9 10.35,66.78 0.81,1.44 1.62,2.97 2.43,4.59 7.92,16.38 8.01,33.75 4.77,47.97 -3.15,14.31 -9.18,26.46 -14.76,36.81 -7.02,12.87 -13.23,24.12 -16.47,34.65 -1.8,5.76 -3.33,11.52 -4.68,17.37 -2.52,11.61 -4.14,23.49 -5.22,35.73 -4.32,46.35 0.27,97.38 -11.25,150.84 l -0.36,1.71 -0.09,0.36 c -2.88,12.51 -6.75,25.83 -13.59,39.06 -2.61,5.04 -5.4,9.36 -8.01,13.23 -63.36,235.26 -110.43,363.42 -152.82,440.82 -41.76,77.49 -83.52,104.76 -121.95,127.44 -37.17,25.56 -77.22,43.2 -116.91,52.74 -32.49,10.71 -57.96,36 -84.33,66.42 l -2.25,2.16 c -38.34,44.46 -85.14,76.59 -133.47,104.31 -57.51,32.94 -117.27,51.39 -183.06,57.69 -11.52,1.08 -23.13,1.89 -34.74,2.43 25.02,3.24 48.24,7.29 69.75,11.97 56.25,12.51 101.52,29.52 136.62,53.1 1.53,-0.54 3.06,-1.08 4.59,-1.53 28.35,-9.18 57.78,-9.63 85.23,-3.6 53.1,11.88 99.9,46.8 126,93.51 34.29,62.28 34.38,134.46 20.34,198.81 -2.52,11.07 -5.31,21.87 -8.55,32.49 -11.97,39.15 -29.79,80.01 -53.82,114.75 -12.15,17.46 -25.83,34.65 -40.59,50.85 1.44,1.71 3.06,3.51 4.77,5.49 8.19,9.36 12.87,20.79 14.49,31.77 1.62,10.17 0.9,19.98 -0.9,29.34 1.71,0.45 3.42,1.17 5.04,1.98 8.55,4.68 13.5,13.95 12.51,23.67 -0.09,0.72 -1.17,10.71 -4.5,25.83 -5.76,25.74 -17.55,66.33 -44.1,101.7 -10.53,13.86 -21.42,24.57 -33.75,31.95 -12.15,7.29 -26.82,11.16 -41.4,7.92 -5.85,-1.26 -11.25,-3.6 -16.11,-6.66 -14.85,13.14 -28.62,21.69 -42.84,26.64 -19.71,6.84 -38.16,4.68 -52.56,1.35 -7.83,-1.71 -14.94,-3.69 -22.05,-5.22 -13.77,-3.06 -25.92,-3.33 -36,-1.98 37.89,19.35 84.15,44.28 133.11,73.35 53.28,31.68 108.45,51.3 156.33,61.83 28.08,6.12 53.64,9.18 74.7,9.9 20.97,0.72 37.53,-1.17 45.9,-3.78 21.24,-6.12 44.01,-17.73 64.89,-29.61 21.06,-11.88 39.69,-23.85 56.61,-31.23 11.07,-4.59 22.68,-5.13 33.48,-2.79 13.86,3.06 27,11.07 35.82,24.03 9,12.87 12.42,30.69 8.37,48.51 -3.6,16.11 -12.33,32.22 -26.55,48.69 l -18.18,-15.66 18.18,15.66 c -25.65,30.06 -59.94,50.4 -101.61,58.32 -41.67,8.01 -90.36,4.86 -149.4,-8.01 -13.14,-2.97 -26.91,-6.3 -41.13,-10.26 -122.31,-33.57 -258.75,-117 -370.8,-180.72 l -1.17,0.54 c -53.64,24.03 -116.91,26.64 -151.47,26.55 -5.94,5.58 -11.97,10.62 -18.09,15.12 30.24,41.85 83.43,118.26 137.79,210.33 39.51,66.69 88.92,120.06 134.55,157.86 45.27,37.71 88.38,59.76 108,63.72 25.11,5.58 54.54,6.39 82.17,5.94 27.72,-0.36 52.92,-2.16 73.44,-0.27 2.25,0.27 4.41,0.63 6.48,1.08 15.93,3.6 29.07,13.23 37.89,26.28 8.82,13.05 13.23,30.42 9.27,48.24 -6.12,27.36 -29.7,50.31 -68.13,64.53 -35.46,13.41 -72.99,16.65 -111.42,8.1 -62.01,-13.77 -125.37,-55.62 -199.89,-127.35 -115.2,-111.42 -215.1,-294.93 -297.54,-424.62 h -0.63 c -25.38,18 -67.05,33.75 -132.66,30.69 -10.26,-0.54 -20.52,-1.89 -30.87,-4.14 -44.91,-9.99 -89.1,-35.19 -126.72,-67.68 -33.84,-29.34 -62.46,-64.53 -79.83,-101.97 -2.07,-0.45 -4.14,-0.81 -6.21,-1.35 -67.14,-14.67 -149.31,-48.33 -216.18,-123.84 -64.62,-73.44 -89.37,-168.03 -98.46,-227.88 -0.99,-0.72 -1.98,-1.44 -3.06,-2.16 -23.58,-17.46 -41.22,-37.53 -52.74,-55.89 -13.68,2.52 -26.1,1.17 -35.64,-0.9 -4.68,-1.08 -9,-2.34 -12.78,-3.69 -6.66,6.39 -13.5,12.6 -20.61,18.45 -13.14,10.98 -27.9,22.86 -44.28,32.67 -18.81,11.16 -38.88,20.97 -59.4,28.8 -22.14,8.46 -45.09,14.22 -67.95,17.82 -64.53,10.17 -120.15,5.13 -162.9,-4.23 -53.73,-11.88 -87.3,-30.42 -94.41,-34.65 -45.18,46.26 -97.29,68.31 -138.06,73.53 -23.132,2.97 -46.171,0.27 -66.78,-4.23 -4.141,-0.9 -8.281,-1.89 -12.238,-2.97 -0.543,15.39 -1.442,30.42 -2.16,45.27 -0.633,10.35 -1.082,20.61 -1.352,30.78 -0.898,35.46 1.801,71.37 4.949,108.09 1.172,13.59 3.242,27 6.66,39.24 5.313,19.53 16.11,38.7 29.25,57.6 2.7,3.96 5.219,7.56 7.563,10.62 40.228,-13.59 82.078,-14.4 122.128,-5.58 28.35,6.21 55.89,17.19 81.99,31.68 11.07,6.21 18.45,13.41 23.13,17.73 2.34,2.16 4.05,3.51 4.68,3.96 l 0.9,0.18 c -0.09,0.09 2.34,0.09 8.46,-1.89 5.85,-1.89 14.49,-5.4 25.74,-7.47 35.55,-6.3 83.25,-13.23 128.7,-5.49 2.97,0.45 5.85,1.08 8.73,1.71 33.39,7.11 66.87,24.93 86.31,59.49 12.24,21.33 13.41,44.91 8.82,65.25 -6.3,27.63 -21.33,51.66 -36.18,71.28 6.57,3.96 12.69,8.37 18.45,13.23 10.26,8.82 23.31,21.78 34.11,39.51 10.8,17.73 19.26,40.59 18.72,67.23 -0.9,36.9 -3.78,64.17 -0.54,105.93 1.35,18.36 0.27,34.56 -2.88,48.96 v 0.18 l -0.09,0.36 c -6.03,27.27 -19.8,45.9 -28.35,57.42 -10.8,14.22 -26.37,27.18 -45.81,37.08 -12.96,6.48 -27.99,11.52 -44.64,12.87 h -2.43 v 0.09 h -1.08 c -1.98,0.09 -3.87,0.09 -5.85,0 -6.03,0.81 -12.33,3.87 -22.23,11.34 -19.53,16.65 -44.37,38.25 -80.46,55.44 -18.99,9.27 -39.15,11.43 -57.06,7.47 l -0.9,-0.18 c -25.74,-6.12 -43.29,-21.51 -55.44,-33.57 -36.72,15.66 -78.75,26.73 -123.48,21.78 -2.79,-0.27 -5.49,-0.72 -8.01,-1.26 l -0.54,-0.09 c -31.859,-7.11 -48.961,-30.78 -56.519,-48.06 -1.172,-2.7 -2.25,-5.4 -3.153,-7.92 -1.437,-0.27 -4.046,-0.54 -7.289,-0.9 -11.609,0.09 -22.769,-0.81 -33.75,-3.15 h -0.179 c -12.328,-2.7 -24.032,-7.47 -34.739,-14.22 -23.043,-14.85 -34.113,-37.17 -40.589,-55.53 -2.43,-7.11 -4.321,-14.04 -5.672,-20.43 l -0.09,-0.18 -1.621,-1.26 c -8.821,-6.84 -14.219,-15.39 -20.699,-28.35 -6.391,-13.05 -13.411,-31.05 -22.051,-57.78 -6.207,-19.26 -8.367,-39.6 -8.547,-59.76 -3.152,-16.92 -8.371,-38.43 -16.652,-60.84 -24.661,-66.24 -49.321,-117 -102.598,-160.56 -57.422,-46.89 -95.043,-74.88 -185.942,-167.4 -92.429,-94.5 -135.902,-177.66 -138.332,-249.3 -0.898,-32.31 3.512,-64.35 7.383,-92.25 3.688,-25.83 6.571,-48.87 5.668,-61.83 -6.211,-17.55 -12.418,-36.27 -17.371,-54 -4.226,-15.03 -7.918,-26.55 -10.437,-37.71 -2.43,-11.07 -3.961,-22.59 -1.262,-34.92 3.332,-14.94 11.699,-26.91 22.68,-39.24 39.601,-43.56 77.402,-99.99 143.011,-129.42 6.571,-2.88 13.051,-5.4 19.442,-7.74 25.289,-83.7 70.468,-162.09 145.976,-214.47 19.442,-13.41 41.043,-28.35 64.621,-39.6 42.391,-20.25 88.832,-36.18 135.539,-44.73 30.602,-5.58 61.114,-7.47 91.172,-7.74"
         style="fill:#ffffff;fill-opacity:1;fill-rule:nonzero;stroke:none"
         id="path60"
         inkscape:connector-curvature="0" /><path
         d="m 671.672,3334.36 c 19.348,-13.41 40.047,-27.63 61.289,-37.8 40.59,-19.44 85.23,-34.65 129.508,-42.75 38.16,-7.02 76.953,-7.92 115.742,-7.11 -16.289,-85.05 -29.789,-171.63 -10.441,-260.1 3.242,-14.94 7.468,-29.88 12.781,-44.82 33.929,-95.13 86.939,-180.63 107.999,-273.15 3.87,-16.56 14.31,-46.89 19.8,-72.09 3.42,-13.95 3.96,-27.09 3.15,-28.17 -2.61,-9.36 -5.58,-18.9 -8.82,-28.89 85.23,-87.57 230.4,-207.63 425.7,-263.43 133.11,-38.07 270.54,-53.91 386.82,-59.4 0.27,0.81 0.45,1.62 0.81,2.52 9.27,26.82 43.11,64.89 74.79,103.77 29.52,36.54 59.76,67.41 82.53,88.92 11.43,10.8 20.88,19.26 27.54,25.02 3.87,3.42 6.75,5.85 8.46,7.2 12.6,5.58 73.26,32.85 145.17,74.7 80.55,47.16 175.32,112.14 232.92,188.1 20.7,27.36 39.24,55.98 55.26,85.77 3.51,-2.52 7.11,-5.04 10.89,-7.38 29.07,-17.64 69.21,-25.38 124.74,-13.14 l 0.99,0.18 c 28.98,6.39 62.37,17.91 101.7,35.91 0.18,-14.04 1.35,-31.59 5.4,-49.86 7.56,-35.01 24.48,-70.65 52.47,-93.78 21.15,-17.55 45.27,-23.85 72.09,-27.18 28.26,-3.6 55.26,-1.08 83.52,-0.9 22.5,0.18 51.93,-1.89 70.65,-15.84 28.53,-21.24 29.25,-64.62 28.8,-97.02 -3.06,-2.34 -6.03,-4.77 -8.82,-7.29 -42.39,-38.79 -75.87,-84.33 -80.01,-138.78 -4.14,-54.45 0.18,-64.89 -8.01,-91.53 -8.19,-26.55 -20.79,-48.69 -3.33,-76.32 17.46,-27.72 20.79,-27.63 32.4,-43.83 11.61,-16.2 22.59,-41.94 36.45,-46.89 l 0.81,-0.27 c -8.37,-10.62 -23.58,-37.8 -0.45,-75.96 28.17,-46.53 67.32,-45.45 94.68,-41.13 35.46,2.34 35.55,11.25 62.91,-7.83 17.01,-15.66 35.64,-29.34 54,-33.21 14.13,-2.97 26.55,-1.44 38.34,2.97 3.6,-3.6 14.49,-11.88 38.16,-14.13 28.53,-2.7 45.81,16.74 58.23,39.78 14.22,26.37 24.57,54.72 43.02,78.66 18,23.4 38.79,45.54 53.28,71.46 10.71,19.17 10.35,39.6 5.94,60.3 2.34,3.06 4.5,6.3 6.21,9.81 10.17,21.15 0.99,43.74 -9.45,62.91 -6.93,12.6 -14.04,25.11 -18.27,38.88 -6.03,19.17 -9.18,38.61 -10.98,58.23 -4.41,49.77 0.09,100.35 -11.16,149.67 -2.61,11.43 -6.03,22.77 -11.43,33.21 -2.52,4.77 -5.31,9 -8.28,13.41 l -0.63,0.99 c -127.17,473.76 -188.82,511.65 -265.59,558 -35.19,24.3 -73.26,41.04 -110.34,49.77 -40.32,13.14 -68.94,42.75 -96.03,73.89 l -0.09,-0.36 c -36.09,42.75 -81.27,74.07 -129.51,101.7 -54.63,31.41 -110.52,48.6 -173.34,54.63 -16.38,1.53 -32.85,2.52 -49.32,2.88 -26.37,0.63 -51.12,-0.09 -72.9,-1.53 -6.3,13.68 -13.23,26.91 -20.61,39.6 68.22,3.15 126.45,10.17 174.96,20.88 60.21,13.23 105.93,31.95 138.24,56.52 5.31,-2.07 10.44,-4.05 15.48,-5.67 70.2,-22.68 148.95,17.64 182.88,78.75 35.64,64.35 30.6,144.45 9.81,212.67 -11.34,37.17 -28.44,76.05 -50.58,108.09 -15.48,22.32 -33.93,44.37 -53.73,64.17 4.14,4.32 10.26,10.98 19.44,21.6 19.35,22.23 6.12,57.78 -10.98,87.21 21.24,-6.21 36.36,-18.72 36.36,-18.72 0,0 -6.93,66.78 -43.74,115.56 -28.62,37.8 -55.89,40.59 -71.73,13.86 -52.38,55.26 -75.24,41.4 -112.68,33.12 -27.54,-6.03 -50.58,-3.06 -67.41,3.42 -4.95,7.83 -10.8,15.39 -18,22.68 41.76,20.61 101.07,51.39 165.06,89.46 121.32,72.09 250.29,83.7 295.92,70.38 48.69,-14.31 96.57,-50.13 124.11,-61.83 27.63,-11.7 73.98,22.14 23.58,80.64 -50.4,58.5 -128.97,70.47 -267.66,32.58 -121.05,-33.03 -261.99,-120.06 -376.47,-184.77 -3.69,1.98 -7.65,3.96 -11.79,5.85 -52.74,24.03 -122.31,25.02 -151.29,24.3 -13.59,14.22 -27.99,24.93 -42.84,32.67 23.85,32.13 87.03,119.61 151.74,229.14 82.08,138.87 205.02,221.13 258.03,232.83 35.55,7.83 75.42,6.93 108.63,5.94 19.71,-0.54 36.99,-1.08 49.77,0.18 34.02,3.33 61.92,62.73 -20.61,93.78 -82.62,30.96 -167.94,-0.09 -286.2,-114.12 -114.93,-110.79 -217.89,-302.04 -302.31,-433.35 -7.11,1.35 -14.22,2.25 -21.33,2.7 -20.25,16.02 -55.98,32.94 -122.76,29.97 -85.59,-3.78 -189.18,-88.11 -221.49,-170.91 -66.87,-11.88 -152.73,-42.39 -221.4,-119.97 -63.63,-71.82 -87.12,-170.1 -94.14,-225.9 -3.78,-2.43 -7.56,-4.95 -11.16,-7.65 -28.71,-20.97 -47.97,-47.97 -55.26,-65.34 -1.44,0.63 -2.7,1.26 -4.23,1.89 -13.95,5.76 -27.54,4.95 -37.98,2.61 -10.98,-2.43 -19.26,-6.48 -23.4,-8.73 -9.63,10.08 -19.8,19.71 -30.51,28.53 -12.87,10.8 -26.73,21.87 -41.22,30.51 -17.55,10.44 -36.54,19.71 -55.62,27 -20.34,7.74 -41.67,13.14 -63.09,16.47 -146.43,23.13 -242.37,-36.36 -242.37,-36.36 l -15.39,-9.9 c -43.83,52.29 -98.28,75.96 -136.891,80.91 -35.731,4.5 -76.77,-7.11 -99.899,-16.92 0.719,25.92 -0.988,51.66 -2.34,77.49 -0.539,10.44 -0.992,20.97 -1.261,31.41 -0.989,37.08 1.8,73.89 5.043,110.79 1.257,14.58 3.507,29.43 7.378,43.56 6.391,23.58 18.809,44.91 32.579,64.89 5.312,7.56 10.8,15.57 17.73,21.87 0.449,0.45 1.981,1.71 3.871,2.97 64.71,-27.54 135.18,-15.93 198.18,19.17 16.02,9 22.59,21.6 33.75,24.03 0.9,0.18 1.71,0.36 2.52,0.54 13.23,2.16 25.92,-6.39 42.57,-9.45 34.65,-6.21 80.19,-12.33 120.42,-5.4 32.49,5.58 61.47,19.71 78.21,49.41 25.65,45.36 -14.67,98.28 -42.48,131.22 l -1.44,1.71 c 15.57,5.94 28.98,13.68 40.41,23.31 17.64,15.03 45.09,45.36 44.37,87.93 -0.9,35.55 -3.96,64.44 -0.54,108.18 1.26,16.47 0.27,30.24 -2.34,42.03 -4.86,22.41 -15.75,37.26 -24.3,48.78 -8.01,10.62 -21.06,21.69 -37.35,29.97 -10.71,5.31 -22.86,9.36 -35.73,10.35 h -1.8 c -2.16,0.09 -4.32,0.09 -6.48,0 -13.59,1.08 -24.66,7.74 -36.45,16.74 -19.8,16.74 -42.57,36.54 -75.78,52.47 -14.67,7.11 -29.16,8.37 -41.85,5.58 -20.07,-4.59 -34.74,-17.64 -46.17,-29.25 -10.98,-7.74 -18.63,-5.31 -23.94,-3.33 -34.47,14.85 -72.72,24.66 -111.96,20.25 -2.07,-0.18 -4.05,-0.54 -6.03,-0.99 -21.69,-4.77 -33.751,-21.06 -39.688,-34.29 -1.172,-2.61 -2.16,-5.22 -2.973,-7.65 -6.93,-14.94 -15.391,-13.68 -27.988,-15.48 -11.071,0.18 -20.879,-0.63 -30.153,-2.61 -9.718,-2.07 -18.718,-5.76 -27.089,-11.07 -16.289,-10.26 -25.2,-27.09 -30.778,-43.11 -2.34,-6.75 -4.051,-13.41 -5.312,-19.71 -3.328,-8.1 -4.5,-9.09 -10.348,-13.41 -7.293,-5.49 -17.371,-22.32 -34.383,-74.34 -5.308,-16.56 -7.379,-35.46 -7.379,-54.63 -3.238,-18.27 -8.82,-41.94 -18.089,-66.96 -24.93,-67.14 -51.93,-123.57 -109.891,-170.82 -57.957,-47.34 -93.598,-73.62 -183.957,-165.6 -90.363,-92.07 -129.781,-171.36 -131.582,-233.19 -1.621,-59.22 16.648,-123.12 12.691,-158.67 -6.39,-18 -12.871,-37.35 -17.91,-55.17 -13.769,-49.14 -20.609,-59.85 5.848,-89.37 40.859,-45.54 77.133,-98.01 134.82,-123.48 9.539,-4.23 19.441,-7.74 29.34,-11.07 l 0.09,-0.27 c 23.492,-84.69 66.871,-162.45 139.953,-213.03"
         style="fill:#231f20;fill-opacity:1;fill-rule:nonzero;stroke:none"
         id="path62"
         inkscape:connector-curvature="0" /><path
         d="m 2805.49,2934.95 -0.01,-0.01 0.01,0.01"
         style="fill:#008350;fill-opacity:1;fill-rule:nonzero;stroke:none"
         id="path64"
         inkscape:connector-curvature="0" /><path
         d="m 1058.95,3338.14 c 33.9,-8.56 68.53,-15.03 103.47,-17.27 52.2,-3.37 94.89,19.18 115.63,68.51 24.23,57.54 66.51,123.65 66.51,123.65 0,0 -31.39,-66.8 -30.09,-135.62 1.34,-70.28 10.08,-139.75 13.34,-209.85 0.07,-1.25 0.06,-2.49 0.09,-3.74 -1.09,10.56 -5.43,25.46 -19.52,38.7 -18.92,17.78 -44.21,34.97 -52.49,60.82 -1.65,5.2 -1.71,9.87 -5.36,14.21 -15.87,18.86 -53.72,15 -75.77,15.81 -28.51,1.02 -58.99,0.42 -84.65,14.78 -29.67,16.61 -45.82,26.78 -102.59,26.59 0,0 48.65,9.16 71.43,3.41 z m 60.81,-88 c -2.53,1.44 -9.39,0.42 -12.15,0.53 -10.62,0.39 -21.22,0.6 -31.83,0.42 -20.26,-0.36 -40.49,-2.07 -60.72,-3.15 -4.01,-20.71 -7.81,-41.28 -11.07,-61.69 -11.185,-85.4 -9.779,-199.62 92.14,-226.95 132.19,-35.45 324.74,66.76 424.45,193.1 97.55,123.63 180.3,340.97 166.36,442.84 -11.87,20.04 -27.66,43.11 -47.71,65.49 -52.9,59.01 -143.71,115.84 -143.71,115.84 0,0 60.61,-23.38 107.4,-52.78 -55.63,63 -104.04,119.26 -225.31,142.06 -113.24,21.28 -186.38,-33.79 -209.83,-55.18 33.15,-50.37 41.57,-62.88 62.6,-78.54 0,0 -47.79,21.74 -76.02,52.4 -28.25,30.65 -53.7,69.59 -128.46,102.31 -69.728,30.51 -109.291,8.89 -131.337,-1.66 -0.454,-3 -0.903,-6.01 -1.45,-9 -9.453,-51.54 -39.937,-100.58 -81.187,-132.87 -17.129,-13.42 -37.395,-24.35 -58.266,-32.66 -1.07,-7.6 -1.148,-16.21 0.063,-24.92 2.715,-19.37 24.207,-82.22 24.207,-82.22 0,0 -46.953,25.01 -55.508,56.91 -4.461,16.66 -2.844,30.42 -0.281,39.81 -22.817,-6.03 -46.438,-9.45 -70.051,-9.2 -26.582,0.28 -46.094,9.07 -70.606,16.74 64.161,-20.06 142.676,9.34 191.817,49.71 60.344,49.56 79.14,117.88 83.547,193.22 2.664,45.89 -1.985,93.09 2.578,138.71 7.312,73.14 20.215,147.37 71.355,202.03 -5.715,5.76 -7.011,14.83 -2.566,22.04 5.215,8.47 16.297,11.12 24.765,5.9 33.836,-20.86 75.89,-35.11 115.94,-28.02 44.26,7.83 74.67,45.18 118.02,54.86 1.39,0.29 2.86,0.6 4.35,0.83 19.5,3.39 35.94,0.79 52.79,-2.26 52.95,-9.6 186.98,-23.69 158.76,69.64 -3.89,12.91 -11.19,24.43 -19.64,34.82 -4.4,5.41 -15.07,19.77 -24.1,27.47 -10.48,-1.92 -21.56,-2.59 -31.65,-2.62 1.26,-10.87 2.74,-22.39 7.2,-28.46 5.83,-7.93 22.83,-24.68 22.83,-24.68 0,0 -9.46,-8.21 -27.88,1.04 -18.43,9.27 -30.63,32.18 -28.74,46.93 0.31,2.48 0.83,4.47 1.42,6.27 -5.53,0.48 -9.04,0.94 -9.23,0.94 l -0.1,0.02 c -10.64,-5.66 -32.19,-14.94 -45.1,-19.9 -4.87,-1.87 -8.89,-3.2 -12.63,-4.26 -0.48,-6.78 0.66,-14.69 1.57,-17.56 1.94,-6.07 5.38,-11.6 9.53,-16.52 3.11,-3.69 6.62,-7.05 10.2,-10.06 17.48,-14.66 40.36,-23.99 63.23,-24.88 -37.46,-11.61 -77.92,-6.6 -99.26,29.26 -1.4,2.36 -11.11,24.69 -11.16,34.01 l -0.72,-0.15 c -15.75,-3.47 -31.81,-2.01 -42.47,-2.42 -10.66,-0.43 -32.6,-10.62 -45.56,-14.62 -12.92,-4 -33.6,-4.31 -48.64,1.21 -15.04,5.52 -23.81,10.5 -41.65,16.57 -17.83,6.06 -22.82,0.74 -57.712,18.03 -34.89,17.29 -34.199,42.01 -34.199,42.01 11.875,-5.06 34.785,-2.73 47.519,3.92 9.864,5.13 18.422,13.93 22.832,25.15 -9.492,-2.81 -20.476,-9 -48.613,-7.39 -31.875,1.82 -37.922,29.29 -37.922,29.29 0,0 25.52,-7.84 45.266,-5.03 10.312,1.47 18.035,7.2 21.25,10.72 -15.039,2.93 -35.84,8.72 -57.637,30.81 -28.652,29.03 -41.054,81.98 -41.054,81.98 0,0 31.726,-48.32 63.945,-67.35 25.578,-15.1 26.34,-8.03 26.34,-8.03 -3.235,11.19 -6.731,13.12 -8.762,46.84 -2.031,33.72 8.445,37.3 8.445,37.3 3.176,-23.87 22.542,-70.55 39.652,-83.17 17.11,-12.63 22.34,-10.84 34.75,-3.88 0,0 5.86,-41.84 14.19,-56.4 8.31,-14.55 23.79,-32.53 23.79,-32.53 0,0 -3.81,-5.95 -16.15,3.62 -12.34,9.58 -24.26,17.2 -24.26,17.2 0,0 -0.34,-30.68 29.84,-42.59 15,-5.92 33.78,-11.01 54.13,-5.77 20.34,5.24 31.35,26.86 35.24,45.76 0.34,1.65 0.77,3.11 1.23,4.48 6.04,30.88 7.31,66.49 4.07,79.96 -0.22,1.01 -0.46,1.87 -0.65,2.44 -5.74,17.29 -13.5,34.57 -29.04,68.02 -5.33,11.47 -9.03,23.56 -12.03,35.8 -2.97,12.08 -4.78,24.82 -10.27,36.1 -6.77,13.92 -20.28,23.22 -33,31.11 -13.28,8.24 -27.52,14.29 -42.44,18.86 -18.47,5.67 -37.63,7.8 -56.716,10.22 -17.605,2.22 -35.488,3.73 -53.191,1.8 -9.856,-1.08 -19.438,-3.96 -27.871,-9.24 -22.102,-13.82 -28.918,-40.59 -32.871,-64.72 -1.973,-12.05 -4.18,-25.46 -1.516,-37.57 -0.117,0.51 -7.344,7.11 -12.48,16.89 -8.235,-25.69 -19.668,-47.35 -26.29,-84.98 -7.175,-40.73 -8.339,-80.92 -3.835,-108.34 4.5,-27.43 8.945,-37.2 8.945,-37.2 0,0 -6.66,2.38 -16.445,29.41 -2.715,7.49 -5.911,18.91 -8.762,32.5 -9.485,-59.77 -33.211,-115.74 -77.102,-159.21 -31.179,-30.89 -70.32,-52.25 -102.808,-81.66 -34.59,-31.29 -52.012,-94.1 -52.012,-94.1 0.809,34.73 10.066,61.34 10.066,61.34 -26.339,-23.45 -78.523,-74.85 -121.093,-125.67 -42.586,-50.83 -73.907,-127.33 -76.7,-180.94 -1.496,-28.32 3.711,-48.66 8.965,-61.62 2.168,10.77 4.883,24.15 9.739,41.68 7.71,27.8 18.503,48.6 18.503,48.6 0,0 -5.886,-15.12 -6.777,-46.02 -0.879,-30.91 -3.445,-82.16 -11.68,-128.51 -8.261,-46.35 -22.011,-81.63 -22.707,-106.35 -0.496,-17.34 8.703,-28.96 21.313,-39.49 33.594,-28.09 63.543,-62.72 99.988,-87.14 15.215,-10.19 32.649,-16.26 49.063,-24.17 19.636,-9.47 38.535,-20.65 55.144,-34.81 14.199,-12.08 33.078,-25.74 42.656,-42.12 -1.914,0.49 -3.582,1.69 -5.281,2.91 -45.644,32.98 -66.789,31.4 -98.496,42.86 l -1.379,0.48 c 21.145,-38.5 80.676,-137.56 156.985,-184.37 95.847,-58.79 203.984,-82.63 288.105,-81.04 84.12,1.59 99.71,-13.41 117.26,-23.38"
         style="fill:#a7a5a6;fill-opacity:1;fill-rule:nonzero;stroke:none"
         id="path66"
         inkscape:connector-curvature="0" /><path
         d="m 1136.95,4778.14 c 10.81,-11.7 14.3,-26.1 17.84,-40.59 3.46,-14.64 6.67,-30.03 13.75,-45.2 15.51,-33.45 23.73,-51.56 30.09,-70.63 0.47,-1.5 0.9,-3.09 1.27,-4.8 5.21,-25.25 1.55,-76.22 -10.29,-115.05 -3.57,-11.41 -7.76,-21.01 -13.12,-29.05 6.83,0.36 12.95,1.1 18.23,2.25 18.21,4.14 28.05,11.77 36.63,22.15 8.5,10.41 14.9,24.12 23.29,38.5 17.77,30.22 26.44,60.26 26.65,84.23 0.05,5.93 -0.57,11.14 -1.69,16.31 -3.14,14.86 -11.63,30.16 -20.23,54.47 -3.07,8.73 -5.32,17.54 -7.23,26.25 -2.42,11.09 -4.34,22.03 -6.64,32.44 -2.89,13.2 -6.39,25.54 -11.88,36.5 -13.86,28.63 -54.21,50.53 -86.76,65.72 -35.41,16.88 -74.15,28.05 -111.76,23.79 -1.21,-0.13 -2.35,-0.32 -3.48,-0.56 -10.42,-2.34 -16.59,-8.95 -21.2,-17.19 -4.45,-8.11 -6.26,-17.24 -6.69,-20.47 l -0.06,-0.37 c 5.47,-0.67 11.18,-1.4 17.25,-2.18 64.22,-8.34 99.12,-38.44 116.03,-56.52"
         style="fill:#a7a5a6;fill-opacity:1;fill-rule:nonzero;stroke:none"
         id="path68"
         inkscape:connector-curvature="0" /><path
         d="m 1384.53,4684.52 c 5.56,-30.09 7.85,-54.86 8.91,-78.58 0.52,-12.2 0.1,-23.47 -4.2,-34.74 -4.28,-11.25 -12.06,-21.4 -23.92,-32.19 -11.3,-10.3 -30.05,-26.04 -49.15,-40.11 l -0.71,-0.51 2,-0.09 c 12.33,-0.5 27.98,-0.15 39.86,2.5 26,5.72 45.4,14.82 60,27.12 15.15,12.66 36.86,38.21 35.84,68.99 -0.83,34.25 -4.02,64.86 -0.47,110.64 1.1,14.47 0.19,25.75 -1.84,34.99 -3.9,17.5 -11.58,28.1 -20.15,39.64 -4.95,6.76 -15.95,16.46 -28.85,22.84 -10.05,5.06 -21.05,8.13 -31.58,7.92 3.14,-5.98 5.68,-12.52 7.27,-20.06 1.24,-5.74 2.06,-11.91 2.49,-18.68 1.98,-33.51 -0.65,-62.35 4.5,-89.68"
         style="fill:#a7a5a6;fill-opacity:1;fill-rule:nonzero;stroke:none"
         id="path70"
         inkscape:connector-curvature="0" /><path
         d="m 1255.09,4796.68 c 6.86,-13.75 10.76,-28.09 13.87,-42.11 2.42,-11.1 4.33,-22.02 6.63,-32.43 1.8,-8.19 3.81,-16.04 6.41,-23.46 7.75,-22.3 16.59,-37.58 21.04,-57.27 1.49,-6.74 2.34,-13.93 2.25,-21.71 -0.35,-29.38 -10.49,-62.87 -29.96,-96.13 -5.81,-9.83 -11.09,-20.79 -18.1,-31.46 l 0.69,0.14 c 6.84,1.14 26.14,12.56 44.02,25.98 18.23,13.42 36.66,28.89 47.21,38.52 10.3,9.43 15.14,16.39 17.68,23 2.52,6.63 3.12,14.01 2.63,25.13 -1.02,22.93 -3.17,46.33 -8.54,75.27 -5.78,31.71 -2.85,61.42 -4.85,92.56 -0.33,5.76 -1.02,10.71 -1.98,15.02 -4.07,17.63 -11.71,25.87 -28.03,39.57 -23.03,19.08 -45.26,40.42 -80.04,57.09 -10.51,4.96 -18.6,5.39 -26.32,3.77 -13.8,-2.83 -27.12,-14.89 -38.44,-26.88 28.09,-14.76 58.33,-34.49 73.83,-64.6"
         style="fill:#a7a5a6;fill-opacity:1;fill-rule:nonzero;stroke:none"
         id="path72"
         inkscape:connector-curvature="0" /><path
         d="m 1830.33,3636.68 c 91.39,-24.45 287.94,-24.26 361.48,-23.45 -32.19,-12.51 -66.17,-20.19 -100.32,-24.9 -40.61,-5.61 -82.52,-7.31 -123.46,-5.49 -23.5,1.04 -46.97,3.1 -70.34,5.88 11.48,-8.56 25.99,-18.16 44.11,-28.06 60.55,-33.09 160.88,-69.52 318.84,-80.35 194.39,-13.35 338.9,-6.57 437.68,15.18 48.51,10.62 85.8,24.92 112.59,41.53 -50.73,25.14 -108.9,64.07 -163.05,102.34 -84.29,18.94 -181.36,34.7 -332.74,34.76 -116.49,0.04 -234.91,-0.89 -350.03,19.22 -45.92,8.02 -91.98,19.08 -136.07,34.33 -22.49,7.77 -62.71,20.38 -64.89,49.58 -2.37,31.73 17.03,48.28 17.03,48.28 0,0 -4.7,-23.28 8.28,-36.09 46.95,43.32 115.96,91.03 261.12,132.07 l 0.25,0.14 0.15,-0.02 0.83,0.24 c 148.97,41.96 337.42,-11.85 466.22,-101.8 0,0 -96.64,38.42 -211.51,62.64 143.34,-57.89 374.79,-227.3 461.87,-284.06 50.75,-33.06 105.22,-57.02 158.16,-46.28 31.73,34.14 91.28,131.35 1.04,325.97 0,0 72.94,-112.98 70.13,-202.67 -1.97,-62.31 -12,-87.85 -25.39,-104.42 7.61,4.88 15.16,10.64 22.61,17.43 58.83,53.64 40.67,153.74 17.87,219.8 -37.2,107.75 -114.6,192.37 -199.85,265.31 9.22,-4.84 18.47,-9.81 27.66,-14.97 4.68,2.41 13.04,9.9 2.62,30.84 -13.77,27.7 -25.78,40.41 -25.78,40.41 0,0 37.39,-16.36 48.11,39.76 l 0.19,0.89 c -20.66,21.17 -52.3,43.73 -92.04,37.28 -28.28,-4.59 -47.55,-6.73 -61.98,-4.68 3.85,-12 6.05,-23.47 7.38,-33.43 4.82,-35.81 -0.24,-33.84 -29.25,7.39 -28.09,39.9 -59.04,99.29 -177.04,92.9 4.76,-8.47 9.33,-17.59 13.67,-27.44 88.85,-201.63 194.15,-184.62 231.89,-125.65 0,0 -36.31,-143.73 -147.61,-95.97 -5.06,-11.24 -12.55,-23.19 -23.21,-30.37 5.01,-1.09 10.01,-2.15 14.97,-3.13 77.08,-15.31 116.14,-11.34 116.14,-11.34 0,0 0,0 -47.21,-8.84 -47.2,-8.83 -153.59,0.04 -249.17,29.71 -95.61,29.67 -260.12,93.34 -321.58,107.48 -61.47,14.13 -164.41,-34.6 -164.41,-34.6 l 0.17,6.18 c 64.57,63.77 137.67,71.43 207.92,58.52 0.2,23.35 9.06,65.17 53.9,91.94 40.48,24.16 82.95,39.13 123.01,40.07 -44.31,31.72 -84.21,47.02 -124.3,35.67 19.92,15.82 53.95,37.19 93.69,50.73 -30.08,3.53 -61.24,-5.14 -124.25,-37.48 -99.36,-51.02 -146.13,-145.76 -146.13,-145.76 -0.3,5.54 -0.13,11.19 0.45,16.92 -60.41,-15.03 -113.05,-39.15 -174.71,-104.38 -54.34,-57.47 -81.47,-130.85 -91.31,-181.8 7.34,3.3 14.59,6.25 21.5,8.81 39.39,19 69.77,19.41 69.77,19.41 -7.12,-0.08 -19.98,-9.72 -26.17,-12.99 -19.99,-10.56 -52.45,-28.96 -68.66,-44.71 -37.59,-36.53 -87.76,-96.37 -70.82,-154.45 15.54,-53.23 104.96,-67.97 149.98,-80.03"
         style="fill:#a7a5a6;fill-opacity:1;fill-rule:nonzero;stroke:none"
         id="path74"
         inkscape:connector-curvature="0" /><path
         d="m 3407.71,2109.82 c -4.52,-5.37 -8.87,-10.88 -13.12,-16.48 0.33,-9.13 0.08,-24.25 -3.87,-37.7 -6.15,-20.92 -18.77,-54.41 -42.62,-71.57 -2.46,-1.76 -4.88,-3.44 -7.29,-5.08 1.23,-0.33 2.43,-0.71 3.68,-0.94 26.79,-5.05 42.18,22.19 50.71,43.24 3.29,8.16 6.54,16.33 9.87,24.46 4.67,11.33 9.35,22.86 15.68,33.38 7.32,12.17 17.81,21.82 27.56,31.96 15.39,15.97 29.95,33.66 39.31,53.91 2.1,4.58 3.97,9.45 5.04,14.38 l 0.13,1.52 c -9.36,-7.48 -19.57,-14.15 -28.39,-20.68 -20.51,-15.21 -40.12,-30.81 -56.69,-50.4"
         style="fill:#008350;fill-opacity:1;fill-rule:nonzero;stroke:none"
         id="path76"
         inkscape:connector-curvature="0" /><path
         d="m 3447.54,2430.22 c -1.8,26.73 -4.32,66.06 -7.74,86.31 -3.42,20.25 -7.92,33.57 -10.89,38.07 -2.79,4.05 -5.13,6.21 -7.65,13.68 l -0.09,0.45 -0.54,1.71 c -3.87,12.42 -23.94,77.13 -51.39,155.34 -30.51,87.03 -70.02,190.8 -105.57,256.68 -70.47,130.86 -205.47,185.31 -300.51,166.77 -1.53,-0.27 -3.15,-0.63 -4.68,-0.99 -91.26,-19.98 -135.63,-101.07 -153,-213.3 l 0.09,8.01 c 0.99,21.69 2.34,43.38 5.04,64.89 3.78,29.07 10.17,59.22 24.3,85.14 7.83,14.22 18.54,26.73 30.33,37.8 28.44,26.82 62.91,37.71 98.91,45.54 2.25,0.54 4.5,1.08 6.84,1.53 2.25,0.45 4.5,0.81 6.75,1.17 -1.35,2.61 -2.7,5.31 -4.05,7.92 -36.45,62.82 -92.97,101.43 -186.21,145.44 -59.31,28.44 -149.13,30.87 -217.89,25.83 8.91,-25.38 16.29,-51.66 22.23,-78.48 24.93,-114.03 24.3,-236.7 6.57,-331.29 -7.2,-38.52 -18.72,-75.15 -33.66,-110.16 9.45,-9.36 20.07,-17.55 32.31,-23.31 24.21,-11.34 52.83,-9.27 78.48,-4.68 44.55,7.83 85.95,25.65 127.44,42.93 1.62,0.45 3.15,0.72 4.5,0.9 -2.7,-0.27 9.63,-75.87 11.16,-82.71 6.12,-26.91 16.11,-51.84 34.92,-72.45 30.24,-33.12 83.34,-39.24 125.73,-37.8 36.18,1.35 77.31,6.3 109.44,-15.48 10.08,-6.93 17.1,-16.83 22.14,-28.08 7.74,-17.1 10.98,-37.26 13.86,-54.09 0.27,-1.8 1.89,-11.43 3.33,-20.88 38.88,16.56 80.01,20.79 80.01,20.79 -33.39,-16.02 -91.35,-44.82 -123.3,-88.02 -32.04,-43.2 -52.92,-79.29 -57.24,-90.27 -4.23,-10.98 -3.69,-19.53 -0.9,-38.34 2.79,-18.81 2.79,-30.87 -0.54,-52.38 -3.33,-21.51 -9.72,-38.25 -12.78,-48.33 -3.15,-10.08 -2.25,-20.61 5.31,-27.63 7.65,-7.02 17.37,-14.94 24.12,-27.54 6.84,-12.51 7.02,-27.27 22.5,-33.93 15.57,-6.66 21.15,-6.03 30.15,-7.38 7.2,-1.08 -9.36,-7.74 -21.87,-7.29 l 0.27,-2.07 c 5.76,-4.23 18.63,-10.44 50.85,-10.98 42.03,-0.81 66.15,27.18 75.69,41.58 9.54,14.4 4.95,26.46 1.71,37.62 -2.79,9.72 -5.58,13.95 -9.18,19.08 -2.97,-0.72 -6.48,-1.53 -10.26,-2.25 -9.63,-1.71 -9.45,3.24 -0.99,11.34 8.91,8.46 23.94,18.72 51.75,49.32 27.54,30.42 41.85,61.47 41.85,61.47 0.63,-27.54 -11.25,-48.6 -28.53,-71.19 -16.92,-22.05 -33.03,-34.02 -43.2,-42.03 9.54,-10.08 31.68,-28.62 61.65,-33.39 33.48,-5.31 59.31,1.17 75.06,13.41 0,0 -2.25,-19.71 -29.34,-25.65 -8.19,-1.8 -15.03,-2.79 -20.43,-3.33 2.07,-2.61 5.22,-6.12 9,-9.18 7.02,-5.76 18.36,-8.64 18.36,-8.64 0,0 -27.09,6.39 -42.39,11.07 -11.97,3.78 -21.06,7.92 -32.67,13.14 -4.77,-4.05 -14.04,-12.6 -22.95,-23.49 -12.78,-15.39 -20.88,-43.29 -27.9,-70.56 0,0 1.26,23.67 4.95,43.2 -31.77,-35.01 -88.29,-34.83 -112.14,-29.16 -1.08,0.27 -2.07,0.54 -3.06,0.9 -1.26,-16.74 -1.08,-33.48 2.43,-45.18 4.14,-13.68 14.85,-32.4 45.54,-34.11 23.58,-1.35 41.04,3.06 47.97,5.13 -8.64,9.18 -12.33,11.79 -21.42,13.77 -4.05,0.81 25.83,-0.54 40.68,-10.35 14.85,-9.72 34.38,-23.49 65.07,-40.95 30.69,-17.46 69.57,-12.69 89.73,14.4 15.3,20.52 21.24,40.5 24.3,52.92 -5.04,-6.84 -10.08,-13.68 -15.3,-20.25 1.8,5.4 4.14,10.8 6.39,16.11 9.54,22.14 22.05,43.02 38.61,60.57 19.44,20.61 42.3,37.44 62.46,57.33 16.74,16.47 27.81,33.84 22.5,58.14 -5.22,23.58 -19.62,43.11 -32.85,62.73 -4.14,6.12 -26.55,35.28 -16.83,42.75 -0.09,-3.42 0.45,-5.22 1.44,-7.47 3.06,-7.02 8.01,-13.95 18.63,-27 0.81,-1.08 1.62,-1.98 2.34,-2.88 -5.76,13.32 -8.91,30.06 -11.79,50.22 -3.24,23.22 -2.16,45.09 -3.96,71.82"
         style="fill:#a7a5a6;fill-opacity:1;fill-rule:nonzero;stroke:none"
         id="path78"
         inkscape:connector-curvature="0" /><path
         d="m 1844.19,3596.02 c -3.64,0.48 -7.33,0.96 -11.15,1.45 20.89,-43.29 74.25,-117.41 198.93,-151.45 168.29,-45.94 283.53,-25.23 308.93,-15.03 10.55,4.23 20.11,9.3 27.69,13.79 -34.8,1.12 -71.42,2.96 -110,5.59 -277.24,18.8 -387.29,116.13 -414.4,145.65"
         style="fill:#a7a5a6;fill-opacity:1;fill-rule:nonzero;stroke:none"
         id="path80"
         inkscape:connector-curvature="0" /><path
         d="m 2805.48,2934.94 v 0 l 0.01,0.01 z"
         style="fill:#918f90;fill-opacity:1;fill-rule:nonzero;stroke:none"
         id="path82"
         inkscape:connector-curvature="0" /><path
         d="m 2342.92,4101.52 c 5.28,0.53 10.68,1.37 16.11,2.34 13.78,-10.76 34.39,-24.94 60.14,-36.75 48.68,-22.31 89.41,-36.4 89.41,-36.4 0,0 -64.96,49.81 -99.95,87.88 9.5,4.01 18.58,8.55 26.77,13.69 6.04,3.8 13.9,9.28 20.11,15.9 -30.12,28.53 -57.75,54.96 -83.62,77.73 -57.51,16 -118.45,3.23 -165.2,-35.86 -1.85,-1.55 -26.9,-24.11 -23.54,-27.37 40.12,-38.66 103.89,-66.8 159.77,-61.16"
         style="fill:#868484;fill-opacity:1;fill-rule:nonzero;stroke:none"
         id="path84"
         inkscape:connector-curvature="0" /><path
         d="m 2935.41,4060.74 c -1.18,12.9 -2.75,23.8 -4.21,32.32 -1.07,-0.04 -2.14,-0.03 -3.21,-0.12 -24.69,-2.15 -32.84,-8.47 -37.12,-17.28 l -5.67,-19.17 c -1.29,-8.98 -0.79,-18.49 -0.3,-23.86 8.66,-5.8 17.16,-11.85 25.33,-18.23 9.89,6.98 27.35,22.79 25.18,46.34"
         style="fill:#868484;fill-opacity:1;fill-rule:nonzero;stroke:none"
         id="path86"
         inkscape:connector-curvature="0" /><path
         d="m 2273.83,4172.36 c 20.9,8.43 34.63,23.21 30.67,33.01 -3.93,9.81 -24.08,10.91 -44.97,2.47 -20.89,-8.43 -34.62,-23.21 -30.67,-33.01 3.96,-9.8 24.09,-10.91 44.97,-2.47"
         style="fill:#ffffff;fill-opacity:1;fill-rule:nonzero;stroke:none"
         id="path88"
         inkscape:connector-curvature="0" /><path
         d="m 2919.07,4081.06 c -3.12,1.91 -8.98,-1.84 -13.11,-8.38 -4.11,-6.53 -4.95,-13.4 -1.82,-15.29 3.1,-1.92 8.96,1.84 13.09,8.38 4.12,6.54 4.94,13.39 1.84,15.29"
         style="fill:#ffffff;fill-opacity:1;fill-rule:nonzero;stroke:none"
         id="path90"
         inkscape:connector-curvature="0" /><path
         d="m 2215.03,3873.27 c -85.74,17.11 -152.59,12.04 -200.44,2.91 -6.48,-12.42 -7.74,-31.72 -3.39,-44.36 98.81,-1.32 240.55,-18.7 341.9,-51.06 0,0 -175.09,28.39 -375.97,17.04 -19,-14.18 -41.96,-40.02 -52.61,-66.15 76.46,-13.99 128.23,-22.69 308.5,-26.43 154.08,-3.2 287.35,-8.85 355.3,-23.18 -12.58,9.08 -24.61,17.76 -35.92,25.8 -87.38,62.19 -220.11,142.06 -337.37,165.43"
         style="fill:#ffffff;fill-opacity:1;fill-rule:nonzero;stroke:none"
         id="path92"
         inkscape:connector-curvature="0" /><path
         d="m 3234.78,3075.61 -88.83,-197.37 c -15.93,131.85 -27.45,226.98 -27.45,226.98 -1.62,13.59 -11.79,24.48 -25.29,27 0,0 -84.69,15.93 -125.28,23.22 -41.49,7.38 -131.94,20.52 -132.12,20.52 -9.45,1.35 -18.99,-1.62 -26.01,-8.19 -4.59,-4.41 -7.65,-9.99 -9,-16.02 l -26.19,-96.12 c -14.49,19.62 -32.13,38.61 -53.28,55.71 -31.32,25.29 -69.84,51.48 -117.36,71.37 -47.52,19.98 -104.04,33.48 -170.46,33.93 -1.08,0 -2.16,0 -3.42,0 -116.28,0.27 -210.87,-44.1 -268.92,-117.99 -22.05,-27.99 -37.89,-56.97 -47.88,-87.3 -0.99,-2.88 -1.8,-5.76 -2.61,-8.64 -8.19,30.42 -22.14,58.68 -43.38,92.97 -25.29,40.77 -63.9,68.76 -103.77,87.93 -40.14,19.17 -81.99,29.7 -117.36,33.75 -15.75,1.8 -32.13,2.52 -49.05,2.52 -59.31,-0.09 -126.54,-8.73 -196.65,-16.11 -91.08,-9.54 -176.49,-20.43 -176.67,-20.43 -14.58,-1.89 -25.92,-13.77 -27.18,-28.53 l -18.54,-223.74 -3.24,9.99 c -2.34,13.5 -5.94,26.1 -10.71,37.89 -9.27,23.04 -22.68,42.48 -37.98,59.85 -18.81,21.15 -44.46,40.23 -75.15,55.08 -30.78,14.76 -66.69,25.2 -105.57,27.54 -8.82,0.45 -17.55,0.72 -26.19,0.72 -117.9,0 -218.611,-47.61 -304.74,-108.45 -47.07,-33.3 -93.871,-81.54 -130.051,-137.97 -35.91,-56.43 -61.469,-121.32 -61.558,-188.1 0,-3.96 0.089,-7.92 0.269,-11.97 2.879,-61.29 18.18,-116.46 44.731,-167.13 22.5,-43.11 52.828,-82.89 89.82,-122.13 l 204.93,-263.79 c 2.879,-13.77 4.32,-28.35 4.32,-43.2 0.09,-33.39 -7.383,-67.77 -20.25,-96.12 -9.723,11.16 -103.41,120.06 -108.723,126.99 -0.898,1.17 -1.886,2.25 -2.879,3.24 -0.718,0.9 -1.621,1.8 -2.519,2.61 -1.262,1.08 -2.61,2.07 -3.961,2.97 l -2.969,1.71 c -6.66,3.33 -14.398,4.23 -21.781,2.25 -0.27,0 -104.848,-27.18 -166.59,-45.63 -61.738,-18.45 -128.609,-42.12 -128.879,-42.12 -10.262,-3.69 -17.91,-12.42 -20.16,-23.04 -0.09,-0.27 -5.762,-27 -11.43,-61.56 -5.761,-34.65 -11.609,-76.59 -11.699,-110.07 0,-8.37 0.359,-16.29 1.438,-24.03 6.66,-49.5 23.761,-93.69 52.472,-129.33 12.418,-15.48 27,-29.16 43.469,-40.95 l 592.11,-382.95 0.18,-0.18 c 34.56,-22.41 73.62,-37.35 120.15,-37.35 h 0.99 c 13.23,0 26.91,1.17 41.4,3.33 64.44,9.81 114.12,34.38 160.65,66.51 37.71,26.1 64.08,56.52 74.88,70.02 l 41.67,-55.26 c 5.67,-7.56 14.58,-11.88 23.94,-11.88 1.62,0 3.24,0.18 4.95,0.45 0,0 10.98,1.8 26.28,4.32 15.39,2.52 35.19,5.67 52.56,8.1 17.28,2.52 43.11,5.85 64.53,8.46 21.42,2.7 38.43,4.68 38.43,4.68 9.54,1.17 17.91,6.75 22.59,15.12 2.07,3.69 3.24,7.74 3.6,11.88 l 0.18,-0.09 7.2,212.4 c 16.92,1.71 37.8,3.87 49.95,5.13 23.13,2.43 54.45,7.11 88.2,22.32 18.45,6.84 35.1,16.83 49.77,27.72 6.3,4.5 10.98,8.37 14.49,11.7 l 0.18,0.18 c 17.91,15.57 31.77,31.59 40.59,42.93 0,-16.47 0,-47.16 0,-81.54 0,-44.82 25.74,-109.53 47.34,-139.86 0.72,-1.17 1.53,-2.25 2.34,-3.33 0.36,-0.45 7.83,-9.72 18.9,-21.6 11.16,-11.97 25.56,-26.37 41.49,-37.71 26.91,-19.17 91.35,-63.36 185.04,-64.08 1.26,0 2.52,0 3.87,0 h 0.18 c 43.47,0 76.14,6.12 101.52,15.48 25.38,9.27 43.11,22.05 55.35,31.86 25.47,19.98 39.96,38.61 52.02,57.33 1.35,2.07 2.61,4.23 4.86,8.01 4.05,6.75 10.53,17.82 18.9,32.04 3.96,-16.2 16.11,-52.65 50.31,-94.86 29.88,-36.9 60.66,-64.08 91.44,-84.78 1.26,-1.17 2.61,-2.34 4.05,-3.42 1.53,-0.9 41.94,-28.62 100.8,-47.25 37.8,-11.97 69.39,-16.74 95.94,-16.74 14.22,0 26.91,1.35 38.25,3.69 15.12,2.97 28.35,7.29 41.22,13.5 12.87,6.21 25.11,13.86 41.13,24.21 27.36,17.55 419.67,273.15 535.32,348.75 30.78,20.16 58.68,39.78 79.56,66.33 33.39,42.48 51.03,103.23 51.12,175.86 0,26.82 -2.43,55.26 -7.65,85.14 -9,52.2 -54.27,316.98 -97.2,568.62 -21.51,125.82 -42.39,248.4 -57.96,339.48 -7.74,45.54 -14.13,83.25 -18.63,109.53 -4.5,26.37 -7.02,41.22 -7.02,41.22 -2.07,11.79 -10.71,21.51 -22.14,24.84 -0.09,0 -69.03,19.98 -127.44,35.91 -59.13,16.2 -134.46,32.94 -134.73,33.03 -9.99,2.25 -20.43,-0.63 -27.99,-7.56 -3.24,-2.97 -5.67,-6.48 -7.38,-10.35"
         style="fill:#5a5758;fill-opacity:1;fill-rule:nonzero;stroke:none"
         id="path94"
         inkscape:connector-curvature="0" /><path
         d="m 1444.31,1309.29 v 0 c 1.76,1.1 3.52,2.23 5.29,3.4 v 0 c -1.77,-1.17 -3.53,-2.3 -5.29,-3.4"
         style="fill:#504d4d;fill-opacity:1;fill-rule:nonzero;stroke:none"
         id="path96"
         inkscape:connector-curvature="0" /><path
         d="m 1996.81,1635.31 v 0 c 0.78,0.46 1.54,0.92 2.27,1.38 v 0 c -0.73,-0.46 -1.49,-0.92 -2.27,-1.38"
         style="fill:#504d4d;fill-opacity:1;fill-rule:nonzero;stroke:none"
         id="path98"
         inkscape:connector-curvature="0" /><path
         d="m 1989.27,1630.93 c 1.43,0.83 2.86,1.6 4.19,2.41 v 0 c -1.33,-0.81 -2.76,-1.58 -4.19,-2.41"
         style="fill:#504d4d;fill-opacity:1;fill-rule:nonzero;stroke:none"
         id="path100"
         inkscape:connector-curvature="0" /><path
         d="m 2475,1370.34 v 0 c 1.15,0.43 2.29,0.87 3.38,1.35 v 0 c -1.09,-0.48 -2.23,-0.92 -3.38,-1.35"
         style="fill:#504d4d;fill-opacity:1;fill-rule:nonzero;stroke:none"
         id="path102"
         inkscape:connector-curvature="0" /><path
         d="m 2480.61,1372.63 v 0 c 0.67,0.27 1.34,0.57 1.98,0.88 v 0 c -0.64,-0.31 -1.31,-0.61 -1.98,-0.88"
         style="fill:#504d4d;fill-opacity:1;fill-rule:nonzero;stroke:none"
         id="path104"
         inkscape:connector-curvature="0" /><path
         d="m 2483.2,1373.78 c 0.15,0.07 0.3,0.13 0.44,0.2 h 0.09 l -0.53,-0.2"
         style="fill:#504d4d;fill-opacity:1;fill-rule:nonzero;stroke:none"
         id="path106"
         inkscape:connector-curvature="0" /><path
         d="m 2403,2844.94 c -12.51,28.44 -17.82,57.24 -14.13,88.83 3.78,31.5 16.56,50.4 33.03,60.3 l 0.27,-0.45 -19.17,-148.68"
         style="fill:#444041;fill-opacity:1;fill-rule:nonzero;stroke:none"
         id="path108"
         inkscape:connector-curvature="0" /><path
         d="m 1310.49,1737.76 -0.45,3.15 0.72,0.09 -0.27,-3.24"
         style="fill:#413e3e;fill-opacity:1;fill-rule:nonzero;stroke:none"
         id="path110"
         inkscape:connector-curvature="0" /><path
         d="m 1791.27,2386.75 -119.52,613.17 c 0.45,0.09 57.15,5.04 91.53,7.29 3.46,0.23 6.89,0.37 10.26,0.37 30.16,0 55.35,-11.58 54.54,-79.75 -0.9,-75.69 -10.35,-357.66 -12.69,-436.05 -1.53,-52.92 -4.68,-86.76 -24.12,-105.03"
         style="fill:#312d2e;fill-opacity:1;fill-rule:nonzero;stroke:none"
         id="path112"
         inkscape:connector-curvature="0" /><path
         d="m 1618.47,1328.44 -307.53,407.7 c 6.93,1.17 76.95,13.5 145.44,22.14 72.09,9 151.83,16.74 151.83,16.74 l 0.09,0.81 193.41,-421.47 c 0,0 -68.4,-8.19 -103.68,-13.32 -35.37,-5.04 -79.56,-12.6 -79.56,-12.6"
         style="fill:#312d2e;fill-opacity:1;fill-rule:nonzero;stroke:none"
         id="path114"
         inkscape:connector-curvature="0" /><path
         d="m 1275.93,1255.8 c -40.89,0 -73.13,12.16 -104.94,32.59 l -549.81,360.36 0.09,0.18 c 7.652,-3.33 15.66,-6.39 24.031,-9 32.035,-10.16 67.515,-17.27 109.051,-17.27 52.98,0 115.804,11.57 193.796,43.1 36.274,14.67 70.472,33.3 102.152,54.45 48.6,32.4 90.99,70.56 124.83,108.99 l 358.92,-438.84 c 0,0 -28.53,-39.42 -72.99,-70.02 l -1.62,-1.08 c -3.28,-2.24 -6.56,-4.43 -9.84,-6.57 0.58,0.39 1.16,0.78 1.74,1.17 -0.58,-0.39 -1.16,-0.78 -1.74,-1.17 -1.76,-1.14 -3.53,-2.28 -5.29,-3.4 -0.45,-0.28 -0.89,-0.56 -1.34,-0.83 0.45,0.27 0.89,0.55 1.34,0.83 -39.11,-24.81 -79.45,-42.46 -131.57,-50.51 -13.08,-2.02 -25.28,-2.98 -36.81,-2.98 m 182.88,63.1 c -2.43,-1.71 -4.95,-3.42 -7.47,-5.04 2.52,1.62 5.04,3.33 7.47,5.04 m 0.63,0.36 -0.63,-0.36 0.63,0.36"
         style="fill:#312d2e;fill-opacity:1;fill-rule:nonzero;stroke:none"
         id="path116"
         inkscape:connector-curvature="0" /><path
         d="m 1458.81,1318.9 0.63,0.36 -0.63,-0.36"
         style="fill:#2e2a2b;fill-opacity:1;fill-rule:nonzero;stroke:none"
         id="path118"
         inkscape:connector-curvature="0" /><path
         d="m 1451.34,1313.86 c 2.52,1.62 5.04,3.33 7.47,5.04 -2.43,-1.71 -4.95,-3.42 -7.47,-5.04"
         style="fill:#2e2a2b;fill-opacity:1;fill-rule:nonzero;stroke:none"
         id="path120"
         inkscape:connector-curvature="0" /><path
         d="m 1442.97,1308.46 c 0.45,0.27 0.89,0.55 1.34,0.83 v 0 c -0.45,-0.28 -0.89,-0.56 -1.34,-0.83 m 6.63,4.23 c 0.58,0.39 1.16,0.78 1.74,1.17 -0.58,-0.39 -1.16,-0.78 -1.74,-1.17 v 0"
         style="fill:#2e2a2b;fill-opacity:1;fill-rule:nonzero;stroke:none"
         id="path122"
         inkscape:connector-curvature="0" /><path
         d="m 1809.18,1590.97 -181.44,547.2 c 4.05,0.27 31.68,1.98 61.47,4.5 32.13,2.7 131.67,-1.8 237.69,60.3 34.56,20.25 63.63,45.72 87.21,74.25 l 39.78,-591.84 c -9.27,-12.51 -21.15,-23.31 -33.3,-32.58 l 0.09,-0.27 c -3.6,-3.42 -10.35,-8.91 -21.6,-15.84 v 0 0 0 c -0.74,-0.45 -1.5,-0.91 -2.27,-1.38 -0.75,-0.44 -1.53,-0.88 -2.32,-1.32 0.79,0.44 1.57,0.88 2.32,1.32 -1.08,-0.64 -2.2,-1.3 -3.35,-1.97 0.26,0.16 0.51,0.31 0.76,0.47 -0.25,-0.16 -0.5,-0.31 -0.76,-0.47 -6.92,-4.02 -15.22,-8.43 -25.16,-13.12 -30.96,-14.58 -59.85,-19.08 -82.62,-21.42 -22.77,-2.43 -76.5,-7.83 -76.5,-7.83 m 185.31,43.02 -0.27,-0.18 0.27,0.18"
         style="fill:#312d2e;fill-opacity:1;fill-rule:nonzero;stroke:none"
         id="path124"
         inkscape:connector-curvature="0" /><path
         d="m 1994.49,1633.99 c 0.79,0.44 1.57,0.88 2.32,1.32 v 0 c -0.75,-0.44 -1.53,-0.88 -2.32,-1.32 m 4.59,2.7 v 0 0 0"
         style="fill:#2e2a2b;fill-opacity:1;fill-rule:nonzero;stroke:none"
         id="path126"
         inkscape:connector-curvature="0" /><path
         d="m 1994.22,1633.81 0.27,0.18 -0.27,-0.18"
         style="fill:#2e2a2b;fill-opacity:1;fill-rule:nonzero;stroke:none"
         id="path128"
         inkscape:connector-curvature="0" /><path
         d="m 1993.46,1633.34 c 0.26,0.16 0.51,0.31 0.76,0.47 -0.25,-0.16 -0.5,-0.31 -0.76,-0.47 v 0"
         style="fill:#2e2a2b;fill-opacity:1;fill-rule:nonzero;stroke:none"
         id="path130"
         inkscape:connector-curvature="0" /><path
         d="m 1070.82,2762.41 -63.72,126.54 c 1.53,0.63 3.06,1.26 4.59,1.89 h -0.09 l 1.62,0.63 c 1.08,0.36 2.16,0.81 3.24,1.17 1.35,0.54 2.61,0.99 3.96,1.35 l 1.89,0.63 51.84,-104.85 -51.84,104.94 c 4.95,1.53 9.9,2.79 14.58,3.69 3.62,0.69 6.95,1.01 10.03,1.01 29.33,0 34.75,-29.53 33.53,-50.87 -0.63,-11.34 -3.51,-36.09 -6.3,-58.68 l 0.09,-0.18 c -0.36,-2.52 -0.63,-5.04 -0.9,-7.47 l -0.09,-0.36 c -0.9,-7.02 -1.71,-13.68 -2.43,-19.44"
         style="fill:#312d2e;fill-opacity:1;fill-rule:nonzero;stroke:none"
         id="path132"
         inkscape:connector-curvature="0" /><path
         d="m 1347.93,2188.66 -279.18,554.76 c 5.58,1.08 73.53,13.95 127.8,24.39 56.7,10.89 141.93,24.93 141.93,24.93 l 49.23,-123.39 -39.78,-480.69"
         style="fill:#312d2e;fill-opacity:1;fill-rule:nonzero;stroke:none"
         id="path134"
         inkscape:connector-curvature="0" /><path
         d="m 2459.25,2029 c -31.86,17.19 -60.48,49.14 -62.64,101.43 -3.69,86.13 -4.59,122.4 -4.59,122.4 0,0 -85.23,3.6 -135.09,5.94 -2.16,0.09 -4.59,0.18 -6.93,0.27 l 28.89,347.94 c 19.53,-23.22 40.77,-47.43 63.72,-72.63 70.38,-77.31 140.13,-152.73 187.38,-224.19 L 2459.25,2029"
         style="fill:#312d2e;fill-opacity:1;fill-rule:nonzero;stroke:none"
         id="path136"
         inkscape:connector-curvature="0" /><path
         d="m 2710.35,2486.65 c -54.72,69.39 -113.76,125.46 -181.8,197.28 -3.33,3.51 -6.66,7.02 -9.9,10.44 l 26.46,138.24 c 4.68,-0.36 77.49,-6.93 125.28,-12.6 48.87,-5.85 139.86,-18.36 141.84,-18.63 l -101.88,-314.73"
         style="fill:#312d2e;fill-opacity:1;fill-rule:nonzero;stroke:none"
         id="path138"
         inkscape:connector-curvature="0" /><path
         d="m 2956.19,1253.33 c -22.94,0 -51.41,4.12 -86.81,15.35 -54.36,17.19 -92.88,43.47 -92.88,43.47 l 0.27,0.27 c -29.52,18.72 -77.76,59.4 -94.14,94.59 l 342.36,449.01 c 40.59,-54 87.39,-94.68 129.6,-124.11 10.71,-7.47 22.23,-14.76 34.29,-21.78 89.28,-52.5 210.52,-92.65 290.72,-92.65 3.4,0 6.73,0.07 9.97,0.22 48.51,2.16 85.41,11.88 114.93,27.81 -98.28,-64.35 -515.79,-337.59 -543.78,-355.59 -31.77,-20.34 -45.36,-28.08 -72.09,-33.48 -9.35,-1.92 -20.09,-3.11 -32.44,-3.11"
         style="fill:#312d2e;fill-opacity:1;fill-rule:nonzero;stroke:none"
         id="path140"
         inkscape:connector-curvature="0" /><path
         d="m 2381.3,1355.69 c -1.3,0 -2.62,0.01 -3.95,0.02 -52.56,0.36 -94.68,15.84 -125.28,31.86 l -0.72,0.36 c -28.08,14.13 -69.3,40.41 -87.3,65.34 l 25.2,487.17 c 17.91,-22.5 39.33,-44.19 64.53,-64.35 18.09,-14.4 37.89,-27.27 59.04,-38.61 73.67,-39.65 162.94,-60.76 245.79,-60.76 31.31,0 61.71,3.02 90,9.19 20.25,4.41 39.87,10.89 58.68,19.26 2.88,1.26 5.67,2.52 8.46,3.87 l 1.17,0.54 c 2.97,1.44 5.85,2.88 8.73,4.41 l 1.53,0.81 c 2.97,1.62 5.94,3.24 8.91,4.95 l 1.98,1.17 c 2.97,1.71 5.85,3.42 8.73,5.22 l 1.44,0.99 c 2.7,1.71 5.31,3.42 7.92,5.22 l 1.35,0.9 c 2.7,1.98 5.49,3.96 8.19,5.94 l 1.98,1.44 c 2.61,1.98 5.22,4.05 7.83,6.12 l 1.71,1.44 c 2.43,1.89 4.77,3.96 7.11,5.94 l 1.08,0.99 c 2.52,2.25 4.95,4.5 7.38,6.75 l 1.89,1.8 c 2.43,2.25 4.68,4.59 6.93,6.84 l 1.8,1.89 c 2.16,2.25 4.32,4.5 6.39,6.84 l 1.08,1.26 c 2.16,2.34 4.23,4.77 6.21,7.2 l 1.71,2.07 c 2.07,2.43 4.05,5.04 6.03,7.56 l 1.62,2.16 c 1.98,2.7 3.96,5.4 5.85,8.1 -45.9,-79.56 -257.04,-445.05 -267.3,-460.8 -11.52,-17.64 -22.41,-31.95 -45.54,-50.31 -9.27,-7.38 -20.43,-15.39 -35.73,-22.5 v 0 h -0.09 l -0.63,-0.27 0.19,0.07 c -0.2,-0.09 -0.41,-0.18 -0.61,-0.27 0.14,0.06 0.28,0.13 0.42,0.2 -0.14,-0.07 -0.28,-0.14 -0.42,-0.2 -0.65,-0.3 -1.31,-0.59 -1.98,-0.88 -0.16,-0.06 -0.32,-0.12 -0.48,-0.18 0.16,0.06 0.32,0.12 0.48,0.18 -0.74,-0.31 -1.48,-0.63 -2.23,-0.94 0.16,0.07 0.33,0.14 0.49,0.22 -0.16,-0.08 -0.33,-0.15 -0.49,-0.22 -1.11,-0.46 -2.23,-0.91 -3.38,-1.35 -0.12,-0.05 -0.24,-0.09 -0.36,-0.14 0.12,0.05 0.24,0.09 0.36,0.14 -21.75,-8.45 -51.26,-14.65 -93.7,-14.65 m 98.83,16.76 -1.26,-0.54 1.26,0.54"
         style="fill:#312d2e;fill-opacity:1;fill-rule:nonzero;stroke:none"
         id="path142"
         inkscape:connector-curvature="0" /><path
         d="m 2474.64,1370.2 c 0.12,0.05 0.24,0.09 0.36,0.14 v 0 c -0.12,-0.05 -0.24,-0.09 -0.36,-0.14 m 3.74,1.49 c 0.16,0.07 0.33,0.14 0.49,0.22 -0.16,-0.08 -0.33,-0.15 -0.49,-0.22 v 0"
         style="fill:#2e2a2b;fill-opacity:1;fill-rule:nonzero;stroke:none"
         id="path144"
         inkscape:connector-curvature="0" /><path
         d="m 2478.87,1371.91 1.26,0.54 -1.26,-0.54"
         style="fill:#2e2a2b;fill-opacity:1;fill-rule:nonzero;stroke:none"
         id="path146"
         inkscape:connector-curvature="0" /><path
         d="m 2480.13,1372.45 c 0.16,0.06 0.32,0.12 0.48,0.18 v 0 c -0.16,-0.06 -0.32,-0.12 -0.48,-0.18 m 2.46,1.06 c 0.14,0.06 0.28,0.13 0.42,0.2 -0.14,-0.07 -0.28,-0.14 -0.42,-0.2 v 0"
         style="fill:#2e2a2b;fill-opacity:1;fill-rule:nonzero;stroke:none"
         id="path148"
         inkscape:connector-curvature="0" /><path
         d="m 2483.01,1373.71 0.63,0.27 h 0.09 -0.09 c -0.14,-0.07 -0.29,-0.13 -0.44,-0.2 l -0.19,-0.07"
         style="fill:#2e2a2b;fill-opacity:1;fill-rule:nonzero;stroke:none"
         id="path150"
         inkscape:connector-curvature="0" /><path
         d="m 2472.39,2744.77 c -1.35,1.53 -2.7,3.15 -4.05,4.68 l -0.9,0.99 -1.35,1.62 c -1.26,1.44 -2.43,2.88 -3.69,4.32 l -1.62,1.98 c -1.08,1.26 -2.16,2.52 -3.24,3.87 l -1.08,1.17 c -7.02,8.55 -13.68,17.01 -19.89,25.38 l -0.45,0.63 c -13.77,18.72 -24.93,36.99 -33.12,55.53 l 19.26,149.31 c 10.17,5.98 21.65,8.55 33.24,8.55 3.59,0 7.19,-0.25 10.77,-0.72 v -0.09 c 9.36,-1.26 18.63,-4.05 27,-8.01 v 0.09 l 0.18,-0.09 c 1.17,-0.63 2.43,-1.17 3.6,-1.8 l 0.72,-0.36 c 1.17,-0.63 2.34,-1.35 3.42,-1.98 l 0.63,-0.45 c 1.17,-0.63 2.25,-1.35 3.33,-2.07 l 0.54,-0.45 1.89,-1.26 c 1.71,-1.26 3.42,-2.61 4.95,-3.87 l -40.14,-236.97"
         style="fill:#312d2e;fill-opacity:1;fill-rule:nonzero;stroke:none"
         id="path152"
         inkscape:connector-curvature="0" /><path
         d="m 1338.5,2792.77 c 0,0 -85.25,-14.05 -141.91,-24.94 -56.67,-10.87 -128.3,-24.48 -128.3,-24.48 0,0 10.9,81.6 12.25,105.18 1.36,23.58 -5.43,57.12 -43.53,49.88 -38.072,-7.26 -87.322,-35.28 -105.623,-94.31 -22.207,-71.63 -9.407,-110.67 27.207,-155.94 68.906,-85.24 266.116,-216.7 310.076,-394.87 38.02,-154.05 18.6,-238.91 -27.2,-329.12 -44.03,-86.78 -154.14,-202.18 -293.318,-258.41 -139.168,-56.21 -229.976,-48.97 -302.808,-25.83 -87.051,27.66 -135.547,90.67 -147.785,180.87 -7.032,51.79 21.296,184.98 21.296,184.98 0,0 66.633,23.57 127.383,41.69 60.742,18.14 165.481,45.34 165.481,45.34 0,0 -14.051,-95.21 -19.5,-133.74 -5.442,-38.53 5.449,-90.66 57.586,-84.32 52.121,6.35 85.664,18.59 120.129,84.78 34.456,66.18 39.876,160.48 2.711,224.41 -37.176,63.91 -82.047,114.24 -172.262,203.55 -90.227,89.29 -140.547,175.43 -145.988,289.68 -5.711,120.17 88.859,247.98 178.171,310.99 89.309,63.01 191.304,109.09 310.994,102.01 68.91,-4.09 128.29,-37.18 159.12,-72.1 30.83,-34.89 48.5,-73.89 43.51,-139.17 -4.97,-65.28 -7.69,-86.13 -7.69,-86.13"
         style="fill:#ffffff;fill-opacity:1;fill-rule:nonzero;stroke:none"
         id="path154"
         inkscape:connector-curvature="0" /><path
         d="m 1815.41,2491.76 c -2.27,-78.44 -8.16,-115.16 -65.29,-121.06 -57.12,-5.88 -111.52,-10.41 -111.52,-10.41 l 33.09,639.65 c 0,0 57.12,4.99 91.57,7.26 34.46,2.27 65.74,-3.63 64.84,-79.33 -0.91,-75.71 -10.41,-357.68 -12.69,-436.11 z m 274.26,406.18 c 0,79.79 -7.25,113.79 -48.95,181.34 -41.72,67.54 -134.21,99.73 -198.12,106.99 -63.92,7.25 -148.23,-4.08 -238.92,-13.6 -90.66,-9.52 -175.88,-20.41 -175.88,-20.41 L 1310.39,1736.04 c 0,0 73.88,13.14 145.97,22.2 72.08,9.08 151.87,16.77 151.87,16.77 l 19.04,363.15 c 0,0 29.71,1.81 61.9,4.54 32.19,2.7 131.68,-1.84 237.75,60.27 106.08,62.12 160.94,173.63 162.31,271.56 1.36,97.92 0.44,343.63 0.44,423.41"
         style="fill:#ffffff;fill-opacity:1;fill-rule:nonzero;stroke:none"
         id="path156"
         inkscape:connector-curvature="0" /><path
         d="m 2518.53,2012.57 c -43.05,0.85 -118.32,31.74 -121.96,117.87 -3.61,86.12 -4.51,122.4 -4.51,122.4 0,0 -85.24,3.62 -135.11,5.89 -49.86,2.28 -146.43,2.28 -146.43,2.28 0,0 0,-37.17 0,-113.79 0,-76.62 38.55,-187.69 143.26,-271.09 104.73,-83.43 270.18,-117.45 394.86,-90.23 124.67,27.21 228.95,132.83 233.47,272.01 4.54,139.16 -50.31,248.43 -119.68,355.86 -69.35,107.45 -143.71,174.99 -233.91,270.2 -90.23,95.2 -150.07,161.84 -139.64,249.78 10.44,87.95 91.57,77.99 125.57,46.24 34.01,-31.72 28.55,-97.46 29.02,-120.13 0.45,-22.67 1.37,-27.2 1.37,-27.2 0,0 76.15,-6.78 125.56,-12.69 49.41,-5.89 141.89,-18.59 141.89,-18.59 0,0 -3.62,66.19 -9.06,109.26 -5.44,43.06 -33.54,121.49 -101.56,176.34 -59.58,48.07 -143.69,97.48 -268.36,98.38 -110.17,0.8 -195.41,-39.9 -247.54,-106.08 -52.12,-66.18 -62.17,-132.33 -51.67,-218.97 10.42,-86.13 85.67,-190.93 208.55,-325.94 114.68,-126.04 227.71,-246.92 244.33,-354.06 15.41,-99.3 0.46,-169.11 -68.45,-167.74"
         style="fill:#ffffff;fill-opacity:1;fill-rule:nonzero;stroke:none"
         id="path158"
         inkscape:connector-curvature="0" /><path
         d="m 2831.34,3145.02 c 0,0 90.66,-13.16 131.01,-20.41 40.35,-7.25 125.12,-23.11 125.12,-23.11 0,0 114.23,-944.77 120.14,-1005.51 5.9,-60.74 21.31,-140.09 74.8,-181.8 53.5,-41.7 95.9,-43.72 113.34,-40.8 20.06,3.38 22.21,32.65 22.21,48.06 0,15.42 -4.08,67.09 -7.71,92.04 -3.62,24.93 -146.89,1049.47 -146.89,1049.47 0,0 75.27,-16.78 133.29,-32.64 58.04,-15.87 126.95,-35.82 126.95,-35.82 0,0 162.74,-954.28 180.86,-1059 18.15,-104.74 0.46,-188.59 -37.17,-236.19 -37.62,-47.61 -87.49,-77.53 -177.69,-81.61 -90.23,-4.08 -241.58,49.15 -335.03,114.25 -95.64,66.65 -214.87,191.3 -232.56,397.13 -17.67,205.82 -90.67,1015.94 -90.67,1015.94"
         style="fill:#ffffff;fill-opacity:1;fill-rule:nonzero;stroke:none"
         id="path160"
         inkscape:connector-curvature="0" /><path
         d="m 1306.98,2818.39 c 8.17,82.95 24.58,147.3 -63.92,209.43 -95.88,67.32 -256.349,25.17 -352.915,-38.07 -96.582,-63.25 -193.805,-166.61 -193.805,-313.49 0,-146.89 120.371,-242.76 163.875,-289 43.523,-46.24 183.605,-163.2 183.605,-301.93 0,-120.37 -59.164,-195.16 -111.523,-225.08 -44.758,-25.59 -127.16,-39.45 -159.113,6.12 -31.973,45.57 -16.321,103.36 -13.614,125.13 2.727,21.74 8.164,51.68 8.164,51.68 0,0 -59.843,-16.33 -107.441,-29.94 -47.59,-13.58 -101.316,-31.27 -101.316,-31.27 0,0 -8.848,-52.37 -14.961,-92.48 -6.118,-40.12 -2.727,-144.84 84.312,-193.13 87.063,-48.27 227.133,-47.61 369.238,35.37 142.154,82.95 254.334,218.27 254.334,367.87 0,149.61 -53.04,271.34 -182.24,390.33 -129.191,119.01 -222.363,193.12 -169.328,324.36 53.047,131.25 178.858,126.49 200.598,100.64 21.78,-25.83 24.5,-53.02 14.98,-118.31 l -2.05,-12.93 c 0,0 48.96,9.53 94.54,18.36 45.55,8.85 98.58,16.34 98.58,16.34"
         style="fill:#231f20;fill-opacity:1;fill-rule:nonzero;stroke:none"
         id="path162"
         inkscape:connector-curvature="0" /><path
         d="m 1857.12,2462.04 c -0.69,-40.78 -13.61,-77.51 -31.97,-95.19 -18.36,-17.67 -50.33,-28.57 -83.65,-31.95 -33.31,-3.4 -140.07,-13.62 -140.07,-13.62 l 38.77,706.54 c 0,0 91.79,6.12 128.5,9.53 36.73,3.39 75.48,-12.92 87.05,-40.8 11.56,-27.89 12.92,-54.4 12.92,-74.13 0,-19.72 -10.88,-419.57 -11.55,-460.38 z m 108.8,651.47 c -80.93,59.83 -189.05,47.6 -302.61,36.72 -113.56,-10.88 -197.88,-21.76 -197.88,-21.76 L 1359.34,1782.74 c 0,0 53.73,8.83 111.53,16.3 57.8,7.49 100.63,11.55 100.63,11.55 l 21.08,359.74 c 0,0 85,9.52 171.37,16.33 86.35,6.79 173.4,56.44 227.12,116.28 53.73,59.83 61.88,156.41 62.57,184.96 0.68,28.56 2.72,422.28 2.72,445.41 0,23.12 -9.52,120.35 -90.44,180.2"
         style="fill:#231f20;fill-opacity:1;fill-rule:nonzero;stroke:none"
         id="path164"
         inkscape:connector-curvature="0" /><path
         d="m 2584.73,2861.22 c 0,0 48.95,-4.08 92.47,-9.52 43.53,-5.44 99.29,-12.92 99.29,-12.92 0,0 -5.25,67.47 -15.65,106.76 -18.35,69.37 -123.08,213.55 -330.49,212.85 -198.55,-0.69 -261.11,-153.01 -260.42,-248.21 0.49,-69.36 38.07,-163.88 131.23,-269.96 88.72,-101.03 250.91,-273.37 289.01,-349.51 38.07,-76.19 49.63,-127.81 45.55,-184.29 -4.76,-65.97 -21.08,-99.97 -65.28,-122.4 -54.26,-27.56 -149.16,10.21 -187.68,70.02 -31.97,49.66 -25.84,165.93 -25.84,165.93 0,0 -66.65,3.39 -104.04,4.09 -37.39,0.68 -98.61,2.04 -98.61,2.04 0,0 0.56,-63.27 0,-80.92 -1.35,-43.53 29.92,-162.86 125.13,-234.61 99.28,-74.81 239.49,-110.78 335.93,-90.44 112.87,23.8 234.58,97.91 230.52,271.32 -4.39,186.3 -136.02,360.4 -284.26,514.09 -148.22,153.68 -227.24,226.73 -203.99,345.44 12.92,65.97 67.36,84.49 102.68,82.96 110.16,-4.77 118.32,-94.51 120.35,-127.17 2.43,-38.77 4.1,-45.55 4.1,-45.55"
         style="fill:#231f20;fill-opacity:1;fill-rule:nonzero;stroke:none"
         id="path166"
         inkscape:connector-curvature="0" /><path
         d="m 3457.18,1989.45 c -13.73,106.91 -148.24,1034.29 -148.24,1034.29 0,0 65.28,-16.31 97.9,-25.16 32.66,-8.83 87.06,-24.47 87.06,-24.47 0,0 148.45,-866.59 174.76,-1053.34 27.19,-193.12 -72.18,-248.86 -153.69,-259.77 -106.75,-14.28 -291.72,44.89 -410.04,167.28 -116.72,120.74 -133.95,233.25 -143.48,345.45 -9.53,112.21 -87.05,937.05 -87.05,937.05 0,0 66.64,-10.87 91.8,-14.96 25.16,-4.08 91.81,-16.99 91.81,-16.99 0,0 95.93,-837.18 112.2,-971.75 15.64,-129.2 27.18,-135.37 53.04,-177.49 29.25,-47.59 106.76,-101.99 177.48,-94.51 63.13,6.68 69.37,53.72 56.45,154.37"
         style="fill:#231f20;fill-opacity:1;fill-rule:nonzero;stroke:none"
         id="path168"
         inkscape:connector-curvature="0" /><g
         id="g170"><g
           id="g172"
           clip-path="url(#clipPath176)"><path
             d="M 2724.91,252.02 C 2374.1,-85.0313 1816.47,-73.8281 1479.46,277.059 c -337,350.839 -325.77,908.421 25.05,1245.431 350.84,336.98 908.46,325.83 1245.43,-25.04 C 3087,1146.61 3075.78,589.031 2724.91,252.02"
             style="fill:url(#radialGradient186);fill-opacity:1;fill-rule:nonzero;stroke:none"
             id="path188"
             inkscape:connector-curvature="0" /></g></g><g
         id="g190"><g
           id="g192"
           clip-path="url(#clipPath196)"><path
             d="m 2813.15,1223.78 c -52.54,-173.7 -345.24,-238.85 -653.83,-145.5 -308.57,93.36 -516.08,309.86 -463.54,483.56 52.6,173.72 345.33,238.86 653.85,145.51 308.56,-93.37 516.05,-309.83 463.52,-483.57"
             style="fill:url(#linearGradient206);fill-opacity:1;fill-rule:nonzero;stroke:none"
             id="path208"
             inkscape:connector-curvature="0" /></g></g><path
         d="m 1690.05,830.398 c -36.01,205.412 32.73,368.162 61.83,426.412 413.23,-185.46 622.53,-335.662 786.91,-470.9 C 2691.34,660.34 2786.28,519.141 2827.38,449.941 2789.91,390.461 2744.38,334.309 2690.96,283 2592.39,188.289 2479.13,121.309 2359.92,81.9492 2049.14,194.379 1736.13,566.91 1690.05,830.398 Z m 3.86,-685.136 c -208.09,193.359 -291.53,445.84 -294.2,614.57 -3.15,201.648 60.25,420.168 166.19,576.918 52.55,-21.72 102.38,-42.98 149.61,-63.74 -32.85,-65.47 -100.77,-235.65 -59.94,-467.131 49.38,-280.43 319.01,-628.559 625.41,-745.8204 -197.33,-44.418 -405.41,-15.8789 -587.07,85.2034 z m -206.25,159.66 c -295.96,308.09 -312.68,760.848 -68.06,1090.618 38.96,-15.2 76.51,-30.23 112.84,-44.96 -189.65,-285.37 -259.16,-774.478 30.7,-1115.74 -26.13,21.59 -51.38,44.93 -75.48,70.082 z m 32.93,1205.298 c 167.46,160.82 375.58,242.31 583.41,244.28 -30.13,-6.48 -65.07,-15.91 -103.42,-29.74 -116.46,-41.97 -287.01,-133.69 -438.69,-332.71 -1.07,-1.35 -2.1,-2.8 -3.11,-4.24 -36.33,14.22 -73.68,28.43 -112.02,42.58 22.71,27.6 47.3,54.35 73.83,79.83 z m 726.82,232.94 c 171.35,-28.94 335.93,-113.07 470,-252.64 55.55,-57.83 101.33,-120.87 137.63,-187.18 -196.12,207.52 -413.69,289.04 -669.07,257.08 -259.6,-32.47 -415.1,-208.13 -446.44,-246.61 -46.86,20.17 -95.67,40.34 -146.5,60.55 237.09,308.09 553.73,360.12 654.38,368.8 z m 659.31,-553.28 c 81.67,-221.72 66.31,-467.368 -44.42,-679.321 -31.79,54 -99.84,150.371 -233.84,271.461 -152.71,137.992 -414.26,323.84 -852.56,516.02 3.2,4.26 7.06,8.78 11.67,13.24 58.22,55.97 191.57,183.88 413.05,211.56 262.09,32.85 503.3,-99.17 706.1,-332.96 z m -151.83,312.29 c -147.39,153.48 -337.18,242.34 -533.54,265.94 l -1.19,0.45 c -0.26,0 -1.2,0.05 -2.61,0.05 -254.22,29.4 -519.25,-50.44 -717.76,-241.21 -353.02,-339.06 -364.3,-902.091 -25.24,-1255.06 339.06,-352.9806 902.09,-364.34 1255.12,-25.25 352.97,339.058 364.29,902.14 25.22,1255.08"
         style="fill:#231f20;fill-opacity:1;fill-rule:nonzero;stroke:none"
         id="path210"
         inkscape:connector-curvature="0" /><path
         d="m 2708.82,1048.26 c -29.86,40.18 103.79,234.67 74.83,192.67 -28.79,-42.06 -240.53,-41.58 -287.43,-39.93 -46.93,1.69 -69.09,20.25 -72.23,11.65 -3.2,-8.6 -30.08,-80.7 -30.08,-80.7 44.73,-64.15 -71.89,-94.21 -106.45,-186.981 0,0 43.3,-15.278 87.2,-102.938 l -35.4,-103.199 c 0,0 34.49,-82.793 68.75,-111.422 -0.32,-9.039 83.54,51.57 83.24,42.52 84.61,-42.16 69.24,-20.45 80.01,-48.239 0,0 59.13,2.469 92.62,51.239 22.24,-14.371 34.65,-73.149 57.56,-89.559 0,0 79.58,36.359 73.65,91.328 l 52.88,56.891 -74.63,104.41"
         style="fill:#231f20;fill-opacity:1;fill-rule:nonzero;stroke:none"
         id="path212"
         inkscape:connector-curvature="0" /><path
         d="m 2732,1065.49 -6.48,-4.81 7.94,2.04 c -0.03,0.13 -0.36,1.29 -1.46,2.77 l -6.48,-4.81 7.94,2.04 -0.41,-0.11 0.42,0.09 -0.01,0.02 -0.41,-0.11 0.42,0.09 c -0.02,0.06 -0.16,0.83 -0.15,2.18 -0.04,3.05 0.74,8.86 2.63,15.92 3.25,12.45 9.64,28.71 17.44,45.4 11.7,25.13 26.46,51.49 38.23,71.42 5.89,9.98 11.04,18.36 14.72,24.3 1.84,2.97 3.31,5.32 4.37,7.02 l 1.34,2.17 0.69,1.16 0.74,1.37 c 0.21,0.41 0.47,0.9 0.94,2.02 0.24,0.59 0.55,1.32 0.97,2.68 0.21,0.7 0.46,1.55 0.71,2.81 0.24,1.28 0.55,2.92 0.57,5.68 -0.01,1.93 -0.17,4.17 -0.84,6.91 -0.51,2.05 -1.31,4.4 -2.7,6.95 -2.03,3.79 -5.69,8.1 -10.61,10.98 -4.87,2.94 -10.45,4.09 -14.74,4.05 -4.77,-0.04 -7.86,-1.02 -10.08,-1.82 -4.32,-1.7 -5.89,-3.02 -7.21,-3.94 -2.35,-1.8 -2.98,-2.57 -3.63,-3.21 -1.08,-1.15 -1.37,-1.56 -1.69,-1.94 l -0.91,-1.19 c -0.62,-0.85 -1.04,-1.47 -1.75,-2.48 -0.69,-0.99 -1.55,-2.24 -2.64,-3.82 l -0.05,-0.08 2.8,-1.91 -2.47,2.35 -0.33,-0.44 2.8,-1.91 -2.47,2.35 c -0.01,-0.12 -2.62,-2.29 -7.48,-4.47 -8.5,-3.99 -23.18,-8.22 -40.62,-11.45 -26.27,-4.95 -58.97,-8.14 -90.92,-9.99 -31.98,-1.86 -63.31,-2.43 -87.46,-2.43 -15.92,0 -28.77,0.25 -36.44,0.52 h 0.03 c -16.14,0.6 -28.4,3.44 -38.27,6.33 -4.97,1.45 -9.29,2.93 -13.7,4.31 -2.23,0.69 -4.48,1.37 -7.15,2 -2.7,0.6 -5.77,1.26 -10.37,1.3 -4.11,-0.02 -10.2,-0.6 -16.93,-4.45 -3.28,-1.9 -6.46,-4.62 -8.86,-7.66 -2.42,-3.03 -4.08,-6.27 -5.13,-9.16 l 0.04,0.1 0.04,0.1 c -1.6,-4.29 -9.12,-24.47 -16.24,-43.57 -7.12,-19.1 -13.83,-37.09 -13.85,-37.12 l -5.29,-14.19 8.67,-12.42 c 2.27,-3.26 3.48,-5.79 4.12,-7.61 0.63,-1.83 0.75,-2.95 0.77,-3.99 -0.02,-1.37 -0.25,-2.88 -1.38,-5.52 -1.89,-4.54 -7.25,-11.95 -15.65,-20.6 -12.49,-13.1 -30.97,-28.81 -49.35,-48.38 -18.35,-19.6 -36.88,-43.58 -48.33,-74.271 l -10.26,-27.539 27.71,-9.782 5.83,16.532 -6.6,-16.239 0.77,-0.293 5.83,16.532 -6.6,-16.239 0.59,1.449 -0.63,-1.441 0.04,-0.008 0.59,1.449 -0.63,-1.441 c 0.36,-0.168 8.83,-3.84 22.02,-16.687 13.17,-12.864 31.1,-34.981 49.77,-72.25 l 25.83,12.929 -27.32,9.367 -38.96,-113.558 4.22,-10.121 c 0.22,-0.52 9.11,-21.86 22.68,-47.418 6.81,-12.789 14.78,-26.641 23.68,-39.692 8.99,-13.058 18.63,-25.328 30.53,-35.359 l 18.52,22.16 -28.85,1.289 -0.03,-1.34 c -0.01,-3.23 0.52,-7.41 2.45,-11.859 1.41,-3.309 3.65,-6.641 6.34,-9.281 4.05,-4.02 8.72,-6.25 12.36,-7.321 3.7,-1.089 6.56,-1.269 8.83,-1.289 3.2,0.02 5.35,0.411 7.14,0.789 3.4,0.762 5.53,1.59 7.59,2.422 3.76,1.551 6.99,3.219 10.54,5.141 6.14,3.34 12.93,7.418 20.04,11.758 10.62,6.492 21.9,13.582 30.74,18.769 4.38,2.582 8.2,4.703 10.49,5.821 l 1.31,0.621 0.36,0.16 -4.02,10.262 2.81,-10.641 c 0.93,0.25 1.2,0.379 1.21,0.379 l -4.02,10.262 2.81,-10.641 -5.97,22.551 V 641.98 c 3.5,0.04 5.01,0.508 5.97,0.731 l -5.97,22.551 v -23.282 26.961 l -6.68,-26.109 c 2.86,-0.723 5.02,-0.84 6.68,-0.852 v 26.961 l -6.68,-26.109 6.9,26.977 -14.29,-23.899 c 2.71,-1.621 5.25,-2.539 7.39,-3.078 l 6.9,26.977 -14.29,-23.899 14.46,24.18 -25.12,-12.758 c 2.35,-4.773 6.59,-9.082 10.66,-11.422 l 14.46,24.18 -25.12,-12.758 24.9,12.648 h -27.94 c -0.01,-3.281 0.62,-7.878 3.04,-12.648 l 24.9,12.648 h -27.94 27.17 l -27.17,0.391 v -0.391 h 27.17 l -27.17,0.391 v -0.441 -17.871 l 16,-7.969 c 21.71,-10.828 37.34,-17.711 48.67,-22.32 8.45,-3.45 14.6,-5.661 18.27,-7.04 1.37,-0.511 2.35,-0.89 2.85,-1.101 l 0.37,-0.16 3.99,8.613 -4.97,-8.062 0.98,-0.551 3.99,8.613 -4.97,-8.062 10.22,16.589 -15.24,-12.078 c 1.51,-1.98 3.84,-3.84 5.02,-4.511 l 10.22,16.589 -15.24,-12.078 13.5,10.699 -15.53,-7.531 c 0.22,-0.469 0.88,-1.719 2.03,-3.168 l 13.5,10.699 -15.53,-7.531 5.44,2.641 -5.57,-2.371 0.13,-0.27 5.44,2.641 -5.57,-2.371 c 0.11,-0.098 1.57,-4.5 3.96,-10.707 l 7.47,-19.293 20.67,0.871 c 1.92,0.109 19.28,0.89 42.18,8.961 11.44,4.051 24.28,9.969 37.06,18.801 12.75,8.808 25.42,20.597 35.98,35.98 l -23.81,16.348 -15.68,-24.258 1.03,1.59 -1.17,-1.481 0.14,-0.109 1.03,1.59 -1.17,-1.481 c 0.07,-0.043 1.07,-0.941 2.39,-2.699 2.38,-3.07 5.65,-8.633 9.02,-15.352 5.14,-10.128 10.58,-22.75 17.12,-35.16 3.3,-6.218 6.89,-12.429 11.26,-18.468 4.4,-6.02 9.55,-12 16.77,-17.211 l 13.6,-9.743 15.22,6.954 c 1.28,0.636 21.46,9.769 43.11,27.148 10.81,8.75 22.11,19.602 31.35,33.461 9.17,13.75 16.39,31.18 16.38,51.141 0,2.957 -0.15,5.937 -0.48,8.929 l -28.71,-3.082 21.15,-19.66 68.94,74.172 -88.34,123.578 -47,-33.59 60.92,-85.219 -45.79,-49.269 1.4,-13.09 c 0.1,-0.961 0.15,-1.871 0.15,-2.769 0,-5.883 -2.03,-12.051 -6.73,-19.18 -6.89,-10.59 -19.78,-21.5 -30.97,-28.852 -5.57,-3.711 -10.66,-6.629 -14.23,-8.55 -1.79,-0.961 -3.2,-1.668 -4.1,-2.122 l -0.95,-0.457 -0.17,-0.082 4.13,-8.859 -4.07,8.891 -0.06,-0.032 4.13,-8.859 -4.07,8.891 12.01,-26.27 16.81,23.481 c -0.05,0.019 -1.06,0.839 -2.44,2.578 -2.46,3.019 -5.91,8.66 -9.4,15.531 -5.34,10.371 -10.91,23.34 -17.54,35.988 -3.35,6.352 -6.98,12.672 -11.48,18.813 -4.54,6.109 -9.92,12.25 -17.84,17.429 l -23.59,15.239 -15.89,-23.149 c -6.19,-9 -13.47,-15.801 -21.22,-21.172 -11.58,-8.039 -24.34,-12.64 -34.05,-15.031 -4.84,-1.187 -8.89,-1.848 -11.54,-2.187 -1.33,-0.172 -2.31,-0.27 -2.87,-0.313 l -0.51,-0.039 0.56,-9.168 -0.39,9.18 -0.17,-0.012 0.56,-9.168 -0.39,9.18 1.21,-28.86 26.93,10.438 c -1.16,3 -1.96,5.281 -2.83,7.691 -0.78,2.121 -1.57,4.418 -3.19,7.7 -1.4,2.82 -3.7,6.5 -6.86,9.718 -2.73,2.832 -5.83,5.032 -8.42,6.532 -4.63,2.621 -7.78,3.691 -11.15,5 -5.01,1.871 -10.99,4 -20.7,8.058 -9.65,4.031 -22.81,9.934 -40.91,18.953 l -12.88,-25.851 h 28.88 -27.08 l 27.08,-0.379 v 0.379 h -27.08 l 27.08,-0.379 v 0.429 c 0,3.239 -0.53,7.418 -2.45,11.86 -1.41,3.308 -3.65,6.64 -6.34,9.281 -4.05,4.02 -8.72,6.258 -12.36,7.328 -3.7,1.09 -6.57,1.281 -8.84,1.289 -3.19,-0.019 -5.34,-0.41 -7.13,-0.777 -3.4,-0.77 -5.53,-1.602 -7.6,-2.422 -3.75,-1.559 -6.99,-3.23 -10.55,-5.148 -6.13,-3.34 -12.93,-7.422 -20.04,-11.762 -10.62,-6.488 -21.9,-13.578 -30.74,-18.77 -4.38,-2.578 -8.2,-4.699 -10.48,-5.82 l -1.32,-0.629 -0.35,-0.148 4.02,-10.274 -2.82,10.653 c -0.92,-0.25 -1.2,-0.379 -1.2,-0.379 l 4.02,-10.274 -2.82,10.653 5.98,-22.559 v 23.289 c -3.5,-0.039 -5.01,-0.519 -5.98,-0.73 l 5.98,-22.559 v 23.289 -26.961 l 6.68,26.121 c -2.85,0.719 -5.02,0.84 -6.68,0.84 V 628.41 l 6.68,26.121 -6.9,-27 14.29,23.918 c -2.71,1.61 -5.26,2.531 -7.39,3.082 l -6.9,-27 14.29,23.918 -14.46,-24.199 25.12,12.781 c -2.35,4.77 -6.6,9.071 -10.66,11.418 l -14.46,-24.199 25.12,12.781 -24.9,-12.672 h 27.95 c 0.01,3.289 -0.62,7.903 -3.05,12.672 l -24.9,-12.672 h 27.95 -27.74 l 27.71,-1.23 0.03,1.23 h -27.74 l 27.71,-1.23 0.64,14.281 -10.97,9.172 c -5.24,4.277 -12.75,13.09 -19.87,23.609 -10.81,15.797 -21.27,35.34 -28.75,50.641 -3.75,7.656 -6.79,14.289 -8.87,18.949 -1.04,2.328 -1.84,4.16 -2.37,5.399 l -0.59,1.371 -0.14,0.328 -0.02,0.062 -26.66,-11.109 27.32,-9.371 39.33,114.668 -5.43,10.84 c -23.33,46.613 -47.28,75.422 -66.49,92.812 -19.18,17.399 -33.55,23.258 -36.92,24.43 l -9.61,-27.242 27.06,-10.078 c 5.86,15.718 14.83,29.711 25.7,42.879 16.29,19.812 36.74,37.13 55.02,55.33 9.12,9.18 17.81,18.64 24.95,29.95 3.55,5.66 6.7,11.83 8.99,18.67 2.3,6.82 3.7,14.34 3.69,22.11 0.01,7.74 -1.39,15.63 -4.04,23.14 -2.64,7.52 -6.47,14.67 -11.23,21.5 l -23.69,-16.52 27.06,-10.09 c 0,0 26.88,72.08 30.09,80.71 l 0.04,0.11 0.03,0.09 -23.72,8.64 19.72,-15.74 c 1.97,2.46 3.25,5.01 4,7.1 l -23.72,8.64 19.72,-15.74 -20.19,16.11 9.07,-24.2 c 3.72,1.31 8.22,4.34 11.12,8.09 l -20.19,16.11 9.07,-24.2 -8.24,21.98 v -23.53 c 1.69,0.02 4.48,0.16 8.24,1.55 l -8.24,21.98 v -23.53 16.7 l -2.4,-16.54 c 0.41,-0.06 1.15,-0.15 2.4,-0.16 v 16.7 l -2.4,-16.54 1.18,8.11 -1.55,-8.05 0.37,-0.06 1.18,8.11 -1.55,-8.05 0.03,0.17 -0.03,-0.17 v 0 l 0.03,0.17 -0.03,-0.17 c 0.44,-0.07 3.35,-0.95 7.28,-2.23 5.98,-1.94 14.56,-4.71 25.12,-7.06 10.59,-2.36 23.23,-4.3 37.78,-4.82 h 0.03 c 8.59,-0.31 21.92,-0.56 38.46,-0.56 39.43,0.01 96.67,1.42 148.41,7.39 25.92,3.02 50.4,7.1 71.48,13.25 10.56,3.12 20.31,6.72 29.34,11.54 8.94,4.88 17.62,10.88 24.59,20.86 l -0.08,-0.12 0.02,0.04 c 1.39,2.02 2.41,3.49 3,4.33 l 0.35,0.5 -0.09,0.06 0.08,-0.06 h 0.01 l -0.09,0.06 0.08,-0.06 -20.22,15.08 19.42,-16.09 0.8,1.01 -20.22,15.08 19.42,-16.09 -21.82,18.08 20.07,-20.01 c 1.1,1.12 1.43,1.55 1.75,1.93 l -21.82,18.08 20.07,-20.01 -20.39,20.33 17.27,-23.04 c 1.82,1.39 2.52,2.13 3.12,2.71 l -20.39,20.33 17.27,-23.04 -17.31,23.09 12.86,-25.83 c 2.28,1.15 3.5,2.04 4.45,2.74 l -17.31,23.09 12.86,-25.83 -12.87,25.85 v -28.88 c 7.16,0.16 10.53,1.99 12.87,3.03 l -12.87,25.85 v -28.88 28.88 l -13.09,-25.74 c 4.47,-2.3 9.28,-3.16 13.09,-3.14 v 28.88 l -13.09,-25.74 13.09,25.74 -21.71,-19.04 c 2.25,-2.58 5.27,-5.01 8.62,-6.7 l 13.09,25.74 -21.71,-19.04 21.71,19.04 -27.76,-7.96 c 0.92,-3.18 2.64,-7.17 6.05,-11.08 l 21.71,19.04 -27.76,-7.96 27.76,7.96 h -28.88 c 0.02,-2.16 0.21,-4.73 1.12,-7.96 l 27.76,7.96 h -28.88 28.86 l -27.9,7.35 c -0.33,-1.42 -0.89,-3.19 -0.96,-7.35 h 28.86 l -27.9,7.35 27.79,-7.32 -26.33,11.54 c -0.31,-0.78 -0.74,-1.58 -1.46,-4.22 l 27.79,-7.32 -26.33,11.54 25.53,-11.19 -24.52,13.24 c -0.19,-0.36 -0.41,-0.71 -1.01,-2.05 l 25.53,-11.19 -24.52,13.24 18.44,-9.96 -18.03,10.7 -0.41,-0.74 18.44,-9.96 -18.03,10.7 -0.08,-0.13 c -0.6,-0.98 -2.64,-4.23 -5.39,-8.66 -9.74,-15.72 -29.46,-48.08 -47.08,-82.96 -8.82,-17.48 -17.13,-35.58 -23.49,-53.06 -3.18,-8.75 -5.87,-17.36 -7.85,-25.86 -1.96,-8.51 -3.27,-16.9 -3.29,-25.64 0,-5.31 0.49,-10.8 1.96,-16.54 1.46,-5.7 3.98,-11.74 8.12,-17.31 l 46.36,34.46"
         style="fill:#231f20;fill-opacity:1;fill-rule:nonzero;stroke:none"
         id="path214"
         inkscape:connector-curvature="0" /><path
         d="m 2714.79,1088.96 c -29.9,40.17 98.13,203.04 69.26,161.02 -28.86,-42.09 -251.17,-46.38 -298.14,-44.69 -46.9,1.61 -52.82,56.62 -55.94,47.96 -3.16,-8.52 -30.14,-80.57 -30.14,-80.57 44.79,-64.29 -71.85,-94.25 -106.4,-187.008 0,0 43.3,-15.313 87.2,-102.992 l -35.44,-103.2 c 0,0 34.57,-82.82 68.79,-111.39 -0.29,-9.059 83.54,51.531 83.22,42.5 84.68,-42.141 69.29,-20.461 80.08,-48.238 0,0 59.12,2.468 92.6,51.269 22.21,-14.422 34.66,-73.16 57.53,-89.641 0,0 79.59,36.352 73.7,91.411 l 52.9,56.859 -74.68,104.441"
         style="fill:#bdbcbc;fill-opacity:1;fill-rule:nonzero;stroke:none"
         id="path216"
         inkscape:connector-curvature="0" /><path
         d="m 2571.43,1083.8 c 523.76,27.74 983.41,256.37 983.41,256.37 105.92,55.03 26.94,-26.99 26.94,-26.99 C 3038.22,781.602 2627,775.621 2627,775.621 c 0,0 -142.66,50.527 -147.18,137.719 -6.49,128.22 91.61,170.46 91.61,170.46"
         style="fill:#231f20;fill-opacity:1;fill-rule:nonzero;stroke:none"
         id="path218"
         inkscape:connector-curvature="0" /><path
         d="m 2392.69,983.859 c 59,-17.41 105.3,-56.461 113.65,-141.918 l -9.74,94.02 c 0,0 -23.92,79.739 -101.45,69.959 -68.9,-8.658 -2.46,-22.061 -2.46,-22.061"
         style="fill:#231f20;fill-opacity:1;fill-rule:nonzero;stroke:none"
         id="path220"
         inkscape:connector-curvature="0" /><path
         d="m 2555.31,1071.84 c 24.75,58.15 25.96,94.41 25.96,94.41 l 25.99,-84.33 -51.95,-10.08"
         style="fill:#231f20;fill-opacity:1;fill-rule:nonzero;stroke:none"
         id="path222"
         inkscape:connector-curvature="0" /><path
         d="m 2627,775.621 c 26.62,-6.941 71.66,-17.633 97.57,-54.891 0,0 9.75,17.86 -52.15,65.43 L 2627,775.621"
         style="fill:#231f20;fill-opacity:1;fill-rule:nonzero;stroke:none"
         id="path224"
         inkscape:connector-curvature="0" /><path
         d="m 2974.41,997.48 c -9.83,-1.371 -22.13,-2.859 -36.13,-4.332 -46.35,-3.507 -86.37,-6.277 -120.56,-8.457 -103.34,-3.691 -215.59,2.301 -234.81,39.469 l -13.54,0.39 c 0,0 -56.29,-66.179 -7.75,-145.64 37.17,-60.89 89.82,-60.371 89.82,-60.371 0,0 262.6,58.781 425.19,149.109 200.15,111.202 388.88,277.292 388.88,277.292 0,0 -274.85,-212.45 -491.1,-247.46"
         style="fill:url(#linearGradient230);fill-opacity:1;fill-rule:evenodd;stroke:none"
         id="path232"
         inkscape:connector-curvature="0" /></g></g></svg>