<?xml version="1.0" encoding="UTF-8" standalone="no"?>
<!-- Created with Inkscape (http://www.inkscape.org/) -->

<svg
   xmlns:dc="http://purl.org/dc/elements/1.1/"
   xmlns:cc="http://creativecommons.org/ns#"
   xmlns:rdf="http://www.w3.org/1999/02/22-rdf-syntax-ns#"
   xmlns:svg="http://www.w3.org/2000/svg"
   xmlns="http://www.w3.org/2000/svg"
   xmlns:sodipodi="http://sodipodi.sourceforge.net/DTD/sodipodi-0.dtd"
   xmlns:inkscape="http://www.inkscape.org/namespaces/inkscape"
   version="1.1"
   id="svg2"
   xml:space="preserve"
   width="285.72"
   height="195.65334"
   viewBox="0 0 285.72 195.65334"
   sodipodi:docname="SPSU_WEB_REV.svg"
   inkscape:version="0.92.1 r15371"><metadata
     id="metadata8"><rdf:RDF><cc:Work
         rdf:about=""><dc:format>image/svg+xml</dc:format><dc:type
           rdf:resource="http://purl.org/dc/dcmitype/StillImage" /><dc:title></dc:title></cc:Work></rdf:RDF></metadata><defs
     id="defs6" /><sodipodi:namedview
     pagecolor="#ffffff"
     bordercolor="#666666"
     borderopacity="1"
     objecttolerance="10"
     gridtolerance="10"
     guidetolerance="10"
     inkscape:pageopacity="0"
     inkscape:pageshadow="2"
     inkscape:window-width="1440"
     inkscape:window-height="843"
     id="namedview4"
     showgrid="false"
     inkscape:pagecheckerboard="true"
     inkscape:zoom="1.2062151"
     inkscape:cx="145.34712"
     inkscape:cy="97.826668"
     inkscape:window-x="0"
     inkscape:window-y="31"
     inkscape:window-maximized="1"
     inkscape:current-layer="g10" /><g
     id="g10"
     inkscape:groupmode="layer"
     inkscape:label="ink_ext_XXXXXX"
     transform="matrix(1.3333333,0,0,-1.3333333,0,195.65333)"><g
       id="g12"
       transform="scale(0.1)"><path
         d="m 649.785,9.98828 c -16.82,0 -32.734,3.85152 -44.781,10.79302 L 54.7773,338.582 C 29.668,353.02 9.99609,387.039 9.99609,416.031 v 635.349 c 0,28.99 19.67191,63.04 44.78121,77.53 l 550.2267,317.61 c 12.027,7.01 27.941,10.87 44.781,10.87 16.84,0 32.735,-3.86 44.781,-10.89 L 1244.7,1128.91 c 25.08,-14.46 44.75,-48.52 44.75,-77.53 V 416.031 c 0,-29.011 -19.67,-63.051 -44.78,-77.48 L 694.52,20.7813 C 682.496,13.8398 666.605,9.98828 649.785,9.98828 v 0"
         style="fill:#008350;fill-opacity:1;fill-rule:nonzero;stroke:none"
         id="path14"
         inkscape:connector-curvature="0" /><path
         d="m 649.781,1467.39 c -18.57,0 -36.265,-4.35 -49.836,-12.23 L 49.7656,1137.57 C 21.8633,1121.48 0,1083.62 0,1051.38 V 416.031 c 0,-32.23 21.875,-70.07 49.793,-86.121 L 599.996,12.1211 C 613.563,4.28906 631.238,0 649.781,0 c 18.543,0 36.215,4.28906 49.746,12.1094 L 1249.69,329.93 c 27.89,16 49.76,53.84 49.76,86.101 v 635.349 c 0,32.26 -21.86,70.13 -49.78,86.21 l -550.139,317.6 c -13.484,7.85 -31.176,12.2 -49.75,12.2 z m 0,-20 c 14.43,0 28.852,-3.18 39.75,-9.52 l 550.159,-317.62 c 21.91,-12.62 39.76,-43.59 39.76,-68.87 V 416.031 c 0,-25.191 -17.85,-56.211 -39.76,-68.793 L 689.531,29.4297 C 678.633,23.1406 664.211,20 649.781,20 635.352,20 620.918,23.1406 610,29.4297 L 59.7656,347.238 C 37.8906,359.82 20,390.84 20,416.031 v 635.349 c 0,25.28 17.8906,56.25 39.7656,68.87 L 610,1437.87 c 10.918,6.34 25.352,9.52 39.781,9.52"
         style="fill:#ffffff;fill-opacity:1;fill-rule:nonzero;stroke:none"
         id="path16"
         inkscape:connector-curvature="0" /><path
         d="m 942.578,1007.4 h 69.652 V 577.828 c 0,-35.898 0,-71.914 43.59,-71.914 42.81,0 42.81,36.016 42.81,76.484 V 1007.4 h 70.39 V 586.227 c 0,-37.422 0,-139.176 -115.54,-139.176 -110.902,0 -110.902,97.144 -110.902,126.207 V 1007.4"
         style="fill:#ffffff;fill-opacity:1;fill-rule:nonzero;stroke:none"
         id="path18"
         inkscape:connector-curvature="0" /><path
         d="m 541.797,830.367 h -0.078 V 723.883 c 0,-35.938 0,-71.914 -43.594,-71.914 h -29.922 v 296.64 h 30 c 43.594,0 43.594,-35.976 43.594,-71.914 z M 500.508,1007.48 H 407.93 l 0.078,-0.08 H 398.32 V 445.988 h 69.883 v 147.035 h 32.188 c 110.937,0 110.937,97.188 110.937,126.25 v 50.938 h 0.039 v 111.055 c 0,29.101 0,126.214 -110.859,126.214"
         style="fill:#ffffff;fill-opacity:1;fill-rule:nonzero;stroke:none"
         id="path20"
         inkscape:connector-curvature="0" /><path
         d="m 272.227,738.453 c -52.813,76.485 -69.649,101.758 -69.649,156.797 0,26.836 3.086,54.297 35.977,54.297 26.015,0 28.281,-19.844 28.281,-36.68 v -35.859 h 65.039 v 36.64 c 0,55.821 -23.711,92.502 -91.016,92.502 -36.757,0 -69.648,-9.845 -91.054,-44.298 -12.227,-20.664 -18.399,-45.157 -18.399,-74.219 0,-69.649 31.407,-115.508 74.258,-177.5 48.945,-71.875 58.125,-94.844 58.125,-145.313 0,-28.281 -0.742,-62.695 -34.414,-62.695 -36.719,0 -36.719,33.633 -36.719,52.031 v 38.867 h -65.781 v -30.546 c 0,-27.461 0,-116.989 103.242,-116.989 19.883,0 55.821,2.34 81.133,35.973 16.016,22.187 25.195,56.641 25.195,92.578 0,69.531 -29.804,113.164 -64.218,164.414"
         style="fill:#ffffff;fill-opacity:1;fill-rule:nonzero;stroke:none"
         id="path22"
         inkscape:connector-curvature="0" /><path
         d="m 818.516,738.453 c -52.813,76.485 -69.688,101.758 -69.688,156.797 0,26.836 3.125,54.297 36.016,54.297 26.015,0 28.281,-19.844 28.281,-36.68 v -35.859 h 65.039 v 36.64 c 0,55.821 -23.711,92.502 -91.016,92.502 -36.757,0 -69.648,-9.845 -91.054,-44.298 -12.227,-20.664 -18.399,-45.157 -18.399,-74.219 0,-69.649 31.407,-115.508 74.258,-177.5 48.906,-71.875 58.125,-94.844 58.125,-145.313 0,-28.281 -0.781,-62.695 -34.414,-62.695 -36.719,0 -36.719,33.633 -36.719,52.031 v 38.867 h -65.82 v -30.546 c 0,-27.461 0,-116.989 103.281,-116.989 19.883,0 55.821,2.34 81.133,35.973 15.977,22.187 25.195,56.641 25.195,92.578 0,69.531 -29.843,113.164 -64.218,164.414"
         style="fill:#ffffff;fill-opacity:1;fill-rule:nonzero;stroke:none"
         id="path24"
         inkscape:connector-curvature="0" /><path
         d="m 1342.81,516.891 h 65.32 v -65.313 h -65.32 v 65.313"
         style="fill:#ffffff;fill-opacity:1;fill-rule:nonzero;stroke:none"
         id="path26"
         inkscape:connector-curvature="0" /><path
         d="m 1521.41,640.484 h 64.02 v 37.11 c 0,24.336 -12.19,37.148 -32.03,37.148 -19.85,0 -31.99,-12.812 -31.99,-37.148 z m 0,-51.25 v -44.14 c 0,-20.508 12.14,-32.031 31.99,-32.031 25,0 30.74,18.593 32.03,32.656 h 65.31 c 0,-26.875 -9.61,-51.875 -26.25,-69.141 -17.3,-17.93 -40.97,-28.828 -71.09,-28.828 -39.69,0 -69.77,18.602 -85.16,46.719 -8.94,16.679 -12.15,39.726 -12.15,65.976 v 106.914 c 0,26.25 3.21,49.297 12.15,65.957 15.39,28.164 45.47,46.739 85.16,46.739 60.19,0 97.34,-44.18 97.34,-101.172 v -89.649 h -129.33"
         style="fill:#ffffff;fill-opacity:1;fill-rule:nonzero;stroke:none"
         id="path28"
         inkscape:connector-curvature="0" /><path
         d="m 1763.95,557.242 c 0,-26.25 9.6,-44.179 32.03,-44.179 19.84,0 32.65,16.64 32.65,40.312 v 126.172 c 0,20.469 -14.1,35.195 -32.65,35.195 -24.96,0 -32.03,-17.929 -32.03,-38.398 z m 64.68,-76.211 c -16.64,-18.551 -29.45,-33.281 -62.11,-33.281 -26.25,0 -45.47,9.609 -56.99,30.742 -7.69,14.102 -10.9,33.946 -10.9,69.805 v 123.555 c 0,46.738 1.96,65.293 10.28,78.75 10.86,17.285 26.87,29.453 58.24,29.453 25.62,0 46.09,-12.168 60.19,-33.301 h 1.29 v 160.703 h 65.32 V 451.578 h -65.32 v 29.453"
         style="fill:#ffffff;fill-opacity:1;fill-rule:nonzero;stroke:none"
         id="path30"
         inkscape:connector-curvature="0" /><path
         d="m 2142.93,451.578 h -65.31 v 31.406 h -1.29 c -13.44,-20.504 -31.37,-35.234 -61.49,-35.234 -32.61,0 -67.22,21.133 -67.22,79.375 v 249.082 h 65.31 V 551.5 c 0,-23.711 11.52,-38.437 32.03,-38.437 24.34,0 32.66,16.015 32.66,44.843 v 218.301 h 65.31 V 451.578"
         style="fill:#ffffff;fill-opacity:1;fill-rule:nonzero;stroke:none"
         id="path32"
         inkscape:connector-curvature="0" /></g></g></svg>