<?xml version="1.0" encoding="UTF-8" standalone="no"?>
<!-- Created with Inkscape (http://www.inkscape.org/) -->

<svg
   xmlns:dc="http://purl.org/dc/elements/1.1/"
   xmlns:cc="http://creativecommons.org/ns#"
   xmlns:rdf="http://www.w3.org/1999/02/22-rdf-syntax-ns#"
   xmlns:svg="http://www.w3.org/2000/svg"
   xmlns="http://www.w3.org/2000/svg"
   xmlns:sodipodi="http://sodipodi.sourceforge.net/DTD/sodipodi-0.dtd"
   xmlns:inkscape="http://www.inkscape.org/namespaces/inkscape"
   version="1.1"
   id="svg2"
   xml:space="preserve"
   width="461.54666"
   height="471.95999"
   viewBox="0 0 461.54666 471.95999"
   sodipodi:docname="script_bw3.svg"
   inkscape:version="0.92.1 r15371"
   inkscape:export-filename="/home/kurt/Desktop/SPSU Visual Identity WIP/Athletics/Baseball/Script/script_bw3.png"
   inkscape:export-xdpi="41.599262"
   inkscape:export-ydpi="41.599262"><metadata
     id="metadata8"><rdf:RDF><cc:Work
         rdf:about=""><dc:format>image/svg+xml</dc:format><dc:type
           rdf:resource="http://purl.org/dc/dcmitype/StillImage" /><dc:title /></cc:Work></rdf:RDF></metadata><defs
     id="defs6"><clipPath
       clipPathUnits="userSpaceOnUse"
       id="clipPath26"><path
         d="m 3370.62,999.641 c 0,-61.141 -43.32,-136.289 -96.51,-166.782 L 1940.34,62.3086 c -52.9,-30.4375 -139.91,-30.4375 -192.84,0 L 413.461,832.84 C 360.336,863.398 316.988,938.5 316.988,999.641 V 2540.09 c 0,61.23 43.348,136.38 96.473,166.93 L 1747.5,3477.14 c 52.93,30.73 139.94,30.73 192.84,0 l 1333.77,-770.12 c 53.19,-30.55 96.51,-105.7 96.51,-166.92 z"
         id="path24"
         inkscape:connector-curvature="0" /></clipPath><clipPath
       clipPathUnits="userSpaceOnUse"
       id="clipPath96"><path
         d="M 2632.42,3066.98 C 3350,2621.33 3570.41,1678.37 3124.83,960.832 2679.18,243.309 1736.26,22.8789 1018.71,468.5 301.168,914.109 80.6836,1857.05 526.277,2574.54 971.926,3292.16 1914.88,3512.65 2632.42,3066.98 Z"
         id="path94"
         inkscape:connector-curvature="0" /></clipPath><radialGradient
       fx="0"
       fy="0"
       cx="0"
       cy="0"
       r="1"
       gradientUnits="userSpaceOnUse"
       gradientTransform="matrix(1510.05,0,0,-1510.05,1825.56,1767.75)"
       spreadMethod="pad"
       id="radialGradient104"><stop
         style="stop-opacity:1;stop-color:#ffffff"
         offset="0"
         id="stop98" /><stop
         style="stop-opacity:1;stop-color:#ffffff"
         offset="0.6317559"
         id="stop100" /><stop
         style="stop-opacity:1;stop-color:#7f7d7e"
         offset="1"
         id="stop102" /></radialGradient><clipPath
       clipPathUnits="userSpaceOnUse"
       id="clipPath114"><path
         d="m 1995.39,3081.89 c 219.04,-239.07 52.19,-748.19 -372.51,-1137 -424.66,-388.83 -946.4,-510.18 -1165.345,-271 -218.887,238.9 -52.07,747.95 372.582,1136.84 424.783,388.85 946.443,510.2 1165.273,271.16 z"
         id="path112"
         inkscape:connector-curvature="0" /></clipPath><linearGradient
       x1="0"
       y1="0"
       x2="1"
       y2="0"
       gradientUnits="userSpaceOnUse"
       gradientTransform="matrix(-906.132,966.228,966.228,906.132,1658.79,1916.88)"
       spreadMethod="pad"
       id="linearGradient120"><stop
         style="stop-opacity:1;stop-color:#f3f3f4"
         offset="0"
         id="stop116" /><stop
         style="stop-opacity:1;stop-color:#ffffff"
         offset="1"
         id="stop118" /></linearGradient></defs><sodipodi:namedview
     pagecolor="#ffffff"
     bordercolor="#666666"
     borderopacity="1"
     objecttolerance="10"
     gridtolerance="10"
     guidetolerance="10"
     inkscape:pageopacity="0"
     inkscape:pageshadow="2"
     inkscape:window-width="1440"
     inkscape:window-height="843"
     id="namedview4"
     showgrid="false"
     inkscape:zoom="1.3263836"
     inkscape:cx="230.77333"
     inkscape:cy="235.98"
     inkscape:window-x="0"
     inkscape:window-y="31"
     inkscape:window-maximized="1"
     inkscape:current-layer="g10" /><g
     id="g10"
     inkscape:groupmode="layer"
     inkscape:label="ink_ext_XXXXXX"
     transform="matrix(1.3333333,0,0,-1.3333333,0,471.96)"><g
       id="g12"
       transform="scale(0.1)"><path
         d="m 3370.62,999.641 c 0,-61.141 -43.32,-136.282 -96.51,-166.782 L 1940.34,62.3086 c -52.9,-30.4375 -139.91,-30.4375 -192.84,0 L 413.461,832.84 C 360.336,863.398 316.988,938.5 316.988,999.641 V 2540.09 c 0,61.23 43.348,136.38 96.473,166.93 L 1747.5,3477.14 c 52.93,30.73 139.94,30.73 192.84,0 l 1333.77,-770.12 c 53.19,-30.55 96.51,-105.7 96.51,-166.92 z"
         style="fill:none;stroke:#a7a5a6;stroke-width:78.97440338;stroke-linecap:butt;stroke-linejoin:miter;stroke-miterlimit:4;stroke-dasharray:none;stroke-opacity:1"
         id="path14"
         inkscape:connector-curvature="0" /><path
         d="m 3370.62,999.641 c 0,-61.141 -43.32,-136.282 -96.51,-166.782 L 1940.34,62.3086 c -52.9,-30.4375 -139.91,-30.4375 -192.84,0 L 413.461,832.84 C 360.336,863.398 316.988,938.5 316.988,999.641 V 2540.09 c 0,61.23 43.348,136.38 96.473,166.93 L 1747.5,3477.14 c 52.93,30.73 139.94,30.73 192.84,0 l 1333.77,-770.12 c 53.19,-30.55 96.51,-105.7 96.51,-166.92 z"
         style="fill:none;stroke:#ffffff;stroke-width:39.48720169;stroke-linecap:butt;stroke-linejoin:miter;stroke-miterlimit:4;stroke-dasharray:none;stroke-opacity:1"
         id="path16"
         inkscape:connector-curvature="0" /><path
         d="m 3370.62,999.641 c 0,-61.141 -43.32,-136.289 -96.51,-166.782 L 1940.34,62.3086 c -52.9,-30.4375 -139.91,-30.4375 -192.84,0 L 413.461,832.84 C 360.336,863.398 316.988,938.5 316.988,999.641 V 2540.09 c 0,61.23 43.348,136.38 96.473,166.93 L 1747.5,3477.14 c 52.93,30.73 139.94,30.73 192.84,0 l 1333.77,-770.12 c 53.19,-30.55 96.51,-105.7 96.51,-166.92 V 999.641"
         style="fill:#b9b7b8;fill-opacity:1;fill-rule:nonzero;stroke:none"
         id="path18"
         inkscape:connector-curvature="0" /><g
         id="g20"><g
           id="g22"
           clip-path="url(#clipPath26)"><path
             d="M 347.734,3601.02 V -347.699"
             style="fill:none;stroke:#a7a5a6;stroke-width:13.16240025;stroke-linecap:butt;stroke-linejoin:miter;stroke-miterlimit:4;stroke-dasharray:none;stroke-opacity:1"
             id="path28"
             inkscape:connector-curvature="0" /><path
             d="M 378.445,3601.02 V -347.699"
             style="fill:none;stroke:#a7a5a6;stroke-width:13.16240025;stroke-linecap:butt;stroke-linejoin:miter;stroke-miterlimit:4;stroke-dasharray:none;stroke-opacity:1"
             id="path30"
             inkscape:connector-curvature="0" /><path
             d="M 558.336,3601.02 V -347.699"
             style="fill:none;stroke:#a7a5a6;stroke-width:13.16240025;stroke-linecap:butt;stroke-linejoin:miter;stroke-miterlimit:4;stroke-dasharray:none;stroke-opacity:1"
             id="path32"
             inkscape:connector-curvature="0" /><path
             d="M 589.047,3601.02 V -347.699"
             style="fill:none;stroke:#a7a5a6;stroke-width:13.16240025;stroke-linecap:butt;stroke-linejoin:miter;stroke-miterlimit:4;stroke-dasharray:none;stroke-opacity:1"
             id="path34"
             inkscape:connector-curvature="0" /><path
             d="M 768.93,3601.02 V -347.699"
             style="fill:none;stroke:#a7a5a6;stroke-width:13.16240025;stroke-linecap:butt;stroke-linejoin:miter;stroke-miterlimit:4;stroke-dasharray:none;stroke-opacity:1"
             id="path36"
             inkscape:connector-curvature="0" /><path
             d="M 799.645,3601.02 V -347.699"
             style="fill:none;stroke:#a7a5a6;stroke-width:13.16240025;stroke-linecap:butt;stroke-linejoin:miter;stroke-miterlimit:4;stroke-dasharray:none;stroke-opacity:1"
             id="path38"
             inkscape:connector-curvature="0" /><path
             d="M 979.531,3601.02 V -347.699"
             style="fill:none;stroke:#a7a5a6;stroke-width:13.16240025;stroke-linecap:butt;stroke-linejoin:miter;stroke-miterlimit:4;stroke-dasharray:none;stroke-opacity:1"
             id="path40"
             inkscape:connector-curvature="0" /><path
             d="M 1010.24,3601.02 V -347.699"
             style="fill:none;stroke:#a7a5a6;stroke-width:13.16240025;stroke-linecap:butt;stroke-linejoin:miter;stroke-miterlimit:4;stroke-dasharray:none;stroke-opacity:1"
             id="path42"
             inkscape:connector-curvature="0" /><path
             d="M 1190.14,3601.02 V -347.699"
             style="fill:none;stroke:#a7a5a6;stroke-width:13.16240025;stroke-linecap:butt;stroke-linejoin:miter;stroke-miterlimit:4;stroke-dasharray:none;stroke-opacity:1"
             id="path44"
             inkscape:connector-curvature="0" /><path
             d="M 1220.84,3601.02 V -347.699"
             style="fill:none;stroke:#a7a5a6;stroke-width:13.16240025;stroke-linecap:butt;stroke-linejoin:miter;stroke-miterlimit:4;stroke-dasharray:none;stroke-opacity:1"
             id="path46"
             inkscape:connector-curvature="0" /><path
             d="M 1400.73,3601.02 V -347.699"
             style="fill:none;stroke:#a7a5a6;stroke-width:13.16240025;stroke-linecap:butt;stroke-linejoin:miter;stroke-miterlimit:4;stroke-dasharray:none;stroke-opacity:1"
             id="path48"
             inkscape:connector-curvature="0" /><path
             d="M 1431.44,3601.02 V -347.699"
             style="fill:none;stroke:#a7a5a6;stroke-width:13.16240025;stroke-linecap:butt;stroke-linejoin:miter;stroke-miterlimit:4;stroke-dasharray:none;stroke-opacity:1"
             id="path50"
             inkscape:connector-curvature="0" /><path
             d="M 1611.33,3601.02 V -347.699"
             style="fill:none;stroke:#a7a5a6;stroke-width:13.16240025;stroke-linecap:butt;stroke-linejoin:miter;stroke-miterlimit:4;stroke-dasharray:none;stroke-opacity:1"
             id="path52"
             inkscape:connector-curvature="0" /><path
             d="M 1642.04,3601.02 V -347.699"
             style="fill:none;stroke:#a7a5a6;stroke-width:13.16240025;stroke-linecap:butt;stroke-linejoin:miter;stroke-miterlimit:4;stroke-dasharray:none;stroke-opacity:1"
             id="path54"
             inkscape:connector-curvature="0" /><path
             d="M 1821.93,3601.02 V -347.699"
             style="fill:none;stroke:#a7a5a6;stroke-width:13.16240025;stroke-linecap:butt;stroke-linejoin:miter;stroke-miterlimit:4;stroke-dasharray:none;stroke-opacity:1"
             id="path56"
             inkscape:connector-curvature="0" /><path
             d="M 1852.64,3601.02 V -347.699"
             style="fill:none;stroke:#a7a5a6;stroke-width:13.16240025;stroke-linecap:butt;stroke-linejoin:miter;stroke-miterlimit:4;stroke-dasharray:none;stroke-opacity:1"
             id="path58"
             inkscape:connector-curvature="0" /><path
             d="M 2032.52,3601.02 V -347.699"
             style="fill:none;stroke:#a7a5a6;stroke-width:13.16240025;stroke-linecap:butt;stroke-linejoin:miter;stroke-miterlimit:4;stroke-dasharray:none;stroke-opacity:1"
             id="path60"
             inkscape:connector-curvature="0" /><path
             d="M 2063.25,3601.02 V -347.699"
             style="fill:none;stroke:#a7a5a6;stroke-width:13.16240025;stroke-linecap:butt;stroke-linejoin:miter;stroke-miterlimit:4;stroke-dasharray:none;stroke-opacity:1"
             id="path62"
             inkscape:connector-curvature="0" /><path
             d="M 2243.12,3601.02 V -347.699"
             style="fill:none;stroke:#a7a5a6;stroke-width:13.16240025;stroke-linecap:butt;stroke-linejoin:miter;stroke-miterlimit:4;stroke-dasharray:none;stroke-opacity:1"
             id="path64"
             inkscape:connector-curvature="0" /><path
             d="M 2273.84,3601.02 V -347.699"
             style="fill:none;stroke:#a7a5a6;stroke-width:13.16240025;stroke-linecap:butt;stroke-linejoin:miter;stroke-miterlimit:4;stroke-dasharray:none;stroke-opacity:1"
             id="path66"
             inkscape:connector-curvature="0" /><path
             d="M 2453.72,3601.02 V -347.699"
             style="fill:none;stroke:#a7a5a6;stroke-width:13.16240025;stroke-linecap:butt;stroke-linejoin:miter;stroke-miterlimit:4;stroke-dasharray:none;stroke-opacity:1"
             id="path68"
             inkscape:connector-curvature="0" /><path
             d="M 2484.44,3601.02 V -347.699"
             style="fill:none;stroke:#a7a5a6;stroke-width:13.16240025;stroke-linecap:butt;stroke-linejoin:miter;stroke-miterlimit:4;stroke-dasharray:none;stroke-opacity:1"
             id="path70"
             inkscape:connector-curvature="0" /><path
             d="M 2664.32,3601.02 V -347.699"
             style="fill:none;stroke:#a7a5a6;stroke-width:13.16240025;stroke-linecap:butt;stroke-linejoin:miter;stroke-miterlimit:4;stroke-dasharray:none;stroke-opacity:1"
             id="path72"
             inkscape:connector-curvature="0" /><path
             d="M 2695.03,3601.02 V -347.699"
             style="fill:none;stroke:#a7a5a6;stroke-width:13.16240025;stroke-linecap:butt;stroke-linejoin:miter;stroke-miterlimit:4;stroke-dasharray:none;stroke-opacity:1"
             id="path74"
             inkscape:connector-curvature="0" /><path
             d="M 2874.92,3601.02 V -347.699"
             style="fill:none;stroke:#a7a5a6;stroke-width:13.16240025;stroke-linecap:butt;stroke-linejoin:miter;stroke-miterlimit:4;stroke-dasharray:none;stroke-opacity:1"
             id="path76"
             inkscape:connector-curvature="0" /><path
             d="M 2905.64,3601.02 V -347.699"
             style="fill:none;stroke:#a7a5a6;stroke-width:13.16240025;stroke-linecap:butt;stroke-linejoin:miter;stroke-miterlimit:4;stroke-dasharray:none;stroke-opacity:1"
             id="path78"
             inkscape:connector-curvature="0" /><path
             d="M 3085.51,3601.02 V -347.699"
             style="fill:none;stroke:#a7a5a6;stroke-width:13.16240025;stroke-linecap:butt;stroke-linejoin:miter;stroke-miterlimit:4;stroke-dasharray:none;stroke-opacity:1"
             id="path80"
             inkscape:connector-curvature="0" /><path
             d="M 3116.24,3601.02 V -347.699"
             style="fill:none;stroke:#a7a5a6;stroke-width:13.16240025;stroke-linecap:butt;stroke-linejoin:miter;stroke-miterlimit:4;stroke-dasharray:none;stroke-opacity:1"
             id="path82"
             inkscape:connector-curvature="0" /><path
             d="M 3296.12,3601.02 V -347.699"
             style="fill:none;stroke:#a7a5a6;stroke-width:13.16240025;stroke-linecap:butt;stroke-linejoin:miter;stroke-miterlimit:4;stroke-dasharray:none;stroke-opacity:1"
             id="path84"
             inkscape:connector-curvature="0" /><path
             d="M 3326.83,3601.02 V -347.699"
             style="fill:none;stroke:#a7a5a6;stroke-width:13.16240025;stroke-linecap:butt;stroke-linejoin:miter;stroke-miterlimit:4;stroke-dasharray:none;stroke-opacity:1"
             id="path86"
             inkscape:connector-curvature="0" /></g></g><path
         d="m 3370.62,999.641 c 0,-61.141 -43.32,-136.289 -96.51,-166.782 L 1940.34,62.3086 c -52.9,-30.4375 -139.91,-30.4375 -192.84,0 L 413.461,832.84 C 360.336,863.398 316.988,938.5 316.988,999.641 V 2540.09 c 0,61.23 43.348,136.38 96.473,166.93 L 1747.5,3477.14 c 52.93,30.73 139.94,30.73 192.84,0 l 1333.77,-770.12 c 53.19,-30.55 96.51,-105.7 96.51,-166.92 z"
         style="fill:none;stroke:#a7a5a6;stroke-width:13.16240025;stroke-linecap:butt;stroke-linejoin:miter;stroke-miterlimit:4;stroke-dasharray:none;stroke-opacity:1"
         id="path88"
         inkscape:connector-curvature="0" /><g
         id="g90"><g
           id="g92"
           clip-path="url(#clipPath96)"><path
             d="M 2632.42,3066.98 C 3350,2621.33 3570.41,1678.37 3124.83,960.832 2679.18,243.309 1736.26,22.8789 1018.71,468.5 301.168,914.109 80.6836,1857.05 526.277,2574.54 971.926,3292.16 1914.88,3512.65 2632.42,3066.98"
             style="fill:url(#radialGradient104);fill-opacity:1;fill-rule:nonzero;stroke:none"
             id="path106"
             inkscape:connector-curvature="0" /></g></g><g
         id="g108"><g
           id="g110"
           clip-path="url(#clipPath114)"><path
             d="m 1995.39,3081.89 c 219.04,-239.07 52.19,-748.19 -372.51,-1137 -424.66,-388.83 -946.4,-510.18 -1165.345,-271 -218.887,238.9 -52.07,747.95 372.582,1136.84 424.783,388.85 946.443,510.2 1165.273,271.16"
             style="fill:url(#linearGradient120);fill-opacity:1;fill-rule:nonzero;stroke:none"
             id="path122"
             inkscape:connector-curvature="0" /></g></g><path
         d="m 2991.93,849.621 c -9.84,-12.68 -20.12,-24.961 -30.25,-37.371 0.7,0.492 1.42,0.59 2.16,1.27 11.29,9.402 20.53,22.128 28.09,36.101"
         style="fill:#90af8b;fill-opacity:1;fill-rule:nonzero;stroke:none"
         id="path124"
         inkscape:connector-curvature="0" /><path
         d="m 3150.85,1104.5 c -19.91,-40.25 -41.86,-80.1 -65.85,-119.219 36.92,35.449 56.11,83.519 65.85,119.219"
         style="fill:#90af8b;fill-opacity:1;fill-rule:nonzero;stroke:none"
         id="path126"
         inkscape:connector-curvature="0" /><path
         d="m 3085,985.281 c 23.99,39.119 45.94,78.969 65.85,119.219 7.11,26.62 9.26,46.42 9.45,48.87 1.01,11.32 -7.42,21.46 -18.84,22.3 -11.33,1.13 -21.49,-7.3 -22.39,-18.69 -0.24,-1.56 -14.8,-150.18 -120.39,-174.859 l -9.96,-2.289 c -0.4,0.059 -0.85,0.039 -1.22,0.199 89.58,65.349 94.39,198.359 94.56,204.899 0.38,15.25 -11.79,27.87 -27,28.16 -15.29,0.45 -27.94,-11.7 -28.35,-26.81 -0.06,-1.55 -4.92,-148.01 -106.52,-180.16 l -17.69,-14.96 c -3.19,0.512 -6.71,0.68 -10,1.051 70.91,70.319 83.61,192.389 84.21,199.029 1.42,15.17 -9.8,28.63 -24.96,29.94 -15.19,1.5 -28.66,-9.65 -30.13,-24.88 -0.15,-1.68 -16.9,-166.84 -115.3,-194.07 l -8.53,-2.339 c -5.86,0.409 -11.86,0.639 -17.87,0.959 72.89,73.45 75.42,188.26 75.45,194.49 0.25,15.27 -12.05,27.71 -27.26,27.85 -15.3,0.22 -27.84,-12.11 -27.92,-27.34 -0.1,-1.49 -3.39,-155.1 -116.43,-191.84 -5.29,0.14 -10.63,0.16 -16.09,0.31 52.3,59.65 59.94,140.63 53.39,186.43 -2.05,15.14 -16.01,25.6 -31.14,23.5 -15.06,-1.96 -25.63,-16.1 -23.6,-31.04 0.79,-5.57 16.29,-131.33 -89.22,-179.37 -18.66,-0.3 -37.84,-0.84 -57.52,-1.61 41.44,69.71 56.99,155.63 59.35,169.5 3.03,18.88 -9.62,36.56 -28.5,39.7 -18.87,3.15 -36.64,-9.7 -39.78,-28.53 -6.23,-37.7 -33.29,-141.68 -80.75,-184.888 -24.61,-1.52 -49.94,-3.34 -75.88,-5.352 19.42,65.08 26.84,148.32 29.31,192.11 1.28,20.98 -14.84,38.97 -35.77,40.14 -20.99,1.21 -38.95,-14.86 -40.11,-35.78 -4.89,-83.73 -19.93,-168.11 -35.34,-203.689 -31.85,-3.25 -64.63,-6.601 -98.46,-10.73 6.91,38.459 15.74,98.419 26.79,193.299 1.83,15.06 -5.55,29.2 -17.7,36.65 -4.65,2.91 -9.82,4.9 -15.62,5.58 -20.85,2.42 -39.7,-12.46 -42.14,-33.36 -9.22,-78.71 -21.97,-169.72 -30.52,-212.321 -31.67,-4.258 -64.28,-9.028 -97.57,-14.2 3.27,31.641 6.13,84.941 5.98,175.921 0.01,21.01 -17.02,37.89 -37.98,37.93 -21.02,0 -38.05,-17.05 -37.99,-38.03 0.09,-75.76 -3.14,-167.25 -8.39,-188.578 -37.99,-6.711 -74.96,-14.063 -111.07,-22.051 -3.84,36.57 -8.02,111.019 -10.18,175.179 -0.78,21 -18.39,37.32 -39.4,36.68 -20.94,-0.76 -37.33,-18.3 -36.67,-39.26 1.61,-45.12 5.48,-140.33 12.13,-190.041 -29.08,-7.218 -57.49,-14.757 -85.09,-22.73 -5.45,40.883 -13.09,106.641 -19.85,167.401 -1.3,12.13 -8.09,22.32 -17.7,28.24 -6.92,4.32 -15.36,6.43 -24.18,5.49 -20.92,-2.28 -35.99,-21.07 -33.65,-41.91 10.49,-96.53 17.16,-150.491 21.67,-181.452 -33.29,-10.617 -65.38,-21.476 -96.45,-32.726 -19.53,35.469 -35.98,131.207 -42.07,186.398 -2.15,18.91 -19.11,32.58 -38.23,30.55 -18.94,-2.15 -32.59,-19.1 -30.46,-38.12 2.74,-25.121 17.03,-140.668 46.43,-202.988 -31.37,-12.352 -61.44,-24.852 -90.16,-37.332 -15.09,35.039 -35.02,112.48 -47.58,179.609 -2.93,15.043 -17.3,24.793 -32.39,22.07 -14.97,-2.867 -24.92,-17.218 -22.01,-32.3 8.5,-45.18 27.91,-137.559 52.36,-191.719 -20.11,-9.379 -39.36,-18.668 -57.96,-28.031 -43.7,18.363 -59.51,123.031 -60.23,174.382 -0.24,15.231 -12.84,27.481 -28.1,27.301 -15.19,-0.211 -27.48,-12.601 -27.19,-27.832 0.17,-17.601 3.94,-143.07 60.93,-201.699 -11.16,-5.941 -21.88,-11.801 -32.35,-17.602 l -10.57,1.45 c -38.55,4.839 -66.36,99.242 -72.98,161.402 -1.7,15.258 -15.3,26.199 -30.51,24.57 -15.094,-1.562 -26.117,-15.133 -24.473,-30.429 1.758,-16.793 17.043,-142.5 78.103,-191.481 -4.57,-2.769 -8.96,-5.41 -13.42,-8.09 l 0.04,1.219 -16.41,3.02 c -55.594,9.902 -84.656,107.312 -91.207,143.992 -2.031,11.289 -12.824,18.918 -24.004,16.808 -11.332,-1.968 -18.887,-12.672 -16.856,-23.941 0.985,-5.59 22.25,-122.149 89.981,-164.137 3.696,-2.371 7.666,-4.262 11.786,-6 -8.759,-5.582 -17.001,-10.883 -24.845,-16.211 l -1.55,5.27 -15.188,0.301 c -36.09,0.597 -76.238,83.359 -93.187,141.929 -3.129,11 -14.637,17.399 -25.661,14.16 -11.035,-3.14 -17.351,-14.632 -14.199,-25.621 3.207,-11.058 23.246,-76.781 58.055,-123.66 41.883,-32.808 85.867,-63.668 132.105,-92.441 36.97,-22.949 74.57,-43.547 112.43,-62.93 0.14,0.313 0.3,0.531 0.41,0.781 2.33,11.25 -4.86,22.27 -16.04,24.5 -69.44,14.43 -104.7,54.16 -121.292,81.442 8.852,5.429 18.162,10.898 28.292,16.82 10.41,-23.07 29.3,-50 63.62,-71.352 24.41,-15.14 56.56,-27.359 98.88,-32.769 11.34,-1.609 21.79,6.289 23.26,17.648 1.5,11.371 -6.49,21.782 -17.82,23.34 -87.09,11.449 -119.8,53.91 -132.26,83.34 12.5,6.84 25.51,14.012 39.29,21.211 13.17,-23.809 37.1,-56.52 78.62,-82.32 23.46,-14.532 52.34,-26.782 88,-33.891 14.95,-3.059 29.52,6.68 32.45,21.66 3.05,15 -6.67,29.61 -21.68,32.5 -76.24,15.313 -112.65,59.75 -128.38,87.231 13.81,6.871 28.22,13.832 43.06,20.879 2.9,-15.239 9.21,-33.239 22.09,-51.411 11.5,-16.367 26.59,-30.269 45.18,-41.808 26.09,-16.25 59.06,-27.578 98.68,-34.09 15.1,-2.32 29.3,7.871 31.76,23.012 2.38,15.078 -7.9,29.238 -22.95,31.617 -113.05,18.262 -122.35,76.453 -122.01,97.012 13.07,5.859 26.63,11.781 40.41,17.66 2.11,-12.11 6.56,-25.961 15.45,-40.551 11.73,-19.219 28.73,-35.801 50.96,-49.629 26.15,-16.211 59.43,-28.531 99.71,-36.93 14.93,-3.179 29.52,6.43 32.7,21.43 3.12,14.84 -6.51,29.551 -21.41,32.649 -57.19,11.98 -96.57,32.8 -113.96,60.121 -9.13,14.339 -10.37,27.359 -10.11,34.769 24.43,9.781 49.63,19.57 75.95,29.27 2.84,-19.141 9.13,-40.211 22.04,-60.578 12.61,-19.942 29.61,-36.532 50.66,-49.672 22.81,-14.098 50.48,-24.239 82.73,-30.2 18.84,-3.41 36.79,8.989 40.22,27.821 3.47,18.769 -8.96,36.75 -27.68,40.211 -42.19,7.769 -71.57,23.968 -87.16,48.258 -10.25,15.96 -13.46,33.519 -13.83,47.539 30.5,10.312 62.17,20.453 94.98,30.293 4.98,-37.461 27.55,-92.36 105.81,-147.243 0.54,-0.41 1.18,-0.757 1.75,-1.23 16.99,-10.469 39.56,-6 51.11,10.562 12.11,17.129 7.91,40.899 -9.24,52.93 -74.7,52.52 -76.05,95 -74.84,106.27 26.98,7.269 54.57,14.398 82.86,21.16 7.74,-36.43 31.56,-84.871 94.79,-136.43 1.21,-1 2.64,-1.891 4.01,-2.711 15.97,-10 37.24,-6.699 49.5,8.301 13.3,16.148 10.75,40.187 -5.53,53.488 -49.2,39.871 -64.27,73.262 -68.46,94.199 31.59,6.684 63.92,13.153 97.02,19.082 3.89,-36.558 21.76,-85.621 74.08,-143.378 2.58,-2.75 5.2,-5.051 8.19,-6.891 14.05,-8.711 32.75,-7.402 45.56,4.32 15.59,14 16.74,38.039 2.65,53.649 -44.09,48.492 -54.01,83.98 -54.93,104.902 36.05,5.68 71.2,10.977 105.53,15.777 8.08,-40 24.85,-109.55 47.63,-136.988 13.37,-16.09 36.88,-18.141 53.25,-4.98 16.13,13.418 18.49,37.32 5.23,53.609 -7.69,9.609 -20.67,52.559 -30.48,98.52 29.26,3.691 58.02,7.23 85.88,10.312 2.73,-42.031 4.77,-94.922 1.51,-110.992 -4.13,-20.551 9.35,-40.531 29.88,-44.731 20.6,-4.097 40.65,9.301 44.77,29.84 5.78,29.403 1.93,98.731 -0.53,133.871 23.27,2.301 46.03,4.41 68.31,6.289 6.71,-17.5 23.27,-67.929 13.69,-115.527 -3.75,-18.613 8.2,-36.934 27.03,-40.762 18.61,-3.73 36.93,8.34 40.62,27.071 10.65,52.25 -0.48,103.519 -10.16,134.55 29.81,2.207 58.78,3.848 86.45,5.161 8.05,-34.77 12.55,-85.321 -8.79,-103.731 -11.64,-9.949 -12.91,-27.5 -2.96,-39.051 10.04,-11.558 27.5,-12.828 39,-2.808 42.97,37.027 37.61,105.347 28.86,147.968 21.02,0.7 41.11,1.192 60.84,1.579 4.77,-25.368 7.1,-67.579 -20.59,-95.547 -10.72,-10.762 -10.73,-28.223 0.06,-39.043 10.83,-10.758 28.41,-10.66 39.15,0.203 41.67,41.738 42.72,97.789 37.34,134.957 21.77,0.082 43.03,0 63.03,-0.367 0.12,-24.364 -4.32,-61.68 -29.13,-86.922 -10.51,-10.84 -10.36,-28.301 0.52,-39.02 10.91,-10.718 28.37,-10.57 39.09,0.309 37.39,38.383 44.65,89.922 44.71,123.973 17.19,-0.692 33.63,-1.391 49.13,-2.332 -9.88,-39.61 -23.86,-76.911 -36.29,-86.559 -12.03,-9.512 -14.01,-26.82 -4.52,-38.852 9.3,-12.07 26.77,-14.117 38.71,-4.648 29.91,23.418 48.52,84.848 58.02,126.18 10.34,-0.879 20.17,-1.7 29.55,-2.641 -6.42,-30.98 -19.31,-72.621 -40.66,-90.371 -8.77,-7.379 -10.07,-20.387 -2.71,-29.219 6.71,-8.238 18.3,-9.398 27.06,-3.91 10.13,12.41 20.41,24.691 30.25,37.371 14.77,27.051 23.12,58.938 27.51,81.598 10.2,-1.289 19.46,-2.52 28.3,-3.707 8.21,11.968 16.09,24.078 23.93,36.418 -3.34,0.761 -6.32,1.492 -9.92,2.332 8.55,5.738 16.09,12.199 23.25,19.019"
         style="fill:#656263;fill-opacity:1;fill-rule:nonzero;stroke:none"
         id="path128"
         inkscape:connector-curvature="0" /><path
         d="m 2618.79,3005.15 c -8.9,-5.38 -18.27,-10.88 -28.32,-16.8 -10.47,23.01 -29.27,50.01 -63.63,71.33 -24.46,15.2 -56.57,27.28 -98.88,32.85 -11.34,1.52 -21.76,-6.39 -23.25,-17.75 -1.58,-11.42 6.38,-21.83 17.86,-23.37 86.97,-11.36 119.74,-53.98 132.08,-83.39 -12.4,-6.84 -25.43,-13.84 -39.17,-21.06 -13.22,23.81 -37.16,56.39 -78.66,82.16 -23.45,14.6 -52.33,26.76 -87.99,33.92 -14.99,3.05 -29.5,-6.74 -32.51,-21.67 -3.03,-14.98 6.73,-29.6 21.71,-32.55 76.24,-15.15 112.73,-59.62 128.43,-87.05 -13.87,-6.93 -28.2,-13.86 -43.07,-20.97 -3.04,15.3 -9.16,33.31 -22.08,51.43 -11.44,16.38 -26.58,30.3 -45.07,41.79 -26.2,16.32 -59.17,27.69 -98.86,33.98 -15.13,2.46 -29.26,-7.78 -31.65,-22.84 -2.41,-15.05 7.75,-29.27 22.82,-31.68 113.06,-18.28 122.38,-76.41 122.11,-96.98 -13.2,-5.75 -26.58,-11.75 -40.43,-17.66 -2.16,12.09 -6.62,26 -15.43,40.55 -11.69,19.21 -28.83,35.77 -51.01,49.58 -26.1,16.19 -59.49,28.56 -99.63,37.02 -15.02,3.01 -29.67,-6.47 -32.78,-21.39 -3.07,-15.03 6.52,-29.73 21.43,-32.77 57.15,-11.92 96.51,-32.7 114.05,-60.2 9.05,-14.29 10.22,-27.32 9.95,-34.73 -24.38,-9.72 -49.61,-19.54 -75.88,-29.11 -2.93,19.05 -9.13,40.19 -22.05,60.48 -12.63,20.08 -29.58,36.55 -50.63,49.68 -22.78,14.18 -50.41,24.19 -82.74,30.19 -18.81,3.43 -36.76,-8.99 -40.27,-27.69 -3.41,-18.88 8.92,-36.95 27.77,-40.34 42.22,-7.79 71.49,-24 87.15,-48.25 10.21,-15.96 13.3,-33.53 13.78,-47.63 -30.53,-10.25 -62.24,-20.35 -94.89,-30.23 -5.01,37.52 -27.61,92.45 -105.77,147.26 -0.62,0.35 -1.25,0.86 -1.9,1.19 -16.94,10.55 -39.51,6.12 -51.2,-10.53 -11.97,-17.16 -7.82,-40.82 9.35,-52.87 74.8,-52.51 76.06,-95.04 74.79,-106.25 -26.88,-7.34 -54.56,-14.33 -82.75,-21.21 -7.78,36.48 -31.52,84.85 -94.78,136.37 -1.37,1.06 -2.68,2.04 -4.02,2.84 -15.99,9.92 -37.3,6.63 -49.49,-8.4 -13.25,-16.23 -10.77,-40.17 5.48,-53.38 49.18,-40 64.32,-73.44 68.45,-94.11 -31.69,-6.87 -63.89,-13.32 -97.13,-19.24 -3.76,36.46 -21.6,85.63 -74.07,143.42 -2.44,2.68 -5.14,4.93 -8.16,6.77 -14.01,8.71 -32.64,7.5 -45.55,-4.11 -15.48,-14.13 -16.66,-38.2 -2.56,-53.79 44.03,-48.54 54.04,-84.02 54.86,-104.96 -36.08,-5.66 -71.17,-10.91 -105.45,-15.7 -8.05,40 -24.94,109.48 -47.78,136.95 -2.58,3.21 -5.63,5.86 -9.09,8.09 -13.32,8.25 -31.09,7.37 -43.94,-3.08 -16.22,-13.29 -18.37,-37.35 -5.42,-53.6 7.76,-9.59 20.82,-52.57 30.6,-98.5 -29.32,-3.77 -58.07,-7.32 -85.84,-10.4 -2.87,42.01 -4.83,94.87 -1.62,110.99 4.19,20.61 -9.24,40.61 -29.82,44.74 -20.55,4.12 -40.66,-9.26 -44.74,-29.86 -5.74,-29.29 -1.96,-98.69 0.46,-133.87 -23.31,-2.31 -46.1,-4.4 -68.31,-6.18 -6.7,17.53 -23.32,67.8 -13.69,115.52 3.86,18.6 -8.2,36.88 -26.94,40.66 -18.71,3.81 -36.94,-8.34 -40.73,-26.89 -10.64,-52.36 0.47,-103.62 10.26,-134.74 -29.86,-2.06 -58.92,-3.82 -86.52,-5.2 -8.05,34.91 -12.58,85.5 8.92,103.82 11.54,10.06 12.8,27.44 2.78,39.09 -9.91,11.49 -27.4,12.8 -38.98,2.77 -42.91,-36.94 -37.5,-105.27 -28.75,-147.98 -21.098,-0.7 -41.289,-1.17 -60.992,-1.61 -4.699,25.46 -7.031,67.63 20.656,95.51 10.758,10.84 10.762,28.41 -0.055,39.09 -10.859,10.76 -28.355,10.74 -39.097,-0.12 -41.774,-41.82 -42.676,-97.89 -37.36,-135.1 -21.804,0.09 -43.07,0.15 -63.132,0.56 -0.055,24.35 4.488,61.55 29.082,86.74 10.703,10.91 10.503,28.48 -0.364,39.21 -10.91,10.63 -28.386,10.38 -39.066,-0.52 -37.504,-38.21 -44.754,-89.77 -44.891,-123.87 -17.023,0.71 -33.449,1.42 -49.105,2.34 10.015,39.56 23.937,76.89 36.316,86.57 12.035,9.45 14.078,26.81 4.688,38.89 -9.489,12.03 -26.84,14.1 -38.821,4.6 -29.961,-23.5 -48.597,-84.81 -58.086,-126.15 -10.203,0.78 -20.085,1.73 -29.531,2.66 6.469,30.93 19.266,72.55 40.797,90.3 8.766,7.34 9.969,20.47 2.715,29.22 -1.945,2.19 -4.281,4.09 -6.758,5.22 -24.84,-29.17 -48.555,-59.77 -71.414,-91.4 -2.945,-10.42 -5.144,-20.31 -6.852,-28.94 -4.593,0.62 -8.652,1.33 -13.062,1.77 -14.492,-20.82 -28.441,-42.15 -42.063,-63.96 -32.234,-51.91 -60.464,-105.09 -85.574,-159.15 -0.023,-0.17 -0.051,-0.59 -0.051,-0.59 -0.953,-11.45 7.407,-21.48 18.821,-22.56 11.461,-0.96 21.469,7.39 22.48,18.89 0.199,1.4 14.766,150.05 120.407,174.82 l 10.003,2.25 c 0.313,-0.09 0.704,-0.09 1.086,-0.2 -89.64,-65.25 -94.359,-198.42 -94.531,-204.96 -0.355,-15.18 11.774,-27.84 26.953,-28.21 15.242,-0.34 27.922,11.77 28.317,26.98 0.043,1.44 5.043,147.98 106.496,180.11 l 16.16,5.07 11.605,8.83 c -70.832,-70.36 -83.648,-192.45 -84.16,-199.01 -1.379,-15.14 9.774,-28.64 24.899,-30 15.261,-1.43 28.738,9.72 30.16,24.89 0.137,1.71 16.855,166.99 115.254,194.15 l 8.582,2.38 c 5.894,-0.47 11.855,-0.71 17.883,-1.16 -72.864,-73.31 -75.469,-188.19 -75.528,-194.45 -0.074,-15.18 12.106,-27.66 27.367,-27.76 15.286,-0.23 27.68,12.1 27.957,27.29 -0.027,1.59 3.325,155.21 116.274,191.82 5.437,-0.05 10.75,-0.1 16.203,-0.22 -52.387,-59.67 -60.027,-140.6 -53.473,-186.52 2.153,-15.08 16.075,-25.53 31.121,-23.47 15.157,2.05 25.723,16.05 23.711,31.15 -0.781,5.51 -16.32,131.24 89.173,179.3 18.72,0.29 37.84,0.89 57.49,1.65 -41.34,-69.8 -56.98,-155.67 -59.32,-169.53 -3.05,-18.77 9.65,-36.58 28.53,-39.71 18.79,-3.12 36.6,9.67 39.78,28.49 6.19,37.85 33.3,141.72 80.73,184.99 24.59,1.53 49.99,3.3 75.81,5.36 -19.43,-65.22 -26.8,-148.34 -29.27,-192.23 -1.2,-21 14.8,-38.99 35.84,-40.1 20.97,-1.2 38.85,14.81 40.06,35.75 4.87,83.64 19.98,168.17 35.29,203.77 31.92,3.19 64.66,6.63 98.55,10.68 -7,-38.5 -15.83,-98.46 -26.88,-193.36 -1.72,-15.15 5.6,-29.13 17.73,-36.72 4.62,-2.84 9.84,-4.7 15.62,-5.45 20.89,-2.42 39.78,12.49 42.18,33.36 9.21,78.79 22.01,169.73 30.41,212.32 31.8,4.28 64.32,8.97 97.72,14.07 -3.36,-31.54 -6.16,-84.79 -6.13,-175.76 0.07,-21 17.05,-37.97 38.05,-37.9 21.1,-0.09 38.08,17.04 38.05,37.96 -0.1,75.68 3.01,167.25 8.29,188.53 38,6.85 75.06,14.11 111.15,22.1 3.89,-36.56 8.02,-111.04 10.2,-175.07 0.67,-21.05 18.29,-37.47 39.31,-36.75 20.97,0.7 37.43,18.26 36.7,39.28 -1.53,45.06 -5.47,140.34 -12.08,190.05 29.04,7.14 57.45,14.71 85.11,22.66 5.37,-40.9 13.08,-106.62 19.81,-167.48 1.2,-12.1 8.09,-22.26 17.73,-28.22 6.89,-4.29 15.34,-6.3 24.08,-5.33 20.93,2.16 35.95,20.96 33.69,41.79 -10.52,96.58 -17.12,150.52 -21.67,181.46 33.27,10.58 65.43,21.49 96.48,32.72 19.52,-35.46 36.02,-131.17 42.06,-186.3 2.06,-19.04 19.19,-32.7 38.19,-30.62 18.9,2.06 32.61,19.24 30.58,38.07 -2.8,25.17 -17.2,140.7 -46.5,203.06 31.28,12.35 61.4,24.82 90.13,37.39 15.16,-35.17 35.06,-112.48 47.72,-179.73 2.76,-15.05 17.2,-24.85 32.25,-21.96 14.96,2.7 24.88,17.25 22.09,32.17 -8.56,45.29 -27.98,137.68 -52.46,191.75 20.11,9.31 39.26,18.66 58.01,28.06 43.69,-18.37 59.51,-123.05 60.23,-174.37 0.2,-15.36 12.77,-27.55 27.99,-27.35 15.3,0.1 27.54,12.71 27.26,27.91 -0.12,17.53 -4,143.02 -61.04,201.7 11.23,5.93 21.97,11.77 32.52,17.48 l 10.5,-1.32 c 38.54,-4.93 66.45,-99.25 73.06,-161.53 1.66,-15.14 15.18,-26.17 30.42,-24.55 15.17,1.62 26.26,15.33 24.56,30.5 -1.78,16.79 -17.19,142.56 -78.23,191.45 4.59,2.7 9.01,5.38 13.41,8.01 l 0.11,-1.1 16.23,-3.16 c 55.72,-9.79 84.81,-107.18 91.37,-143.87 1.94,-11.33 12.76,-18.81 23.93,-16.86 11.38,1.92 18.9,12.82 16.94,24.01 -1.11,5.76 -22.37,122.07 -90.08,164.08 -3.74,2.33 -7.72,4.34 -11.64,6.06 8.64,5.52 16.82,10.88 24.71,16.15 l 16.74,-5.63 c 36.15,-0.52 76.28,-83.19 93.17,-141.85 3.2,-10.89 14.67,-17.33 25.66,-14.09 11.03,3.07 17.29,14.57 14.25,25.57 -2.61,8.91 -16.05,53.11 -39.21,94.6 -46.24,36.86 -94.74,71.74 -146.22,103.63 8.33,-8.99 14.99,-17.98 19.84,-25.9"
         style="fill:#656263;fill-opacity:1;fill-rule:nonzero;stroke:none"
         id="path130"
         inkscape:connector-curvature="0" /><path
         d="M 3079.25,988.109 C 2649,295.359 1735.44,81.7617 1042.61,512.02 349.824,942.25 136.27,1855.87 566.477,2548.58 996.762,3241.46 1910.36,3455 2603.16,3024.73 3295.88,2594.54 3509.56,1680.91 3079.25,988.109 Z M 521.859,2576.42 C 74.0977,1855.53 296.344,904.73 1017.36,456.98 1738.28,9.26172 2689,231.609 3136.73,952.469 3584.47,1673.41 3362.23,2624.2 2641.25,3071.96 1920.29,3519.69 969.527,3297.33 521.859,2576.42"
         style="fill:#656263;fill-opacity:1;fill-rule:nonzero;stroke:none"
         id="path132"
         inkscape:connector-curvature="0" /><path
         d="m 1365.77,1383.61 c 21.25,41.99 37,84.16 47.45,120.72 4.18,14.55 8.51,32.07 12.7,51.59 18.46,7.44 39.03,17.91 59.77,32.87 0.32,-13.01 1.31,-26.02 3.09,-39.11 4.82,-36.95 19.76,-70.25 43.42,-95.15 1.92,-11.54 4.7,-22.68 8.56,-33.4 z m -796.622,-170.76 14.704,90.17 c 6.839,-14.16 15.043,-27.03 24.617,-38.71 z m 2799.502,479 c -7.17,6.06 -15.56,10.24 -24.48,12.27 l 0.86,13.28 c 71.2,53.57 113.72,133.55 116.44,215.62 0.47,15.94 -0.61,31.79 -3.3,47.46 -7.15,43.27 -21.07,78.26 -36.41,106.52 l -32.72,69.68 h -0.05 c -11.75,25.54 -25.18,46.5 -37.56,63.57 3.56,10.6 4,22.2 1.12,33.21 -0.05,0.36 -0.18,0.56 -0.24,0.85 l 0.25,0.28 -1.09,2.47 c -1.43,4.2 -3.36,8.11 -5.68,11.88 l -35.48,75.72 -0.66,-0.46 c -3.75,12.67 -11.95,23.73 -22.82,31.12 -0.94,1.38 -2.01,2.81 -3.05,4.22 l -32.52,69.31 c -2.7,9.47 -7.56,18.26 -14.7,25.41 -13.38,13.27 -32.5,19.18 -50.99,15.77 l -82.32,-15.25 -32.24,68.54 c -2.53,9.14 -7.28,17.51 -14.06,24.59 -12.97,13.32 -31.37,19.47 -49.69,16.63 l -165.1,-24.93 c -24.29,-3.77 -43.54,-22.6 -47.84,-46.83 l -16.72,-95.06 -120.62,-22.03 c -23.96,-4.47 -42.64,-23.66 -46.35,-47.82 l -8.8,-58.06 c -0.92,-5.83 -0.84,-11.8 0,-17.49 -3.58,-0.42 -7.15,-1.11 -10.77,-1.62 -52.84,-9.07 -98.02,-34.43 -135.04,-65.94 -37.17,-31.58 -67.02,-69.38 -92.15,-107.76 -2.92,-4.57 -5.65,-9.24 -8.37,-13.81 l -23.62,50.28 -0.38,-0.27 c -4.72,8.67 -10.27,17.03 -17.13,25.03 -22.02,26.58 -58.64,44.3 -96.68,44.78 -11.65,0.35 -23.52,-0.58 -35.6,-2.6 -40.38,-7.07 -76.67,-25.09 -108.01,-48.99 -10.78,5.4 -23.25,7.34 -35.46,5.32 l -160.3,-27.92 c -24.1,-4.14 -42.9,-23.25 -46.73,-47.43 l -12.33,-76.09 c -5.11,16.95 -12.79,34.04 -24.82,50.44 -10.49,14.12 -24.8,27.29 -42.35,36.62 -17.61,9.23 -37.95,14.14 -58.71,14.75 -20.04,0.6 -40.57,-2.6 -61.92,-8.88 -13.69,-3.98 -26.43,-8.22 -37.94,-12.07 l -25.38,54.18 -1.21,-1.09 c -0.56,0.96 -1.09,1.92 -1.72,2.92 -5.68,8.2 -13.85,16.8 -24.73,23.07 -10.82,6.31 -23.9,9.91 -35.99,10.2 -5.29,0.16 -10.74,-0.2 -16.04,-1.12 -19.02,-3.07 -36.99,-11.62 -50.81,-22.85 -21.01,-17.03 -33.2,-38.43 -40.89,-59.19 -7.56,-20.93 -11.01,-42.04 -11.65,-62.59 -0.51,-18.03 1.04,-35.47 5.19,-52.5 1.9,-7.78 4.17,-15.37 7.41,-22.97 -2.94,-14.38 -3.1,-15.32 -8.39,-41.41 -3.22,10.93 -7.15,21.61 -11.95,32.09 -11.11,24.14 -27.95,47.43 -52.12,64.72 -23.99,17.28 -54.42,26.92 -86.09,27.6 -5.61,0.17 -11.24,0.17 -16.91,-0.16 -42.57,-2.24 -81.79,-17.02 -115.56,-38.26 -49.31,-31.19 -88.53,-75.35 -120.301,-123.04 l 50.051,297.34 c 2.52,15.26 -1.31,30.93 -10.35,43.27 l -34.15,72.87 c -0.305,0.8 -0.575,1.78 -0.801,2.64 -2.734,7.32 -7.02,14.15 -12.684,19.81 -12.64,12.96 -31.027,19.31 -49.129,16.69 l -197.144,-27.95 c -24.668,-3.59 -44.363,-22.74 -48.445,-47.34 l -28.914,-171.37 c -3.305,6.41 -6.79,12.48 -10.504,18.35 l -19.27,40.51 c -5.914,17.33 -13.492,33.42 -22.75,47.97 l -2.434,5.22 -0.667,-0.54 c -8.067,11.99 -17.262,22.91 -27.688,32.41 -36.691,34.06 -84.465,49.77 -131.559,50.91 -15.105,0.44 -30.339,-0.48 -45.562,-2.59 -53.379,-7.65 -106.082,-30.02 -155.125,-62.14 -48.871,-32.18 -93.879,-74.31 -129.234,-124.34 l -0.313,-0.49 C 43.0664,1990.1 3.99219,1869.33 0.265625,1749.47 c -0.789063,-26.74 0.1875,-53.42 3.207035,-79.82 4.21484,-35.88 15.78514,-71.02 36.64454,-101.82 l 14.5351,-29.94 c 6.504,-21.49 16.004,-42.25 29.3047,-61.14 0.3946,-0.7 0.8907,-1.3 1.3125,-1.81 l 2.5625,-5.2 1.543,-0.06 c 10.0703,-12.89 22.094,-24.72 37.039,-34.14 17.488,-11.23 39.227,-18.77 62.277,-19.43 9.024,-0.27 18.161,0.49 26.946,2.13 7.769,1.44 15.238,3.59 22.414,6.03 l -38.328,-236.79 c -1.965,-12.01 0.101,-24.24 5.418,-34.81 l -0.258,0.02 42.699,-89.7 h 0.262 c 2.91,-5.57 6.707,-10.84 11.465,-15.32 10.386,-9.78 23.836,-15.25 37.726,-15.66 4.68,-0.14 9.27,0.19 13.926,1.25 -3.648,-9.12 -5.016,-19.38 -3.445,-29.79 4.519,-29.9 31.664,-51.169 61.863,-48.548 h 0.098 c 2.398,0.168 18.742,1.348 45.628,0.547 75.555,-2.231 232.434,-19.949 393.278,-114.649 l 1.09,-0.711 c 117.746,-66.007 196.797,-127.007 245.797,-170.8 24.54,-21.829 41.6,-39.411 52.27,-51.071 5.32,-5.84 9.03,-10.199 11.22,-13.047 1.19,-1.25 1.9,-2.242 2.36,-2.75 0.17,-0.242 0.23,-0.453 0.23,-0.453 h 0.15 c 10.54,-14.156 26.83,-22.539 44.1,-23.047 3.51,-0.109 7.09,0.118 10.67,0.629 21.16,3.399 38.55,18.039 45.44,38.301 v 0 c 1.54,4.277 26.91,73.551 95.73,161.617 68.88,87.973 180.51,194.692 356.89,276.252 91.34,40.94 243.26,93.42 417.38,147.64 261.54,81.38 574.47,167.91 821.74,233.94 123.65,32.99 230.97,60.8 307.24,80.51 76.36,19.65 121.51,31 121.58,31 24.33,5.97 41.79,27.03 43.36,52.03 l 2.76,43.88 c 1.18,17.95 -6.08,35.22 -19.74,47.11"
         style="fill:#231f20;fill-opacity:1;fill-rule:nonzero;stroke:none"
         id="path134"
         inkscape:connector-curvature="0" /><path
         d="m 1251.18,1695.15 c -5.79,-35.5 -12.74,-70.72 -23.1,-105.62 -10.13,-34.24 -21.46,-77.52 -50.89,-99.24 -69.39,-51.74 -64.79,75.92 -60.49,115.39 8.47,76.13 18.93,159.79 56.07,226.6 11.43,20.52 44.07,64.62 69.7,48.43 -21.96,-11.26 -47.62,-47.68 -39.82,-108.13 4.82,-37.31 24.99,-62.9 48.53,-77.43 z m 1367.09,453.29 c 16.42,2.88 23.49,-11.41 24.99,-20.72 9.8,-62.74 -64.83,-159.98 -132.15,-196.41 0.1,54.92 46.96,206.29 107.16,217.13 z m 634.16,177.17 c -11.84,5.76 -28.98,6.2 -46.57,3.18 -87.23,-14.83 -113.96,-79.73 -102.98,-145.16 12.74,-76.26 76.15,-106.16 89.38,-184.34 9.7,-57.23 -30.31,-102.38 -68.25,-110.46 -14.12,-3.1 -54.65,-9.48 -69.01,25.68 45.44,13 91.26,68.46 81.2,128.17 -7.67,45.35 -38.15,53.23 -62.97,48.34 -68.36,-13.11 -99.62,-112.18 -90.22,-169.56 1.09,-6.33 2.43,-12.93 4.26,-19.51 -14.49,-22.15 -30.75,-38.65 -48.21,-42.45 -21.35,-4.55 -28.4,9.22 -30.97,25.14 -2.01,12.45 1.78,34.37 3.66,45.32 l 67.91,406.65 205.01,44.65 9.05,50.24 -204.01,-37.9 23.81,132.13 -165.01,-25.13 -23.71,-134.24 -159.72,-29.27 -8.93,-58.09 158.58,29.52 -44.24,-280.62 -3,-17.82 -2.9,-11.91 c -19.08,-78.61 -79.87,-211.18 -176.67,-232.08 -50.84,-10.98 -70.16,27.55 -76.47,69.07 -1.31,8.22 -2.48,15.32 -2.31,22.74 115.4,56.24 222.36,180.2 205.8,284.08 -7.45,47.23 -36.2,83.78 -116.39,70.01 -81.39,-13.99 -142.91,-78.09 -189.04,-148.65 -41.11,-63.31 -66.74,-145.7 -62.64,-224.91 -22.88,-59.41 -54.39,-117.42 -84.06,-123.76 -17.66,-3.81 -26.77,8.08 -28.79,21.5 -8.83,59.67 73.47,224.31 58.42,324.33 -7.96,52.96 -38.06,92.24 -102.91,81.13 -63.59,-10.95 -120.33,-61.11 -158.37,-123.46 l 15.02,79.8 -160.34,-27.85 -36.42,-225.89 c -1.83,-8 -3.55,-16.57 -5.45,-24.37 -17.11,-76.05 -66.47,-209.12 -111.35,-218.73 -17.72,-3.79 -26.72,8.83 -28.6,22.91 -8.75,62.68 78.89,229.11 64.09,334.3 -7.84,55.77 -36.22,108.11 -122.68,82.69 -68.12,-20.11 -108.98,-41.67 -122.35,-32.03 -14.56,9.43 4.03,44.24 -0.51,77.85 -2.45,18.19 -10.34,31.41 -26.85,28.8 -62.36,-10.31 -67.06,-121.74 -39.72,-154.45 -8.49,-39.8 -5.26,-25 -14.37,-69.52 -4.55,-22.42 -16.97,-59.78 -36.42,-88.57 -13.42,-19.66 -42.46,-31.63 -63.71,-34.7 7.05,106.48 -12.72,215.03 -118.29,209.19 -125.83,-6.56 -222.43,-159.81 -259.48,-278.38 -3.871,-12.5 -7.492,-26.16 -10.707,-40.36 -28.543,-109.66 -76.945,-238.73 -117.765,-247.42 -22.309,-4.59 -30.535,10.8 -33.106,31.51 -2.859,23.49 4.036,60.45 4.036,60.45 l 128.953,766.06 -197.227,-28.14 -74.32,-440.81 -117.262,-20.75 c 0.117,-1.38 27.051,162.53 27.051,162.53 7.769,49.93 9.972,94.61 5.363,132.44 -13.508,112.17 -89.894,152.71 -178.68,140.21 -85.007,-11.89 -184.093,-75.71 -245.488,-162.72 -73.2147,-106.03 -110.9921,-249.23 -96.4569,-378.24 7.0078,-61.56 45.5549,-123.18 102.4299,-112.44 74.09,13.93 109.969,107.6 115.328,170.33 -1.27,-0.17 -10.289,-9.24 -20.231,-10.88 -25.976,-4.65 -47.777,21 -51.722,55.77 -5.231,44.94 6.488,117.7 24.847,176.51 24.571,80.22 75.207,152.13 112.145,157.51 27.164,4.11 38.832,-20.3 42.848,-54.51 7.203,-61.15 -12.157,-152.87 -12.157,-152.87 l -117.601,-727.31 199.32,43.81 77.75,476.44 117.324,21.51 -29.863,-192.09 c -8.031,-49.18 -9.476,-89.71 -4.773,-129.1 12.574,-104.18 71.082,-147.56 139.218,-132.48 90.028,19.84 146.493,100.33 190.469,223.53 8.344,-58.77 32.07,-110.64 80.407,-136.58 146.24,-76.8 254.98,133.95 289.52,255.61 5.87,20.54 12.46,48.47 18,79.66 48.1,13.13 142.31,52.76 165.1,193.21 8.51,51.66 6.64,37.92 11.84,69.69 56.41,2.03 93.88,28.59 91.25,-31.25 -2.53,-69.21 -74.1,-231.41 -56.27,-362.76 9.89,-72.85 65.01,-102.03 126.35,-88.28 64.21,14.49 109.38,72.99 142.98,146.87 l -15.71,-98.53 160.7,35.88 47.26,272.14 c 7.67,47.44 34.15,165.73 87.25,175.42 12.94,2.52 20.75,-1.1 22.87,-15.84 7.73,-52.77 -59.68,-188.99 -41.52,-313.93 10.05,-69.2 65.27,-96.44 126.63,-82.52 76.77,17.17 125.78,91.02 160.32,178.73 24.98,-71.29 84.11,-123.79 179.93,-102.24 100.45,22.55 164.1,91.26 207.21,178.86 0.33,-6.28 0.92,-12.43 1.8,-18.23 8.78,-55.4 43.38,-103.92 128.48,-84.68 55.97,12.58 98.11,54.69 131.27,114.14 26.37,-39.4 74.08,-68.02 154.92,-49.7 134.77,30.25 210.81,150.55 192.91,254.23 -21.79,126.53 -98.05,152.53 -110.61,225.44 -2.59,15.28 -1.67,31.14 6.09,42.56"
         style="fill:#d3d2d2;fill-opacity:1;fill-rule:nonzero;stroke:none"
         id="path136"
         inkscape:connector-curvature="0" /><path
         d="m 1251.18,1695.15 c -5.79,-35.5 -12.74,-70.72 -23.1,-105.62 -10.13,-34.24 -21.46,-77.52 -50.89,-99.24 -69.39,-51.74 -64.79,75.92 -60.49,115.39 8.47,76.13 18.93,159.79 56.07,226.6 11.43,20.52 44.07,64.62 69.7,48.43 -21.96,-11.26 -47.62,-47.68 -39.82,-108.13 4.82,-37.31 24.99,-62.9 48.53,-77.43 z m 1367.09,453.29 c 16.42,2.88 23.49,-11.41 24.99,-20.72 9.8,-62.74 -64.83,-159.98 -132.15,-196.41 0.1,54.92 46.96,206.29 107.16,217.13 z m 634.16,177.17 c -11.84,5.76 -28.98,6.2 -46.57,3.18 -87.23,-14.83 -113.96,-79.73 -102.98,-145.16 12.74,-76.26 76.15,-106.16 89.38,-184.34 9.7,-57.23 -30.31,-102.38 -68.25,-110.46 -14.12,-3.1 -54.65,-9.48 -69.01,25.68 45.44,13 91.26,68.46 81.2,128.17 -7.67,45.35 -38.15,53.23 -62.97,48.34 -68.36,-13.11 -99.62,-112.18 -90.22,-169.56 1.09,-6.33 2.43,-12.93 4.26,-19.51 -14.49,-22.15 -30.75,-38.65 -48.21,-42.45 -21.35,-4.55 -28.4,9.22 -30.97,25.14 -2.01,12.45 1.78,34.37 3.66,45.32 l 67.91,406.65 205.01,44.65 9.05,50.24 -204.01,-37.9 23.81,132.13 -165.01,-25.13 -23.71,-134.24 -159.72,-29.27 -8.93,-58.09 158.58,29.52 -44.24,-280.62 -3,-17.82 -2.9,-11.91 c -19.08,-78.61 -79.87,-211.18 -176.67,-232.08 -50.84,-10.98 -70.16,27.55 -76.47,69.07 -1.31,8.22 -2.48,15.32 -2.31,22.74 115.4,56.24 222.36,180.2 205.8,284.08 -7.45,47.23 -36.2,83.78 -116.39,70.01 -81.39,-13.99 -142.91,-78.09 -189.04,-148.65 -41.11,-63.31 -66.74,-145.7 -62.64,-224.91 -22.88,-59.41 -54.39,-117.42 -84.06,-123.76 -17.66,-3.81 -26.77,8.08 -28.79,21.5 -8.83,59.67 73.47,224.31 58.42,324.33 -7.96,52.96 -38.06,92.24 -102.91,81.13 -63.59,-10.95 -120.33,-61.11 -158.37,-123.46 l 15.02,79.8 -160.34,-27.85 -36.42,-225.89 c -1.83,-8 -3.55,-16.57 -5.45,-24.37 -17.11,-76.05 -66.47,-209.12 -111.35,-218.73 -17.72,-3.79 -26.72,8.83 -28.6,22.91 -8.75,62.68 78.89,229.11 64.09,334.3 -7.84,55.77 -36.22,108.11 -122.68,82.69 -68.12,-20.11 -108.98,-41.67 -122.35,-32.03 -14.56,9.43 4.03,44.24 -0.51,77.85 -2.45,18.19 -10.34,31.41 -26.85,28.8 -62.36,-10.31 -67.06,-121.74 -39.72,-154.45 -8.49,-39.8 -5.26,-25 -14.37,-69.52 -4.55,-22.42 -16.97,-59.78 -36.42,-88.57 -13.42,-19.66 -42.46,-31.63 -63.71,-34.7 7.05,106.48 -12.72,215.03 -118.29,209.19 -125.83,-6.56 -222.43,-159.81 -259.48,-278.38 -3.871,-12.5 -7.492,-26.16 -10.707,-40.36 -28.543,-109.66 -76.945,-238.73 -117.765,-247.42 -22.309,-4.59 -30.535,10.8 -33.106,31.51 -2.859,23.49 4.036,60.45 4.036,60.45 l 128.953,766.06 -197.227,-28.14 -74.32,-440.81 -117.262,-20.75 c 0.117,-1.38 27.051,162.53 27.051,162.53 7.769,49.93 9.972,94.61 5.363,132.44 -13.508,112.17 -89.894,152.71 -178.68,140.21 -85.007,-11.89 -184.093,-75.71 -245.488,-162.72 -73.2147,-106.03 -110.9921,-249.23 -96.4569,-378.24 7.0078,-61.56 45.5549,-123.18 102.4299,-112.44 74.09,13.93 109.969,107.6 115.328,170.33 -1.27,-0.17 -10.289,-9.24 -20.231,-10.88 -25.976,-4.65 -47.777,21 -51.722,55.77 -5.231,44.94 6.488,117.7 24.847,176.51 24.571,80.22 75.207,152.13 112.145,157.51 27.164,4.11 38.832,-20.3 42.848,-54.51 7.203,-61.15 -12.157,-152.87 -12.157,-152.87 l -117.601,-727.31 199.32,43.81 77.75,476.44 117.324,21.51 -29.863,-192.09 c -8.031,-49.18 -9.476,-89.71 -4.773,-129.1 12.574,-104.18 71.082,-147.56 139.218,-132.48 90.028,19.84 146.493,100.33 190.469,223.53 8.344,-58.77 32.07,-110.64 80.407,-136.58 146.24,-76.8 254.98,133.95 289.52,255.61 5.87,20.54 12.46,48.47 18,79.66 48.1,13.13 142.31,52.76 165.1,193.21 8.51,51.66 6.64,37.92 11.84,69.69 56.41,2.03 93.88,28.59 91.25,-31.25 -2.53,-69.21 -74.1,-231.41 -56.27,-362.76 9.89,-72.85 65.01,-102.03 126.35,-88.28 64.21,14.49 109.38,72.99 142.98,146.87 l -15.71,-98.53 160.7,35.88 47.26,272.14 c 7.67,47.44 34.15,165.73 87.25,175.42 12.94,2.52 20.75,-1.1 22.87,-15.84 7.73,-52.77 -59.68,-188.99 -41.52,-313.93 10.05,-69.2 65.27,-96.44 126.63,-82.52 76.77,17.17 125.78,91.02 160.32,178.73 24.98,-71.29 84.11,-123.79 179.93,-102.24 100.45,22.55 164.1,91.26 207.21,178.86 0.33,-6.28 0.92,-12.43 1.8,-18.23 8.78,-55.4 43.38,-103.92 128.48,-84.68 55.97,12.58 98.11,54.69 131.27,114.14 26.37,-39.4 74.08,-68.02 154.92,-49.7 134.77,30.25 210.81,150.55 192.91,254.23 -21.79,126.53 -98.05,152.53 -110.61,225.44 -2.59,15.28 -1.67,31.14 6.09,42.56 z"
         style="fill:none;stroke:#231f20;stroke-width:107.96600342;stroke-linecap:round;stroke-linejoin:round;stroke-miterlimit:4;stroke-dasharray:none;stroke-opacity:1"
         id="path138"
         inkscape:connector-curvature="0" /><path
         d="M 3286.53,1735.11 319.539,1098.96 c 0,0 230.895,20.67 473.238,-121.909 242.733,-136.121 329.913,-253.992 329.913,-253.992 0,0 99.9,294.791 483.53,471.901 383.18,171.7 1677.44,496.25 1677.44,496.25 l 2.87,43.9"
         style="fill:#d3d2d2;fill-opacity:1;fill-rule:nonzero;stroke:none"
         id="path140"
         inkscape:connector-curvature="0" /><path
         d="M 3286.53,1735.11 319.539,1098.96 c 0,0 230.895,20.67 473.238,-121.909 242.733,-136.121 329.913,-253.992 329.913,-253.992 0,0 99.9,294.791 483.53,471.901 383.18,171.7 1677.44,496.25 1677.44,496.25 z"
         style="fill:none;stroke:#231f20;stroke-width:107.96600342;stroke-linecap:round;stroke-linejoin:round;stroke-miterlimit:4;stroke-dasharray:none;stroke-opacity:1"
         id="path142"
         inkscape:connector-curvature="0" /><path
         d="m 1251.18,1695.15 c -5.79,-35.5 -12.74,-70.72 -23.1,-105.62 -10.13,-34.24 -21.46,-77.52 -50.89,-99.24 -69.39,-51.74 -64.79,75.92 -60.49,115.39 8.47,76.13 18.93,159.79 56.07,226.6 11.43,20.52 44.07,64.62 69.7,48.43 -21.96,-11.26 -47.62,-47.68 -39.82,-108.13 4.82,-37.31 24.99,-62.9 48.53,-77.43 z m 1367.09,453.29 c 16.42,2.88 23.49,-11.41 24.99,-20.72 9.8,-62.74 -64.83,-159.98 -132.15,-196.41 0.1,54.92 46.96,206.29 107.16,217.13 z m 634.16,177.17 c -11.84,5.76 -28.98,6.2 -46.57,3.18 -87.23,-14.83 -113.96,-79.73 -102.98,-145.16 12.74,-76.26 76.15,-106.16 89.38,-184.34 9.7,-57.23 -30.31,-102.38 -68.25,-110.46 -14.12,-3.1 -54.65,-9.48 -69.01,25.68 45.44,13 91.26,68.46 81.2,128.17 -7.67,45.35 -38.15,53.23 -62.97,48.34 -68.36,-13.11 -99.62,-112.18 -90.22,-169.56 1.09,-6.33 2.43,-12.93 4.26,-19.51 -14.49,-22.15 -30.75,-38.65 -48.21,-42.45 -21.35,-4.55 -28.4,9.22 -30.97,25.14 -2.01,12.45 1.78,34.37 3.66,45.32 l 67.91,406.65 205.01,44.65 9.05,50.24 -204.01,-37.9 23.81,132.13 -165.01,-25.13 -23.71,-134.24 -159.72,-29.27 -8.93,-58.09 158.58,29.52 -44.24,-280.62 -3,-17.82 -2.9,-11.91 c -19.08,-78.61 -79.87,-211.18 -176.67,-232.08 -50.84,-10.98 -70.16,27.55 -76.47,69.07 -1.31,8.22 -2.48,15.32 -2.31,22.74 115.4,56.24 222.36,180.2 205.8,284.08 -7.45,47.23 -36.2,83.78 -116.39,70.01 -81.39,-13.99 -142.91,-78.09 -189.04,-148.65 -41.11,-63.31 -66.74,-145.7 -62.64,-224.91 -22.88,-59.41 -54.39,-117.42 -84.06,-123.76 -17.66,-3.81 -26.77,8.08 -28.79,21.5 -8.83,59.67 73.47,224.31 58.42,324.33 -7.96,52.96 -38.06,92.24 -102.91,81.13 -63.59,-10.95 -120.33,-61.11 -158.37,-123.46 l 15.02,79.8 -160.34,-27.85 -36.42,-225.89 c -1.83,-8 -3.55,-16.57 -5.45,-24.37 -17.11,-76.05 -66.47,-209.12 -111.35,-218.73 -17.72,-3.79 -26.72,8.83 -28.6,22.91 -8.75,62.68 78.89,229.11 64.09,334.3 -7.84,55.77 -36.22,108.11 -122.68,82.69 -68.12,-20.11 -108.98,-41.67 -122.35,-32.03 -14.56,9.43 4.03,44.24 -0.51,77.85 -2.45,18.19 -10.34,31.41 -26.85,28.8 -62.36,-10.31 -67.06,-121.74 -39.72,-154.45 -8.49,-39.8 -5.26,-25 -14.37,-69.52 -4.55,-22.42 -16.97,-59.78 -36.42,-88.57 -13.42,-19.66 -42.46,-31.63 -63.71,-34.7 7.05,106.48 -12.72,215.03 -118.29,209.19 -125.83,-6.56 -222.43,-159.81 -259.48,-278.38 -3.871,-12.5 -7.492,-26.16 -10.707,-40.36 -28.543,-109.66 -76.945,-238.73 -117.765,-247.42 -22.309,-4.59 -30.535,10.8 -33.106,31.51 -2.859,23.49 4.036,60.45 4.036,60.45 l 128.953,766.06 -197.227,-28.14 -74.32,-440.81 -117.262,-20.75 c 0.117,-1.38 27.051,162.53 27.051,162.53 7.769,49.93 9.972,94.61 5.363,132.44 -13.508,112.17 -89.894,152.71 -178.68,140.21 -85.007,-11.89 -184.093,-75.71 -245.488,-162.72 -73.2147,-106.03 -110.9921,-249.23 -96.4569,-378.24 7.0078,-61.56 45.5549,-123.18 102.4299,-112.44 74.09,13.93 109.969,107.6 115.328,170.33 -1.27,-0.17 -10.289,-9.24 -20.231,-10.88 -25.976,-4.65 -47.777,21 -51.722,55.77 -5.231,44.94 6.488,117.7 24.847,176.51 24.571,80.22 75.207,152.13 112.145,157.51 27.164,4.11 38.832,-20.3 42.848,-54.51 7.203,-61.15 -12.157,-152.87 -12.157,-152.87 l -117.601,-727.31 199.32,43.81 77.75,476.44 117.324,21.51 -29.863,-192.09 c -8.031,-49.18 -9.476,-89.71 -4.773,-129.1 12.574,-104.18 71.082,-147.56 139.218,-132.48 90.028,19.84 146.493,100.33 190.469,223.53 8.344,-58.77 32.07,-110.64 80.407,-136.58 146.24,-76.8 254.98,133.95 289.52,255.61 5.87,20.54 12.46,48.47 18,79.66 48.1,13.13 142.31,52.76 165.1,193.21 8.51,51.66 6.64,37.92 11.84,69.69 56.41,2.03 93.88,28.59 91.25,-31.25 -2.53,-69.21 -74.1,-231.41 -56.27,-362.76 9.89,-72.85 65.01,-102.03 126.35,-88.28 64.21,14.49 109.38,72.99 142.98,146.87 l -15.71,-98.53 160.7,35.88 47.26,272.14 c 7.67,47.44 34.15,165.73 87.25,175.42 12.94,2.52 20.75,-1.1 22.87,-15.84 7.73,-52.77 -59.68,-188.99 -41.52,-313.93 10.05,-69.2 65.27,-96.44 126.63,-82.52 76.77,17.17 125.78,91.02 160.32,178.73 24.98,-71.29 84.11,-123.79 179.93,-102.24 100.45,22.55 164.1,91.26 207.21,178.86 0.33,-6.28 0.92,-12.43 1.8,-18.23 8.78,-55.4 43.38,-103.92 128.48,-84.68 55.97,12.58 98.11,54.69 131.27,114.14 26.37,-39.4 74.08,-68.02 154.92,-49.7 134.77,30.25 210.81,150.55 192.91,254.23 -21.79,126.53 -98.05,152.53 -110.61,225.44 -2.59,15.28 -1.67,31.14 6.09,42.56"
         style="fill:#ffffff;fill-opacity:1;fill-rule:nonzero;stroke:none"
         id="path144"
         inkscape:connector-curvature="0" /><path
         d="m 1251.18,1695.15 c -5.79,-35.5 -12.74,-70.72 -23.1,-105.62 -10.13,-34.24 -21.46,-77.52 -50.89,-99.24 -69.39,-51.74 -64.79,75.92 -60.49,115.39 8.47,76.13 18.93,159.79 56.07,226.6 11.43,20.52 44.07,64.62 69.7,48.43 -21.96,-11.26 -47.62,-47.68 -39.82,-108.13 4.82,-37.31 24.99,-62.9 48.53,-77.43 z m 1367.09,453.29 c 16.42,2.88 23.49,-11.41 24.99,-20.72 9.8,-62.74 -64.83,-159.98 -132.15,-196.41 0.1,54.92 46.96,206.29 107.16,217.13 z m 634.16,177.17 c -11.84,5.76 -28.98,6.2 -46.57,3.18 -87.23,-14.83 -113.96,-79.73 -102.98,-145.16 12.74,-76.26 76.15,-106.16 89.38,-184.34 9.7,-57.23 -30.31,-102.38 -68.25,-110.46 -14.12,-3.1 -54.65,-9.48 -69.01,25.68 45.44,13 91.26,68.46 81.2,128.17 -7.67,45.35 -38.15,53.23 -62.97,48.34 -68.36,-13.11 -99.62,-112.18 -90.22,-169.56 1.09,-6.33 2.43,-12.93 4.26,-19.51 -14.49,-22.15 -30.75,-38.65 -48.21,-42.45 -21.35,-4.55 -28.4,9.22 -30.97,25.14 -2.01,12.45 1.78,34.37 3.66,45.32 l 67.91,406.65 205.01,44.65 9.05,50.24 -204.01,-37.9 23.81,132.13 -165.01,-25.13 -23.71,-134.24 -159.72,-29.27 -8.93,-58.09 158.58,29.52 -44.24,-280.62 -3,-17.82 -2.9,-11.91 c -19.08,-78.61 -79.87,-211.18 -176.67,-232.08 -50.84,-10.98 -70.16,27.55 -76.47,69.07 -1.31,8.22 -2.48,15.32 -2.31,22.74 115.4,56.24 222.36,180.2 205.8,284.08 -7.45,47.23 -36.2,83.78 -116.39,70.01 -81.39,-13.99 -142.91,-78.09 -189.04,-148.65 -41.11,-63.31 -66.74,-145.7 -62.64,-224.91 -22.88,-59.41 -54.39,-117.42 -84.06,-123.76 -17.66,-3.81 -26.77,8.08 -28.79,21.5 -8.83,59.67 73.47,224.31 58.42,324.33 -7.96,52.96 -38.06,92.24 -102.91,81.13 -63.59,-10.95 -120.33,-61.11 -158.37,-123.46 l 15.02,79.8 -160.34,-27.85 -36.42,-225.89 c -1.83,-8 -3.55,-16.57 -5.45,-24.37 -17.11,-76.05 -66.47,-209.12 -111.35,-218.73 -17.72,-3.79 -26.72,8.83 -28.6,22.91 -8.75,62.68 78.89,229.11 64.09,334.3 -7.84,55.77 -36.22,108.11 -122.68,82.69 -68.12,-20.11 -108.98,-41.67 -122.35,-32.03 -14.56,9.43 4.03,44.24 -0.51,77.85 -2.45,18.19 -10.34,31.41 -26.85,28.8 -62.36,-10.31 -67.06,-121.74 -39.72,-154.45 -8.49,-39.8 -5.26,-25 -14.37,-69.52 -4.55,-22.42 -16.97,-59.78 -36.42,-88.57 -13.42,-19.66 -42.46,-31.63 -63.71,-34.7 7.05,106.48 -12.72,215.03 -118.29,209.19 -125.83,-6.56 -222.43,-159.81 -259.48,-278.38 -3.871,-12.5 -7.492,-26.16 -10.707,-40.36 -28.543,-109.66 -76.945,-238.73 -117.765,-247.42 -22.309,-4.59 -30.535,10.8 -33.106,31.51 -2.859,23.49 4.036,60.45 4.036,60.45 l 128.953,766.06 -197.227,-28.14 -74.32,-440.81 -117.262,-20.75 c 0.117,-1.38 27.051,162.53 27.051,162.53 7.769,49.93 9.972,94.61 5.363,132.44 -13.508,112.17 -89.894,152.71 -178.68,140.21 -85.007,-11.89 -184.093,-75.71 -245.488,-162.72 -73.2147,-106.03 -110.9921,-249.23 -96.4569,-378.24 7.0078,-61.56 45.5549,-123.18 102.4299,-112.44 74.09,13.93 109.969,107.6 115.328,170.33 -1.27,-0.17 -10.289,-9.24 -20.231,-10.88 -25.976,-4.65 -47.777,21 -51.722,55.77 -5.231,44.94 6.488,117.7 24.847,176.51 24.571,80.22 75.207,152.13 112.145,157.51 27.164,4.11 38.832,-20.3 42.848,-54.51 7.203,-61.15 -12.157,-152.87 -12.157,-152.87 l -117.601,-727.31 199.32,43.81 77.75,476.44 117.324,21.51 -29.863,-192.09 c -8.031,-49.18 -9.476,-89.71 -4.773,-129.1 12.574,-104.18 71.082,-147.56 139.218,-132.48 90.028,19.84 146.493,100.33 190.469,223.53 8.344,-58.77 32.07,-110.64 80.407,-136.58 146.24,-76.8 254.98,133.95 289.52,255.61 5.87,20.54 12.46,48.47 18,79.66 48.1,13.13 142.31,52.76 165.1,193.21 8.51,51.66 6.64,37.92 11.84,69.69 56.41,2.03 93.88,28.59 91.25,-31.25 -2.53,-69.21 -74.1,-231.41 -56.27,-362.76 9.89,-72.85 65.01,-102.03 126.35,-88.28 64.21,14.49 109.38,72.99 142.98,146.87 l -15.71,-98.53 160.7,35.88 47.26,272.14 c 7.67,47.44 34.15,165.73 87.25,175.42 12.94,2.52 20.75,-1.1 22.87,-15.84 7.73,-52.77 -59.68,-188.99 -41.52,-313.93 10.05,-69.2 65.27,-96.44 126.63,-82.52 76.77,17.17 125.78,91.02 160.32,178.73 24.98,-71.29 84.11,-123.79 179.93,-102.24 100.45,22.55 164.1,91.26 207.21,178.86 0.33,-6.28 0.92,-12.43 1.8,-18.23 8.78,-55.4 43.38,-103.92 128.48,-84.68 55.97,12.58 98.11,54.69 131.27,114.14 26.37,-39.4 74.08,-68.02 154.92,-49.7 134.77,30.25 210.81,150.55 192.91,254.23 -21.79,126.53 -98.05,152.53 -110.61,225.44 -2.59,15.28 -1.67,31.14 6.09,42.56 z"
         style="fill:none;stroke:#231f20;stroke-width:10;stroke-linecap:butt;stroke-linejoin:miter;stroke-miterlimit:4;stroke-dasharray:none;stroke-opacity:1"
         id="path146"
         inkscape:connector-curvature="0" /><path
         d="M 3286.53,1735.11 319.539,1098.96 c 0,0 230.895,20.67 473.238,-121.909 242.733,-136.121 329.913,-253.992 329.913,-253.992 0,0 99.9,294.791 483.53,471.901 383.18,171.7 1677.44,496.25 1677.44,496.25 l 2.87,43.9"
         style="fill:#ffffff;fill-opacity:1;fill-rule:nonzero;stroke:none"
         id="path148"
         inkscape:connector-curvature="0" /><path
         d="M 3286.53,1735.11 319.539,1098.96 c 0,0 230.895,20.67 473.238,-121.909 242.733,-136.121 329.913,-253.992 329.913,-253.992 0,0 99.9,294.791 483.53,471.901 383.18,171.7 1677.44,496.25 1677.44,496.25 z"
         style="fill:none;stroke:#231f20;stroke-width:10;stroke-linecap:butt;stroke-linejoin:miter;stroke-miterlimit:4;stroke-dasharray:none;stroke-opacity:1"
         id="path150"
         inkscape:connector-curvature="0" /><path
         d="m 1149.13,2303.09 -22.74,-3.31 0.73,5.38 c 1.42,10.67 -1.8,19.05 -13.4,17.3 -12.56,-1.87 -16.87,-12.61 -18.34,-23.37 -1.67,-12.59 -1.23,-16.71 10,-19.88 l 16.46,-4.57 c 19,-4.85 20.98,-17.39 17.71,-41.33 -3.76,-27.52 -16.44,-49.48 -45.85,-53.61 -22.09,-3.08 -36.57,11.24 -33.51,33.22 l 1.11,8.8 22.83,3.23 -1.01,-7.33 c -1.18,-8.53 2.14,-16.11 13.79,-14.58 15.37,2.3 17.77,11.85 19.79,26.83 2.43,17.38 0.86,19.83 -9.75,22.92 l -15.32,4.43 c -18.51,5.45 -21.85,18.03 -19.1,38.37 3.43,24.8 19.14,46.59 45.26,50.42 22.82,3.37 35.46,-13.24 32.9,-31.39 l -1.56,-11.53"
         style="fill:#231f20;fill-opacity:1;fill-rule:nonzero;stroke:none"
         id="path152"
         inkscape:connector-curvature="0" /><path
         d="m 1149.13,2303.09 -22.74,-3.31 0.73,5.38 c 1.42,10.67 -1.8,19.05 -13.4,17.3 -12.56,-1.87 -16.87,-12.61 -18.34,-23.37 -1.67,-12.59 -1.23,-16.71 10,-19.88 l 16.46,-4.57 c 19,-4.85 20.98,-17.39 17.71,-41.33 -3.76,-27.52 -16.44,-49.48 -45.85,-53.61 -22.09,-3.08 -36.57,11.24 -33.51,33.22 l 1.11,8.8 22.83,3.23 -1.01,-7.33 c -1.18,-8.53 2.14,-16.11 13.79,-14.58 15.37,2.3 17.77,11.85 19.79,26.83 2.43,17.38 0.86,19.83 -9.75,22.92 l -15.32,4.43 c -18.51,5.45 -21.85,18.03 -19.1,38.37 3.43,24.8 19.14,46.59 45.26,50.42 22.82,3.37 35.46,-13.24 32.9,-31.39 z"
         style="fill:none;stroke:#231f20;stroke-width:30;stroke-linecap:round;stroke-linejoin:round;stroke-miterlimit:4;stroke-dasharray:none;stroke-opacity:1"
         id="path154"
         inkscape:connector-curvature="0" /><path
         d="m 1176.91,2230.92 c -1.57,-11.36 4.81,-15.62 13.05,-14.36 8.32,1.05 16.2,7.52 17.76,18.79 l 11.89,86.59 c 1.54,11.25 -4.81,15.52 -13.13,14.25 -8.29,-1.25 -16.17,-7.61 -17.71,-18.85 z m -10.89,83.04 c 3.58,26.73 25.18,42.94 43.72,45.73 18.55,2.71 36.42,-7.69 32.69,-34.33 l -11.94,-86.64 c -3.69,-26.76 -25.17,-43.02 -43.65,-45.65 -18.65,-2.7 -36.4,7.85 -32.7,34.44 l 11.88,86.45"
         style="fill:#231f20;fill-opacity:1;fill-rule:nonzero;stroke:none"
         id="path156"
         inkscape:connector-curvature="0" /><path
         d="m 1176.91,2230.92 c -1.57,-11.36 4.81,-15.62 13.05,-14.36 8.32,1.05 16.2,7.52 17.76,18.79 l 11.89,86.59 c 1.54,11.25 -4.81,15.52 -13.13,14.25 -8.29,-1.25 -16.17,-7.61 -17.71,-18.85 z m -10.89,83.04 c 3.58,26.73 25.18,42.94 43.72,45.73 18.55,2.71 36.42,-7.69 32.69,-34.33 l -11.94,-86.64 c -3.69,-26.76 -25.17,-43.02 -43.65,-45.65 -18.65,-2.7 -36.4,7.85 -32.7,34.44 z"
         style="fill:none;stroke:#231f20;stroke-width:30;stroke-linecap:round;stroke-linejoin:round;stroke-miterlimit:4;stroke-dasharray:none;stroke-opacity:1"
         id="path158"
         inkscape:connector-curvature="0" /><path
         d="m 1324.14,2250.78 c -2.96,-21.42 -21.87,-40.81 -42.23,-43.85 -20.3,-2.96 -34.57,11.52 -31.51,32.84 l 17.56,127.32 22.84,3.44 -17.32,-125 c -1.61,-11.6 3.61,-16.17 11.73,-15.03 8.08,1.17 14.83,7.68 16.46,19.21 l 17.36,125.2 22.85,3.52 -17.74,-127.65"
         style="fill:#231f20;fill-opacity:1;fill-rule:nonzero;stroke:none"
         id="path160"
         inkscape:connector-curvature="0" /><path
         d="m 1324.14,2250.78 c -2.96,-21.42 -21.87,-40.81 -42.23,-43.85 -20.3,-2.96 -34.57,11.52 -31.51,32.84 l 17.56,127.32 22.84,3.44 -17.32,-125 c -1.61,-11.6 3.61,-16.17 11.73,-15.03 8.08,1.17 14.83,7.68 16.46,19.21 l 17.36,125.2 22.85,3.52 z"
         style="fill:none;stroke:#231f20;stroke-width:30;stroke-linecap:round;stroke-linejoin:round;stroke-miterlimit:4;stroke-dasharray:none;stroke-opacity:1"
         id="path162"
         inkscape:connector-curvature="0" /><path
         d="m 1375.23,2361.78 -26.43,-4.01 3.12,22.14 75.76,11.84 -3.18,-22.28 -26.42,-4.09 -19.78,-142.65 -22.87,-3.48 19.8,142.53"
         style="fill:#231f20;fill-opacity:1;fill-rule:nonzero;stroke:none"
         id="path164"
         inkscape:connector-curvature="0" /><path
         d="m 1375.23,2361.78 -26.43,-4.01 3.12,22.14 75.76,11.84 -3.18,-22.28 -26.42,-4.09 -19.78,-142.65 -22.87,-3.48 z"
         style="fill:none;stroke:#231f20;stroke-width:30;stroke-linecap:round;stroke-linejoin:round;stroke-miterlimit:4;stroke-dasharray:none;stroke-opacity:1"
         id="path166"
         inkscape:connector-curvature="0" /><path
         d="m 1437.72,2393.33 22.85,3.53 -9.85,-70.61 28.21,4.35 9.9,70.77 22.9,3.63 -23.16,-165.4 -22.86,-3.58 10.29,73.67 -28.29,-4.41 -10.15,-73.55 -22.81,-3.55 22.97,165.15"
         style="fill:#231f20;fill-opacity:1;fill-rule:nonzero;stroke:none"
         id="path168"
         inkscape:connector-curvature="0" /><path
         d="m 1437.72,2393.33 22.85,3.53 -9.85,-70.61 28.21,4.35 9.9,70.77 22.9,3.63 -23.16,-165.4 -22.86,-3.58 10.29,73.67 -28.29,-4.41 -10.15,-73.55 -22.81,-3.55 z"
         style="fill:none;stroke:#231f20;stroke-width:30;stroke-linecap:round;stroke-linejoin:round;stroke-miterlimit:4;stroke-dasharray:none;stroke-opacity:1"
         id="path170"
         inkscape:connector-curvature="0" /><path
         d="m 1533.19,2408.43 68.15,10.97 -3.09,-22.41 -45.27,-7.17 -6.86,-48.68 39.38,6.24 -3.08,-22.21 -39.44,-6.33 -6.77,-48.64 45.21,7.12 -3.29,-23.73 -68.09,-10.64 23.15,165.48"
         style="fill:#231f20;fill-opacity:1;fill-rule:nonzero;stroke:none"
         id="path172"
         inkscape:connector-curvature="0" /><path
         d="m 1533.19,2408.43 68.15,10.97 -3.09,-22.41 -45.27,-7.17 -6.86,-48.68 39.38,6.24 -3.08,-22.21 -39.44,-6.33 -6.77,-48.64 45.21,7.12 -3.29,-23.73 -68.09,-10.64 z"
         style="fill:none;stroke:#231f20;stroke-width:30;stroke-linecap:round;stroke-linejoin:round;stroke-miterlimit:4;stroke-dasharray:none;stroke-opacity:1"
         id="path174"
         inkscape:connector-curvature="0" /><path
         d="m 1628.61,2351.39 13.03,2.13 c 15.86,2.6 19.74,12.37 22.08,28.86 2.34,16.75 0.9,25.5 -15.86,22.64 l -11.95,-1.95 z m -12.4,70.4 36.81,6.03 c 27.08,4.46 38,-9.98 33.4,-42.21 -2.67,-19.15 -9.73,-34.02 -25.48,-44.76 l 13.95,-71.82 -24.22,-3.85 -11.36,67.46 -13.61,-2.21 -9.96,-70.93 -22.87,-3.58 23.34,165.87"
         style="fill:#231f20;fill-opacity:1;fill-rule:nonzero;stroke:none"
         id="path176"
         inkscape:connector-curvature="0" /><path
         d="m 1628.61,2351.39 13.03,2.13 c 15.86,2.6 19.74,12.37 22.08,28.86 2.34,16.75 0.9,25.5 -15.86,22.64 l -11.95,-1.95 z m -12.4,70.4 36.81,6.03 c 27.08,4.46 38,-9.98 33.4,-42.21 -2.67,-19.15 -9.73,-34.02 -25.48,-44.76 l 13.95,-71.82 -24.22,-3.85 -11.36,67.46 -13.61,-2.21 -9.96,-70.93 -22.87,-3.58 z"
         style="fill:none;stroke:#231f20;stroke-width:30;stroke-linecap:round;stroke-linejoin:round;stroke-miterlimit:4;stroke-dasharray:none;stroke-opacity:1"
         id="path178"
         inkscape:connector-curvature="0" /><path
         d="m 1710.84,2437.28 22.05,3.73 20.39,-94.63 0.43,-0.01 14.16,100.33 22.97,3.86 -23.61,-166.66 -21.54,-3.5 -20.78,94.42 -0.5,-0.15 -14.16,-100.03 -22.85,-3.58 23.44,166.22"
         style="fill:#231f20;fill-opacity:1;fill-rule:nonzero;stroke:none"
         id="path180"
         inkscape:connector-curvature="0" /><path
         d="m 1710.84,2437.28 22.05,3.73 20.39,-94.63 0.43,-0.01 14.16,100.33 22.97,3.86 -23.61,-166.66 -21.54,-3.5 -20.78,94.42 -0.5,-0.15 -14.16,-100.03 -22.85,-3.58 z"
         style="fill:none;stroke:#231f20;stroke-width:30;stroke-linecap:round;stroke-linejoin:round;stroke-miterlimit:4;stroke-dasharray:none;stroke-opacity:1"
         id="path182"
         inkscape:connector-curvature="0" /><path
         d="m 1864.87,2385.72 11.01,1.87 c 18.7,3.02 20.57,14.7 22.88,31.23 2.26,15.74 4.11,28.7 -13.9,25.67 l -11.91,-2.09 z m -11.6,75.25 34.4,5.94 c 12.5,2.19 21.38,0.66 27.99,-6.7 6.63,-7.41 7.56,-17.49 4.72,-37.42 -1.97,-14.56 -4.56,-24.59 -11.31,-34.71 -7.76,-11.85 -18.89,-20.1 -35.65,-22.97 l -11.7,-1.87 -9.22,-65.35 -22.96,-3.75 23.73,166.83"
         style="fill:#231f20;fill-opacity:1;fill-rule:nonzero;stroke:none"
         id="path184"
         inkscape:connector-curvature="0" /><path
         d="m 1864.87,2385.72 11.01,1.87 c 18.7,3.02 20.57,14.7 22.88,31.23 2.26,15.74 4.11,28.7 -13.9,25.67 l -11.91,-2.09 z m -11.6,75.25 34.4,5.94 c 12.5,2.19 21.38,0.66 27.99,-6.7 6.63,-7.41 7.56,-17.49 4.72,-37.42 -1.97,-14.56 -4.56,-24.59 -11.31,-34.71 -7.76,-11.85 -18.89,-20.1 -35.65,-22.97 l -11.7,-1.87 -9.22,-65.35 -22.96,-3.75 z"
         style="fill:none;stroke:#231f20;stroke-width:30;stroke-linecap:round;stroke-linejoin:round;stroke-miterlimit:4;stroke-dasharray:none;stroke-opacity:1"
         id="path186"
         inkscape:connector-curvature="0" /><path
         d="m 1948.15,2352.49 c -1.76,-11.59 4.7,-15.79 13.02,-14.28 8.28,1.34 16.28,7.94 17.95,19.59 l 12.62,88.4 c 1.57,11.51 -4.81,15.6 -13.17,14.18 -8.26,-1.31 -16.25,-7.95 -17.85,-19.62 z m -10.35,84.5 c 3.87,27.14 25.51,44.17 44.22,47.46 18.67,3.14 36.47,-7.06 32.63,-34.32 l -12.64,-88.46 c -3.96,-27.44 -25.66,-44.33 -44.23,-47.5 -18.69,-3.21 -36.48,7.16 -32.5,34.41 l 12.52,88.41"
         style="fill:#231f20;fill-opacity:1;fill-rule:nonzero;stroke:none"
         id="path188"
         inkscape:connector-curvature="0" /><path
         d="m 1948.15,2352.49 c -1.76,-11.59 4.7,-15.79 13.02,-14.28 8.28,1.34 16.28,7.94 17.95,19.59 l 12.62,88.4 c 1.57,11.51 -4.81,15.6 -13.17,14.18 -8.26,-1.31 -16.25,-7.95 -17.85,-19.62 z m -10.35,84.5 c 3.87,27.14 25.51,44.17 44.22,47.46 18.67,3.14 36.47,-7.06 32.63,-34.32 l -12.64,-88.46 c -3.96,-27.44 -25.66,-44.33 -44.23,-47.5 -18.69,-3.21 -36.48,7.16 -32.5,34.41 z"
         style="fill:none;stroke:#231f20;stroke-width:30;stroke-linecap:round;stroke-linejoin:round;stroke-miterlimit:4;stroke-dasharray:none;stroke-opacity:1"
         id="path190"
         inkscape:connector-curvature="0" /><path
         d="m 2040.51,2493.09 22.92,4.05 -20.59,-143.74 45.45,7.95 -3.45,-24.19 -68.3,-11.65 23.97,167.58"
         style="fill:#231f20;fill-opacity:1;fill-rule:nonzero;stroke:none"
         id="path192"
         inkscape:connector-curvature="0" /><path
         d="m 2040.51,2493.09 22.92,4.05 -20.59,-143.74 45.45,7.95 -3.45,-24.19 -68.3,-11.65 z"
         style="fill:none;stroke:#231f20;stroke-width:30;stroke-linecap:round;stroke-linejoin:round;stroke-miterlimit:4;stroke-dasharray:none;stroke-opacity:1"
         id="path194"
         inkscape:connector-curvature="0" /><path
         d="m 2110.61,2410.88 -17.6,91.41 24.27,4.31 8.94,-63.55 0.46,0.15 27.96,69.91 24.31,4.33 -45.43,-102.54 -10.23,-71.08 -22.9,-3.94 10.22,71"
         style="fill:#231f20;fill-opacity:1;fill-rule:nonzero;stroke:none"
         id="path196"
         inkscape:connector-curvature="0" /><path
         d="m 2110.61,2410.88 -17.6,91.41 24.27,4.31 8.94,-63.55 0.46,0.15 27.96,69.91 24.31,4.33 -45.43,-102.54 -10.23,-71.08 -22.9,-3.94 z"
         style="fill:none;stroke:#231f20;stroke-width:30;stroke-linecap:round;stroke-linejoin:round;stroke-miterlimit:4;stroke-dasharray:none;stroke-opacity:1"
         id="path198"
         inkscape:connector-curvature="0" /><path
         d="m 2202.3,2499.53 -26.58,-4.73 3.31,22.64 76.03,13.61 -3.3,-22.71 -26.5,-4.71 -21.04,-145.73 -22.94,-4.01 21.02,145.64"
         style="fill:#231f20;fill-opacity:1;fill-rule:nonzero;stroke:none"
         id="path200"
         inkscape:connector-curvature="0" /><path
         d="m 2202.3,2499.53 -26.58,-4.73 3.31,22.64 76.03,13.61 -3.3,-22.71 -26.5,-4.71 -21.04,-145.73 -22.94,-4.01 z"
         style="fill:none;stroke:#231f20;stroke-width:30;stroke-linecap:round;stroke-linejoin:round;stroke-miterlimit:4;stroke-dasharray:none;stroke-opacity:1"
         id="path202"
         inkscape:connector-curvature="0" /><path
         d="m 2265.2,2532.77 68.52,12.43 -3.29,-22.74 -45.48,-8.19 -7.18,-49.46 39.68,7.1 -3.36,-22.73 -39.67,-7.08 -7.03,-49.49 45.44,8.06 -3.58,-24.2 -68.4,-12.06 24.35,168.36"
         style="fill:#231f20;fill-opacity:1;fill-rule:nonzero;stroke:none"
         id="path204"
         inkscape:connector-curvature="0" /><path
         d="m 2265.2,2532.77 68.52,12.43 -3.29,-22.74 -45.48,-8.19 -7.18,-49.46 39.68,7.1 -3.36,-22.73 -39.67,-7.08 -7.03,-49.49 45.44,8.06 -3.58,-24.2 -68.4,-12.06 z"
         style="fill:none;stroke:#231f20;stroke-width:30;stroke-linecap:round;stroke-linejoin:round;stroke-miterlimit:4;stroke-dasharray:none;stroke-opacity:1"
         id="path206"
         inkscape:connector-curvature="0" /><path
         d="m 2402.55,2430.01 c -3.03,-20.9 -21.7,-42.05 -42.1,-45.77 -17.6,-3.15 -36.56,2.3 -32.09,33 l 13.48,92.94 c 3.15,22.02 20.71,41.63 43.01,45.61 21.28,3.96 34.52,-10.03 31.09,-33.52 l -1.37,-9.47 -22.96,-4.2 1.16,7.98 c 1.4,9.59 -2.93,16.64 -11.73,15.05 -11.41,-2.08 -15.35,-10.89 -16.92,-22.24 l -12.63,-86.25 c -1.37,-9.76 1.15,-16.67 11.52,-14.78 6.29,1.03 14.92,6.31 16.87,19.55 l 1.14,8.42 23.03,4.09 -1.5,-10.41"
         style="fill:#231f20;fill-opacity:1;fill-rule:nonzero;stroke:none"
         id="path208"
         inkscape:connector-curvature="0" /><path
         d="m 2402.55,2430.01 c -3.03,-20.9 -21.7,-42.05 -42.1,-45.77 -17.6,-3.15 -36.56,2.3 -32.09,33 l 13.48,92.94 c 3.15,22.02 20.71,41.63 43.01,45.61 21.28,3.96 34.52,-10.03 31.09,-33.52 l -1.37,-9.47 -22.96,-4.2 1.16,7.98 c 1.4,9.59 -2.93,16.64 -11.73,15.05 -11.41,-2.08 -15.35,-10.89 -16.92,-22.24 l -12.63,-86.25 c -1.37,-9.76 1.15,-16.67 11.52,-14.78 6.29,1.03 14.92,6.31 16.87,19.55 l 1.14,8.42 23.03,4.09 z"
         style="fill:none;stroke:#231f20;stroke-width:30;stroke-linecap:round;stroke-linejoin:round;stroke-miterlimit:4;stroke-dasharray:none;stroke-opacity:1"
         id="path210"
         inkscape:connector-curvature="0" /><path
         d="m 2440.38,2564.71 22.91,4.14 -10.43,-72.42 28.3,5.17 10.59,72.45 23.04,4.2 -24.75,-169.18 -22.95,-4.23 11.01,75.38 -28.4,-5.14 -11.02,-75.28 -22.9,-4.2 24.6,169.11"
         style="fill:#231f20;fill-opacity:1;fill-rule:nonzero;stroke:none"
         id="path212"
         inkscape:connector-curvature="0" /><path
         d="m 2440.38,2564.71 22.91,4.14 -10.43,-72.42 28.3,5.17 10.59,72.45 23.04,4.2 -24.75,-169.18 -22.95,-4.23 11.01,75.38 -28.4,-5.14 -11.02,-75.28 -22.9,-4.2 z"
         style="fill:none;stroke:#231f20;stroke-width:30;stroke-linecap:round;stroke-linejoin:round;stroke-miterlimit:4;stroke-dasharray:none;stroke-opacity:1"
         id="path214"
         inkscape:connector-curvature="0" /><path
         d="m 2535.54,2582.11 22.1,4.12 19.79,-95.54 0.46,0.14 14.91,101.95 23.03,4.31 -24.83,-169.44 -21.55,-4 -20.4,95.4 -0.42,-0.18 -14.86,-101.73 -22.96,-4.26 24.73,169.23"
         style="fill:#231f20;fill-opacity:1;fill-rule:nonzero;stroke:none"
         id="path216"
         inkscape:connector-curvature="0" /><path
         d="m 2535.54,2582.11 22.1,4.12 19.79,-95.54 0.46,0.14 14.91,101.95 23.03,4.31 -24.83,-169.44 -21.55,-4 -20.4,95.4 -0.42,-0.18 -14.86,-101.73 -22.96,-4.26 z"
         style="fill:none;stroke:#231f20;stroke-width:30;stroke-linecap:round;stroke-linejoin:round;stroke-miterlimit:4;stroke-dasharray:none;stroke-opacity:1"
         id="path218"
         inkscape:connector-curvature="0" /><path
         d="m 2637.26,2601.11 22.99,4.31 -24.83,-169.5 -22.97,-4.38 24.81,169.57"
         style="fill:#231f20;fill-opacity:1;fill-rule:nonzero;stroke:none"
         id="path220"
         inkscape:connector-curvature="0" /><path
         d="m 2637.26,2601.11 22.99,4.31 -24.83,-169.5 -22.97,-4.38 z"
         style="fill:none;stroke:#231f20;stroke-width:30;stroke-linecap:round;stroke-linejoin:round;stroke-miterlimit:4;stroke-dasharray:none;stroke-opacity:1"
         id="path222"
         inkscape:connector-curvature="0" /><path
         d="m 2736.34,2491.63 c -3.01,-20.89 -21.69,-42.33 -42.34,-46.22 -17.51,-3.35 -36.48,2.08 -31.97,32.98 l 13.74,93.47 c 3.23,22.09 20.84,41.84 43.26,46.12 21.18,4.08 34.47,-9.87 31.03,-33.5 l -1.34,-9.59 -23.03,-4.35 1.07,8.18 c 1.46,9.49 -2.73,16.6 -11.54,14.89 -11.5,-2.19 -15.47,-11.02 -17.1,-22.41 l -12.8,-86.81 c -1.44,-9.71 1.08,-16.67 11.46,-14.72 6.24,1.1 15.05,6.52 16.94,19.87 l 1.25,8.3 22.94,4.33 -1.57,-10.54"
         style="fill:#231f20;fill-opacity:1;fill-rule:nonzero;stroke:none"
         id="path224"
         inkscape:connector-curvature="0" /><path
         d="m 2736.34,2491.63 c -3.01,-20.89 -21.69,-42.33 -42.34,-46.22 -17.51,-3.35 -36.48,2.08 -31.97,32.98 l 13.74,93.47 c 3.23,22.09 20.84,41.84 43.26,46.12 21.18,4.08 34.47,-9.87 31.03,-33.5 l -1.34,-9.59 -23.03,-4.35 1.07,8.18 c 1.46,9.49 -2.73,16.6 -11.54,14.89 -11.5,-2.19 -15.47,-11.02 -17.1,-22.41 l -12.8,-86.81 c -1.44,-9.71 1.08,-16.67 11.46,-14.72 6.24,1.1 15.05,6.52 16.94,19.87 l 1.25,8.3 22.94,4.33 z"
         style="fill:none;stroke:#231f20;stroke-width:30;stroke-linecap:round;stroke-linejoin:round;stroke-miterlimit:4;stroke-dasharray:none;stroke-opacity:1"
         id="path226"
         inkscape:connector-curvature="0" /><path
         d="m 1161.04,2291.18 -22.73,-3.31 0.72,5.37 c 1.43,10.67 -1.79,19.05 -13.39,17.3 -12.57,-1.86 -16.88,-12.61 -18.35,-23.37 -1.66,-12.58 -1.23,-16.71 10,-19.87 l 16.46,-4.57 c 19.01,-4.86 20.99,-17.4 17.71,-41.34 -3.75,-27.52 -16.43,-49.47 -45.85,-53.6 -22.08,-3.08 -36.56,11.24 -33.51,33.22 l 1.12,8.78 22.82,3.25 -1,-7.33 c -1.18,-8.53 2.13,-16.12 13.78,-14.58 15.37,2.29 17.78,11.84 19.81,26.83 2.41,17.38 0.85,19.83 -9.76,22.91 l -15.32,4.43 c -18.52,5.46 -21.86,18.03 -19.11,38.37 3.44,24.81 19.14,46.6 45.26,50.42 22.81,3.37 35.45,-13.25 32.91,-31.4 l -1.57,-11.51"
         style="fill:#231f20;fill-opacity:1;fill-rule:nonzero;stroke:none"
         id="path228"
         inkscape:connector-curvature="0" /><path
         d="m 1161.04,2291.18 -22.73,-3.31 0.72,5.37 c 1.43,10.67 -1.79,19.05 -13.39,17.3 -12.57,-1.86 -16.88,-12.61 -18.35,-23.37 -1.66,-12.58 -1.23,-16.71 10,-19.87 l 16.46,-4.57 c 19.01,-4.86 20.99,-17.4 17.71,-41.34 -3.75,-27.52 -16.43,-49.47 -45.85,-53.6 -22.08,-3.08 -36.56,11.24 -33.51,33.22 l 1.12,8.78 22.82,3.25 -1,-7.33 c -1.18,-8.53 2.13,-16.12 13.78,-14.58 15.37,2.29 17.78,11.84 19.81,26.83 2.41,17.38 0.85,19.83 -9.76,22.91 l -15.32,4.43 c -18.52,5.46 -21.86,18.03 -19.11,38.37 3.44,24.81 19.14,46.6 45.26,50.42 22.81,3.37 35.45,-13.25 32.91,-31.4 z"
         style="fill:none;stroke:#231f20;stroke-width:30;stroke-linecap:round;stroke-linejoin:round;stroke-miterlimit:4;stroke-dasharray:none;stroke-opacity:1"
         id="path230"
         inkscape:connector-curvature="0" /><path
         d="m 1188.82,2218.99 c -1.57,-11.35 4.83,-15.6 13.06,-14.34 8.32,1.04 16.19,7.52 17.76,18.78 l 11.89,86.59 c 1.54,11.25 -4.81,15.52 -13.13,14.24 -8.29,-1.24 -16.18,-7.6 -17.71,-18.85 z m -10.89,83.05 c 3.6,26.73 25.19,42.94 43.74,45.74 18.53,2.71 36.41,-7.69 32.68,-34.33 l -11.94,-86.65 c -3.7,-26.76 -25.17,-43.01 -43.66,-45.65 -18.65,-2.71 -36.39,7.84 -32.69,34.44 l 11.87,86.45"
         style="fill:#231f20;fill-opacity:1;fill-rule:nonzero;stroke:none"
         id="path232"
         inkscape:connector-curvature="0" /><path
         d="m 1188.82,2218.99 c -1.57,-11.35 4.83,-15.6 13.06,-14.34 8.32,1.04 16.19,7.52 17.76,18.78 l 11.89,86.59 c 1.54,11.25 -4.81,15.52 -13.13,14.24 -8.29,-1.24 -16.18,-7.6 -17.71,-18.85 z m -10.89,83.05 c 3.6,26.73 25.19,42.94 43.74,45.74 18.53,2.71 36.41,-7.69 32.68,-34.33 l -11.94,-86.65 c -3.7,-26.76 -25.17,-43.01 -43.66,-45.65 -18.65,-2.71 -36.39,7.84 -32.69,34.44 z"
         style="fill:none;stroke:#231f20;stroke-width:30;stroke-linecap:round;stroke-linejoin:round;stroke-miterlimit:4;stroke-dasharray:none;stroke-opacity:1"
         id="path234"
         inkscape:connector-curvature="0" /><path
         d="m 1336.05,2238.87 c -2.95,-21.42 -21.86,-40.82 -42.22,-43.86 -20.31,-2.97 -34.57,11.53 -31.53,32.85 l 17.57,127.31 22.84,3.44 -17.31,-125 c -1.62,-11.6 3.6,-16.18 11.73,-15.01 8.07,1.16 14.82,7.67 16.46,19.2 l 17.36,125.2 22.85,3.51 -17.75,-127.64"
         style="fill:#231f20;fill-opacity:1;fill-rule:nonzero;stroke:none"
         id="path236"
         inkscape:connector-curvature="0" /><path
         d="m 1336.05,2238.87 c -2.95,-21.42 -21.86,-40.82 -42.22,-43.86 -20.31,-2.97 -34.57,11.53 -31.53,32.85 l 17.57,127.31 22.84,3.44 -17.31,-125 c -1.62,-11.6 3.6,-16.18 11.73,-15.01 8.07,1.16 14.82,7.67 16.46,19.2 l 17.36,125.2 22.85,3.51 z"
         style="fill:none;stroke:#231f20;stroke-width:30;stroke-linecap:round;stroke-linejoin:round;stroke-miterlimit:4;stroke-dasharray:none;stroke-opacity:1"
         id="path238"
         inkscape:connector-curvature="0" /><path
         d="m 1387.15,2349.87 -26.43,-4.02 3.11,22.15 75.77,11.83 -3.19,-22.27 -26.41,-4.1 -19.79,-142.64 -22.86,-3.48 19.8,142.53"
         style="fill:#231f20;fill-opacity:1;fill-rule:nonzero;stroke:none"
         id="path240"
         inkscape:connector-curvature="0" /><path
         d="m 1387.15,2349.87 -26.43,-4.02 3.11,22.15 75.77,11.83 -3.19,-22.27 -26.41,-4.1 -19.79,-142.64 -22.86,-3.48 z"
         style="fill:none;stroke:#231f20;stroke-width:30;stroke-linecap:round;stroke-linejoin:round;stroke-miterlimit:4;stroke-dasharray:none;stroke-opacity:1"
         id="path242"
         inkscape:connector-curvature="0" /><path
         d="m 1449.63,2381.42 22.86,3.53 -9.85,-70.61 28.2,4.34 9.91,70.78 22.9,3.62 -23.17,-165.4 -22.85,-3.58 10.3,73.67 -28.31,-4.41 -10.14,-73.55 -22.81,-3.55 22.96,165.16"
         style="fill:#231f20;fill-opacity:1;fill-rule:nonzero;stroke:none"
         id="path244"
         inkscape:connector-curvature="0" /><path
         d="m 1449.63,2381.42 22.86,3.53 -9.85,-70.61 28.2,4.34 9.91,70.78 22.9,3.62 -23.17,-165.4 -22.85,-3.58 10.3,73.67 -28.31,-4.41 -10.14,-73.55 -22.81,-3.55 z"
         style="fill:none;stroke:#231f20;stroke-width:30;stroke-linecap:round;stroke-linejoin:round;stroke-miterlimit:4;stroke-dasharray:none;stroke-opacity:1"
         id="path246"
         inkscape:connector-curvature="0" /><path
         d="m 1545.11,2396.52 68.15,10.95 -3.09,-22.39 -45.29,-7.18 -6.85,-48.67 39.39,6.24 -3.08,-22.22 -39.44,-6.32 -6.78,-48.65 45.22,7.12 -3.29,-23.72 -68.09,-10.65 23.15,165.49"
         style="fill:#231f20;fill-opacity:1;fill-rule:nonzero;stroke:none"
         id="path248"
         inkscape:connector-curvature="0" /><path
         d="m 1545.11,2396.52 68.15,10.95 -3.09,-22.39 -45.29,-7.18 -6.85,-48.67 39.39,6.24 -3.08,-22.22 -39.44,-6.32 -6.78,-48.65 45.22,7.12 -3.29,-23.72 -68.09,-10.65 z"
         style="fill:none;stroke:#231f20;stroke-width:30;stroke-linecap:round;stroke-linejoin:round;stroke-miterlimit:4;stroke-dasharray:none;stroke-opacity:1"
         id="path250"
         inkscape:connector-curvature="0" /><path
         d="m 1640.52,2339.47 13.03,2.13 c 15.85,2.6 19.74,12.37 22.07,28.88 2.34,16.73 0.93,25.48 -15.84,22.61 l -11.93,-1.94 z m -12.39,70.41 36.81,6.03 c 27.07,4.46 37.98,-9.99 33.39,-42.22 -2.65,-19.15 -9.71,-34.02 -25.46,-44.75 l 13.94,-71.82 -24.23,-3.87 -11.34,67.48 -13.62,-2.21 -9.97,-70.93 -22.86,-3.58 23.34,165.87"
         style="fill:#231f20;fill-opacity:1;fill-rule:nonzero;stroke:none"
         id="path252"
         inkscape:connector-curvature="0" /><path
         d="m 1640.52,2339.47 13.03,2.13 c 15.85,2.6 19.74,12.37 22.07,28.88 2.34,16.73 0.93,25.48 -15.84,22.61 l -11.93,-1.94 z m -12.39,70.41 36.81,6.03 c 27.07,4.46 37.98,-9.99 33.39,-42.22 -2.65,-19.15 -9.71,-34.02 -25.46,-44.75 l 13.94,-71.82 -24.23,-3.87 -11.34,67.48 -13.62,-2.21 -9.97,-70.93 -22.86,-3.58 z"
         style="fill:none;stroke:#231f20;stroke-width:30;stroke-linecap:round;stroke-linejoin:round;stroke-miterlimit:4;stroke-dasharray:none;stroke-opacity:1"
         id="path254"
         inkscape:connector-curvature="0" /><path
         d="m 1722.77,2425.37 22.04,3.73 20.36,-94.64 h 0.45 l 14.16,100.33 22.98,3.85 -23.6,-166.66 -21.56,-3.49 -20.78,94.41 -0.5,-0.14 -14.15,-100.03 -22.86,-3.59 23.46,166.23"
         style="fill:#231f20;fill-opacity:1;fill-rule:nonzero;stroke:none"
         id="path256"
         inkscape:connector-curvature="0" /><path
         d="m 1722.77,2425.37 22.04,3.73 20.36,-94.64 h 0.45 l 14.16,100.33 22.98,3.85 -23.6,-166.66 -21.56,-3.49 -20.78,94.41 -0.5,-0.14 -14.15,-100.03 -22.86,-3.59 z"
         style="fill:none;stroke:#231f20;stroke-width:30;stroke-linecap:round;stroke-linejoin:round;stroke-miterlimit:4;stroke-dasharray:none;stroke-opacity:1"
         id="path258"
         inkscape:connector-curvature="0" /><path
         d="m 1876.78,2373.81 11.02,1.87 c 18.71,3.02 20.57,14.68 22.88,31.22 2.26,15.74 4.11,28.71 -13.91,25.68 l -11.9,-2.09 z m -11.6,75.24 34.42,5.94 c 12.48,2.2 21.35,0.65 27.98,-6.69 6.63,-7.4 7.56,-17.5 4.71,-37.43 -1.95,-14.55 -4.57,-24.59 -11.3,-34.7 -7.74,-11.85 -18.9,-20.11 -35.67,-22.97 l -11.67,-1.87 -9.24,-65.35 -22.94,-3.75 23.71,166.82"
         style="fill:#231f20;fill-opacity:1;fill-rule:nonzero;stroke:none"
         id="path260"
         inkscape:connector-curvature="0" /><path
         d="m 1876.78,2373.81 11.02,1.87 c 18.71,3.02 20.57,14.68 22.88,31.22 2.26,15.74 4.11,28.71 -13.91,25.68 l -11.9,-2.09 z m -11.6,75.24 34.42,5.94 c 12.48,2.2 21.35,0.65 27.98,-6.69 6.63,-7.4 7.56,-17.5 4.71,-37.43 -1.95,-14.55 -4.57,-24.59 -11.3,-34.7 -7.74,-11.85 -18.9,-20.11 -35.67,-22.97 l -11.67,-1.87 -9.24,-65.35 -22.94,-3.75 z"
         style="fill:none;stroke:#231f20;stroke-width:30;stroke-linecap:round;stroke-linejoin:round;stroke-miterlimit:4;stroke-dasharray:none;stroke-opacity:1"
         id="path262"
         inkscape:connector-curvature="0" /><path
         d="m 1960.08,2340.57 c -1.77,-11.58 4.68,-15.79 12.99,-14.28 8.3,1.34 16.28,7.95 17.97,19.6 l 12.62,88.39 c 1.55,11.51 -4.81,15.6 -13.19,14.18 -8.26,-1.3 -16.24,-7.95 -17.83,-19.62 z m -10.38,84.5 c 3.88,27.14 25.53,44.18 44.24,47.46 18.67,3.15 36.47,-7.05 32.63,-34.32 l -12.64,-88.45 c -3.96,-27.45 -25.66,-44.35 -44.24,-47.5 -18.67,-3.22 -36.47,7.15 -32.49,34.4 l 12.5,88.41"
         style="fill:#231f20;fill-opacity:1;fill-rule:nonzero;stroke:none"
         id="path264"
         inkscape:connector-curvature="0" /><path
         d="m 1960.08,2340.57 c -1.77,-11.58 4.68,-15.79 12.99,-14.28 8.3,1.34 16.28,7.95 17.97,19.6 l 12.62,88.39 c 1.55,11.51 -4.81,15.6 -13.19,14.18 -8.26,-1.3 -16.24,-7.95 -17.83,-19.62 z m -10.38,84.5 c 3.88,27.14 25.53,44.18 44.24,47.46 18.67,3.15 36.47,-7.05 32.63,-34.32 l -12.64,-88.45 c -3.96,-27.45 -25.66,-44.35 -44.24,-47.5 -18.67,-3.22 -36.47,7.15 -32.49,34.4 z"
         style="fill:none;stroke:#231f20;stroke-width:30;stroke-linecap:round;stroke-linejoin:round;stroke-miterlimit:4;stroke-dasharray:none;stroke-opacity:1"
         id="path266"
         inkscape:connector-curvature="0" /><path
         d="m 2052.44,2481.18 22.91,4.05 -20.6,-143.75 45.46,7.96 -3.46,-24.2 -68.31,-11.64 24,167.58"
         style="fill:#231f20;fill-opacity:1;fill-rule:nonzero;stroke:none"
         id="path268"
         inkscape:connector-curvature="0" /><path
         d="m 2052.44,2481.18 22.91,4.05 -20.6,-143.75 45.46,7.96 -3.46,-24.2 -68.31,-11.64 z"
         style="fill:none;stroke:#231f20;stroke-width:30;stroke-linecap:round;stroke-linejoin:round;stroke-miterlimit:4;stroke-dasharray:none;stroke-opacity:1"
         id="path270"
         inkscape:connector-curvature="0" /><path
         d="m 2122.54,2398.97 -17.6,91.41 24.27,4.29 8.92,-63.54 0.46,0.15 27.98,69.92 24.3,4.32 -45.44,-102.52 -10.23,-71.09 -22.91,-3.94 10.25,71"
         style="fill:#231f20;fill-opacity:1;fill-rule:nonzero;stroke:none"
         id="path272"
         inkscape:connector-curvature="0" /><path
         d="m 2122.54,2398.97 -17.6,91.41 24.27,4.29 8.92,-63.54 0.46,0.15 27.98,69.92 24.3,4.32 -45.44,-102.52 -10.23,-71.09 -22.91,-3.94 z"
         style="fill:none;stroke:#231f20;stroke-width:30;stroke-linecap:round;stroke-linejoin:round;stroke-miterlimit:4;stroke-dasharray:none;stroke-opacity:1"
         id="path274"
         inkscape:connector-curvature="0" /><path
         d="m 2214.22,2487.61 -26.61,-4.73 3.32,22.64 76.06,13.61 -3.3,-22.7 -26.53,-4.72 -21.01,-145.72 -22.94,-4.02 21.01,145.64"
         style="fill:#231f20;fill-opacity:1;fill-rule:nonzero;stroke:none"
         id="path276"
         inkscape:connector-curvature="0" /><path
         d="m 2214.22,2487.61 -26.61,-4.73 3.32,22.64 76.06,13.61 -3.3,-22.7 -26.53,-4.72 -21.01,-145.72 -22.94,-4.02 z"
         style="fill:none;stroke:#231f20;stroke-width:30;stroke-linecap:round;stroke-linejoin:round;stroke-miterlimit:4;stroke-dasharray:none;stroke-opacity:1"
         id="path278"
         inkscape:connector-curvature="0" /><path
         d="m 2277.1,2520.86 68.52,12.42 -3.27,-22.74 -45.51,-8.18 -7.16,-49.47 39.68,7.11 -3.37,-22.74 -39.64,-7.07 -7.05,-49.5 45.44,8.06 -3.56,-24.19 -68.4,-12.06 24.32,168.36"
         style="fill:#231f20;fill-opacity:1;fill-rule:nonzero;stroke:none"
         id="path280"
         inkscape:connector-curvature="0" /><path
         d="m 2277.1,2520.86 68.52,12.42 -3.27,-22.74 -45.51,-8.18 -7.16,-49.47 39.68,7.11 -3.37,-22.74 -39.64,-7.07 -7.05,-49.5 45.44,8.06 -3.56,-24.19 -68.4,-12.06 z"
         style="fill:none;stroke:#231f20;stroke-width:30;stroke-linecap:round;stroke-linejoin:round;stroke-miterlimit:4;stroke-dasharray:none;stroke-opacity:1"
         id="path282"
         inkscape:connector-curvature="0" /><path
         d="m 2414.46,2418.1 c -3.03,-20.91 -21.69,-42.06 -42.1,-45.77 -17.6,-3.15 -36.55,2.28 -32.09,32.99 l 13.48,92.95 c 3.13,22.01 20.72,41.62 43.03,45.59 21.26,3.98 34.5,-10.02 31.09,-33.51 l -1.39,-9.46 -22.96,-4.21 1.17,7.99 c 1.38,9.58 -2.96,16.64 -11.71,15.05 -11.42,-2.09 -15.37,-10.9 -16.96,-22.25 l -12.6,-86.24 c -1.36,-9.77 1.14,-16.68 11.53,-14.79 6.27,1.02 14.9,6.32 16.85,19.55 l 1.14,8.42 23.02,4.08 -1.5,-10.39"
         style="fill:#231f20;fill-opacity:1;fill-rule:nonzero;stroke:none"
         id="path284"
         inkscape:connector-curvature="0" /><path
         d="m 2414.46,2418.1 c -3.03,-20.91 -21.69,-42.06 -42.1,-45.77 -17.6,-3.15 -36.55,2.28 -32.09,32.99 l 13.48,92.95 c 3.13,22.01 20.72,41.62 43.03,45.59 21.26,3.98 34.5,-10.02 31.09,-33.51 l -1.39,-9.46 -22.96,-4.21 1.17,7.99 c 1.38,9.58 -2.96,16.64 -11.71,15.05 -11.42,-2.09 -15.37,-10.9 -16.96,-22.25 l -12.6,-86.24 c -1.36,-9.77 1.14,-16.68 11.53,-14.79 6.27,1.02 14.9,6.32 16.85,19.55 l 1.14,8.42 23.02,4.08 z"
         style="fill:none;stroke:#231f20;stroke-width:30;stroke-linecap:round;stroke-linejoin:round;stroke-miterlimit:4;stroke-dasharray:none;stroke-opacity:1"
         id="path286"
         inkscape:connector-curvature="0" /><path
         d="m 2452.28,2552.8 22.91,4.13 -10.42,-72.42 28.3,5.17 10.58,72.44 23.06,4.21 -24.73,-169.17 -22.99,-4.23 11.02,75.37 -28.39,-5.14 -11.02,-75.27 -22.91,-4.21 24.59,169.12"
         style="fill:#231f20;fill-opacity:1;fill-rule:nonzero;stroke:none"
         id="path288"
         inkscape:connector-curvature="0" /><path
         d="m 2452.28,2552.8 22.91,4.13 -10.42,-72.42 28.3,5.17 10.58,72.44 23.06,4.21 -24.73,-169.17 -22.99,-4.23 11.02,75.37 -28.39,-5.14 -11.02,-75.27 -22.91,-4.21 z"
         style="fill:none;stroke:#231f20;stroke-width:30;stroke-linecap:round;stroke-linejoin:round;stroke-miterlimit:4;stroke-dasharray:none;stroke-opacity:1"
         id="path290"
         inkscape:connector-curvature="0" /><path
         d="m 2547.47,2570.19 22.09,4.12 19.78,-95.55 0.46,0.15 14.92,101.96 23.02,4.31 -24.81,-169.44 -21.58,-4 -20.39,95.4 -0.42,-0.19 -14.85,-101.73 -22.97,-4.26 24.75,169.23"
         style="fill:#231f20;fill-opacity:1;fill-rule:nonzero;stroke:none"
         id="path292"
         inkscape:connector-curvature="0" /><path
         d="m 2547.47,2570.19 22.09,4.12 19.78,-95.55 0.46,0.15 14.92,101.96 23.02,4.31 -24.81,-169.44 -21.58,-4 -20.39,95.4 -0.42,-0.19 -14.85,-101.73 -22.97,-4.26 z"
         style="fill:none;stroke:#231f20;stroke-width:30;stroke-linecap:round;stroke-linejoin:round;stroke-miterlimit:4;stroke-dasharray:none;stroke-opacity:1"
         id="path294"
         inkscape:connector-curvature="0" /><path
         d="m 2649.18,2589.18 22.98,4.33 -24.82,-169.5 -22.99,-4.38 24.83,169.55"
         style="fill:#231f20;fill-opacity:1;fill-rule:nonzero;stroke:none"
         id="path296"
         inkscape:connector-curvature="0" /><path
         d="m 2649.18,2589.18 22.98,4.33 -24.82,-169.5 -22.99,-4.38 z"
         style="fill:none;stroke:#231f20;stroke-width:30;stroke-linecap:round;stroke-linejoin:round;stroke-miterlimit:4;stroke-dasharray:none;stroke-opacity:1"
         id="path298"
         inkscape:connector-curvature="0" /><path
         d="m 2748.26,2479.72 c -3.01,-20.9 -21.7,-42.34 -42.35,-46.24 -17.5,-3.34 -36.46,2.1 -31.98,33 l 13.76,93.46 c 3.23,22.1 20.82,41.85 43.25,46.12 21.18,4.09 34.49,-9.87 31.05,-33.49 l -1.35,-9.59 -23.02,-4.34 1.07,8.15 c 1.42,9.51 -2.74,16.62 -11.55,14.9 -11.51,-2.19 -15.47,-11.01 -17.12,-22.4 l -12.8,-86.81 c -1.42,-9.71 1.11,-16.67 11.47,-14.72 6.26,1.09 15.06,6.51 16.94,19.86 l 1.26,8.31 22.93,4.33 -1.56,-10.54"
         style="fill:#231f20;fill-opacity:1;fill-rule:nonzero;stroke:none"
         id="path300"
         inkscape:connector-curvature="0" /><path
         d="m 2748.26,2479.72 c -3.01,-20.9 -21.7,-42.34 -42.35,-46.24 -17.5,-3.34 -36.46,2.1 -31.98,33 l 13.76,93.46 c 3.23,22.1 20.82,41.85 43.25,46.12 21.18,4.09 34.49,-9.87 31.05,-33.49 l -1.35,-9.59 -23.02,-4.34 1.07,8.15 c 1.42,9.51 -2.74,16.62 -11.55,14.9 -11.51,-2.19 -15.47,-11.01 -17.12,-22.4 l -12.8,-86.81 c -1.42,-9.71 1.11,-16.67 11.47,-14.72 6.26,1.09 15.06,6.51 16.94,19.86 l 1.26,8.31 22.93,4.33 z"
         style="fill:none;stroke:#231f20;stroke-width:30;stroke-linecap:round;stroke-linejoin:round;stroke-miterlimit:4;stroke-dasharray:none;stroke-opacity:1"
         id="path302"
         inkscape:connector-curvature="0" /><path
         d="m 1149.13,2303.09 -22.74,-3.31 0.73,5.38 c 1.42,10.67 -1.8,19.05 -13.4,17.3 -12.56,-1.87 -16.87,-12.61 -18.34,-23.37 -1.67,-12.59 -1.23,-16.71 10,-19.88 l 16.46,-4.57 c 19,-4.85 20.98,-17.39 17.71,-41.33 -3.76,-27.52 -16.44,-49.48 -45.85,-53.61 -22.09,-3.08 -36.57,11.24 -33.51,33.22 l 1.11,8.8 22.83,3.23 -1.01,-7.33 c -1.18,-8.53 2.14,-16.11 13.79,-14.58 15.37,2.3 17.77,11.85 19.79,26.83 2.43,17.38 0.86,19.83 -9.75,22.92 l -15.32,4.43 c -18.51,5.45 -21.85,18.03 -19.1,38.37 3.43,24.8 19.14,46.59 45.26,50.42 22.82,3.37 35.46,-13.24 32.9,-31.39 l -1.56,-11.53"
         style="fill:#ffffff;fill-opacity:1;fill-rule:nonzero;stroke:none"
         id="path304"
         inkscape:connector-curvature="0" /><path
         d="m 1176.91,2230.92 c -1.57,-11.36 4.81,-15.62 13.05,-14.36 8.32,1.05 16.2,7.52 17.76,18.79 l 11.89,86.59 c 1.54,11.25 -4.81,15.52 -13.13,14.25 -8.29,-1.25 -16.17,-7.61 -17.71,-18.85 z m -10.89,83.04 c 3.58,26.73 25.18,42.94 43.72,45.73 18.56,2.71 36.42,-7.69 32.69,-34.33 l -11.93,-86.64 c -3.7,-26.76 -25.18,-43.02 -43.66,-45.65 -18.65,-2.7 -36.4,7.85 -32.7,34.44 l 11.88,86.45"
         style="fill:#ffffff;fill-opacity:1;fill-rule:nonzero;stroke:none"
         id="path306"
         inkscape:connector-curvature="0" /><path
         d="m 1324.14,2250.78 c -2.97,-21.42 -21.87,-40.81 -42.23,-43.85 -20.31,-2.96 -34.56,11.52 -31.51,32.84 l 17.56,127.32 22.84,3.44 -17.32,-125 c -1.61,-11.6 3.62,-16.17 11.73,-15.03 8.07,1.17 14.83,7.68 16.46,19.21 l 17.36,125.2 22.85,3.52 -17.74,-127.65"
         style="fill:#ffffff;fill-opacity:1;fill-rule:nonzero;stroke:none"
         id="path308"
         inkscape:connector-curvature="0" /><path
         d="m 1375.23,2361.78 -26.43,-4.01 3.12,22.14 75.76,11.84 -3.18,-22.28 -26.42,-4.09 -19.78,-142.65 -22.87,-3.48 19.8,142.53"
         style="fill:#ffffff;fill-opacity:1;fill-rule:nonzero;stroke:none"
         id="path310"
         inkscape:connector-curvature="0" /><path
         d="m 1437.72,2393.33 22.84,3.53 -9.84,-70.61 28.21,4.35 9.9,70.77 22.9,3.63 -23.17,-165.4 -22.84,-3.58 10.29,73.67 -28.3,-4.41 -10.15,-73.55 -22.8,-3.55 22.96,165.15"
         style="fill:#ffffff;fill-opacity:1;fill-rule:nonzero;stroke:none"
         id="path312"
         inkscape:connector-curvature="0" /><path
         d="m 1533.2,2408.43 68.14,10.97 -3.09,-22.41 -45.27,-7.17 -6.86,-48.68 39.38,6.24 -3.08,-22.21 -39.44,-6.33 -6.77,-48.64 45.21,7.12 -3.29,-23.73 -68.1,-10.64 23.17,165.48"
         style="fill:#ffffff;fill-opacity:1;fill-rule:nonzero;stroke:none"
         id="path314"
         inkscape:connector-curvature="0" /><path
         d="m 1628.61,2351.39 13.03,2.13 c 15.86,2.6 19.74,12.37 22.08,28.86 2.34,16.75 0.9,25.5 -15.85,22.64 l -11.96,-1.95 z m -12.4,70.4 36.8,6.03 c 27.09,4.46 38.01,-9.98 33.41,-42.21 -2.67,-19.15 -9.73,-34.02 -25.48,-44.76 l 13.96,-71.82 -24.23,-3.85 -11.36,67.46 -13.61,-2.21 -9.96,-70.93 -22.87,-3.58 23.34,165.87"
         style="fill:#ffffff;fill-opacity:1;fill-rule:nonzero;stroke:none"
         id="path316"
         inkscape:connector-curvature="0" /><path
         d="m 1710.84,2437.28 22.05,3.73 20.39,-94.63 0.43,-0.01 14.16,100.33 22.97,3.86 -23.61,-166.66 -21.54,-3.5 -20.78,94.42 -0.5,-0.15 -14.16,-100.03 -22.85,-3.58 23.44,166.22"
         style="fill:#ffffff;fill-opacity:1;fill-rule:nonzero;stroke:none"
         id="path318"
         inkscape:connector-curvature="0" /><path
         d="m 1864.87,2385.72 11.01,1.87 c 18.7,3.02 20.57,14.7 22.88,31.23 2.26,15.74 4.11,28.7 -13.9,25.67 l -11.91,-2.09 z m -11.6,75.25 34.4,5.94 c 12.5,2.19 21.38,0.66 27.99,-6.7 6.63,-7.41 7.56,-17.49 4.72,-37.42 -1.97,-14.56 -4.56,-24.59 -11.31,-34.71 -7.76,-11.85 -18.89,-20.1 -35.65,-22.97 l -11.7,-1.87 -9.22,-65.35 -22.96,-3.75 23.73,166.83"
         style="fill:#ffffff;fill-opacity:1;fill-rule:nonzero;stroke:none"
         id="path320"
         inkscape:connector-curvature="0" /><path
         d="m 1948.15,2352.49 c -1.76,-11.59 4.7,-15.79 13.02,-14.28 8.28,1.34 16.28,7.94 17.95,19.59 l 12.62,88.4 c 1.57,11.51 -4.81,15.6 -13.17,14.18 -8.26,-1.31 -16.25,-7.95 -17.85,-19.62 z m -10.35,84.5 c 3.87,27.14 25.51,44.17 44.22,47.46 18.67,3.14 36.47,-7.06 32.63,-34.32 l -12.64,-88.46 c -3.96,-27.44 -25.66,-44.33 -44.23,-47.5 -18.69,-3.21 -36.48,7.16 -32.5,34.41 l 12.52,88.41"
         style="fill:#ffffff;fill-opacity:1;fill-rule:nonzero;stroke:none"
         id="path322"
         inkscape:connector-curvature="0" /><path
         d="m 2040.51,2493.09 22.92,4.05 -20.59,-143.74 45.45,7.95 -3.45,-24.19 -68.3,-11.65 23.97,167.58"
         style="fill:#ffffff;fill-opacity:1;fill-rule:nonzero;stroke:none"
         id="path324"
         inkscape:connector-curvature="0" /><path
         d="m 2110.61,2410.88 -17.6,91.41 24.27,4.31 8.94,-63.55 0.46,0.15 27.96,69.91 24.31,4.33 -45.43,-102.54 -10.23,-71.08 -22.9,-3.94 10.22,71"
         style="fill:#ffffff;fill-opacity:1;fill-rule:nonzero;stroke:none"
         id="path326"
         inkscape:connector-curvature="0" /><path
         d="m 2202.3,2499.53 -26.58,-4.73 3.31,22.64 76.03,13.61 -3.3,-22.71 -26.5,-4.71 -21.04,-145.73 -22.94,-4.01 21.02,145.64"
         style="fill:#ffffff;fill-opacity:1;fill-rule:nonzero;stroke:none"
         id="path328"
         inkscape:connector-curvature="0" /><path
         d="m 2265.2,2532.77 68.52,12.43 -3.29,-22.74 -45.48,-8.19 -7.18,-49.46 39.68,7.1 -3.36,-22.73 -39.67,-7.08 -7.03,-49.49 45.44,8.06 -3.58,-24.2 -68.4,-12.06 24.35,168.36"
         style="fill:#ffffff;fill-opacity:1;fill-rule:nonzero;stroke:none"
         id="path330"
         inkscape:connector-curvature="0" /><path
         d="m 2402.55,2430.01 c -3.03,-20.9 -21.7,-42.05 -42.1,-45.77 -17.6,-3.15 -36.56,2.3 -32.09,33 l 13.48,92.94 c 3.15,22.02 20.71,41.63 43.01,45.61 21.28,3.96 34.52,-10.03 31.09,-33.52 l -1.37,-9.47 -22.96,-4.2 1.16,7.98 c 1.4,9.59 -2.93,16.64 -11.73,15.05 -11.41,-2.08 -15.35,-10.89 -16.92,-22.24 l -12.63,-86.25 c -1.37,-9.76 1.15,-16.67 11.52,-14.78 6.29,1.03 14.92,6.31 16.87,19.55 l 1.14,8.42 23.03,4.09 -1.5,-10.41"
         style="fill:#ffffff;fill-opacity:1;fill-rule:nonzero;stroke:none"
         id="path332"
         inkscape:connector-curvature="0" /><path
         d="m 2440.38,2564.71 22.91,4.14 -10.43,-72.42 28.3,5.17 10.59,72.45 23.04,4.2 -24.75,-169.18 -22.95,-4.23 11.01,75.38 -28.4,-5.14 -11.02,-75.28 -22.9,-4.2 24.6,169.11"
         style="fill:#ffffff;fill-opacity:1;fill-rule:nonzero;stroke:none"
         id="path334"
         inkscape:connector-curvature="0" /><path
         d="m 2535.54,2582.11 22.1,4.12 19.79,-95.54 0.46,0.14 14.91,101.95 23.03,4.31 -24.83,-169.44 -21.55,-4 -20.4,95.4 -0.42,-0.18 -14.86,-101.73 -22.96,-4.26 24.73,169.23"
         style="fill:#ffffff;fill-opacity:1;fill-rule:nonzero;stroke:none"
         id="path336"
         inkscape:connector-curvature="0" /><path
         d="m 2637.26,2601.11 22.99,4.31 -24.83,-169.5 -22.97,-4.38 24.81,169.57"
         style="fill:#ffffff;fill-opacity:1;fill-rule:nonzero;stroke:none"
         id="path338"
         inkscape:connector-curvature="0" /><path
         d="m 2736.34,2491.63 c -3.01,-20.89 -21.69,-42.33 -42.34,-46.22 -17.51,-3.35 -36.48,2.08 -31.97,32.98 l 13.74,93.47 c 3.23,22.09 20.84,41.84 43.26,46.12 21.18,4.08 34.47,-9.87 31.03,-33.5 l -1.34,-9.59 -23.03,-4.35 1.07,8.18 c 1.46,9.49 -2.73,16.6 -11.54,14.89 -11.5,-2.19 -15.47,-11.02 -17.1,-22.41 l -12.8,-86.81 c -1.44,-9.71 1.08,-16.67 11.46,-14.72 6.24,1.1 15.05,6.52 16.94,19.87 l 1.25,8.3 22.94,4.33 -1.57,-10.54"
         style="fill:#ffffff;fill-opacity:1;fill-rule:nonzero;stroke:none"
         id="path340"
         inkscape:connector-curvature="0" /></g></g></svg>