<?xml version="1.0" encoding="UTF-8" standalone="no"?>
<!-- Created with Inkscape (http://www.inkscape.org/) -->

<svg
   xmlns:dc="http://purl.org/dc/elements/1.1/"
   xmlns:cc="http://creativecommons.org/ns#"
   xmlns:rdf="http://www.w3.org/1999/02/22-rdf-syntax-ns#"
   xmlns:svg="http://www.w3.org/2000/svg"
   xmlns="http://www.w3.org/2000/svg"
   xmlns:sodipodi="http://sodipodi.sourceforge.net/DTD/sodipodi-0.dtd"
   xmlns:inkscape="http://www.inkscape.org/namespaces/inkscape"
   version="1.1"
   id="svg2"
   xml:space="preserve"
   width="574.47998"
   height="462.78668"
   viewBox="0 0 574.47998 462.78668"
   sodipodi:docname="script_bw.svg"
   inkscape:version="0.92.1 r15371"
   inkscape:export-filename="/home/kurt/Desktop/SPSU Visual Identity WIP/Athletics/Baseball/Script/script_bw.png"
   inkscape:export-xdpi="33.421532"
   inkscape:export-ydpi="33.421532"><metadata
     id="metadata8"><rdf:RDF><cc:Work
         rdf:about=""><dc:format>image/svg+xml</dc:format><dc:type
           rdf:resource="http://purl.org/dc/dcmitype/StillImage" /><dc:title /></cc:Work></rdf:RDF></metadata><defs
     id="defs6" /><sodipodi:namedview
     pagecolor="#ffffff"
     bordercolor="#666666"
     borderopacity="1"
     objecttolerance="10"
     gridtolerance="10"
     guidetolerance="10"
     inkscape:pageopacity="0"
     inkscape:pageshadow="2"
     inkscape:window-width="1440"
     inkscape:window-height="843"
     id="namedview4"
     showgrid="false"
     inkscape:zoom="1.3526751"
     inkscape:cx="287.23999"
     inkscape:cy="231.39334"
     inkscape:window-x="0"
     inkscape:window-y="31"
     inkscape:window-maximized="1"
     inkscape:current-layer="g10" /><g
     id="g10"
     inkscape:groupmode="layer"
     inkscape:label="ink_ext_XXXXXX"
     transform="matrix(1.3333333,0,0,-1.3333333,0,462.78667)"><g
       id="g12"
       transform="scale(0.1)"><path
         d="m 3858.09,962.891 c 0,-61.25 -43.44,-136.672 -96.75,-167.243 L 2423.61,22.8711 c -52.98,-30.50001 -140.24,-30.50001 -193.36,0 L 892.285,795.648 c -53.191,30.723 -96.66,105.993 -96.66,167.243 V 2507.98 c 0,61.37 43.469,136.76 96.738,167.4 l 1337.887,772.35 c 53.11,30.85 140.37,30.85 193.36,0 l 1337.73,-772.35 c 53.31,-30.64 96.75,-106.03 96.75,-167.4 V 962.891"
         style="fill:#bdbcbc;fill-opacity:1;fill-rule:nonzero;stroke:none"
         id="path14"
         inkscape:connector-curvature="0" /><path
         d="m 1706.46,1318.86 c 26.07,51.55 45.4,103.28 58.22,148.13 5.12,17.85 10.45,39.34 15.58,63.28 22.66,9.12 47.89,21.98 73.33,40.35 0.4,-15.98 1.61,-31.93 3.79,-48.01 5.92,-45.3 24.25,-86.18 53.26,-116.73 2.37,-14.17 5.78,-27.83 10.52,-40.97 z m -977.343,-209.48 18.031,110.64 c 8.387,-17.37 18.454,-33.2 30.196,-47.53 z m 3434.653,587.66 c -8.83,7.45 -19.1,12.58 -30.05,15.05 l 1.06,16.29 c 87.35,65.75 139.51,163.87 142.84,264.56 0.59,19.55 -0.73,38.99 -4.06,58.22 -8.75,53.09 -25.83,96.01 -44.63,130.7 l -40.17,85.47 h -0.05 c -14.41,31.34 -30.9,57.06 -46.07,77.99 4.36,13.01 4.9,27.24 1.35,40.75 -0.05,0.43 -0.21,0.69 -0.28,1.04 l 0.29,0.35 -1.33,3.03 c -1.73,5.15 -4.12,9.96 -6.97,14.57 l -43.53,92.9 -0.81,-0.57 c -4.58,15.55 -14.64,29.12 -28,38.19 -1.14,1.69 -2.45,3.44 -3.72,5.18 l -39.91,85.04 c -3.31,11.62 -9.27,22.4 -18.04,31.17 -16.41,16.28 -39.86,23.53 -62.56,19.34 l -101,-18.71 -39.54,84.1 c -3.11,11.22 -8.95,21.48 -17.25,30.16 -15.92,16.34 -38.48,23.89 -60.97,20.42 l -202.54,-30.6 c -29.82,-4.62 -53.45,-27.72 -58.71,-57.45 l -20.52,-116.64 -147.97,-27.02 c -29.39,-5.48 -52.34,-29.03 -56.87,-58.67 l -10.81,-71.24 c -1.12,-7.15 -1.02,-14.47 0,-21.46 -4.39,-0.5 -8.75,-1.34 -13.2,-1.97 -64.83,-11.13 -120.27,-42.25 -165.69,-80.91 -45.59,-38.74 -82.23,-85.11 -113.05,-132.21 -3.58,-5.6 -6.93,-11.32 -10.28,-16.93 l -28.96,61.68 -0.47,-0.34 c -5.79,10.65 -12.62,20.9 -21.03,30.72 -27.02,32.61 -71.94,54.35 -118.61,54.94 -14.29,0.43 -28.84,-0.71 -43.66,-3.2 -49.53,-8.67 -94.06,-30.77 -132.52,-60.09 -13.24,6.63 -28.54,9 -43.52,6.51 l -196.67,-34.26 c -29.56,-5.07 -52.62,-28.5 -57.33,-58.17 l -15.11,-93.36 c -6.28,20.79 -15.71,41.76 -30.47,61.89 -12.87,17.32 -30.42,33.48 -51.93,44.92 -21.61,11.33 -46.58,17.34 -72.03,18.1 -24.6,0.73 -49.79,-3.19 -75.98,-10.89 -16.81,-4.89 -32.43,-10.09 -46.55,-14.81 l -31.14,66.48 -1.49,-1.35 c -0.68,1.17 -1.33,2.36 -2.11,3.59 -6.97,10.06 -16.98,20.6 -30.34,28.3 -13.27,7.75 -29.32,12.16 -44.14,12.51 -6.5,0.2 -13.18,-0.24 -19.69,-1.37 -23.33,-3.77 -45.38,-14.26 -62.33,-28.04 -25.78,-20.9 -40.74,-47.14 -50.17,-72.61 -9.27,-25.68 -13.51,-51.59 -14.29,-76.8 -0.62,-22.12 1.27,-43.51 6.36,-64.4 2.33,-9.56 5.12,-18.86 9.09,-28.18 -3.6,-17.65 -3.8,-18.81 -10.3,-50.81 -3.94,13.42 -8.76,26.5 -14.66,39.38 -13.63,29.6 -34.28,58.18 -63.95,79.39 -29.42,21.21 -66.75,33.04 -105.62,33.86 -6.87,0.22 -13.78,0.22 -20.74,-0.19 -52.23,-2.76 -100.35,-20.89 -141.77,-46.95 -60.5,-38.26 -108.61,-92.43 -147.6,-150.94 l 61.4,364.8 c 3.1,18.71 -1.6,37.93 -12.68,53.08 l -41.92,89.4 c -0.37,0.98 -0.69,2.19 -0.97,3.24 -3.35,8.98 -8.61,17.36 -15.56,24.3 -15.51,15.92 -38.08,23.7 -60.27,20.49 l -241.875,-34.29 c -30.262,-4.42 -54.434,-27.92 -59.457,-58.09 l -35.449,-210.26 c -4.063,7.88 -8.344,15.32 -12.903,22.52 l -23.636,49.71 c -7.25,21.25 -16.543,40.99 -27.914,58.85 l -2.985,6.4 -0.82,-0.66 c -9.898,14.71 -21.18,28.11 -33.973,39.77 -45.011,41.79 -103.621,61.05 -161.398,62.45 -18.535,0.55 -37.227,-0.59 -55.895,-3.18 -65.496,-9.38 -130.152,-36.84 -190.332,-76.23 -59.953,-39.49 -115.168,-91.18 -158.55,-152.56 l -0.383,-0.6 C 83.6719,2062.96 35.7266,1914.8 31.1602,1767.72 c -0.9649,-32.79 0.2421,-65.53 3.9296,-97.92 5.1758,-44.02 19.3672,-87.13 44.9649,-124.92 l 17.8398,-36.71 c 7.9805,-26.39 19.6255,-51.87 35.9455,-75.04 0.48,-0.86 1.101,-1.61 1.609,-2.23 l 3.141,-6.34 1.894,-0.06 c 12.36,-15.83 27.114,-30.37 45.45,-41.9 21.445,-13.81 48.125,-23.03 76.402,-23.85 11.066,-0.34 22.273,0.61 33.059,2.61 9.539,1.77 18.699,4.41 27.5,7.4 l -47.032,-290.51 c -2.402,-14.76 0.133,-29.76 6.657,-42.71 l -0.325,0.01 52.391,-110.03 0.324,-0.008 c 3.567,-6.84 8.231,-13.332 14.067,-18.813 12.742,-12 29.23,-18.707 46.289,-19.211 5.734,-0.156 11.371,0.262 17.078,1.543 -4.473,-11.199 -6.137,-23.781 -4.219,-36.531 5.535,-36.699 38.84,-62.801 75.895,-59.57 h 0.113 c 2.941,0.211 23,1.652 55.988,0.652 92.692,-2.73 285.172,-24.461 482.509,-140.66 l 1.33,-0.863 c 144.46,-81.008 241.44,-155.809 301.56,-209.528 30.11,-26.801 51.03,-48.351 64.12,-62.672 6.54,-7.179 11.08,-12.488 13.78,-16.007 1.45,-1.563 2.34,-2.762 2.88,-3.403 0.22,-0.277 0.3,-0.519 0.3,-0.519 l 0.17,-0.008 c 12.94,-17.391 32.93,-27.652 54.11,-28.281 4.31,-0.129 8.7,0.14 13.09,0.761 25.96,4.188 47.3,22.157 55.75,47.008 v 0 c 1.89,5.231 33.02,90.219 117.46,198.281 84.5,107.918 221.46,238.829 437.84,338.93 112.07,50.231 298.47,114.599 512.09,181.109 320.86,99.88 704.79,206.03 1008.18,287.03 151.69,40.48 283.36,74.6 376.94,98.8 93.67,24.11 149.07,38.02 149.17,38.01 29.83,7.35 51.27,33.17 53.17,63.81 l 3.42,53.88 c 1.41,22 -7.49,43.2 -24.22,57.78"
         style="fill:#231f20;fill-opacity:1;fill-rule:nonzero;stroke:none"
         id="path16"
         inkscape:connector-curvature="0" /><path
         d="m 1706.46,1318.86 c 26.07,51.55 45.4,103.28 58.22,148.13 5.12,17.85 10.45,39.34 15.58,63.28 22.66,9.12 47.89,21.98 73.33,40.35 0.4,-15.98 1.61,-31.93 3.79,-48.01 5.92,-45.3 24.25,-86.18 53.26,-116.73 2.37,-14.17 5.78,-27.83 10.52,-40.97 z m -977.343,-209.48 18.031,110.64 c 8.387,-17.37 18.454,-33.2 30.196,-47.53 z m 3434.653,587.66 c -8.83,7.45 -19.1,12.58 -30.05,15.05 l 1.06,16.29 c 87.35,65.75 139.51,163.87 142.84,264.56 0.59,19.55 -0.73,38.99 -4.06,58.22 -8.75,53.09 -25.83,96.01 -44.63,130.7 l -40.17,85.47 h -0.05 c -14.41,31.34 -30.9,57.06 -46.07,77.99 4.36,13.01 4.9,27.24 1.35,40.75 -0.05,0.43 -0.21,0.69 -0.28,1.04 l 0.29,0.35 -1.33,3.03 c -1.73,5.15 -4.12,9.96 -6.97,14.57 l -43.53,92.9 -0.81,-0.57 c -4.58,15.55 -14.64,29.12 -28,38.19 -1.14,1.69 -2.45,3.44 -3.72,5.18 l -39.91,85.04 c -3.31,11.62 -9.27,22.4 -18.04,31.17 -16.41,16.28 -39.86,23.53 -62.56,19.34 l -101,-18.71 -39.54,84.1 c -3.11,11.22 -8.95,21.48 -17.25,30.16 -15.92,16.34 -38.48,23.89 -60.97,20.42 l -202.54,-30.6 c -29.82,-4.62 -53.45,-27.72 -58.71,-57.45 l -20.52,-116.64 -147.97,-27.02 c -29.39,-5.48 -52.34,-29.03 -56.87,-58.67 l -10.81,-71.24 c -1.12,-7.15 -1.02,-14.47 0,-21.46 -4.39,-0.5 -8.75,-1.34 -13.2,-1.97 -64.83,-11.13 -120.27,-42.25 -165.69,-80.91 -45.59,-38.74 -82.23,-85.11 -113.05,-132.21 -3.58,-5.6 -6.93,-11.32 -10.28,-16.93 l -28.96,61.68 -0.47,-0.34 c -5.79,10.65 -12.62,20.9 -21.03,30.72 -27.02,32.61 -71.94,54.35 -118.61,54.94 -14.29,0.43 -28.84,-0.71 -43.66,-3.2 -49.53,-8.67 -94.06,-30.77 -132.52,-60.09 -13.24,6.63 -28.54,9 -43.52,6.51 l -196.67,-34.26 c -29.56,-5.07 -52.62,-28.5 -57.33,-58.17 l -15.11,-93.36 c -6.28,20.79 -15.71,41.76 -30.47,61.89 -12.87,17.32 -30.42,33.48 -51.93,44.92 -21.61,11.33 -46.58,17.34 -72.03,18.1 -24.6,0.73 -49.79,-3.19 -75.98,-10.89 -16.81,-4.89 -32.43,-10.09 -46.55,-14.81 l -31.14,66.48 -1.49,-1.35 c -0.68,1.17 -1.33,2.36 -2.11,3.59 -6.97,10.06 -16.98,20.6 -30.34,28.3 -13.27,7.75 -29.32,12.16 -44.14,12.51 -6.5,0.2 -13.18,-0.24 -19.69,-1.37 -23.33,-3.77 -45.38,-14.26 -62.33,-28.04 -25.78,-20.9 -40.74,-47.14 -50.17,-72.61 -9.27,-25.68 -13.51,-51.59 -14.29,-76.8 -0.62,-22.12 1.27,-43.51 6.36,-64.4 2.33,-9.56 5.12,-18.86 9.09,-28.18 -3.6,-17.65 -3.8,-18.81 -10.3,-50.81 -3.94,13.42 -8.76,26.5 -14.66,39.38 -13.63,29.6 -34.28,58.18 -63.95,79.39 -29.42,21.21 -66.75,33.04 -105.62,33.86 -6.87,0.22 -13.78,0.22 -20.74,-0.19 -52.23,-2.76 -100.35,-20.89 -141.77,-46.95 -60.5,-38.26 -108.61,-92.43 -147.6,-150.94 l 61.4,364.8 c 3.1,18.71 -1.6,37.93 -12.68,53.08 l -41.92,89.4 c -0.37,0.98 -0.69,2.19 -0.97,3.24 -3.35,8.98 -8.61,17.36 -15.56,24.3 -15.51,15.92 -38.08,23.7 -60.27,20.49 l -241.875,-34.29 c -30.262,-4.42 -54.434,-27.92 -59.457,-58.09 l -35.449,-210.26 c -4.063,7.88 -8.344,15.32 -12.903,22.52 l -23.636,49.71 c -7.25,21.25 -16.543,40.99 -27.914,58.85 l -2.985,6.4 -0.82,-0.66 c -9.898,14.71 -21.18,28.11 -33.973,39.77 -45.011,41.79 -103.621,61.05 -161.398,62.45 -18.535,0.55 -37.227,-0.59 -55.895,-3.18 -65.496,-9.38 -130.152,-36.84 -190.332,-76.23 -59.953,-39.49 -115.168,-91.18 -158.55,-152.56 l -0.383,-0.6 C 83.6719,2062.96 35.7266,1914.8 31.1602,1767.72 c -0.9649,-32.79 0.2421,-65.53 3.9296,-97.92 5.1758,-44.02 19.3672,-87.13 44.9649,-124.92 l 17.8398,-36.71 c 7.9805,-26.39 19.6255,-51.87 35.9455,-75.04 0.48,-0.86 1.101,-1.61 1.609,-2.23 l 3.141,-6.34 1.894,-0.06 c 12.36,-15.83 27.114,-30.37 45.45,-41.9 21.445,-13.81 48.125,-23.03 76.402,-23.85 11.066,-0.34 22.273,0.61 33.059,2.61 9.539,1.77 18.699,4.41 27.5,7.4 l -47.032,-290.51 c -2.402,-14.76 0.133,-29.76 6.657,-42.71 l -0.325,0.01 52.391,-110.03 0.324,-0.008 c 3.567,-6.84 8.231,-13.332 14.067,-18.813 12.742,-12 29.23,-18.707 46.289,-19.211 5.734,-0.156 11.371,0.262 17.078,1.543 -4.473,-11.199 -6.137,-23.781 -4.219,-36.531 5.535,-36.699 38.84,-62.801 75.895,-59.57 h 0.113 c 2.941,0.211 23,1.652 55.988,0.652 92.692,-2.73 285.172,-24.461 482.509,-140.66 l 1.33,-0.863 c 144.46,-81.008 241.44,-155.809 301.56,-209.528 30.11,-26.801 51.03,-48.351 64.12,-62.672 6.54,-7.179 11.08,-12.488 13.78,-16.007 1.45,-1.563 2.34,-2.762 2.88,-3.403 0.22,-0.277 0.3,-0.519 0.3,-0.519 l 0.17,-0.008 c 12.94,-17.391 32.93,-27.652 54.11,-28.281 4.31,-0.129 8.7,0.14 13.09,0.761 25.96,4.188 47.3,22.157 55.75,47.008 v 0 c 1.89,5.231 33.02,90.219 117.46,198.281 84.5,107.918 221.46,238.829 437.84,338.93 112.07,50.231 298.47,114.599 512.09,181.109 320.86,99.88 704.79,206.03 1008.18,287.03 151.69,40.48 283.36,74.6 376.94,98.8 93.67,24.11 149.07,38.02 149.17,38.01 29.83,7.35 51.27,33.17 53.17,63.81 l 3.42,53.88 c 1.41,22 -7.49,43.2 -24.22,57.78 z"
         style="fill:none;stroke:#231f20;stroke-width:61.68579865;stroke-linecap:round;stroke-linejoin:round;stroke-miterlimit:4;stroke-dasharray:none;stroke-opacity:1"
         id="path18"
         inkscape:connector-curvature="0" /><path
         d="m 1565.87,1701.09 c -7.11,-43.56 -15.63,-86.75 -28.34,-129.59 -12.42,-41.99 -26.32,-95.08 -62.43,-121.75 -85.13,-63.46 -79.49,93.15 -74.2,141.58 10.37,93.41 23.22,196.03 68.78,278.01 14.02,25.18 54.07,79.27 85.51,59.43 -26.94,-13.83 -58.42,-58.51 -48.85,-132.68 5.92,-45.77 30.65,-77.15 59.53,-95 z m 1677.25,556.14 c 20.16,3.53 28.84,-14.01 30.66,-25.43 12.04,-76.97 -79.53,-196.27 -162.13,-240.96 0.14,67.38 57.62,253.09 131.47,266.39 z m 778.04,217.36 c -14.54,7.07 -35.56,7.61 -57.13,3.9 -107.03,-18.2 -139.81,-97.82 -126.35,-178.09 15.64,-93.55 93.43,-130.24 109.65,-226.15 11.91,-70.23 -37.17,-125.62 -83.72,-135.53 -17.33,-3.8 -67.04,-11.63 -84.65,31.5 55.75,15.95 111.95,83.99 99.6,157.25 -9.41,55.64 -46.8,65.31 -77.24,59.3 -83.88,-16.08 -122.23,-137.63 -110.69,-208.01 1.32,-7.78 2.97,-15.88 5.22,-23.95 -17.78,-27.18 -37.73,-47.41 -59.16,-52.07 -26.17,-5.58 -34.83,11.3 -38,30.84 -2.46,15.26 2.19,42.17 4.5,55.6 l 83.32,498.92 251.52,54.77 11.1,61.63 -250.28,-46.5 29.22,162.12 -202.46,-30.83 -29.1,-164.71 -195.96,-35.91 -10.95,-71.27 194.55,36.22 -54.27,-344.28 -3.7,-21.86 -3.53,-14.62 c -23.4,-96.44 -98,-259.08 -216.77,-284.73 -62.34,-13.46 -86.06,33.81 -93.8,84.74 -1.61,10.08 -3.05,18.8 -2.84,27.9 141.57,69.01 272.82,221.08 252.49,348.53 -9.13,57.95 -44.43,102.8 -142.78,85.9 -99.87,-17.18 -175.35,-95.81 -231.96,-182.38 -50.43,-77.67 -81.87,-178.76 -76.82,-275.93 -28.07,-72.9 -66.76,-144.08 -103.14,-151.86 -21.67,-4.68 -32.85,9.96 -35.33,26.39 -10.84,73.2 90.14,275.2 71.68,397.93 -9.77,64.96 -46.7,113.15 -126.27,99.51 -78.02,-13.42 -147.61,-74.97 -194.28,-151.47 l 18.41,97.91 -196.71,-34.16 -44.7,-277.14 c -2.22,-9.81 -4.34,-20.33 -6.67,-29.91 -21,-93.33 -81.54,-256.55 -136.61,-268.35 -21.75,-4.66 -32.78,10.82 -35.09,28.09 -10.76,76.93 96.78,281.11 78.64,410.17 -9.64,68.43 -44.45,132.63 -150.53,101.45 -83.57,-24.68 -133.7,-51.12 -150.11,-39.3 -17.85,11.57 4.95,54.29 -0.61,95.51 -3.01,22.31 -12.69,38.55 -32.94,35.33 -76.52,-12.64 -82.3,-149.35 -48.74,-189.48 -10.41,-48.83 -6.45,-30.67 -17.64,-85.3 -5.58,-27.51 -20.8,-73.35 -44.67,-108.67 -16.47,-24.11 -52.1,-38.8 -78.17,-42.56 8.65,130.63 -15.61,263.82 -145.14,256.65 -154.36,-8.05 -272.88,-196.06 -318.34,-341.55 -4.75,-15.33 -9.18,-32.09 -13.14,-49.49 -35.01,-134.56 -94.39,-292.91 -144.48,-303.57 -27.36,-5.62 -37.46,13.26 -40.61,38.65 -3.51,28.83 4.95,74.15 4.95,74.15 l 158.2,939.89 -241.958,-34.53 -91.192,-540.82 -143.863,-25.47 c 0.145,-1.69 33.184,199.42 33.184,199.42 9.539,61.26 12.238,116.07 6.582,162.48 -16.57,137.62 -110.281,187.36 -219.211,172.02 C 417.379,2324.23 295.813,2245.92 220.484,2139.19 130.652,2009.1 84.3047,1833.4 102.148,1675.1 c 8.582,-75.5 55.879,-151.14 125.661,-137.93 90.898,17.09 134.921,132.02 141.492,208.95 -1.559,-0.18 -12.617,-11.29 -24.813,-13.34 -31.871,-5.7 -58.621,25.78 -63.457,68.44 -6.418,55.15 7.957,144.41 30.477,216.56 30.152,98.41 92.277,186.64 137.586,193.25 33.332,5.05 47.644,-24.92 52.582,-66.88 8.832,-75.02 -14.922,-187.55 -14.922,-187.55 l -144.281,-892.33 244.547,53.72 95.39,584.56 143.938,26.38 -36.641,-235.67 c -9.852,-60.31 -11.625,-110.07 -5.855,-158.38 15.421,-127.81 87.203,-181.07 170.804,-162.54 110.454,24.35 179.724,123.11 233.674,274.26 10.25,-72.13 39.35,-135.74 98.66,-167.58 179.42,-94.22 312.82,164.33 355.21,313.59 7.19,25.23 15.28,59.49 22.07,97.76 59.02,16.09 174.6,64.69 202.57,237.04 10.44,63.37 8.13,46.52 14.51,85.5 69.21,2.49 115.19,35.07 111.97,-38.34 -3.12,-84.93 -90.92,-283.93 -69.04,-445.06 12.14,-89.38 79.74,-125.21 155.02,-108.3 78.77,17.75 134.19,89.52 175.41,180.19 l -19.26,-120.9 197.14,44.02 57.98,333.89 c 9.43,58.19 41.91,203.33 107.06,215.21 15.87,3.1 25.45,-1.35 28.06,-19.43 9.47,-64.73 -73.24,-231.87 -50.95,-385.17 12.33,-84.88 80.08,-118.32 155.37,-101.26 94.18,21.1 154.31,111.68 196.69,219.32 30.62,-87.46 103.17,-151.89 220.74,-125.45 123.22,27.68 201.33,111.98 254.23,219.45 0.39,-7.71 1.12,-15.24 2.2,-22.37 10.77,-67.96 53.23,-127.48 157.62,-103.9 68.67,15.43 120.38,67.1 161.07,140.05 32.34,-48.35 90.87,-83.47 190.06,-60.97 165.35,37.11 258.65,184.69 236.67,311.91 -26.72,155.24 -120.3,187.13 -135.69,276.58 -3.19,18.74 -2.06,38.19 7.46,52.21"
         style="fill:#4f4c4c;fill-opacity:1;fill-rule:nonzero;stroke:none"
         id="path20"
         inkscape:connector-curvature="0" /><path
         d="m 1565.87,1701.09 c -7.11,-43.56 -15.63,-86.75 -28.34,-129.59 -12.42,-41.99 -26.32,-95.08 -62.43,-121.75 -85.13,-63.46 -79.49,93.15 -74.2,141.58 10.37,93.41 23.22,196.03 68.78,278.01 14.02,25.18 54.07,79.27 85.51,59.43 -26.94,-13.83 -58.42,-58.51 -48.85,-132.68 5.92,-45.77 30.65,-77.15 59.53,-95 z m 1677.25,556.14 c 20.16,3.53 28.84,-14.01 30.66,-25.43 12.04,-76.97 -79.53,-196.27 -162.13,-240.96 0.14,67.38 57.62,253.09 131.47,266.39 z m 778.04,217.36 c -14.54,7.07 -35.56,7.61 -57.13,3.9 -107.03,-18.2 -139.81,-97.82 -126.35,-178.09 15.64,-93.55 93.43,-130.24 109.65,-226.15 11.91,-70.23 -37.17,-125.62 -83.72,-135.53 -17.33,-3.8 -67.04,-11.63 -84.65,31.5 55.75,15.95 111.95,83.99 99.6,157.25 -9.41,55.64 -46.8,65.31 -77.24,59.3 -83.88,-16.08 -122.23,-137.63 -110.69,-208.01 1.32,-7.78 2.97,-15.88 5.22,-23.95 -17.78,-27.18 -37.73,-47.41 -59.16,-52.07 -26.17,-5.58 -34.83,11.3 -38,30.84 -2.46,15.26 2.19,42.17 4.5,55.6 l 83.32,498.92 251.52,54.77 11.1,61.63 -250.28,-46.5 29.22,162.12 -202.46,-30.83 -29.1,-164.71 -195.96,-35.91 -10.95,-71.27 194.55,36.22 -54.27,-344.28 -3.7,-21.86 -3.53,-14.62 c -23.4,-96.44 -98,-259.08 -216.77,-284.73 -62.34,-13.46 -86.06,33.81 -93.8,84.74 -1.61,10.08 -3.05,18.8 -2.84,27.9 141.57,69.01 272.82,221.08 252.49,348.53 -9.13,57.95 -44.43,102.8 -142.78,85.9 -99.87,-17.18 -175.35,-95.81 -231.96,-182.38 -50.43,-77.67 -81.87,-178.76 -76.82,-275.93 -28.07,-72.9 -66.76,-144.08 -103.14,-151.86 -21.67,-4.68 -32.85,9.96 -35.33,26.39 -10.84,73.2 90.14,275.2 71.68,397.93 -9.77,64.96 -46.7,113.15 -126.27,99.51 -78.02,-13.42 -147.61,-74.97 -194.28,-151.47 l 18.41,97.91 -196.71,-34.16 -44.7,-277.14 c -2.22,-9.81 -4.34,-20.33 -6.67,-29.91 -21,-93.33 -81.54,-256.55 -136.61,-268.35 -21.75,-4.66 -32.78,10.82 -35.09,28.09 -10.76,76.93 96.78,281.11 78.64,410.17 -9.64,68.43 -44.45,132.63 -150.53,101.45 -83.57,-24.68 -133.7,-51.12 -150.11,-39.3 -17.85,11.57 4.95,54.29 -0.61,95.51 -3.01,22.31 -12.69,38.55 -32.94,35.33 -76.52,-12.64 -82.3,-149.35 -48.74,-189.48 -10.41,-48.83 -6.45,-30.67 -17.64,-85.3 -5.58,-27.51 -20.8,-73.35 -44.67,-108.67 -16.47,-24.11 -52.1,-38.8 -78.17,-42.56 8.65,130.63 -15.61,263.82 -145.14,256.65 -154.36,-8.05 -272.88,-196.06 -318.34,-341.55 -4.75,-15.33 -9.18,-32.09 -13.14,-49.49 -35.01,-134.56 -94.39,-292.91 -144.48,-303.57 -27.36,-5.62 -37.46,13.26 -40.61,38.65 -3.51,28.83 4.95,74.15 4.95,74.15 l 158.2,939.89 -241.958,-34.53 -91.192,-540.82 -143.863,-25.47 c 0.145,-1.69 33.184,199.42 33.184,199.42 9.539,61.26 12.238,116.07 6.582,162.48 -16.57,137.62 -110.281,187.36 -219.211,172.02 C 417.379,2324.23 295.813,2245.92 220.484,2139.19 130.652,2009.1 84.3047,1833.4 102.148,1675.1 c 8.582,-75.5 55.879,-151.14 125.661,-137.93 90.898,17.09 134.921,132.02 141.492,208.95 -1.559,-0.18 -12.617,-11.29 -24.813,-13.34 -31.871,-5.7 -58.621,25.78 -63.457,68.44 -6.418,55.15 7.957,144.41 30.477,216.56 30.152,98.41 92.277,186.64 137.586,193.25 33.332,5.05 47.644,-24.92 52.582,-66.88 8.832,-75.02 -14.922,-187.55 -14.922,-187.55 l -144.281,-892.33 244.547,53.72 95.39,584.56 143.938,26.38 -36.641,-235.67 c -9.852,-60.31 -11.625,-110.07 -5.855,-158.38 15.421,-127.81 87.203,-181.07 170.804,-162.54 110.454,24.35 179.724,123.11 233.674,274.26 10.25,-72.13 39.35,-135.74 98.66,-167.58 179.42,-94.22 312.82,164.33 355.21,313.59 7.19,25.23 15.28,59.49 22.07,97.76 59.02,16.09 174.6,64.69 202.57,237.04 10.44,63.37 8.13,46.52 14.51,85.5 69.21,2.49 115.19,35.07 111.97,-38.34 -3.12,-84.93 -90.92,-283.93 -69.04,-445.06 12.14,-89.38 79.74,-125.21 155.02,-108.3 78.77,17.75 134.19,89.52 175.41,180.19 l -19.26,-120.9 197.14,44.02 57.98,333.89 c 9.43,58.19 41.91,203.33 107.06,215.21 15.87,3.1 25.45,-1.35 28.06,-19.43 9.47,-64.73 -73.24,-231.87 -50.95,-385.17 12.33,-84.88 80.08,-118.32 155.37,-101.26 94.18,21.1 154.31,111.68 196.69,219.32 30.62,-87.46 103.17,-151.89 220.74,-125.45 123.22,27.68 201.33,111.98 254.23,219.45 0.39,-7.71 1.12,-15.24 2.2,-22.37 10.77,-67.96 53.23,-127.48 157.62,-103.9 68.67,15.43 120.38,67.1 161.07,140.05 32.34,-48.35 90.87,-83.47 190.06,-60.97 165.35,37.11 258.65,184.69 236.67,311.91 -26.72,155.24 -120.3,187.13 -135.69,276.58 -3.19,18.74 -2.06,38.19 7.46,52.21 z"
         style="fill:none;stroke:#ffffff;stroke-width:132.46099854;stroke-linecap:round;stroke-linejoin:round;stroke-miterlimit:4;stroke-dasharray:none;stroke-opacity:1"
         id="path22"
         inkscape:connector-curvature="0" /><path
         d="M 4063,1750.15 422.883,969.629 c 0,0 283.269,25.371 580.597,-149.547 297.8,-167 404.75,-311.602 404.75,-311.602 0,0 122.57,361.629 593.23,578.95 470.13,210.63 2058.01,608.84 2058.01,608.84 l 3.53,53.88"
         style="fill:#4f4c4c;fill-opacity:1;fill-rule:nonzero;stroke:none"
         id="path24"
         inkscape:connector-curvature="0" /><path
         d="M 4063,1750.15 422.883,969.629 c 0,0 283.269,25.371 580.597,-149.547 297.8,-167 404.75,-311.602 404.75,-311.602 0,0 122.57,361.629 593.23,578.95 470.13,210.63 2058.01,608.84 2058.01,608.84 z"
         style="fill:none;stroke:#ffffff;stroke-width:132.46099854;stroke-linecap:round;stroke-linejoin:round;stroke-miterlimit:4;stroke-dasharray:none;stroke-opacity:1"
         id="path26"
         inkscape:connector-curvature="0" /><path
         d="m 1565.87,1701.09 c -7.11,-43.56 -15.63,-86.75 -28.34,-129.59 -12.42,-41.99 -26.32,-95.08 -62.43,-121.75 -85.13,-63.46 -79.49,93.15 -74.2,141.58 10.37,93.41 23.22,196.03 68.78,278.01 14.02,25.18 54.07,79.27 85.51,59.43 -26.94,-13.83 -58.42,-58.51 -48.85,-132.68 5.92,-45.77 30.65,-77.15 59.53,-95 z m 1677.25,556.14 c 20.16,3.53 28.84,-14.01 30.66,-25.43 12.04,-76.97 -79.53,-196.27 -162.13,-240.96 0.14,67.38 57.62,253.09 131.47,266.39 z m 778.04,217.36 c -14.54,7.07 -35.56,7.61 -57.13,3.9 -107.03,-18.2 -139.81,-97.82 -126.35,-178.09 15.64,-93.55 93.43,-130.24 109.65,-226.15 11.91,-70.23 -37.17,-125.62 -83.72,-135.53 -17.33,-3.8 -67.04,-11.63 -84.65,31.5 55.75,15.95 111.95,83.99 99.6,157.25 -9.41,55.64 -46.8,65.31 -77.24,59.3 -83.88,-16.08 -122.23,-137.63 -110.69,-208.01 1.32,-7.78 2.97,-15.88 5.22,-23.95 -17.78,-27.18 -37.73,-47.41 -59.16,-52.07 -26.17,-5.58 -34.83,11.3 -38,30.84 -2.46,15.26 2.19,42.17 4.5,55.6 l 83.32,498.92 251.52,54.77 11.1,61.63 -250.28,-46.5 29.22,162.12 -202.46,-30.83 -29.1,-164.71 -195.96,-35.91 -10.95,-71.27 194.55,36.22 -54.27,-344.28 -3.7,-21.86 -3.53,-14.62 c -23.4,-96.44 -98,-259.08 -216.77,-284.73 -62.34,-13.46 -86.06,33.81 -93.8,84.74 -1.61,10.08 -3.05,18.8 -2.84,27.9 141.57,69.01 272.82,221.08 252.49,348.53 -9.13,57.95 -44.43,102.8 -142.78,85.9 -99.87,-17.18 -175.35,-95.81 -231.96,-182.38 -50.43,-77.67 -81.87,-178.76 -76.82,-275.93 -28.07,-72.9 -66.76,-144.08 -103.14,-151.86 -21.67,-4.68 -32.85,9.96 -35.33,26.39 -10.84,73.2 90.14,275.2 71.68,397.93 -9.77,64.96 -46.7,113.15 -126.27,99.51 -78.02,-13.42 -147.61,-74.97 -194.28,-151.47 l 18.41,97.91 -196.71,-34.16 -44.7,-277.14 c -2.22,-9.81 -4.34,-20.33 -6.67,-29.91 -21,-93.33 -81.54,-256.55 -136.61,-268.35 -21.75,-4.66 -32.78,10.82 -35.09,28.09 -10.76,76.93 96.78,281.11 78.64,410.17 -9.64,68.43 -44.45,132.63 -150.53,101.45 -83.57,-24.68 -133.7,-51.12 -150.11,-39.3 -17.85,11.57 4.95,54.29 -0.61,95.51 -3.01,22.31 -12.69,38.55 -32.94,35.33 -76.52,-12.64 -82.3,-149.35 -48.74,-189.48 -10.41,-48.83 -6.45,-30.67 -17.64,-85.3 -5.58,-27.51 -20.8,-73.35 -44.67,-108.67 -16.47,-24.11 -52.1,-38.8 -78.17,-42.56 8.65,130.63 -15.61,263.82 -145.14,256.65 -154.36,-8.05 -272.88,-196.06 -318.34,-341.55 -4.75,-15.33 -9.18,-32.09 -13.14,-49.49 -35.01,-134.56 -94.39,-292.91 -144.48,-303.57 -27.36,-5.62 -37.46,13.26 -40.61,38.65 -3.51,28.83 4.95,74.15 4.95,74.15 l 158.2,939.89 -241.958,-34.53 -91.192,-540.82 -143.863,-25.47 c 0.145,-1.69 33.184,199.42 33.184,199.42 9.539,61.26 12.238,116.07 6.582,162.48 -16.57,137.62 -110.281,187.36 -219.211,172.02 C 417.379,2324.23 295.813,2245.92 220.484,2139.19 130.652,2009.1 84.3047,1833.4 102.148,1675.1 c 8.582,-75.5 55.879,-151.14 125.661,-137.93 90.898,17.09 134.921,132.02 141.492,208.95 -1.559,-0.18 -12.617,-11.29 -24.813,-13.34 -31.871,-5.7 -58.621,25.78 -63.457,68.44 -6.418,55.15 7.957,144.41 30.477,216.56 30.152,98.41 92.277,186.64 137.586,193.25 33.332,5.05 47.644,-24.92 52.582,-66.88 8.832,-75.02 -14.922,-187.55 -14.922,-187.55 l -144.281,-892.33 244.547,53.72 95.39,584.56 143.938,26.38 -36.641,-235.67 c -9.852,-60.31 -11.625,-110.07 -5.855,-158.38 15.421,-127.81 87.203,-181.07 170.804,-162.54 110.454,24.35 179.724,123.11 233.674,274.26 10.25,-72.13 39.35,-135.74 98.66,-167.58 179.42,-94.22 312.82,164.33 355.21,313.59 7.19,25.23 15.28,59.49 22.07,97.76 59.02,16.09 174.6,64.69 202.57,237.04 10.44,63.37 8.13,46.52 14.51,85.5 69.21,2.49 115.19,35.07 111.97,-38.34 -3.12,-84.93 -90.92,-283.93 -69.04,-445.06 12.14,-89.38 79.74,-125.21 155.02,-108.3 78.77,17.75 134.19,89.52 175.41,180.19 l -19.26,-120.9 197.14,44.02 57.98,333.89 c 9.43,58.19 41.91,203.33 107.06,215.21 15.87,3.1 25.45,-1.35 28.06,-19.43 9.47,-64.73 -73.24,-231.87 -50.95,-385.17 12.33,-84.88 80.08,-118.32 155.37,-101.26 94.18,21.1 154.31,111.68 196.69,219.32 30.62,-87.46 103.17,-151.89 220.74,-125.45 123.22,27.68 201.33,111.98 254.23,219.45 0.39,-7.71 1.12,-15.24 2.2,-22.37 10.77,-67.96 53.23,-127.48 157.62,-103.9 68.67,15.43 120.38,67.1 161.07,140.05 32.34,-48.35 90.87,-83.47 190.06,-60.97 165.35,37.11 258.65,184.69 236.67,311.91 -26.72,155.24 -120.3,187.13 -135.69,276.58 -3.19,18.74 -2.06,38.19 7.46,52.21"
         style="fill:#231f20;fill-opacity:1;fill-rule:nonzero;stroke:none"
         id="path28"
         inkscape:connector-curvature="0" /><path
         d="M 4063,1750.15 422.883,969.629 c 0,0 283.269,25.371 580.597,-149.547 297.8,-167 404.75,-311.602 404.75,-311.602 0,0 122.57,361.629 593.23,578.95 470.13,210.63 2058.01,608.84 2058.01,608.84 l 3.53,53.88"
         style="fill:#231f20;fill-opacity:1;fill-rule:nonzero;stroke:none"
         id="path30"
         inkscape:connector-curvature="0" /><path
         d="m 2807.03,1725.03 c -7.09,-1.42 -12.94,-0.77 -17.91,1.17 4.87,-11.93 15.33,-20.56 32.73,-16.77 36.28,7.84 75.01,78.95 103.02,151.75 -4.98,97.3 26.56,198.37 76.94,276.04 56.6,86.67 132.01,165.07 231.85,182.36 51.55,8.88 85.73,0.51 107.93,-17.54 -20.57,28.58 -57.98,44.26 -122.64,33.16 -99.87,-17.18 -175.35,-95.81 -231.96,-182.38 -50.43,-77.67 -81.87,-178.76 -76.82,-275.93 -28.07,-72.9 -66.76,-144.08 -103.14,-151.86"
         style="fill:#4f4c4c;fill-opacity:1;fill-rule:nonzero;stroke:none"
         id="path32"
         inkscape:connector-curvature="0" /><path
         d="m 3315.18,2472.98 195.96,35.9 29.18,164.89 184.44,27.93 3.31,18.42 -202.46,-30.83 -29.1,-164.71 -195.96,-35.91 -10.95,-71.27 17.67,3.26 7.91,52.32"
         style="fill:#4f4c4c;fill-opacity:1;fill-rule:nonzero;stroke:none"
         id="path34"
         inkscape:connector-curvature="0" /><path
         d="m 2156.55,1585.74 c -6.73,-1.45 -12.53,-0.88 -17.4,1.04 5.08,-11.92 15.44,-20.27 32.18,-16.58 55.07,11.63 115.51,174.86 136.68,268.36 2.21,9.49 4.37,19.92 6.63,29.85 l 44.62,277.15 178.45,30.96 3.53,18.78 -196.71,-34.16 -44.7,-277.14 c -2.22,-9.81 -4.34,-20.33 -6.67,-29.91 -21,-93.33 -81.54,-256.55 -136.61,-268.35"
         style="fill:#4f4c4c;fill-opacity:1;fill-rule:nonzero;stroke:none"
         id="path36"
         inkscape:connector-curvature="0" /><path
         d="m 2537.55,2081.66 c 46.76,76.67 116.23,138.06 194.36,151.58 38.09,6.47 66.26,-1.24 86.56,-18.08 -20.34,27.4 -52.97,42.11 -101.36,33.7 -65.35,-11.28 -124.89,-56.4 -169.95,-115.89 l -9.61,-51.31"
         style="fill:#4f4c4c;fill-opacity:1;fill-rule:nonzero;stroke:none"
         id="path38"
         inkscape:connector-curvature="0" /><path
         d="m 1489.94,1434.14 c 35.99,26.65 50.01,79.7 62.43,121.76 12.63,42.71 21.11,85.93 28.15,129.63 -5.33,3.26 -10.43,7.21 -15.45,11.54 -6.96,-42.4 -15.19,-84.21 -27.54,-125.57 -12.42,-41.99 -26.32,-95.08 -62.43,-121.75 -20.63,-15.41 -35.97,-17.77 -47.24,-11.97 11.16,-20.34 30.36,-27.3 62.08,-3.64"
         style="fill:#4f4c4c;fill-opacity:1;fill-rule:nonzero;stroke:none"
         id="path40"
         inkscape:connector-curvature="0" /><path
         d="m 1907.55,2083.37 c 0.58,-5.77 2.45,-10.2 6.6,-12.93 16.41,-11.7 66.66,14.81 150.14,39.43 51.2,15.07 85.82,7.86 109.08,-11.36 -22.36,30.04 -60.36,45.63 -123.8,26.94 -72.75,-21.51 -120.23,-44.33 -142.02,-42.08"
         style="fill:#4f4c4c;fill-opacity:1;fill-rule:nonzero;stroke:none"
         id="path42"
         inkscape:connector-curvature="0" /><path
         d="m 3440.98,2071.77 3.68,21.83 54.2,344.36 -17.72,-3.29 -51.26,-325.33 -3.7,-21.86 -3.53,-14.62 c -23.4,-96.44 -98,-259.08 -216.77,-284.73 -25.38,-5.47 -44.32,-0.75 -58.44,10.17 14.56,-21.24 37.51,-33.46 73.08,-25.66 118.84,25.56 193.39,188.04 216.9,284.73 l 3.56,14.4"
         style="fill:#4f4c4c;fill-opacity:1;fill-rule:nonzero;stroke:none"
         id="path44"
         inkscape:connector-curvature="0" /><path
         d="m 3713.55,2542.28 232.1,43.11 3.48,19.11 -232.21,-43.15 -3.37,-19.07"
         style="fill:#4f4c4c;fill-opacity:1;fill-rule:nonzero;stroke:none"
         id="path46"
         inkscape:connector-curvature="0" /><path
         d="m 3271.33,2240.52 c 1.12,-2.93 1.95,-6 2.45,-8.72 11.32,-71.76 -67.59,-180.4 -145.36,-230.96 -1.25,-9.62 -1.95,-18.3 -2.04,-25.59 82.59,44.54 174.21,164.03 162.18,240.98 -1.41,8.43 -6.51,20.13 -17.23,24.29"
         style="fill:#4f4c4c;fill-opacity:1;fill-rule:nonzero;stroke:none"
         id="path48"
         inkscape:connector-curvature="0" /><path
         d="m 3801.32,2186.77 c -83.88,-16.08 -122.23,-137.63 -110.69,-208.01 1.32,-7.78 2.97,-15.88 5.22,-23.95 -17.78,-27.18 -37.73,-47.41 -59.16,-52.07 -7.94,-1.75 -14.27,-1.28 -19.38,0.63 5.11,-12.31 14.93,-20.35 34.09,-16.22 21.49,4.46 41.46,24.76 59.2,51.91 -2.19,8.23 -3.96,16.32 -5.21,23.98 -11.55,70.55 26.77,191.91 110.75,208.18 16.35,3.17 34.89,1.71 49.86,-9 -15.93,24.86 -42.25,28.98 -64.68,24.55"
         style="fill:#4f4c4c;fill-opacity:1;fill-rule:nonzero;stroke:none"
         id="path50"
         inkscape:connector-curvature="0" /><path
         d="m 3837.68,2300.4 c 15.64,-93.55 93.43,-130.24 109.65,-226.15 11.91,-70.23 -37.17,-125.62 -83.72,-135.53 -12.74,-2.88 -43.44,-7.81 -65.59,7.25 20.38,-33.36 64.27,-26.43 80.35,-23.02 46.42,10.1 95.5,65.42 83.78,135.7 -16.21,95.79 -94.1,132.4 -109.78,226.13 -13.33,80.15 19.5,159.82 126.24,178.06 13.22,2.21 26.09,2.92 37.48,1.5 1.37,3.65 2.98,7.07 5.07,10.25 -14.54,7.07 -35.56,7.61 -57.13,3.9 -107.03,-18.2 -139.81,-97.82 -126.35,-178.09"
         style="fill:#4f4c4c;fill-opacity:1;fill-rule:nonzero;stroke:none"
         id="path52"
         inkscape:connector-curvature="0" /><path
         d="m 3737.49,1879.2 c -0.42,-0.7 -0.85,-1.29 -1.23,-1.96 3.45,-3.85 7,-7.45 10.78,-10.93 -3.37,4.19 -6.58,8.42 -9.55,12.89"
         style="fill:#4f4c4c;fill-opacity:1;fill-rule:nonzero;stroke:none"
         id="path54"
         inkscape:connector-curvature="0" /><path
         d="m 1531.98,1909.12 c -18.34,-22.27 -32.44,-60.19 -25.64,-113.03 4.7,-36.16 21.1,-63.17 41.93,-81.79 -13.44,17.24 -23.68,39.14 -27.18,66.17 -9.54,74.09 21.98,118.97 48.9,132.63 -12,7.54 -25.35,4.36 -38.01,-3.98"
         style="fill:#4f4c4c;fill-opacity:1;fill-rule:nonzero;stroke:none"
         id="path56"
         inkscape:connector-curvature="0" /><path
         d="m 2269.46,1585.77 c -7.85,-17.08 -16.23,-33.63 -25.08,-49.24 l -8.93,-56.03 17.88,3.96 16.13,101.31"
         style="fill:#4f4c4c;fill-opacity:1;fill-rule:nonzero;stroke:none"
         id="path58"
         inkscape:connector-curvature="0" /><path
         d="m 2589.39,1653.43 c -22.25,153.23 60.52,320.36 50.94,385.05 -1.74,12.74 -7.08,18.57 -15.55,20.02 0.4,-1.44 0.71,-2.79 0.91,-4.31 9.47,-64.73 -73.24,-231.87 -50.95,-385.17 4.98,-34.58 19.4,-60.57 39.5,-78.19 -12.32,16.31 -21.1,37.06 -24.85,62.6"
         style="fill:#4f4c4c;fill-opacity:1;fill-rule:nonzero;stroke:none"
         id="path60"
         inkscape:connector-curvature="0" /><path
         d="m 1691.4,1775.44 c 26.14,3.75 61.71,18.34 78.06,42.56 24.03,35.2 39.21,81.16 44.85,108.67 11.13,54.51 7.14,36.31 17.51,85.3 -33.57,40.05 -27.79,176.79 48.88,189.32 4.93,0.85 9.33,0.49 13.07,-0.92 -5.19,11.82 -13.9,18.75 -27.86,16.62 -76.52,-12.64 -82.3,-149.35 -48.74,-189.48 -10.41,-48.83 -6.45,-30.67 -17.64,-85.3 -5.58,-27.51 -20.8,-73.35 -44.67,-108.67 -13.36,-19.5 -39.22,-32.71 -62.51,-39.09 -0.23,-6.34 -0.54,-12.68 -0.95,-19.01"
         style="fill:#4f4c4c;fill-opacity:1;fill-rule:nonzero;stroke:none"
         id="path62"
         inkscape:connector-curvature="0" /><path
         d="m 2941.55,1771.52 c -1.3,-3.4 -2.69,-6.77 -4.09,-10.14 11.08,-23.36 25.64,-44.25 43.59,-61.2 -17.07,20.29 -30.24,44.8 -39.5,71.34"
         style="fill:#4f4c4c;fill-opacity:1;fill-rule:nonzero;stroke:none"
         id="path64"
         inkscape:connector-curvature="0" /><path
         d="m 3418.74,1843.2 c -1.09,7.03 -1.75,14.49 -2.24,22.17 -3.24,-6.47 -6.59,-13.22 -10.01,-19.54 6.29,-28.28 18.72,-54 39.38,-71.79 -14.55,19.14 -23.11,43.51 -27.13,69.16"
         style="fill:#4f4c4c;fill-opacity:1;fill-rule:nonzero;stroke:none"
         id="path66"
         inkscape:connector-curvature="0" /><path
         d="m 1203.07,1430.95 c -2.51,-7 -5.2,-13.71 -7.69,-20.55 10.54,-42.43 29.05,-79.95 58.22,-107.16 -27.88,33.87 -43.55,78.76 -50.53,127.71"
         style="fill:#4f4c4c;fill-opacity:1;fill-rule:nonzero;stroke:none"
         id="path68"
         inkscape:connector-curvature="0" /><path
         d="m 1939,1513.79 c -21.95,161.14 65.91,360.31 69.09,445.15 1.16,29.01 -5.29,41.5 -17.75,45.68 2.49,-7.1 3.52,-16.85 2.98,-30.05 -3.12,-84.93 -90.92,-283.93 -69.04,-445.06 5.03,-37.88 20.19,-65.86 41.52,-84.64 -13.5,17.67 -22.93,40.53 -26.8,68.92"
         style="fill:#4f4c4c;fill-opacity:1;fill-rule:nonzero;stroke:none"
         id="path70"
         inkscape:connector-curvature="0" /><path
         d="m 715.715,1789.36 143.992,25.47 91.273,540.8 224.13,31.9 3.02,18.18 -241.958,-34.53 -91.192,-540.82 -125.894,-22.27 c -2.035,-11.82 -3.344,-19.16 -3.371,-18.73"
         style="fill:#4f4c4c;fill-opacity:1;fill-rule:nonzero;stroke:none"
         id="path72"
         inkscape:connector-curvature="0" /><path
         d="m 1055.59,1353.02 c -8.25,-1.65 -14.91,-1.06 -20.38,1.12 5.96,-13.03 16.59,-20.5 35.06,-16.62 50.18,10.48 109.47,168.88 144.55,303.39 3.94,17.53 8.33,34.24 13.09,49.68 45.47,145.24 164.08,333.38 318.36,341.49 39,2.07 68.5,-8.53 90.39,-27.95 -22.82,29.16 -56.54,46.2 -105.11,43.5 -154.36,-8.05 -272.88,-196.06 -318.34,-341.55 -4.75,-15.33 -9.18,-32.09 -13.14,-49.49 -35.01,-134.56 -94.39,-292.91 -144.48,-303.57"
         style="fill:#4f4c4c;fill-opacity:1;fill-rule:nonzero;stroke:none"
         id="path74"
         inkscape:connector-curvature="0" /><path
         d="m 116.914,1659.42 c -17.9687,158.2 28.391,334.02 118.301,464.18 75.308,106.69 196.91,184.85 301.223,199.73 62,8.56 118.937,-3.86 159.648,-41.42 -40.953,49.78 -104.547,66.82 -174.414,56.9 C 417.379,2324.23 295.813,2245.92 220.484,2139.19 130.652,2009.1 84.3047,1833.4 102.148,1675.1 c 5.122,-45.44 24.313,-90.81 53.79,-116.9 -21.133,26.66 -34.786,63.97 -39.024,101.22"
         style="fill:#4f4c4c;fill-opacity:1;fill-rule:nonzero;stroke:none"
         id="path76"
         inkscape:connector-curvature="0" /><path
         d="m 501.441,1940.86 c 0,0 23.813,112.52 15.004,187.79 -3.535,29.59 -11.695,53.06 -27.949,62.66 6.797,-11.85 10.973,-28.32 13.18,-47.16 8.832,-75.02 -14.922,-187.55 -14.922,-187.55 l -144.281,-892.33 17.996,3.96 140.972,872.63"
         style="fill:#4f4c4c;fill-opacity:1;fill-rule:nonzero;stroke:none"
         id="path78"
         inkscape:connector-curvature="0" /><path
         d="m 344.488,1732.78 c -11.988,-2.1 -23.355,1.12 -32.988,8.03 11.82,-17.34 28.852,-26.93 47.781,-23.68 2.196,0.34 4.305,1.09 6.344,1.91 1.719,9.43 2.949,18.5 3.676,27.08 -1.559,-0.18 -12.617,-11.29 -24.813,-13.34"
         style="fill:#4f4c4c;fill-opacity:1;fill-rule:nonzero;stroke:none"
         id="path80"
         inkscape:connector-curvature="0" /><path
         d="m 798.613,1319.17 c -5.765,48.29 -4.078,98.25 5.735,158.41 l 36.722,235.69 -17.703,-3.3 -33.66,-216.71 c -9.852,-60.31 -11.625,-110.07 -5.855,-158.38 7.707,-64.03 29.589,-109.39 59.964,-136.21 -22.554,27.54 -38.898,67.48 -45.203,120.5"
         style="fill:#4f4c4c;fill-opacity:1;fill-rule:nonzero;stroke:none"
         id="path82"
         inkscape:connector-curvature="0" /><path
         d="M 510.137,969.5 4061.72,1731.18 4063,1750.15 422.883,969.629 c 0,0 32.597,2.891 87.254,-0.129"
         style="fill:#4f4c4c;fill-opacity:1;fill-rule:nonzero;stroke:none"
         id="path84"
         inkscape:connector-curvature="0" /><path
         d="m 1424.96,2475.26 -27.9,-4.07 0.89,6.6 c 1.75,13.1 -2.2,23.37 -16.44,21.22 -15.42,-2.29 -20.69,-15.47 -22.5,-28.66 -2.04,-15.45 -1.51,-20.51 12.26,-24.39 l 20.2,-5.61 c 23.32,-5.96 25.75,-21.34 21.73,-50.72 -4.62,-33.76 -20.16,-60.7 -56.26,-65.76 -27.1,-3.78 -44.86,13.79 -41.11,40.76 l 1.37,10.78 28.01,3.98 -1.24,-9 c -1.45,-10.45 2.62,-19.77 16.92,-17.88 18.86,2.81 21.8,14.53 24.29,32.91 2.96,21.32 1.04,24.33 -11.97,28.12 l -18.8,5.44 c -22.72,6.69 -26.81,22.11 -23.43,47.07 4.21,30.43 23.47,57.16 55.52,61.86 28,4.13 43.5,-16.25 40.38,-38.52 l -1.92,-14.13"
         style="fill:#231f20;fill-opacity:1;fill-rule:nonzero;stroke:none"
         id="path86"
         inkscape:connector-curvature="0" /><path
         d="m 1424.96,2475.26 -27.9,-4.07 0.89,6.6 c 1.75,13.1 -2.2,23.37 -16.44,21.22 -15.42,-2.29 -20.69,-15.47 -22.5,-28.66 -2.04,-15.45 -1.51,-20.51 12.26,-24.39 l 20.2,-5.61 c 23.32,-5.96 25.75,-21.34 21.73,-50.72 -4.62,-33.76 -20.16,-60.7 -56.26,-65.76 -27.1,-3.78 -44.86,13.79 -41.11,40.76 l 1.37,10.78 28.01,3.98 -1.24,-9 c -1.45,-10.45 2.62,-19.77 16.92,-17.88 18.86,2.81 21.8,14.53 24.29,32.91 2.96,21.32 1.04,24.33 -11.97,28.12 l -18.8,5.44 c -22.72,6.69 -26.81,22.11 -23.43,47.07 4.21,30.43 23.47,57.16 55.52,61.86 28,4.13 43.5,-16.25 40.38,-38.52 z"
         style="fill:none;stroke:#231f20;stroke-width:20;stroke-linecap:round;stroke-linejoin:round;stroke-miterlimit:4;stroke-dasharray:none;stroke-opacity:1"
         id="path88"
         inkscape:connector-curvature="0" /><path
         d="m 1459.04,2386.7 c -1.93,-13.93 5.91,-19.16 16.02,-17.61 10.2,1.29 19.86,9.23 21.78,23.05 l 14.6,106.24 c 1.88,13.8 -5.91,19.04 -16.12,17.48 -10.17,-1.54 -19.85,-9.34 -21.73,-23.14 z m -13.36,101.89 c 4.4,32.79 30.89,52.68 53.64,56.1 22.75,3.33 44.68,-9.43 40.1,-42.12 l -14.63,-106.29 c -4.55,-32.84 -30.89,-52.79 -53.58,-56.02 -22.88,-3.31 -44.64,9.63 -40.11,42.27 l 14.58,106.06"
         style="fill:#231f20;fill-opacity:1;fill-rule:nonzero;stroke:none"
         id="path90"
         inkscape:connector-curvature="0" /><path
         d="m 1459.04,2386.7 c -1.93,-13.93 5.91,-19.16 16.02,-17.61 10.2,1.29 19.86,9.23 21.78,23.05 l 14.6,106.24 c 1.88,13.8 -5.91,19.04 -16.12,17.48 -10.17,-1.54 -19.85,-9.34 -21.73,-23.14 z m -13.36,101.89 c 4.4,32.79 30.89,52.68 53.64,56.1 22.75,3.33 44.68,-9.43 40.1,-42.12 l -14.63,-106.29 c -4.55,-32.84 -30.89,-52.79 -53.58,-56.02 -22.88,-3.31 -44.64,9.63 -40.11,42.27 z"
         style="fill:none;stroke:#231f20;stroke-width:20;stroke-linecap:round;stroke-linejoin:round;stroke-miterlimit:4;stroke-dasharray:none;stroke-opacity:1"
         id="path92"
         inkscape:connector-curvature="0" /><path
         d="m 1639.67,2411.08 c -3.63,-26.28 -26.83,-50.08 -51.8,-53.81 -24.92,-3.64 -42.42,14.14 -38.68,40.3 l 21.55,156.2 28.03,4.23 -21.25,-153.38 c -1.98,-14.22 4.43,-19.84 14.39,-18.41 9.91,1.42 18.19,9.4 20.2,23.55 l 21.3,153.62 28.04,4.3 -21.78,-156.6"
         style="fill:#231f20;fill-opacity:1;fill-rule:nonzero;stroke:none"
         id="path94"
         inkscape:connector-curvature="0" /><path
         d="m 1639.67,2411.08 c -3.63,-26.28 -26.83,-50.08 -51.8,-53.81 -24.92,-3.64 -42.42,14.14 -38.68,40.3 l 21.55,156.2 28.03,4.23 -21.25,-153.38 c -1.98,-14.22 4.43,-19.84 14.39,-18.41 9.91,1.42 18.19,9.4 20.2,23.55 l 21.3,153.62 28.04,4.3 z"
         style="fill:none;stroke:#231f20;stroke-width:20;stroke-linecap:round;stroke-linejoin:round;stroke-miterlimit:4;stroke-dasharray:none;stroke-opacity:1"
         id="path96"
         inkscape:connector-curvature="0" /><path
         d="m 1702.36,2547.26 -32.43,-4.93 3.82,27.17 92.95,14.52 -3.91,-27.32 -32.4,-5.02 -24.28,-175.01 -28.04,-4.28 24.29,174.87"
         style="fill:#231f20;fill-opacity:1;fill-rule:nonzero;stroke:none"
         id="path98"
         inkscape:connector-curvature="0" /><path
         d="m 1702.36,2547.26 -32.43,-4.93 3.82,27.17 92.95,14.52 -3.91,-27.32 -32.4,-5.02 -24.28,-175.01 -28.04,-4.28 z"
         style="fill:none;stroke:#231f20;stroke-width:20;stroke-linecap:round;stroke-linejoin:round;stroke-miterlimit:4;stroke-dasharray:none;stroke-opacity:1"
         id="path100"
         inkscape:connector-curvature="0" /><path
         d="m 1779.01,2585.97 28.04,4.33 -12.08,-86.63 34.61,5.33 12.15,86.83 28.09,4.45 -28.41,-202.93 -28.05,-4.39 12.64,90.39 -34.73,-5.42 -12.44,-90.23 -27.99,-4.35 28.17,202.62"
         style="fill:#231f20;fill-opacity:1;fill-rule:nonzero;stroke:none"
         id="path102"
         inkscape:connector-curvature="0" /><path
         d="m 1779.01,2585.97 28.04,4.33 -12.08,-86.63 34.61,5.33 12.15,86.83 28.09,4.45 -28.41,-202.93 -28.05,-4.39 12.64,90.39 -34.73,-5.42 -12.44,-90.23 -27.99,-4.35 z"
         style="fill:none;stroke:#231f20;stroke-width:20;stroke-linecap:round;stroke-linejoin:round;stroke-miterlimit:4;stroke-dasharray:none;stroke-opacity:1"
         id="path104"
         inkscape:connector-curvature="0" /><path
         d="m 1896.15,2604.5 83.62,13.43 -3.79,-27.47 -55.56,-8.8 -8.41,-59.73 48.32,7.66 -3.78,-27.25 -48.39,-7.75 -8.31,-59.69 55.48,8.73 -4.04,-29.11 -83.54,-13.05 28.4,203.03"
         style="fill:#231f20;fill-opacity:1;fill-rule:nonzero;stroke:none"
         id="path106"
         inkscape:connector-curvature="0" /><path
         d="m 1896.15,2604.5 83.62,13.43 -3.79,-27.47 -55.56,-8.8 -8.41,-59.73 48.32,7.66 -3.78,-27.25 -48.39,-7.75 -8.31,-59.69 55.48,8.73 -4.04,-29.11 -83.54,-13.05 z"
         style="fill:none;stroke:#231f20;stroke-width:20;stroke-linecap:round;stroke-linejoin:round;stroke-miterlimit:4;stroke-dasharray:none;stroke-opacity:1"
         id="path108"
         inkscape:connector-curvature="0" /><path
         d="m 2013.22,2534.5 15.98,2.62 c 19.45,3.19 24.22,15.17 27.07,35.43 2.89,20.53 1.13,31.26 -19.43,27.75 l -14.65,-2.39 z m -15.21,86.39 45.15,7.4 c 33.23,5.47 46.62,-12.26 40.98,-51.8 -3.26,-23.49 -11.93,-41.74 -31.25,-54.91 l 17.11,-88.12 -29.71,-4.72 -13.94,82.77 -16.7,-2.71 -12.23,-87.03 -28.04,-4.38 28.63,203.5"
         style="fill:#231f20;fill-opacity:1;fill-rule:nonzero;stroke:none"
         id="path110"
         inkscape:connector-curvature="0" /><path
         d="m 2013.22,2534.5 15.98,2.62 c 19.45,3.19 24.22,15.17 27.07,35.43 2.89,20.53 1.13,31.26 -19.43,27.75 l -14.65,-2.39 z m -15.21,86.39 45.15,7.4 c 33.23,5.47 46.62,-12.26 40.98,-51.8 -3.26,-23.49 -11.93,-41.74 -31.25,-54.91 l 17.11,-88.12 -29.71,-4.72 -13.94,82.77 -16.7,-2.71 -12.23,-87.03 -28.04,-4.38 z"
         style="fill:none;stroke:#231f20;stroke-width:20;stroke-linecap:round;stroke-linejoin:round;stroke-miterlimit:4;stroke-dasharray:none;stroke-opacity:1"
         id="path112"
         inkscape:connector-curvature="0" /><path
         d="m 2114.11,2639.89 27.05,4.58 25,-116.1 0.53,-0.01 17.38,123.09 28.19,4.73 -28.97,-204.48 -26.42,-4.28 -25.51,115.83 -0.61,-0.18 -17.36,-122.72 -28.05,-4.4 28.77,203.94"
         style="fill:#231f20;fill-opacity:1;fill-rule:nonzero;stroke:none"
         id="path114"
         inkscape:connector-curvature="0" /><path
         d="m 2114.11,2639.89 27.05,4.58 25,-116.1 0.53,-0.01 17.38,123.09 28.19,4.73 -28.97,-204.48 -26.42,-4.28 -25.51,115.83 -0.61,-0.18 -17.36,-122.72 -28.05,-4.4 z"
         style="fill:none;stroke:#231f20;stroke-width:20;stroke-linecap:round;stroke-linejoin:round;stroke-miterlimit:4;stroke-dasharray:none;stroke-opacity:1"
         id="path116"
         inkscape:connector-curvature="0" /><path
         d="m 2303.08,2576.64 13.51,2.28 c 22.95,3.71 25.24,18.03 28.07,38.31 2.77,19.32 5.06,35.22 -17.05,31.5 l -14.61,-2.56 z m -14.24,92.31 42.22,7.28 c 15.34,2.7 26.22,0.81 34.34,-8.19 8.13,-9.1 9.28,-21.48 5.78,-45.93 -2.4,-17.86 -5.6,-30.18 -13.87,-42.58 -9.51,-14.55 -23.18,-24.67 -43.75,-28.18 l -14.33,-2.3 -11.33,-80.18 -28.16,-4.6 29.1,204.68"
         style="fill:#231f20;fill-opacity:1;fill-rule:nonzero;stroke:none"
         id="path118"
         inkscape:connector-curvature="0" /><path
         d="m 2303.08,2576.64 13.51,2.28 c 22.95,3.71 25.24,18.03 28.07,38.31 2.77,19.32 5.06,35.22 -17.05,31.5 l -14.61,-2.56 z m -14.24,92.31 42.22,7.28 c 15.34,2.7 26.22,0.81 34.34,-8.19 8.13,-9.1 9.28,-21.48 5.78,-45.93 -2.4,-17.86 -5.6,-30.18 -13.87,-42.58 -9.51,-14.55 -23.18,-24.67 -43.75,-28.18 l -14.33,-2.3 -11.33,-80.18 -28.16,-4.6 z"
         style="fill:none;stroke:#231f20;stroke-width:20;stroke-linecap:round;stroke-linejoin:round;stroke-miterlimit:4;stroke-dasharray:none;stroke-opacity:1"
         id="path120"
         inkscape:connector-curvature="0" /><path
         d="m 2405.26,2535.86 c -2.16,-14.22 5.77,-19.37 15.96,-17.52 10.18,1.64 19.96,9.74 22.03,24.04 l 15.49,108.45 c 1.89,14.12 -5.9,19.14 -16.17,17.4 -10.14,-1.6 -19.94,-9.76 -21.9,-24.07 z m -12.71,103.67 c 4.74,33.3 31.31,54.2 54.26,58.22 22.91,3.87 44.74,-8.65 40.04,-42.1 l -15.51,-108.52 c -4.87,-33.68 -31.49,-54.41 -54.28,-58.28 -22.91,-3.94 -44.75,8.78 -39.86,42.21 l 15.35,108.47"
         style="fill:#231f20;fill-opacity:1;fill-rule:nonzero;stroke:none"
         id="path122"
         inkscape:connector-curvature="0" /><path
         d="m 2405.26,2535.86 c -2.16,-14.22 5.77,-19.37 15.96,-17.52 10.18,1.64 19.96,9.74 22.03,24.04 l 15.49,108.45 c 1.89,14.12 -5.9,19.14 -16.17,17.4 -10.14,-1.6 -19.94,-9.76 -21.9,-24.07 z m -12.71,103.67 c 4.74,33.3 31.31,54.2 54.26,58.22 22.91,3.87 44.74,-8.65 40.04,-42.1 l -15.51,-108.52 c -4.87,-33.68 -31.49,-54.41 -54.28,-58.28 -22.91,-3.94 -44.75,8.78 -39.86,42.21 z"
         style="fill:none;stroke:#231f20;stroke-width:20;stroke-linecap:round;stroke-linejoin:round;stroke-miterlimit:4;stroke-dasharray:none;stroke-opacity:1"
         id="path124"
         inkscape:connector-curvature="0" /><path
         d="m 2518.58,2708.37 28.11,4.96 -25.27,-176.36 55.78,9.76 -4.24,-29.68 -83.81,-14.29 29.43,205.61"
         style="fill:#231f20;fill-opacity:1;fill-rule:nonzero;stroke:none"
         id="path126"
         inkscape:connector-curvature="0" /><path
         d="m 2518.58,2708.37 28.11,4.96 -25.27,-176.36 55.78,9.76 -4.24,-29.68 -83.81,-14.29 z"
         style="fill:none;stroke:#231f20;stroke-width:20;stroke-linecap:round;stroke-linejoin:round;stroke-miterlimit:4;stroke-dasharray:none;stroke-opacity:1"
         id="path128"
         inkscape:connector-curvature="0" /><path
         d="m 2604.58,2607.5 -21.6,112.14 29.78,5.29 10.96,-77.96 0.57,0.17 34.31,85.79 29.83,5.3 -55.74,-125.79 -12.56,-87.21 -28.11,-4.84 12.56,87.11"
         style="fill:#231f20;fill-opacity:1;fill-rule:nonzero;stroke:none"
         id="path130"
         inkscape:connector-curvature="0" /><path
         d="m 2604.58,2607.5 -21.6,112.14 29.78,5.29 10.96,-77.96 0.57,0.17 34.31,85.79 29.83,5.3 -55.74,-125.79 -12.56,-87.21 -28.11,-4.84 z"
         style="fill:none;stroke:#231f20;stroke-width:20;stroke-linecap:round;stroke-linejoin:round;stroke-miterlimit:4;stroke-dasharray:none;stroke-opacity:1"
         id="path132"
         inkscape:connector-curvature="0" /><path
         d="m 2717.08,2716.26 -32.64,-5.8 4.07,27.77 93.3,16.7 -4.07,-27.86 -32.52,-5.78 -25.8,-178.79 -28.14,-4.93 25.8,178.69"
         style="fill:#231f20;fill-opacity:1;fill-rule:nonzero;stroke:none"
         id="path134"
         inkscape:connector-curvature="0" /><path
         d="m 2717.08,2716.26 -32.64,-5.8 4.07,27.77 93.3,16.7 -4.07,-27.86 -32.52,-5.78 -25.8,-178.79 -28.14,-4.93 z"
         style="fill:none;stroke:#231f20;stroke-width:20;stroke-linecap:round;stroke-linejoin:round;stroke-miterlimit:4;stroke-dasharray:none;stroke-opacity:1"
         id="path136"
         inkscape:connector-curvature="0" /><path
         d="m 2794.23,2757.05 84.06,15.23 -4.02,-27.89 -55.82,-10.05 -8.79,-60.68 48.67,8.71 -4.12,-27.89 -48.65,-8.67 -8.64,-60.74 55.75,9.9 -4.38,-29.69 -83.92,-14.78 29.86,206.55"
         style="fill:#231f20;fill-opacity:1;fill-rule:nonzero;stroke:none"
         id="path138"
         inkscape:connector-curvature="0" /><path
         d="m 2794.23,2757.05 84.06,15.23 -4.02,-27.89 -55.82,-10.05 -8.79,-60.68 48.67,8.71 -4.12,-27.89 -48.65,-8.67 -8.64,-60.74 55.75,9.9 -4.38,-29.69 -83.92,-14.78 z"
         style="fill:none;stroke:#231f20;stroke-width:20;stroke-linecap:round;stroke-linejoin:round;stroke-miterlimit:4;stroke-dasharray:none;stroke-opacity:1"
         id="path140"
         inkscape:connector-curvature="0" /><path
         d="m 2962.74,2630.97 c -3.71,-25.64 -26.62,-51.6 -51.66,-56.15 -21.58,-3.87 -44.84,2.81 -39.35,40.48 l 16.54,114.03 c 3.85,27.01 25.41,51.06 52.77,55.94 26.1,4.87 42.33,-12.3 38.15,-41.11 l -1.7,-11.61 -28.16,-5.17 1.42,9.8 c 1.7,11.76 -3.61,20.41 -14.37,18.47 -14.01,-2.56 -18.85,-13.37 -20.8,-27.29 l -15.45,-105.82 c -1.7,-11.98 1.38,-20.45 14.12,-18.14 7.71,1.26 18.3,7.74 20.68,23.99 l 1.41,10.33 28.24,5.01 -1.84,-12.76"
         style="fill:#231f20;fill-opacity:1;fill-rule:nonzero;stroke:none"
         id="path142"
         inkscape:connector-curvature="0" /><path
         d="m 2962.74,2630.97 c -3.71,-25.64 -26.62,-51.6 -51.66,-56.15 -21.58,-3.87 -44.84,2.81 -39.35,40.48 l 16.54,114.03 c 3.85,27.01 25.41,51.06 52.77,55.94 26.1,4.87 42.33,-12.3 38.15,-41.11 l -1.7,-11.61 -28.16,-5.17 1.42,9.8 c 1.7,11.76 -3.61,20.41 -14.37,18.47 -14.01,-2.56 -18.85,-13.37 -20.8,-27.29 l -15.45,-105.82 c -1.7,-11.98 1.38,-20.45 14.12,-18.14 7.71,1.26 18.3,7.74 20.68,23.99 l 1.41,10.33 28.24,5.01 z"
         style="fill:none;stroke:#231f20;stroke-width:20;stroke-linecap:round;stroke-linejoin:round;stroke-miterlimit:4;stroke-dasharray:none;stroke-opacity:1"
         id="path144"
         inkscape:connector-curvature="0" /><path
         d="m 3009.15,2796.23 28.11,5.07 -12.8,-88.84 34.73,6.34 12.99,88.88 28.28,5.15 -30.35,-207.55 -28.19,-5.19 13.52,92.47 -34.84,-6.3 -13.52,-92.36 -28.11,-5.15 30.18,207.48"
         style="fill:#231f20;fill-opacity:1;fill-rule:nonzero;stroke:none"
         id="path146"
         inkscape:connector-curvature="0" /><path
         d="m 3009.15,2796.23 28.11,5.07 -12.8,-88.84 34.73,6.34 12.99,88.88 28.28,5.15 -30.35,-207.55 -28.19,-5.19 13.52,92.47 -34.84,-6.3 -13.52,-92.36 -28.11,-5.15 z"
         style="fill:none;stroke:#231f20;stroke-width:20;stroke-linecap:round;stroke-linejoin:round;stroke-miterlimit:4;stroke-dasharray:none;stroke-opacity:1"
         id="path148"
         inkscape:connector-curvature="0" /><path
         d="m 3125.91,2817.56 27.11,5.07 24.27,-117.22 0.57,0.17 18.3,125.08 28.24,5.29 -30.43,-207.87 -26.46,-4.91 -25.02,117.04 -0.53,-0.23 -18.22,-124.81 -28.18,-5.22 30.35,207.61"
         style="fill:#231f20;fill-opacity:1;fill-rule:nonzero;stroke:none"
         id="path150"
         inkscape:connector-curvature="0" /><path
         d="m 3125.91,2817.56 27.11,5.07 24.27,-117.22 0.57,0.17 18.3,125.08 28.24,5.29 -30.43,-207.87 -26.46,-4.91 -25.02,117.04 -0.53,-0.23 -18.22,-124.81 -28.18,-5.22 z"
         style="fill:none;stroke:#231f20;stroke-width:20;stroke-linecap:round;stroke-linejoin:round;stroke-miterlimit:4;stroke-dasharray:none;stroke-opacity:1"
         id="path152"
         inkscape:connector-curvature="0" /><path
         d="m 3250.71,2840.88 28.21,5.3 -30.47,-207.96 -28.19,-5.37 30.45,208.03"
         style="fill:#231f20;fill-opacity:1;fill-rule:nonzero;stroke:none"
         id="path154"
         inkscape:connector-curvature="0" /><path
         d="m 3250.71,2840.88 28.21,5.3 -30.47,-207.96 -28.19,-5.37 z"
         style="fill:none;stroke:#231f20;stroke-width:20;stroke-linecap:round;stroke-linejoin:round;stroke-miterlimit:4;stroke-dasharray:none;stroke-opacity:1"
         id="path156"
         inkscape:connector-curvature="0" /><path
         d="m 3372.28,2706.58 c -3.7,-25.65 -26.63,-51.94 -51.96,-56.73 -21.48,-4.1 -44.74,2.57 -39.24,40.48 l 16.88,114.67 c 3.96,27.1 25.55,51.33 53.07,56.58 25.99,5.01 42.3,-12.11 38.08,-41.09 l -1.66,-11.77 -28.24,-5.33 1.31,10.02 c 1.77,11.66 -3.36,20.38 -14.16,18.27 -14.12,-2.68 -18.99,-13.52 -21,-27.49 l -15.7,-106.5 c -1.76,-11.92 1.35,-20.46 14.06,-18.06 7.68,1.34 18.48,8 20.78,24.37 l 1.54,10.2 28.15,5.31 -1.91,-12.93"
         style="fill:#231f20;fill-opacity:1;fill-rule:nonzero;stroke:none"
         id="path158"
         inkscape:connector-curvature="0" /><path
         d="m 3372.28,2706.58 c -3.7,-25.65 -26.63,-51.94 -51.96,-56.73 -21.48,-4.1 -44.74,2.57 -39.24,40.48 l 16.88,114.67 c 3.96,27.1 25.55,51.33 53.07,56.58 25.99,5.01 42.3,-12.11 38.08,-41.09 l -1.66,-11.77 -28.24,-5.33 1.31,10.02 c 1.77,11.66 -3.36,20.38 -14.16,18.27 -14.12,-2.68 -18.99,-13.52 -21,-27.49 l -15.7,-106.5 c -1.76,-11.92 1.35,-20.46 14.06,-18.06 7.68,1.34 18.48,8 20.78,24.37 l 1.54,10.2 28.15,5.31 z"
         style="fill:none;stroke:#231f20;stroke-width:20;stroke-linecap:round;stroke-linejoin:round;stroke-miterlimit:4;stroke-dasharray:none;stroke-opacity:1"
         id="path160"
         inkscape:connector-curvature="0" /><path
         d="m 1439.58,2460.64 -27.91,-4.07 0.9,6.6 c 1.75,13.1 -2.2,23.37 -16.44,21.22 -15.42,-2.28 -20.7,-15.47 -22.5,-28.66 -2.04,-15.45 -1.51,-20.51 12.26,-24.39 l 20.2,-5.61 c 23.32,-5.96 25.75,-21.34 21.73,-50.71 -4.62,-33.76 -20.16,-60.71 -56.26,-65.77 -27.1,-3.78 -44.86,13.79 -41.11,40.77 l 1.37,10.77 28,3.98 -1.23,-9 c -1.45,-10.45 2.62,-19.77 16.92,-17.88 18.86,2.81 21.8,14.53 24.28,32.91 2.97,21.32 1.05,24.33 -11.96,28.12 l -18.8,5.44 c -22.72,6.69 -26.81,22.11 -23.43,47.07 4.21,30.43 23.47,57.16 55.52,61.86 28,4.13 43.49,-16.25 40.37,-38.52 l -1.91,-14.13"
         style="fill:#231f20;fill-opacity:1;fill-rule:nonzero;stroke:none"
         id="path162"
         inkscape:connector-curvature="0" /><path
         d="m 1439.58,2460.64 -27.91,-4.07 0.9,6.6 c 1.75,13.1 -2.2,23.37 -16.44,21.22 -15.42,-2.28 -20.7,-15.47 -22.5,-28.66 -2.04,-15.45 -1.51,-20.51 12.26,-24.39 l 20.2,-5.61 c 23.32,-5.96 25.75,-21.34 21.73,-50.71 -4.62,-33.76 -20.16,-60.71 -56.26,-65.77 -27.1,-3.78 -44.86,13.79 -41.11,40.77 l 1.37,10.77 28,3.98 -1.23,-9 c -1.45,-10.45 2.62,-19.77 16.92,-17.88 18.86,2.81 21.8,14.53 24.28,32.91 2.97,21.32 1.05,24.33 -11.96,28.12 l -18.8,5.44 c -22.72,6.69 -26.81,22.11 -23.43,47.07 4.21,30.43 23.47,57.16 55.52,61.86 28,4.13 43.49,-16.25 40.37,-38.52 z"
         style="fill:none;stroke:#231f20;stroke-width:20;stroke-linecap:round;stroke-linejoin:round;stroke-miterlimit:4;stroke-dasharray:none;stroke-opacity:1"
         id="path164"
         inkscape:connector-curvature="0" /><path
         d="m 1473.66,2372.08 c -1.93,-13.93 5.91,-19.15 16.02,-17.61 10.2,1.29 19.86,9.23 21.78,23.06 l 14.59,106.23 c 1.89,13.79 -5.9,19.04 -16.11,17.47 -10.17,-1.53 -19.85,-9.33 -21.73,-23.13 z m -13.36,101.89 c 4.4,32.78 30.89,52.67 53.64,56.1 22.75,3.34 44.68,-9.43 40.1,-42.11 l -14.64,-106.3 c -4.54,-32.84 -30.88,-52.79 -53.57,-56.02 -22.88,-3.31 -44.64,9.63 -40.11,42.27 l 14.58,106.06"
         style="fill:#231f20;fill-opacity:1;fill-rule:nonzero;stroke:none"
         id="path166"
         inkscape:connector-curvature="0" /><path
         d="m 1473.66,2372.08 c -1.93,-13.93 5.91,-19.15 16.02,-17.61 10.2,1.29 19.86,9.23 21.78,23.06 l 14.59,106.23 c 1.89,13.79 -5.9,19.04 -16.11,17.47 -10.17,-1.53 -19.85,-9.33 -21.73,-23.13 z m -13.36,101.89 c 4.4,32.78 30.89,52.67 53.64,56.1 22.75,3.34 44.68,-9.43 40.1,-42.11 l -14.64,-106.3 c -4.54,-32.84 -30.88,-52.79 -53.57,-56.02 -22.88,-3.31 -44.64,9.63 -40.11,42.27 z"
         style="fill:none;stroke:#231f20;stroke-width:20;stroke-linecap:round;stroke-linejoin:round;stroke-miterlimit:4;stroke-dasharray:none;stroke-opacity:1"
         id="path168"
         inkscape:connector-curvature="0" /><path
         d="m 1654.29,2396.46 c -3.64,-26.28 -26.83,-50.08 -51.8,-53.81 -24.92,-3.64 -42.42,14.14 -38.68,40.3 l 21.55,156.19 28.03,4.24 -21.25,-153.37 c -1.98,-14.23 4.43,-19.85 14.39,-18.42 9.91,1.42 18.19,9.4 20.2,23.55 l 21.3,153.62 28.03,4.3 -21.77,-156.6"
         style="fill:#231f20;fill-opacity:1;fill-rule:nonzero;stroke:none"
         id="path170"
         inkscape:connector-curvature="0" /><path
         d="m 1654.29,2396.46 c -3.64,-26.28 -26.83,-50.08 -51.8,-53.81 -24.92,-3.64 -42.42,14.14 -38.68,40.3 l 21.55,156.19 28.03,4.24 -21.25,-153.37 c -1.98,-14.23 4.43,-19.85 14.39,-18.42 9.91,1.42 18.19,9.4 20.2,23.55 l 21.3,153.62 28.03,4.3 z"
         style="fill:none;stroke:#231f20;stroke-width:20;stroke-linecap:round;stroke-linejoin:round;stroke-miterlimit:4;stroke-dasharray:none;stroke-opacity:1"
         id="path172"
         inkscape:connector-curvature="0" /><path
         d="m 1716.98,2532.64 -32.43,-4.93 3.82,27.17 92.95,14.52 -3.91,-27.32 -32.4,-5.02 -24.28,-175.01 -28.04,-4.28 24.29,174.87"
         style="fill:#231f20;fill-opacity:1;fill-rule:nonzero;stroke:none"
         id="path174"
         inkscape:connector-curvature="0" /><path
         d="m 1716.98,2532.64 -32.43,-4.93 3.82,27.17 92.95,14.52 -3.91,-27.32 -32.4,-5.02 -24.28,-175.01 -28.04,-4.28 z"
         style="fill:none;stroke:#231f20;stroke-width:20;stroke-linecap:round;stroke-linejoin:round;stroke-miterlimit:4;stroke-dasharray:none;stroke-opacity:1"
         id="path176"
         inkscape:connector-curvature="0" /><path
         d="m 1793.63,2571.35 28.04,4.33 -12.08,-86.63 34.61,5.33 12.15,86.83 28.09,4.45 -28.41,-202.93 -28.05,-4.38 12.64,90.38 -34.73,-5.41 -12.44,-90.24 -27.99,-4.35 28.17,202.62"
         style="fill:#231f20;fill-opacity:1;fill-rule:nonzero;stroke:none"
         id="path178"
         inkscape:connector-curvature="0" /><path
         d="m 1793.63,2571.35 28.04,4.33 -12.08,-86.63 34.61,5.33 12.15,86.83 28.09,4.45 -28.41,-202.93 -28.05,-4.38 12.64,90.38 -34.73,-5.41 -12.44,-90.24 -27.99,-4.35 z"
         style="fill:none;stroke:#231f20;stroke-width:20;stroke-linecap:round;stroke-linejoin:round;stroke-miterlimit:4;stroke-dasharray:none;stroke-opacity:1"
         id="path180"
         inkscape:connector-curvature="0" /><path
         d="m 1910.77,2589.88 83.61,13.44 -3.78,-27.48 -55.56,-8.8 -8.41,-59.73 48.32,7.66 -3.78,-27.25 -48.39,-7.75 -8.31,-59.69 55.48,8.73 -4.04,-29.11 -83.54,-13.05 28.4,203.03"
         style="fill:#231f20;fill-opacity:1;fill-rule:nonzero;stroke:none"
         id="path182"
         inkscape:connector-curvature="0" /><path
         d="m 1910.77,2589.88 83.61,13.44 -3.78,-27.48 -55.56,-8.8 -8.41,-59.73 48.32,7.66 -3.78,-27.25 -48.39,-7.75 -8.31,-59.69 55.48,8.73 -4.04,-29.11 -83.54,-13.05 z"
         style="fill:none;stroke:#231f20;stroke-width:20;stroke-linecap:round;stroke-linejoin:round;stroke-miterlimit:4;stroke-dasharray:none;stroke-opacity:1"
         id="path184"
         inkscape:connector-curvature="0" /><path
         d="m 2027.84,2519.88 15.98,2.62 c 19.45,3.19 24.22,15.17 27.07,35.43 2.89,20.53 1.13,31.27 -19.43,27.75 l -14.65,-2.39 z m -15.21,86.39 45.15,7.4 c 33.23,5.47 46.61,-12.26 40.98,-51.8 -3.26,-23.49 -11.93,-41.74 -31.25,-54.91 l 17.11,-88.12 -29.71,-4.72 -13.94,82.77 -16.7,-2.71 -12.23,-87.03 -28.05,-4.38 28.64,203.5"
         style="fill:#231f20;fill-opacity:1;fill-rule:nonzero;stroke:none"
         id="path186"
         inkscape:connector-curvature="0" /><path
         d="m 2027.84,2519.88 15.98,2.62 c 19.45,3.19 24.22,15.17 27.07,35.43 2.89,20.53 1.13,31.27 -19.43,27.75 l -14.65,-2.39 z m -15.21,86.39 45.15,7.4 c 33.23,5.47 46.61,-12.26 40.98,-51.8 -3.26,-23.49 -11.93,-41.74 -31.25,-54.91 l 17.11,-88.12 -29.71,-4.72 -13.94,82.77 -16.7,-2.71 -12.23,-87.03 -28.05,-4.38 z"
         style="fill:none;stroke:#231f20;stroke-width:20;stroke-linecap:round;stroke-linejoin:round;stroke-miterlimit:4;stroke-dasharray:none;stroke-opacity:1"
         id="path188"
         inkscape:connector-curvature="0" /><path
         d="m 2128.73,2625.27 27.05,4.58 25,-116.1 0.53,-0.02 17.38,123.1 28.19,4.73 -28.97,-204.47 -26.43,-4.29 -25.5,115.83 -0.61,-0.18 -17.36,-122.72 -28.05,-4.4 28.77,203.94"
         style="fill:#231f20;fill-opacity:1;fill-rule:nonzero;stroke:none"
         id="path190"
         inkscape:connector-curvature="0" /><path
         d="m 2128.73,2625.27 27.05,4.58 25,-116.1 0.53,-0.02 17.38,123.1 28.19,4.73 -28.97,-204.47 -26.43,-4.29 -25.5,115.83 -0.61,-0.18 -17.36,-122.72 -28.05,-4.4 z"
         style="fill:none;stroke:#231f20;stroke-width:20;stroke-linecap:round;stroke-linejoin:round;stroke-miterlimit:4;stroke-dasharray:none;stroke-opacity:1"
         id="path192"
         inkscape:connector-curvature="0" /><path
         d="m 2317.7,2562.02 13.51,2.28 c 22.95,3.72 25.24,18.03 28.07,38.31 2.77,19.32 5.06,35.22 -17.05,31.51 l -14.61,-2.57 z m -14.24,92.31 42.22,7.29 c 15.34,2.69 26.21,0.8 34.34,-8.21 8.12,-9.09 9.28,-21.47 5.78,-45.93 -2.4,-17.85 -5.6,-30.17 -13.87,-42.57 -9.51,-14.54 -23.18,-24.67 -43.75,-28.18 l -14.33,-2.3 -11.33,-80.18 -28.16,-4.6 29.1,204.68"
         style="fill:#231f20;fill-opacity:1;fill-rule:nonzero;stroke:none"
         id="path194"
         inkscape:connector-curvature="0" /><path
         d="m 2317.7,2562.02 13.51,2.28 c 22.95,3.72 25.24,18.03 28.07,38.31 2.77,19.32 5.06,35.22 -17.05,31.51 l -14.61,-2.57 z m -14.24,92.31 42.22,7.29 c 15.34,2.69 26.21,0.8 34.34,-8.21 8.12,-9.09 9.28,-21.47 5.78,-45.93 -2.4,-17.85 -5.6,-30.17 -13.87,-42.57 -9.51,-14.54 -23.18,-24.67 -43.75,-28.18 l -14.33,-2.3 -11.33,-80.18 -28.16,-4.6 z"
         style="fill:none;stroke:#231f20;stroke-width:20;stroke-linecap:round;stroke-linejoin:round;stroke-miterlimit:4;stroke-dasharray:none;stroke-opacity:1"
         id="path196"
         inkscape:connector-curvature="0" /><path
         d="m 2419.88,2521.23 c -2.17,-14.21 5.76,-19.36 15.96,-17.51 10.18,1.65 19.96,9.74 22.03,24.04 l 15.49,108.45 c 1.89,14.12 -5.9,19.14 -16.17,17.4 -10.14,-1.6 -19.94,-9.76 -21.9,-24.07 z m -12.71,103.68 c 4.74,33.3 31.31,54.2 54.26,58.22 22.91,3.87 44.74,-8.65 40.03,-42.1 l -15.5,-108.52 c -4.87,-33.67 -31.49,-54.41 -54.28,-58.28 -22.91,-3.94 -44.75,8.77 -39.86,42.21 l 15.35,108.47"
         style="fill:#231f20;fill-opacity:1;fill-rule:nonzero;stroke:none"
         id="path198"
         inkscape:connector-curvature="0" /><path
         d="m 2419.88,2521.23 c -2.17,-14.21 5.76,-19.36 15.96,-17.51 10.18,1.65 19.96,9.74 22.03,24.04 l 15.49,108.45 c 1.89,14.12 -5.9,19.14 -16.17,17.4 -10.14,-1.6 -19.94,-9.76 -21.9,-24.07 z m -12.71,103.68 c 4.74,33.3 31.31,54.2 54.26,58.22 22.91,3.87 44.74,-8.65 40.03,-42.1 l -15.5,-108.52 c -4.87,-33.67 -31.49,-54.41 -54.28,-58.28 -22.91,-3.94 -44.75,8.77 -39.86,42.21 z"
         style="fill:none;stroke:#231f20;stroke-width:20;stroke-linecap:round;stroke-linejoin:round;stroke-miterlimit:4;stroke-dasharray:none;stroke-opacity:1"
         id="path200"
         inkscape:connector-curvature="0" /><path
         d="m 2533.2,2693.75 28.11,4.96 -25.27,-176.36 55.78,9.77 -4.24,-29.69 -83.81,-14.29 29.43,205.61"
         style="fill:#231f20;fill-opacity:1;fill-rule:nonzero;stroke:none"
         id="path202"
         inkscape:connector-curvature="0" /><path
         d="m 2533.2,2693.75 28.11,4.96 -25.27,-176.36 55.78,9.77 -4.24,-29.69 -83.81,-14.29 z"
         style="fill:none;stroke:#231f20;stroke-width:20;stroke-linecap:round;stroke-linejoin:round;stroke-miterlimit:4;stroke-dasharray:none;stroke-opacity:1"
         id="path204"
         inkscape:connector-curvature="0" /><path
         d="m 2619.2,2592.88 -21.6,112.14 29.78,5.29 10.96,-77.96 0.57,0.17 34.31,85.79 29.83,5.3 -55.75,-125.79 -12.55,-87.21 -28.11,-4.83 12.56,87.1"
         style="fill:#231f20;fill-opacity:1;fill-rule:nonzero;stroke:none"
         id="path206"
         inkscape:connector-curvature="0" /><path
         d="m 2619.2,2592.88 -21.6,112.14 29.78,5.29 10.96,-77.96 0.57,0.17 34.31,85.79 29.83,5.3 -55.75,-125.79 -12.55,-87.21 -28.11,-4.83 z"
         style="fill:none;stroke:#231f20;stroke-width:20;stroke-linecap:round;stroke-linejoin:round;stroke-miterlimit:4;stroke-dasharray:none;stroke-opacity:1"
         id="path208"
         inkscape:connector-curvature="0" /><path
         d="m 2731.7,2701.64 -32.64,-5.8 4.07,27.77 93.3,16.7 -4.07,-27.86 -32.52,-5.78 -25.8,-178.79 -28.14,-4.92 25.8,178.68"
         style="fill:#231f20;fill-opacity:1;fill-rule:nonzero;stroke:none"
         id="path210"
         inkscape:connector-curvature="0" /><path
         d="m 2731.7,2701.64 -32.64,-5.8 4.07,27.77 93.3,16.7 -4.07,-27.86 -32.52,-5.78 -25.8,-178.79 -28.14,-4.92 z"
         style="fill:none;stroke:#231f20;stroke-width:20;stroke-linecap:round;stroke-linejoin:round;stroke-miterlimit:4;stroke-dasharray:none;stroke-opacity:1"
         id="path212"
         inkscape:connector-curvature="0" /><path
         d="m 2808.85,2742.43 84.06,15.23 -4.02,-27.89 -55.82,-10.05 -8.79,-60.68 48.67,8.71 -4.12,-27.89 -48.65,-8.67 -8.64,-60.73 55.75,9.89 -4.38,-29.69 -83.93,-14.78 29.87,206.55"
         style="fill:#231f20;fill-opacity:1;fill-rule:nonzero;stroke:none"
         id="path214"
         inkscape:connector-curvature="0" /><path
         d="m 2808.85,2742.43 84.06,15.23 -4.02,-27.89 -55.82,-10.05 -8.79,-60.68 48.67,8.71 -4.12,-27.89 -48.65,-8.67 -8.64,-60.73 55.75,9.89 -4.38,-29.69 -83.93,-14.78 z"
         style="fill:none;stroke:#231f20;stroke-width:20;stroke-linecap:round;stroke-linejoin:round;stroke-miterlimit:4;stroke-dasharray:none;stroke-opacity:1"
         id="path216"
         inkscape:connector-curvature="0" /><path
         d="m 2977.36,2616.35 c -3.71,-25.64 -26.62,-51.6 -51.66,-56.15 -21.58,-3.86 -44.84,2.8 -39.35,40.48 l 16.54,114.03 c 3.85,27.01 25.41,51.07 52.77,55.94 26.1,4.87 42.33,-12.29 38.15,-41.11 l -1.7,-11.61 -28.16,-5.17 1.42,9.8 c 1.7,11.76 -3.61,20.41 -14.37,18.47 -14.01,-2.56 -18.85,-13.37 -20.8,-27.3 l -15.45,-105.81 c -1.7,-11.98 1.38,-20.45 14.12,-18.14 7.71,1.26 18.3,7.74 20.68,23.99 l 1.41,10.33 28.24,5.01 -1.84,-12.76"
         style="fill:#231f20;fill-opacity:1;fill-rule:nonzero;stroke:none"
         id="path218"
         inkscape:connector-curvature="0" /><path
         d="m 2977.36,2616.35 c -3.71,-25.64 -26.62,-51.6 -51.66,-56.15 -21.58,-3.86 -44.84,2.8 -39.35,40.48 l 16.54,114.03 c 3.85,27.01 25.41,51.07 52.77,55.94 26.1,4.87 42.33,-12.29 38.15,-41.11 l -1.7,-11.61 -28.16,-5.17 1.42,9.8 c 1.7,11.76 -3.61,20.41 -14.37,18.47 -14.01,-2.56 -18.85,-13.37 -20.8,-27.3 l -15.45,-105.81 c -1.7,-11.98 1.38,-20.45 14.12,-18.14 7.71,1.26 18.3,7.74 20.68,23.99 l 1.41,10.33 28.24,5.01 z"
         style="fill:none;stroke:#231f20;stroke-width:20;stroke-linecap:round;stroke-linejoin:round;stroke-miterlimit:4;stroke-dasharray:none;stroke-opacity:1"
         id="path220"
         inkscape:connector-curvature="0" /><path
         d="m 3023.77,2781.62 28.11,5.06 -12.8,-88.84 34.73,6.34 12.99,88.88 28.28,5.15 -30.35,-207.55 -28.19,-5.19 13.52,92.48 -34.85,-6.31 -13.51,-92.35 -28.11,-5.16 30.18,207.49"
         style="fill:#231f20;fill-opacity:1;fill-rule:nonzero;stroke:none"
         id="path222"
         inkscape:connector-curvature="0" /><path
         d="m 3023.77,2781.62 28.11,5.06 -12.8,-88.84 34.73,6.34 12.99,88.88 28.28,5.15 -30.35,-207.55 -28.19,-5.19 13.52,92.48 -34.85,-6.31 -13.51,-92.35 -28.11,-5.16 z"
         style="fill:none;stroke:#231f20;stroke-width:20;stroke-linecap:round;stroke-linejoin:round;stroke-miterlimit:4;stroke-dasharray:none;stroke-opacity:1"
         id="path224"
         inkscape:connector-curvature="0" /><path
         d="m 3140.53,2802.95 27.11,5.06 24.27,-117.22 0.57,0.17 18.3,125.09 28.24,5.29 -30.43,-207.88 -26.46,-4.91 -25.02,117.04 -0.53,-0.22 -18.22,-124.82 -28.18,-5.22 30.35,207.62"
         style="fill:#231f20;fill-opacity:1;fill-rule:nonzero;stroke:none"
         id="path226"
         inkscape:connector-curvature="0" /><path
         d="m 3140.53,2802.95 27.11,5.06 24.27,-117.22 0.57,0.17 18.3,125.09 28.24,5.29 -30.43,-207.88 -26.46,-4.91 -25.02,117.04 -0.53,-0.22 -18.22,-124.82 -28.18,-5.22 z"
         style="fill:none;stroke:#231f20;stroke-width:20;stroke-linecap:round;stroke-linejoin:round;stroke-miterlimit:4;stroke-dasharray:none;stroke-opacity:1"
         id="path228"
         inkscape:connector-curvature="0" /><path
         d="m 3265.33,2826.26 28.21,5.3 -30.47,-207.96 -28.19,-5.37 30.45,208.03"
         style="fill:#231f20;fill-opacity:1;fill-rule:nonzero;stroke:none"
         id="path230"
         inkscape:connector-curvature="0" /><path
         d="m 3265.33,2826.26 28.21,5.3 -30.47,-207.96 -28.19,-5.37 z"
         style="fill:none;stroke:#231f20;stroke-width:20;stroke-linecap:round;stroke-linejoin:round;stroke-miterlimit:4;stroke-dasharray:none;stroke-opacity:1"
         id="path232"
         inkscape:connector-curvature="0" /><path
         d="m 3386.89,2691.96 c -3.69,-25.65 -26.62,-51.94 -51.95,-56.73 -21.48,-4.1 -44.74,2.57 -39.24,40.48 l 16.88,114.67 c 3.96,27.1 25.55,51.33 53.06,56.58 26,5.01 42.31,-12.1 38.09,-41.09 l -1.66,-11.77 -28.24,-5.33 1.31,10.02 c 1.77,11.66 -3.36,20.38 -14.16,18.27 -14.12,-2.68 -18.99,-13.51 -21,-27.49 l -15.7,-106.5 c -1.76,-11.92 1.35,-20.46 14.06,-18.06 7.68,1.34 18.48,7.99 20.78,24.37 l 1.54,10.2 28.15,5.31 -1.92,-12.93"
         style="fill:#231f20;fill-opacity:1;fill-rule:nonzero;stroke:none"
         id="path234"
         inkscape:connector-curvature="0" /><path
         d="m 3386.89,2691.96 c -3.69,-25.65 -26.62,-51.94 -51.95,-56.73 -21.48,-4.1 -44.74,2.57 -39.24,40.48 l 16.88,114.67 c 3.96,27.1 25.55,51.33 53.06,56.58 26,5.01 42.31,-12.1 38.09,-41.09 l -1.66,-11.77 -28.24,-5.33 1.31,10.02 c 1.77,11.66 -3.36,20.38 -14.16,18.27 -14.12,-2.68 -18.99,-13.51 -21,-27.49 l -15.7,-106.5 c -1.76,-11.92 1.35,-20.46 14.06,-18.06 7.68,1.34 18.48,7.99 20.78,24.37 l 1.54,10.2 28.15,5.31 z"
         style="fill:none;stroke:#231f20;stroke-width:20;stroke-linecap:round;stroke-linejoin:round;stroke-miterlimit:4;stroke-dasharray:none;stroke-opacity:1"
         id="path236"
         inkscape:connector-curvature="0" /><path
         d="m 1424.96,2475.26 -27.9,-4.07 0.89,6.6 c 1.75,13.1 -2.2,23.37 -16.44,21.22 -15.42,-2.29 -20.69,-15.47 -22.5,-28.66 -2.04,-15.45 -1.51,-20.51 12.26,-24.39 l 20.2,-5.61 c 23.32,-5.96 25.75,-21.34 21.73,-50.72 -4.62,-33.76 -20.16,-60.7 -56.26,-65.76 -27.1,-3.78 -44.86,13.79 -41.11,40.76 l 1.37,10.78 28.01,3.98 -1.24,-9 c -1.45,-10.45 2.62,-19.77 16.92,-17.88 18.86,2.81 21.8,14.53 24.29,32.91 2.96,21.32 1.04,24.33 -11.97,28.12 l -18.8,5.44 c -22.72,6.69 -26.81,22.11 -23.43,47.07 4.21,30.43 23.47,57.16 55.52,61.86 28,4.13 43.5,-16.25 40.38,-38.52 l -1.92,-14.13"
         style="fill:#ffffff;fill-opacity:1;fill-rule:nonzero;stroke:none"
         id="path238"
         inkscape:connector-curvature="0" /><path
         d="m 1459.04,2386.7 c -1.93,-13.93 5.91,-19.16 16.02,-17.61 10.2,1.29 19.86,9.23 21.78,23.05 l 14.6,106.24 c 1.88,13.8 -5.91,19.04 -16.12,17.48 -10.17,-1.54 -19.85,-9.34 -21.73,-23.14 z m -13.36,101.89 c 4.4,32.79 30.89,52.68 53.64,56.1 22.76,3.33 44.68,-9.43 40.1,-42.12 l -14.63,-106.29 c -4.55,-32.84 -30.89,-52.79 -53.58,-56.02 -22.88,-3.31 -44.64,9.63 -40.11,42.27 l 14.58,106.06"
         style="fill:#ffffff;fill-opacity:1;fill-rule:nonzero;stroke:none"
         id="path240"
         inkscape:connector-curvature="0" /><path
         d="m 1639.67,2411.08 c -3.64,-26.28 -26.83,-50.08 -51.8,-53.81 -24.93,-3.64 -42.42,14.14 -38.68,40.3 l 21.56,156.2 28.01,4.23 -21.25,-153.38 c -1.97,-14.22 4.45,-19.84 14.4,-18.41 9.9,1.42 18.19,9.4 20.2,23.55 l 21.3,153.62 28.03,4.3 -21.77,-156.6"
         style="fill:#ffffff;fill-opacity:1;fill-rule:nonzero;stroke:none"
         id="path242"
         inkscape:connector-curvature="0" /><path
         d="m 1702.36,2547.26 -32.43,-4.93 3.82,27.17 92.94,14.52 -3.89,-27.32 -32.41,-5.02 -24.28,-175.01 -28.04,-4.28 24.29,174.87"
         style="fill:#ffffff;fill-opacity:1;fill-rule:nonzero;stroke:none"
         id="path244"
         inkscape:connector-curvature="0" /><path
         d="m 1779.01,2585.97 28.04,4.33 -12.08,-86.63 34.61,5.33 12.15,86.83 28.09,4.45 -28.42,-202.93 -28.04,-4.39 12.64,90.39 -34.73,-5.42 -12.44,-90.23 -27.99,-4.35 28.17,202.62"
         style="fill:#ffffff;fill-opacity:1;fill-rule:nonzero;stroke:none"
         id="path246"
         inkscape:connector-curvature="0" /><path
         d="m 1896.16,2604.5 83.6,13.43 -3.78,-27.47 -55.56,-8.8 -8.41,-59.73 48.32,7.66 -3.78,-27.25 -48.39,-7.75 -8.31,-59.69 55.48,8.73 -4.04,-29.11 -83.54,-13.05 28.41,203.03"
         style="fill:#ffffff;fill-opacity:1;fill-rule:nonzero;stroke:none"
         id="path248"
         inkscape:connector-curvature="0" /><path
         d="m 2013.23,2534.5 15.96,2.62 c 19.47,3.19 24.23,15.17 27.08,35.43 2.89,20.53 1.13,31.26 -19.43,27.75 l -14.66,-2.39 z m -15.23,86.39 45.16,7.4 c 33.23,5.47 46.62,-12.26 40.98,-51.8 -3.26,-23.49 -11.93,-41.74 -31.24,-54.91 l 17.1,-88.12 -29.71,-4.72 -13.95,82.77 -16.7,-2.71 -12.22,-87.03 -28.05,-4.38 28.63,203.5"
         style="fill:#ffffff;fill-opacity:1;fill-rule:nonzero;stroke:none"
         id="path250"
         inkscape:connector-curvature="0" /><path
         d="m 2114.11,2639.89 27.05,4.58 25,-116.1 0.53,-0.01 17.38,123.09 28.19,4.73 -28.97,-204.48 -26.42,-4.28 -25.51,115.83 -0.61,-0.18 -17.36,-122.72 -28.05,-4.4 28.77,203.94"
         style="fill:#ffffff;fill-opacity:1;fill-rule:nonzero;stroke:none"
         id="path252"
         inkscape:connector-curvature="0" /><path
         d="m 2303.08,2576.64 13.51,2.28 c 22.95,3.71 25.24,18.03 28.07,38.31 2.77,19.32 5.06,35.22 -17.05,31.5 l -14.61,-2.56 z m -14.24,92.31 42.22,7.28 c 15.34,2.7 26.22,0.81 34.34,-8.19 8.13,-9.1 9.28,-21.48 5.78,-45.93 -2.4,-17.86 -5.6,-30.18 -13.87,-42.58 -9.51,-14.55 -23.18,-24.67 -43.75,-28.18 l -14.33,-2.3 -11.33,-80.18 -28.16,-4.6 29.1,204.68"
         style="fill:#ffffff;fill-opacity:1;fill-rule:nonzero;stroke:none"
         id="path254"
         inkscape:connector-curvature="0" /><path
         d="m 2405.26,2535.86 c -2.16,-14.22 5.77,-19.37 15.96,-17.52 10.18,1.64 19.96,9.74 22.03,24.04 l 15.49,108.45 c 1.89,14.12 -5.9,19.14 -16.17,17.4 -10.14,-1.6 -19.94,-9.76 -21.9,-24.07 z m -12.71,103.67 c 4.74,33.3 31.31,54.2 54.26,58.22 22.91,3.87 44.74,-8.65 40.04,-42.1 l -15.51,-108.52 c -4.87,-33.68 -31.49,-54.41 -54.28,-58.28 -22.91,-3.94 -44.75,8.78 -39.86,42.21 l 15.35,108.47"
         style="fill:#ffffff;fill-opacity:1;fill-rule:nonzero;stroke:none"
         id="path256"
         inkscape:connector-curvature="0" /><path
         d="m 2518.58,2708.37 28.11,4.96 -25.27,-176.36 55.78,9.76 -4.24,-29.68 -83.81,-14.29 29.43,205.61"
         style="fill:#ffffff;fill-opacity:1;fill-rule:nonzero;stroke:none"
         id="path258"
         inkscape:connector-curvature="0" /><path
         d="m 2604.58,2607.5 -21.6,112.14 29.78,5.29 10.96,-77.96 0.57,0.17 34.31,85.79 29.83,5.3 -55.74,-125.79 -12.56,-87.21 -28.11,-4.84 12.56,87.11"
         style="fill:#ffffff;fill-opacity:1;fill-rule:nonzero;stroke:none"
         id="path260"
         inkscape:connector-curvature="0" /><path
         d="m 2717.08,2716.26 -32.64,-5.8 4.07,27.77 93.3,16.7 -4.07,-27.86 -32.52,-5.78 -25.8,-178.79 -28.14,-4.93 25.8,178.69"
         style="fill:#ffffff;fill-opacity:1;fill-rule:nonzero;stroke:none"
         id="path262"
         inkscape:connector-curvature="0" /><path
         d="m 2794.23,2757.05 84.06,15.23 -4.02,-27.89 -55.82,-10.05 -8.79,-60.68 48.67,8.71 -4.12,-27.89 -48.65,-8.67 -8.64,-60.74 55.75,9.9 -4.38,-29.69 -83.92,-14.78 29.86,206.55"
         style="fill:#ffffff;fill-opacity:1;fill-rule:nonzero;stroke:none"
         id="path264"
         inkscape:connector-curvature="0" /><path
         d="m 2962.74,2630.97 c -3.71,-25.64 -26.62,-51.6 -51.66,-56.15 -21.58,-3.87 -44.84,2.81 -39.35,40.48 l 16.54,114.03 c 3.85,27.01 25.41,51.06 52.77,55.94 26.1,4.87 42.33,-12.3 38.15,-41.11 l -1.7,-11.61 -28.16,-5.17 1.42,9.8 c 1.7,11.76 -3.61,20.41 -14.37,18.47 -14.01,-2.56 -18.85,-13.37 -20.8,-27.29 l -15.45,-105.82 c -1.7,-11.98 1.38,-20.45 14.12,-18.14 7.71,1.26 18.3,7.74 20.68,23.99 l 1.41,10.33 28.24,5.01 -1.84,-12.76"
         style="fill:#ffffff;fill-opacity:1;fill-rule:nonzero;stroke:none"
         id="path266"
         inkscape:connector-curvature="0" /><path
         d="m 3009.15,2796.23 28.11,5.07 -12.8,-88.84 34.73,6.34 12.99,88.88 28.28,5.15 -30.35,-207.55 -28.19,-5.19 13.52,92.47 -34.84,-6.3 -13.52,-92.36 -28.11,-5.15 30.18,207.48"
         style="fill:#ffffff;fill-opacity:1;fill-rule:nonzero;stroke:none"
         id="path268"
         inkscape:connector-curvature="0" /><path
         d="m 3125.91,2817.56 27.11,5.07 24.27,-117.22 0.57,0.17 18.3,125.08 28.24,5.29 -30.43,-207.87 -26.46,-4.91 -25.02,117.04 -0.53,-0.23 -18.22,-124.81 -28.18,-5.22 30.35,207.61"
         style="fill:#ffffff;fill-opacity:1;fill-rule:nonzero;stroke:none"
         id="path270"
         inkscape:connector-curvature="0" /><path
         d="m 3250.71,2840.88 28.21,5.3 -30.47,-207.96 -28.19,-5.37 30.45,208.03"
         style="fill:#ffffff;fill-opacity:1;fill-rule:nonzero;stroke:none"
         id="path272"
         inkscape:connector-curvature="0" /><path
         d="m 3372.28,2706.58 c -3.7,-25.65 -26.63,-51.94 -51.96,-56.73 -21.48,-4.1 -44.74,2.57 -39.24,40.48 l 16.88,114.67 c 3.96,27.1 25.55,51.33 53.07,56.58 25.99,5.01 42.3,-12.11 38.08,-41.09 l -1.66,-11.77 -28.24,-5.33 1.31,10.02 c 1.77,11.66 -3.36,20.38 -14.16,18.27 -14.12,-2.68 -18.99,-13.52 -21,-27.49 l -15.7,-106.5 c -1.76,-11.92 1.35,-20.46 14.06,-18.06 7.68,1.34 18.48,8 20.78,24.37 l 1.54,10.2 28.15,5.31 -1.91,-12.93"
         style="fill:#ffffff;fill-opacity:1;fill-rule:nonzero;stroke:none"
         id="path274"
         inkscape:connector-curvature="0" /></g></g></svg>