<?xml version="1.0" encoding="UTF-8" standalone="no"?>
<!-- Created with Inkscape (http://www.inkscape.org/) -->

<svg
   xmlns:dc="http://purl.org/dc/elements/1.1/"
   xmlns:cc="http://creativecommons.org/ns#"
   xmlns:rdf="http://www.w3.org/1999/02/22-rdf-syntax-ns#"
   xmlns:svg="http://www.w3.org/2000/svg"
   xmlns="http://www.w3.org/2000/svg"
   xmlns:sodipodi="http://sodipodi.sourceforge.net/DTD/sodipodi-0.dtd"
   xmlns:inkscape="http://www.inkscape.org/namespaces/inkscape"
   version="1.1"
   id="svg2"
   xml:space="preserve"
   width="657.56"
   height="297.25333"
   viewBox="0 0 657.56 297.25333"
   sodipodi:docname="SPSU_LOGO_REV.svg"
   inkscape:version="0.92.1 r15371"
   inkscape:export-filename="/home/kurt/Desktop/SPSU Visual Identity WIP/Logos/logo/SPSU_LOGO_REV.png"
   inkscape:export-xdpi="43.798286"
   inkscape:export-ydpi="43.798286"><metadata
     id="metadata8"><rdf:RDF><cc:Work
         rdf:about=""><dc:format>image/svg+xml</dc:format><dc:type
           rdf:resource="http://purl.org/dc/dcmitype/StillImage" /><dc:title /></cc:Work></rdf:RDF></metadata><defs
     id="defs6" /><sodipodi:namedview
     pagecolor="#ffffff"
     bordercolor="#666666"
     borderopacity="1"
     objecttolerance="10"
     gridtolerance="10"
     guidetolerance="10"
     inkscape:pageopacity="0"
     inkscape:pageshadow="2"
     inkscape:window-width="1440"
     inkscape:window-height="843"
     id="namedview4"
     showgrid="false"
     inkscape:pagecheckerboard="true"
     inkscape:zoom="1.4447351"
     inkscape:cx="328.78"
     inkscape:cy="148.62666"
     inkscape:window-x="0"
     inkscape:window-y="31"
     inkscape:window-maximized="1"
     inkscape:current-layer="g10" /><g
     id="g10"
     inkscape:groupmode="layer"
     inkscape:label="ink_ext_XXXXXX"
     transform="matrix(1.3333333,0,0,-1.3333333,0,297.25333)"><g
       id="g12"
       transform="scale(0.1)"><path
         d="m 659.801,757.051 c -17.688,0 -34.457,4.039 -47.266,11.41 L 62.3008,1086.29 c -26.5235,15.23 -47.3047,51.16 -47.3047,81.77 v 635.38 c 0,30.65 20.7812,66.6 47.3437,81.84 l 550.1762,317.63 c 12.789,7.41 29.578,11.52 47.285,11.52 17.699,0 34.492,-4.11 47.301,-11.54 l 550.088,-317.63 c 26.51,-15.21 47.29,-51.17 47.29,-81.82 v -635.38 c 0,-30.64 -20.78,-66.57 -47.33,-81.8 L 707.063,768.461 c -12.809,-7.371 -29.583,-11.41 -47.262,-11.41 v 0"
         style="fill:#008350;fill-opacity:1;fill-rule:nonzero;stroke:none"
         id="path14"
         inkscape:connector-curvature="0" /><path
         d="m 659.801,2229.43 c -20.305,0 -39.781,-4.81 -54.844,-13.56 L 54.793,1898.26 C 23.5859,1880.33 0,1839.55 0,1803.44 v -635.37 c 0,-36.09 23.5781,-76.84 54.8516,-94.8 L 605.016,755.48 c 15.086,-8.679 34.527,-13.429 54.785,-13.429 20.258,0 39.695,4.758 54.726,13.418 L 1264.7,1073.3 c 31.19,17.88 54.78,58.64 54.78,94.77 v 635.37 c 0,36.13 -23.58,76.91 -54.86,94.86 l -550.057,317.61 c -14.989,8.7 -34.461,13.52 -54.762,13.52 z m 0,-30 c 14.429,0 28.851,-3.17 39.762,-9.51 l 550.127,-317.64 c 21.93,-12.59 39.79,-43.6 39.79,-68.84 v -635.37 c 0,-25.22 -17.86,-56.22 -39.79,-68.79 L 699.563,781.461 c -10.911,-6.281 -25.333,-9.41 -39.762,-9.41 -14.43,0 -28.863,3.129 -39.781,9.41 L 69.793,1099.28 C 47.8828,1111.87 30,1142.85 30,1168.07 v 635.37 c 0,25.24 17.8828,56.25 39.793,68.84 l 550.227,317.64 c 10.918,6.34 25.351,9.51 39.781,9.51"
         style="fill:#ffffff;fill-opacity:1;fill-rule:nonzero;stroke:none"
         id="path16"
         inkscape:connector-curvature="0" /><path
         d="m 952.598,1759.43 h 69.652 v -429.57 c 0,-35.9 0,-71.91 43.59,-71.91 42.8,0 42.8,36.01 42.8,76.46 v 425.02 h 70.4 v -421.16 c 0,-37.45 0,-139.2 -115.54,-139.2 -110.902,0 -110.902,97.15 -110.902,126.22 v 434.14"
         style="fill:#ffffff;fill-opacity:1;fill-rule:nonzero;stroke:none"
         id="path18"
         inkscape:connector-curvature="0" /><path
         d="m 551.816,1582.39 h -0.078 v -106.47 c 0,-35.95 0,-71.92 -43.613,-71.92 h -29.902 v 296.64 h 30 c 43.593,0 43.593,-35.95 43.593,-71.93 z m -41.296,177.12 h -92.582 l 0.07,-0.08 h -9.68 v -561.38 h 69.895 v 147.02 h 32.175 c 110.93,0 110.93,97.15 110.93,126.23 v 50.94 h 0.051 v 111.06 c 0,29.09 0,126.21 -110.859,126.21"
         style="fill:#ffffff;fill-opacity:1;fill-rule:nonzero;stroke:none"
         id="path20"
         inkscape:connector-curvature="0" /><path
         d="m 282.234,1490.48 c -52.8,76.49 -69.656,101.76 -69.656,156.8 0,26.83 3.098,54.29 35.977,54.29 26.035,0 28.293,-19.84 28.293,-36.68 v -35.87 h 65.054 v 36.66 c 0,55.82 -23.718,92.52 -91.023,92.52 -36.758,0 -69.656,-9.89 -91.055,-44.34 -12.234,-20.65 -18.398,-45.14 -18.398,-74.2 0,-69.64 31.406,-115.51 74.25,-177.47 48.933,-71.89 58.125,-94.85 58.125,-145.34 0,-28.28 -0.754,-62.7 -34.406,-62.7 -36.707,0 -36.707,33.66 -36.707,52.03 v 38.89 h -65.813 v -30.54 c 0,-27.49 0,-117.02 103.262,-117.02 19.883,0 55.832,2.34 81.125,36 16.004,22.15 25.191,56.62 25.191,92.56 0,69.56 -29.812,113.17 -64.219,164.41"
         style="fill:#ffffff;fill-opacity:1;fill-rule:nonzero;stroke:none"
         id="path22"
         inkscape:connector-curvature="0" /><path
         d="m 828.516,1490.48 c -52.801,76.49 -69.661,101.76 -69.661,156.8 0,26.83 3.098,54.29 35.981,54.29 26.031,0 28.289,-19.84 28.289,-36.68 v -35.87 h 65.059 v 36.66 c 0,55.82 -23.719,92.52 -91.028,92.52 -36.758,0 -69.656,-9.89 -91.051,-44.34 -12.238,-20.65 -18.402,-45.14 -18.402,-74.2 0,-69.64 31.406,-115.51 74.25,-177.47 48.938,-71.89 58.125,-94.85 58.125,-145.34 0,-28.28 -0.754,-62.7 -34.402,-62.7 -36.711,0 -36.711,33.66 -36.711,52.03 v 38.89 h -65.813 v -30.54 c 0,-27.49 0,-117.02 103.266,-117.02 19.883,0 55.828,2.34 81.121,36 16.008,22.15 25.195,56.62 25.195,92.56 0,69.56 -29.812,113.17 -64.218,164.41"
         style="fill:#ffffff;fill-opacity:1;fill-rule:nonzero;stroke:none"
         id="path24"
         inkscape:connector-curvature="0" /><path
         d="m 1658.18,802.27 c -7.87,-15.25 -21.89,-24.391 -56.34,-24.692 h -34.93 v 193.313 h 38.35 c 32.9,-0.36 45.79,-10.282 53.51,-26.571 7.71,-16.679 8.04,-42.199 7.95,-70.922 0.09,-30.457 -0.52,-55.519 -8.54,-71.128 z m 63.8,220.16 c -31.32,33.4 -69.42,45.27 -118.45,45.13 h -138.4 V 442.41 h 101.78 v 238.488 h 37.55 c 66.01,-0.25 108.05,25.473 133.04,66.961 21.65,35.153 25.92,72.969 25.92,126.379 0.1,73.231 -9.61,114.672 -41.44,148.192"
         style="fill:#ffffff;fill-opacity:1;fill-rule:nonzero;stroke:none"
         id="path26"
         inkscape:connector-curvature="0" /><path
         d="m 1911.03,916.262 c 0.46,38.508 23.2,54.058 52.03,54.636 28.78,-0.578 51.51,-16.128 52.03,-54.636 V 593.66 c -0.52,-38.5 -23.25,-54.012 -52.03,-54.609 -28.83,0.597 -51.57,16.109 -52.03,54.609 z m 52.03,156.458 c -74.3,-0.17 -153.7,-52.79 -153.89,-156.458 V 593.66 c 0.19,-103.648 79.59,-156.23 153.89,-156.449 74.27,0.219 153.7,52.801 153.89,156.449 v 322.602 c -0.19,103.668 -79.62,156.288 -153.89,156.458"
         style="fill:#ffffff;fill-opacity:1;fill-rule:nonzero;stroke:none"
         id="path28"
         inkscape:connector-curvature="0" /><path
         d="m 2275.41,539.051 0.05,528.509 H 2173.59 V 442.41 h 268.22 v 96.641 h -166.4"
         style="fill:#ffffff;fill-opacity:1;fill-rule:nonzero;stroke:none"
         id="path30"
         inkscape:connector-curvature="0" /><path
         d="m 2694.46,1067.56 h -90.84 L 2537.76,840.379 2471.9,1067.56 H 2363.88 L 2486.81,706.648 V 442.352 h 101.86 v 264.277 l 105.79,310.721 v -46.452 h 95.33 V 442.352 h 101.81 v 528.546 h 107.18 v 96.662 h -287.26 -17.06"
         style="fill:#ffffff;fill-opacity:1;fill-rule:nonzero;stroke:none"
         id="path32"
         inkscape:connector-curvature="0" /><path
         d="M 3904.44,1067.56 V 805.871 h -107 V 1067.56 H 3695.72 V 442.352 h 101.72 v 266.859 h 107 V 442.352 h 101.82 v 625.208 h -101.82"
         style="fill:#ffffff;fill-opacity:1;fill-rule:nonzero;stroke:none"
         id="path34"
         inkscape:connector-curvature="0" /><path
         d="m 4290.71,1067.56 -0.31,-348.72 -125.24,348.72 h -96.19 V 442.352 h 98 V 791.871 L 4294.21,442.41 h 94.5 v 625.15 h -98"
         style="fill:#ffffff;fill-opacity:1;fill-rule:nonzero;stroke:none"
         id="path36"
         inkscape:connector-curvature="0" /><path
         d="M 4453.96,1067.56 V 442.41 h 101.8 v 625.15 h -101.8"
         style="fill:#ffffff;fill-opacity:1;fill-rule:nonzero;stroke:none"
         id="path38"
         inkscape:connector-curvature="0" /><path
         d="m 3298.01,970.898 v 96.662 H 3027.58 V 442.352 h 270.43 v 96.699 h -168.62 v 170.16 h 155.75 v 96.66 h -155.75 v 165.027 h 168.62"
         style="fill:#ffffff;fill-opacity:1;fill-rule:nonzero;stroke:none"
         id="path40"
         inkscape:connector-curvature="0" /><path
         d="m 4443.96,2.48828 h -45.9 V 311.98 h 45.9 V 2.48828"
         style="fill:#ffffff;fill-opacity:1;fill-rule:nonzero;stroke:none"
         id="path42"
         inkscape:connector-curvature="0" /><path
         d="m 3315.67,2.48828 h -45.9 V 311.98 h 45.9 V 2.48828"
         style="fill:#ffffff;fill-opacity:1;fill-rule:nonzero;stroke:none"
         id="path44"
         inkscape:connector-curvature="0" /><path
         d="m 1851.15,311.98 h -163.67 v -44.492 h 58.88 V 2.58984 h 45.91 V 267.488 h 58.88 v 44.492"
         style="fill:#ffffff;fill-opacity:1;fill-rule:nonzero;stroke:none"
         id="path46"
         inkscape:connector-curvature="0" /><path
         d="m 2273.72,311.98 h -163.67 v -44.492 h 58.89 V 2.58984 h 45.89 V 267.488 h 58.89 v 44.492"
         style="fill:#ffffff;fill-opacity:1;fill-rule:nonzero;stroke:none"
         id="path48"
         inkscape:connector-curvature="0" /><path
         d="M 2866.14,311.98 V 91.8984 c 0,-30.0976 -19.33,-47.0781 -43.2,-47.0781 -23.85,0 -43.18,16.9805 -43.18,47.0781 V 311.98 h -45.63 V 91.8984 c 0,-62.3671 32.03,-91.738244 88.81,-91.738244 56.8,0 88.82,29.371144 88.82,91.738244 V 311.98 h -45.62"
         style="fill:#ffffff;fill-opacity:1;fill-rule:nonzero;stroke:none"
         id="path50"
         inkscape:connector-curvature="0" /><path
         d="m 2504.7,267.57 v 44.41 H 2337.14 V 2.58984 H 2504.7 V 47.0117 H 2383.05 V 133.02 h 100.94 v 44.109 h -100.94 v 90.441 h 121.65"
         style="fill:#ffffff;fill-opacity:1;fill-rule:nonzero;stroke:none"
         id="path52"
         inkscape:connector-curvature="0" /><path
         d="m 3812.27,267.57 v 44.41 H 3653.72 V 2.58984 h 158.55 V 47.0117 H 3699.63 V 133.02 h 91.92 v 44.109 h -91.92 v 90.441 h 112.64"
         style="fill:#ffffff;fill-opacity:1;fill-rule:nonzero;stroke:none"
         id="path54"
         inkscape:connector-curvature="0" /><path
         d="m 3979.38,176.422 h -42.65 v 90.777 h 42.65 c 25.1,0 45.45,-20.219 45.45,-45.32 0,-25.109 -20.35,-45.457 -45.45,-45.457 z m 43.13,-34.742 c 30.29,14.3 51.27,45.109 51.27,80.851 0,49.348 -40.02,89.367 -89.39,89.367 l -88.32,0.082 v -0.082 h -0.04 l 0.04,-309.30816 h 45.9 V 133.02 h 39.8 l 44.1,-130.43016 h 48.46 L 4022.51,141.68"
         style="fill:#ffffff;fill-opacity:1;fill-rule:nonzero;stroke:none"
         id="path56"
         inkscape:connector-curvature="0" /><path
         d="M 3178.05,2.58984 V 311.98 h -44.61 V 109.84 l -84.01,202.14 h -48.3 V 2.48828 h 44.61 V 204.629 L 3129.7,2.58984 h 48.35"
         style="fill:#ffffff;fill-opacity:1;fill-rule:nonzero;stroke:none"
         id="path58"
         inkscape:connector-curvature="0" /><path
         d="m 4683.29,311.98 h -163.68 v -44.492 h 58.88 V 2.58984 h 45.91 V 267.488 h 58.89 v 44.492"
         style="fill:#ffffff;fill-opacity:1;fill-rule:nonzero;stroke:none"
         id="path60"
         inkscape:connector-curvature="0" /><path
         d="M 4883.24,311.98 4838.3,180.891 4793.34,311.98 h -48.43 l 70.43,-197.23 V 2.51172 h 45.9 V 114.75 l 70.44,197.23 h -48.44"
         style="fill:#ffffff;fill-opacity:1;fill-rule:nonzero;stroke:none"
         id="path62"
         inkscape:connector-curvature="0" /><path
         d="M 3459.38,2.35156 3388.54,311.98 h 46.59 l 49,-214.0191 49.02,214.0191 h 46.6 L 3508.9,2.35156 h -49.52"
         style="fill:#ffffff;fill-opacity:1;fill-rule:nonzero;stroke:none"
         id="path64"
         inkscape:connector-curvature="0" /><path
         d="M 1945.19,113 1978.72,227.012 2012.25,113 Z m 99.6,-110.64844 h 47.85 L 2001.57,311.98 h -45.71 L 1864.79,2.35156 h 47.86 l 19.02,64.70704 h 94.09 l 19.03,-64.70704"
         style="fill:#ffffff;fill-opacity:1;fill-rule:nonzero;stroke:none"
         id="path66"
         inkscape:connector-curvature="0" /><path
         d="m 4916.59,878.809 v 41.23 c 0,89.041 -61.54,152.981 -149.39,152.981 -93.24,0 -148.82,-64.54 -148.82,-147.008 V 588.961 c 0,-114.141 77.69,-151.789 148.82,-151.789 82.46,0 149.39,55.59 149.39,148.797 v 45.402 h -101.6 V 593.73 c 0,-39.441 -16.72,-54.371 -48.37,-54.371 -35.28,0 -45.43,22.11 -46.03,55.59 v 311.942 c 0,36.468 10.75,65.14 46.61,65.14 34.04,0 47.79,-25.691 47.79,-57.383 v -35.839 h 101.6 v 0"
         style="fill:#ffffff;fill-opacity:1;fill-rule:nonzero;stroke:none"
         id="path68"
         inkscape:connector-curvature="0" /><path
         d="m 3639.72,878.809 v 41.23 c 0,89.041 -61.55,152.981 -149.4,152.981 -93.23,0 -148.82,-64.54 -148.82,-147.008 V 588.961 c 0,-114.141 77.7,-151.789 148.82,-151.789 82.46,0 149.4,55.59 149.4,148.797 v 45.402 h -101.6 V 593.73 c 0,-39.441 -16.72,-54.371 -48.37,-54.371 -35.29,0 -45.43,22.11 -46.04,55.59 v 311.942 c 0,36.468 10.75,65.14 46.61,65.14 34.05,0 47.8,-25.691 47.8,-57.383 v -35.839 h 101.6 v 0"
         style="fill:#ffffff;fill-opacity:1;fill-rule:nonzero;stroke:none"
         id="path70"
         inkscape:connector-curvature="0" /><path
         d="m 2153.25,1333.32 c 0,-41.96 -22.69,-79.33 -86.44,-79.33 -63.73,0 -86.44,37.37 -86.44,79.33 v 286.8 c 0,41.98 22.71,79.34 86.44,79.34 63.75,0 86.44,-37.36 86.44,-79.34 z m -86.44,453.52 c -131.23,0 -173.82,-78.59 -173.82,-149.06 v -322.11 c 0,-70.47 42.59,-149.06 173.82,-149.06 131.25,0 173.82,78.59 173.82,149.06 v 322.11 c 0,70.47 -42.57,149.06 -173.82,149.06"
         style="fill:#ffffff;fill-opacity:1;fill-rule:nonzero;stroke:none"
         id="path72"
         inkscape:connector-curvature="0" /><path
         d="m 2593.25,1781.7 v -448.38 c 0,-41.96 -22.7,-79.33 -86.44,-79.33 -63.74,0 -86.45,37.37 -86.45,79.33 v 448.38 h -87.38 v -466.03 c 0,-70.47 42.59,-149.06 173.83,-149.06 131.24,0 173.82,78.59 173.82,149.06 v 466.03 h -87.38"
         style="fill:#ffffff;fill-opacity:1;fill-rule:nonzero;stroke:none"
         id="path74"
         inkscape:connector-curvature="0" /><path
         d="m 2892.9,1694.5 h -128.61 v 87.2 h 344.61 v -87.2 h -128.62 v -522.74 h -87.38 v 522.74"
         style="fill:#ffffff;fill-opacity:1;fill-rule:nonzero;stroke:none"
         id="path76"
         inkscape:connector-curvature="0" /><path
         d="m 3198.26,1781.7 h 87.38 v -260.01 h 188.57 v 260.01 h 87.38 v -609.94 h -87.38 v 261.8 h -188.57 v -261.8 h -87.38 v 609.94"
         style="fill:#ffffff;fill-opacity:1;fill-rule:nonzero;stroke:none"
         id="path78"
         inkscape:connector-curvature="0" /><path
         d="m 3683.47,1781.7 h 312.5 v -87.2 h -223.75 v -174.08 h 201.47 v -86.86 h -201.47 v -174.42 h 223.75 v -87.38 h -312.5 v 609.94"
         style="fill:#ffffff;fill-opacity:1;fill-rule:nonzero;stroke:none"
         id="path80"
         inkscape:connector-curvature="0" /><path
         d="m 4190.97,1521.69 h 83.53 c 60.83,0 89.52,31.56 89.52,82.67 0,52.64 -39.3,90.14 -93.8,90.14 h -79.25 z m -90,260.01 h 176.96 c 88.66,0 173.47,-70.95 173.47,-179.04 0,-70.25 -44.11,-124.82 -99.81,-155.66 l 99.38,-275.24 h -92.51 l -89.37,258.36 h -78.12 v -258.36 h -90 v 609.94"
         style="fill:#ffffff;fill-opacity:1;fill-rule:nonzero;stroke:none"
         id="path82"
         inkscape:connector-curvature="0" /><path
         d="m 4545.77,1781.7 h 96.03 L 4820,1385.12 h 1.71 v 396.58 h 87.38 v -609.94 h -95.28 l -178.95,399.61 h -1.72 v -399.61 h -87.37 v 609.94"
         style="fill:#ffffff;fill-opacity:1;fill-rule:nonzero;stroke:none"
         id="path84"
         inkscape:connector-curvature="0" /><path
         d="m 1510.58,230.809 c 0,21.269 11.58,40.242 43.94,40.242 32.33,0 43.84,-18.973 43.84,-40.242 v -6.86 h 44.46 v 15.832 c 0,35.719 -21.68,75.571 -88.3,75.571 -66.57,0 -89.37,-41.043 -89.37,-83.102 0,-60.93 26.57,-77 88.11,-96.73 30.5,-8.969 43.91,-18.239 43.91,-50.7895 0,-21.2891 -11.51,-40.3086 -43.91,-40.3086 -32.33,0 -43.91,19.0195 -43.91,40.3086 v 6.8398 h -44.2 V 75.7813 C 1465.15,39.9883 1486.64,0 1553.26,0 c 66.66,0 89.56,41.1914 89.56,83.2695 0,60.8515 -27.53,78.3905 -89.56,96.6095 -30.41,8.922 -42.68,18.262 -42.68,50.93"
         style="fill:#ffffff;fill-opacity:1;fill-rule:nonzero;stroke:none"
         id="path86"
         inkscape:connector-curvature="0" /><path
         d="m 4187.25,230.809 c 0,21.269 11.57,40.242 43.93,40.242 32.34,0 43.85,-18.973 43.85,-40.242 v -6.86 h 44.45 v 15.832 c 0,35.719 -21.68,75.571 -88.3,75.571 -66.56,0 -89.37,-41.043 -89.37,-83.102 0,-60.93 26.58,-77 88.12,-96.73 30.5,-8.969 43.91,-18.239 43.91,-50.7895 0,-21.2891 -11.51,-40.3086 -43.91,-40.3086 -32.33,0 -43.91,19.0195 -43.91,40.3086 v 6.8398 h -44.21 V 75.7813 C 4141.81,39.9883 4163.31,0 4229.93,0 c 66.65,0 89.55,41.1914 89.55,83.2695 0,60.8515 -27.53,78.3905 -89.55,96.6095 -30.41,8.922 -42.68,18.262 -42.68,50.93"
         style="fill:#ffffff;fill-opacity:1;fill-rule:nonzero;stroke:none"
         id="path88"
         inkscape:connector-curvature="0" /><path
         d="m 1555.69,1622.22 c 0,41.15 21.7,78.86 85.7,78.86 64,0 86.86,-37.71 86.86,-78.86 v -13.72 h 86.86 v 30.86 c 0,70.86 -42.29,148.57 -173.72,148.57 -131.42,0 -176,-80 -176,-163.42 0,-120 52.58,-152 173.72,-190.86 60.58,-17.15 86.86,-35.42 86.86,-99.42 0,-42.3 -22.86,-80 -86.86,-80 -64,0 -85.72,37.7 -85.72,80 v 12.56 h -88 v -30.86 c 0,-69.7 42.3,-148.56 173.72,-148.56 131.45,0 176,81.13 176,163.42 0,120 -53.71,155.44 -176,190.86 -59.42,17.14 -83.42,35.44 -83.42,100.57 v 0"
         style="fill:#ffffff;fill-opacity:1;fill-rule:nonzero;stroke:none"
         id="path90"
         inkscape:connector-curvature="0" /></g></g></svg>