<?xml version="1.0" encoding="UTF-8" standalone="no"?>
<!-- Created with Inkscape (http://www.inkscape.org/) -->

<svg
   xmlns:dc="http://purl.org/dc/elements/1.1/"
   xmlns:cc="http://creativecommons.org/ns#"
   xmlns:rdf="http://www.w3.org/1999/02/22-rdf-syntax-ns#"
   xmlns:svg="http://www.w3.org/2000/svg"
   xmlns="http://www.w3.org/2000/svg"
   xmlns:sodipodi="http://sodipodi.sourceforge.net/DTD/sodipodi-0.dtd"
   xmlns:inkscape="http://www.inkscape.org/namespaces/inkscape"
   version="1.1"
   id="svg2"
   xml:space="preserve"
   width="504.73334"
   height="570.34668"
   viewBox="0 0 504.73334 570.34668"
   sodipodi:docname="SPSU Soccer Shield Line.svg"
   inkscape:version="0.92.1 r15371"><metadata
     id="metadata8"><rdf:RDF><cc:Work
         rdf:about=""><dc:format>image/svg+xml</dc:format><dc:type
           rdf:resource="http://purl.org/dc/dcmitype/StillImage" /><dc:title></dc:title></cc:Work></rdf:RDF></metadata><defs
     id="defs6" /><sodipodi:namedview
     pagecolor="#ffffff"
     bordercolor="#666666"
     borderopacity="1"
     objecttolerance="10"
     gridtolerance="10"
     guidetolerance="10"
     inkscape:pageopacity="0"
     inkscape:pageshadow="2"
     inkscape:window-width="1440"
     inkscape:window-height="843"
     id="namedview4"
     showgrid="false"
     inkscape:zoom="0.41378342"
     inkscape:cx="259.61684"
     inkscape:cy="285.17334"
     inkscape:window-x="0"
     inkscape:window-y="31"
     inkscape:window-maximized="1"
     inkscape:current-layer="g10" /><g
     id="g10"
     inkscape:groupmode="layer"
     inkscape:label="ink_ext_XXXXXX"
     transform="matrix(1.3333333,0,0,-1.3333333,0,570.34667)"><g
       id="g12"
       transform="scale(0.1)"><path
         d="m 1893.69,110.031 c 29.61,0 58.86,7.828 83.34,23.938 l 1256.4,950.311 c 47.16,36.63 88.47,99.99 103.23,166.68 l 337.86,1826.82 c 0.72,4.77 0.99,9.45 0.99,14.31 0.45,44.1 -30.42,96.48 -89.19,128.52 l -0.63,0.27 -1604.61,926.37 c -20.43,12.15 -54.27,20.52 -88.29,20.34 -34.02,0.18 -67.95,-8.19 -88.47,-20.34 l -1604.34,-926.19 -0.808,-0.45 c -58.774,-32.13 -89.641,-84.42 -89.192,-128.52 0,-4.95 0.36,-9.81 1.079,-14.67 L 448.922,1250.96 C 463.5,1184.54 504.629,1121.45 551.52,1084.73 L 1808.64,133.879 c 22.95,-14.848 53.82,-23.938 85.05,-23.848 M 1746.54,43.0703 1745.1,44.0586 484.648,997.34 l -0.269,0.269 C 415.531,1052.06 362.34,1134.5 341.281,1228.19 l -0.269,0.99 -338.40262,1829.79 -0.08985,0.72 C 0.808594,3070.49 0,3081.38 0,3092.09 c 0.449219,92.97 58.6797,176.85 145.98,224.73 l 1603.26,925.56 c 43.2,24.84 93.51,35.01 143.55,35.19 50.04,-0.18 100.26,-10.35 143.37,-35.1 L 3639.6,3316.82 c 87.21,-47.88 145.44,-131.76 145.89,-224.73 0.09,-10.71 -0.81,-21.51 -2.43,-32.22 l -0.18,-0.99 -338.4,-1829.52 -0.18,-1.17 c -21.06,-93.69 -74.25,-176.13 -143.1,-230.581 l -0.18,-0.179 -1259.19,-952.2894 -1.17,-0.9922 -1.35,-0.8984 C 1994.49,13.3711 1943.28,-0.0390625 1893.69,-0.0390625 1841.04,0.140625 1789.56,14.7188 1746.54,43.0703"
         style="fill:#231f20;fill-opacity:1;fill-rule:nonzero;stroke:none"
         id="path14"
         inkscape:connector-curvature="0" /><path
         d="m 1893.69,110.031 c 29.61,0 58.86,7.828 83.34,23.938 l 1256.4,950.311 c 47.16,36.63 88.47,99.99 103.23,166.68 l 337.86,1826.82 c 0.72,4.77 0.99,9.45 0.99,14.31 0.45,44.1 -30.42,96.48 -89.19,128.52 l -0.63,0.27 -1604.61,926.37 c -20.43,12.15 -54.27,20.52 -88.29,20.34 -34.02,0.18 -67.95,-8.19 -88.47,-20.34 l -1604.34,-926.19 -0.808,-0.45 c -58.774,-32.13 -89.641,-84.42 -89.192,-128.52 0,-4.95 0.36,-9.81 1.079,-14.67 L 448.922,1250.96 C 463.5,1184.54 504.629,1121.45 551.52,1084.73 L 1808.55,133.879 c 23.04,-14.848 53.91,-23.938 85.14,-23.848"
         style="fill:#a7a5a6;fill-opacity:1;fill-rule:nonzero;stroke:none"
         id="path16"
         inkscape:connector-curvature="0" /><path
         d="m 365.578,1554.71 c 438.844,183.15 963.812,289.8 1528.112,289.8 563.58,0 1087.92,-106.38 1526.4,-288.99 l 284.04,1535.76 c 0.72,4.77 0.99,9.63 0.99,14.49 0.54,44.91 -30.87,98.1 -90.63,130.68 l -0.63,0.36 -1631.34,941.76 c -20.7,12.33 -55.17,20.79 -89.73,20.61 -34.65,0.18 -69.12,-8.28 -89.91,-20.7 L 171.809,3236.9 171,3236.45 c -59.762,-32.58 -91.0781,-85.77 -90.6289,-130.68 0,-4.95 0.3594,-9.9 1.0781,-14.85 L 365.578,1554.71"
         style="fill:#231f20;fill-opacity:1;fill-rule:nonzero;stroke:none"
         id="path18"
         inkscape:connector-curvature="0" /><path
         d="m 2651.73,3326.55 -0.01,-0.01 0.01,0.01"
         style="fill:#008350;fill-opacity:1;fill-rule:nonzero;stroke:none"
         id="path20"
         inkscape:connector-curvature="0" /><path
         d="m 2651.72,3326.54 v 0 l 0.01,0.01 z"
         style="fill:#918f90;fill-opacity:1;fill-rule:nonzero;stroke:none"
         id="path22"
         inkscape:connector-curvature="0" /><path
         d="m 3111.75,3598.7 -95.22,-211.41 c -17.01,141.21 -29.34,243.18 -29.34,243.18 -1.8,14.58 -12.69,26.19 -27.09,28.89 -0.09,0.09 -90.81,17.01 -134.37,24.84 -44.46,8.01 -141.3,22.05 -141.48,22.05 -10.17,1.53 -20.43,-1.71 -27.9,-8.82 -4.95,-4.68 -8.19,-10.71 -9.63,-17.19 l -28.08,-102.87 c -15.57,20.97 -34.38,41.31 -57.15,59.67 -33.48,27 -74.79,55.08 -125.64,76.41 -50.94,21.42 -111.51,35.91 -182.7,36.36 -1.17,0 -2.34,0.09 -3.69,0.09 -124.56,0.18 -225.99,-47.34 -288.09,-126.54 -23.67,-29.97 -40.68,-61.02 -51.39,-93.51 -0.99,-3.06 -1.89,-6.21 -2.79,-9.27 -8.73,32.58 -23.67,62.91 -46.44,99.72 -27.09,43.65 -68.49,73.53 -111.24,94.14 -42.93,20.52 -87.84,31.77 -125.73,36.18 -16.83,1.89 -34.38,2.7 -52.56,2.7 -63.54,-0.09 -135.63,-9.36 -210.78,-17.28 -97.56,-10.26 -189.09,-21.87 -189.27,-21.96 -15.57,-1.98 -27.81,-14.67 -29.07,-30.42 l -19.89,-239.85 -3.51,10.71 c -2.52,14.49 -6.3,27.99 -11.43,40.59 -9.99,24.75 -24.3,45.63 -40.77,64.17 -20.07,22.68 -47.52,43.11 -80.551,58.95 -32.847,15.93 -71.371,27.09 -113.129,29.52 -9.359,0.54 -18.718,0.9 -27.898,0.9 -126.453,0 -234.363,-51.12 -326.613,-116.28 -50.399,-35.64 -100.618,-87.39 -139.321,-147.87 -38.519,-60.48 -65.879,-129.96 -66.058,-201.51 0,-4.32 0.179,-8.55 0.359,-12.78 3.063,-65.7 19.441,-124.83 47.883,-179.19 24.117,-46.17 56.609,-88.83 96.297,-130.86 L 676.98,2577.47 c 3.149,-14.67 4.68,-30.33 4.68,-46.26 0.09,-35.73 -7.922,-72.63 -21.691,-102.96 -10.348,11.97 -110.879,128.7 -116.457,135.99 -0.992,1.35 -2.071,2.43 -3.063,3.51 -0.898,0.99 -1.801,1.98 -2.699,2.79 -1.352,1.26 -2.879,2.25 -4.32,3.24 l -3.239,1.8 c -7.113,3.6 -15.39,4.5 -23.312,2.43 -0.18,0 -112.32,-29.07 -178.469,-48.87 -66.238,-19.8 -137.789,-45.09 -138.058,-45.18 -10.981,-3.87 -19.172,-13.23 -21.602,-24.66 -0.09,-0.27 -6.211,-28.98 -12.328,-65.97 -6.121,-37.17 -12.422,-82.08 -12.512,-117.99 0.09,-8.91 0.449,-17.46 1.531,-25.74 7.2,-53.01 25.469,-100.35 56.25,-138.51 13.321,-16.65 28.887,-31.32 46.528,-43.92 l 634.5,-410.4 0.269,-0.18 c 36.992,-23.94 78.84,-39.96 128.702,-39.96 h 1.08 c 14.13,0 28.89,1.17 44.28,3.6 69.12,10.53 122.31,36.81 172.17,71.19 40.5,27.9 68.67,60.57 80.28,75.06 l 44.64,-59.22 c 6.12,-8.1 15.66,-12.69 25.56,-12.69 1.8,0 3.6,0.09 5.4,0.45 0,0 11.7,1.98 28.17,4.59 16.47,2.7 37.71,6.03 56.34,8.73 18.45,2.7 46.17,6.21 69.12,9.09 22.95,2.88 41.13,5.04 41.22,5.04 10.17,1.17 19.08,7.2 24.12,16.11 2.25,3.96 3.51,8.37 3.96,12.78 l 0.09,-0.18 7.74,227.61 c 18.09,1.89 40.5,4.23 53.55,5.58 24.75,2.61 58.32,7.56 94.5,23.85 19.71,7.38 37.62,18 53.37,29.79 6.66,4.77 11.7,8.91 15.48,12.51 l 0.18,0.18 c 19.17,16.65 30.96,13.86 40.41,26.01 0,-17.64 3.06,-30.51 3.06,-67.41 0,-48.06 27.63,-117.36 50.76,-149.85 0.72,-1.26 1.62,-2.43 2.52,-3.6 0.36,-0.45 8.37,-10.35 20.25,-23.13 11.97,-12.78 27.36,-28.26 44.46,-40.41 28.8,-20.52 97.83,-67.86 198.27,-68.67 1.35,0 2.7,0 4.14,0 h 0.18 c 46.62,0 81.54,6.57 108.72,16.56 27.27,9.99 46.26,23.67 59.4,34.11 27.36,21.42 42.84,41.49 55.8,61.56 1.35,2.16 2.79,4.5 5.13,8.46 4.32,7.29 11.34,19.17 20.25,34.47 4.32,-17.46 17.28,-56.52 53.91,-101.7 32.04,-39.51 64.98,-68.67 98.01,-90.81 1.35,-1.35 2.79,-2.61 4.41,-3.69 1.53,-0.99 44.91,-30.69 107.91,-50.67 40.5,-12.87 74.34,-17.91 102.78,-17.91 15.21,0 28.89,1.44 41.04,3.87 16.2,3.24 30.42,7.83 44.19,14.58 13.77,6.66 26.82,14.85 44.01,25.83 29.34,18.9 449.73,292.68 573.66,373.77 33.03,21.69 62.82,42.66 85.23,71.1 35.73,45.54 54.63,110.61 54.81,188.46 -0.09,28.71 -2.7,59.13 -8.19,91.17 -9.72,55.98 -58.14,339.75 -104.22,609.39 -22.95,134.82 -45.36,266.13 -62.01,363.69 -8.37,48.87 -15.21,89.19 -20.07,117.45 -4.77,28.17 -7.47,44.1 -7.47,44.1 -2.16,12.69 -11.43,23.04 -23.76,26.55 -0.09,0.09 -73.98,21.42 -136.53,38.52 -63.36,17.37 -144.09,35.28 -144.36,35.37 -10.71,2.43 -21.96,-0.63 -29.97,-8.1 -3.42,-3.15 -6.12,-6.93 -7.92,-11.07"
         style="fill:#ffffff;fill-opacity:1;fill-rule:nonzero;stroke:none"
         id="path24"
         inkscape:connector-curvature="0" /><path
         d="m 1200.69,1710.86 c 0.46,0.31 0.92,0.61 1.37,0.92 v 0 c -0.45,-0.31 -0.91,-0.61 -1.37,-0.92"
         style="fill:#ffffff;fill-opacity:1;fill-rule:nonzero;stroke:none"
         id="path26"
         inkscape:connector-curvature="0" /><path
         d="m 1200.69,1710.86 c 0.46,0.31 0.92,0.61 1.37,0.92 v 0 c -0.45,-0.31 -0.91,-0.61 -1.37,-0.92"
         style="fill:#d3d5d7;fill-opacity:1;fill-rule:nonzero;stroke:none"
         id="path28"
         inkscape:connector-curvature="0" /><path
         d="m 1199.72,1710.24 v 0 c 0.32,0.2 0.65,0.41 0.97,0.62 -0.32,-0.21 -0.65,-0.42 -0.97,-0.62"
         style="fill:#ffffff;fill-opacity:1;fill-rule:nonzero;stroke:none"
         id="path30"
         inkscape:connector-curvature="0" /><path
         d="m 1199.72,1710.24 v 0 c 0.32,0.2 0.65,0.41 0.97,0.62 -0.32,-0.21 -0.65,-0.42 -0.97,-0.62"
         style="fill:#d3d5d7;fill-opacity:1;fill-rule:nonzero;stroke:none"
         id="path32"
         inkscape:connector-curvature="0" /><path
         d="m 1784.89,2055.22 v 0 c 0.93,0.55 1.82,1.09 2.69,1.6 -0.87,-0.51 -1.76,-1.05 -2.69,-1.6"
         style="fill:#ffffff;fill-opacity:1;fill-rule:nonzero;stroke:none"
         id="path34"
         inkscape:connector-curvature="0" /><path
         d="m 1784.89,2055.22 v 0 c 0.93,0.55 1.82,1.09 2.69,1.6 -0.87,-0.51 -1.76,-1.05 -2.69,-1.6"
         style="fill:#d3d5d7;fill-opacity:1;fill-rule:nonzero;stroke:none"
         id="path36"
         inkscape:connector-curvature="0" /><path
         d="m 1787.58,2056.82 0.09,0.09 v 0 l -0.09,-0.09"
         style="fill:#ffffff;fill-opacity:1;fill-rule:nonzero;stroke:none"
         id="path38"
         inkscape:connector-curvature="0" /><path
         d="m 1787.58,2056.82 0.09,0.09 v 0 l -0.09,-0.09"
         style="fill:#d3d5d7;fill-opacity:1;fill-rule:nonzero;stroke:none"
         id="path40"
         inkscape:connector-curvature="0" /><path
         d="m 1782.45,2053.76 0.1,0.07 v 0 l -0.1,-0.07"
         style="fill:#ffffff;fill-opacity:1;fill-rule:nonzero;stroke:none"
         id="path42"
         inkscape:connector-curvature="0" /><path
         d="m 1782.45,2053.76 0.1,0.07 v 0 l -0.1,-0.07"
         style="fill:#d3d5d7;fill-opacity:1;fill-rule:nonzero;stroke:none"
         id="path44"
         inkscape:connector-curvature="0" /><path
         d="m 1777.14,2050.7 c 0.27,0.16 0.54,0.32 0.82,0.48 v 0 c -0.28,-0.16 -0.55,-0.32 -0.82,-0.48 m 4.58,2.64 v 0 c 0.24,0.14 0.49,0.28 0.73,0.42 -0.24,-0.14 -0.49,-0.28 -0.73,-0.42"
         style="fill:#ffffff;fill-opacity:1;fill-rule:nonzero;stroke:none"
         id="path46"
         inkscape:connector-curvature="0" /><path
         d="m 1777.14,2050.7 c 0.27,0.16 0.54,0.32 0.82,0.48 v 0 c -0.28,-0.16 -0.55,-0.32 -0.82,-0.48 m 4.58,2.64 v 0 c 0.24,0.14 0.49,0.28 0.73,0.42 -0.24,-0.14 -0.49,-0.28 -0.73,-0.42"
         style="fill:#d3d5d7;fill-opacity:1;fill-rule:nonzero;stroke:none"
         id="path48"
         inkscape:connector-curvature="0" /><path
         d="m 2297.16,1771.25 c 1.62,0.63 3.15,1.26 4.59,1.89 -1.44,-0.63 -2.97,-1.26 -4.59,-1.89"
         style="fill:#ffffff;fill-opacity:1;fill-rule:nonzero;stroke:none"
         id="path50"
         inkscape:connector-curvature="0" /><path
         d="m 2297.16,1771.25 c 1.62,0.63 3.15,1.26 4.59,1.89 -1.44,-0.63 -2.97,-1.26 -4.59,-1.89"
         style="fill:#d3d5d7;fill-opacity:1;fill-rule:nonzero;stroke:none"
         id="path52"
         inkscape:connector-curvature="0" /><path
         d="m 2301.75,1773.14 1.35,0.54 -1.35,-0.54"
         style="fill:#ffffff;fill-opacity:1;fill-rule:nonzero;stroke:none"
         id="path54"
         inkscape:connector-curvature="0" /><path
         d="m 2301.75,1773.14 1.35,0.54 -1.35,-0.54"
         style="fill:#d3d5d7;fill-opacity:1;fill-rule:nonzero;stroke:none"
         id="path56"
         inkscape:connector-curvature="0" /><path
         d="m 2303.1,1773.68 c 1.08,0.45 2.07,0.9 3.15,1.35 -1.08,-0.45 -2.07,-0.9 -3.15,-1.35"
         style="fill:#ffffff;fill-opacity:1;fill-rule:nonzero;stroke:none"
         id="path58"
         inkscape:connector-curvature="0" /><path
         d="m 2303.1,1773.68 c 1.08,0.45 2.07,0.9 3.15,1.35 -1.08,-0.45 -2.07,-0.9 -3.15,-1.35"
         style="fill:#d3d5d7;fill-opacity:1;fill-rule:nonzero;stroke:none"
         id="path60"
         inkscape:connector-curvature="0" /><path
         d="m 2306.25,1775.03 0.63,0.36 v 0 l -0.63,-0.36"
         style="fill:#ffffff;fill-opacity:1;fill-rule:nonzero;stroke:none"
         id="path62"
         inkscape:connector-curvature="0" /><path
         d="m 2306.25,1775.03 0.63,0.36 v 0 l -0.63,-0.36"
         style="fill:#d3d5d7;fill-opacity:1;fill-rule:nonzero;stroke:none"
         id="path64"
         inkscape:connector-curvature="0" /><path
         d="m 2549.79,2967.62 c -58.59,74.34 -121.86,134.46 -194.85,211.41 -3.6,3.78 -7.11,7.47 -10.53,11.16 l 28.26,148.14 c 5.04,-0.45 83.07,-7.47 134.28,-13.5 52.38,-6.3 149.94,-19.71 152.01,-19.98 l -109.17,-337.23"
         style="fill:#231f20;fill-opacity:1;fill-rule:nonzero;stroke:none"
         id="path66"
         inkscape:connector-curvature="0" /><path
         d="m 2813.18,1646.06 c -24.56,0 -55.04,4.39 -92.93,16.38 -58.32,18.45 -99.63,46.71 -99.63,46.71 l 441.9,426.33 c 95.75,-56.2 225.6,-99.24 311.57,-99.24 3.65,0 7.24,0.08 10.72,0.24 51.93,2.34 91.44,12.78 123.12,29.79 -105.3,-68.94 -552.69,-361.71 -582.66,-380.97 -34.02,-21.87 -48.6,-30.15 -77.31,-35.91 -10.03,-2.05 -21.54,-3.33 -34.78,-3.33"
         style="fill:#231f20;fill-opacity:1;fill-rule:nonzero;stroke:none"
         id="path68"
         inkscape:connector-curvature="0" /><path
         d="m 1565.01,2860.52 -128.16,657.09 c 0.45,0.09 61.29,5.4 98.1,7.83 3.72,0.24 7.4,0.4 11.02,0.4 32.29,0 59.35,-12.45 58.46,-85.45 -0.99,-81.09 -11.16,-383.22 -13.59,-467.28 -1.71,-56.61 -5.13,-92.97 -25.83,-112.59"
         style="fill:#231f20;fill-opacity:1;fill-rule:nonzero;stroke:none"
         id="path70"
         inkscape:connector-curvature="0" /><path
         d="m 1049.85,2165.18 -0.54,3.33 0.81,0.09 -0.27,-3.42"
         style="fill:#ffffff;fill-opacity:1;fill-rule:nonzero;stroke:none"
         id="path72"
         inkscape:connector-curvature="0" /><path
         d="m 1049.85,2165.18 -0.54,3.33 0.81,0.09 -0.27,-3.42"
         style="fill:#94989a;fill-opacity:1;fill-rule:nonzero;stroke:none"
         id="path74"
         inkscape:connector-curvature="0" /><path
         d="m 1379.79,1726.61 -329.49,436.77 c 7.38,1.35 82.44,14.49 155.79,23.76 77.22,9.72 162.72,17.91 162.72,17.91 l 0.09,0.9 207.18,-451.71 c 0,0 -73.17,-8.73 -111.06,-14.13 -37.89,-5.49 -85.23,-13.5 -85.23,-13.5"
         style="fill:#231f20;fill-opacity:1;fill-rule:nonzero;stroke:none"
         id="path76"
         inkscape:connector-curvature="0" /><path
         d="m 1012.71,1648.72 c -43.776,0 -78.331,12.97 -112.44,34.87 l -589.141,386.19 0.09,0.18 c 8.281,-3.6 16.832,-6.75 25.832,-9.63 34.265,-10.91 72.234,-18.52 116.691,-18.52 56.774,0 124.117,12.42 207.758,46.24 38.879,15.66 75.602,35.73 109.441,58.32 l 438.479,-429.66 -0.72,-0.45 0.72,0.45 c -2.45,-1.67 -4.9,-3.31 -7.36,-4.93 2.24,1.49 4.47,2.99 6.64,4.48 -2.17,-1.49 -4.4,-2.99 -6.64,-4.48 -0.78,-0.52 -1.56,-1.03 -2.34,-1.54 -2.65,-1.7 -5.3,-3.46 -8.03,-5.14 2.73,1.68 5.38,3.44 8.03,5.14 -43.99,-28.74 -88.85,-49.28 -147.53,-58.33 -14.03,-2.16 -27.12,-3.19 -39.48,-3.19"
         style="fill:#231f20;fill-opacity:1;fill-rule:nonzero;stroke:none"
         id="path78"
         inkscape:connector-curvature="0" /><path
         d="m 1208.7,1716.26 0.72,0.45 -0.72,-0.45"
         style="fill:#231f20;fill-opacity:1;fill-rule:nonzero;stroke:none"
         id="path80"
         inkscape:connector-curvature="0" /><path
         d="m 1208.7,1716.26 0.72,0.45 -0.72,-0.45"
         style="fill:#d3d5d7;fill-opacity:1;fill-rule:nonzero;stroke:none"
         id="path82"
         inkscape:connector-curvature="0" /><path
         d="m 1202.06,1711.78 c 2.24,1.49 4.47,2.99 6.64,4.48 -2.17,-1.49 -4.4,-2.99 -6.64,-4.48 v 0"
         style="fill:#231f20;fill-opacity:1;fill-rule:nonzero;stroke:none"
         id="path84"
         inkscape:connector-curvature="0" /><path
         d="m 1202.06,1711.78 c 2.24,1.49 4.47,2.99 6.64,4.48 -2.17,-1.49 -4.4,-2.99 -6.64,-4.48 v 0"
         style="fill:#d3d5d7;fill-opacity:1;fill-rule:nonzero;stroke:none"
         id="path86"
         inkscape:connector-curvature="0" /><path
         d="m 1191.69,1705.1 c 2.73,1.68 5.38,3.44 8.03,5.14 v 0 c -2.65,-1.7 -5.3,-3.46 -8.03,-5.14"
         style="fill:#231f20;fill-opacity:1;fill-rule:nonzero;stroke:none"
         id="path88"
         inkscape:connector-curvature="0" /><path
         d="m 1191.69,1705.1 c 2.73,1.68 5.38,3.44 8.03,5.14 v 0 c -2.65,-1.7 -5.3,-3.46 -8.03,-5.14"
         style="fill:#d3d5d7;fill-opacity:1;fill-rule:nonzero;stroke:none"
         id="path90"
         inkscape:connector-curvature="0" /><path
         d="m 1584.09,2007.86 -194.31,586.35 c 4.32,0.27 33.84,2.16 65.79,4.86 34.47,2.88 141.03,-1.98 254.7,64.53 l 0.27,0.18 77.13,-606.87 c -0.9,-0.55 -1.83,-1.12 -2.78,-1.69 -0.7,-0.42 -1.43,-0.85 -2.17,-1.28 0.74,0.43 1.47,0.86 2.17,1.28 -0.76,-0.46 -1.54,-0.92 -2.34,-1.39 l 0.17,0.11 -0.17,-0.11 c -0.27,-0.16 -0.55,-0.33 -0.83,-0.49 -1.23,-0.7 -2.49,-1.41 -3.76,-2.16 -6.63,-3.74 -14.34,-7.77 -23.32,-12 -33.12,-15.66 -64.08,-20.43 -88.56,-22.95 -24.39,-2.52 -81.99,-8.37 -81.99,-8.37 m 193.87,43.32 c 1.27,0.75 2.53,1.46 3.76,2.16 -1.22,-0.71 -2.47,-1.43 -3.76,-2.16"
         style="fill:#231f20;fill-opacity:1;fill-rule:nonzero;stroke:none"
         id="path92"
         inkscape:connector-curvature="0" /><path
         d="m 1782.72,2053.94 c 0.74,0.43 1.47,0.86 2.17,1.28 v 0 c -0.7,-0.42 -1.43,-0.85 -2.17,-1.28"
         style="fill:#231f20;fill-opacity:1;fill-rule:nonzero;stroke:none"
         id="path94"
         inkscape:connector-curvature="0" /><path
         d="m 1782.72,2053.94 c 0.74,0.43 1.47,0.86 2.17,1.28 v 0 c -0.7,-0.42 -1.43,-0.85 -2.17,-1.28"
         style="fill:#d3d5d7;fill-opacity:1;fill-rule:nonzero;stroke:none"
         id="path96"
         inkscape:connector-curvature="0" /><path
         d="m 1787.67,2056.91 v 0 0"
         style="fill:#231f20;fill-opacity:1;fill-rule:nonzero;stroke:none"
         id="path98"
         inkscape:connector-curvature="0" /><path
         d="m 1787.67,2056.91 v 0 0"
         style="fill:#d3d5d7;fill-opacity:1;fill-rule:nonzero;stroke:none"
         id="path100"
         inkscape:connector-curvature="0" /><path
         d="m 1782.55,2053.83 0.17,0.11 -0.17,-0.11 v 0"
         style="fill:#231f20;fill-opacity:1;fill-rule:nonzero;stroke:none"
         id="path102"
         inkscape:connector-curvature="0" /><path
         d="m 1782.55,2053.83 0.17,0.11 -0.17,-0.11 v 0"
         style="fill:#d3d5d7;fill-opacity:1;fill-rule:nonzero;stroke:none"
         id="path104"
         inkscape:connector-curvature="0" /><path
         d="m 1777.96,2051.18 c 1.27,0.75 2.53,1.46 3.76,2.16 v 0 c -1.23,-0.7 -2.49,-1.41 -3.76,-2.16 v 0"
         style="fill:#231f20;fill-opacity:1;fill-rule:nonzero;stroke:none"
         id="path106"
         inkscape:connector-curvature="0" /><path
         d="m 1777.96,2051.18 c 1.27,0.75 2.53,1.46 3.76,2.16 v 0 c -1.23,-0.7 -2.49,-1.41 -3.76,-2.16 v 0"
         style="fill:#d3d5d7;fill-opacity:1;fill-rule:nonzero;stroke:none"
         id="path108"
         inkscape:connector-curvature="0" /><path
         d="m 2196.92,1755.75 c -1.31,0 -2.64,0.01 -3.98,0.02 -63.99,0.45 -113.67,21.78 -147.06,41.22 l 77.94,475.02 c 78.94,-42.51 174.55,-65.12 263.31,-65.12 33.57,0 66.18,3.24 96.51,9.86 22.14,4.86 43.56,11.97 64.08,21.15 l -240.84,-462.51 v 0 c -24.14,-11.06 -58.03,-19.64 -109.96,-19.64"
         style="fill:#231f20;fill-opacity:1;fill-rule:nonzero;stroke:none"
         id="path110"
         inkscape:connector-curvature="0" /><path
         d="m 2306.88,1775.39 v 0 0"
         style="fill:#231f20;fill-opacity:1;fill-rule:nonzero;stroke:none"
         id="path112"
         inkscape:connector-curvature="0" /><path
         d="m 2306.88,1775.39 v 0 0"
         style="fill:#d3d5d7;fill-opacity:1;fill-rule:nonzero;stroke:none"
         id="path114"
         inkscape:connector-curvature="0" /><path
         d="m 796.5,3292.43 -55.531,112.41 c 5.312,1.71 10.621,3.06 15.66,3.96 3.883,0.74 7.457,1.09 10.75,1.09 31.398,0 37.176,-31.65 35.871,-54.46 -0.719,-12.15 -3.781,-38.7 -6.75,-63"
         style="fill:#231f20;fill-opacity:1;fill-rule:nonzero;stroke:none"
         id="path116"
         inkscape:connector-curvature="0" /><path
         d="m 1089.9,2648.3 -299.162,594.45 c 6.032,1.17 78.84,15.03 136.981,26.19 60.75,11.61 152.101,26.73 152.101,26.73 l 52.74,-132.3 -42.66,-515.07"
         style="fill:#231f20;fill-opacity:1;fill-rule:nonzero;stroke:none"
         id="path118"
         inkscape:connector-curvature="0" /><path
         d="m 2277.72,3264.17 c -7.56,9.18 -14.67,18.27 -21.24,27.18 l -0.54,0.72 c -14.76,20.07 -26.73,39.69 -35.46,59.49 l 20.61,159.93 c 10.77,6.41 22.99,9.2 35.32,9.2 3.95,0 7.91,-0.28 11.84,-0.83 10.08,-1.35 19.89,-4.32 28.89,-8.55 l -39.42,-247.14"
         style="fill:#231f20;fill-opacity:1;fill-rule:nonzero;stroke:none"
         id="path120"
         inkscape:connector-curvature="0" /><path
         d="m 1079.79,3295.64 c 0,0 -91.352,-15.05 -152.063,-26.72 -60.723,-11.65 -137.485,-26.23 -137.485,-26.23 0,0 11.684,87.44 13.125,112.7 1.469,25.27 -5.816,61.2 -46.637,53.45 -40.8,-7.79 -93.57,-37.81 -113.179,-101.05 -23.801,-76.76 -10.078,-118.6 29.148,-167.1 73.84,-91.33 285.153,-232.21 332.261,-423.12 40.74,-165.08 19.93,-256 -29.14,-352.66 -47.183,-93.01 -165.168,-216.64 -314.304,-276.9 -149.129,-60.23 -246.438,-52.48 -324.481,-27.67 -93.273,29.63 -145.242,97.15 -158.351,193.81 -7.536,55.49 22.82,198.2 22.82,198.2 0,0 71.394,25.25 136.5,44.67 65.086,19.43 177.312,48.59 177.312,48.59 0,0 -15.058,-102.03 -20.898,-143.3 -5.824,-41.31 5.84,-97.17 61.711,-90.37 55.848,6.8 91.793,19.92 128.719,90.86 36.929,70.9 42.742,171.95 2.91,240.45 -39.836,68.49 -87.918,122.42 -184.59,218.12 -96.68,95.68 -150.602,187.99 -156.43,310.4 -6.125,128.77 95.215,265.73 190.922,333.24 95.695,67.53 204.985,116.9 333.242,109.31 73.84,-4.39 137.458,-39.85 170.498,-77.25 33.03,-37.4 51.97,-79.18 46.63,-149.13 -5.33,-69.96 -8.24,-92.3 -8.24,-92.3"
         style="fill:#231f20;fill-opacity:1;fill-rule:nonzero;stroke:none"
         id="path122"
         inkscape:connector-curvature="0" /><path
         d="m 1590.82,2973.1 c -2.43,-84.05 -8.75,-123.4 -69.97,-129.73 -61.2,-6.3 -119.49,-11.15 -119.49,-11.15 l 35.46,685.42 c 0,0 61.2,5.34 98.12,7.77 36.93,2.43 70.44,-3.89 69.47,-85 -0.97,-81.12 -11.16,-383.28 -13.59,-467.31 z m 293.88,435.24 c 0,85.5 -7.77,121.93 -52.45,194.32 -44.7,72.37 -143.81,106.86 -212.3,114.63 -68.49,7.78 -158.84,-4.37 -256.01,-14.57 -97.15,-10.2 -188.46,-21.86 -188.46,-21.86 L 1049.67,2163.31 c 0,0 79.16,14.08 156.4,23.79 77.25,9.72 162.75,17.97 162.75,17.97 l 20.39,389.14 c 0,0 31.84,1.93 66.34,4.86 34.48,2.89 141.09,-1.97 254.76,64.57 113.66,66.57 172.45,186.06 173.92,291 1.45,104.92 0.47,368.2 0.47,453.7"
         style="fill:#231f20;fill-opacity:1;fill-rule:nonzero;stroke:none"
         id="path124"
         inkscape:connector-curvature="0" /><path
         d="m 2344.24,2459.62 c -46.13,0.91 -126.79,34.02 -130.69,126.3 -3.86,92.29 -4.83,131.17 -4.83,131.17 0,0 -91.34,3.87 -144.77,6.31 -53.43,2.44 -156.91,2.44 -156.91,2.44 0,0 0,-39.83 0,-121.93 0,-82.11 41.31,-201.11 153.51,-290.49 112.21,-89.39 289.52,-125.85 423.11,-96.68 133.59,29.15 245.32,142.33 250.17,291.47 4.87,149.12 -53.91,266.2 -128.23,381.32 -74.33,115.14 -154,187.51 -250.66,289.53 -96.68,102.01 -160.8,173.42 -149.63,267.65 11.18,94.24 98.13,83.56 134.56,49.55 36.44,-33.99 30.59,-104.43 31.09,-128.73 0.49,-24.29 1.48,-29.14 1.48,-29.14 0,0 81.58,-7.28 134.53,-13.6 52.95,-6.31 152.05,-19.91 152.05,-19.91 0,0 -3.88,70.91 -9.71,117.07 -5.82,46.13 -35.94,130.17 -108.83,188.95 -63.84,51.51 -153.97,104.45 -287.56,105.42 -118.05,0.86 -209.38,-42.75 -265.24,-113.66 -55.85,-70.93 -66.63,-141.81 -55.38,-234.64 11.18,-92.3 91.8,-204.59 223.47,-349.27 122.89,-135.05 244.01,-264.57 261.82,-379.39 16.51,-106.4 0.5,-181.21 -73.35,-179.74"
         style="fill:#231f20;fill-opacity:1;fill-rule:nonzero;stroke:none"
         id="path126"
         inkscape:connector-curvature="0" /><path
         d="m 2679.42,3673.09 c 0,0 97.16,-14.09 140.39,-21.86 43.24,-7.78 134.08,-24.77 134.08,-24.77 0,0 122.4,-1012.35 128.73,-1077.45 6.32,-65.08 22.83,-150.12 80.15,-194.8 57.33,-44.69 102.76,-46.86 121.45,-43.72 21.49,3.62 23.8,34.99 23.8,51.49 0,16.52 -4.38,71.89 -8.25,98.63 -3.89,26.72 -157.42,1124.55 -157.42,1124.55 0,0 80.67,-17.97 142.84,-34.97 62.18,-17.01 136.03,-38.38 136.03,-38.38 0,0 174.38,-1022.57 193.8,-1134.77 19.44,-112.23 0.49,-202.09 -39.82,-253.09 -40.33,-51.01 -93.75,-83.06 -190.41,-87.44 -96.69,-4.37 -258.87,52.66 -359.01,122.42 -102.48,71.41 -230.24,204.98 -249.19,425.55 -18.94,220.53 -97.17,1088.61 -97.17,1088.61"
         style="fill:#231f20;fill-opacity:1;fill-rule:nonzero;stroke:none"
         id="path128"
         inkscape:connector-curvature="0" /><path
         d="m 1046.02,3323.09 c 8.74,88.89 26.33,157.84 -68.504,224.42 -102.743,72.14 -274.688,26.96 -378.161,-40.8 -103.492,-67.77 -207.671,-178.53 -207.671,-335.91 0,-157.4 128.98,-260.13 175.601,-309.68 46.637,-49.55 196.738,-174.88 196.738,-323.52 0,-128.98 -63.394,-209.14 -119.503,-241.19 -47.957,-27.42 -136.254,-42.26 -170.497,6.55 -34.257,48.82 -17.484,110.76 -14.585,134.08 2.921,23.3 8.75,55.39 8.75,55.39 0,0 -64.125,-17.5 -115.129,-32.09 -50.993,-14.55 -108.567,-33.52 -108.567,-33.52 0,0 -9.48,-56.09 -16.031,-99.08 -6.551,-42.99 -2.918,-155.19 90.348,-206.95 93.293,-51.72 243.379,-51.02 395.656,37.91 152.316,88.88 272.531,233.88 272.531,394.18 0,160.31 -56.84,290.75 -195.285,418.26 -138.43,127.52 -238.273,206.94 -181.438,347.57 56.84,140.63 191.653,135.54 214.946,107.84 23.336,-27.69 26.258,-56.83 16.051,-126.78 l -2.2,-13.85 c 0,0 52.473,10.21 101.305,19.67 48.809,9.48 105.645,17.5 105.645,17.5"
         style="fill:#ffffff;fill-opacity:1;fill-rule:nonzero;stroke:none"
         id="path130"
         inkscape:connector-curvature="0" /><path
         d="m 1635.51,2941.26 c -0.74,-43.7 -14.59,-83.06 -34.26,-102.01 -19.68,-18.93 -53.93,-30.61 -89.63,-34.24 -35.69,-3.64 -150.1,-14.59 -150.1,-14.59 l 41.55,757.09 c 0,0 98.36,6.56 137.69,10.2 39.37,3.65 80.88,-13.83 93.28,-43.71 12.4,-29.88 13.85,-58.3 13.85,-79.43 0,-21.14 -11.66,-449.58 -12.38,-493.31 z m 116.58,698.07 c -86.72,64.12 -202.58,51.01 -324.25,39.35 -121.69,-11.67 -212.04,-23.32 -212.04,-23.32 L 1102.11,2213.35 c 0,0 57.58,9.47 119.52,17.46 61.93,8.02 107.83,12.38 107.83,12.38 l 22.58,385.48 c 0,0 91.09,10.2 183.63,17.5 92.53,7.28 185.81,60.47 243.38,124.6 57.57,64.1 66.3,167.6 67.04,198.2 0.73,30.59 2.91,452.49 2.91,477.27 0,24.77 -10.2,128.96 -96.91,193.09"
         style="fill:#ffffff;fill-opacity:1;fill-rule:nonzero;stroke:none"
         id="path132"
         inkscape:connector-curvature="0" /><path
         d="m 2415.18,3368.99 c 0,0 52.45,-4.37 99.08,-10.2 46.65,-5.83 106.4,-13.84 106.4,-13.84 0,0 -5.63,72.29 -16.77,114.39 -19.67,74.34 -131.89,228.84 -354.13,228.07 -212.77,-0.73 -279.8,-163.94 -279.06,-265.95 0.52,-74.33 40.79,-175.61 140.62,-289.29 95.07,-108.25 268.86,-292.92 309.69,-374.51 40.79,-81.63 53.18,-136.95 48.8,-197.48 -5.1,-70.68 -22.58,-107.11 -69.95,-131.15 -58.13,-29.53 -159.83,10.94 -201.1,75.02 -34.26,53.22 -27.69,177.82 -27.69,177.82 0,0 -71.41,3.63 -111.48,4.37 -40.07,0.73 -105.67,2.19 -105.67,2.19 0,0 0.6,-67.8 0,-86.7 -1.45,-46.65 32.06,-174.52 134.09,-251.41 106.37,-80.16 256.61,-118.69 359.96,-96.9 120.95,25.49 251.37,104.91 247.01,290.73 -4.7,199.62 -145.75,386.18 -304.6,550.87 -158.83,164.67 -243.5,242.94 -218.58,370.16 13.83,70.68 72.17,90.52 110.03,88.89 118.03,-5.11 126.78,-101.28 128.96,-136.27 2.59,-41.54 4.39,-48.81 4.39,-48.81"
         style="fill:#ffffff;fill-opacity:1;fill-rule:nonzero;stroke:none"
         id="path134"
         inkscape:connector-curvature="0" /><path
         d="m 3350.04,2434.85 c -14.71,114.55 -158.85,1108.29 -158.85,1108.29 0,0 69.96,-17.48 104.9,-26.96 35.01,-9.47 93.29,-26.23 93.29,-26.23 0,0 159.09,-928.58 187.28,-1128.69 29.13,-206.94 -77.34,-266.66 -164.69,-278.36 -114.38,-15.3 -312.59,48.1 -439.37,179.25 -125.07,129.38 -143.55,249.93 -153.75,370.17 -10.21,120.23 -93.27,1004.08 -93.27,1004.08 0,0 71.4,-11.64 98.36,-16.03 26.96,-4.37 98.37,-18.2 98.37,-18.2 0,0 102.8,-897.07 120.24,-1041.27 16.75,-138.45 29.12,-145.05 56.83,-190.19 31.34,-51 114.4,-109.3 190.18,-101.27 67.64,7.15 74.33,57.56 60.48,165.41"
         style="fill:#ffffff;fill-opacity:1;fill-rule:nonzero;stroke:none"
         id="path136"
         inkscape:connector-curvature="0" /><path
         d="m 2155.78,3018.77 c -24.61,27.02 -47.4,52.93 -68.32,77.76 l -30.98,-372.79 c 2.56,-0.12 5.09,-0.22 7.48,-0.32 53.43,-2.44 144.77,-6.3 144.77,-6.3 0,0 0.97,-38.89 4.83,-131.18 2.4,-56.07 33.07,-90.23 67.12,-108.67 l 75.81,301.26 c -50.61,76.59 -125.3,157.37 -200.71,240.24"
         style="fill:#231f20;fill-opacity:1;fill-rule:nonzero;stroke:none"
         id="path138"
         inkscape:connector-curvature="0" /><path
         d="m 3025.79,2158.95 c -45.21,31.51 -95.33,75.12 -138.88,132.97 l -366.8,-481.15 c 17.5,-37.68 69.19,-81.29 100.86,-101.37 l 441.58,426.11 c -12.96,7.58 -25.27,15.41 -36.76,23.44"
         style="fill:#231f20;fill-opacity:1;fill-rule:nonzero;stroke:none"
         id="path140"
         inkscape:connector-curvature="0" /><path
         d="m 770.93,2146.35 0.043,0.04 438.437,-429.63 1.67,1.1 c 47.72,32.79 78.3,75.06 78.3,75.06 l -384.646,470.27 c -36.277,-41.17 -81.746,-82.11 -133.804,-116.84"
         style="fill:#231f20;fill-opacity:1;fill-rule:nonzero;stroke:none"
         id="path142"
         inkscape:connector-curvature="0" /><path
         d="m 1710.32,2663.66 0.25,0.16 77.08,-606.92 c 12,7.38 19.26,13.28 23.09,16.92 l -2.64,-4.21 c 13,9.86 31.2,-7.75 41.13,5.67 l -45.47,667.93 c -25.27,-30.59 -56.42,-57.89 -93.44,-79.55"
         style="fill:#231f20;fill-opacity:1;fill-rule:nonzero;stroke:none"
         id="path144"
         inkscape:connector-curvature="0" /><path
         d="m 2060.56,2313.44 c -27.05,21.55 -49.94,44.83 -69.19,68.89 l -26.99,-522.01 c 19.28,-26.66 63.44,-54.88 93.6,-70.04 l 0.86,-0.43 c -4.56,2.4 -8.89,4.77 -12.95,7.13 l 77.97,475.02 c -22.66,12.21 -43.97,26.01 -63.3,41.44"
         style="fill:#231f20;fill-opacity:1;fill-rule:nonzero;stroke:none"
         id="path146"
         inkscape:connector-curvature="0" /><path
         d="m 2674.21,2338.5 -1.75,-2.32 c -2.11,-2.74 -4.27,-5.47 -6.45,-8.15 l -1.81,-2.16 c -2.16,-2.64 -4.4,-5.22 -6.64,-7.76 l -1.2,-1.33 c -2.25,-2.48 -4.52,-4.94 -6.84,-7.36 l -1.91,-1.97 c -2.42,-2.48 -4.9,-4.94 -7.42,-7.37 l -2.05,-1.93 c -2.59,-2.44 -5.21,-4.84 -7.91,-7.23 l -1.21,-1.03 c -2.47,-2.17 -5.02,-4.32 -7.56,-6.43 l -1.88,-1.5 c -2.73,-2.25 -5.54,-4.41 -8.37,-6.54 l -2.14,-1.59 c -2.89,-2.14 -5.81,-4.25 -8.74,-6.3 l -1.44,-0.98 c -2.82,-1.91 -5.64,-3.75 -8.48,-5.59 l -1.6,-1.05 c -3.09,-1.93 -6.17,-3.79 -9.31,-5.65 l -2.16,-1.23 c -3.13,-1.81 -6.31,-3.59 -9.53,-5.31 l -1.6,-0.82 c -3.1,-1.64 -6.23,-3.22 -9.38,-4.75 l -1.23,-0.6 c -3.21,-1.54 -6.48,-3.03 -9.75,-4.47 l 1.91,0.82 -240.84,-462.5 c 16.48,7.54 28.4,16.21 38.3,24.08 24.78,19.67 36.45,34.98 48.81,53.92 11.06,16.88 237.23,408.54 286.45,493.77 -2.03,-2.91 -4.14,-5.82 -6.27,-8.67"
         style="fill:#231f20;fill-opacity:1;fill-rule:nonzero;stroke:none"
         id="path148"
         inkscape:connector-curvature="0" /><path
         d="M 2726.78,914.219 C 2564.82,460.5 2065.67,224.078 1611.99,385.98 c -453.7,162.008 -690.213,661.12 -528.2,1114.79 161.98,453.76 661.05,690.22 1114.75,528.28 453.75,-162.01 690.19,-661.11 528.24,-1114.831"
         style="fill:#ffffff;fill-opacity:1;fill-rule:nonzero;stroke:none"
         id="path150"
         inkscape:connector-curvature="0" /><path
         d="m 2543.55,709.941 c 6.59,-2.711 14.51,-1.043 24.6,7.661 23.44,20.367 54.75,49.32 83.55,88.847 -61.09,-112.801 -145.6,-207.609 -245.06,-280.308 70.15,70.32 120.32,154.238 136.91,183.8 z M 2285.72,453.5 l -0.14,-0.082 c -75.9,-32.188 -226.17,-56.578 -255.01,-58.77 -14.1,-1.019 -19.42,1.461 -23.68,2.602 -74.51,56.922 -115.7,135.52 -126.01,157.219 11.68,6.242 17.72,14.652 23.38,19.5 13.06,11.011 105.42,94.062 155.12,172.371 7.74,12.101 12.94,20.531 16.26,26.711 54.14,-1.93 227.35,-0.832 384.19,79.469 0.67,-1.098 1.46,-2.239 2.3,-3.45 12.68,-17.031 47.7,-76.281 57.41,-101.558 3.59,-9.383 7.42,-19.114 12.21,-26.43 C 2511.49,684.809 2411.3,515.172 2284.88,455.23 Z M 1872.8,361.871 c -84.79,3.109 -170.55,19.027 -254.56,49 -93.81,33.5 -178.1,81.918 -251.22,141.559 -15.44,21.859 -38.79,55.789 -43.99,68.718 30.36,-0.148 100.19,4.551 207.77,40.84 2.14,-1.386 4.48,-2.738 7.15,-4.019 21.11,-10.731 248.54,-110.43 303.42,-111.52 9.31,-0.148 16.98,0.75 23.5,2.211 9.47,-20.219 48.84,-97.808 123.3,-158.082 -16.12,-10.519 -81.53,-22.808 -115.37,-28.707 z M 1205,739.352 c -17.36,22.007 -32.19,42.648 -44.71,61.269 -7.8,14.098 -15.18,28.457 -22.17,43 l 0.95,0.52 c -66.59,142.769 -40.5,325.029 -33.03,368.269 0.99,0.3 1.98,0.59 3.1,1.12 22.5,10.71 113.25,37.61 133.78,42.71 7.61,1.87 13.98,2.58 19.52,5.29 14.77,-45.54 73.37,-193.64 235.14,-298.94 -0.29,-2.75 -0.54,-5.801 -0.8,-9.129 -1.36,-21.313 7.14,-233.481 12.27,-254.082 2.55,-10.09 4.43,-17.731 8.36,-24.117 -131.52,-43.082 -203.81,-37.114 -209.45,-36.582 -18.78,15.14 -54.27,39.121 -102.96,100.672 z m -133.27,645.568 c -3.06,-65.34 7.65,-116.27 8.54,-129.86 0.84,-14.13 3.18,-31.2 10.4,-39.15 -5.28,-29.05 -19.45,-121.63 -7.42,-224.5 -33.94,125.77 -39.38,260.27 -11.52,393.51 z m 301.04,490.09 c -43.85,-42.5 -88.99,-95.44 -116.49,-153.1 -23.84,-20.34 -63.2,-56.88 -98.63,-103.12 54.98,100.89 128.67,187.25 215.12,256.22 z m 181.33,110.94 c 55.61,18.3 138.25,43.35 186.28,47.54 45.3,3.95 72.57,4.12 87.42,3.59 l -0.12,-0.38 c 0.78,-0.32 78.1,-36.85 136.85,-125.49 -11.29,-5.22 -23.9,-13.53 -34.35,-23.48 -18.95,-18.19 -89.34,-92.95 -112.27,-122.22 -14.97,-19.16 -28.87,-42.58 -36.7,-56.6 -194.79,9.33 -354.67,-71.63 -394.4,-93.73 -1.03,2.15 -2.39,4.26 -4.2,6.23 -21.17,23.44 -82.33,100.58 -100.62,115.85 63.44,111.26 191.58,203.58 217.94,221.9 17.71,9.58 35.78,18.51 54.17,26.79 z m -267.24,-676.72 c 12.2,51.84 78.38,237.24 88.1,255.59 5.4,10.26 11.57,21.52 13.59,32.34 22.05,12.94 186.17,104.37 389.68,95.36 17.35,-20.64 93.23,-110.52 112.51,-133.91 17.9,-21.92 69.12,-93.96 90.99,-120.06 -17.59,-61.38 -86.3,-294.28 -137.57,-380.52 -55.8,-1.04 -310.35,-68.382 -326.22,-71.561 -7.52,-1.489 -12.29,-4.051 -15.39,-8.289 -167.17,110.62 -219.32,267.45 -227.65,296.13 4.11,7.27 7.94,18.19 11.96,34.92 z m 587.91,751.17 c 1.07,0.37 2.11,0.67 3.18,1.08 103.33,3.28 208.93,-12.33 312.01,-49.13 105.71,-37.75 199.3,-94.43 278.38,-164.76 3.73,-5.26 7.07,-10.5 9.56,-15.32 -31.97,4.19 -113.68,9.77 -193.93,-27.52 l 0.01,-0.1 c -19.8,13.11 -63.25,35.94 -141.29,66.47 -90.38,35.41 -143.14,44.86 -155.13,46.13 -1.94,0.13 -4.23,-0.06 -6.76,-0.5 -46.83,72.28 -104.61,111.68 -131.37,127.22 5.27,5.35 13.69,12.09 25.34,16.43 z m 121.08,-631.35 c 22.46,2.25 112.28,26.42 160.54,34.71 47.38,8.05 141.64,29.24 167.47,38.19 21.96,-14.87 158.32,-112.86 234.12,-290.26 l 0.57,0.29 c -2.99,-5.68 -5.19,-13.36 -6.49,-23.7 -3.31,-26.86 -18.97,-105.5 -29.82,-135.99 0,0 -41.11,-141.29 -51.79,-162.552 -4.77,-9.527 -9.52,-15.277 -12.13,-20.308 -151.66,-79.75 -321.02,-82.551 -378.25,-80.801 -0.94,4.461 -4.56,8.191 -9.18,16.07 -10.95,18.43 -165.17,216.331 -210.87,248.531 51.32,89.16 116.22,307.78 135.83,375.82 z m 530.74,354.93 c 18.46,-18.68 42.03,-44.85 64.26,-71.72 10.44,-14.23 20.36,-28.86 29.8,-43.69 l -1.48,-1.18 c 92.02,-126.49 89.49,-373.78 87.82,-426.22 -3.32,-0.42 -7.13,-1.19 -11.6,-1.1 -18.56,0.42 -104.37,-12.6 -117.42,-14.27 -2.84,-0.35 -5.55,-1.05 -8.11,-2.23 -77.06,175.84 -211.97,274.13 -236.72,291.06 3.81,29.04 -0.7,112.5 -6.02,156.49 -5.48,45.31 -17.08,99.82 -29.63,120.88 83.2,35.82 168.59,24.5 186.94,21.46 3.1,-4.86 10.01,2.91 42.16,-29.48 z m 223.2,-660.77 c -0.55,23.24 -3.49,45.9 -9.89,66.68 -7.25,23.5 -12.61,36.47 -17.48,43.57 1.08,21.91 5.69,149.42 -21.53,273.57 44.86,-120.7 62.65,-251.8 48.9,-383.82 z m -551.61,909.91 c -449.73,160.55 -956.72,-74.22 -1117.27,-523.9 -160.523,-449.7 75.17,-964.45 524.85,-1125.001 449.66,-160.539 966.82,81.73 1127.33,531.429 160.54,449.692 -85.24,956.952 -534.91,1117.472"
         style="fill:#231f20;fill-opacity:1;fill-rule:nonzero;stroke:none"
         id="path152"
         inkscape:connector-curvature="0" /><path
         d="m 1806.62,1710.77 c 0,0 167.88,-210.2 181.21,-234.48 13.27,-24.29 270.72,31.39 305.57,43.38 34.75,11.94 1.64,242.55 -13.6,261.42 -15.26,18.87 -249.58,118.41 -289.92,118.12 -40.37,-0.2 -139.61,-117.43 -183.26,-188.44"
         style="fill:#231f20;fill-opacity:1;fill-rule:nonzero;stroke:none"
         id="path154"
         inkscape:connector-curvature="0" /><path
         d="m 1100.84,1237.58 c 0,0 -27.65,101.75 8.08,212.81 35.66,111.11 48.32,146.45 104.18,202.4 55.91,55.86 72.38,46.03 72.38,46.03 0,0 83.73,-89.79 79.94,-100.41 -3.79,-10.62 -107.71,-312.96 -107.71,-312.96 0,0 -140.2,-45.86 -156.87,-47.87"
         style="fill:#231f20;fill-opacity:1;fill-rule:nonzero;stroke:none"
         id="path156"
         inkscape:connector-curvature="0" /><path
         d="m 2241.09,3511.52 -0.26,0.43 c -17.67,-10.57 -31.43,-30.82 -35.43,-64.61 -3.99,-33.83 1.74,-64.72 15.18,-95.16 l 20.51,159.34"
         style="fill:#231f20;fill-opacity:1;fill-rule:nonzero;stroke:none"
         id="path158"
         inkscape:connector-curvature="0" /><path
         d="m 2282.43,3259.36 1.74,-2.08 c 1.33,-1.54 2.67,-3.09 3.98,-4.65 l 1.43,-1.68 0.96,-1.09 v 0.01 c 1.45,-1.68 2.9,-3.36 4.38,-5.05 l 42.95,253.91 c -1.65,1.42 -3.42,2.79 -5.25,4.13 l 0.02,0.07 -2.02,1.37 -0.59,0.41 c -1.17,0.77 -2.35,1.55 -3.57,2.29 l -0.7,0.42 c -1.22,0.72 -2.45,1.42 -3.72,2.11 l -0.7,0.38 c -1.31,0.67 -2.59,1.33 -3.92,1.96 l -0.13,0.06 -0.07,-0.08 -39.37,-247.01 1.1,-1.32 c 1.15,-1.38 2.32,-2.77 3.48,-4.16"
         style="fill:#231f20;fill-opacity:1;fill-rule:nonzero;stroke:none"
         id="path160"
         inkscape:connector-curvature="0" /><path
         d="m 792.922,3263.18 c 0.777,6.13 1.695,13.26 2.637,20.84 l 0.046,0.32 c 0.333,2.64 0.657,5.36 0.989,8.1 l -0.071,0.15 -0.007,-0.12 -55.571,112.37 -2.007,-0.64 c -1.399,-0.45 -2.825,-0.94 -4.243,-1.45 -1.148,-0.41 -2.3,-0.86 -3.472,-1.32 l -1.692,-0.63 0.032,-0.05 c -1.633,-0.66 -3.254,-1.27 -4.895,-1.99 l 68.254,-135.58"
         style="fill:#231f20;fill-opacity:1;fill-rule:nonzero;stroke:none"
         id="path162"
         inkscape:connector-curvature="0" /></g></g></svg>