<?xml version="1.0" encoding="UTF-8" standalone="no"?>
<!-- Created with Inkscape (http://www.inkscape.org/) -->

<svg
   xmlns:dc="http://purl.org/dc/elements/1.1/"
   xmlns:cc="http://creativecommons.org/ns#"
   xmlns:rdf="http://www.w3.org/1999/02/22-rdf-syntax-ns#"
   xmlns:svg="http://www.w3.org/2000/svg"
   xmlns="http://www.w3.org/2000/svg"
   xmlns:sodipodi="http://sodipodi.sourceforge.net/DTD/sodipodi-0.dtd"
   xmlns:inkscape="http://www.inkscape.org/namespaces/inkscape"
   version="1.1"
   id="svg2"
   xml:space="preserve"
   width="294.54666"
   height="48.546665"
   viewBox="0 0 294.54666 48.546665"
   sodipodi:docname="SPSU_HORIZ_REV.svg"
   inkscape:version="0.92.1 r15371"><metadata
     id="metadata8"><rdf:RDF><cc:Work
         rdf:about=""><dc:format>image/svg+xml</dc:format><dc:type
           rdf:resource="http://purl.org/dc/dcmitype/StillImage" /><dc:title /></cc:Work></rdf:RDF></metadata><defs
     id="defs6" /><sodipodi:namedview
     pagecolor="#ffffff"
     bordercolor="#666666"
     borderopacity="1"
     objecttolerance="10"
     gridtolerance="10"
     guidetolerance="10"
     inkscape:pageopacity="0"
     inkscape:pageshadow="2"
     inkscape:window-width="1440"
     inkscape:window-height="843"
     id="namedview4"
     showgrid="false"
     inkscape:zoom="3.7450317"
     inkscape:cx="80.915267"
     inkscape:cy="14.117256"
     inkscape:window-x="0"
     inkscape:window-y="31"
     inkscape:window-maximized="1"
     inkscape:current-layer="g10"
     inkscape:pagecheckerboard="true" /><g
     id="g10"
     inkscape:groupmode="layer"
     inkscape:label="ink_ext_XXXXXX"
     transform="matrix(1.3333333,0,0,-1.3333333,0,48.546667)"><g
       id="g12"
       transform="scale(0.1)"><path
         d="m 411.73,189.77 c -16.789,0 -29.535,3.582 -40.414,14.605 l 13.993,13.992 c 6.992,-6.988 16.468,-9.324 26.734,-9.324 12.742,0 19.582,4.816 19.582,13.672 0,3.887 -1.094,7.148 -3.426,9.324 -2.176,2.024 -4.66,3.117 -9.793,3.891 l -13.363,1.859 c -9.477,1.406 -16.469,4.359 -21.438,9.168 -5.289,5.289 -7.937,12.438 -7.937,21.766 0,19.734 14.613,33.562 38.543,33.562 15.23,0 26.269,-3.719 35.75,-12.898 l -13.676,-13.516 c -7,6.68 -15.387,7.609 -22.687,7.609 -11.508,0 -17.098,-6.371 -17.098,-13.984 0,-2.801 0.934,-5.75 3.262,-7.93 2.176,-2.019 5.75,-3.722 10.258,-4.347 l 13.05,-1.871 c 10.106,-1.395 16.477,-4.196 21.133,-8.539 5.914,-5.598 8.555,-13.68 8.555,-23.469 0,-21.445 -17.875,-33.57 -41.028,-33.57"
         style="fill:#ffffff;fill-opacity:1;fill-rule:nonzero;stroke:none"
         id="path14"
         inkscape:connector-curvature="0" /><path
         d="m 524.102,277.109 c -3.106,3.579 -7.918,5.903 -13.832,5.903 -5.907,0 -10.883,-2.324 -13.985,-5.903 -4.199,-4.656 -5.285,-9.789 -5.285,-31.074 0,-21.301 1.086,-26.422 5.285,-31.086 3.102,-3.57 8.078,-5.906 13.985,-5.906 5.914,0 10.726,2.336 13.832,5.906 4.199,4.664 5.441,9.785 5.441,31.086 0,21.285 -1.242,26.418 -5.441,31.074 z m 16.003,-75.214 c -7.765,-7.778 -17.246,-12.125 -29.835,-12.125 -12.582,0 -22.223,4.347 -29.993,12.125 -11.183,11.187 -10.882,25.019 -10.882,44.14 0,19.106 -0.301,32.945 10.882,44.125 7.77,7.781 17.411,12.125 29.993,12.125 12.589,0 22.07,-4.344 29.835,-12.125 11.196,-11.18 11.043,-25.019 11.043,-44.125 0,-19.121 0.153,-32.953 -11.043,-44.14"
         style="fill:#ffffff;fill-opacity:1;fill-rule:nonzero;stroke:none"
         id="path16"
         inkscape:connector-curvature="0" /><path
         d="m 612.242,189.77 c -22.691,0 -40.726,15.386 -40.726,38.847 v 72.735 h 21.609 v -71.95 c 0,-12.746 7.457,-20.359 19.117,-20.359 11.649,0 19.262,7.613 19.262,20.359 v 71.95 h 21.449 v -72.735 c 0,-23.461 -18.019,-38.847 -40.711,-38.847"
         style="fill:#ffffff;fill-opacity:1;fill-rule:nonzero;stroke:none"
         id="path18"
         inkscape:connector-curvature="0" /><path
         d="m 719.332,282.086 v -91.383 h -21.598 v 91.383 h -28.918 v 19.266 h 79.414 v -19.266 h -28.898"
         style="fill:#ffffff;fill-opacity:1;fill-rule:nonzero;stroke:none"
         id="path20"
         inkscape:connector-curvature="0" /><path
         d="m 824.871,190.703 v 46.32 h -37.453 v -46.32 h -21.602 v 110.649 h 21.602 v -45.219 h 37.453 v 45.219 h 21.606 V 190.703 h -21.606"
         style="fill:#ffffff;fill-opacity:1;fill-rule:nonzero;stroke:none"
         id="path22"
         inkscape:connector-curvature="0" /><path
         d="m 867.324,190.703 v 110.649 h 72.895 v -19.266 h -51.293 v -25.953 h 43.672 v -19.278 h -43.672 v -26.882 h 51.293 v -19.27 h -72.895"
         style="fill:#ffffff;fill-opacity:1;fill-rule:nonzero;stroke:none"
         id="path24"
         inkscape:connector-curvature="0" /><path
         d="m 1003.33,282.086 h -20.361 v -29.227 h 20.361 c 9.47,0 15.69,6.067 15.69,14.618 0,8.55 -6.22,14.609 -15.69,14.609 z m 16.78,-91.383 -21.598,44.137 h -15.543 v -44.137 h -21.602 v 110.649 h 43.363 c 22.53,0 35.9,-15.379 35.9,-33.875 0,-15.543 -9.49,-25.172 -20.21,-29.063 l 24.71,-47.711 h -25.02"
         style="fill:#ffffff;fill-opacity:1;fill-rule:nonzero;stroke:none"
         id="path26"
         inkscape:connector-curvature="0" /><path
         d="m 1128.45,190.703 -43.83,67.914 v -67.914 h -21.6 v 110.649 h 19.27 l 43.82,-67.762 v 67.762 h 21.6 V 190.703 h -19.26"
         style="fill:#ffffff;fill-opacity:1;fill-rule:nonzero;stroke:none"
         id="path28"
         inkscape:connector-curvature="0" /><path
         d="m 1270.16,282.086 h -20.22 v -30.313 h 20.22 c 9.78,0 15.99,6.071 15.99,15.079 0,9.011 -6.21,15.234 -15.99,15.234 z m 1.08,-49.731 h -21.3 v -41.652 h -21.6 v 110.649 h 42.9 c 22.84,0 36.51,-15.692 36.51,-34.5 0,-18.805 -13.67,-34.497 -36.51,-34.497"
         style="fill:#ffffff;fill-opacity:1;fill-rule:nonzero;stroke:none"
         id="path30"
         inkscape:connector-curvature="0" /><path
         d="m 1376.93,277.105 c -3.1,3.583 -7.93,5.907 -13.82,5.907 -5.92,0 -10.88,-2.324 -13.99,-5.907 -4.2,-4.652 -5.29,-9.785 -5.29,-31.07 0,-21.301 1.09,-26.422 5.29,-31.09 3.11,-3.566 8.07,-5.902 13.99,-5.902 5.89,0 10.72,2.336 13.82,5.902 4.2,4.668 5.44,9.789 5.44,31.09 0,21.285 -1.24,26.418 -5.44,31.07 z m 16.01,-75.21 c -7.77,-7.778 -17.26,-12.125 -29.83,-12.125 -12.6,0 -22.23,4.347 -30,12.125 -11.2,11.179 -10.88,25.019 -10.88,44.14 0,19.106 -0.32,32.945 10.88,44.125 7.77,7.781 17.4,12.125 30,12.125 12.57,0 22.06,-4.344 29.83,-12.125 11.18,-11.18 11.03,-25.019 11.03,-44.125 0,-19.121 0.15,-32.961 -11.03,-44.14"
         style="fill:#ffffff;fill-opacity:1;fill-rule:nonzero;stroke:none"
         id="path32"
         inkscape:connector-curvature="0" /><path
         d="m 1426.05,190.703 v 110.649 h 21.61 v -91.379 h 50.2 v -19.27 h -71.81"
         style="fill:#ffffff;fill-opacity:1;fill-rule:nonzero;stroke:none"
         id="path34"
         inkscape:connector-curvature="0" /><path
         d="m 1545.25,236.086 v -45.383 h -21.44 v 45.383 l -33.25,65.266 h 23.46 l 20.67,-44.606 20.36,44.606 h 23.47 l -33.27,-65.266"
         style="fill:#ffffff;fill-opacity:1;fill-rule:nonzero;stroke:none"
         id="path36"
         inkscape:connector-curvature="0" /><path
         d="m 1634.17,282.082 v -91.379 h -21.61 v 91.379 h -28.91 v 19.27 h 79.42 v -19.27 h -28.9"
         style="fill:#ffffff;fill-opacity:1;fill-rule:nonzero;stroke:none"
         id="path38"
         inkscape:connector-curvature="0" /><path
         d="m 1680.64,190.703 v 110.649 h 72.9 v -19.27 h -51.28 v -25.949 h 43.66 v -19.278 h -43.66 v -26.882 h 51.28 v -19.27 h -72.9"
         style="fill:#ffffff;fill-opacity:1;fill-rule:nonzero;stroke:none"
         id="path40"
         inkscape:connector-curvature="0" /><path
         d="m 1811.68,189.77 c -11.82,0 -21.77,4.039 -29.84,12.125 -4.83,4.816 -7.79,10.41 -9.02,16.628 -1.24,6.211 -1.86,15.379 -1.86,27.512 0,12.117 0.62,21.285 1.86,27.496 1.23,6.375 4.19,11.817 9.02,16.629 8.07,8.086 18.02,12.125 29.84,12.125 21.28,0 36.97,-12.43 40.71,-34.965 h -21.92 c -2.33,9.481 -8.23,15.692 -18.65,15.692 -5.9,0 -10.56,-1.867 -13.83,-5.75 -4.5,-4.809 -5.43,-9.785 -5.43,-31.227 0,-21.457 0.93,-26.426 5.43,-31.238 3.27,-3.891 7.93,-5.754 13.83,-5.754 10.42,0 16.32,6.211 18.65,15.691 h 21.92 c -3.74,-22.531 -19.58,-34.964 -40.71,-34.964"
         style="fill:#ffffff;fill-opacity:1;fill-rule:nonzero;stroke:none"
         id="path42"
         inkscape:connector-curvature="0" /><path
         d="m 1926.05,190.703 v 46.32 h -37.45 v -46.32 H 1867 v 110.649 h 21.6 v -45.219 h 37.45 v 45.219 h 21.61 V 190.703 h -21.61"
         style="fill:#ffffff;fill-opacity:1;fill-rule:nonzero;stroke:none"
         id="path44"
         inkscape:connector-curvature="0" /><path
         d="m 2038.9,190.703 -43.83,67.914 v -67.914 h -21.59 v 110.649 h 19.27 l 43.82,-67.766 v 67.766 h 21.6 V 190.703 h -19.27"
         style="fill:#ffffff;fill-opacity:1;fill-rule:nonzero;stroke:none"
         id="path46"
         inkscape:connector-curvature="0" /><path
         d="m 2083.98,190.703 v 110.649 h 21.62 V 190.703 h -21.62"
         style="fill:#ffffff;fill-opacity:1;fill-rule:nonzero;stroke:none"
         id="path48"
         inkscape:connector-curvature="0" /><path
         d="m 2168.38,189.77 c -11.8,0 -21.76,4.039 -29.84,12.125 -4.82,4.816 -7.77,10.41 -9,16.628 -1.25,6.211 -1.87,15.379 -1.87,27.512 0,12.117 0.62,21.285 1.87,27.496 1.23,6.375 4.18,11.817 9,16.629 8.08,8.086 18.04,12.125 29.84,12.125 21.3,0 36.98,-12.43 40.72,-34.965 h -21.91 c -2.34,9.481 -8.24,15.692 -18.65,15.692 -5.9,0 -10.57,-1.867 -13.83,-5.75 -4.5,-4.809 -5.44,-9.785 -5.44,-31.227 0,-21.457 0.94,-26.426 5.44,-31.238 3.26,-3.891 7.93,-5.758 13.83,-5.758 10.41,0 16.31,6.215 18.65,15.695 h 21.91 c -3.74,-22.531 -19.58,-34.964 -40.72,-34.964"
         style="fill:#ffffff;fill-opacity:1;fill-rule:nonzero;stroke:none"
         id="path50"
         inkscape:connector-curvature="0" /><path
         d="m 408.918,57.7148 c -15.383,0 -26.457,3.6016 -36.238,13.5235 l 10.351,10.207 c 7.477,-7.4805 15.676,-9.7734 26.172,-9.7734 13.375,0 21.141,5.75 21.141,15.6719 0,4.4531 -1.289,8.2031 -4.031,10.6367 -2.583,2.4495 -5.168,3.4575 -11.215,4.3165 l -12.078,1.726 c -8.332,1.153 -14.954,4.024 -19.411,8.184 -5.031,4.758 -7.476,11.223 -7.476,19.563 0,17.832 12.945,30.046 34.222,30.046 13.516,0 23.004,-3.437 31.778,-11.64 l -9.922,-9.778 c -6.328,6.028 -13.66,7.915 -22.285,7.915 -12.078,0 -18.692,-6.907 -18.692,-15.958 0,-3.742 1.149,-7.062 3.879,-9.503 2.59,-2.305 6.758,-4.024 11.504,-4.739 l 11.645,-1.726 c 9.488,-1.446 14.808,-3.739 19.125,-7.617 5.605,-4.891 8.34,-12.227 8.34,-20.9966 0,-18.8359 -15.383,-30.0586 -36.809,-30.0586"
         style="fill:#ffffff;fill-opacity:1;fill-rule:nonzero;stroke:none"
         id="path52"
         inkscape:connector-curvature="0" /><path
         d="M 501.223,147.012 V 58.5938 h -15.532 v 88.4182 h -28.179 v 13.945 h 71.898 v -13.945 h -28.187"
         style="fill:#ffffff;fill-opacity:1;fill-rule:nonzero;stroke:none"
         id="path54"
         inkscape:connector-curvature="0" /><path
         d="M 570.367,137.813 554.41,92.3711 h 31.488 z m 26.891,-79.2192 -7.043,20.5468 h -40.406 l -7.043,-20.5468 h -16.539 l 37.527,102.3632 h 12.512 L 613.801,58.5938 h -16.543"
         style="fill:#ffffff;fill-opacity:1;fill-rule:nonzero;stroke:none"
         id="path56"
         inkscape:connector-curvature="0" /><path
         d="M 654.324,147.012 V 58.5938 h -15.523 v 88.4182 h -28.18 v 13.945 h 71.895 v -13.945 h -28.192"
         style="fill:#ffffff;fill-opacity:1;fill-rule:nonzero;stroke:none"
         id="path58"
         inkscape:connector-curvature="0" /><path
         d="M 700.191,58.5938 V 160.957 h 65.422 v -13.945 h -49.894 v -29.903 h 42.558 V 103.301 H 715.719 V 72.5391 h 49.894 V 58.5938 h -65.422"
         style="fill:#ffffff;fill-opacity:1;fill-rule:nonzero;stroke:none"
         id="path60"
         inkscape:connector-curvature="0" /><path
         d="m 874.418,57.7148 c -20.844,0 -36.66,14.2383 -36.66,35.3907 v 67.8515 h 15.523 V 93.8086 c 0,-13.6602 8.344,-22.1367 21.137,-22.1367 12.801,0 21.285,8.4765 21.285,22.1367 V 160.957 H 911.23 V 93.1055 c 0,-21.1524 -15.957,-35.3907 -36.812,-35.3907"
         style="fill:#ffffff;fill-opacity:1;fill-rule:nonzero;stroke:none"
         id="path62"
         inkscape:connector-curvature="0" /><path
         d="M 999.219,58.5938 951.914,130.605 V 58.5938 H 936.387 V 160.957 h 14.234 l 47.305,-71.8945 v 71.8945 h 15.534 V 58.5938 h -14.241"
         style="fill:#ffffff;fill-opacity:1;fill-rule:nonzero;stroke:none"
         id="path64"
         inkscape:connector-curvature="0" /><path
         d="M 1040.19,58.5938 V 160.957 h 15.53 V 58.5938 h -15.53"
         style="fill:#ffffff;fill-opacity:1;fill-rule:nonzero;stroke:none"
         id="path66"
         inkscape:connector-curvature="0" /><path
         d="m 1115.53,58.5938 h -12.08 L 1069.8,160.957 h 16.11 l 23.58,-74.4726 23.58,74.4726 h 16.39 L 1115.53,58.5938"
         style="fill:#ffffff;fill-opacity:1;fill-rule:nonzero;stroke:none"
         id="path68"
         inkscape:connector-curvature="0" /><path
         d="M 1163.55,58.5938 V 160.957 h 65.42 v -13.945 h -49.89 v -29.903 h 42.56 v -13.808 h -42.56 V 72.5391 h 49.89 V 58.5938 h -65.42"
         style="fill:#ffffff;fill-opacity:1;fill-rule:nonzero;stroke:none"
         id="path70"
         inkscape:connector-curvature="0" /><path
         d="m 1288.78,147.012 h -23 v -32.071 h 23 c 10.36,0 17.4,5.899 17.4,15.957 0,10.079 -7.04,16.114 -17.4,16.114 z m 17.98,-88.4182 -21.57,43.1252 h -19.41 V 58.5938 h -15.53 V 160.957 h 39.68 c 19.42,0 31.79,-12.512 31.79,-29.902 0,-14.668 -8.93,-24.024 -20.43,-27.176 l 23.58,-45.2852 h -18.11"
         style="fill:#ffffff;fill-opacity:1;fill-rule:nonzero;stroke:none"
         id="path72"
         inkscape:connector-curvature="0" /><path
         d="m 1371.6,57.7148 c -15.39,0 -26.46,3.6016 -36.24,13.5235 l 10.36,10.207 c 7.47,-7.4805 15.67,-9.7734 26.17,-9.7734 13.36,0 21.14,5.75 21.14,15.6719 0,4.4531 -1.3,8.2031 -4.04,10.6367 -2.58,2.4495 -5.17,3.4575 -11.21,4.3165 l -12.08,1.726 c -8.34,1.153 -14.95,4.024 -19.4,8.184 -5.05,4.758 -7.49,11.223 -7.49,19.563 0,17.82 12.95,30.046 34.23,30.046 13.51,0 23,-3.437 31.76,-11.64 l -9.91,-9.778 c -6.32,6.028 -13.66,7.915 -22.28,7.915 -12.08,0 -18.7,-6.907 -18.7,-15.958 0,-3.742 1.15,-7.062 3.88,-9.503 2.59,-2.305 6.76,-4.024 11.51,-4.747 l 11.64,-1.718 c 9.49,-1.446 14.82,-3.739 19.13,-7.617 5.6,-4.891 8.34,-12.227 8.34,-20.9966 0,-18.8359 -15.38,-30.0586 -36.81,-30.0586"
         style="fill:#ffffff;fill-opacity:1;fill-rule:nonzero;stroke:none"
         id="path74"
         inkscape:connector-curvature="0" /><path
         d="M 1429.25,58.5938 V 160.957 h 15.54 V 58.5938 h -15.54"
         style="fill:#ffffff;fill-opacity:1;fill-rule:nonzero;stroke:none"
         id="path76"
         inkscape:connector-curvature="0" /><path
         d="M 1506.17,147.012 V 58.5938 h -15.53 v 88.4182 h -28.18 v 13.945 h 71.9 v -13.945 h -28.19"
         style="fill:#ffffff;fill-opacity:1;fill-rule:nonzero;stroke:none"
         id="path78"
         inkscape:connector-curvature="0" /><path
         d="M 1585.54,100.715 V 58.5938 H 1570 v 42.1212 l -30.62,60.242 h 16.97 l 21.42,-45 21.43,45 h 16.97 l -30.63,-60.242"
         style="fill:#ffffff;fill-opacity:1;fill-rule:nonzero;stroke:none"
         id="path80"
         inkscape:connector-curvature="0" /><path
         d="m 161.23,2.48828 c -4.183,0 -8.121,0.95703 -11.101,2.6875 L 13.6289,84.0156 C 7.38672,87.5977 2.5,96.0469 2.5,103.242 v 157.613 c 0,7.211 4.88672,15.665 11.1484,19.247 l 136.4536,78.8 c 3.007,1.727 6.945,2.676 11.128,2.676 4.184,0 8.122,-0.949 11.129,-2.676 l 136.454,-78.8 c 6.246,-3.582 11.128,-12.036 11.128,-19.247 V 103.242 c 0,-7.2186 -4.882,-15.6639 -11.148,-19.2264 L 172.359,5.17578 c -3.007,-1.73047 -6.945,-2.6875 -11.129,-2.6875 v 0"
         style="fill:#000000;fill-opacity:1;fill-rule:nonzero;stroke:none"
         id="path82"
         inkscape:connector-curvature="0" /><path
         d="m 161.23,364.086 c -4.609,0 -9.003,-1.078 -12.378,-3.031 L 12.3789,282.266 C 5.44531,278.293 0,268.887 0,260.859 V 103.242 C 0,95.2344 5.4375,85.8398 12.3828,81.8359 L 148.863,3.01953 C 152.234,1.07422 156.625,0 161.23,0 c 4.61,0 9,1.07422 12.364,3.01953 L 310.063,81.8477 c 6.941,3.9726 12.378,13.3789 12.378,21.3943 v 157.617 c 0,8.028 -5.445,17.434 -12.39,21.418 l -136.457,78.782 c -3.356,1.949 -7.75,3.027 -12.364,3.027 z m 0,-5 c 3.579,0 7.161,-0.785 9.864,-2.356 l 136.469,-78.796 c 5.445,-3.118 9.878,-10.805 9.878,-17.075 V 103.242 c 0,-6.2498 -4.433,-13.9451 -9.878,-17.0701 L 171.094,7.34375 C 168.391,5.78125 164.809,5 161.23,5 c -3.578,0 -7.16,0.78125 -9.867,2.34375 L 14.8789,86.1719 C 9.43359,89.3086 5,96.9922 5,103.242 v 157.617 c 0,6.27 4.43359,13.957 9.8789,17.075 L 151.363,356.73 c 2.707,1.571 6.289,2.356 9.867,2.356"
         style="fill:#ffffff;fill-opacity:1;fill-rule:nonzero;stroke:none"
         id="path84"
         inkscape:connector-curvature="0" /><path
         d="m 137.613,174.602 c 0,-8.789 0,-15.317 -10.773,-15.317 h -11.035 v 76.266 h 11.035 c 10.773,0 10.773,-8.512 10.773,-20.125 V 174.602 Z M 126.84,250.004 H 98.5156 v -138.91 h 17.2894 v 33.457 h 11.035 c 28.066,0 28.066,22.383 28.066,31.183 v 43.09 c 0,7.934 0,31.18 -28.066,31.18 v 0 0"
         style="fill:#ffffff;fill-opacity:1;fill-rule:nonzero;stroke:none"
         id="path86"
         inkscape:connector-curvature="0" /><path
         d="m 206.859,183.516 c -13.605,18.422 -21.484,24.375 -21.484,36.281 0,9.351 3.906,15.312 11.273,15.312 6.528,0 9.747,-5.675 9.747,-12.48 v -6.262 h 17.585 v 7.113 c 0,13.887 -10.32,26.364 -27.332,26.364 -15.593,0 -28.289,-8.778 -28.289,-30.606 0,-17.3 11,-28.078 22.051,-43.105 13.051,-17.285 17.016,-21.824 17.016,-34.57 0,-7.665 -2.27,-16.454 -10.778,-16.454 -9.066,0 -12.753,7.657 -12.753,13.883 v 8.227 h -17.293 v -7.364 c 0,-7.953 4.527,-29.21 30.046,-29.21 15.309,0 28.352,8.789 28.352,31.757 0,17.286 -8.785,28.633 -18.141,41.114 v 0"
         style="fill:#ffffff;fill-opacity:1;fill-rule:nonzero;stroke:none"
         id="path88"
         inkscape:connector-curvature="0" /><path
         d="m 69.0391,183.516 c -13.6094,18.422 -21.4805,24.375 -21.4805,36.281 0,9.351 3.9023,15.312 11.2734,15.312 6.5274,0 9.7578,-5.675 9.7578,-12.48 v -6.262 h 17.5704 v 7.113 c 0,13.887 -10.3164,26.364 -27.3282,26.364 -15.5937,0 -28.2851,-8.778 -28.2851,-30.606 0,-17.3 10.9961,-28.078 22.0469,-43.105 13.0468,-17.285 17.0156,-21.824 17.0156,-34.57 0,-7.665 -2.2696,-16.454 -10.7774,-16.454 -9.0703,0 -12.7578,7.657 -12.7578,13.883 v 8.227 H 28.7813 v -7.364 c 0,-7.953 4.539,-29.21 30.0507,-29.21 15.3086,0 28.3555,8.789 28.3555,31.757 0,17.286 -8.793,28.633 -18.1484,41.114 v 0"
         style="fill:#ffffff;fill-opacity:1;fill-rule:nonzero;stroke:none"
         id="path90"
         inkscape:connector-curvature="0" /><path
         d="M 293.633,144.59 V 249.977 H 276.328 V 144.59 c 0,-10.203 -0.223,-19.082 -10.875,-19.082 -10.644,0 -12.64,8.879 -12.64,19.082 V 249.977 H 235.508 V 144.59 c 0,-9.317 1.328,-33.723 29.945,-33.723 28.844,0 28.18,24.406 28.18,33.723 v 0"
         style="fill:#ffffff;fill-opacity:1;fill-rule:nonzero;stroke:none"
         id="path92"
         inkscape:connector-curvature="0" /></g></g></svg>