<?xml version="1.0" encoding="UTF-8" standalone="no"?>
<!-- Created with Inkscape (http://www.inkscape.org/) -->

<svg
   xmlns:dc="http://purl.org/dc/elements/1.1/"
   xmlns:cc="http://creativecommons.org/ns#"
   xmlns:rdf="http://www.w3.org/1999/02/22-rdf-syntax-ns#"
   xmlns:svg="http://www.w3.org/2000/svg"
   xmlns="http://www.w3.org/2000/svg"
   xmlns:sodipodi="http://sodipodi.sourceforge.net/DTD/sodipodi-0.dtd"
   xmlns:inkscape="http://www.inkscape.org/namespaces/inkscape"
   version="1.1"
   id="svg2"
   xml:space="preserve"
   width="900.90668"
   height="548.54669"
   viewBox="0 0 900.90668 548.54669"
   sodipodi:docname="SPSU Big LINE 2.svg"
   inkscape:version="0.92.1 r15371"><metadata
     id="metadata8"><rdf:RDF><cc:Work
         rdf:about=""><dc:format>image/svg+xml</dc:format><dc:type
           rdf:resource="http://purl.org/dc/dcmitype/StillImage" /><dc:title></dc:title></cc:Work></rdf:RDF></metadata><defs
     id="defs6" /><sodipodi:namedview
     pagecolor="#ffffff"
     bordercolor="#666666"
     borderopacity="1"
     objecttolerance="10"
     gridtolerance="10"
     guidetolerance="10"
     inkscape:pageopacity="0"
     inkscape:pageshadow="2"
     inkscape:window-width="1440"
     inkscape:window-height="843"
     id="namedview4"
     showgrid="false"
     inkscape:zoom="0.43022773"
     inkscape:cx="43.69202"
     inkscape:cy="274.27335"
     inkscape:window-x="0"
     inkscape:window-y="31"
     inkscape:window-maximized="1"
     inkscape:current-layer="g10" /><g
     id="g10"
     inkscape:groupmode="layer"
     inkscape:label="ink_ext_XXXXXX"
     transform="matrix(1.3333333,0,0,-1.3333333,0,548.54667)"><g
       id="g12"
       transform="scale(0.1)"><path
         d="m 4630.82,338.469 c -61.21,71.051 -126.39,177.59 -132.2,321.242 l 426.82,716.819 c 22.76,32.83 42.81,68.7 59.21,107.63 33.62,79.47 51.98,170.83 51.92,272.07 0,6.88 -0.11,13.52 -0.24,19.91 -5.36,222.05 -85.56,429.16 -200.61,619.6 -48.11,79.52 -102.49,156.47 -160.9,231.05 l 204.91,647.91 c 9.42,19.05 13.75,40.45 12.05,62.32 -0.09,1.11 -2.92,37.55 -8.64,85.35 -5.91,48.2 -13.97,106.23 -27.53,158.07 -5.23,19.49 -12.11,39.31 -20.61,59.47 l 33.2,115.24 c 3.8,-40.45 8.38,-89.28 13.57,-144.67 46.24,-492.98 140.71,-1502.47 155.38,-1675.78 10.2,-119.17 24.79,-247.54 71.97,-382.08 42.04,-120.46 111.06,-244.03 220,-366.55 z m -1068.67,94.23 c -27.55,21.031 -57.56,46.121 -82.58,73.981 -36.22,40.211 -62.33,85.562 -63.5,131.672 l 6.5,978.498 c 12.68,-28.85 27.46,-58.33 44.67,-87.93 44.35,-76.06 105.21,-152.82 186.63,-217.16 z M 3481,2173.69 c -7.52,0.18 -14.96,-0.44 -22.26,-1.64 l 9.39,997.6 c 49.6,-105.95 123.9,-217.78 225.47,-333.98 12.49,-14.23 25.66,-29.1 39.32,-44.47 l -51.65,-621.66 c -77.66,1.42 -200.05,4.15 -200.27,4.15 z m 805.55,1118.08 -37.58,-196.64 c -36.59,38.78 -69.07,74.3 -97.22,107.22 l 62.49,369.44 c 6.88,-9.03 12.22,-19.65 17.2,-32.68 9.26,-25.24 12.44,-55.06 13.7,-77.47 2.6,-41.62 4.83,-66.89 6.62,-83.21 1.89,-16.54 2.91,-23.3 5.07,-32.55 5.09,-20.8 15.57,-39.26 29.72,-54.11 z M 4255.71,1651.3 c -25.95,-0.35 -63.5,8.49 -98.83,25.4 l 107.47,481.06 c 5.47,-9.04 9.87,-16.92 13.02,-23.36 32.33,-64.65 53.27,-117.25 65.95,-162.49 12.68,-45.39 17.64,-83.37 17.73,-123.35 -0.02,-11.35 -0.46,-23.01 -1.32,-35.25 -4.15,-60.48 -14.15,-96.31 -23.81,-114.12 -10.09,-17.57 -16.91,-25.82 -46.54,-41.82 -4.99,-2.65 -16.28,-6.11 -33.67,-6.07 z m 1509.87,2008.92 c 7.01,-48.34 20.91,-144.18 39.08,-269.86 40,-276.36 100.68,-696.12 154.02,-1067.58 53.3,-371.07 99.45,-695.43 109.85,-776.41 h 0.01 c 6.84,-53.3 10.55,-97.05 10.49,-129.01 0.04,-21.92 -1.76,-38.18 -3.88,-47.59 -0.64,-2.98 -1.29,-5.27 -1.83,-6.93 -3.07,-0.88 -8.21,-2.04 -15.79,-2.82 -4.81,-0.5 -9.97,-0.75 -15.12,-0.77 -38.99,-0.49 -91.54,16.73 -137.97,46.05 -46.44,28.36 -85.94,69.08 -101.06,94.74 -14.95,24.24 -26.36,41.35 -33.92,54.42 -11.1,19.67 -17.3,31.86 -27.36,69.8 -9.63,37.43 -20.29,98.15 -32.13,196.45 -16.82,138.95 -75.19,644.51 -129.27,1114.51 -10.83,94.12 -21.48,186.76 -31.6,274.87 z M 3265.69,988.109 3191.3,2095.18 c 12.78,12.45 25.25,25.11 37,38.17 43.25,48.63 73.75,101.98 96.01,154.64 l 21.4,-1098.47 c -4.52,-74.42 -35.77,-143.77 -80.02,-201.411 z M 2706.66,324.961 2349.52,1103.34 c 21.19,20.36 35,48.32 36.82,79.42 l 33.86,577.68 312.83,-943.749 z m -548.95,16.41 c -8.08,-13 -17.94,-25.062 -35.15,-43.57 L 1402,1122.96 c 52.73,50.3 101.01,104.59 143.39,162.67 106.72,146.37 176.56,318.97 176.58,505.1 0.17,169.55 -30.59,329.81 -99.68,479.77 -68.91,150.12 -174.76,288.32 -317.96,420.12 -109.22,100.32 -202.41,183.32 -261.76,255.33 -29.8,35.88 -50.984,68.48 -64.086,97.87 -13.101,29.58 -18.953,55.48 -19.082,84.73 0.047,28.51 5.942,61.42 22.789,103.27 29.099,71.09 66.149,109.02 102.729,132.82 11.01,7.12 22.23,12.69 33.32,17.21 l 77.69,-154.39 c -1.66,-13.99 -0.91,-27.92 2.17,-41.28 1.91,-12.11 4.1,-21.62 4.1,-21.62 l 572.76,-1145.51 -69.19,-877.79 c -2.16,-27.27 5.31,-54.05 20.33,-76.3 l -0.27,-3.15 218.04,-317.31 20.35,-26.988 219.74,-322.41 c -10.97,-25.161 -18.16,-40.75 -26.25,-53.731 z M 689.465,1500.69 c 2.39,16.91 5.394,31.53 7.848,50.26 2.484,19.75 6.519,45.63 9.917,65.94 3.395,20.35 6.063,34.97 6.063,35.02 2.094,11.54 2.289,23.1 1.059,34.44 L 936.93,1444.5 c -20.446,-21.25 -41.075,-37.12 -59.047,-47.31 -28.703,-17.28 -86.086,-34.29 -125.914,-33.44 -17.977,-0.09 -31.949,2.88 -38.973,5.79 -7.328,3.18 -7.289,4.12 -8.207,5.11 -13.367,18.89 -19.391,43.74 -19.473,75.63 0,16.52 1.731,33.86 4.149,50.41 z M 1835.95,3273.56 c 0.82,8.58 1.76,17.24 2.69,25.9 l 30.57,-84.78 -13.23,-167.81 -59.48,148.97 c 21.83,19.52 36.42,46.9 39.45,77.72 z m 877.99,-836.47 c -0.64,-0.96 -1.23,-1.8 -1.71,-2.44 -1.06,-1.37 -1.52,-1.77 -1.5,-1.79 -2.67,-2.91 -14.89,-11.48 -33.74,-18.27 -18.76,-7 -43.49,-12.67 -69.1,-15.25 -30.79,-3.13 -92.79,-9.17 -151.64,-14.85 l 58.83,1072.43 z M 6746.13,1435.56 c -27.91,197.97 -118.6,744.29 -202.72,1243.97 -84.03,499.23 -161.24,949.78 -161.24,949.85 -7.76,45.25 -40.99,82.38 -85.11,95.06 -0.33,0.08 -113.26,32.58 -182.81,51.4 -38.79,10.51 -97.43,25.52 -142.23,36.88 -141.79,37.45 -178.62,47.76 -207.69,3.09 -0.37,-0.31 -0.8,-0.51 -1.15,-0.83 -4.62,-4.23 -7.73,-9.74 -9.02,-15.69 l -220.15,-457.82 c -9.34,81.3 -17.98,156.62 -25.56,222.71 -19.23,167.55 -31.66,276.08 -31.7,276.36 -5.94,51.84 -45.14,94.21 -96.37,104.13 -0.78,0.13 -137.88,26.78 -194.55,36 -34.27,5.56 -105.78,17.22 -150.84,24.58 -98.98,18.39 -158.12,31.26 -177.59,-30.54 -0.57,-1.39 -1.08,-2.8 -1.42,-4.27 -0.01,-0.01 -0.02,-0.03 -0.02,-0.04 -1.38,-5.13 -2.47,-9.69 -3.36,-13.81 l -65.28,-226.68 c -3.48,5.5 -6.96,11.01 -10.67,16.57 -58.03,86.29 -145.25,177.03 -265.6,247.38 -120.08,70.29 -273.55,118.63 -455.46,118.46 -0.55,-0.01 -1.72,0 -3.57,-0.02 -117.83,-0.34 -221.19,-23.44 -308.21,-64.12 -130.93,-60.84 -221.37,-160.15 -275.89,-263.52 -42.98,-81.49 -65.74,-165.22 -73.7,-242.82 -1.93,40.76 -10.17,104.92 -37.54,181.82 -31.54,87.93 -90.85,192.06 -198.66,271.79 -64.32,47.68 -135.45,77.92 -207.06,95.43 -71.74,17.59 -144.13,23.16 -215.93,23.2 -97.32,-0.08 -194.16,-10.26 -289.05,-19.29 -238.04,-22.81 -414.47,-45.57 -415.35,-45.7 -32.03,-4.13 -59.84,-20.63 -78.74,-44.49 -8.4,-4.79 -14.28,-13.44 -15.11,-23.54 l -0.11,-1.38 c -5.63,-12.39 -9.2,-25.93 -10.32,-40.16 l -39.36,-499.25 -66.15,180.56 0.06,-0.78 c -3.48,8.58 -7.28,17.15 -11.52,25.68 -32.09,65.16 -85.18,123.25 -156.83,173.3 -97.83,68.49 -212.52,93.02 -323.79,93.04 -198.91,-1.12 -396.596,-74.1 -544.776,-170.05 C 674.133,3669.94 561.84,3574.38 474.57,3449.63 387.402,3325.36 326.477,3169.42 326.746,2989.79 c 0,-186.59 76.965,-338.24 159.926,-450.24 22.004,-29.78 44.551,-57.02 66.59,-81.94 l 480.458,-613.48 c 6.51,-31.02 9.66,-63.63 9.66,-96.63 0.07,-81.9 -19.78,-165.95 -54.618,-233.5 -2.926,-5.11 -5.969,-9.97 -9.035,-14.78 l -266.45,289.52 0.051,0.04 c -0.832,0.9 -1.629,1.84 -2.426,2.8 -1.461,2.32 -3.187,4.5 -5.265,6.37 -0.317,0.29 -0.699,0.44 -1.02,0.71 -11.883,11.34 -35.594,19.22 -131.094,-7.16 -1.457,-0.4 -2.753,-0.78 -4.152,-1.18 -1.906,-0.42 -3.82,-0.66 -5.715,-1.18 -0.254,-0.07 -124.765,-34.03 -224.828,-62.62 -90.351,-25.8 -188.492,-57.69 -210.574,-64.92 -47.1837,-14.45 -66.6329,-17.78 -78.1798,-53.14 -1.2344,-2.38 -2.2031,-4.91 -2.7734,-7.6 C 47.2188,1599.78 0.253906,1381.53 0,1251.24 0,1234.92 0.726563,1219.81 2.60547,1205.95 23.9219,1043.22 104.039,915.719 240.258,843.211 L 1056.5,313.559 1416.21,77.7617 c 69.37,-44.7422 143.58,-72.83201 234.65,-72.58201 25.64,-0.03125 52.59,2.14062 81.16,6.51171 127.22,19.5078 223.85,66.6797 317.41,130.6876 0.56,0.41 1.61,1.07 3.45,2.332 40.18,27.621 74.05,58.25 100.12,84.777 2.37,1.512 4.49,3.344 6.32,5.41 26,27.282 42.54,45.684 56.76,68.551 3.23,5.223 6.21,10.449 9.08,15.832 l 108.57,-143.949 2.22,-3.273 -0.34,0.773 3.48,-4.613 c 6.74,-8.93 17.92,-13.367 28.96,-11.52 0.17,0.031 91.74,15.512 164.72,26.031 72.8,10.52 214.69,27.461 214.9,27.508 9.56,1.133 17.92,6.711 22.62,15.114 3.55,6.359 4.64,13.668 3.23,20.617 l 22.56,459.652 c 36.8,3.731 94.88,9.649 125.79,12.891 48.58,5.07 112.74,14.75 181.49,47.238 27.57,13.039 49.53,25.141 67,35.922 24.77,15.297 40.31,27.758 49.65,36.578 0.68,0.629 1.33,1.301 1.94,2 25.26,19.609 50.23,42.691 70.71,70.289 0.88,1.199 1.67,2.449 2.36,3.742 18.96,21.278 36.63,44.43 52.27,69.289 l -2.26,-339.488 c -0.1,-1.043 -0.15,-2.082 -0.15,-3.141 0.03,-1.851 0.09,-2.851 0.11,-3.261 l -0.13,-18.91 c -0.04,-4.879 1.12,-9.629 3.3,-13.879 10.36,-57.891 42.78,-106.262 78.24,-145.93 43.34,-48.121 95.33,-85.859 131,-111.441 2.42,-1.731 5.05,-3.071 7.8,-4.008 34.28,-24.262 70.42,-45.364 100.5,-60.481 0.66,-0.34 1.04,-0.539 1.11,-0.562 66.54,-34.828 159.1,-68.707 274,-69.629 2.72,-0.008 5.31,-0.008 7.83,-0.008 102.91,-0.051 173.17,16.938 224.27,40.008 0.05,0.031 0.11,0.051 0.16,0.082 0.06,0.019 0.12,0.047 0.17,0.066 0.03,0.012 0.05,0.024 0.07,0.032 l 0.1,0.05 c 0.08,0.039 0.17,0.078 0.25,0.121 0.07,0.02 0.2,0.071 0.46,0.168 0.6,0.27 1.19,0.551 1.76,0.84 34.33,15.832 59.58,34.27 79.35,50 50.45,39.821 76.67,73.93 101.19,111.692 4.6,7.121 18.51,30.699 40.91,68.988 12.15,20.75 26.59,45.512 42.8,73.371 25.1,-115.07 82.45,-203.52 135.83,-265.641 0.85,-1.828 1.9,-3.589 3.15,-5.257 46.91,-62.692 118.39,-121.692 170.37,-155.832 1.41,-1.469 2.98,-2.801 4.69,-3.961 1.49,-0.969 83.54,-57.0277 201.07,-94.3207 C 5031.26,9.17188 5093.6,0 5144.93,0 c 27.5,0 51.83,2.64844 73.24,6.96875 59.76,11.89065 94.79,31.65235 160.17,73.92965 57.36,36.9106 890.79,582.2736 1117.3,730.4926 40.92,20.449 80.97,47.629 117.52,83.839 43.85,43.489 80.91,99.532 105.7,166.11 24.93,66.64 37.96,143.28 37.94,230.05 0,45.11 -3.48,93.06 -10.67,144.17"
         style="fill:#231f20;fill-opacity:1;fill-rule:nonzero;stroke:none"
         id="path14"
         inkscape:connector-curvature="0" /><path
         d="m 1716.52,3285.3 c 16.97,172.5 51.12,306.3 -132.92,435.51 -199.36,139.99 -533.06,52.32 -733.85,-79.18 -200.785,-131.5 -402.988,-346.43 -402.988,-651.85 0,-305.43 250.273,-504.79 340.773,-600.94 90.488,-96.15 381.775,-339.35 381.775,-627.8 0,-250.29 -123.02,-405.83 -231.9,-468.05 -93.058,-53.18 -264.418,-82.01 -330.871,12.75 -66.461,94.72 -33.934,214.9 -28.277,260.16 5.66,45.24 16.965,107.45 16.965,107.45 0,0 -124.426,-33.92 -223.407,-62.21 -98.972,-28.28 -210.683,-65.04 -210.683,-65.04 0,0 -18.383,-108.88 -31.114,-192.31 -12.718,-83.42 -5.652,-301.17 175.344,-401.571 180.988,-100.379 472.266,-98.981 767.793,73.531 295.53,172.5 528.82,453.88 528.82,764.97 0,311.07 -110.29,564.19 -378.94,811.63 -268.653,247.44 -462.38,401.57 -352.083,674.47 110.293,272.9 371.883,263 417.123,209.27 45.25,-53.73 50.91,-110.29 31.11,-246.03 l -4.24,-26.87 c 0,0 101.81,19.79 196.54,38.18 94.74,18.38 205.03,33.93 205.03,33.93"
         style="fill:#ffffff;fill-opacity:1;fill-rule:nonzero;stroke:none"
         id="path16"
         inkscape:connector-curvature="0" /><path
         d="m 2860.43,2544.37 c -1.41,-84.83 -28.28,-161.19 -66.46,-197.95 -38.16,-36.77 -104.63,-59.4 -173.91,-66.46 -69.28,-7.07 -291.29,-28.29 -291.29,-28.29 l 80.61,1469.14 c 0,0 190.88,12.73 267.24,19.79 76.36,7.08 156.95,-26.86 180.99,-84.83 24.04,-57.98 26.86,-113.12 26.86,-154.12 0,-41.01 -22.62,-872.44 -24.04,-957.28 z m 226.24,1354.6 c -168.25,124.43 -393.09,98.98 -629.22,76.35 -236.14,-22.62 -411.47,-45.24 -411.47,-45.24 L 1825.4,1131.81 c 0,0 111.7,18.38 231.89,33.93 120.19,15.54 209.27,24.02 209.27,24.02 l 43.84,748.01 c 0,0 176.74,19.8 356.32,33.94 179.57,14.13 360.57,117.37 472.27,241.79 111.71,124.43 128.68,325.22 130.09,384.6 1.41,59.39 5.65,878.08 5.65,926.17 0,48.08 -19.79,250.27 -188.06,374.7"
         style="fill:#ffffff;fill-opacity:1;fill-rule:nonzero;stroke:none"
         id="path18"
         inkscape:connector-curvature="0" /><path
         d="m 4373.4,3374.38 c 0,0 101.81,-8.49 192.31,-19.79 90.5,-11.32 206.44,-26.86 206.44,-26.86 0,0 -10.9,140.28 -32.53,221.99 -38.17,144.23 -255.92,444.06 -687.19,442.57 -412.87,-1.4 -542.97,-318.15 -541.55,-516.11 1.04,-144.22 79.18,-340.75 272.89,-561.34 184.5,-210.09 521.76,-568.42 600.94,-726.78 79.19,-158.38 103.21,-265.73 94.74,-383.19 -9.9,-137.16 -43.84,-207.87 -135.74,-254.53 -112.81,-57.28 -310.17,21.26 -390.26,145.63 -66.45,103.24 -53.75,345.02 -53.75,345.02 0,0 -138.54,7.07 -216.31,8.5 -77.77,1.4 -205.05,4.23 -205.05,4.23 0,0 1.16,-131.52 0,-168.26 -2.82,-90.51 62.19,-338.66 260.19,-487.83 206.45,-155.55 497.99,-230.35 698.52,-188.05 234.69,49.47 487.81,203.6 479.32,564.17 -9.11,387.4 -282.8,749.41 -591.04,1068.98 -308.25,319.56 -472.55,471.44 -424.19,718.3 26.86,137.16 140.05,175.68 213.51,172.51 229.06,-9.91 246.03,-196.56 250.27,-264.43 5.04,-80.63 8.48,-94.73 8.48,-94.73"
         style="fill:#ffffff;fill-opacity:1;fill-rule:nonzero;stroke:none"
         id="path20"
         inkscape:connector-curvature="0" /><path
         d="m 6187.55,1561.65 c -28.55,222.33 -308.26,2150.67 -308.26,2150.67 0,0 135.76,-33.93 203.61,-52.31 67.89,-18.38 181,-50.9 181,-50.9 0,0 308.71,-1801.92 363.4,-2190.27 56.55,-401.56 -150.07,-517.469 -319.57,-540.149 -221.97,-29.691 -606.59,93.329 -852.62,347.869 -242.69,251.03 -278.56,484.98 -298.37,718.29 -19.78,233.31 -180.97,1948.47 -180.97,1948.47 0,0 138.57,-22.62 190.88,-31.11 52.3,-8.48 190.89,-35.35 190.89,-35.35 0,0 199.45,-1740.77 233.3,-2020.59 32.53,-268.65 56.52,-281.49 110.3,-369.05 60.8,-98.98 222,-212.1 369.05,-196.54 131.25,13.89 144.24,111.7 117.36,320.97"
         style="fill:#ffffff;fill-opacity:1;fill-rule:nonzero;stroke:none"
         id="path22"
         inkscape:connector-curvature="0" /></g></g></svg>