<?xml version="1.0" encoding="UTF-8" standalone="no"?>
<!-- Created with Inkscape (http://www.inkscape.org/) -->

<svg
   xmlns:dc="http://purl.org/dc/elements/1.1/"
   xmlns:cc="http://creativecommons.org/ns#"
   xmlns:rdf="http://www.w3.org/1999/02/22-rdf-syntax-ns#"
   xmlns:svg="http://www.w3.org/2000/svg"
   xmlns="http://www.w3.org/2000/svg"
   xmlns:sodipodi="http://sodipodi.sourceforge.net/DTD/sodipodi-0.dtd"
   xmlns:inkscape="http://www.inkscape.org/namespaces/inkscape"
   version="1.1"
   id="svg2"
   xml:space="preserve"
   width="170.06667"
   height="192.45332"
   viewBox="0 0 170.06667 192.45332"
   sodipodi:docname="Baseball SP BW.svg"
   inkscape:version="0.92.1 r15371"><metadata
     id="metadata8"><rdf:RDF><cc:Work
         rdf:about=""><dc:format>image/svg+xml</dc:format><dc:type
           rdf:resource="http://purl.org/dc/dcmitype/StillImage" /><dc:title></dc:title></cc:Work></rdf:RDF></metadata><defs
     id="defs6" /><sodipodi:namedview
     pagecolor="#ffffff"
     bordercolor="#666666"
     borderopacity="1"
     objecttolerance="10"
     gridtolerance="10"
     guidetolerance="10"
     inkscape:pageopacity="0"
     inkscape:pageshadow="2"
     inkscape:window-width="1440"
     inkscape:window-height="843"
     id="namedview4"
     showgrid="false"
     inkscape:zoom="1.7342096"
     inkscape:cx="99.198189"
     inkscape:cy="88.013769"
     inkscape:window-x="0"
     inkscape:window-y="31"
     inkscape:window-maximized="1"
     inkscape:current-layer="g10" /><g
     id="g10"
     inkscape:groupmode="layer"
     inkscape:label="ink_ext_XXXXXX"
     transform="matrix(1.3333333,0,0,-1.3333333,0,192.45333)"><g
       id="g12"
       transform="scale(0.1)"><path
         d="m 1259.47,864.289 v 175.091 c 0.37,21.64 -16.81,51.46 -35.79,61.91 l -550.141,317.67 c -9.238,5.41 -22.488,8.43 -35.73,8.42 -13.282,0.01 -26.524,-3.01 -35.793,-8.45 L 51.793,1101.29 C 32.8359,1090.84 15.6484,1061.02 16.0195,1039.38 V 721.836 L 1017.6,579.055 l 44.74,-6.379 c 3.95,-0.567 6.89,-3.934 6.89,-7.918 v -56.699 c -0.38,-20.579 -13.06,-42.61 -30.77,-53.184 L 668.492,241.129 c -8.996,-5.117 -19.863,-7.348 -30.703,-7.367 -10.891,0.019 -21.75,2.269 -30.773,7.398 l -72.168,41.68 -297.801,172.035 c -17.707,10.605 -30.43,32.605 -30.793,53.184 v 65.222 H 16.0195 V 404 c -0.3711,-21.59 16.8164,-51.371 35.793,-61.852 L 602.016,24.3516 c 9.269,-5.3633 22.511,-8.3711 35.793,-8.3516 13.242,-0.0195 26.492,2.9883 35.75,8.3281 L 1223.7,342.172 c 18.96,10.43 36.14,40.219 35.77,61.828 v 311.285 l -241.87,34.477 -401.053,57.172 c -0.059,0.007 -0.106,0 -0.164,0.011 l -81.535,11.625 -20,2.852 -149.832,21.363 -20,2.852 -61.973,8.836 c -0.012,0 -0.012,0.007 -0.02,0.007 l -69.863,9.961 c -3.965,0.567 -6.887,3.914 -6.887,7.918 v 52.954 c 0.09,29.343 12.852,52.781 30.774,63.234 l 369.969,213.603 c 9.004,5.19 19.882,7.44 30.773,7.47 10.859,-0.03 21.746,-2.28 30.75,-7.47 L 1038.44,988.566 c 17.73,-10.605 30.41,-32.656 30.79,-53.257 l -0.02,-71.02 h 190.26"
         style="fill:#27963c;fill-opacity:1;fill-rule:nonzero;stroke:none"
         id="path14"
         inkscape:connector-curvature="0" /><path
         d="m 1259.47,864.285 v 16.012 z M 638.609,32.0117 c 0.008,0 0.012,0 0.02,0 v 0 c 10.519,0.0391 21.277,2.8164 26.922,6.1797 v 0 L 1215.97,356.191 c 12.18,5.481 28.54,33.411 27.48,47.118 v 0 c 0.03,0.011 0,0.171 0,0.691 v 0 0 297.418 l -228.11,32.5 -401.059,57.176 v 0.008 l -0.164,0.019 -81.523,11.609 -20.016,2.864 -149.824,21.359 -20.012,2.844 -61.972,8.832 -0.282,0.059 -69.609,9.917 c -11.738,1.622 -20.652,11.821 -20.613,23.75 v 0 53.008 c 0.164,33.848 14.66,62.758 38.781,77.047 v 0 l 369.973,213.6 c 12.152,6.97 25.699,9.56 38.8,9.62 v 0 c 13.004,-0.06 26.551,-2.65 38.719,-9.62 v 0 L 1046.66,1002.3 c 22.95,-14.159 37.72,-39.851 38.57,-66.98 v 0 l -0.02,-55.023 h 158.24 v 159.093 c 0,0.23 0,0.45 0,0.68 v 0 c 1.06,13.75 -15.32,41.73 -27.79,47.37 v 0 l -550.215,317.71 c -5.605,3.42 -16.336,6.21 -26.871,6.24 v 0 c -0.492,-0.02 -0.984,-0.02 -1.484,0 v 0 c -10.613,-0.01 -21.36,-2.82 -27.078,-6.3 v 0 L 59.5039,1087.28 c -12.1758,-5.5 -28.5547,-33.46 -27.5,-47.21 v 0 c 0,-0.11 0,-0.17 0,-0.21 v 0 l 0.0234,-0.47 -0.0234,-303.667 987.8561,-140.821 44.73,-6.386 c 11.78,-1.68 20.62,-11.758 20.64,-23.75 v 0 -56.993 c -0.87,-26.835 -15.62,-52.488 -38.78,-66.734 v 0 L 676.422,227.238 c -12.141,-6.867 -25.637,-9.418 -38.664,-9.468 v 0 c -13.039,0.05 -26.543,2.64 -38.738,9.55 v 0 L 526.848,269.012 228.816,441.16 c -22.914,14.145 -37.742,39.762 -38.574,66.906 v 0 49.239 H 32.0273 V 403.66 c -0.0234,-0.332 -0.0234,-0.332 -0.0234,-0.332 v 0 C 30.9492,389.672 47.2891,361.73 59.8164,356.012 v 0 L 610.027,38.2109 c 5.75,-3.4492 16.825,-6.2695 27.649,-6.1796 v 0 0 c 0.058,0 0.113,0 0.176,0 v 0 c 0.218,0 0.472,0 0.757,-0.0196 z M 636.965,0.0390625 c -0.047,0 -0.094,0 -0.141,0 v 0 C 621.465,0.238281 606.484,3.39844 594.02,10.5117 v 0 L 44.0508,328.16 C 18.7695,343.379 1.03906,373.969 0,403.328 v 0 c 0,0.692 0.0234375,1.024 0.0234375,0.672 v 0 169.293 c 0,4.211 1.6992225,8.34 4.6640625,11.309 v 0 c 2.98828,2.976 7.1133,4.675 11.3242,4.675 v 0 H 206.254 c 4.211,0 8.34,-1.699 11.305,-4.675 v 0 c 2.988,-2.989 4.687,-7.098 4.687,-11.309 v 0 -64.953 c -0.101,-14.266 10.512,-32.664 22.793,-39.598 v 0 l 297.797,-172.031 72.09,-41.641 c 5.933,-3.398 14.144,-5.308 22.832,-5.289 v 0 c 8.691,-0.019 16.945,1.891 22.726,5.219 v 0 l 369.766,213.625 c 12.44,7.012 23.07,25.422 22.98,39.441 v 0 49.758 l -37.89,5.391 L 13.7539,706.008 c -7.88671,1.113 -13.7304625,7.879 -13.7304625,15.84 v 0 316.972 C -0.015625,1039.64 0,1040.07 0,1040.07 v 0 c 1.05859,29.41 18.75,60.04 43.7852,75.08 v 0 l 550.1098,317.58 c 12.543,7.25 27.609,10.48 43.054,10.66 v 0 c 0.36,0.02 0.645,0.01 0.856,0 v 0 c 0.008,0 0.015,0 0.027,0 v 0 c 0.027,0 0.063,0 0.094,0 v 0 0 c 0.293,0 0.312,0 0.312,0 v 0 0 c 15.547,-0.12 30.75,-3.36 43.301,-10.58 v 0 l 549.841,-317.5 c 25.34,-15.18 43.02,-45.81 44.07,-75.24 v 0 c 0,-0.23 0,-0.45 0,-0.68 v 0 -175.105 c 0,-4.273 -1.66,-8.297 -4.68,-11.301 v 0 c -3.01,-3.031 -7.03,-4.687 -11.3,-4.687 v 0 H 1069.2 c -4.21,0 -8.34,1.699 -11.3,4.687 v 0 c -2.99,2.965 -4.71,7.09 -4.69,11.301 v 0 l 0.02,70.742 c 0.09,14.356 -10.54,32.77 -22.8,39.696 v 0 L 660.531,1188.3 c -5.847,3.42 -14.082,5.33 -22.711,5.33 v 0 c -8.75,0 -16.961,-1.91 -22.808,-5.33 v 0 L 245.102,974.723 c -11.782,-6.657 -22.817,-24.618 -22.836,-49.399 v 0 -46.027 l 63.007,-8.977 h 0.02 v 0 l 61.973,-8.836 20.007,-2.859 149.829,-21.363 20.011,-2.84 81.207,-11.59 0.485,-0.047 401.055,-57.18 241.86,-34.464 c 7.88,-1.121 13.73,-7.883 13.73,-15.844 v 0 V 404 l -0.02,-0.34 h 0.02 c 0,0 0,0 0,-0.351 v 0 c -1.05,-29.36 -18.71,-59.981 -43.76,-74.989 v 0 L 681.52,10.4688 C 668.961,3.37109 653.852,0.160156 638.34,0.0195313 v 0 C 638.246,0 638.098,0 637.898,0 v 0 c -0.242,0 -0.562,0.0117188 -0.933,0.0390625 v 0"
         style="fill:#231f20;fill-opacity:1;fill-rule:nonzero;stroke:none"
         id="path16"
         inkscape:connector-curvature="0" /><path
         d="m 16.0195,721.836 v 317.544 c -0.3711,21.64 16.8164,51.46 35.7735,61.91 l 550.223,317.64 c 9.269,5.44 22.511,8.46 35.793,8.45 13.242,0.01 26.492,-3.01 35.73,-8.42 l 550.141,-317.67 c 18.98,-10.45 36.16,-40.27 35.79,-61.91 V 864.289 h -190.26 l 0.02,71.02 c -0.38,20.601 -13.06,42.652 -30.79,53.257 L 668.539,1202.15 c -9.004,5.19 -19.891,7.44 -30.75,7.47 -10.891,-0.03 -21.769,-2.28 -30.773,-7.47 L 237.047,988.547 c -17.922,-10.453 -30.684,-33.891 -30.774,-63.234 v -52.954 c 0,-4.004 2.922,-7.351 6.887,-7.918 l 69.863,-9.961 c 0.008,0 0.008,-0.007 0.02,-0.007 l 61.973,-8.836 20,-2.852 149.832,-21.363 20,-2.852 81.535,-11.625 c 0.058,-0.011 0.105,-0.004 0.164,-0.011 L 1017.6,749.762"
         style="fill:#231f20;fill-opacity:1;fill-rule:nonzero;stroke:none"
         id="path18"
         inkscape:connector-curvature="0" /><path
         d="m 1259.47,864.289 v 175.091 c 0.37,21.64 -16.81,51.46 -35.79,61.91 l -550.141,317.67 c -9.238,5.41 -22.488,8.43 -35.73,8.42 -13.282,0.01 -26.524,-3.01 -35.793,-8.45 L 51.793,1101.29 C 32.8359,1090.84 15.6484,1061.02 16.0195,1039.38 V 721.836 L 1017.6,579.055 l 44.74,-6.379 c 3.95,-0.567 6.89,-3.934 6.89,-7.918 v -56.699 c -0.38,-20.579 -13.06,-42.61 -30.77,-53.184 L 668.492,241.129 c -8.996,-5.117 -19.863,-7.348 -30.703,-7.367 -10.891,0.019 -21.75,2.269 -30.773,7.398 l -72.168,41.68 -297.801,172.035 c -17.707,10.605 -30.43,32.605 -30.793,53.184 v 65.222 H 16.0195 V 404 c -0.3711,-21.59 16.8164,-51.371 35.793,-61.852 L 602.016,24.3516 c 9.269,-5.3633 22.511,-8.3711 35.793,-8.3516 13.242,-0.0195 26.492,2.9883 35.75,8.3281 L 1223.7,342.172 c 18.96,10.43 36.14,40.219 35.77,61.828 v 311.285 l -241.87,34.477 -401.053,57.172 c -0.059,0.007 -0.106,0 -0.164,0.011 l -81.535,11.625 -20,2.852 -149.832,21.363 -20,2.852 -61.973,8.836 c -0.012,0 -0.012,0.007 -0.02,0.007 l -69.863,9.961 c -3.965,0.567 -6.887,3.914 -6.887,7.918 v 52.954 c 0.09,29.343 12.852,52.781 30.774,63.234 l 369.969,213.603 c 9.004,5.19 19.882,7.44 30.773,7.47 10.859,-0.03 21.746,-2.28 30.75,-7.47 L 1038.44,988.566 c 17.73,-10.605 30.41,-32.656 30.79,-53.257 l -0.02,-71.02 h 190.26"
         style="fill:#bdbcbc;fill-opacity:1;fill-rule:nonzero;stroke:none"
         id="path20"
         inkscape:connector-curvature="0" /><path
         d="m 978.863,940.035 c 9.168,-4.726 18.809,-21.445 18.328,-31.758 V 768.781 752.609 581.906 565.734 535.098 c 0.481,-10.293 -9.16,-27.012 -18.328,-31.739 L 655.707,316.691 c -4.336,-2.543 -11.328,-4.222 -18.34,-4.179 -7.031,-0.043 -14.043,1.636 -18.379,4.179 l -89.617,50.719 c -3.086,1.762 -6.906,1.738 -9.973,-0.051 -3.066,-1.781 -4.96,-5.097 -4.96,-8.64 V 312.891 294.41 131.012 l -149.833,87.457 v 162.48 18.492 58.422 198.047 l 149.833,-21.359 v -76.649 c 0,-3.554 1.894,-6.855 5.011,-8.652 l 101.719,-58.77 c 5.527,-3.125 11.562,-4.277 17.586,-4.316 5.996,0.039 12.043,1.191 17.559,4.316 l 171.933,99.336 c 0,0 12.57,9.629 14.492,14.11 3,5.207 4.739,11.133 4.961,17.363 l 0.02,152.629 0.011,16.172 v 31.976 c -0.48,12.493 -6.972,23.774 -17.609,30.422 L 656.313,952.852 c -5.516,3.152 -11.563,4.312 -17.559,4.336 -6.024,-0.024 -12.078,-1.211 -17.586,-4.336 L 519.449,894.121 c -3.117,-1.785 -5.011,-5.086 -5.011,-8.672 v -47.851 l -149.833,21.363 v 120.797 l 159.629,92.142 94.774,54.71 c 4.289,2.56 11.152,4.26 18.105,4.26 0.09,0 0.168,0 0.254,0 7.012,0.04 14.004,-1.66 18.34,-4.26 L 978.832,940.059"
         style="fill:#231f20;fill-opacity:1;fill-rule:nonzero;stroke:none"
         id="path22"
         inkscape:connector-curvature="0" /><path
         d="m 978.863,940.035 c 9.168,-4.726 18.809,-21.445 18.328,-31.758 V 768.781 752.609 581.906 565.734 535.098 c 0.481,-10.293 -9.16,-27.012 -18.328,-31.739 L 655.707,316.691 c -4.336,-2.543 -11.328,-4.222 -18.34,-4.179 -7.031,-0.043 -14.043,1.636 -18.379,4.179 l -89.617,50.719 c -3.086,1.762 -6.906,1.738 -9.973,-0.051 -3.066,-1.781 -4.96,-5.097 -4.96,-8.64 V 312.891 294.41 131.012 l -149.833,87.457 v 162.48 18.492 58.422 198.047 l 149.833,-21.359 v -76.649 c 0,-3.554 1.894,-6.855 5.011,-8.652 l 101.719,-58.77 c 5.527,-3.125 11.562,-4.277 17.586,-4.316 5.996,0.039 12.043,1.191 17.559,4.316 l 171.933,99.336 c 0,0 12.57,9.629 14.492,14.11 3,5.207 4.739,11.133 4.961,17.363 l 0.02,152.629 0.011,16.172 v 31.976 c -0.48,12.493 -6.972,23.774 -17.609,30.422 L 656.313,952.852 c -5.516,3.152 -11.563,4.312 -17.559,4.336 -6.024,-0.024 -12.078,-1.211 -17.586,-4.336 L 519.449,894.121 c -3.117,-1.785 -5.011,-5.086 -5.011,-8.672 v -47.851 l -149.833,21.363 v 120.797 l 159.629,92.142 94.774,54.71 c 4.289,2.56 11.152,4.26 18.105,4.26 0.09,0 0.168,0 0.254,0 7.012,0.04 14.004,-1.66 18.34,-4.26 L 978.832,940.059"
         style="fill:none;stroke:#231f20;stroke-width:10;stroke-linecap:round;stroke-linejoin:round;stroke-miterlimit:4;stroke-dasharray:none;stroke-opacity:1"
         id="path24"
         inkscape:connector-curvature="0" /></g></g></svg>