<?xml version="1.0" encoding="UTF-8" standalone="no"?>
<!-- Created with Inkscape (http://www.inkscape.org/) -->

<svg
   xmlns:dc="http://purl.org/dc/elements/1.1/"
   xmlns:cc="http://creativecommons.org/ns#"
   xmlns:rdf="http://www.w3.org/1999/02/22-rdf-syntax-ns#"
   xmlns:svg="http://www.w3.org/2000/svg"
   xmlns="http://www.w3.org/2000/svg"
   xmlns:sodipodi="http://sodipodi.sourceforge.net/DTD/sodipodi-0.dtd"
   xmlns:inkscape="http://www.inkscape.org/namespaces/inkscape"
   version="1.1"
   id="svg2"
   xml:space="preserve"
   width="462.21332"
   height="238.38667"
   viewBox="0 0 462.21332 238.38667"
   sodipodi:docname="SPSU_WORD.svg"
   inkscape:version="0.92.1 r15371"><metadata
     id="metadata8"><rdf:RDF><cc:Work
         rdf:about=""><dc:format>image/svg+xml</dc:format><dc:type
           rdf:resource="http://purl.org/dc/dcmitype/StillImage" /><dc:title></dc:title></cc:Work></rdf:RDF></metadata><defs
     id="defs6" /><sodipodi:namedview
     pagecolor="#ffffff"
     bordercolor="#666666"
     borderopacity="1"
     objecttolerance="10"
     gridtolerance="10"
     guidetolerance="10"
     inkscape:pageopacity="0"
     inkscape:pageshadow="2"
     inkscape:window-width="1440"
     inkscape:window-height="843"
     id="namedview4"
     showgrid="false"
     inkscape:zoom="0.84376625"
     inkscape:cx="23.703247"
     inkscape:cy="119.19334"
     inkscape:window-x="0"
     inkscape:window-y="31"
     inkscape:window-maximized="1"
     inkscape:current-layer="g10" /><g
     id="g10"
     inkscape:groupmode="layer"
     inkscape:label="ink_ext_XXXXXX"
     transform="matrix(1.3333333,0,0,-1.3333333,0,238.38667)"><g
       id="g12"
       transform="scale(0.1)"><path
         d="M 193.059,802.277 C 185.188,787.02 171.16,777.879 136.711,777.59 h -34.926 v 193.301 h 38.352 c 32.898,-0.356 45.793,-10.274 53.508,-26.567 7.71,-16.676 8.035,-42.207 7.949,-70.914 0.086,-30.469 -0.52,-55.527 -8.535,-71.133 z m 63.796,220.153 c -31.32,33.4 -69.421,45.27 -118.457,45.14 H 0 V 442.41 h 101.785 v 238.5 h 37.551 c 66.008,-0.262 108.047,25.469 133.035,66.949 21.652,35.161 25.918,72.969 25.918,126.387 0.102,73.227 -9.605,114.668 -41.434,148.184"
         style="fill:#008350;fill-opacity:1;fill-rule:nonzero;stroke:none"
         id="path14"
         inkscape:connector-curvature="0" /><path
         d="m 445.898,916.262 c 0.469,38.515 23.204,54.062 52.032,54.648 28.781,-0.586 51.511,-16.133 52.031,-54.648 V 593.66 c -0.52,-38.488 -23.25,-54 -52.031,-54.609 -28.828,0.609 -51.563,16.121 -52.032,54.609 z m 52.032,156.468 c -74.297,-0.18 -153.7,-52.8 -153.887,-156.468 V 593.66 c 0.187,-103.648 79.59,-156.23 153.887,-156.441 74.277,0.211 153.703,52.793 153.894,156.441 V 916.262 C 651.633,1019.93 572.207,1072.55 497.93,1072.73"
         style="fill:#008350;fill-opacity:1;fill-rule:nonzero;stroke:none"
         id="path16"
         inkscape:connector-curvature="0" /><path
         d="m 810.281,539.051 0.051,528.519 H 708.469 V 442.41 H 976.68 v 96.641 H 810.281"
         style="fill:#008350;fill-opacity:1;fill-rule:nonzero;stroke:none"
         id="path18"
         inkscape:connector-curvature="0" /><path
         d="m 1229.34,1067.57 h -90.84 l -65.86,-227.187 -65.86,227.187 H 898.75 L 1021.68,706.648 V 442.352 h 101.86 v 264.277 l 105.8,310.731 v -46.45 h 95.32 V 442.352 h 101.81 V 970.91 h 107.18 v 96.66 h -287.25 -17.06"
         style="fill:#008350;fill-opacity:1;fill-rule:nonzero;stroke:none"
         id="path20"
         inkscape:connector-curvature="0" /><path
         d="M 2439.32,1067.57 V 805.867 H 2332.31 V 1067.57 H 2230.6 V 442.352 h 101.71 v 266.859 h 107.01 V 442.352 h 101.81 v 625.218 h -101.81"
         style="fill:#008350;fill-opacity:1;fill-rule:nonzero;stroke:none"
         id="path22"
         inkscape:connector-curvature="0" /><path
         d="m 2825.59,1067.57 -0.32,-348.718 -125.24,348.718 h -96.18 V 442.352 h 98 V 791.875 L 2829.08,442.41 h 94.5 v 625.16 h -97.99"
         style="fill:#008350;fill-opacity:1;fill-rule:nonzero;stroke:none"
         id="path24"
         inkscape:connector-curvature="0" /><path
         d="M 2988.83,1067.57 V 442.41 h 101.8 v 625.16 h -101.8"
         style="fill:#008350;fill-opacity:1;fill-rule:nonzero;stroke:none"
         id="path26"
         inkscape:connector-curvature="0" /><path
         d="m 1832.88,970.91 v 96.66 H 1562.45 V 442.352 h 270.43 v 96.699 h -168.61 v 170.16 h 155.74 v 96.656 H 1664.27 V 970.91 h 168.61"
         style="fill:#008350;fill-opacity:1;fill-rule:nonzero;stroke:none"
         id="path28"
         inkscape:connector-curvature="0" /><path
         d="m 2978.83,2.48828 h -45.9 V 311.98 h 45.9 V 2.48828"
         style="fill:#94989a;fill-opacity:1;fill-rule:nonzero;stroke:none"
         id="path30"
         inkscape:connector-curvature="0" /><path
         d="m 1850.55,2.48828 h -45.91 V 311.98 h 45.91 V 2.48828"
         style="fill:#94989a;fill-opacity:1;fill-rule:nonzero;stroke:none"
         id="path32"
         inkscape:connector-curvature="0" /><path
         d="M 386.023,311.98 H 222.348 v -44.492 h 58.886 V 2.60156 h 45.907 V 267.488 h 58.882 v 44.492"
         style="fill:#94989a;fill-opacity:1;fill-rule:nonzero;stroke:none"
         id="path34"
         inkscape:connector-curvature="0" /><path
         d="M 808.59,311.98 H 644.918 v -44.492 h 58.887 V 2.60156 h 45.902 V 267.488 h 58.883 v 44.492"
         style="fill:#94989a;fill-opacity:1;fill-rule:nonzero;stroke:none"
         id="path36"
         inkscape:connector-curvature="0" /><path
         d="M 1401.02,311.98 V 91.8984 c 0,-30.0898 -19.34,-47.0781 -43.21,-47.0781 -23.85,0 -43.18,16.9883 -43.18,47.0781 V 311.98 H 1269 V 91.8984 c 0,-62.3671 32.04,-91.726525 88.81,-91.726525 56.8,0 88.82,29.359425 88.82,91.726525 V 311.98 h -45.61"
         style="fill:#94989a;fill-opacity:1;fill-rule:nonzero;stroke:none"
         id="path38"
         inkscape:connector-curvature="0" /><path
         d="M 1039.57,267.578 V 311.98 H 872.016 V 2.60156 H 1039.57 V 47.0117 H 917.922 v 86.0193 h 100.948 v 44.098 H 917.922 v 90.449 h 121.648"
         style="fill:#94989a;fill-opacity:1;fill-rule:nonzero;stroke:none"
         id="path40"
         inkscape:connector-curvature="0" /><path
         d="M 2347.14,267.578 V 311.98 H 2188.59 V 2.60156 h 158.55 V 47.0117 H 2234.5 v 86.0193 h 91.93 v 44.098 h -91.93 v 90.449 h 112.64"
         style="fill:#94989a;fill-opacity:1;fill-rule:nonzero;stroke:none"
         id="path42"
         inkscape:connector-curvature="0" /><path
         d="m 2514.26,176.43 h -42.66 v 90.781 h 42.65 c 25.11,0 45.46,-20.231 45.46,-45.32 0,-25.11 -20.35,-45.461 -45.45,-45.461 z m 43.12,-34.75 c 30.3,14.308 51.27,45.121 51.27,80.851 0,49.36 -40.02,89.367 -89.38,89.367 l -88.32,0.082 v -0.082 h -0.05 l 0.05,-309.29644 h 45.9 V 133.031 h 39.79 l 44.1,-130.42944 h 48.46 L 2557.38,141.68"
         style="fill:#94989a;fill-opacity:1;fill-rule:nonzero;stroke:none"
         id="path44"
         inkscape:connector-curvature="0" /><path
         d="M 1712.92,2.60156 V 311.98 h -44.61 V 109.84 l -84,202.14 h -48.3 V 2.48828 h 44.61 V 204.629 L 1664.57,2.60156 h 48.35"
         style="fill:#94989a;fill-opacity:1;fill-rule:nonzero;stroke:none"
         id="path46"
         inkscape:connector-curvature="0" /><path
         d="m 3218.16,311.98 h -163.68 v -44.492 h 58.88 V 2.60156 h 45.92 V 267.488 h 58.88 v 44.492"
         style="fill:#94989a;fill-opacity:1;fill-rule:nonzero;stroke:none"
         id="path48"
         inkscape:connector-curvature="0" /><path
         d="m 3418.12,311.98 -44.95,-131.089 -44.96,131.089 h -48.42 l 70.42,-197.218 V 2.51172 h 45.9 V 114.762 l 70.44,197.218 h -48.43"
         style="fill:#94989a;fill-opacity:1;fill-rule:nonzero;stroke:none"
         id="path50"
         inkscape:connector-curvature="0" /><path
         d="M 1994.26,2.35156 1923.41,311.98 H 1970 l 49,-214.0191 49.03,214.0191 h 46.59 L 2043.77,2.35156 h -49.51"
         style="fill:#94989a;fill-opacity:1;fill-rule:nonzero;stroke:none"
         id="path52"
         inkscape:connector-curvature="0" /><path
         d="m 480.059,113.012 33.531,114 33.527,-114 z M 579.664,2.35156 h 47.848 L 536.445,311.98 H 490.73 L 399.668,2.35156 h 47.848 l 19.031,64.70704 h 94.09 L 579.664,2.35156"
         style="fill:#94989a;fill-opacity:1;fill-rule:nonzero;stroke:none"
         id="path54"
         inkscape:connector-curvature="0" /><path
         d="m 3451.46,878.82 v 41.219 c 0,89.041 -61.54,152.991 -149.39,152.991 -93.23,0 -148.82,-64.54 -148.82,-147.014 V 588.969 c 0,-114.149 77.7,-151.789 148.82,-151.789 82.46,0 149.39,55.582 149.39,148.8 v 45.399 h -101.6 V 593.73 c 0,-39.429 -16.72,-54.359 -48.37,-54.359 -35.28,0 -45.43,22.098 -46.03,55.578 v 311.946 c 0,36.464 10.75,65.136 46.61,65.136 34.04,0 47.79,-25.683 47.79,-57.371 v -35.84 h 101.6 v 0"
         style="fill:#008350;fill-opacity:1;fill-rule:nonzero;stroke:none"
         id="path56"
         inkscape:connector-curvature="0" /><path
         d="m 2174.59,878.82 v 41.219 c 0,89.041 -61.54,152.991 -149.39,152.991 -93.24,0 -148.82,-64.54 -148.82,-147.014 V 588.969 c 0,-114.149 77.69,-151.789 148.82,-151.789 82.46,0 149.39,55.582 149.39,148.8 v 45.399 h -101.6 V 593.73 c 0,-39.429 -16.72,-54.359 -48.37,-54.359 -35.28,0 -45.43,22.098 -46.04,55.578 v 311.946 c 0,36.464 10.76,65.136 46.62,65.136 34.04,0 47.79,-25.683 47.79,-57.371 v -35.84 h 101.6 v 0"
         style="fill:#008350;fill-opacity:1;fill-rule:nonzero;stroke:none"
         id="path58"
         inkscape:connector-curvature="0" /><path
         d="m 688.125,1333.33 c 0,-41.98 -22.699,-79.34 -86.441,-79.34 -63.739,0 -86.442,37.36 -86.442,79.34 v 286.8 c 0,41.98 22.703,79.33 86.442,79.33 63.742,0 86.441,-37.35 86.441,-79.33 z m -86.441,453.51 c -131.239,0 -173.825,-78.59 -173.825,-149.05 v -322.11 c 0,-70.48 42.586,-149.06 173.825,-149.06 131.242,0 173.824,78.58 173.824,149.06 v 322.11 c 0,70.46 -42.582,149.05 -173.824,149.05"
         style="fill:#62b92c;fill-opacity:1;fill-rule:nonzero;stroke:none"
         id="path60"
         inkscape:connector-curvature="0" /><path
         d="m 1128.13,1781.7 v -448.37 c 0,-41.98 -22.71,-79.34 -86.45,-79.34 -63.742,0 -86.442,37.36 -86.442,79.34 v 448.37 h -87.383 v -466.02 c 0,-70.48 42.583,-149.06 173.825,-149.06 131.24,0 173.83,78.58 173.83,149.06 v 466.02 h -87.38"
         style="fill:#62b92c;fill-opacity:1;fill-rule:nonzero;stroke:none"
         id="path62"
         inkscape:connector-curvature="0" /><path
         d="m 1427.77,1694.5 h -128.61 v 87.2 h 344.61 v -87.2 h -128.61 v -522.73 h -87.39 v 522.73"
         style="fill:#62b92c;fill-opacity:1;fill-rule:nonzero;stroke:none"
         id="path64"
         inkscape:connector-curvature="0" /><path
         d="m 1733.13,1781.7 h 87.39 v -260.01 h 188.56 v 260.01 h 87.38 v -609.93 h -87.38 v 261.8 h -188.56 v -261.8 h -87.39 v 609.93"
         style="fill:#62b92c;fill-opacity:1;fill-rule:nonzero;stroke:none"
         id="path66"
         inkscape:connector-curvature="0" /><path
         d="m 2218.34,1781.7 h 312.5 v -87.2 h -223.75 v -174.08 h 201.47 v -86.85 h -201.47 v -174.43 h 223.75 v -87.37 h -312.5 v 609.93"
         style="fill:#62b92c;fill-opacity:1;fill-rule:nonzero;stroke:none"
         id="path68"
         inkscape:connector-curvature="0" /><path
         d="m 2725.84,1521.69 h 83.54 c 60.83,0 89.52,31.56 89.52,82.68 0,52.63 -39.31,90.13 -93.8,90.13 h -79.26 z m -90,260.01 h 176.96 c 88.66,0 173.47,-70.95 173.47,-179.04 0,-70.25 -44.11,-124.81 -99.81,-155.66 l 99.38,-275.23 h -92.51 l -89.37,258.36 h -78.12 v -258.36 h -90 v 609.93"
         style="fill:#62b92c;fill-opacity:1;fill-rule:nonzero;stroke:none"
         id="path70"
         inkscape:connector-curvature="0" /><path
         d="m 3080.64,1781.7 h 96.03 l 178.2,-396.57 h 1.71 v 396.57 h 87.38 v -609.93 h -95.28 l -178.94,399.61 h -1.72 v -399.61 h -87.38 v 609.93"
         style="fill:#62b92c;fill-opacity:1;fill-rule:nonzero;stroke:none"
         id="path72"
         inkscape:connector-curvature="0" /><path
         d="m 45.4531,230.809 c 0,21.269 11.5782,40.242 43.9414,40.242 32.3285,0 43.8355,-18.973 43.8355,-40.242 v -6.848 h 44.461 v 15.828 c 0,35.723 -21.679,75.563 -88.2965,75.563 -66.5703,0 -89.3749687,-41.032 -89.3749687,-83.09 0,-60.934 26.5781687,-77.012 88.1171687,-96.731 30.5003,-8.98 43.9023,-18.242 43.9023,-50.7927 0,-21.2891 -11.504,-40.3164 -43.9023,-40.3164 -32.332,0 -43.914,19.0273 -43.914,40.3164 v 6.832 H 0.0195313 V 75.7813 C 0.0195313,39.9883 21.5156,0 88.1367,0 c 66.6523,0 89.5543,41.1914 89.5543,83.2695 0,60.8515 -27.531,78.3905 -89.5543,96.6095 -30.414,8.93 -42.6836,18.262 -42.6836,50.93"
         style="fill:#94989a;fill-opacity:1;fill-rule:nonzero;stroke:none"
         id="path74"
         inkscape:connector-curvature="0" /><path
         d="m 2722.12,230.809 c 0,21.269 11.57,40.242 43.93,40.242 32.34,0 43.85,-18.973 43.85,-40.242 v -6.848 h 44.46 v 15.828 c 0,35.723 -21.68,75.563 -88.31,75.563 -66.56,0 -89.37,-41.032 -89.37,-83.09 0,-60.934 26.58,-77.012 88.12,-96.731 30.5,-8.98 43.91,-18.242 43.91,-50.7927 0,-21.2891 -11.5,-40.3164 -43.91,-40.3164 -32.33,0 -43.91,19.0273 -43.91,40.3164 v 6.832 h -44.21 V 75.7813 C 2676.68,39.9883 2698.18,0 2764.8,0 c 66.66,0 89.56,41.1914 89.56,83.2695 0,60.8515 -27.53,78.3905 -89.56,96.6095 -30.41,8.93 -42.68,18.262 -42.68,50.93"
         style="fill:#94989a;fill-opacity:1;fill-rule:nonzero;stroke:none"
         id="path76"
         inkscape:connector-curvature="0" /><path
         d="m 90.5625,1622.23 c 0,41.14 21.6995,78.86 85.7035,78.86 63.992,0 86.855,-37.72 86.855,-78.86 v -13.72 h 86.863 v 30.86 c 0,70.86 -42.285,148.56 -173.718,148.56 -131.4262,0 -176.000375,-80 -176.000375,-163.42 0,-120 52.582075,-152 173.714375,-190.86 60.586,-17.15 86.864,-35.42 86.864,-99.42 0,-42.3 -22.86,-80 -86.864,-80 -63.996,0 -85.7144,37.7 -85.7144,80 v 12.56 H 0.265625 v -30.86 c 0,-69.7 42.296875,-148.56 173.714375,-148.56 131.446,0 176.004,81.14 176.004,163.42 0,120 -53.718,155.44 -176.004,190.86 -59.414,17.14 -83.4175,35.44 -83.4175,100.58 v 0"
         style="fill:#62b92c;fill-opacity:1;fill-rule:nonzero;stroke:none"
         id="path78"
         inkscape:connector-curvature="0" /></g></g></svg>