<?xml version="1.0" encoding="UTF-8" standalone="no"?>
<!-- Created with Inkscape (http://www.inkscape.org/) -->

<svg
   xmlns:dc="http://purl.org/dc/elements/1.1/"
   xmlns:cc="http://creativecommons.org/ns#"
   xmlns:rdf="http://www.w3.org/1999/02/22-rdf-syntax-ns#"
   xmlns:svg="http://www.w3.org/2000/svg"
   xmlns="http://www.w3.org/2000/svg"
   xmlns:sodipodi="http://sodipodi.sourceforge.net/DTD/sodipodi-0.dtd"
   xmlns:inkscape="http://www.inkscape.org/namespaces/inkscape"
   version="1.1"
   id="svg2"
   xml:space="preserve"
   width="908.76001"
   height="863.8667"
   viewBox="0 0 908.76001 863.8667"
   sodipodi:docname="SPSU Big2.svg"
   inkscape:version="0.92.1 r15371"><metadata
     id="metadata8"><rdf:RDF><cc:Work
         rdf:about=""><dc:format>image/svg+xml</dc:format><dc:type
           rdf:resource="http://purl.org/dc/dcmitype/StillImage" /><dc:title></dc:title></cc:Work></rdf:RDF></metadata><defs
     id="defs6" /><sodipodi:namedview
     pagecolor="#ffffff"
     bordercolor="#666666"
     borderopacity="1"
     objecttolerance="10"
     gridtolerance="10"
     guidetolerance="10"
     inkscape:pageopacity="0"
     inkscape:pageshadow="2"
     inkscape:window-width="1440"
     inkscape:window-height="843"
     id="namedview4"
     showgrid="false"
     inkscape:zoom="0.2731903"
     inkscape:cx="-186.19912"
     inkscape:cy="431.93335"
     inkscape:window-x="0"
     inkscape:window-y="31"
     inkscape:window-maximized="1"
     inkscape:current-layer="g10" /><g
     id="g10"
     inkscape:groupmode="layer"
     inkscape:label="ink_ext_XXXXXX"
     transform="matrix(1.3333333,0,0,-1.3333333,0,863.86667)"><g
       id="g12"
       transform="scale(0.1)"><path
         d="m 6266.25,1797.56 c 0,-114.48 -81.09,-255.15 -180.63,-312.21 L 3588.57,42.7422 c -99,-56.9727 -261.9,-56.9727 -360.99,0 L 730.078,1485.35 c -99.539,57.15 -180.629,197.73 -180.629,312.21 v 2884.05 c 0,114.57 81.09,255.33 180.629,312.39 L 3227.58,6435.89 c 99.09,57.51 261.99,57.51 360.99,0 L 6085.62,4994 c 99.54,-57.06 180.63,-197.82 180.63,-312.39 V 1797.56"
         style="fill:#ebeced;fill-opacity:1;fill-rule:nonzero;stroke:none"
         id="path14"
         inkscape:connector-curvature="0" /><path
         d="m 5759.1,5028.47 -184.77,-410.31 c -33.03,274.05 -56.97,471.96 -56.97,471.96 -3.42,28.26 -24.66,50.85 -52.56,56.07 -0.18,0.09 -176.31,33.03 -260.64,48.24 -86.31,15.48 -274.23,42.66 -274.68,42.75 -19.71,2.88 -39.51,-3.42 -54,-17.19 -9.63,-9.09 -16.02,-20.7 -18.72,-33.21 l -54.45,-199.8 c -30.24,40.68 -66.87,80.28 -110.88,115.74 -65.07,52.56 -145.17,107.01 -243.99,148.41 -98.82,41.49 -216.36,69.66 -354.42,70.56 -2.25,0.09 -4.68,0.09 -7.11,0.09 -241.74,0.45 -438.57,-91.8 -559.17,-245.43 -45.9,-58.23 -78.84,-118.44 -99.63,-181.62 -1.98,-5.94 -3.69,-11.88 -5.49,-17.82 -16.92,63.18 -45.99,121.95 -90.09,193.41 -52.56,84.69 -132.84,142.83 -215.91,182.7 -83.34,39.78 -170.46,61.74 -243.99,70.2 -32.67,3.69 -66.69,5.22 -101.97,5.22 -123.3,-0.09 -263.16,-18.18 -408.96,-33.48 -189.45,-19.89 -366.93,-42.57 -367.2,-42.57 -30.42,-3.87 -54.09,-28.62 -56.61,-59.13 l -38.61,-465.39 -6.66,20.79 c -4.95,28.08 -12.42,54.36 -22.32,78.84 -19.26,47.88 -47.16,88.38 -79.02,124.38 -39.06,44.01 -92.34,83.7 -156.24,114.57 -63.9,30.69 -138.6,52.38 -219.51,57.24 -18.27,1.08 -36.45,1.62 -54.36,1.62 -245.34,0 -454.682,-99.18 -633.69,-225.54 -97.832,-69.21 -195.3,-169.65 -270.449,-287.01 -74.703,-117.36 -127.801,-252.09 -128.07,-391.05 0,-8.28 0.18,-16.56 0.629,-24.84 5.941,-127.53 37.711,-242.1 92.969,-347.67 46.8,-89.46 109.8,-172.35 186.929,-253.89 l 425.882,-548.55 c 6.03,-28.53 9.09,-58.86 9.09,-89.91 0.09,-69.21 -15.39,-140.85 -42.21,-199.8 -20.07,23.31 -215.012,249.84 -225.898,264.06 -1.891,2.52 -3.872,4.68 -5.942,6.75 -1.711,1.89 -3.422,3.78 -5.308,5.4 -2.614,2.34 -5.403,4.41 -8.372,6.21 l -6.121,3.6 c -13.859,6.84 -29.968,8.73 -45.359,4.77 -0.359,-0.09 -217.891,-56.61 -346.32,-94.86 C 229.5,2914.64 90.5391,2865.41 90,2865.23 68.6719,2857.67 52.7383,2839.58 48.0586,2817.44 47.9688,2816.81 36.0898,2761.19 24.2109,2689.37 12.3281,2617.28 0.179688,2530.16 0,2460.5 0,2443.04 0.808594,2426.57 2.96875,2410.55 16.8281,2307.59 52.3789,2215.7 112.051,2141.63 c 25.828,-32.22 56.16,-60.66 90.359,-85.23 l 1231.2,-796.32 0.54,-0.36 c 71.73,-46.53 153,-77.49 249.75,-77.49 h 1.98 c 27.45,0 56.07,2.25 86.13,6.93 134.01,20.34 237.24,71.37 333.99,138.15 78.57,54.18 133.29,117.54 155.79,145.71 l 86.67,-114.93 c 11.79,-15.75 30.33,-24.75 49.68,-24.75 3.42,0 6.84,0.27 10.35,0.9 0.09,0 22.77,3.87 54.72,9 31.95,5.22 73.08,11.7 109.17,16.92 35.91,5.13 89.73,12.06 134.28,17.55 44.55,5.58 79.83,9.81 79.92,9.81 19.8,2.34 37.08,13.95 46.89,31.32 4.32,7.74 6.75,16.2 7.56,24.75 l 0.27,-0.27 14.94,441.72 c 35.19,3.6 78.66,8.01 104.04,10.71 47.97,5.04 113.13,14.67 183.33,46.26 38.34,14.4 73.08,35.1 103.41,57.78 13.14,9.36 22.95,17.46 30.15,24.3 l 0.36,0.36 c 37.26,32.4 66.06,65.79 84.42,89.37 0,-34.29 0,-98.1 0,-169.65 0,-93.33 53.55,-227.79 98.46,-290.79 1.53,-2.43 3.15,-4.77 4.95,-7.02 0.63,-0.81 16.2,-20.16 39.24,-44.82 23.22,-24.84 53.1,-54.81 86.22,-78.57 55.98,-39.78 189.9,-131.67 384.75,-133.02 2.7,-0.09 5.4,-0.09 8.01,-0.09 h 0.45 c 90.45,0 158.22,12.69 211.05,32.13 52.74,19.35 89.73,45.81 115.2,66.24 53.01,41.58 83.07,80.46 108.18,119.34 2.7,4.14 5.4,8.73 10.08,16.56 8.37,14.04 21.87,37.08 39.24,66.69 8.37,-33.66 33.57,-109.53 104.58,-197.28 62.1,-76.68 126.18,-133.29 190.26,-176.22 2.61,-2.61 5.4,-4.95 8.46,-7.11 3.06,-1.98 87.21,-59.58 209.52,-98.37 78.57,-24.93 144.18,-34.74 199.35,-34.74 29.61,0 56.16,2.79 79.65,7.56 31.41,6.3 58.95,15.21 85.68,28.17 26.91,12.96 52.2,28.89 85.5,50.22 56.97,36.63 872.73,567.99 1113.12,725.31 64.17,41.94 122.04,82.71 165.6,137.97 69.21,88.29 105.93,214.65 106.2,365.67 0,55.62 -5.13,114.75 -15.84,176.85 -18.81,108.72 -112.86,659.34 -202.23,1182.6 -44.64,261.63 -88.11,516.42 -120.42,705.87 -16.11,94.68 -29.52,173.07 -38.88,227.79 -9.27,54.63 -14.58,85.59 -14.58,85.68 -4.23,24.48 -22.14,44.55 -45.99,51.48 -0.18,0.09 -143.55,41.58 -264.96,74.79 -122.94,33.57 -279.63,68.49 -280.08,68.58 -20.88,4.68 -42.66,-1.26 -58.32,-15.66 -6.57,-6.12 -11.79,-13.5 -15.3,-21.51"
         style="fill:#bec1c3;fill-opacity:1;fill-rule:nonzero;stroke:none"
         id="path16"
         inkscape:connector-curvature="0" /><path
         d="m 2050.65,1365.11 c 2.91,1.9 5.81,3.84 8.7,5.78 v 0 c -2.89,-1.94 -5.79,-3.88 -8.7,-5.78"
         style="fill:#bec1c3;fill-opacity:1;fill-rule:nonzero;stroke:none"
         id="path18"
         inkscape:connector-curvature="0" /><path
         d="m 2050.65,1365.11 c 2.91,1.9 5.81,3.84 8.7,5.78 v 0 c -2.89,-1.94 -5.79,-3.88 -8.7,-5.78"
         style="fill:#d3d5d7;fill-opacity:1;fill-rule:nonzero;stroke:none"
         id="path20"
         inkscape:connector-curvature="0" /><path
         d="m 2033.19,1353.86 c 5.85,3.69 11.7,7.47 17.46,11.25 -5.76,-3.78 -11.61,-7.56 -17.46,-11.25"
         style="fill:#bec1c3;fill-opacity:1;fill-rule:nonzero;stroke:none"
         id="path22"
         inkscape:connector-curvature="0" /><path
         d="m 2033.19,1353.86 c 5.85,3.69 11.7,7.47 17.46,11.25 -5.76,-3.78 -11.61,-7.56 -17.46,-11.25"
         style="fill:#d3d5d7;fill-opacity:1;fill-rule:nonzero;stroke:none"
         id="path24"
         inkscape:connector-curvature="0" /><path
         d="m 3180.15,2030.75 c 3.33,1.98 6.48,3.87 9.45,5.67 -2.97,-1.8 -6.12,-3.69 -9.45,-5.67"
         style="fill:#bec1c3;fill-opacity:1;fill-rule:nonzero;stroke:none"
         id="path26"
         inkscape:connector-curvature="0" /><path
         d="m 3180.15,2030.75 c 3.33,1.98 6.48,3.87 9.45,5.67 -2.97,-1.8 -6.12,-3.69 -9.45,-5.67"
         style="fill:#d3d5d7;fill-opacity:1;fill-rule:nonzero;stroke:none"
         id="path28"
         inkscape:connector-curvature="0" /><path
         d="m 3189.6,2036.42 0.09,0.09 v 0 l -0.09,-0.09"
         style="fill:#bec1c3;fill-opacity:1;fill-rule:nonzero;stroke:none"
         id="path30"
         inkscape:connector-curvature="0" /><path
         d="m 3189.6,2036.42 0.09,0.09 v 0 l -0.09,-0.09"
         style="fill:#d3d5d7;fill-opacity:1;fill-rule:nonzero;stroke:none"
         id="path32"
         inkscape:connector-curvature="0" /><path
         d="m 3179.52,2030.39 0.63,0.36 -0.63,-0.36"
         style="fill:#bec1c3;fill-opacity:1;fill-rule:nonzero;stroke:none"
         id="path34"
         inkscape:connector-curvature="0" /><path
         d="m 3179.52,2030.39 0.63,0.36 -0.63,-0.36"
         style="fill:#d3d5d7;fill-opacity:1;fill-rule:nonzero;stroke:none"
         id="path36"
         inkscape:connector-curvature="0" /><path
         d="m 3178.52,2029.81 v 0 c 0.33,0.19 0.67,0.39 1,0.58 -0.33,-0.19 -0.67,-0.39 -1,-0.58"
         style="fill:#bec1c3;fill-opacity:1;fill-rule:nonzero;stroke:none"
         id="path38"
         inkscape:connector-curvature="0" /><path
         d="m 3178.52,2029.81 v 0 c 0.33,0.19 0.67,0.39 1,0.58 -0.33,-0.19 -0.67,-0.39 -1,-0.58"
         style="fill:#d3d5d7;fill-opacity:1;fill-rule:nonzero;stroke:none"
         id="path40"
         inkscape:connector-curvature="0" /><path
         d="m 4178.43,1482.29 c 2.56,0.98 5.05,1.96 7.48,2.99 v 0 c -2.43,-1.03 -4.92,-2.01 -7.48,-2.99"
         style="fill:#bec1c3;fill-opacity:1;fill-rule:nonzero;stroke:none"
         id="path42"
         inkscape:connector-curvature="0" /><path
         d="m 4178.43,1482.29 c 2.56,0.98 5.05,1.96 7.48,2.99 v 0 c -2.43,-1.03 -4.92,-2.01 -7.48,-2.99"
         style="fill:#d3d5d7;fill-opacity:1;fill-rule:nonzero;stroke:none"
         id="path44"
         inkscape:connector-curvature="0" /><path
         d="m 4187.89,1486.1 v 0 l 1.97,0.78 -1.97,-0.78"
         style="fill:#bec1c3;fill-opacity:1;fill-rule:nonzero;stroke:none"
         id="path46"
         inkscape:connector-curvature="0" /><path
         d="m 4187.89,1486.1 v 0 l 1.97,0.78 -1.97,-0.78"
         style="fill:#d3d5d7;fill-opacity:1;fill-rule:nonzero;stroke:none"
         id="path48"
         inkscape:connector-curvature="0" /><path
         d="m 4189.86,1486.88 c 2.07,0.9 4.05,1.8 6.12,2.7 -2.07,-0.9 -4.05,-1.8 -6.12,-2.7"
         style="fill:#bec1c3;fill-opacity:1;fill-rule:nonzero;stroke:none"
         id="path50"
         inkscape:connector-curvature="0" /><path
         d="m 4189.86,1486.88 c 2.07,0.9 4.05,1.8 6.12,2.7 -2.07,-0.9 -4.05,-1.8 -6.12,-2.7"
         style="fill:#d3d5d7;fill-opacity:1;fill-rule:nonzero;stroke:none"
         id="path52"
         inkscape:connector-curvature="0" /><path
         d="m 4195.98,1489.58 1.26,0.63 v 0 h 0.09 l -1.35,-0.63"
         style="fill:#bec1c3;fill-opacity:1;fill-rule:nonzero;stroke:none"
         id="path54"
         inkscape:connector-curvature="0" /><path
         d="m 4195.98,1489.58 1.26,0.63 v 0 h 0.09 l -1.35,-0.63"
         style="fill:#d3d5d7;fill-opacity:1;fill-rule:nonzero;stroke:none"
         id="path56"
         inkscape:connector-curvature="0" /><path
         d="m 5180.04,1239.27 c -47.72,0 -106.97,8.56 -180.63,31.88 -113.13,35.73 -193.32,90.45 -193.32,90.45 l 0.59,0.57 c -61.48,38.98 -161.7,123.56 -195.71,196.71 l 711.81,933.66 c 84.51,-112.23 181.8,-196.92 269.55,-258.03 22.23,-15.57 46.17,-30.78 71.28,-45.45 185.66,-109.01 437.6,-192.52 604.4,-192.52 7.12,0 14.12,0.15 20.92,0.46 100.89,4.5 177.57,24.66 239.04,57.69 -204.39,-133.74 -1072.62,-701.82 -1130.76,-739.26 -66.06,-42.48 -94.32,-58.41 -149.94,-69.75 -19.4,-3.96 -41.66,-6.41 -67.23,-6.41"
         style="fill:#94989a;fill-opacity:1;fill-rule:nonzero;stroke:none"
         id="path58"
         inkscape:connector-curvature="0" /><path
         d="m 1757.88,2246.57 -0.99,6.57 1.53,0.18 -0.54,-6.75"
         style="fill:#bec1c3;fill-opacity:1;fill-rule:nonzero;stroke:none"
         id="path60"
         inkscape:connector-curvature="0" /><path
         d="m 1757.88,2246.57 -0.99,6.57 1.53,0.18 -0.54,-6.75"
         style="fill:#94989a;fill-opacity:1;fill-rule:nonzero;stroke:none"
         id="path62"
         inkscape:connector-curvature="0" /><path
         d="m 4146.39,2852.18 c -66.06,35.82 -125.64,102.15 -130.23,210.96 -7.56,179.1 -9.36,254.52 -9.36,254.52 0,0 -177.3,7.56 -280.98,12.24 -4.59,0.18 -9.54,0.36 -14.49,0.63 l 60.12,723.42 c 40.59,-48.24 84.78,-98.46 132.57,-150.93 146.34,-160.83 291.24,-317.52 389.52,-466.2 l -147.15,-584.64"
         style="fill:#94989a;fill-opacity:1;fill-rule:nonzero;stroke:none"
         id="path64"
         inkscape:connector-curvature="0" /><path
         d="m 3984.04,1452.11 c -2.62,0 -5.26,0.01 -7.93,0.03 -109.08,0.81 -196.74,32.94 -260.37,66.24 l -1.53,0.72 c -58.5,29.43 -144.18,84.15 -181.62,135.9 l 52.38,1013.04 c 37.35,-46.71 81.81,-91.89 134.28,-133.74 37.53,-29.88 78.84,-56.7 122.76,-80.37 h 0.09 c 153.13,-82.41 338.66,-126.35 510.92,-126.35 65.15,0 128.42,6.29 187.3,19.16 42.03,9.18 82.98,22.68 122.13,40.05 5.85,2.61 11.7,5.22 17.46,8.01 l 2.34,1.17 c 6.12,2.97 12.15,6.03 18.18,9.18 1.08,0.54 2.07,1.08 3.15,1.62 6.21,3.33 12.42,6.75 18.54,10.35 1.35,0.81 2.79,1.62 4.14,2.34 6.12,3.6 12.06,7.2 18,10.98 1.08,0.72 2.16,1.35 3.15,2.07 5.58,3.51 10.98,7.11 16.47,10.8 0.9,0.63 1.8,1.26 2.79,1.89 5.67,3.96 11.34,8.1 17.01,12.24 1.35,0.99 2.7,2.07 4.14,3.06 5.49,4.14 10.89,8.37 16.2,12.69 1.26,0.99 2.43,1.98 3.6,2.97 5.04,4.05 9.9,8.19 14.76,12.42 l 2.34,2.07 c 5.22,4.59 10.26,9.27 15.39,14.04 1.26,1.26 2.61,2.43 3.87,3.69 4.95,4.68 9.72,9.45 14.49,14.31 1.17,1.26 2.43,2.52 3.6,3.78 4.5,4.68 9,9.54 13.32,14.31 l 2.34,2.61 c 4.41,4.95 8.73,9.9 12.87,15.03 1.17,1.35 2.34,2.79 3.51,4.14 4.32,5.22 8.46,10.53 12.51,15.93 1.17,1.44 2.25,2.97 3.42,4.5 4.14,5.49 8.19,11.07 12.15,16.74 -95.49,-165.42 -534.42,-925.38 -555.84,-958.14 -24.03,-36.72 -46.62,-66.51 -94.68,-104.67 -19.26,-15.21 -42.39,-32.04 -74.34,-46.71 v 0 h -0.09 c -3.04,-1.39 -6.15,-2.76 -9.35,-4.11 l -0.55,-0.21 0.55,0.21 c -0.66,-0.27 -1.31,-0.55 -1.98,-0.82 0.48,0.2 0.96,0.4 1.43,0.61 -0.47,-0.21 -0.95,-0.41 -1.43,-0.61 -45.92,-18.98 -109.03,-33.17 -201.87,-33.17"
         style="fill:#94989a;fill-opacity:1;fill-rule:nonzero;stroke:none"
         id="path66"
         inkscape:connector-curvature="0" /><path
         d="m 4185.91,1485.28 c 0.48,0.2 0.96,0.4 1.43,0.61 -0.47,-0.21 -0.95,-0.41 -1.43,-0.61 v 0"
         style="fill:#94989a;fill-opacity:1;fill-rule:nonzero;stroke:none"
         id="path68"
         inkscape:connector-curvature="0" /><path
         d="m 4185.91,1485.28 c 0.48,0.2 0.96,0.4 1.43,0.61 -0.47,-0.21 -0.95,-0.41 -1.43,-0.61 v 0"
         style="fill:#d3d5d7;fill-opacity:1;fill-rule:nonzero;stroke:none"
         id="path70"
         inkscape:connector-curvature="0" /><path
         d="m 4187.34,1485.89 0.55,0.21 v 0 l -0.55,-0.21"
         style="fill:#94989a;fill-opacity:1;fill-rule:nonzero;stroke:none"
         id="path72"
         inkscape:connector-curvature="0" /><path
         d="m 4187.34,1485.89 0.55,0.21 v 0 l -0.55,-0.21"
         style="fill:#d3d5d7;fill-opacity:1;fill-rule:nonzero;stroke:none"
         id="path74"
         inkscape:connector-curvature="0" /><path
         d="m 4173.84,4340.51 c -2.79,3.33 -5.67,6.57 -8.46,9.81 l -1.89,2.07 c -0.9,1.08 -1.8,2.16 -2.7,3.24 -2.61,3.06 -5.22,6.03 -7.74,9.09 -1.17,1.35 -2.34,2.61 -3.42,3.96 -2.25,2.7 -4.5,5.4 -6.75,8.1 l -2.16,2.61 c -14.76,17.73 -28.53,35.28 -41.31,52.56 l -0.99,1.35 c -28.62,38.97 -51.84,77.04 -68.85,115.47 l 1.08,7.92 -1.08,-7.83 c -26.01,59.04 -37.17,118.98 -29.43,184.68 7.83,65.52 34.47,104.85 68.76,125.28 l 0.54,-0.72 0.09,1.17 c 21.08,12.43 44.95,17.79 69.07,17.79 7.49,0 15,-0.52 22.46,-1.5 v -0.09 c 19.53,-2.61 38.7,-8.46 56.07,-16.65 v -0.18 l 0.18,0.18 0.27,-0.09 c 2.52,-1.17 5.04,-2.52 7.56,-3.78 l 1.35,-0.81 c 2.43,-1.26 4.86,-2.61 7.2,-4.05 l 1.35,-0.81 c 2.43,-1.44 4.68,-2.97 6.93,-4.41 l 1.17,-0.81 c 1.26,-0.9 2.61,-1.8 3.87,-2.7 v -0.09 c 3.6,-2.61 7.02,-5.31 10.17,-8.1 l -83.34,-492.66"
         style="fill:#94989a;fill-opacity:1;fill-rule:nonzero;stroke:none"
         id="path76"
         inkscape:connector-curvature="0" /><path
         d="m 4668.57,3803.75 c -113.67,144.27 -236.52,260.91 -378.09,410.31 -6.93,7.38 -13.68,14.58 -20.43,21.69 l 54.9,287.46 c 9.81,-0.81 161.19,-14.49 260.64,-26.28 101.61,-12.15 290.79,-38.07 294.84,-38.7 l -211.86,-654.48"
         style="fill:#94989a;fill-opacity:1;fill-rule:nonzero;stroke:none"
         id="path78"
         inkscape:connector-curvature="0" /><path
         d="m 2794.77,1941.38 -377.19,1137.87 c 8.28,0.45 65.7,4.14 127.62,9.36 66.87,5.67 273.78,-3.78 494.37,125.37 l 0.45,0.27 c 71.64,42.03 131.94,94.86 180.9,153.99 l 82.71,-1230.57 c -19.35,-26.01 -43.92,-48.51 -69.21,-67.68 l 0.09,-0.63 c -7.47,-7.11 -21.6,-18.54 -44.82,-32.85 v 0 c -3.51,-2.17 -7.23,-4.4 -11.17,-6.7 -2.94,-1.71 -6.02,-3.49 -9.26,-5.27 3.24,1.78 6.32,3.56 9.26,5.27 -14.51,-8.47 -31.95,-17.77 -52.91,-27.68 -64.35,-30.33 -124.47,-39.6 -171.81,-44.55 -47.34,-4.95 -159.03,-16.2 -159.03,-16.2"
         style="fill:#94989a;fill-opacity:1;fill-rule:nonzero;stroke:none"
         id="path80"
         inkscape:connector-curvature="0" /><path
         d="m 3189.69,2036.51 v 0 0"
         style="fill:#94989a;fill-opacity:1;fill-rule:nonzero;stroke:none"
         id="path82"
         inkscape:connector-curvature="0" /><path
         d="m 3189.69,2036.51 v 0 0"
         style="fill:#d3d5d7;fill-opacity:1;fill-rule:nonzero;stroke:none"
         id="path84"
         inkscape:connector-curvature="0" /><path
         d="m 3169.26,2024.54 c 3.24,1.78 6.32,3.56 9.26,5.27 v 0 c -2.94,-1.71 -6.02,-3.49 -9.26,-5.27"
         style="fill:#94989a;fill-opacity:1;fill-rule:nonzero;stroke:none"
         id="path86"
         inkscape:connector-curvature="0" /><path
         d="m 3169.26,2024.54 c 3.24,1.78 6.32,3.56 9.26,5.27 v 0 c -2.94,-1.71 -6.02,-3.49 -9.26,-5.27"
         style="fill:#d3d5d7;fill-opacity:1;fill-rule:nonzero;stroke:none"
         id="path88"
         inkscape:connector-curvature="0" /><path
         d="m 2398.14,1395.53 -639.36,847.71 c 14.31,2.52 160.02,28.08 302.31,45.99 149.94,18.81 315.81,34.83 315.81,34.83 l 0.09,1.8 402.21,-876.6 c 0,0 -142.11,-16.92 -215.64,-27.54 -73.53,-10.62 -165.42,-26.19 -165.42,-26.19"
         style="fill:#94989a;fill-opacity:1;fill-rule:nonzero;stroke:none"
         id="path90"
         inkscape:connector-curvature="0" /><path
         d="m 1685.95,1244.43 c -84.98,0 -152.02,25.26 -218.23,67.67 l -1143.181,749.43 0.09,0.27 c 15.93,-6.84 32.672,-13.14 50.043,-18.63 66.523,-21.15 140.234,-35.91 226.531,-35.9 110.188,0 240.883,24.07 403.197,89.63 75.33,30.42 146.52,69.3 212.31,113.22 l -0.09,-0.09 c 101.07,67.41 189.27,146.88 259.74,226.71 l 746.37,-912.51 c 0,0 -59.31,-81.99 -151.92,-145.62 -1.08,-0.72 -2.16,-1.44 -3.24,-2.16 -2.74,-1.87 -5.48,-3.72 -8.22,-5.56 2.3,1.55 4.6,3.1 6.87,4.66 -2.27,-1.56 -4.57,-3.11 -6.87,-4.66 -88.8,-59.54 -178.23,-101.93 -296.88,-120.26 -27.19,-4.2 -52.56,-6.2 -76.52,-6.2 m 381.62,132.02 -1.35,-0.9 1.35,0.9"
         style="fill:#94989a;fill-opacity:1;fill-rule:nonzero;stroke:none"
         id="path92"
         inkscape:connector-curvature="0" /><path
         d="m 2066.22,1375.55 1.35,0.9 -1.35,-0.9"
         style="fill:#94989a;fill-opacity:1;fill-rule:nonzero;stroke:none"
         id="path94"
         inkscape:connector-curvature="0" /><path
         d="m 2066.22,1375.55 1.35,0.9 -1.35,-0.9"
         style="fill:#d3d5d7;fill-opacity:1;fill-rule:nonzero;stroke:none"
         id="path96"
         inkscape:connector-curvature="0" /><path
         d="m 2059.35,1370.89 c 2.3,1.55 4.6,3.1 6.87,4.66 -2.27,-1.56 -4.57,-3.11 -6.87,-4.66 v 0"
         style="fill:#94989a;fill-opacity:1;fill-rule:nonzero;stroke:none"
         id="path98"
         inkscape:connector-curvature="0" /><path
         d="m 2059.35,1370.89 c 2.3,1.55 4.6,3.1 6.87,4.66 -2.27,-1.56 -4.57,-3.11 -6.87,-4.66 v 0"
         style="fill:#d3d5d7;fill-opacity:1;fill-rule:nonzero;stroke:none"
         id="path100"
         inkscape:connector-curvature="0" /><path
         d="m 1259.37,4377.23 -132.39,263.07 c 3.15,1.44 6.3,2.61 9.45,3.87 l -0.09,0.09 c 1.08,0.45 2.16,0.81 3.33,1.26 2.25,0.9 4.5,1.71 6.75,2.52 2.7,0.99 5.49,1.98 8.19,2.88 1.34,0.45 2.59,0.8 3.92,1.25 l 107.77,-218.06 v 0 l 0.09,0.18 0.18,-0.27 c -0.72,-5.31 -1.35,-10.62 -1.98,-15.75 l -0.09,-0.63 c -1.8,-14.67 -3.6,-28.53 -5.13,-40.41"
         style="fill:#94989a;fill-opacity:1;fill-rule:nonzero;stroke:none"
         id="path102"
         inkscape:connector-curvature="0" /><path
         d="m 1266.3,4434.11 -107.77,218.06 -0.05,0.1 c 10.44,3.24 20.61,5.85 30.51,7.74 7.45,1.42 14.32,2.08 20.66,2.08 60.96,0 72.32,-61.41 69.79,-105.76 -1.35,-23.58 -7.29,-75.15 -13.14,-122.22 v 0"
         style="fill:#94989a;fill-opacity:1;fill-rule:nonzero;stroke:none"
         id="path104"
         inkscape:connector-curvature="0" /><path
         d="m 1835.64,3184.1 -580.59,1153.62 c 11.79,2.25 153.09,29.07 265.95,50.76 117.81,22.68 295.02,51.84 295.02,51.84 l 102.42,-256.59 -82.8,-999.63"
         style="fill:#94989a;fill-opacity:1;fill-rule:nonzero;stroke:none"
         id="path106"
         inkscape:connector-curvature="0" /><path
         d="m 2757.51,3596.03 -248.58,1275.12 c 0.9,0.09 118.98,10.35 190.35,15.03 7.27,0.48 14.46,0.79 21.54,0.79 62.61,0 114.98,-24.24 113.28,-165.67 -1.89,-157.5 -21.69,-743.76 -26.37,-906.84 -3.24,-109.98 -9.9,-180.36 -50.22,-218.43"
         style="fill:#94989a;fill-opacity:1;fill-rule:nonzero;stroke:none"
         id="path108"
         inkscape:connector-curvature="0" /><path
         d="m 1816.02,4440.34 c 0,0 -177.22,-29.22 -295.06,-51.84 -117.83,-22.63 -266.77,-50.91 -266.77,-50.91 0,0 22.63,169.68 25.45,218.7 2.83,49.01 -11.3,118.77 -90.49,103.69 -79.18,-15.08 -181.58,-73.34 -219.642,-196.08 -46.188,-148.93 -19.551,-230.13 56.562,-324.27 143.29,-177.22 553.35,-450.58 644.77,-821.05 79.07,-320.31 38.65,-496.78 -56.55,-684.38 -91.59,-180.43 -320.51,-420.4 -609.9,-537.31 C 714.996,1980 526.148,1995.04 374.695,2043.17 193.707,2100.67 92.8359,2231.7 67.3867,2419.29 c -14.6133,107.66 44.3083,384.6 44.3083,384.6 0,0 138.575,49.02 264.887,86.72 126.305,37.72 344.063,94.28 344.063,94.28 0,0 -29.215,-197.98 -40.532,-278.11 -11.304,-80.1 11.317,-188.52 119.715,-175.33 108.418,13.19 178.164,38.65 249.802,176.29 71.64,137.62 82.96,333.69 5.66,466.61 -77.294,132.92 -170.618,237.55 -358.212,423.26 -187.586,185.7 -292.223,364.8 -303.531,602.35 -11.891,249.87 184.754,515.65 370.473,646.67 185.691,131.03 397.77,226.84 646.65,212.1 143.29,-8.49 266.78,-77.31 330.88,-149.89 64.1,-72.59 100.86,-153.65 90.49,-289.39 -10.37,-135.75 -16.02,-179.11 -16.02,-179.11"
         style="fill:#024d36;fill-opacity:1;fill-rule:nonzero;stroke:none"
         id="path110"
         inkscape:connector-curvature="0" /><path
         d="m 2807.7,3814.42 c -4.72,-163.09 -16.98,-239.43 -135.75,-251.7 -118.78,-12.25 -231.89,-21.68 -231.89,-21.68 l 68.81,1330.09 c 0,0 118.78,10.38 190.42,15.09 71.65,4.71 136.69,-7.54 134.8,-164.96 -1.89,-157.43 -21.68,-743.76 -26.39,-906.84 z m 570.3,844.62 c 0,165.91 -15.08,236.6 -101.8,377.06 -86.73,140.46 -279.03,207.38 -411.95,222.47 -132.91,15.08 -308.24,-8.49 -496.77,-28.28 -188.53,-19.8 -365.76,-42.43 -365.76,-42.43 L 1757.57,2243 c 0,0 153.66,27.34 303.54,46.19 149.88,18.86 315.79,34.87 315.79,34.87 l 39.59,755.08 c 0,0 61.76,3.81 128.7,9.47 66.92,5.64 273.82,-3.81 494.4,125.33 220.58,129.15 334.64,361.04 337.48,564.65 2.82,203.62 0.93,714.54 0.93,880.45"
         style="fill:#024d36;fill-opacity:1;fill-rule:nonzero;stroke:none"
         id="path112"
         inkscape:connector-curvature="0" /><path
         d="m 4269.76,2818.02 c -89.55,1.77 -246.04,65.99 -253.59,245.1 -7.54,179.1 -9.4,254.52 -9.4,254.52 0,0 -177.25,7.54 -280.92,12.24 -103.7,4.73 -304.48,4.73 -304.48,4.73 0,0 0,-77.3 0,-236.61 0,-159.31 80.12,-390.26 297.86,-563.7 217.76,-173.46 561.83,-244.18 821.07,-187.6 259.23,56.56 476.05,276.19 485.46,565.59 9.44,289.4 -104.63,516.58 -248.85,739.99 -144.23,223.4 -298.84,363.86 -486.41,561.82 -187.59,197.96 -312.02,336.53 -290.34,519.41 21.68,182.87 190.42,162.14 261.12,96.15 70.69,-65.99 59.36,-202.67 60.31,-249.8 0.96,-47.13 2.85,-56.57 2.85,-56.57 0,0 158.35,-14.13 261.12,-26.39 102.73,-12.25 295.04,-38.65 295.04,-38.65 0,0 -7.53,137.63 -18.86,227.18 -11.3,89.55 -69.75,252.63 -211.14,366.69 -123.92,99.96 -298.83,202.68 -558.06,204.56 -229.07,1.67 -406.3,-82.95 -514.72,-220.58 -108.38,-137.62 -129.26,-275.16 -107.43,-455.3 21.66,-179.11 178.1,-397.01 433.6,-677.78 238.51,-262.06 473.51,-513.4 508.11,-736.21 32.06,-206.45 0.94,-351.63 -142.34,-348.79"
         style="fill:#024d36;fill-opacity:1;fill-rule:nonzero;stroke:none"
         id="path114"
         inkscape:connector-curvature="0" /><path
         d="m 4920.19,5172.78 c 0,0 188.53,-27.33 272.43,-42.41 83.9,-15.09 260.17,-48.08 260.17,-48.08 0,0 237.53,-1964.5 249.81,-2090.82 12.25,-126.31 44.3,-291.29 155.54,-378 111.24,-86.73 199.41,-90.93 235.66,-84.84 41.74,7.02 46.21,67.88 46.21,99.93 0,32.05 -8.51,139.5 -16.05,191.35 -7.52,51.85 -305.42,2182.25 -305.42,2182.25 0,0 156.49,-34.87 277.14,-67.87 120.68,-32.99 263.97,-74.46 263.97,-74.46 0,0 338.42,-1984.32 376.1,-2202.05 37.71,-217.77 0.94,-392.16 -77.29,-491.12 -78.25,-99 -181.95,-161.22 -369.51,-169.7 -187.6,-8.49 -502.34,102.19 -696.65,237.55 -198.88,138.57 -446.81,397.82 -483.56,825.77 -36.78,427.98 -188.55,2112.5 -188.55,2112.5"
         style="fill:#024d36;fill-opacity:1;fill-rule:nonzero;stroke:none"
         id="path116"
         inkscape:connector-curvature="0" /><path
         d="m 1750.5,4493.6 c 16.97,172.5 51.12,306.29 -132.92,435.5 -199.36,139.99 -533.06,52.32 -733.85,-79.18 -200.785,-131.5 -402.988,-346.43 -402.988,-651.84 0,-305.43 250.274,-504.8 340.774,-600.95 90.488,-96.15 381.774,-339.36 381.774,-627.8 0,-250.29 -123.02,-405.83 -231.899,-468.04 -93.063,-53.19 -264.418,-82.02 -330.871,12.74 -66.461,94.73 -33.934,214.9 -28.278,260.17 5.656,45.23 16.961,107.45 16.961,107.45 0,0 -124.422,-33.93 -223.402,-62.22 -98.977,-28.27 -210.684,-65.04 -210.684,-65.04 0,0 -18.383,-108.88 -31.113,-192.3 -12.719,-83.42 -5.652,-301.18 175.344,-401.58 180.988,-100.38 472.261,-98.98 767.792,73.54 295.53,172.5 528.82,453.88 528.82,764.96 0,311.07 -110.29,564.19 -378.94,811.63 -268.657,247.45 -462.379,401.57 -352.082,674.47 110.292,272.9 371.882,263 417.122,209.28 45.25,-53.73 50.91,-110.29 31.11,-246.04 l -4.24,-26.87 c 0,0 101.81,19.8 196.54,38.18 94.74,18.38 205.03,33.94 205.03,33.94"
         style="fill:#ffffff;fill-opacity:1;fill-rule:nonzero;stroke:none"
         id="path118"
         inkscape:connector-curvature="0" /><path
         d="m 2894.41,3752.67 c -1.41,-84.84 -28.28,-161.19 -66.46,-197.96 -38.16,-36.76 -104.63,-59.39 -173.91,-66.45 -69.28,-7.07 -291.29,-28.29 -291.29,-28.29 l 80.61,1469.13 c 0,0 190.88,12.73 267.24,19.8 76.36,7.07 156.95,-26.87 180.99,-84.84 24.04,-57.98 26.86,-113.12 26.86,-154.12 0,-41.01 -22.62,-872.43 -24.04,-957.27 z m 226.24,1354.6 c -168.25,124.43 -393.09,98.98 -629.22,76.35 -236.14,-22.62 -411.47,-45.25 -411.47,-45.25 L 1859.38,2340.1 c 0,0 111.7,18.38 231.89,33.93 120.19,15.55 209.27,24.02 209.27,24.02 l 43.84,748.02 c 0,0 176.74,19.79 356.32,33.93 179.57,14.14 360.57,117.36 472.27,241.79 111.71,124.44 128.68,325.22 130.09,384.61 1.41,59.39 5.65,878.08 5.65,926.16 0,48.08 -19.79,250.28 -188.06,374.71"
         style="fill:#ffffff;fill-opacity:1;fill-rule:nonzero;stroke:none"
         id="path120"
         inkscape:connector-curvature="0" /><path
         d="m 4407.38,4582.68 c 0,0 101.81,-8.49 192.31,-19.8 90.5,-11.32 206.44,-26.86 206.44,-26.86 0,0 -10.9,140.28 -32.53,221.99 -38.17,144.23 -255.92,444.06 -687.19,442.58 -412.87,-1.41 -542.97,-318.15 -541.55,-516.11 1.04,-144.22 79.18,-340.76 272.89,-561.35 184.5,-210.09 521.76,-568.42 600.94,-726.78 79.19,-158.38 103.21,-265.73 94.74,-383.19 -9.9,-137.16 -43.84,-207.86 -135.74,-254.52 -112.81,-57.29 -310.17,21.26 -390.26,145.62 -66.45,103.25 -53.75,345.02 -53.75,345.02 0,0 -138.54,7.08 -216.31,8.49 -77.77,1.42 -205.05,4.24 -205.05,4.24 0,0 1.16,-131.51 0,-168.26 -2.82,-90.5 62.19,-338.66 260.19,-487.83 206.45,-155.54 497.99,-230.35 698.52,-188.04 234.69,49.46 487.81,203.59 479.32,564.17 -9.11,387.38 -282.8,749.4 -591.04,1068.97 -308.25,319.56 -472.55,471.44 -424.19,718.3 26.86,137.16 140.05,175.68 213.51,172.51 229.06,-9.91 246.03,-196.55 250.27,-264.42 5.04,-80.64 8.48,-94.73 8.48,-94.73"
         style="fill:#ffffff;fill-opacity:1;fill-rule:nonzero;stroke:none"
         id="path122"
         inkscape:connector-curvature="0" /><path
         d="m 6221.53,2769.95 c -28.55,222.32 -308.26,2150.67 -308.26,2150.67 0,0 135.76,-33.93 203.61,-52.31 67.89,-18.39 181,-50.91 181,-50.91 0,0 308.71,-1801.92 363.4,-2190.27 56.55,-401.56 -150.07,-517.47 -319.57,-540.14 -221.97,-29.7 -606.59,93.33 -852.62,347.86 -242.69,251.03 -278.56,484.98 -298.37,718.29 -19.78,233.31 -180.97,1948.47 -180.97,1948.47 0,0 138.57,-22.62 190.88,-31.11 52.3,-8.48 190.89,-35.34 190.89,-35.34 0,0 199.45,-1740.78 233.3,-2020.59 32.53,-268.66 56.52,-281.5 110.3,-369.06 60.8,-98.98 222,-212.1 369.05,-196.54 131.25,13.9 144.24,111.7 117.36,320.98"
         style="fill:#ffffff;fill-opacity:1;fill-rule:nonzero;stroke:none"
         id="path124"
         inkscape:connector-curvature="0" /></g></g></svg>