<?xml version="1.0" encoding="UTF-8" standalone="no"?>
<!-- Created with Inkscape (http://www.inkscape.org/) -->

<svg
   xmlns:dc="http://purl.org/dc/elements/1.1/"
   xmlns:cc="http://creativecommons.org/ns#"
   xmlns:rdf="http://www.w3.org/1999/02/22-rdf-syntax-ns#"
   xmlns:svg="http://www.w3.org/2000/svg"
   xmlns="http://www.w3.org/2000/svg"
   xmlns:sodipodi="http://sodipodi.sourceforge.net/DTD/sodipodi-0.dtd"
   xmlns:inkscape="http://www.inkscape.org/namespaces/inkscape"
   version="1.1"
   id="svg2"
   xml:space="preserve"
   width="1143.84"
   height="863.8667"
   viewBox="0 0 1143.84 863.8667"
   sodipodi:docname="Hornets Type.svg"
   inkscape:version="0.92.1 r15371"><metadata
     id="metadata8"><rdf:RDF><cc:Work
         rdf:about=""><dc:format>image/svg+xml</dc:format><dc:type
           rdf:resource="http://purl.org/dc/dcmitype/StillImage" /><dc:title></dc:title></cc:Work></rdf:RDF></metadata><defs
     id="defs6"><clipPath
       clipPathUnits="userSpaceOnUse"
       id="clipPath124"><path
         d="M 1345.35,4666.03 1136.2,3766.11 C 984.453,3733.52 849.293,3692.44 752.922,3651.62 L 992.93,4585.39 C 869.703,4555.4 765.48,4528.32 701.715,4511.26 L 126.855,2438.74 c 94.083,27.48 208.59,59.96 338.809,95.31 l 187.832,731.92 c 127.945,110.49 260.906,178.11 418.824,227.65 L 873.621,2640.36 c 106.406,26.58 218.039,53.53 333.409,80.23 l 425.43,2000.52 c -90.76,-15.09 -188.93,-34.27 -287.11,-55.08 z"
         id="path122"
         inkscape:connector-curvature="0" /></clipPath><linearGradient
       x1="0"
       y1="0"
       x2="1"
       y2="0"
       gradientUnits="userSpaceOnUse"
       gradientTransform="matrix(-191.27,-1959.21,-1959.21,191.27,981.294,4621.09)"
       spreadMethod="pad"
       id="linearGradient132"><stop
         style="stop-opacity:1;stop-color:#ffffff"
         offset="0"
         id="stop126" /><stop
         style="stop-opacity:1;stop-color:#ffffff"
         offset="0.527473"
         id="stop128" /><stop
         style="stop-opacity:1;stop-color:#94989a"
         offset="1"
         id="stop130" /></linearGradient><clipPath
       clipPathUnits="userSpaceOnUse"
       id="clipPath142"><path
         d="m 4761.29,4810.99 c -19.14,0.34 -38.18,0.63 -57.16,0.91 l 20.09,-997.5 -439.26,998.33 c -90.7,-0.94 -178.38,-2.54 -262.65,-4.66 l -58.84,-1743.55 c 109.66,3.47 214.33,5.74 315.33,6.81 l 8.12,1098.91 478.18,-1103.34 c 97.52,-2.97 193.58,-7.17 289.74,-12.62 l -78.37,1750.22 c -72.08,3.01 -143.92,5.22 -215.18,6.49 z"
         id="path140"
         inkscape:connector-curvature="0" /></clipPath><linearGradient
       x1="0"
       y1="0"
       x2="1"
       y2="0"
       gradientUnits="userSpaceOnUse"
       gradientTransform="matrix(-98.2191,-1742.1,-1742.1,98.2191,4587.46,4798.05)"
       spreadMethod="pad"
       id="linearGradient150"><stop
         style="stop-opacity:1;stop-color:#ffffff"
         offset="0"
         id="stop144" /><stop
         style="stop-opacity:1;stop-color:#ffffff"
         offset="0.527473"
         id="stop146" /><stop
         style="stop-opacity:1;stop-color:#94989a"
         offset="1"
         id="stop148" /></linearGradient><clipPath
       clipPathUnits="userSpaceOnUse"
       id="clipPath160"><path
         d="m 7015.24,4555.93 c -197.7,40.56 -534.67,99.44 -931.59,150.57 l 26.95,-214.99 c 111.17,-13.65 224.82,-28.82 332.33,-45.21 l 237.09,-1572.37 c 123.06,-19.45 230.51,-37.77 318.77,-53.57 l -272.94,1578.83 c 177.57,-30.59 279.71,-49.12 333.56,-59.15 z"
         id="path158"
         inkscape:connector-curvature="0" /></clipPath><linearGradient
       x1="0"
       y1="0"
       x2="1"
       y2="0"
       gradientUnits="userSpaceOnUse"
       gradientTransform="matrix(-61.186,-1730.31,-1730.31,61.186,6574.6,4610.11)"
       spreadMethod="pad"
       id="linearGradient168"><stop
         style="stop-opacity:1;stop-color:#ffffff"
         offset="0"
         id="stop162" /><stop
         style="stop-opacity:1;stop-color:#ffffff"
         offset="0.527473"
         id="stop164" /><stop
         style="stop-opacity:1;stop-color:#94989a"
         offset="1"
         id="stop166" /></linearGradient><clipPath
       clipPathUnits="userSpaceOnUse"
       id="clipPath178"><path
         d="m 5552.85,3300.96 -43.94,536.99 c 155.82,-10.68 391.86,-29.63 589.38,-63.09 l -29.66,241.3 c -166.96,23.1 -354.51,41.06 -579.07,57.95 l -39.77,486.23 c 92.45,-7.72 312.37,-27.96 558.86,-56.65 l -26.5,215.53 c -259.45,31.68 -540.51,59.27 -822.49,76.01 l 100.46,-1754.38 c 96.89,-7.11 195.01,-15.45 295.97,-24.97 229.24,-21.54 446.48,-46.75 644.52,-72.73 l -34.96,284.18 c -174.8,28.62 -440.61,62.21 -612.8,73.63 z"
         id="path176"
         inkscape:connector-curvature="0" /></clipPath><linearGradient
       x1="0"
       y1="0"
       x2="1"
       y2="0"
       gradientUnits="userSpaceOnUse"
       gradientTransform="matrix(-31.017,-1757.63,-1757.63,31.017,5695.62,4746.97)"
       spreadMethod="pad"
       id="linearGradient186"><stop
         style="stop-opacity:1;stop-color:#ffffff"
         offset="0"
         id="stop180" /><stop
         style="stop-opacity:1;stop-color:#ffffff"
         offset="0.527473"
         id="stop182" /><stop
         style="stop-opacity:1;stop-color:#94989a"
         offset="1"
         id="stop184" /></linearGradient><clipPath
       clipPathUnits="userSpaceOnUse"
       id="clipPath196"><path
         d="m 8454.38,2980.16 c -16.38,81.68 -46.75,170.37 -75.47,248.55 -10.12,27.49 -21.59,54.46 -34.66,80.68 -26.97,54 -59.64,109 -97.44,156.25 -76.43,95.53 -168.51,177.43 -270.44,245.19 -177.87,118.24 -427.15,199.76 -524.73,407.22 -23.76,50.53 -32.62,115.78 -24.56,171.24 23.41,161.02 242.08,108.96 322.63,28.07 32.94,-33.09 62.59,-76.35 81.67,-119.04 7.37,-16.47 45.87,-146.64 47.1,-164.69 l 300.48,-79.48 c -9.16,53.67 -60.09,228.75 -122.12,317.92 -45.01,64.68 -90.53,127.26 -150.16,179.52 -134.08,117.52 -371.54,221.59 -551.84,174.75 -177.42,-46.09 -226.43,-267.73 -186.23,-422.71 36.26,-139.71 108.29,-280.9 208.21,-385.71 56.91,-59.7 126.06,-114.05 196.59,-156.85 67.7,-41.1 138.94,-75.31 207.88,-114.08 87.39,-49.12 172.33,-104.16 236.52,-182.43 58.55,-71.39 114.15,-181.16 138.13,-269.96 19.27,-71.41 47.62,-198.01 -20.4,-250.41 -75.01,-57.74 -231.99,22.67 -298,65.72 -79.47,51.8 -148.04,149.88 -168.42,243.62 -19.37,89.17 -23.27,120.19 -23.27,120.19 l -314.04,69.78 c 0,0 11.62,-89.17 34.9,-168.65 25.88,-88.38 52.16,-177.5 96.78,-258.57 72.52,-131.74 195.81,-239.03 327.12,-308.77 104.18,-55.36 229.14,-103.77 346.86,-117.04 33.81,-3.78 67.86,-4.12 101.59,0.71 82.74,11.85 161.52,58.42 205.49,130.53 57.48,94.27 36.54,222.24 16.81,323.08 -2.3,11.8 -4.62,23.59 -6.98,35.37 z"
         id="path194"
         inkscape:connector-curvature="0" /></clipPath><linearGradient
       x1="0"
       y1="0"
       x2="1"
       y2="0"
       gradientUnits="userSpaceOnUse"
       gradientTransform="matrix(-67.2062,-2026.44,-2026.44,67.2062,7851.76,4540.83)"
       spreadMethod="pad"
       id="linearGradient204"><stop
         style="stop-opacity:1;stop-color:#ffffff"
         offset="0"
         id="stop198" /><stop
         style="stop-opacity:1;stop-color:#ffffff"
         offset="0.527473"
         id="stop200" /><stop
         style="stop-opacity:1;stop-color:#94989a"
         offset="1"
         id="stop202" /></linearGradient><clipPath
       clipPathUnits="userSpaceOnUse"
       id="clipPath214"><path
         d="m 2394.32,4293.39 c -5.82,-44.59 -129.89,-870.4 -139.58,-934.37 -9.69,-63.98 -48.47,-112.44 -75.6,-137.65 -27.14,-25.2 -102.75,-87.22 -221,-81.42 -118.25,5.82 -129.88,96.93 -120.19,157.04 9.7,60.09 149.27,860.71 166.71,944.07 17.45,83.36 87.24,172.52 174.48,193.85 58.98,14.42 159.97,19.16 195.79,-25.2 32.22,-39.89 25.2,-71.73 19.39,-116.32 z m 189.98,312.11 c -114.38,102.75 -330.27,75.81 -438.12,38.77 -253.94,-87.23 -405.15,-290.78 -430.35,-430.35 -21.83,-120.85 -176.42,-903.37 -191.92,-978.98 -15.51,-75.59 -5.82,-186.09 48.46,-257.81 54.28,-71.73 158.96,-153.14 385.77,-120.21 226.81,32.97 376.09,155.1 445.86,230.7 69.8,75.6 135.71,164.77 160.91,337.3 25.2,172.53 108.56,827.77 118.25,916.94 9.7,89.18 15.51,160.9 -98.86,263.64 z"
         id="path212"
         inkscape:connector-curvature="0" /></clipPath><linearGradient
       x1="0"
       y1="0"
       x2="1"
       y2="0"
       gradientUnits="userSpaceOnUse"
       gradientTransform="matrix(-25.8477,-1767.96,-1767.96,25.8477,2115.11,4645.11)"
       spreadMethod="pad"
       id="linearGradient222"><stop
         style="stop-opacity:1;stop-color:#ffffff"
         offset="0"
         id="stop216" /><stop
         style="stop-opacity:1;stop-color:#ffffff"
         offset="0.527473"
         id="stop218" /><stop
         style="stop-opacity:1;stop-color:#94989a"
         offset="1"
         id="stop220" /></linearGradient><clipPath
       clipPathUnits="userSpaceOnUse"
       id="clipPath232"><path
         d="m 3439.9,4094.35 c -33.33,-27.4 -59.94,-33.45 -115.72,-40.69 -53,-6.88 -112.38,-16.95 -198.26,-30.26 l 49.52,520.24 c 43.62,8.72 85.25,17.57 131.93,21.16 126.01,9.68 205.49,-11.64 230.7,-145.4 25.2,-133.76 -44.19,-280.66 -98.17,-325.05 z m 311.4,-6.44 c 127.95,222.93 65.92,403.22 36.84,471.08 -29.08,67.84 -145.4,226.8 -315.99,222.92 -77.23,-1.76 -180.28,-7.49 -278.4,-14.31 l -278.38,-31.42 -21.77,-190.01 -177.72,-1557.39 c 88.88,9.49 176.4,17.34 261.94,23.24 17.78,1.21 35.42,2.42 52.95,3.59 l 73.18,786.68 c 33.4,15.84 87.48,24.24 149.02,29.95 12.14,0.96 23.37,1.89 33.84,2.85 l 225.24,-790.1 c 114.03,6.07 222.41,11.09 326.19,15.11 l -295.4,838.47 c 73.62,35.54 153.66,93.85 208.46,189.34 z"
         id="path230"
         inkscape:connector-curvature="0" /></clipPath><linearGradient
       x1="0"
       y1="0"
       x2="1"
       y2="0"
       gradientUnits="userSpaceOnUse"
       gradientTransform="matrix(36.1844,-1767.95,-1767.95,-36.1844,3250.16,4766.23)"
       spreadMethod="pad"
       id="linearGradient240"><stop
         style="stop-opacity:1;stop-color:#ffffff"
         offset="0"
         id="stop234" /><stop
         style="stop-opacity:1;stop-color:#ffffff"
         offset="0.527473"
         id="stop236" /><stop
         style="stop-opacity:1;stop-color:#94989a"
         offset="1"
         id="stop238" /></linearGradient></defs><sodipodi:namedview
     pagecolor="#ffffff"
     bordercolor="#666666"
     borderopacity="1"
     objecttolerance="10"
     gridtolerance="10"
     guidetolerance="10"
     inkscape:pageopacity="0"
     inkscape:pageshadow="2"
     inkscape:window-width="1440"
     inkscape:window-height="843"
     id="namedview4"
     showgrid="false"
     inkscape:zoom="0.2731903"
     inkscape:cx="-68.659137"
     inkscape:cy="431.93335"
     inkscape:window-x="0"
     inkscape:window-y="31"
     inkscape:window-maximized="1"
     inkscape:current-layer="g10" /><g
     id="g10"
     inkscape:groupmode="layer"
     inkscape:label="ink_ext_XXXXXX"
     transform="matrix(1.3333333,0,0,-1.3333333,0,863.86667)"><g
       id="g12"
       transform="scale(0.1)"><path
         d="m 7154.55,1797.56 c 0,-114.48 -81.09,-255.15 -180.63,-312.21 L 4476.78,42.7422 c -99,-56.9727 -261.9,-56.9727 -360.99,0 L 1618.29,1485.35 c -99.45,57.15 -180.63,197.73 -180.63,312.21 v 2884.05 c 0,114.57 81.18,255.33 180.63,312.39 l 2497.5,1441.89 c 99.09,57.51 261.99,57.51 360.99,0 L 6973.92,4994 c 99.54,-57.06 180.63,-197.82 180.63,-312.39 V 1797.56"
         style="fill:#bec1c3;fill-opacity:1;fill-rule:nonzero;stroke:none"
         id="path14"
         inkscape:connector-curvature="0" /><path
         d="m 6959.16,5088.14 c 0,9.54 -2.25,18.99 -6.57,27.72 -8.82,17.73 -25.47,30.06 -45,33.39 -24.21,4.23 -56.79,9.63 -93.51,15.66 -3.33,0.54 -6.66,0.81 -10.08,0.81 -24.03,0 -46.26,-13.95 -56.43,-36.45 l -11.97,-26.37 -43.38,62.46 c -9.54,13.86 -24.57,23.31 -41.22,25.92 -39.15,6.21 -75.78,11.88 -105.75,16.38 -3.06,0.54 -6.21,0.72 -9.27,0.72 -21.51,0 -41.76,-11.16 -53.1,-29.97 -4.59,-7.56 -7.29,-15.75 -8.37,-23.94 l -38.52,-83.07 -16.65,111.15 c -4.05,26.82 -25.11,47.97 -51.84,52.11 -34.74,5.4 -65.79,10.17 -90.18,13.77 -2.88,0.45 -5.94,0.63 -8.91,0.63 -16.29,0 -32.04,-6.39 -43.92,-18.09 -9.9,-9.99 -15.93,-22.77 -17.64,-36.27 l -1.8,-4.59 c -6.57,7.83 -13.86,15.39 -21.87,22.59 -47.97,42.39 -116.46,69.21 -182.79,74.97 -7.02,0.54 -13.68,0.81 -20.34,0.81 h -0.54 -0.72 c -48.96,0 -89.64,-14.13 -119.34,-36.36 -11.97,-8.91 -21.96,-18.72 -30.06,-28.8 -3.06,4.32 -6.21,8.37 -9.45,12.33 -24.21,28.35 -54.27,47.52 -82.89,61.11 -29.07,13.5 -57.42,22.05 -83.79,24.75 -23.04,2.25 -69.39,6.39 -110.16,9.9 -20.34,1.8 -39.24,3.51 -53.01,4.68 -6.93,0.63 -12.6,1.08 -16.56,1.44 -1.98,0.18 -3.51,0.27 -4.5,0.36 l -1.17,0.09 -0.27,0.09 0.18,-0.09 h 0.27 c 0.36,0 -0.18,0.09 1.89,-0.27 l -2.34,0.36 h -0.09 -0.09 c -1.71,0.09 -3.51,0.18 -5.4,0.18 -16.29,0.09 -32.22,-6.39 -43.83,-18.18 -8.01,-7.92 -13.14,-17.73 -15.84,-27.63 l -0.72,-2.61 -0.63,-2.97 v -0.09 l -90.36,-408.24 c -25.65,1.89 -51.39,3.6 -77.13,5.31 l 5.58,29.07 c 4.5,8.73 7.02,18.54 7.02,28.62 0,1.26 -0.09,2.25 -0.09,2.97 v 0.63 l -20.79,355.68 c -1.8,31.5 -27,56.61 -58.5,58.32 -29.34,1.53 -58.95,3.06 -88.65,4.5 -0.81,0.09 -1.89,0.09 -3.06,0.09 -16.38,0 -32.22,-6.48 -43.92,-18.27 -11.52,-11.43 -18.09,-27.27 -18.09,-43.74 0,-0.36 0,-1.26 0,-2.43 l -3.51,-25.11 -63.45,75.24 c -11.16,13.23 -27.63,21.33 -45,21.96 -3.69,0.09 -7.38,0.27 -11.07,0.36 -22.86,0.9 -45.54,1.71 -67.5,2.52 -0.45,0 -1.17,0.09 -2.25,0.09 -16.29,0 -32.22,-6.57 -43.74,-18.18 -11.7,-11.52 -18.27,-27.36 -18.27,-43.83 0,0 0,-0.81 0.09,-2.25 v -0.99 c -17.91,22.14 -40.68,37.62 -63.09,47.88 -29.79,13.77 -60.39,19.98 -88.47,22.68 -27.09,2.52 -68.22,3.15 -107.64,3.42 l -87.39,-0.18 c -16.38,-0.09 -31.32,-6.48 -42.39,-16.92 -11.43,10.71 -26.64,16.74 -42.39,16.74 h -0.09 c -79.47,-0.18 -164.88,-0.9 -272.43,-3.06 -7.47,-0.18 -15.21,-0.36 -22.95,-0.54 -17.91,-0.45 -33.93,-8.46 -45,-20.88 l -0.54,0.54 c -11.7,11.7 -27.54,18.27 -44.01,18.27 -0.36,0 -1.08,0 -2.25,0 -28.08,-0.99 -57.15,-2.07 -86.76,-3.33 -32.22,-1.26 -57.96,-27 -59.49,-59.13 l -3.96,-85.68 c -4.5,-0.18 -8.91,-0.36 -13.23,-0.45 l -9.99,73.89 c 0,0.9 0,1.8 0,2.61 0,16.29 -6.39,31.95 -17.91,43.65 -11.7,11.79 -27.54,18.36 -44.1,18.36 -0.72,0 -1.71,0 -2.97,-0.09 v 0.09 c -29.7,-1.44 -59.13,-2.97 -88.02,-4.5 -14.4,-0.72 -27.45,-6.39 -37.62,-15.21 -10.17,6.93 -22.41,10.8 -34.92,10.8 -0.9,0 -1.98,0 -3.51,-0.09 -59.76,-3.33 -114.75,-6.57 -160.11,-9.45 -44.64,-2.88 -102.24,-7.56 -164.07,-12.96 -12.78,-1.17 -24.48,-6.12 -33.84,-13.77 -9,4.86 -19.08,7.47 -29.52,7.47 -1.71,0 -3.78,-0.09 -6.03,-0.36 -29.07,-2.61 -58.68,-5.4 -87.66,-8.19 -29.34,-2.79 -52.74,-26.01 -55.8,-55.35 -2.16,-20.97 -5.76,-55.98 -9.63,-92.43 l -22.95,74.7 c -0.99,14.58 -7.11,28.44 -17.55,39.06 -11.79,12.06 -27.72,18.72 -44.37,18.72 -1.98,0 -4.14,-0.09 -6.57,-0.36 -38.16,-3.96 -69.21,-7.29 -88.56,-9.54 -28.53,-3.24 -51.03,-25.56 -54.54,-54 -0.99,-7.47 -2.16,-17.01 -3.51,-27.81 -20.97,24.93 -47.7,39.33 -72.81,47.88 -27.72,9.45 -55.71,12.78 -81.45,12.87 -15.66,0 -30.69,-1.26 -44.91,-3.87 l -0.81,-0.18 c -67.5,-12.6 -124.38,-45.99 -165.24,-82.53 -6.3,-5.67 -11.97,-11.7 -17.01,-17.91 -4.23,6.21 -9.63,11.7 -16.02,16.11 -31.41,21.87 -74.34,36.36 -127.44,36.36 h -1.26 c -8.01,0 -16.2,-0.36 -24.75,-0.99 -33.21,-2.34 -70.92,-9.72 -107.82,-22.59 -36.72,-13.14 -74.07,-31.5 -103.86,-62.01 -38.34,-39.51 -61.02,-85.05 -61.11,-132.57 v -0.09 c 0,-11.97 1.44,-23.67 4.14,-35.01 4.23,-17.73 12.96,-33.12 23.67,-45.27 l 7.29,-13.23 -68.49,-57.24 c -14.13,-11.7 -22.32,-29.25 -22.32,-47.61 0,-0.27 0,-0.99 0.09,-2.16 0.45,-14.85 6.39,-29.07 16.29,-39.87 l 77.22,-131.85 169.83,-290.07 142.02,-242.64 304.11,-519.75 c 5.85,-9.9 17.37,-15.12 28.71,-12.87 459.81,90.63 984.15,142.02 1540.71,142.02 734.49,0 1412.91,-89.55 1960.65,-240.57 2.34,-0.63 4.77,-0.99 7.2,-0.99 9.36,0 18.27,4.86 23.31,13.23 l 319.95,535.68 377.01,631.17 32.49,54.36 c 11.16,11.61 17.37,27.09 17.37,43.02 -0.09,3.69 -0.36,7.38 -0.99,11.07 l -24.21,132.57 88.29,171.63 c 4.5,8.91 6.84,18.63 6.84,28.35"
         style="fill:#024d36;fill-opacity:1;fill-rule:nonzero;stroke:none"
         id="path16"
         inkscape:connector-curvature="0" /><path
         d="m 8556.48,2963.33 -30.42,-5.85 30.42,5.94 c -2.34,11.88 -4.68,23.76 -7.11,35.82 -18.27,90.81 -50.22,183.06 -79.47,262.89 -11.25,30.51 -24.12,60.84 -38.97,90.54 -29.25,58.5 -64.89,118.89 -108.45,173.52 -52.2,65.25 -110.97,124.29 -174.42,177.21 19.53,20.34 106.29,110.88 120.06,123.75 4.95,4.68 8.37,8.37 10.8,11.7 1.08,0.72 2.16,1.53 3.15,2.52 7.83,7.11 11.43,17.64 9.63,28.08 l -17.19,100.98 c -6.48,36.63 -22.14,94.86 -45.36,161.46 -23.49,66.06 -52.74,137.43 -92.7,195.39 -45.81,65.7 -95.76,135.63 -165.87,197.19 -64.62,56.52 -145.8,107.55 -235.08,145.98 -89.37,38.16 -187.11,64.17 -285.66,64.35 -39.87,0 -80.01,-4.41 -119.43,-14.67 -48.96,-12.51 -91.53,-35.46 -127.08,-64.71 -16.11,-11.7 -32.04,-24.66 -41.58,-36.54 -0.99,-1.08 -1.89,-2.16 -2.7,-3.42 l -44.19,-63.18 -13.41,65.7 c -2.52,12.15 -11.97,21.69 -24.12,24.12 l -42.66,8.82 c -200.61,41.13 -539.19,100.26 -938.61,151.74 l -50.4,6.48 -0.54,0.09 h -0.54 l -32.94,4.23 c -1.35,0.18 -2.61,0.27 -3.87,0.27 l -13.86,1.71 c -241.56,29.52 -501.75,55.44 -764.64,72.54 -1.17,0.09 -2.25,0.27 -3.42,0.36 -70.2,5.13 -130.14,8.01 -181.53,10.17 -1.17,0.18 -2.25,0.27 -3.42,0.36 l -60.39,2.43 c -72.81,3.06 -145.44,5.31 -217.53,6.57 -19.26,0.36 -38.43,0.72 -57.51,0.99 l -67.77,0.9 c -2.34,0.18 -4.68,0.09 -7.11,-0.27 -14.49,-2.16 -25.38,-14.22 -26.28,-28.8 l -29.52,-486.09 -218.61,496.98 c -5.04,11.43 -16.29,18.63 -28.71,18.54 l -43.47,-0.45 c -91.26,-0.99 -179.37,-2.61 -264.15,-4.68 l -62.1,-1.62 c -16.38,-0.36 -29.7,-13.59 -30.24,-29.97 l -13.32,-394.38 c -10.44,51.84 -25.92,92.25 -36.99,118.08 -21.42,48.96 -62.73,112.23 -127.35,170.64 -64.35,57.78 -156.69,110.97 -271.53,111.15 -2.61,0 -5.58,0 -8.91,-0.09 -79.38,-1.8 -183.24,-7.65 -282.42,-14.49 l -1.71,-0.09 -1.08,-0.18 -331.83,-37.44 c -14.31,-1.62 -25.65,-12.96 -27.36,-27.27 l -27.72,-242.1 -10.44,-91.71 -16.38,39.42 c -3.96,12.51 -8.91,25.38 -15.12,38.25 -22.23,46.71 -57.33,90.45 -106.29,134.46 -43.38,38.88 -94.23,62.82 -144.9,77.22 -50.85,14.31 -102.51,19.44 -151.92,19.44 -90.81,-0.18 -175.05,-17.1 -237.51,-38.34 -93.51,-32.13 -174.69,-78.12 -242.82,-131.31 l -125.82,208.26 c -1.44,3.87 -3.69,7.47 -6.66,10.53 -7.11,7.38 -17.37,10.89 -27.45,9.18 l -95.4,-15.93 c -92.7,-15.39 -192.15,-34.83 -291.33,-55.89 l -41.04,-8.64 c -11.79,-2.52 -21.06,-11.61 -23.76,-23.31 l -9.54,-40.86 -33.03,-142.11 -22.95,29.7 c -27.18,37.62 -70.29,97.11 -84.51,116.1 -1.17,1.98 -2.52,3.87 -4.23,5.58 -7.65,7.74 -18.81,10.89 -29.43,8.28 l -106.74,-26.01 c -124.11,-30.15 -228.872,-57.42 -293.399,-74.61 l -36.359,-9.72 c -10.621,-2.88 -18.992,-11.16 -21.871,-21.78 L 8.46094,2374.64 c -2.33985,-7.74 -4.85938,-15.84 -7.28906,-24.3 -4.32032,-15.12 3.50781,-31.14 18.00002,-37.17 L 2099.88,1455.02 c 3.78,-1.53 7.74,-2.34 11.79,-2.34 3.33,0 6.75,0.54 9.99,1.71 49.5,16.83 139.41,45.63 258.12,79.74 12.06,3.51 20.79,13.86 22.23,26.28 1.71,15.12 3.6,32.31 5.4,48.87 l 70.74,-38.52 c 7.02,-3.87 15.21,-4.77 22.95,-2.7 76.86,20.88 161.91,42.75 252.9,64.62 12.87,3.06 22.32,13.86 23.67,27 4.5,44.01 9.9,96.3 14.67,142.92 l 41.22,-33.3 c 9.27,-7.56 17.55,-14.22 23.67,-19.08 l 1.62,-1.35 0.63,-0.45 1.35,-1.17 1.35,-0.99 0.63,-0.54 0.99,-0.72 c 24.3,-18.99 79.11,-51.48 165.6,-51.75 0.36,0 1.26,0 2.7,0 2.7,0 4.32,0.09 4.95,0.09 h 0.54 0.09 1.26 c 0,0 0.27,0 1.44,0 h 0.9 c 1.8,0.09 3.06,0.09 3.78,0.18 0.45,0 2.16,0 5.04,0.09 2.34,0.09 3.15,0.27 3.15,0.18 47.43,2.25 86.58,10.44 124.65,25.56 31.5,11.61 59.76,26.64 83.79,41.67 l 0.45,0.27 1.35,0.9 c 5.76,3.6 10.8,7.02 15.75,10.26 1.8,1.26 4.86,3.15 8.82,5.85 1.35,0.99 2.25,1.71 2.79,2.07 l 0.45,0.36 c 19.8,13.68 36.45,27.63 50.31,40.77 8.73,8.1 16.74,16.38 24.12,24.66 l 51.66,-68.58 c 6.75,-9 17.82,-13.59 29.07,-12.06 84.6,11.79 170.1,21.96 255.42,29.7 15.48,1.44 27.45,14.04 28.17,29.61 1.71,39.69 3.42,79.29 5.13,118.62 1.8,39.96 3.51,79.74 5.22,119.25 0.54,11.7 1.08,23.4 1.53,35.01 l 104.67,-270.18 c 4.86,-12.51 17.1,-20.43 30.51,-19.71 16.2,0.81 32.22,1.71 47.97,2.34 169.11,6.66 312.48,10.26 437.13,11.34 17.01,0.09 30.78,13.95 30.69,31.05 l -0.18,309.78 c 9.99,-26.37 19.98,-52.92 29.97,-79.56 15.03,-39.78 30.06,-79.74 45.18,-119.97 13.14,-35.01 31.32,-82.89 45.9,-121.59 4.5,-11.97 15.84,-19.89 28.62,-20.16 86.13,-1.17 162.54,-3.87 232.47,-7.83 3.06,-0.09 6.03,0.18 8.91,0.81 2.7,-0.99 5.67,-1.62 8.73,-1.8 215.82,-12.96 373.32,-37.62 584.01,-66.15 10.53,-1.44 21.06,2.7 27.9,10.89 l 97.74,117 c 2.97,-40.68 5.85,-81.63 8.82,-122.85 0.99,-14.31 11.7,-26.01 25.92,-28.35 109.62,-17.73 191.79,-35.46 255.87,-52.29 9.45,-2.52 19.35,-0.45 27,5.58 l 136.35,107.01 c 0.72,-1.17 1.44,-2.25 2.07,-3.33 14.13,-22.32 29.88,-43.83 47.16,-64.26 17.28,-20.34 36,-39.6 55.98,-57.42 19.98,-17.91 41.22,-34.38 63.63,-49.32 22.5,-14.94 46.17,-28.35 70.83,-39.96 24.66,-11.61 50.4,-21.51 76.95,-29.34 3.87,-1.17 7.02,-1.8 9,-2.34 l 0.81,-0.36 c 8.82,-2.61 17.55,-4.86 26.55,-7.02 9,-2.07 18.18,-3.78 27.45,-5.31 9.18,-1.44 18.54,-2.61 27.9,-3.33 9.36,-0.9 18.81,-1.26 28.26,-1.35 l 1.17,0.09 c 8.55,0 17.1,0.36 25.56,1.08 9,0.81 17.82,1.98 26.64,3.6 8.73,1.71 17.37,3.87 25.83,6.48 8.55,2.7 16.83,5.85 24.93,9.72 l 1883.43,894.69 c 2.52,1.17 4.77,2.61 6.84,4.32 55.71,30.24 105.03,74.34 140.13,131.49 40.68,67.05 51.57,139.77 51.57,205.11 -0.09,69.3 -12.06,134.1 -22.32,187.02"
         style="fill:#024d36;fill-opacity:1;fill-rule:nonzero;stroke:none"
         id="path18"
         inkscape:connector-curvature="0" /><path
         d="m 5800.68,1700.45 c -65.16,17.1 -148.05,34.92 -258.12,52.83 l 1077.12,1064.88 1.71,2.16 0.63,-3.96 47.7,-7.56 c 122.58,-19.35 229.59,-37.62 317.43,-53.28 l 92.61,-16.65 -0.54,2.97 3.15,-1.26 -1234.89,-1003.41 -46.8,-36.72"
         style="fill:#024d36;fill-opacity:1;fill-rule:nonzero;stroke:none"
         id="path20"
         inkscape:connector-curvature="0" /><path
         d="m 5800.68,1700.45 c -65.16,17.1 -148.05,34.92 -258.12,52.83 l 1077.12,1064.88 1.71,2.16 0.63,-3.96 47.7,-7.56 c 122.58,-19.35 229.59,-37.62 317.43,-53.28 l 92.61,-16.65 -0.54,2.97 3.15,-1.26 -1234.89,-1003.41 -46.8,-36.72"
         style="fill:#94989a;fill-opacity:1;fill-rule:nonzero;stroke:none"
         id="path22"
         inkscape:connector-curvature="0" /><path
         d="m 4773.78,1844.36 c -69.21,3.87 -144.54,6.48 -229.23,7.74 l 175.23,1153.53 1.44,-3.33 41.85,-1.26 c 96.93,-2.97 192.42,-7.11 288,-12.6 l 70.74,-3.96 -348.03,-1140.12"
         style="fill:#024d36;fill-opacity:1;fill-rule:nonzero;stroke:none"
         id="path24"
         inkscape:connector-curvature="0" /><path
         d="m 4773.78,1844.36 c -69.21,3.87 -144.54,6.48 -229.23,7.74 l 175.23,1153.53 1.44,-3.33 41.85,-1.26 c 96.93,-2.97 192.42,-7.11 288,-12.6 l 70.74,-3.96 -348.03,-1140.12"
         style="fill:#94989a;fill-opacity:1;fill-rule:nonzero;stroke:none"
         id="path26"
         inkscape:connector-curvature="0" /><path
         d="m 3875.94,1838.78 -414.72,1139.58 0.9,1.26 0.99,-3.24 52.47,2.79 c 113.76,6.03 221.76,11.07 325.17,15.03 l 63.36,2.52 61.47,1.89 c 109.17,3.51 213.39,5.76 313.92,6.84 l 63.18,0.63 18.09,-1153.62 c -124.74,-0.99 -268.11,-4.68 -436.95,-11.34 -15.93,-0.63 -31.86,-1.53 -47.88,-2.34"
         style="fill:#024d36;fill-opacity:1;fill-rule:nonzero;stroke:none"
         id="path28"
         inkscape:connector-curvature="0" /><path
         d="m 3875.94,1838.78 -414.72,1139.58 0.9,1.26 0.99,-3.24 52.47,2.79 c 113.76,6.03 221.76,11.07 325.17,15.03 l 63.36,2.52 61.47,1.89 c 109.17,3.51 213.39,5.76 313.92,6.84 l 63.18,0.63 18.09,-1153.62 c -124.74,-0.99 -268.11,-4.68 -436.95,-11.34 -15.93,-0.63 -31.86,-1.53 -47.88,-2.34"
         style="fill:#94989a;fill-opacity:1;fill-rule:nonzero;stroke:none"
         id="path30"
         inkscape:connector-curvature="0" /><path
         d="m 5379.93,1776.95 c -209.52,28.35 -368.01,53.1 -584.55,66.15 l 402.12,1138.95 0.09,-2.7 57.69,-4.23 c 96.39,-7.11 194.04,-15.39 294.66,-24.84 228.33,-21.51 444.78,-46.62 642.06,-72.54 l 79.38,-10.35 -891.45,-1090.44"
         style="fill:#024d36;fill-opacity:1;fill-rule:nonzero;stroke:none"
         id="path32"
         inkscape:connector-curvature="0" /><path
         d="m 5379.93,1776.95 c -209.52,28.35 -368.01,53.1 -584.55,66.15 l 402.12,1138.95 0.09,-2.7 57.69,-4.23 c 96.39,-7.11 194.04,-15.39 294.66,-24.84 228.33,-21.51 444.78,-46.62 642.06,-72.54 l 79.38,-10.35 -891.45,-1090.44"
         style="fill:#94989a;fill-opacity:1;fill-rule:nonzero;stroke:none"
         id="path34"
         inkscape:connector-curvature="0" /><path
         d="m 3443.22,1796.39 -798.84,1114.83 3.15,3.96 75.33,8.01 c 88.2,9.45 174.87,17.28 259.47,23.13 17.73,1.17 35.37,2.34 52.92,3.51 l 49.32,3.42 7.02,-0.72 607.59,-1122.39 c 0,-1.35 -0.09,-2.61 -0.18,-3.96 -85.5,-7.83 -171,-18 -255.78,-29.79"
         style="fill:#024d36;fill-opacity:1;fill-rule:nonzero;stroke:none"
         id="path36"
         inkscape:connector-curvature="0" /><path
         d="m 3443.22,1796.39 -798.84,1114.83 3.15,3.96 75.33,8.01 c 88.2,9.45 174.87,17.28 259.47,23.13 17.73,1.17 35.37,2.34 52.92,3.51 l 49.32,3.42 7.02,-0.72 607.59,-1122.39 c 0,-1.35 -0.09,-2.61 -0.18,-3.96 -85.5,-7.83 -171,-18 -255.78,-29.79"
         style="fill:#94989a;fill-opacity:1;fill-rule:nonzero;stroke:none"
         id="path38"
         inkscape:connector-curvature="0" /><path
         d="m 6392.7,1550.78 c -8.46,0 -17.1,0.45 -25.65,1.17 -8.55,0.72 -17.19,1.71 -25.65,3.15 -8.55,1.35 -17.01,2.97 -25.29,4.86 -8.37,1.98 -16.56,4.14 -24.48,6.48 l -1.26,0.45 c -2.97,0.81 -5.94,1.44 -8.82,2.34 -25.02,7.38 -49.32,16.65 -72.54,27.63 -20.88,9.81 -40.86,20.97 -60.03,33.3 l 1571.58,941.22 c 12.96,-7.65 26.01,-15.12 39.15,-22.05 109.44,-57.96 240.21,-109.44 370.44,-124.38 18.72,-2.07 37.71,-3.24 57.06,-3.24 h 0.36 c 20.07,0 40.32,1.26 60.75,4.23 29.43,4.23 58.32,11.97 86.04,23.13 l -1291.5,-614.7 -559.35,-265.68 c -6.66,-3.15 -13.68,-5.85 -20.88,-8.1 -7.2,-2.34 -14.67,-4.14 -22.32,-5.58 -7.65,-1.53 -15.48,-2.52 -23.49,-3.24 -7.92,-0.63 -15.93,-0.99 -24.12,-0.99"
         style="fill:#024d36;fill-opacity:1;fill-rule:nonzero;stroke:none"
         id="path40"
         inkscape:connector-curvature="0" /><path
         d="m 6392.7,1550.78 c -8.46,0 -17.1,0.45 -25.65,1.17 -8.55,0.72 -17.19,1.71 -25.65,3.15 -8.55,1.35 -17.01,2.97 -25.29,4.86 -8.37,1.98 -16.56,4.14 -24.48,6.48 l -1.26,0.45 c -2.97,0.81 -5.94,1.44 -8.82,2.34 -25.02,7.38 -49.32,16.65 -72.54,27.63 -20.88,9.81 -40.86,20.97 -60.03,33.3 l 1571.58,941.22 c 12.96,-7.65 26.01,-15.12 39.15,-22.05 109.44,-57.96 240.21,-109.44 370.44,-124.38 18.72,-2.07 37.71,-3.24 57.06,-3.24 h 0.36 c 20.07,0 40.32,1.26 60.75,4.23 29.43,4.23 58.32,11.97 86.04,23.13 l -1291.5,-614.7 -559.35,-265.68 c -6.66,-3.15 -13.68,-5.85 -20.88,-8.1 -7.2,-2.34 -14.67,-4.14 -22.32,-5.58 -7.65,-1.53 -15.48,-2.52 -23.49,-3.24 -7.92,-0.63 -15.93,-0.99 -24.12,-0.99"
         style="fill:#94989a;fill-opacity:1;fill-rule:nonzero;stroke:none"
         id="path42"
         inkscape:connector-curvature="0" /><path
         d="m 2111.67,1483.73 -127.89,52.74 0.18,-0.72 -1944.7217,808.74 106.1137,30.96 c 93.687,27.36 207.808,59.76 337.589,94.95 l 36.989,10.08 1.261,4.86 1847.699,-922.05 c -118.08,-33.93 -207.45,-62.64 -257.22,-79.56"
         style="fill:#024d36;fill-opacity:1;fill-rule:nonzero;stroke:none"
         id="path44"
         inkscape:connector-curvature="0" /><path
         d="m 2111.67,1483.73 -127.89,52.74 0.18,-0.72 -1944.7217,808.74 106.1137,30.96 c 93.687,27.36 207.808,59.76 337.589,94.95 l 36.989,10.08 1.261,4.86 1847.699,-922.05 c -118.08,-33.93 -207.45,-62.64 -257.22,-79.56"
         style="fill:#94989a;fill-opacity:1;fill-rule:nonzero;stroke:none"
         id="path46"
         inkscape:connector-curvature="0" /><path
         d="m 3032.1,1724.21 -2.07,0.09 c -69.03,0.18 -114.21,22.41 -137.97,38.52 L 1605.42,2854.79 c 11.43,-7.92 23.67,-15.48 36.9,-22.41 55.98,-29.7 127.8,-48.87 216.63,-48.87 h 0.81 c 33.39,0 69.3,2.61 107.82,8.19 90,13.14 168.66,39.15 235.98,70.83 L 3229.02,1777.67 c -18.9,-10.8 -39.87,-21.15 -62.46,-29.43 -34.92,-13.86 -69.93,-21.24 -114.84,-23.4 -1.08,-0.09 -2.07,-0.18 -3.15,-0.27 -1.53,-0.09 -3.06,0 -4.68,-0.09 -1.17,0 -2.34,-0.09 -3.51,-0.18 -1.35,0 -2.52,0 -3.78,0 -1.53,0 -2.97,-0.09 -4.5,-0.09"
         style="fill:#024d36;fill-opacity:1;fill-rule:nonzero;stroke:none"
         id="path48"
         inkscape:connector-curvature="0" /><path
         d="m 3032.1,1724.21 -2.07,0.09 c -69.03,0.18 -114.21,22.41 -137.97,38.52 L 1605.42,2854.79 c 11.43,-7.92 23.67,-15.48 36.9,-22.41 55.98,-29.7 127.8,-48.87 216.63,-48.87 h 0.81 c 33.39,0 69.3,2.61 107.82,8.19 90,13.14 168.66,39.15 235.98,70.83 L 3229.02,1777.67 c -18.9,-10.8 -39.87,-21.15 -62.46,-29.43 -34.92,-13.86 -69.93,-21.24 -114.84,-23.4 -1.08,-0.09 -2.07,-0.18 -3.15,-0.27 -1.53,-0.09 -3.06,0 -4.68,-0.09 -1.17,0 -2.34,-0.09 -3.51,-0.18 -1.35,0 -2.52,0 -3.78,0 -1.53,0 -2.97,-0.09 -4.5,-0.09"
         style="fill:#94989a;fill-opacity:1;fill-rule:nonzero;stroke:none"
         id="path50"
         inkscape:connector-curvature="0" /><path
         d="m 2493,1598.03 -25.83,14.04 -1681.201,937.26 1.351,1.53 102.239,25.56 c 106.113,26.46 217.351,53.37 332.281,80.01 l 40.95,9.45 0.27,1.35 1482.03,-1004.85 c -90.72,-21.69 -175.41,-43.56 -252.09,-64.35"
         style="fill:#024d36;fill-opacity:1;fill-rule:nonzero;stroke:none"
         id="path52"
         inkscape:connector-curvature="0" /><path
         d="m 2493,1598.03 -25.83,14.04 -1681.201,937.26 1.351,1.53 102.239,25.56 c 106.113,26.46 217.351,53.37 332.281,80.01 l 40.95,9.45 0.27,1.35 1482.03,-1004.85 c -90.72,-21.69 -175.41,-43.56 -252.09,-64.35"
         style="fill:#94989a;fill-opacity:1;fill-rule:nonzero;stroke:none"
         id="path54"
         inkscape:connector-curvature="0" /><path
         d="m 6868.8,3959.18 -62.1,359.1 c 121.86,-21.24 197.19,-34.92 240.66,-43.02 l 44.01,-8.19 c 0.18,-1.62 0.36,-3.24 0.54,-4.86 L 6868.8,3959.18"
         style="fill:#024d36;fill-opacity:1;fill-rule:nonzero;stroke:none"
         id="path56"
         inkscape:connector-curvature="0" /><path
         d="m 6868.8,3959.18 -62.1,359.1 c 121.86,-21.24 197.19,-34.92 240.66,-43.02 l 44.01,-8.19 c 0.18,-1.62 0.36,-3.24 0.54,-4.86 L 6868.8,3959.18"
         style="fill:#94989a;fill-opacity:1;fill-rule:nonzero;stroke:none"
         id="path58"
         inkscape:connector-curvature="0" /><path
         d="m 7564.95,4063.67 c -21.51,25.29 -39.69,52.56 -53.64,82.44 -13.23,27.63 -21.42,66.33 -21.24,101.61 0,11.25 0.72,22.14 2.25,31.95 4.14,24.39 10.62,30.87 18.63,37.35 8.12,6.07 23.59,11.34 45.61,11.34 0.19,0 0.37,0 0.56,0 0.16,0 0.33,0 0.49,0 24.22,0 54.32,-6.56 81.32,-17.64 27.27,-10.98 51.39,-26.91 64.08,-39.87 8.46,-8.46 16.92,-18.18 25.02,-28.53 l -163.08,-178.65"
         style="fill:#024d36;fill-opacity:1;fill-rule:nonzero;stroke:none"
         id="path60"
         inkscape:connector-curvature="0" /><path
         d="m 7564.95,4063.67 c -21.51,25.29 -39.69,52.56 -53.64,82.44 -13.23,27.63 -21.42,66.33 -21.24,101.61 0,11.25 0.72,22.14 2.25,31.95 4.14,24.39 10.62,30.87 18.63,37.35 8.12,6.07 23.59,11.34 45.61,11.34 0.19,0 0.37,0 0.56,0 0.16,0 0.33,0 0.49,0 24.22,0 54.32,-6.56 81.32,-17.64 27.27,-10.98 51.39,-26.91 64.08,-39.87 8.46,-8.46 16.92,-18.18 25.02,-28.53 l -163.08,-178.65"
         style="fill:#94989a;fill-opacity:1;fill-rule:nonzero;stroke:none"
         id="path62"
         inkscape:connector-curvature="0" /><path
         d="m 5961.15,3323.96 c -117.9,15.66 -243,29.88 -347.22,38.52 l -33.12,404.19 c 149.49,-11.16 342.9,-29.07 506.43,-56.79 l 87.3,-14.76 -213.39,-371.16"
         style="fill:#024d36;fill-opacity:1;fill-rule:nonzero;stroke:none"
         id="path64"
         inkscape:connector-curvature="0" /><path
         d="m 5961.15,3323.96 c -117.9,15.66 -243,29.88 -347.22,38.52 l -33.12,404.19 c 149.49,-11.16 342.9,-29.07 506.43,-56.79 l 87.3,-14.76 -213.39,-371.16"
         style="fill:#94989a;fill-opacity:1;fill-rule:nonzero;stroke:none"
         id="path66"
         inkscape:connector-curvature="0" /><path
         d="m 6143.31,3948.47 -15.48,126 -50.13,7.02 c -154.8,21.42 -326.25,38.34 -527.04,54 l -28.8,352.35 c 111.51,-10.08 287.37,-27.27 479.16,-49.59 l 50.94,-5.94 50.58,-6.21 c 94.23,-11.61 190.17,-24.21 282.51,-37.8 l 0.9,-6.12 -242.64,-433.71"
         style="fill:#024d36;fill-opacity:1;fill-rule:nonzero;stroke:none"
         id="path68"
         inkscape:connector-curvature="0" /><path
         d="m 6143.31,3948.47 -15.48,126 -50.13,7.02 c -154.8,21.42 -326.25,38.34 -527.04,54 l -28.8,352.35 c 111.51,-10.08 287.37,-27.27 479.16,-49.59 l 50.94,-5.94 50.58,-6.21 c 94.23,-11.61 190.17,-24.21 282.51,-37.8 l 0.9,-6.12 -242.64,-433.71"
         style="fill:#94989a;fill-opacity:1;fill-rule:nonzero;stroke:none"
         id="path70"
         inkscape:connector-curvature="0" /><path
         d="m 913.141,3100.58 -189.27,138.33 c 81.18,65.52 164.07,113.49 256.77,151.74 l -67.5,-290.07"
         style="fill:#024d36;fill-opacity:1;fill-rule:nonzero;stroke:none"
         id="path72"
         inkscape:connector-curvature="0" /><path
         d="m 913.141,3100.58 -189.27,138.33 c 81.18,65.52 164.07,113.49 256.77,151.74 l -67.5,-290.07"
         style="fill:#94989a;fill-opacity:1;fill-rule:nonzero;stroke:none"
         id="path74"
         inkscape:connector-curvature="0" /><path
         d="m 2297.34,4087.7 -152.55,258.12 c 16.29,12.42 33.57,21.15 50.04,25.11 19.35,4.77 47.88,8.91 73.26,8.91 h 0.54 c 9.54,0 18.63,-0.63 26.55,-1.71 25.47,-6.12 39.42,-18.27 36.36,-57.42 -0.72,-5.4 -1.62,-11.7 -2.61,-18.81 -1.17,-9.54 -10.17,-70.47 -22.68,-154.62 -2.79,-18.72 -5.76,-38.7 -8.91,-59.58"
         style="fill:#024d36;fill-opacity:1;fill-rule:nonzero;stroke:none"
         id="path76"
         inkscape:connector-curvature="0" /><path
         d="m 2297.34,4087.7 -152.55,258.12 c 16.29,12.42 33.57,21.15 50.04,25.11 19.35,4.77 47.88,8.91 73.26,8.91 h 0.54 c 9.54,0 18.63,-0.63 26.55,-1.71 25.47,-6.12 39.42,-18.27 36.36,-57.42 -0.72,-5.4 -1.62,-11.7 -2.61,-18.81 -1.17,-9.54 -10.17,-70.47 -22.68,-154.62 -2.79,-18.72 -5.76,-38.7 -8.91,-59.58"
         style="fill:#94989a;fill-opacity:1;fill-rule:nonzero;stroke:none"
         id="path78"
         inkscape:connector-curvature="0" /><path
         d="m 8087.94,3711.95 c -24.39,18.81 -49.41,36.72 -75.06,53.73 -84.06,55.62 -177.39,101.16 -261.45,151.29 l 65.34,64.8 444.42,-117.54 -173.25,-152.28"
         style="fill:#024d36;fill-opacity:1;fill-rule:nonzero;stroke:none"
         id="path80"
         inkscape:connector-curvature="0" /><path
         d="m 8087.94,3711.95 c -24.39,18.81 -49.41,36.72 -75.06,53.73 -84.06,55.62 -177.39,101.16 -261.45,151.29 l 65.34,64.8 444.42,-117.54 -173.25,-152.28"
         style="fill:#94989a;fill-opacity:1;fill-rule:nonzero;stroke:none"
         id="path82"
         inkscape:connector-curvature="0" /><path
         d="m 7713.63,3266.99 c -0.81,4.59 -1.35,8.19 -1.71,10.62 -0.27,1.8 -0.45,3.06 -0.63,3.78 l -0.09,0.63 -5.67,45.99 -345.78,76.77 198.45,188.64 c 65.16,-38.07 130.23,-69.75 190.8,-103.86 47.79,-26.82 93.15,-54.72 133.47,-86.04 l -168.84,-136.53"
         style="fill:#024d36;fill-opacity:1;fill-rule:nonzero;stroke:none"
         id="path84"
         inkscape:connector-curvature="0" /><path
         d="m 7713.63,3266.99 c -0.81,4.59 -1.35,8.19 -1.71,10.62 -0.27,1.8 -0.45,3.06 -0.63,3.78 l -0.09,0.63 -5.67,45.99 -345.78,76.77 198.45,188.64 c 65.16,-38.07 130.23,-69.75 190.8,-103.86 47.79,-26.82 93.15,-54.72 133.47,-86.04 l -168.84,-136.53"
         style="fill:#94989a;fill-opacity:1;fill-rule:nonzero;stroke:none"
         id="path86"
         inkscape:connector-curvature="0" /><path
         d="m 3353.58,4124.96 -119.88,362.25 c 21.15,4.23 57.51,10.26 78.75,11.88 15.48,1.17 29.79,1.8 42.75,1.8 0.43,0 0.85,0 1.28,0 24.11,0 42.25,-2.5 56.05,-6.48 l 53.55,-217.71 c -4.86,-18.54 -10.89,-36.27 -17.82,-52.56 -16.47,-40.05 -40.41,-71.64 -50.22,-78.84 -12.15,-9.72 -17.82,-12.6 -28.17,-16.2 -4.23,-1.44 -9.63,-2.79 -16.29,-4.14"
         style="fill:#024d36;fill-opacity:1;fill-rule:nonzero;stroke:none"
         id="path88"
         inkscape:connector-curvature="0" /><path
         d="m 3353.58,4124.96 -119.88,362.25 c 21.15,4.23 57.51,10.26 78.75,11.88 15.48,1.17 29.79,1.8 42.75,1.8 0.43,0 0.85,0 1.28,0 24.11,0 42.25,-2.5 56.05,-6.48 l 53.55,-217.71 c -4.86,-18.54 -10.89,-36.27 -17.82,-52.56 -16.47,-40.05 -40.41,-71.64 -50.22,-78.84 -12.15,-9.72 -17.82,-12.6 -28.17,-16.2 -4.23,-1.44 -9.63,-2.79 -16.29,-4.14"
         style="fill:#94989a;fill-opacity:1;fill-rule:nonzero;stroke:none"
         id="path90"
         inkscape:connector-curvature="0" /><path
         d="m 1913.39,4777.91 c 9.27,-7 23.48,-16.89 43.09,-23.97 19.66,-7.17 44.34,-11.66 76.02,-11.64 1.87,0 3.7,0.01 5.51,0.03 64.48,1.02 123.67,12.69 175.76,39.17 32.11,16.36 59.39,35.09 80.28,58.67 20.88,23.41 34.74,52.57 37.53,84.59 0.48,5.29 0.73,10.43 0.73,15.45 0.52,31.27 -11.23,61.34 -34,79.39 -22.48,18.01 -49.41,23.69 -76.87,25.1 -10.05,0.48 -19.16,0.69 -27.48,0.69 -30.8,-0.06 -50.58,-2.61 -65.07,-3.04 4.6,3.53 11.95,7.8 20.87,10.74 14.18,5.16 31.03,7.81 37.67,8.22 4.66,0.34 9.43,0.55 13.95,0.55 6.07,0.01 11.73,-0.39 15.72,-1.05 1.97,-0.33 3.54,-0.72 4.43,-1 l 0.74,-0.26 c 0.64,-0.4 2.32,-1.62 3.56,-2.65 l 1.84,-1.55 0.43,-0.38 c 12.67,-11.71 32.1,-12.37 45.55,-1.54 l 67.37,54.29 c 8.63,6.94 13.4,17.43 12.97,28.52 -0.42,11.05 -6,21.15 -15.12,27.41 -27,18.79 -64.42,31.81 -113.21,31.61 -7.32,0 -14.96,-0.28 -22.94,-0.86 -30.71,-2.2 -66.33,-9.12 -100.83,-21.2 -34.43,-12.25 -67.9,-29.18 -93.35,-55.3 -35,-36.1 -53.42,-75.13 -53.37,-113.76 0,-9.76 1.15,-19.37 3.38,-28.62 6.61,-28.16 28.23,-47.65 50.65,-57.62 22.82,-10.37 48.37,-14.26 75.3,-14.35 3.41,0 6.73,0.07 9.99,0.18 26.16,1.04 50.17,3.25 66.04,3.2 h 0.68 c -2.27,-2.74 -6.51,-6.46 -15.5,-10.29 -19.14,-7.98 -31.17,-11.26 -42.66,-13.1 -11.44,-1.83 -23.73,-2.14 -42.2,-2.62 l -1.7,-0.01 c -11.12,0.01 -19.32,2.89 -24.8,5.59 -2.71,1.35 -4.66,2.62 -5.71,3.4 l -0.85,0.63 c -12.89,11.47 -32.25,11.81 -45.55,0.73 l -70.27,-58.65 c -8.23,-6.88 -12.8,-16.99 -12.52,-27.69 0.27,-10.71 5.37,-20.57 13.94,-27.01"
         style="fill:#008350;fill-opacity:1;fill-rule:nonzero;stroke:none"
         id="path92"
         inkscape:connector-curvature="0" /><path
         d="m 6285.36,4821.47 c 2.22,-15.53 14.63,-27.74 30.23,-29.69 57.45,-7.19 144.69,-18.92 227.75,-33.27 25.55,-4.41 50.68,-8.76 75.02,-12.97 2.02,-0.35 4.03,-0.52 6.02,-0.52 9.09,0 17.83,3.54 24.43,10.04 8.07,7.95 11.75,19.14 9.98,30.31 l -10.26,64.98 c -2.35,14.8 -13.93,26.51 -28.71,28.98 -0.03,0 -66.45,11.16 -121.44,19.92 -27.08,4.31 -49.56,7.68 -65.48,10 l -40.42,269.26 c -2.26,15.13 -14.06,26.95 -29.14,29.31 -34.76,5.4 -65.75,10.22 -89.91,13.75 -10.84,1.59 -21.92,-2.07 -29.68,-9.8 -7.76,-7.74 -11.48,-18.81 -9.92,-29.65 l 51.53,-360.65"
         style="fill:#008350;fill-opacity:1;fill-rule:nonzero;stroke:none"
         id="path94"
         inkscape:connector-curvature="0" /><path
         d="m 6674.72,4898.1 26.74,-143.91 c 2.64,-14.29 13.97,-25.51 28.31,-28 36.13,-6.31 67.36,-11.78 91.32,-16.01 2.03,-0.36 4.08,-0.54 6.08,-0.54 9.2,0 18.14,3.66 24.75,10.3 8.06,8.11 11.63,19.63 9.57,30.86 l -25.85,141.55 92.52,179.83 c 5.05,9.85 5.14,21.63 0.18,31.54 -4.95,9.93 -14.4,16.95 -25.32,18.82 -24.09,4.12 -56.62,9.54 -93.29,15.57 -15.59,2.56 -30.91,-5.59 -37.44,-20 l -31.8,-69.99 -70.54,101.75 c -5.45,7.88 -13.74,13.08 -23.21,14.59 -39.06,6.19 -75.7,11.91 -105.55,16.4 -13.93,2.11 -27.74,-4.36 -35.06,-16.45 -7.29,-12.07 -6.62,-27.29 1.73,-38.68 l 166.86,-227.63"
         style="fill:#008350;fill-opacity:1;fill-rule:nonzero;stroke:none"
         id="path96"
         inkscape:connector-curvature="0" /><path
         d="m 3569.1,4920.85 c 6.58,-6.62 15.53,-10.31 24.8,-10.31 l 1.95,0.05 c 29.48,1.68 59.45,3.27 89.52,4.77 17.77,0.89 32.06,15.07 33.09,32.83 l 6.82,117.36 c 23.86,1.24 53.08,2.71 83.95,4.17 l -5.16,-110.89 c -0.46,-9.83 3.17,-19.22 10.12,-26.2 6.92,-6.99 16.32,-10.67 26.16,-10.27 30.47,1.23 60.38,2.37 89.45,3.4 18.32,0.66 32.94,15.26 33.63,33.55 l 13.36,354.39 c 0.36,9.72 -3.29,19.07 -10.15,25.95 -6.86,6.88 -16.22,10.58 -25.92,10.25 -28.01,-0.99 -57.09,-2.1 -86.75,-3.3 -18.09,-0.74 -32.59,-15.15 -33.42,-33.25 l -5.16,-110.79 c -30.6,-0.99 -59.11,-1.92 -82.31,-2.72 l 5.97,103.08 c 0.58,9.83 -3.1,19.6 -10.03,26.58 -6.93,7 -16.66,10.79 -26.49,10.3 -29.65,-1.43 -59.08,-2.92 -87.88,-4.41 -17.66,-0.92 -31.89,-14.99 -33.01,-32.63 l -22.6,-355.12 c -0.63,-9.94 3.04,-19.72 10.06,-26.79"
         style="fill:#008350;fill-opacity:1;fill-rule:nonzero;stroke:none"
         id="path98"
         inkscape:connector-curvature="0" /><path
         d="m 4022.02,4928.16 0.99,0.01 c 63.21,1.87 118.68,3.1 161.05,3.67 35.78,0.48 71.18,0.68 106.68,0.68 11.45,0 22.9,-0.01 34.36,-0.07 9.31,-0.04 18.1,3.55 24.72,10.1 6.62,6.56 10.29,15.31 10.34,24.63 l 0.28,61.92 c 0.09,19.17 -15.31,34.84 -34.47,35.07 -20.7,0.23 -42.9,0.34 -65.09,0.34 -40.8,0 -81.52,-0.32 -112.65,-0.69 l 0.45,15.87 c 60.81,1.55 117.61,2.94 146.51,3.18 18.85,0.17 34.21,15.33 34.59,34.19 l 1.26,61.04 c 0.18,9.45 -3.41,18.48 -10.06,25.22 -6.63,6.73 -15.6,10.44 -25.06,10.38 -37.64,-0.24 -94.98,-1.08 -143.61,-1.94 l 0.34,12.13 c 45.97,0.27 114.1,0.55 174.15,0.8 19.15,0.1 34.64,15.57 34.72,34.73 l 0.3,61.07 c 0.04,9.32 -3.59,18.2 -10.19,24.8 -6.57,6.61 -15.43,10.28 -24.75,10.26 -79.29,-0.12 -164.5,-0.88 -271.94,-3.06 -7.44,-0.14 -15.08,-0.32 -22.81,-0.51 -18.54,-0.45 -33.48,-15.28 -34.04,-33.8 l -10.99,-354.04 c -0.31,-9.59 3.4,-18.97 10.18,-25.75 6.54,-6.54 15.5,-10.23 24.74,-10.23"
         style="fill:#008350;fill-opacity:1;fill-rule:nonzero;stroke:none"
         id="path100"
         inkscape:connector-curvature="0" /><path
         d="m 2752.68,4987.06 c -0.09,-20.01 4.51,-42.24 17.08,-62.5 12.5,-20.29 32.05,-37.59 57.93,-51.2 26.75,-14.01 56.58,-18.65 86.31,-18.75 48.48,0.19 97.46,12.62 135.57,31.46 27.29,13.69 52.05,33.07 71.68,56.37 19.5,23.32 34.29,50.85 38.43,81.8 3.58,27.52 12.25,113.24 18.77,178.98 1.47,-6.06 4.35,-11.75 8.8,-16.3 7.26,-7.38 17.44,-11.16 27.75,-10.33 15.06,1.22 43.24,3.4 77.12,5.94 l -22.36,-255.87 c -0.92,-10.3 2.88,-20.6 10.25,-27.88 6.54,-6.45 15.43,-10.03 24.55,-10.03 1.16,0 2.32,0.05 3.48,0.17 27.71,2.8 58.31,5.5 90.9,8.11 17.1,1.36 30.67,14.95 32.01,32.05 l 20.71,264.86 c 37.18,2.49 68.9,4.45 85.77,5.15 17.67,0.73 32.03,14.62 33.34,32.26 l 4.64,62.04 c 0.75,10.07 -2.82,19.82 -9.88,27.02 -7.07,7.21 -16.74,10.98 -26.82,10.41 -59.76,-3.27 -114.68,-6.53 -159.89,-9.41 -44.24,-2.83 -101.75,-7.49 -163.44,-12.92 -16.68,-1.47 -29.96,-14.59 -31.65,-31.26 l -0.17,-1.72 c -1.51,6.1 -4.63,11.77 -9.12,16.3 -7.3,7.33 -17.63,11.09 -27.95,10.12 -29.4,-2.7 -59.02,-5.5 -87.94,-8.29 -16.57,-1.58 -29.64,-14.54 -31.37,-31.11 -5.72,-54.84 -21.42,-204.84 -24.45,-228.96 -1.09,-8.64 -4.86,-17.99 -12.73,-25.67 -7.94,-7.65 -20.67,-15.14 -45.1,-17.58 -3.22,-0.32 -6.15,-0.44 -8.75,-0.44 -16.73,0.45 -18.36,4 -19.84,5.24 -1.47,1.49 -3.24,6.48 -3.17,12.34 l 0.05,1.87 c 0.4,7.2 5.66,53.09 11.47,101.22 5.84,48.63 12.37,101.57 15.7,128.51 1.3,10.51 -2.3,21.13 -9.71,28.7 -7.41,7.56 -17.97,11.37 -28.51,10.28 -38.37,-3.97 -69.37,-7.29 -88.58,-9.48 -16.01,-1.81 -28.71,-14.4 -30.68,-30.4 -6.43,-52.13 -24.82,-201.1 -28.71,-229.94 -0.92,-6.79 -1.49,-13.87 -1.49,-21.16"
         style="fill:#008350;fill-opacity:1;fill-rule:nonzero;stroke:none"
         id="path102"
         inkscape:connector-curvature="0" /><path
         d="m 5643.2,5163.82 c 4.66,-0.71 9.37,-1.84 14.78,-4.71 2.63,-1.52 5.31,-3.34 7.51,-5.44 3.29,-2.89 5.76,-6.04 6.97,-8.23 0.71,-1.58 0.65,-3.59 -0.78,-5.12 -2.07,-1.31 -5.68,-2.17 -9.35,-2.51 l -0.93,-0.03 c -1.67,0 -3.6,0.1 -5.7,0.23 -16.09,1.28 -40.34,3.41 -59.42,5.1 l -2.04,25.46 c 17.41,-1.71 36.39,-3.57 48.96,-4.75 z m 341.43,-43.41 c 0.91,3.11 2.89,5.69 7.07,7.2 2.32,0.75 5.27,1.16 9.27,1.16 2.54,0 5.32,-0.17 8.77,-0.31 12.56,-0.4 27.14,-4.68 37.91,-12.98 10.79,-8.47 19.4,-19.82 23.04,-42.17 6.02,-39.14 12.2,-74.89 12.02,-95.88 v -0.97 l -0.05,0.04 c -0.12,-2.7 -0.1,-5.31 -0.34,-7.69 l -0.08,-0.85 c -0.34,-2.39 -0.98,-4.49 -2.48,-6.01 l -1.72,-1.53 c -3.32,-1.88 -8.7,-3.58 -17.01,-3.63 -6.95,-0.02 -15.41,1.32 -24.37,4.45 -27.64,9.84 -35.51,22.55 -37.16,29.61 -3.28,12.65 -15.86,78.17 -15.6,115.5 -0.01,5.68 0.3,10.58 0.73,14.06 z M 5489.99,4884.4 c 39.33,-3.13 70.37,-5.77 89.29,-7.46 1.05,-0.1 2.11,-0.14 3.15,-0.14 9.21,0 18.09,3.64 24.65,10.21 7.31,7.31 11.01,17.47 10.1,27.77 l -8.53,95.35 c 15.1,-1.31 35.45,-2.99 62.96,-5.17 6.28,-0.5 12.41,-0.73 18.37,-0.73 42.38,-0.16 78.82,12.85 103.82,37.18 15,14.48 25.04,32.29 30.73,51.3 3.46,-41.52 12.01,-87.9 18.81,-119.12 9.37,-39.76 37.79,-71.59 73.71,-97.78 36.26,-25.89 81.59,-45.39 130.27,-51.92 12.99,-1.71 25.39,-2.53 37.2,-2.53 h 0.91 c 73.79,0 124.86,33.76 146.15,74.76 10.06,19.92 11.56,39.73 11.77,59.75 -0.11,38.87 -8.64,80.8 -12.53,107.85 -6.63,47.66 -25.93,92.93 -65.75,128.76 -42.16,37.53 -106.56,63.16 -166.91,68.17 -6.35,0.47 -12.57,0.7 -18.63,0.68 -44.04,0.16 -79.08,-12.46 -103.83,-30.92 -24.82,-18.41 -38.89,-41.34 -46.29,-60.16 -0.94,-2.51 -1.69,-4.98 -2.36,-7.4 -4.55,21.52 -15.02,40.06 -27.85,55.23 -20.77,24.42 -47.46,41.66 -73.82,54.19 -26.52,12.39 -52.35,19.95 -74.81,22.24 -45.53,4.4 -185.41,16.49 -185.49,16.51 -10.31,0.88 -20.35,-2.77 -27.68,-10.09 -7.32,-7.31 -10.98,-17.36 -10.11,-27.68 l 30.68,-357.05 c 1.45,-16.99 14.99,-30.45 32.02,-31.8"
         style="fill:#008350;fill-opacity:1;fill-rule:nonzero;stroke:none"
         id="path104"
         inkscape:connector-curvature="0" /><path
         d="m 4588.62,5222.95 c 4.16,0.15 12.54,-2.8 17.67,-7.03 1.42,-1.08 2.44,-2.14 3.29,-3.09 0.6,-1.28 0.9,-3.1 0.49,-4.7 -0.46,-1.18 -1.02,-1.98 -1.51,-2.46 -1.05,-0.87 -3.55,-3.69 -15.89,-4.05 -3.98,-0.07 -8.36,-0.09 -12.97,-0.09 -14.19,0 -30.41,0.23 -45.01,0.5 l -0.19,21.82 c 24.96,-0.35 44.05,-0.73 54.12,-0.9 z M 4411.48,4931.8 c 29.44,-0.33 59.34,-0.75 89.9,-1.26 9.44,-0.14 18.42,3.47 25.15,10.14 6.72,6.65 10.38,15.63 10.3,25.08 l -0.98,107.71 c 1.86,0 3.77,0 5.69,0 h 1.81 l 81.09,-129.37 c 6.25,-9.99 17.1,-16.12 28.88,-16.35 34.67,-0.69 70.4,-1.4 107.65,-2.1 l 0.69,-0.01 c 12.75,0 24.54,7.01 30.66,18.26 2.41,4.44 3.74,9.27 4.09,14.15 0.62,-18.51 15.5,-33.31 34.03,-33.76 27.96,-0.68 58.75,-1.76 91.38,-3.15 9.69,-0.4 19.28,3.31 26.15,10.18 6.87,6.87 10.58,16.45 10.2,26.16 l -4.64,110.33 123.89,-144.02 c 6.15,-7.17 14.91,-11.49 24.37,-12.08 26.63,-1.59 53.41,-3.28 80.01,-4.99 l 2.24,-0.08 c 9.17,0 18.07,3.64 24.6,10.14 7.08,7.03 10.84,16.82 10.26,26.78 l -20.72,355.62 c -1.02,17.77 -15.17,31.86 -32.95,32.81 -29.21,1.59 -58.84,3.1 -88.53,4.53 -9.82,0.48 -19.37,-3.2 -26.33,-10.16 -6.96,-6.96 -10.66,-16.48 -10.18,-26.32 l 5.15,-110.25 -120.05,142.07 c -6.34,7.53 -15.45,11.97 -25.29,12.35 -3.74,0.14 -7.38,0.29 -11.03,0.41 -22.87,0.9 -45.5,1.73 -67.47,2.52 -9.72,0.35 -18.97,-3.29 -25.85,-10.14 -6.88,-6.87 -10.55,-16.11 -10.24,-25.83 l 10.78,-346.48 c -0.64,5.43 -2.49,10.73 -5.66,15.43 l -83.23,122.78 c 10.14,5.5 19.96,12.48 28.91,21.77 l -25.65,23.62 25.67,-23.62 c 20.51,21.9 33.14,50.34 32.91,80.04 -0.03,23.21 -7.03,45.96 -18.86,67.77 -15.54,28.81 -40.53,47.93 -66.44,59.9 -26.09,12.05 -53.76,17.8 -79.68,20.29 -25.05,2.33 -66.08,2.99 -105.26,3.22 l -87.1,-0.16 c -19.28,-0.03 -34.85,-15.62 -34.85,-34.9 v -354.14 c 0,-19.17 15.36,-34.68 34.53,-34.89"
         style="fill:#008350;fill-opacity:1;fill-rule:nonzero;stroke:none"
         id="path106"
         inkscape:connector-curvature="0" /><path
         d="m 2500.04,5004.78 c 2.93,18.12 6.28,34.91 8.06,45.11 1.55,9.08 4.54,20.63 8.23,29.73 1.01,2.55 2.09,4.86 3.13,6.89 2.64,4.13 5.7,7.55 8.72,10.26 12.9,9.35 23.07,15.12 40.92,17.55 3.87,0.46 7.24,0.67 10.12,0.67 14.01,-0.42 14.77,-3.24 15.68,-3.8 0.86,-0.77 2.45,-4.56 2.41,-9.75 0.04,-9.06 -1.56,-32.67 -4.47,-56.02 -2.76,-23.28 -7.37,-48.26 -11.09,-58.63 -4.09,-11.73 -8.7,-19.16 -15.45,-25.51 -6.81,-6.27 -16.88,-12.27 -34.68,-17.07 -6.78,-1.81 -12.65,-2.5 -17.48,-2.48 -3.33,0 -5.99,0.38 -8.32,0.87 l -1.49,0.45 c -7.98,2 -9.36,5.72 -9.49,14.37 0.13,11.56 2.38,30.11 5.2,47.36 z m -165.18,-69.32 c 0.1,-18.44 1.85,-36.4 9.56,-54.11 16.32,-38.21 63.42,-74.13 137.86,-74.13 l 2.1,0.01 c 1.87,0 3.67,0.01 5.43,0.05 75.16,0.92 125.75,24.76 174.69,58.91 29.56,20.13 48.68,46.43 60.56,71.74 11.96,25.35 17.3,49.91 20.91,68.83 3.76,20.36 12.76,59.32 12.84,99.39 -0.26,27.87 -3.78,58.07 -22.88,84.78 -17.12,23.13 -41.06,36.76 -65.08,45 -24.19,8.2 -49.29,11.32 -72.63,11.35 -14.14,0 -27.62,-1.17 -40.09,-3.42 v -0.01 c -61.82,-11.3 -114.97,-42.38 -152.79,-76.22 -23.26,-21.02 -36.24,-47.86 -44.92,-74.22 -8.66,-26.51 -13.13,-53.46 -17.09,-77.45 -4.55,-28.09 -8.42,-55.11 -8.47,-80.5"
         style="fill:#008350;fill-opacity:1;fill-rule:nonzero;stroke:none"
         id="path108"
         inkscape:connector-curvature="0" /><path
         d="m 1621.65,4786.14 c -92.09,-15.31 -191.11,-34.66 -289.98,-55.64 l -41.04,-8.68 -9.49,-40.87 -199.75,-859.49 c -84.671,-19.39 -163.531,-41.2 -233.277,-64.21 l 236.017,918.19 -106.786,-26 C 853.555,4619.3 748.93,4592.12 684.664,4574.93 l -36.402,-9.74 -616.5862,-2222.92 113.6442,33.2 c 93.696,27.37 207.817,59.75 337.602,94.97 l 37.039,10.05 192.141,748.73 c 84.945,70.61 171.336,121.34 268.55,161.41 l -195.711,-840.33 104.645,26.13 c 106.062,26.49 217.334,53.38 332.294,79.96 l 40.89,9.48 454.27,2136.14 -95.39,-15.87"
         style="fill:#008350;fill-opacity:1;fill-rule:nonzero;stroke:none"
         id="path110"
         inkscape:connector-curvature="0" /><path
         d="m 3448.27,4224.13 c -16.45,-40.08 -40.41,-71.63 -50.25,-78.87 -12.11,-9.7 -17.78,-12.59 -28.13,-16.18 -10.29,-3.47 -27.19,-6.6 -54.2,-10.06 -35.13,-4.57 -72.1,-10.35 -116.53,-17.38 l 34.42,383.86 c 26.17,4.36 52.53,11.57 78.85,13.59 15.51,1.19 29.8,1.83 42.74,1.83 42.89,0.09 67.82,-7.37 81.34,-17.58 7.13,-5.3 13.24,-11.78 19.7,-23.48 6.37,-11.64 12.59,-28.71 17.09,-52.66 2.83,-15.06 4.18,-30.71 4.17,-46.67 0.11,-46.77 -12.02,-96.15 -29.2,-136.4 z m 1530.93,646.22 c -72.54,3.04 -144.91,5.27 -216.74,6.55 -19.26,0.33 -38.37,0.64 -57.41,0.91 l -68.2,0.96 14.82,-735.86 -323.9,736.18 -43.49,-0.46 c -91.04,-0.93 -179.05,-2.55 -263.63,-4.68 l -62.11,-1.57 -60.24,-1784.41 -274.66,779.57 c 66.87,40.76 134.93,100.62 184.83,187.57 64.88,112.78 86.54,219.23 86.4,307.57 0.03,102.94 -28.66,181.41 -46.16,222.25 -19.35,44.29 -58.45,104.56 -119.63,159.82 -60.64,54.35 -145.89,103.03 -250.81,103.15 -2.45,0 -5.11,-0.02 -7.96,-0.1 -78.73,-1.8 -182.33,-7.57 -281.15,-14.44 l -1.48,-0.11 -331.83,-37.45 -27.74,-242.12 -187.05,-1639.22 81.84,8.77 c 88.12,9.43 174.83,17.23 259.45,23.05 17.72,1.21 35.36,2.4 52.87,3.59 l 55.99,3.81 74.37,799.61 c 4.56,1.05 9.42,2.06 14.55,3 16.93,3.22 36.72,5.94 58.25,8.26 l 224.69,-788.16 52.48,2.78 c 113.75,6.07 221.81,11.07 325.22,15.05 l 63.36,2.47 61.43,1.95 c 109.23,3.46 213.45,5.72 313.95,6.82 l 64.7,0.68 6.3,851.61 370.74,-855.44 41.84,-1.27 c 96.94,-2.97 192.4,-7.15 288.01,-12.58 l 72.86,-4.1 -84.36,1883.49 -60.4,2.5"
         style="fill:#008350;fill-opacity:1;fill-rule:nonzero;stroke:none"
         id="path112"
         inkscape:connector-curvature="0" /><path
         d="m 2331.53,4320.75 v -0.06 c -0.73,-5.41 -1.61,-11.64 -2.58,-18.81 h 0.01 c -1.24,-9.52 -10.21,-70.41 -22.73,-154.6 -37.79,-253.93 -109.42,-730.57 -116.65,-778.38 -5.85,-42.55 -35.32,-81.09 -55.29,-99.22 -21,-19.36 -75.54,-64.26 -160.67,-64.17 -3.97,0 -8.15,0.12 -12.53,0.3 -17.35,0.87 -28.62,4.19 -35.72,7.5 -10.42,5.22 -13.64,9.33 -17.8,17.12 -3.86,7.69 -6.46,20.1 -6.39,33.87 -0.01,7.47 0.69,15.14 1.83,22.11 4.64,28.79 42.08,244.76 80.3,462.48 19.14,109.01 38.52,218.74 54.19,306.34 15.61,87.3 27.77,153.78 31.68,172.32 5.91,29.14 22.95,63.67 46.45,90.63 23.42,27.31 52.38,46.36 79.16,52.71 19.4,4.8 47.89,8.92 73.27,8.92 h 0.59 c 9.56,0.02 18.65,-0.59 26.57,-1.64 25.46,-6.2 39.42,-18.35 36.31,-57.42 z m 422.27,87.29 c 0.16,37.43 -6.15,79.72 -26.36,121.71 -20.05,42.09 -52.23,82.68 -99.11,124.8 -39.04,35.04 -85.33,57.08 -132.59,70.43 -47.41,13.36 -96.25,18.32 -143.54,18.35 -86.86,-0.16 -168.27,-16.54 -227.45,-36.72 -138.13,-47.47 -248.42,-126.49 -328.1,-213.32 -79.56,-87.23 -129.65,-181.13 -145.7,-267.66 -21.44,-118.91 -176.34,-903.05 -191.61,-977.43 -5.31,-25.89 -8.02,-53.77 -8.04,-82.79 0.43,-75.05 17.14,-159.12 68.52,-228.06 27.02,-35.82 66.33,-75.37 122.52,-105 55.96,-29.71 127.78,-48.85 216.64,-48.85 h 0.79 c 33.39,0 69.25,2.6 107.83,8.22 246.35,36 407.77,167.78 484.84,251.2 36.6,39.62 74.94,85.87 106.93,146.08 32.07,60.16 57.27,133.67 70.75,226.4 25.49,174.64 108.6,827.83 118.56,919.33 2.51,23.19 5.09,47.27 5.12,73.31"
         style="fill:#008350;fill-opacity:1;fill-rule:nonzero;stroke:none"
         id="path114"
         inkscape:connector-curvature="0" /><path
         d="m 8526.04,2957.45 c -2.32,11.83 -4.66,23.73 -7.05,35.68 -17.69,87.93 -49.15,178.98 -78.22,258.31 -10.88,29.55 -23.27,58.78 -37.57,87.4 -28.51,57.05 -63.17,115.71 -104.94,167.96 -81.08,101.37 -178.33,187.74 -285.4,258.92 -94.92,62.83 -201.8,112.69 -293.8,171 -92.42,58.3 -167.22,122.79 -207.77,209.38 -13.2,27.64 -21.39,66.36 -21.22,101.62 -0.01,11.28 0.76,22.12 2.22,31.98 4.16,24.34 10.61,30.87 18.64,37.31 8.24,6.13 23.88,11.4 46.19,11.35 24.3,0.12 54.64,-6.44 81.83,-17.65 27.23,-10.96 51.37,-26.87 64.03,-39.86 19.83,-19.76 39.28,-45.75 54.28,-72.02 4.74,-9.19 11.98,-24.87 19.52,-44.08 1.06,-3.27 2.18,-6.79 3.32,-10.46 6.75,-21.61 15.25,-50.51 22.03,-75 0.58,-2.09 1.14,-4.11 1.69,-6.15 5.83,-31.53 8.92,-47.27 10.54,-58.04 l 1.59,-23.1 445.21,-117.77 -17.23,101 c -5.88,33.67 -21.29,91.27 -44.03,156.42 -22.97,64.82 -51.75,134.08 -88.95,188.06 -45.55,65.3 -94.04,132.82 -160.84,191.45 -61.81,54.07 -140.52,103.65 -226.89,140.79 -86.37,36.96 -180.31,61.64 -273.41,61.79 -37.59,0 -75.09,-4.12 -111.56,-13.61 -88.69,-22.69 -153.95,-82.43 -192.75,-152.12 -17.37,-30.97 -30.29,-63.94 -39.32,-97.77 l -35.11,171.51 -42.59,8.75 c -199.7,40.95 -537.78,100 -936.39,151.37 l -50.83,6.53 v 0 l -0.54,0.08 -33.05,4.24 0.03,-0.22 -17.56,2.15 c -260.57,31.81 -542.9,59.54 -826.59,76.39 l -73.96,4.37 108.02,-1886.03 57.67,-4.26 c 96.37,-7.09 194.06,-15.39 294.63,-24.82 228.32,-21.51 444.8,-46.6 642.11,-72.52 l 84.39,-11.04 -51.38,417.67 -48.73,7.96 c -159.02,26.02 -389.6,55.8 -562.35,70.1 l -33.1,404.24 c 149.46,-11.24 342.84,-29.07 506.44,-56.84 l 87.21,-14.76 -46.67,379.4 -50.16,6.95 c -154.79,21.41 -326.21,38.36 -527.01,54.07 l -28.82,352.33 c 111.52,-10.11 287.41,-27.31 479.18,-49.63 l 50.9,-5.93 50.65,-6.22 c 94.22,-11.56 190.18,-24.22 282.44,-37.76 l 237.02,-1571.95 47.7,-7.54 c 122.59,-19.37 229.6,-37.61 317.44,-53.32 l 92.59,-16.6 -273.05,1579.38 c 121.81,-21.24 197.2,-34.93 240.63,-43.04 l 44.04,-8.2 c 2.31,-27.4 6.75,-54.24 13.42,-80 39.05,-149.66 115.06,-299.69 224.31,-414.62 61.53,-64.48 134.76,-121.95 210.09,-167.72 71.4,-43.26 143.34,-77.73 209.77,-115.18 85.18,-47.73 162.42,-98.9 217.87,-166.76 51.11,-61.57 105,-167.68 125.45,-245.34 9.69,-35.3 20.5,-83.44 20.32,-121.43 0.05,-17.28 -2.22,-31.95 -5.67,-41.66 -3.58,-9.9 -7.05,-14.28 -11.67,-17.97 -3.49,-2.77 -11.34,-6.34 -28.07,-6.4 -24.75,-0.35 -63.71,9.94 -100.26,25.6 -36.68,15.45 -71.8,35.41 -93.4,49.55 -31.17,20.18 -63.02,51.98 -88.21,88.42 -25.34,36.39 -43.95,77.41 -51.8,113.99 -9.57,43.94 -15.22,73.23 -18.43,91.18 -1.62,8.97 -2.63,15.14 -3.21,18.87 -0.28,1.84 -0.46,3.13 -0.56,3.83 l -0.1,0.65 -5.74,45.94 -451.2,100.25 12.16,-93.25 c 0.32,-1.78 11.9,-92.49 36.99,-178.66 25.99,-88.4 53.16,-182.35 102.3,-271.84 80.77,-146.12 213.23,-260.24 353.95,-335.2 109.49,-57.95 240.21,-109.43 370.43,-124.31 18.72,-2.11 37.77,-3.27 57.08,-3.27 h 0.39 c 20.03,0 40.32,1.29 60.75,4.22 100.58,14.59 196.33,70.12 252.48,161.47 36.62,60.27 46.95,126.87 47,188.9 -0.07,65.73 -11.57,128.46 -21.78,181.14"
         style="fill:#008350;fill-opacity:1;fill-rule:nonzero;stroke:none"
         id="path116"
         inkscape:connector-curvature="0" /><g
         id="g118"><g
           id="g120"
           clip-path="url(#clipPath124)"><path
             d="M 1345.35,4666.03 1136.2,3766.11 C 984.453,3733.52 849.293,3692.44 752.922,3651.62 L 992.93,4585.39 C 869.703,4555.4 765.48,4528.32 701.715,4511.26 L 126.855,2438.74 c 94.083,27.48 208.59,59.96 338.809,95.31 l 187.832,731.92 c 127.945,110.49 260.906,178.11 418.824,227.65 L 873.621,2640.36 c 106.406,26.58 218.039,53.53 333.409,80.23 l 425.43,2000.52 c -90.76,-15.09 -188.93,-34.27 -287.11,-55.08"
             style="fill:url(#linearGradient132);fill-opacity:1;fill-rule:nonzero;stroke:none"
             id="path134"
             inkscape:connector-curvature="0" /></g></g><g
         id="g136"><g
           id="g138"
           clip-path="url(#clipPath142)"><path
             d="m 4761.29,4810.99 c -19.14,0.34 -38.18,0.63 -57.16,0.91 l 20.09,-997.5 -439.26,998.33 c -90.7,-0.94 -178.38,-2.54 -262.65,-4.66 l -58.84,-1743.55 c 109.66,3.47 214.33,5.74 315.33,6.81 l 8.12,1098.91 478.18,-1103.34 c 97.52,-2.97 193.58,-7.17 289.74,-12.62 l -78.37,1750.22 c -72.08,3.01 -143.92,5.22 -215.18,6.49"
             style="fill:url(#linearGradient150);fill-opacity:1;fill-rule:nonzero;stroke:none"
             id="path152"
             inkscape:connector-curvature="0" /></g></g><g
         id="g154"><g
           id="g156"
           clip-path="url(#clipPath160)"><path
             d="m 7015.24,4555.93 c -197.7,40.56 -534.67,99.44 -931.59,150.57 l 26.95,-214.99 c 111.17,-13.65 224.82,-28.82 332.33,-45.21 l 237.09,-1572.37 c 123.06,-19.45 230.51,-37.77 318.77,-53.57 l -272.94,1578.83 c 177.57,-30.59 279.71,-49.12 333.56,-59.15 l -44.17,215.89"
             style="fill:url(#linearGradient168);fill-opacity:1;fill-rule:nonzero;stroke:none"
             id="path170"
             inkscape:connector-curvature="0" /></g></g><g
         id="g172"><g
           id="g174"
           clip-path="url(#clipPath178)"><path
             d="m 5552.85,3300.96 -43.94,536.99 c 155.82,-10.68 391.86,-29.63 589.38,-63.09 l -29.66,241.3 c -166.96,23.1 -354.51,41.06 -579.07,57.95 l -39.77,486.23 c 92.45,-7.72 312.37,-27.96 558.86,-56.65 l -26.5,215.53 c -259.45,31.68 -540.51,59.27 -822.49,76.01 l 100.46,-1754.38 c 96.89,-7.11 195.01,-15.45 295.97,-24.97 229.24,-21.54 446.48,-46.75 644.52,-72.73 l -34.96,284.18 c -174.8,28.62 -440.61,62.21 -612.8,73.63"
             style="fill:url(#linearGradient186);fill-opacity:1;fill-rule:nonzero;stroke:none"
             id="path188"
             inkscape:connector-curvature="0" /></g></g><g
         id="g190"><g
           id="g192"
           clip-path="url(#clipPath196)"><path
             d="m 8454.38,2980.16 c -16.38,81.68 -46.75,170.37 -75.47,248.55 -10.12,27.49 -21.59,54.46 -34.66,80.68 -26.97,54 -59.64,109 -97.44,156.25 -76.43,95.53 -168.51,177.43 -270.44,245.19 -177.87,118.24 -427.15,199.76 -524.73,407.22 -23.76,50.53 -32.62,115.78 -24.56,171.24 23.41,161.02 242.08,108.96 322.63,28.07 32.94,-33.09 62.59,-76.35 81.67,-119.04 7.37,-16.47 45.87,-146.64 47.1,-164.69 l 300.48,-79.48 c -9.16,53.67 -60.09,228.75 -122.12,317.92 -45.01,64.68 -90.53,127.26 -150.16,179.52 -134.08,117.52 -371.54,221.59 -551.84,174.75 -177.42,-46.09 -226.43,-267.73 -186.23,-422.71 36.26,-139.71 108.29,-280.9 208.21,-385.71 56.91,-59.7 126.06,-114.05 196.59,-156.85 67.7,-41.1 138.94,-75.31 207.88,-114.08 87.39,-49.12 172.33,-104.16 236.52,-182.43 58.55,-71.39 114.15,-181.16 138.13,-269.96 19.27,-71.41 47.62,-198.01 -20.4,-250.41 -75.01,-57.74 -231.99,22.67 -298,65.72 -79.47,51.8 -148.04,149.88 -168.42,243.62 -19.37,89.17 -23.27,120.19 -23.27,120.19 l -314.04,69.78 c 0,0 11.62,-89.17 34.9,-168.65 25.88,-88.38 52.16,-177.5 96.78,-258.57 72.52,-131.74 195.81,-239.03 327.12,-308.77 104.18,-55.36 229.14,-103.77 346.86,-117.04 33.81,-3.78 67.86,-4.12 101.59,0.71 82.74,11.85 161.52,58.42 205.49,130.53 57.48,94.27 36.54,222.24 16.81,323.08 -2.3,11.8 -4.62,23.59 -6.98,35.37"
             style="fill:url(#linearGradient204);fill-opacity:1;fill-rule:nonzero;stroke:none"
             id="path206"
             inkscape:connector-curvature="0" /></g></g><g
         id="g208"><g
           id="g210"
           clip-path="url(#clipPath214)"><path
             d="m 2394.32,4293.39 c -5.82,-44.59 -129.89,-870.4 -139.58,-934.37 -9.69,-63.98 -48.47,-112.44 -75.6,-137.65 -27.14,-25.2 -102.75,-87.22 -221,-81.42 -118.25,5.82 -129.88,96.93 -120.19,157.04 9.7,60.09 149.27,860.71 166.71,944.07 17.45,83.36 87.24,172.52 174.48,193.85 58.98,14.42 159.97,19.16 195.79,-25.2 32.22,-39.89 25.2,-71.73 19.39,-116.32 z m 189.98,312.11 c -114.38,102.75 -330.27,75.81 -438.12,38.77 -253.94,-87.23 -405.15,-290.78 -430.35,-430.35 -21.83,-120.85 -176.42,-903.37 -191.92,-978.98 -15.51,-75.59 -5.82,-186.09 48.46,-257.81 54.28,-71.73 158.96,-153.14 385.77,-120.21 226.81,32.97 376.09,155.1 445.86,230.7 69.8,75.6 135.71,164.77 160.91,337.3 25.2,172.53 108.56,827.77 118.25,916.94 9.7,89.18 15.51,160.9 -98.86,263.64"
             style="fill:url(#linearGradient222);fill-opacity:1;fill-rule:nonzero;stroke:none"
             id="path224"
             inkscape:connector-curvature="0" /></g></g><g
         id="g226"><g
           id="g228"
           clip-path="url(#clipPath232)"><path
             d="m 3439.9,4094.35 c -33.33,-27.4 -59.94,-33.45 -115.72,-40.69 -53,-6.88 -112.38,-16.95 -198.26,-30.26 l 49.52,520.24 c 43.62,8.72 85.25,17.57 131.93,21.16 126.01,9.68 205.49,-11.64 230.7,-145.4 25.2,-133.76 -44.19,-280.66 -98.17,-325.05 z m 311.4,-6.44 c 127.95,222.93 65.92,403.22 36.84,471.08 -29.08,67.84 -145.4,226.8 -315.99,222.92 -77.23,-1.76 -180.28,-7.49 -278.4,-14.31 l -278.38,-31.42 -21.77,-190.01 -177.72,-1557.39 c 88.88,9.49 176.4,17.34 261.94,23.24 17.78,1.21 35.42,2.42 52.95,3.59 l 73.18,786.68 c 33.4,15.84 87.48,24.24 149.02,29.95 12.14,0.96 23.37,1.89 33.84,2.85 l 225.24,-790.1 c 114.03,6.07 222.41,11.09 326.19,15.11 l -295.4,838.47 c 73.62,35.54 153.66,93.85 208.46,189.34"
             style="fill:url(#linearGradient240);fill-opacity:1;fill-rule:nonzero;stroke:none"
             id="path242"
             inkscape:connector-curvature="0" /></g></g><path
         d="m 2159.2,4864.45 c -41.68,-17.44 -61.06,-17.44 -97.41,-18.41 -36.35,-0.97 -57.19,18.41 -57.19,18.41 l -70.27,-58.64 c 17.45,-13.08 42.64,-29.56 103.23,-28.59 60.58,0.97 114.23,11.91 160.41,35.38 59.12,30.05 94.4,66.6 98.87,115.35 5.33,58.15 -26.18,79.47 -77.06,81.9 -50.89,2.42 -74.15,-2.91 -98.87,-2.43 -24.71,0.49 -44.58,15.99 -27.62,46.52 16.96,30.54 71.73,40.71 91.6,42.17 19.86,1.45 42.56,0.82 54.76,-6.29 5.81,-3.4 12.12,-9.21 12.12,-9.21 l 67.36,54.27 c -24.72,16.96 -59.13,28.6 -113.89,24.73 -54.76,-3.89 -132.79,-25.69 -171.56,-65.92 -38.78,-40.23 -48.95,-77.54 -41.19,-110.02 7.75,-32.46 50.4,-47 100.8,-45.07 50.41,1.95 96.45,9.22 103.22,-7.74 6.79,-16.97 4.37,-48.95 -37.31,-66.41"
         style="fill:#ffffff;fill-opacity:1;fill-rule:nonzero;stroke:none"
         id="path244"
         inkscape:connector-curvature="0" /><path
         d="m 2614.76,4975.44 c -10.66,-31.02 -30.53,-53.31 -74.15,-64.94 -43.62,-11.64 -74.15,5.81 -79.48,31.01 -5.33,25.2 8.72,92.09 12.6,114.38 3.88,22.29 13.57,53.79 29.56,65.91 16,12.12 33.93,23.75 61.55,27.15 54.19,6.64 67.37,-23.76 67.37,-47.51 0,-23.74 -6.79,-94.98 -17.45,-126 z m 93.05,194.83 c -29.57,40.21 -99.86,47.1 -143.45,39.25 -53.8,-9.69 -102.26,-37.8 -135.7,-67.85 -33.44,-30.05 -43.14,-83.84 -50.89,-131.33 -7.75,-47.5 -12.59,-89.67 -1.45,-114.87 11.15,-25.2 44.1,-54.76 112.92,-53.31 68.82,1.45 108.07,20.36 155.56,52.83 47.5,32.47 60.1,82.39 66.88,118.24 6.79,35.88 25.7,116.81 -3.87,157.04"
         style="fill:#ffffff;fill-opacity:1;fill-rule:nonzero;stroke:none"
         id="path246"
         inkscape:connector-curvature="0" /><path
         d="m 5956.42,5143.94 c 18.88,22.29 41.67,19.87 54.75,19.38 37.37,-1.38 84.82,-23.74 94.02,-84.81 9.2,-61.07 20.36,-115.34 4.36,-136.18 -16,-20.83 -49.43,-26.18 -84.33,-14.06 -34.89,12.12 -54.26,32.47 -59.59,54.28 -5.34,21.82 -28.11,139.09 -9.21,161.39 z m 95.46,-285.45 c 84.32,-11.15 131.83,21.32 148.79,53.79 16.96,32.48 1.95,103.71 -4.37,146.36 -6.3,42.65 -21.32,77.54 -54.77,108.07 -33.42,30.54 -94.54,55.42 -145.87,59.14 -87.23,6.29 -122.12,-38.78 -133.76,-68.34 -11.63,-29.56 4.47,-126.22 15.52,-176.42 11.62,-52.82 90.14,-111.46 174.46,-122.6"
         style="fill:#ffffff;fill-opacity:1;fill-rule:nonzero;stroke:none"
         id="path248"
         inkscape:connector-curvature="0" /><path
         d="m 6549.28,4792.9 c 25.55,-4.42 50.71,-8.77 75.05,-12.99 l -10.27,65 c 0,0 -66.37,11.15 -121.16,19.88 -54.77,8.72 -90.62,13.56 -90.62,13.56 l -44.29,294.98 c -34.77,5.41 -65.7,10.22 -89.61,13.72 l 51.52,-360.65 c 57.81,-7.22 145.46,-19.02 229.38,-33.5"
         style="fill:#ffffff;fill-opacity:1;fill-rule:nonzero;stroke:none"
         id="path250"
         inkscape:connector-curvature="0" /><path
         d="m 6735.75,4760.56 c 36.16,-6.31 67.41,-11.77 91.42,-16.02 l -27.97,153.2 97.94,190.4 c -23.98,4.1 -56.47,9.52 -93.07,15.54 L 6746.86,4977.7 6641.3,5130 c -39.01,6.18 -75.61,11.89 -105.28,16.36 l 171.59,-234.08 28.14,-151.72"
         style="fill:#ffffff;fill-opacity:1;fill-rule:nonzero;stroke:none"
         id="path252"
         inkscape:connector-curvature="0" /><path
         d="m 4499.28,5259.22 c 42.42,-0.49 75.58,-1.14 89.97,-1.39 27.62,-0.5 57.67,-23.75 56.7,-46.05 -0.98,-22.29 -15.03,-44.58 -52.82,-45.07 -29.1,-0.37 -73.9,0.69 -93.02,1.21 z m 1.37,-150.69 c 8.79,-0.08 36.01,-0.29 61.99,-0.12 l 91.38,-145.78 c 34.67,-0.68 70.38,-1.38 107.64,-2.1 l -107.69,158.88 c 21.51,6.14 44.15,15.37 56.59,28.89 28.1,30.53 31.34,66.39 9.05,107.59 -22.3,41.2 -72.69,57.67 -118.73,62.03 -22.29,2.11 -63.5,2.86 -102.15,3.07 l -86.86,-0.16 v -354.14 c 29.51,-0.33 59.49,-0.76 90.08,-1.25 l -1.3,143.09"
         style="fill:#ffffff;fill-opacity:1;fill-rule:nonzero;stroke:none"
         id="path254"
         inkscape:connector-curvature="0" /><path
         d="m 5650.13,5198.22 c 26.16,-2.43 61.53,-31.02 58.15,-59.13 -3.4,-28.11 -24.73,-38.29 -55.26,-35.86 -30.53,2.42 -89.17,7.75 -89.17,7.75 l -7.76,96.44 c 0,0 67.86,-6.78 94.04,-9.2 z m -67.71,-286.53 -12.27,137.26 c 0,0 11.65,-1.94 104.2,-9.21 92.56,-7.26 129.88,49.43 119.22,112.92 -10.66,63.48 -101.28,102.74 -146.36,107.11 -45.08,4.36 -185.14,16.47 -185.14,16.47 l 30.69,-357.06 c 39.43,-3.15 70.54,-5.78 89.66,-7.49"
         style="fill:#ffffff;fill-opacity:1;fill-rule:nonzero;stroke:none"
         id="path256"
         inkscape:connector-curvature="0" /><path
         d="m 3848.76,5168.72 c -63.67,-2.03 -123.45,-3.99 -152.74,-5.12 l 8.2,141.34 c -29.62,-1.43 -59,-2.91 -87.75,-4.41 l -22.6,-355.1 c 29.58,1.68 59.61,3.27 89.76,4.78 l 8.62,148.55 c 33.59,1.78 93.34,4.87 153.61,7.57 l -6.93,-149.11 c 30.53,1.24 60.52,2.38 89.63,3.41 l 13.37,354.38 c -27.93,-0.97 -56.93,-2.07 -86.53,-3.28 l -6.64,-143.01"
         style="fill:#ffffff;fill-opacity:1;fill-rule:nonzero;stroke:none"
         id="path258"
         inkscape:connector-curvature="0" /><path
         d="m 2843.99,4904.2 c 51.37,-27.14 137.64,-13.09 189.98,13.09 45.82,22.9 85.3,66.88 91.11,111.46 4.71,36.08 19.25,183.47 24.63,238.44 -29.35,-2.7 -58.93,-5.49 -87.81,-8.28 -5.75,-55.09 -21.38,-204.47 -24.54,-229.68 -3.87,-31.01 -27.62,-67.85 -89.17,-73.66 -61.55,-5.82 -71.24,32.46 -69.79,56.21 1.21,19.66 20.65,177.64 27.32,231.55 -38.27,-3.95 -69.21,-7.28 -88.21,-9.43 -6.43,-52.27 -24.78,-200.9 -28.77,-230.35 -4.84,-35.86 3.88,-72.21 55.25,-99.35"
         style="fill:#ffffff;fill-opacity:1;fill-rule:nonzero;stroke:none"
         id="path260"
         inkscape:connector-curvature="0" /><path
         d="m 4325.27,4967.34 0.29,61.93 c -75.98,0.89 -173.18,-0.19 -213.21,-0.85 l 2.37,85.32 c 72.59,1.84 145.4,3.72 180.18,4.01 l 1.25,61.06 c -47.38,-0.31 -126.72,-1.59 -179.71,-2.64 l 2.27,82.38 c 39.65,0.34 130.5,0.69 207.94,1.04 l 0.28,61.07 c -79.1,-0.13 -164.04,-0.88 -271.27,-3.06 -7.37,-0.15 -14.98,-0.33 -22.7,-0.51 l -10.99,-354.05 c 63.37,1.87 118.99,3.12 161.63,3.67 47.54,0.63 94.39,0.8 141.67,0.63"
         style="fill:#ffffff;fill-opacity:1;fill-rule:nonzero;stroke:none"
         id="path262"
         inkscape:connector-curvature="0" /><path
         d="m 5163.37,5297.15 c -29.16,1.58 -58.71,3.08 -88.34,4.51 l 9.97,-212.87 -186.35,220.54 c -3.69,0.15 -7.35,0.29 -11.02,0.43 -22.84,0.89 -45.42,1.73 -67.35,2.5 l 11,-353.09 c 28.26,-0.69 59.23,-1.78 92.03,-3.17 l -8.88,210.75 189.45,-220.21 c 26.69,-1.6 53.52,-3.29 80.18,-5.01 l -20.69,355.62"
         style="fill:#ffffff;fill-opacity:1;fill-rule:nonzero;stroke:none"
         id="path264"
         inkscape:connector-curvature="0" /><path
         d="m 3304.51,4923.63 c 28.05,2.84 58.87,5.57 91.66,8.17 l 23.06,294.89 c 49.84,3.45 94.6,6.33 116.75,7.26 l 4.63,62.03 c -59.66,-3.28 -114.48,-6.52 -159.57,-9.4 -43.73,-2.79 -101.06,-7.44 -162.58,-12.86 l -6.29,-62.35 c 21.01,1.71 66.87,5.21 118.3,8.98 l -25.96,-296.72"
         style="fill:#ffffff;fill-opacity:1;fill-rule:nonzero;stroke:none"
         id="path266"
         inkscape:connector-curvature="0" /></g></g></svg>