<?xml version="1.0" encoding="UTF-8" standalone="no"?>
<!-- Created with Inkscape (http://www.inkscape.org/) -->

<svg
   xmlns:dc="http://purl.org/dc/elements/1.1/"
   xmlns:cc="http://creativecommons.org/ns#"
   xmlns:rdf="http://www.w3.org/1999/02/22-rdf-syntax-ns#"
   xmlns:svg="http://www.w3.org/2000/svg"
   xmlns="http://www.w3.org/2000/svg"
   xmlns:sodipodi="http://sodipodi.sourceforge.net/DTD/sodipodi-0.dtd"
   xmlns:inkscape="http://www.inkscape.org/namespaces/inkscape"
   version="1.1"
   id="svg2"
   xml:space="preserve"
   width="200"
   height="200"
   viewBox="0 0 199.99999 199.99999"
   sodipodi:docname="SPSU_ICON.svg"
   inkscape:version="0.92.1 r15371"
   inkscape:export-filename="/home/kurt/Desktop/SPSU Visual Identity WIP/Logos/icon/SPSU_ICON.png"
   inkscape:export-xdpi="48"
   inkscape:export-ydpi="48"><metadata
     id="metadata8"><rdf:RDF><cc:Work
         rdf:about=""><dc:format>image/svg+xml</dc:format><dc:type
           rdf:resource="http://purl.org/dc/dcmitype/StillImage" /><dc:title></dc:title></cc:Work></rdf:RDF></metadata><defs
     id="defs6" /><sodipodi:namedview
     pagecolor="#ffffff"
     bordercolor="#666666"
     borderopacity="1"
     objecttolerance="10"
     gridtolerance="10"
     guidetolerance="10"
     inkscape:pageopacity="0"
     inkscape:pageshadow="2"
     inkscape:window-width="1440"
     inkscape:window-height="843"
     id="namedview4"
     showgrid="false"
     inkscape:zoom="3.13"
     inkscape:cx="100"
     inkscape:cy="100"
     inkscape:window-x="0"
     inkscape:window-y="31"
     inkscape:window-maximized="1"
     inkscape:current-layer="g10"
     units="px" /><g
     id="g10"
     inkscape:groupmode="layer"
     inkscape:label="ink_ext_XXXXXX"
     transform="matrix(1.3333333,0,0,-1.3333333,0,199.99997)"><g
       id="g12"
       transform="matrix(0.09983249,0,0,0.09983249,1.0971543,0.06826185)"><path
         d="m 1370.01,432.898 c 0,-25.218 -17.86,-56.207 -39.8,-68.789 L 780.09,46.3008 c -21.82,-12.5625 -57.707,-12.5625 -79.543,0 L 150.32,364.109 c -21.914,12.602 -39.793,43.571 -39.793,68.789 v 635.382 c 0,25.24 17.879,56.25 39.793,68.83 l 550.227,317.65 c 21.836,12.68 57.723,12.68 79.543,0 l 550.12,-317.65 c 21.94,-12.58 39.8,-43.59 39.8,-68.83 V 432.898"
         style="fill:#008350;fill-opacity:1;fill-rule:nonzero;stroke:none"
         id="path14"
         inkscape:connector-curvature="0" /><path
         d="m 645.117,720.535 c 0,-35.41 0,-61.719 -43.437,-61.719 h -44.473 v 307.442 h 44.473 c 43.437,0 43.437,-34.297 43.437,-81.137 z M 601.68,1024.54 H 487.484 V 464.539 h 69.723 v 134.863 h 44.473 c 113.14,0 113.14,90.274 113.14,125.723 v 173.691 c 0,32.004 0,125.724 -113.14,125.724 v 0 0"
         style="fill:#ffffff;fill-opacity:1;fill-rule:nonzero;stroke:none"
         id="path16"
         inkscape:connector-curvature="0" /><path
         d="m 924.23,756.469 c -54.843,74.277 -86.593,98.277 -86.593,146.281 0,37.719 15.754,61.719 45.461,61.719 26.297,0 39.304,-22.864 39.304,-50.305 v -25.25 h 70.86 v 28.691 c 0,56.004 -41.59,106.285 -110.164,106.285 -62.871,0 -114.043,-35.425 -114.043,-123.421 0,-69.723 44.336,-113.141 88.894,-173.723 52.578,-69.726 68.582,-88.008 68.582,-139.414 0,-30.859 -9.136,-66.309 -43.433,-66.309 -36.567,0 -51.426,30.86 -51.426,55.997 v 33.144 h -69.719 v -29.695 c 0,-32.004 18.274,-117.731 121.145,-117.731 61.715,0 114.297,35.434 114.297,128.012 0,69.719 -35.442,115.41 -73.165,165.719 v 0"
         style="fill:#ffffff;fill-opacity:1;fill-rule:nonzero;stroke:none"
         id="path18"
         inkscape:connector-curvature="0" /><path
         d="m 368.66,756.469 c -54.844,74.277 -86.59,98.277 -86.59,146.281 0,37.719 15.75,61.719 45.457,61.719 26.301,0 39.309,-22.864 39.309,-50.305 v -25.25 h 70.859 v 28.691 c 0,56.004 -41.59,106.285 -110.168,106.285 -62.871,0 -114.043,-35.425 -114.043,-123.421 0,-69.723 44.336,-113.141 88.899,-173.723 52.578,-69.726 68.586,-88.008 68.586,-139.414 0,-30.859 -9.145,-66.309 -43.442,-66.309 -36.558,0 -51.422,30.86 -51.422,55.997 v 33.144 h -69.718 v -29.695 c 0,-32.004 18.269,-117.731 121.14,-117.731 61.719,0 114.297,35.434 114.297,128.012 0,69.719 -35.437,115.41 -73.164,165.719 v 0"
         style="fill:#ffffff;fill-opacity:1;fill-rule:nonzero;stroke:none"
         id="path20"
         inkscape:connector-curvature="0" /><path
         d="m 1274.04,599.578 v 424.802 h -69.75 V 599.578 c 0,-41.133 -0.89,-76.914 -43.82,-76.914 -42.93,0 -50.98,35.781 -50.98,76.914 v 424.802 h -69.75 V 599.578 c 0,-37.558 5.37,-135.937 120.73,-135.937 116.27,0 113.57,98.379 113.57,135.937 v 0"
         style="fill:#ffffff;fill-opacity:1;fill-rule:nonzero;stroke:none"
         id="path22"
         inkscape:connector-curvature="0" /></g></g></svg>