<?xml version="1.0" encoding="UTF-8" standalone="no"?>
<!-- Created with Inkscape (http://www.inkscape.org/) -->

<svg
   xmlns:dc="http://purl.org/dc/elements/1.1/"
   xmlns:cc="http://creativecommons.org/ns#"
   xmlns:rdf="http://www.w3.org/1999/02/22-rdf-syntax-ns#"
   xmlns:svg="http://www.w3.org/2000/svg"
   xmlns="http://www.w3.org/2000/svg"
   xmlns:sodipodi="http://sodipodi.sourceforge.net/DTD/sodipodi-0.dtd"
   xmlns:inkscape="http://www.inkscape.org/namespaces/inkscape"
   version="1.1"
   id="svg2"
   xml:space="preserve"
   width="1135.5333"
   height="519.91998"
   viewBox="0 0 1135.5333 519.91998"
   sodipodi:docname="Hornets Type Line.svg"
   inkscape:version="0.92.1 r15371"><metadata
     id="metadata8"><rdf:RDF><cc:Work
         rdf:about=""><dc:format>image/svg+xml</dc:format><dc:type
           rdf:resource="http://purl.org/dc/dcmitype/StillImage" /><dc:title></dc:title></cc:Work></rdf:RDF></metadata><defs
     id="defs6" /><sodipodi:namedview
     pagecolor="#ffffff"
     bordercolor="#666666"
     borderopacity="1"
     objecttolerance="10"
     gridtolerance="10"
     guidetolerance="10"
     inkscape:pageopacity="0"
     inkscape:pageshadow="2"
     inkscape:window-width="1440"
     inkscape:window-height="843"
     id="namedview4"
     showgrid="false"
     inkscape:zoom="0.6869019"
     inkscape:cx="545.38725"
     inkscape:cy="284.9894"
     inkscape:window-x="0"
     inkscape:window-y="31"
     inkscape:window-maximized="1"
     inkscape:current-layer="g10" /><g
     id="g10"
     inkscape:groupmode="layer"
     inkscape:label="ink_ext_XXXXXX"
     transform="matrix(1.3333333,0,0,-1.3333333,0,519.92)"><g
       id="g12"
       transform="scale(0.1)"><path
         d="m 8494.36,1473.73 c -2.31,11.83 -4.66,23.73 -7.04,35.68 -17.7,87.93 -49.15,178.98 -78.22,258.31 -10.88,29.55 -23.27,58.78 -37.57,87.4 -28.52,57.05 -63.18,115.71 -104.94,167.96 -61.67,77.11 -132.75,145.48 -210.33,205.14 l 173.23,152.29 -17.24,101 c -5.88,33.67 -21.29,91.26 -44.02,156.42 -22.97,64.81 -51.75,134.08 -88.96,188.06 -45.54,65.3 -94.03,132.81 -160.84,191.45 -61.8,54.07 -140.51,103.65 -226.88,140.79 -86.38,36.96 -180.31,61.65 -273.41,61.79 -37.6,0 -75.1,-4.12 -111.56,-13.61 -88.69,-22.69 -153.96,-82.43 -192.76,-152.12 -6.35,-11.35 -11.92,-23.03 -17.12,-34.86 l -24.75,130.82 c 0,0 -14.86,3.13 -38.47,8.05 l -0.28,0.45 c 1.74,-0.38 3.52,-0.76 5.24,-1.14 0,0 -6.36,49.37 -185.11,80.87 2.73,7.09 4.19,14.66 4.19,22.33 -0.02,3.72 -0.35,7.4 -0.99,11.04 l -24.21,132.58 88.29,171.62 c 4.58,8.94 6.85,18.69 6.86,28.38 -0.01,9.5 -2.19,18.96 -6.53,27.69 -8.86,17.72 -25.52,30.07 -45.02,33.44 -24.19,4.16 -56.76,9.58 -93.47,15.61 -3.33,0.55 -6.72,0.85 -10.14,0.83 -24.01,0.03 -46.29,-13.98 -56.43,-36.43 l -12,-26.41 -43.3,62.46 c -9.57,13.9 -24.62,23.33 -41.25,25.93 -39.15,6.2 -75.83,11.92 -105.76,16.42 -3.08,0.46 -6.19,0.72 -9.31,0.72 -21.46,0 -41.76,-11.19 -53.06,-29.99 -4.57,-7.55 -7.27,-15.78 -8.32,-23.96 l -38.56,-83.04 -16.69,111.12 c -4,26.84 -25.04,47.95 -51.8,52.11 -34.78,5.41 -65.82,10.22 -90.17,13.78 -2.93,0.44 -5.92,0.65 -8.94,0.65 -16.31,-0.02 -32.07,-6.37 -43.86,-18.12 -9.97,-9.95 -15.97,-22.77 -17.66,-36.23 l -1.84,-4.59 c -6.59,7.84 -13.85,15.37 -21.82,22.54 -48.05,42.39 -116.53,69.27 -182.82,75.02 -7.02,0.53 -13.72,0.79 -20.31,0.79 -0.1,0 -0.3,0 -0.61,0 -0.2,0 -0.45,0 -0.72,0 -48.89,0.02 -89.63,-14.17 -119.28,-36.34 -12.02,-8.92 -21.97,-18.75 -30.11,-28.79 -3.02,4.29 -6.18,8.38 -9.46,12.25 -24.2,28.43 -54.24,47.56 -82.88,61.18 -29.01,13.51 -57.39,22 -83.72,24.72 -23.13,2.24 -69.46,6.35 -110.16,9.94 -20.35,1.79 -39.27,3.43 -53.1,4.65 -6.92,0.59 -12.57,1.08 -16.5,1.42 -1.96,0.16 -3.5,0.3 -4.52,0.41 -0.54,0.03 -0.93,0.08 -1.17,0.09 -0.1,0.02 -0.19,0.02 -0.26,0.02 l 0.16,-0.02 c 0.04,0 0.11,0 0.24,-0.01 0.37,-0.07 -0.11,0.05 1.93,-0.29 l -2.33,0.31 v 0.01 h -0.03 -0.04 l -0.12,0.02 c -1.7,0.14 -3.48,0.23 -5.37,0.23 -16.32,0.03 -32.22,-6.47 -43.86,-18.2 -8.01,-7.98 -13.17,-17.75 -15.8,-27.62 -0.28,-0.85 -0.53,-1.73 -0.71,-2.61 l -0.68,-2.99 h 0.01 l -0.02,-0.12 -79.12,-357.61 c -26.85,2.06 -55.1,4.13 -76.21,5.47 0.25,2.29 0.42,4.61 0.42,6.94 0,1.28 -0.04,2.26 -0.07,2.95 l -0.02,0.64 -20.71,355.63 c -1.81,31.5 -27.05,56.67 -58.58,58.33 -29.27,1.58 -58.95,3.1 -88.66,4.54 -0.78,0.04 -1.83,0.07 -3,0.07 -16.37,0.02 -32.22,-6.48 -43.9,-18.22 -11.56,-11.52 -18.16,-27.31 -18.16,-43.78 0.01,-0.38 0,-1.22 0.06,-2.44 l -3.5,-25.07 -63.52,75.18 c -11.13,13.28 -27.61,21.33 -45.01,21.95 -3.66,0.12 -7.34,0.28 -11.06,0.41 -22.82,0.92 -45.48,1.74 -67.47,2.53 -0.43,0.01 -1.15,0.05 -2.22,0.05 -16.33,0.04 -32.22,-6.51 -43.8,-18.12 -11.62,-11.53 -18.26,-27.44 -18.23,-43.87 0.03,0 -0.01,-0.78 0.06,-2.21 l 0.05,-1.02 c -17.97,22.1 -40.67,37.57 -63.11,47.91 -29.78,13.74 -60.43,19.96 -88.47,22.67 -27.12,2.5 -68.19,3.09 -107.68,3.35 l -87.34,-0.16 c -16.41,-0.03 -31.34,-6.44 -42.44,-16.88 -11.42,10.7 -26.62,16.73 -42.34,16.71 h -0.04 c -0.03,0 -0.05,0 -0.08,-0.02 -79.41,-0.11 -164.84,-0.86 -272.44,-3.05 -7.48,-0.15 -15.18,-0.33 -22.93,-0.52 -17.89,-0.43 -33.91,-8.42 -44.96,-20.92 -0.22,0.21 -0.41,0.41 -0.61,0.62 -11.68,11.7 -27.52,18.26 -43.96,18.26 -0.35,-0.01 -1.11,0 -2.31,-0.05 -28.02,-0.98 -57.11,-2.09 -86.75,-3.3 -32.15,-1.31 -57.94,-26.98 -59.44,-59.11 l -3.98,-85.74 c -4.47,-0.14 -8.88,-0.29 -13.2,-0.43 l -10.05,73.89 c 0.03,0.93 0.05,1.79 0.05,2.59 -0.02,16.33 -6.38,31.96 -17.95,43.69 -11.72,11.78 -27.48,18.35 -44.08,18.37 -0.7,0 -1.68,0 -3,-0.08 v 0.02 c -29.68,-1.44 -59.13,-2.93 -87.98,-4.43 -14.41,-0.76 -27.48,-6.39 -37.63,-15.27 -10.2,6.98 -22.41,10.84 -34.92,10.81 -0.85,0 -2,-0.01 -3.47,-0.1 -59.83,-3.3 -114.81,-6.54 -160.12,-9.43 -44.62,-2.86 -102.29,-7.54 -164.1,-12.98 -12.78,-1.12 -24.44,-6.1 -33.81,-13.76 -8.99,4.87 -19.12,7.46 -29.51,7.48 -1.78,0 -3.8,-0.06 -6.1,-0.32 -29.01,-2.67 -58.67,-5.47 -87.64,-8.26 -29.33,-2.76 -52.73,-25.95 -55.75,-55.32 -2.19,-20.96 -5.84,-55.93 -9.69,-92.42 l -22.91,74.68 c -1.01,14.61 -7.13,28.47 -17.52,39.12 -11.82,12.03 -27.78,18.65 -44.41,18.66 -1.98,0 -4.18,-0.1 -6.56,-0.36 -38.18,-3.96 -69.22,-7.28 -88.62,-9.5 -28.49,-3.23 -51.01,-25.59 -54.53,-54.05 -0.93,-7.48 -2.09,-16.96 -3.44,-27.81 -20.97,24.95 -47.76,39.35 -72.85,47.94 -27.73,9.4 -55.69,12.78 -81.4,12.82 -15.68,0 -30.74,-1.28 -44.95,-3.85 -0.26,-0.05 -0.53,-0.11 -0.8,-0.16 -67.51,-12.58 -124.38,-46.03 -165.27,-82.56 -6.29,-5.68 -11.92,-11.68 -16.97,-17.87 -4.23,6.17 -9.63,11.67 -16.04,16.06 -31.43,21.92 -74.36,36.42 -127.44,36.38 -0.15,-0.01 -0.56,0 -1.25,-0.02 -7.98,0 -16.22,-0.3 -24.78,-0.93 -33.21,-2.4 -70.86,-9.73 -107.84,-22.64 -36.69,-13.11 -74.05,-31.53 -103.82,-61.98 -38.36,-39.5 -61.06,-85.04 -61.07,-132.57 v -0.07 c 0,-0.03 0,-0.06 0,-0.08 0,-11.89 1.41,-23.62 4.13,-34.97 4.16,-17.77 12.91,-33.09 23.68,-45.28 l 7.27,-13.24 -68.54,-57.18 c -14.11,-11.74 -22.31,-29.29 -22.28,-47.61 0,-0.3 0,-1.06 0.05,-2.2 0.49,-14.89 6.4,-29.07 16.35,-39.84 l 43.3,-73.98 c -41.41,-21.7 -82.54,-55.93 -99.71,-69.66 -23.93,38.78 -104.24,165.53 -115.28,181.62 l 0.05,0.22 -0.18,-0.03 c -0.03,0.04 -0.08,0.12 -0.11,0.16 l -0.23,-0.22 -94.88,-15.78 c -92.08,-15.31 -191.11,-34.66 -289.97,-55.64 l -41.04,-8.68 -9.5,-40.87 -48.01,-206.59 -149.26,200.06 0.27,1.02 -106.792,-26 c -123.789,-30.14 -228.41,-57.31 -292.68,-74.51 L 616.586,3081.46 0,858.551 7.53125,860.742 1952.25,51.9922 1952.14,52.7305 2080.01,0 c 49.73,16.9297 139.16,45.6016 257.2,79.5898 l -2.65,1.3204 5.1,-0.5782 20.11,90.207 75.71,-42.199 25.82,-14.07 c 75.87,20.632 159.62,42.191 249.24,63.71 l 1.62,-0.148 0.1,0.559 c 0.4,0.097 0.79,0.199 1.19,0.3 l -1.02,0.7 33.65,196.679 114.3,-97.011 c 23.8,-16.079 68.91,-38.258 137.95,-38.5 0.71,-0.02 1.41,-0.079 2.11,-0.079 1.5,0 3,0.079 4.49,0.102 1.26,0.02 2.46,-0.023 3.74,0.02 1.22,0.039 2.37,0.117 3.58,0.179 1.55,0.039 3.09,0.02 4.63,0.09 1.05,0.039 2.11,0.16 3.15,0.219 44.95,2.172 79.9,9.609 114.86,23.422 17.18,6.308 33.44,13.808 48.58,21.808 49.13,23.809 96.26,56.289 132.49,98.051 8.82,10.219 16.41,20.02 23.11,29.41 l 72.47,-101.133 c 84.74,11.844 170.3,21.961 255.81,29.774 0.06,1.348 0.12,2.668 0.17,4.019 l -1.23,2.289 33.26,404 144.72,-397.679 c 15.98,0.82 31.98,1.699 47.89,2.351 168.84,6.7 312.19,10.309 436.97,11.368 l -7.08,450.191 190.71,-449.469 0.27,0.098 -0.18,-1.231 c 84.73,-1.218 160.05,-3.867 229.26,-7.718 0,0 12.12,-0.739 21.61,-1.231 l -0.01,-0.019 c 216.57,-13.032 375.05,-37.789 584.55,-66.172 l 149.85,183.32 11.58,-207.027 1.27,0.058 -0.04,-0.039 c 110.05,-17.851 192.94,-35.691 258.05,-52.801 l 46.81,36.719 109.94,89.34 c 2.65,-4.57 5.43,-9.379 8.49,-14.609 41.57,-70.918 113.29,-144.141 208.83,-198.789 l 0.71,1.23 c 10.95,-6.211 22.1,-12.09 33.56,-17.48 23.27,-10.981 47.51,-20.2504 72.54,-27.6605 2.87,-0.8594 5.88,-1.5391 8.82,-2.3399 0.43,-0.1406 0.84,-0.25 1.25,-0.4101 8,-2.3594 16.18,-4.5508 24.49,-6.4805 8.33,-1.918 16.78,-3.5586 25.28,-4.9102 8.52,-1.3593 17.09,-2.4179 25.69,-3.1406 8.58,-0.7187 17.15,-1.1289 25.66,-1.1289 8.14,0 16.2,0.3086 24.14,0.9883 7.96,0.6914 15.77,1.7422 23.43,3.1914 7.65,1.4414 15.14,3.3008 22.33,5.582 7.24,2.3086 14.23,5 20.91,8.1485 l 559.31,265.6795 1291.5,614.731 c -1.08,-0.43 -2.2,-0.782 -3.28,-1.211 68.44,26.73 129.37,73.8 169.77,139.51 36.62,60.27 46.95,126.87 47,188.9 -0.07,65.73 -11.57,128.46 -21.79,181.14"
         style="fill:#ffffff;fill-opacity:1;fill-rule:nonzero;stroke:none"
         id="path14"
         inkscape:connector-curvature="0" /><path
         d="m 8075.59,1430.72 c -3.58,-9.9 -7.05,-14.28 -11.67,-17.97 -3.5,-2.77 -11.35,-6.35 -28.08,-6.41 -24.74,-0.35 -63.71,9.94 -100.25,25.61 -36.68,15.45 -71.81,35.41 -93.41,49.55 -31.16,20.18 -63.01,51.97 -88.2,88.42 -25.34,36.38 -43.96,77.41 -51.81,113.99 -9.56,43.94 -15.21,73.22 -18.42,91.17 -0.51,2.8 -0.93,5.23 -1.33,7.5 l 0.76,1.52 167.78,135.68 c 31.53,-24.46 60.21,-50.88 84.52,-80.63 51.12,-61.57 105,-167.68 125.45,-245.35 9.7,-35.29 20.51,-83.43 20.32,-121.42 0.05,-17.29 -2.21,-31.95 -5.66,-41.66 z M 5960.42,343.41 c -3.99,6.832 -7.52,12.922 -10.82,18.621 l 1101.44,894.959 -3.14,1.25 0.5,-2.95 -67.3,389.29 248.38,249.88 5.61,-43.08 c 0.33,-1.78 11.91,-92.49 36.99,-178.66 26,-88.41 53.17,-182.35 102.31,-271.85 39.52,-71.49 91.5,-135.21 150.69,-190.51 L 6047.95,225.48 c -37.16,39.411 -66.49,81.969 -87.53,117.93 z m -420.64,-59.75 -13.22,227.379 718.49,872.081 -51.37,417.67 -48.73,7.96 c -64.12,10.49 -139.93,21.58 -218.83,32.04 1.21,-0.16 2.45,-0.32 3.66,-0.48 l 213.37,371.18 -31.16,253.35 242.59,433.73 236.1,-1565.82 z M 7060.52,2778.6 c -0.15,1.62 -0.36,3.21 -0.5,4.83 2.32,-27.4 6.75,-54.24 13.43,-80.01 39.05,-149.65 115.06,-299.68 224.31,-414.61 61.53,-64.48 134.75,-121.95 210.09,-167.72 6.43,-3.9 12.87,-7.65 19.3,-11.41 -0.09,0.05 -0.18,0.1 -0.27,0.15 l -198.44,-188.65 -105.51,23.44 -250.18,-251.71 -135.31,782.67 z m 636.4,-20.21 c 10.6,-13.59 20.51,-28.33 28.98,-43.18 4.75,-9.19 11.99,-24.87 19.52,-44.09 1.07,-3.27 2.18,-6.78 3.33,-10.45 6.74,-21.61 15.25,-50.51 22.03,-75 0.57,-2.09 1.14,-4.12 1.69,-6.15 5.83,-31.53 8.92,-47.28 10.53,-58.04 l 1.59,-23.11 0.81,-0.21 -65.35,-64.82 c -10.94,6.49 -21.77,13.06 -32.34,19.76 -60.51,38.17 -113.39,79.04 -154.12,126.98 z m 797.76,-1284.57 c -2.31,11.84 -4.66,23.73 -7.04,35.69 -17.69,87.93 -49.15,178.98 -78.22,258.31 -10.88,29.54 -23.27,58.78 -37.57,87.4 -28.52,57.05 -63.17,115.7 -104.94,167.96 -61.67,77.1 -132.74,145.47 -210.32,205.14 l 173.22,152.29 -17.24,101 c -5.88,33.66 -21.29,91.26 -44.02,156.41 -22.97,64.82 -51.75,134.09 -88.96,188.06 -45.54,65.31 -94.03,132.82 -160.84,191.46 -61.8,54.07 -140.51,103.64 -226.88,140.79 -86.38,36.96 -180.31,61.64 -273.41,61.78 -37.6,0 -75.1,-4.11 -111.56,-13.6 -88.69,-22.7 -153.96,-82.44 -192.75,-152.12 -17.37,-30.98 -30.29,-63.94 -39.32,-97.77 l -35.11,171.51 -42.6,8.75 c -199.69,40.94 -537.77,100 -936.38,151.36 l -50.83,6.54 -0.54,0.08 c 0,0 -33.06,4.23 -33.03,4.02 l -17.56,2.15 c -260.56,31.81 -542.9,59.54 -826.58,76.39 l -73.96,4.37 107.87,-1883.42 -403.62,-1149.19 c 216.67,-15.828 368,-34.129 577.5,-62.5 l 158.44,189.961 12.82,-219.993 c 0,0 1.27,0.063 1.24,0.032 110.04,-17.86 187.39,-32.899 252.5,-50 l 51.11,46.871 109.94,89.34 c 2.66,-4.582 5.43,-9.379 8.5,-14.621 10.35,-17.711 21.48,-35.071 33.26,-51.86 12.92,-18.441 26.88,-36.129 41.6,-53.16 15.75,-18.219 32.34,-35.77 50.19,-51.941 18.71,-16.93 38.92,-32.059 60.58,-44.989 23.36,-13.941 48.1,-25.34 72.94,-36.3278 3.07,-1.3516 6.1,-2.8125 9.21,-4.0625 15.02,-6.0899 30.19,-11.8281 45.74,-16.4297 2.87,-0.8594 5.88,-1.5508 8.82,-2.3516 0.43,-0.1289 0.84,-0.25 1.25,-0.4062 8,-2.3633 16.18,-4.5508 24.49,-6.4805 8.33,-1.9101 16.78,-3.5625 25.29,-4.9023 8.51,-1.3672 17.09,-2.418 25.68,-3.1485 8.58,-0.7187 17.16,-1.1289 25.66,-1.1289 8.15,0 16.2,0.3086 24.14,1 7.96,0.6797 15.78,1.7266 23.43,3.1797 7.66,1.4375 15.14,3.2969 22.34,5.5899 6.99,2.2187 13.75,4.8398 20.22,7.8476 l 0.05,-0.0586 1864.12,901.6484 c 8.38,3.672 16.61,7.652 24.7,11.941 l 10.91,5.282 -0.52,0.187 c 48.22,27.631 90.37,66.531 120.83,116.081 36.62,60.28 46.95,126.88 47,188.91 -0.07,65.72 -11.57,128.46 -21.79,181.13"
         style="fill:#231f20;fill-opacity:1;fill-rule:nonzero;stroke:none"
         id="path16"
         inkscape:connector-curvature="0" /><path
         d="M 2332.92,185.801 2312.09,92.3789 489.84,1001.68 680.746,1745.6 c 3.973,3.3 7.961,6.34 11.934,9.55 l 189.062,-138.22 -128.152,-550.25 2.41,0.58 -1.383,-1.54 z M 1039.15,3138.79 1190.21,2941 1050.04,2337.84 c -84.673,-19.4 -163.532,-41.2 -233.278,-64.21 z M 2102.94,1786.06 c -21,-19.36 -75.54,-64.26 -160.67,-64.17 -3.97,0 -8.15,0.11 -12.53,0.3 -17.36,0.86 -28.63,4.19 -35.72,7.49 -10.43,5.23 -13.64,9.34 -17.8,17.12 -3.87,7.69 -6.46,20.11 -6.39,33.88 -0.01,7.47 0.68,15.14 1.83,22.1 4.63,28.79 42.08,244.77 80.3,462.49 19.13,109.01 38.51,218.73 54.19,306.33 15.6,87.31 27.77,153.79 31.68,172.33 5.91,29.14 22.95,63.67 46.45,90.63 9.04,10.53 18.91,19.76 29.15,27.56 L 2266,2604.07 c -39.13,-262.35 -101.07,-674.51 -107.78,-718.8 -5.84,-42.54 -35.31,-81.08 -55.28,-99.21 z m 956.91,-316.01 74.37,799.61 c 4.57,1.06 9.43,2.06 14.55,3.01 16.94,3.21 36.72,5.93 58.26,8.25 l 224.68,-788.15 -0.93,3.26 -0.96,-1.25 245.51,-674.561 -34.83,-423.168 z m 142.38,1531.83 c 0.22,0.03 0.44,0.08 0.66,0.12 l 119.34,-360.69 c -9.61,-1.95 -21.96,-3.87 -37.89,-5.91 -35.14,-4.57 -72.1,-10.36 -116.54,-17.38 z m 202.93,-2.16 c 7.13,-5.31 13.24,-11.78 19.7,-23.48 6.37,-11.64 12.59,-28.71 17.08,-52.66 2.84,-15.06 4.19,-30.71 4.18,-46.67 0.07,-27.87 -4.28,-56.63 -11.39,-83.87 l -53.52,217.72 c 10.33,-2.96 18.23,-6.73 23.95,-11.04 z m 914,-625.6 369.3,-852.11 -166.6,-1096.389 -200.75,473.149 -8.25,623.75 z m 2778.33,810.06 c -61.92,16.36 -222.06,53.44 -242.75,58.22 1.89,5.99 3.11,12.18 3.11,18.51 -0.02,3.72 -0.35,7.4 -1,11.04 l -24.21,132.57 88.29,171.63 c 4.58,8.94 6.85,18.69 6.86,28.38 -0.01,9.49 -2.19,18.96 -6.53,27.68 -8.85,17.73 -25.52,30.08 -45.01,33.45 -24.19,4.16 -56.77,9.58 -93.48,15.61 -3.33,0.55 -6.72,0.85 -10.14,0.83 -24.01,0.03 -46.29,-13.98 -56.42,-36.43 l -12.01,-26.42 -43.3,62.47 c -9.57,13.89 -24.62,23.33 -41.25,25.93 -39.15,6.19 -75.83,11.92 -105.76,16.42 -3.07,0.46 -6.19,0.72 -9.31,0.72 -21.46,0 -41.75,-11.2 -53.06,-29.99 -4.57,-7.55 -7.27,-15.78 -8.32,-23.96 l -38.56,-83.05 -16.69,111.13 c -4,26.84 -25.03,47.94 -51.8,52.11 -34.78,5.4 -65.81,10.22 -90.17,13.78 -2.93,0.44 -5.92,0.65 -8.93,0.65 -16.32,-0.02 -32.07,-6.37 -43.87,-18.12 -9.97,-9.96 -15.97,-22.77 -17.66,-36.23 l -1.83,-4.59 c -6.6,7.84 -13.86,15.37 -21.83,22.53 -48.05,42.4 -116.52,69.28 -182.82,75.03 -7.01,0.53 -13.72,0.78 -20.3,0.78 -0.11,0 -0.31,0 -0.62,0 -0.2,0 -0.45,0 -0.72,0 -48.89,0.03 -89.63,-14.16 -119.28,-36.33 -12.02,-8.92 -21.97,-18.75 -30.11,-28.79 -3.01,4.28 -6.18,8.37 -9.46,12.24 -24.2,28.44 -54.24,47.56 -82.88,61.18 -29,13.52 -57.38,22.01 -83.72,24.72 -23.13,2.25 -69.45,6.36 -110.16,9.94 -20.35,1.8 -39.27,3.44 -53.09,4.65 -6.93,0.6 -12.58,1.08 -16.51,1.43 -1.96,0.16 -3.49,0.3 -4.52,0.4 -0.54,0.04 -0.93,0.09 -1.17,0.1 -0.1,0.01 -0.19,0.01 -0.25,0.01 l 0.15,-0.01 c 0.04,0 0.11,0 0.25,-0.01 0.37,-0.07 -0.12,0.05 1.92,-0.29 l -2.32,0.31 v 0 h -0.03 -0.04 l -0.13,0.03 c -1.7,0.14 -3.48,0.22 -5.37,0.22 -16.32,0.04 -32.22,-6.46 -43.86,-18.2 -8.01,-7.97 -13.16,-17.74 -15.8,-27.61 -0.28,-0.85 -0.53,-1.73 -0.71,-2.61 l -0.68,-2.99 h 0.01 l -0.02,-0.12 -79.12,-357.61 c -26.84,2.05 -55.09,4.13 -76.21,5.47 0.26,2.29 0.42,4.61 0.42,6.94 0,1.28 -0.04,2.26 -0.07,2.95 l -0.02,0.64 -20.71,355.63 c -1.81,31.49 -27.05,56.67 -58.57,58.33 -29.28,1.58 -58.96,3.09 -88.67,4.54 -0.78,0.03 -1.83,0.07 -2.99,0.07 -16.38,0.02 -32.23,-6.48 -43.91,-18.22 -11.56,-11.52 -18.15,-27.31 -18.15,-43.78 0.01,-0.39 0,-1.22 0.05,-2.44 l -3.5,-25.07 -63.52,75.17 c -11.13,13.29 -27.6,21.34 -45.01,21.96 -3.66,0.12 -7.34,0.28 -11.06,0.41 -22.81,0.92 -45.48,1.74 -67.47,2.52 -0.43,0.02 -1.14,0.06 -2.22,0.06 -16.33,0.03 -32.22,-6.51 -43.8,-18.12 -11.62,-11.53 -18.26,-27.44 -18.23,-43.88 0.03,0 -0.01,-0.77 0.06,-2.2 l 0.05,-1.02 c -17.97,22.1 -40.67,37.56 -63.11,47.91 -29.77,13.74 -60.43,19.96 -88.46,22.67 -27.12,2.49 -68.2,3.09 -107.69,3.35 l -87.33,-0.16 c -16.42,-0.03 -31.36,-6.44 -42.45,-16.89 -11.42,10.71 -26.62,16.73 -42.33,16.72 h -0.05 c -0.03,-0.01 -0.05,-0.01 -0.07,-0.02 -79.43,-0.11 -164.85,-0.86 -272.45,-3.05 -7.48,-0.15 -15.17,-0.33 -22.92,-0.52 -17.89,-0.43 -33.91,-8.42 -44.97,-20.92 -0.21,0.21 -0.4,0.41 -0.61,0.62 -11.67,11.7 -27.52,18.26 -43.96,18.26 -0.36,-0.01 -1.11,0 -2.3,-0.06 -28.03,-0.98 -57.11,-2.09 -86.77,-3.29 -32.13,-1.31 -57.93,-26.99 -59.43,-59.11 l -3.98,-85.74 c -4.47,-0.14 -8.88,-0.3 -13.2,-0.43 l -10.05,73.88 c 0.03,0.94 0.05,1.8 0.05,2.6 -0.03,16.33 -6.38,31.95 -17.95,43.69 -11.72,11.78 -27.49,18.35 -44.07,18.37 -0.7,0 -1.68,0 -3.01,-0.08 v 0.01 c -29.68,-1.43 -59.13,-2.92 -87.98,-4.42 -14.4,-0.76 -27.48,-6.39 -37.63,-15.28 -10.2,6.99 -22.41,10.84 -34.92,10.82 -0.85,0 -2,-0.02 -3.47,-0.1 -59.82,-3.3 -114.81,-6.54 -160.12,-9.43 -44.62,-2.86 -102.28,-7.54 -164.09,-12.99 -12.79,-1.12 -24.45,-6.09 -33.82,-13.75 -8.99,4.87 -19.11,7.46 -29.5,7.48 -1.79,0 -3.81,-0.07 -6.11,-0.32 -29.01,-2.67 -58.67,-5.48 -87.64,-8.26 -29.33,-2.76 -52.73,-25.95 -55.75,-55.33 -2.18,-20.96 -5.84,-55.92 -9.68,-92.41 l -22.91,74.68 c -1.02,14.61 -7.14,28.47 -17.53,39.12 -11.82,12.03 -27.78,18.65 -44.4,18.66 -1.99,0 -4.19,-0.1 -6.57,-0.36 -38.17,-3.96 -69.21,-7.28 -88.61,-9.51 -28.5,-3.23 -51.02,-25.58 -54.54,-54.04 -0.92,-7.48 -2.09,-16.96 -3.44,-27.81 -20.96,24.94 -47.76,39.35 -72.84,47.94 -27.73,9.4 -55.69,12.78 -81.41,12.81 -15.67,0 -30.73,-1.27 -44.95,-3.84 -0.26,-0.06 -0.53,-0.11 -0.79,-0.16 -67.52,-12.58 -124.39,-46.04 -165.28,-82.56 -6.29,-5.68 -11.92,-11.68 -16.96,-17.88 -4.24,6.18 -9.64,11.68 -16.05,16.07 -31.43,21.92 -74.36,36.42 -127.44,36.38 -0.15,-0.01 -0.56,0 -1.25,-0.02 -7.98,-0.01 -16.22,-0.3 -24.78,-0.93 -33.21,-2.4 -70.86,-9.73 -107.84,-22.64 -36.69,-13.11 -74.05,-31.53 -103.82,-61.98 -38.36,-39.5 -61.06,-85.05 -61.07,-132.57 v -0.07 c 0,-0.03 0,-0.05 0,-0.09 0,-11.88 1.41,-23.62 4.13,-34.96 4.17,-17.77 12.91,-33.09 23.68,-45.28 l 7.27,-13.24 -68.54,-57.18 c -14.1,-11.74 -22.31,-29.29 -22.28,-47.62 0,-0.29 0,-1.06 0.06,-2.19 0.48,-14.9 6.39,-29.07 16.34,-39.84 l 43.3,-73.99 c -41.41,-21.7 -82.54,-55.92 -99.71,-69.65 -23.93,38.77 -104.24,165.53 -115.28,181.62 l 0.05,0.22 -0.18,-0.03 c -0.03,0.04 -0.08,0.11 -0.1,0.16 l -0.24,-0.22 -94.88,-15.78 c -92.08,-15.32 -191.11,-34.66 -289.97,-55.64 l -41.04,-8.68 -9.49,-40.87 -48.02,-206.59 -149.26,200.06 0.27,1.02 -106.788,-26 C 822.203,3135.68 717.578,3108.5 653.313,3091.31 L 616.91,3081.56 0.324219,858.652 1952.57,52.0898 1952.47,52.832 2080.34,0.0898438 C 2130.06,17.0313 2219.5,45.6992 2337.53,79.6797 l -2.65,1.3203 5.11,-0.5703 20.1,90.2113 75.72,-42.211 25.81,-14.059 c 75.87,20.621 159.63,42.188 249.24,63.711 l 1.63,-0.152 0.09,0.558 c 0.4,0.102 0.79,0.203 1.19,0.293 l -1.02,0.699 33.66,196.692 114.29,-97.012 c 23.81,-16.078 68.91,-38.269 137.95,-38.5 0.71,-0.019 1.41,-0.078 2.12,-0.078 1.49,0 2.99,0.078 4.48,0.098 1.26,0.019 2.46,-0.02 3.74,0.019 1.22,0.043 2.38,0.121 3.58,0.172 1.55,0.039 3.09,0.02 4.64,0.098 1.05,0.043 2.1,0.16 3.15,0.222 44.94,2.168 79.89,9.61 114.85,23.418 17.18,6.301 33.44,13.801 48.58,21.801 49.13,23.82 96.26,56.289 132.49,98.059 8.82,10.203 16.41,20.023 23.11,29.41 l 72.47,-101.129 c 84.75,11.84 168.86,22.051 254.38,29.859 0.05,1.352 0.11,2.68 0.17,4.032 l 0.21,2.168 33.24,404.011 144.73,-397.672 c 15.98,0.821 31.98,1.704 47.89,2.352 168.84,6.699 312.2,10.309 436.97,11.359 l -7.09,450.2 191.71,-453.758 0.27,0.109 -0.18,-1.23 c 84.73,-1.219 158.33,-6.668 226.73,-13.75 l 351.72,1150.31 -84.36,1883.49 -60.4,2.5 c -72.54,3.04 -144.92,5.26 -216.74,6.54 -19.26,0.34 -38.37,0.64 -57.41,0.92 l -68.21,0.95 14.83,-735.85 -323.9,736.17 -43.49,-0.45 c -91.05,-0.94 -179.05,-2.55 -263.63,-4.68 l -62.12,-1.57 -60.24,-1784.41 -274.65,779.57 c 66.87,40.75 134.93,100.61 184.83,187.57 64.88,112.77 86.54,219.22 86.4,307.56 0.02,102.94 -28.66,181.42 -46.16,222.26 -19.36,44.29 -58.45,104.56 -119.63,159.82 -60.65,54.35 -145.89,103.03 -250.81,103.15 -2.45,0 -5.11,-0.02 -7.96,-0.1 -78.74,-1.8 -182.33,-7.57 -281.15,-14.44 l -1.48,-0.11 -331.83,-37.45 -27.75,-242.13 -187.04,-1639.21 711.15,-991.102 c -7.4,-11.047 -16.36,-23.039 -27.27,-35.648 -17.05,-19.781 -37.27,-37.442 -59.22,-53.078 L 2316.52,1465.7 c 44.11,33.01 79.02,65.95 104.56,93.59 36.61,39.63 74.95,85.87 106.93,146.08 32.07,60.16 57.28,133.68 70.76,226.41 25.48,174.64 108.6,827.83 118.55,919.33 2.51,23.19 5.1,47.26 5.13,73.31 0.16,37.43 -6.16,79.72 -26.36,121.71 -20.05,42.09 -52.23,82.68 -99.11,124.8 -39.04,35.04 -85.33,57.08 -132.6,70.43 -47.4,13.35 -96.24,18.32 -143.53,18.34 -86.86,-0.16 -168.28,-16.53 -227.46,-36.72 -138.12,-47.46 -248.41,-126.48 -328.1,-213.31 -79.55,-87.24 -129.64,-181.13 -145.7,-267.67 -21.43,-118.9 -176.33,-903.04 -191.61,-977.42 -5.3,-25.9 -8.01,-53.77 -8.03,-82.8 0.43,-75.05 17.13,-159.11 68.52,-228.05 21.04,-27.89 49.66,-57.99 87.78,-83.96 -0.7,0.47 -1.46,0.92 -2.15,1.4 l 1145.79,-972.49 -34.35,-200.75 -1453.83,985.66 -0.29,-1.35 445.06,2092.85 118.99,-188.75 c 30.35,26.66 82.87,64.2 136.76,96.39 46.15,27 96.4,50.8 151.14,69.61 62.51,21.29 146.68,38.17 237.49,38.37 49.44,-0.03 101.09,-5.18 151.96,-19.5 50.7,-14.33 101.52,-38.29 144.88,-77.21 48.96,-43.97 84.09,-87.73 106.34,-134.44 6.2,-12.89 11.1,-25.72 15.06,-38.29 l 16.37,-39.37 10.46,91.69 27.76,242.13 c 1.64,14.32 12.99,25.66 27.34,27.28 l 331.82,37.46 1.11,0.1 1.7,0.14 c 99.13,6.87 203.01,12.67 282.44,14.49 3.26,0.1 6.24,0.1 8.86,0.1 114.86,-0.17 207.17,-53.38 271.55,-111.13 64.65,-58.48 105.91,-121.73 127.36,-170.65 11.07,-25.85 26.49,-66.25 36.99,-118.09 l 13.31,394.38 c 0.56,16.39 13.84,29.55 30.22,29.98 l 62.12,1.57 c 84.75,2.13 172.9,3.74 264.1,4.68 l 43.47,0.45 c 12.44,0.14 23.7,-7.13 28.71,-18.52 l 218.66,-496.94 29.5,486.09 c 0.9,14.57 11.84,26.56 26.29,28.78 2.4,0.36 4.76,0.45 7.09,0.26 l 67.83,-0.94 c 19.06,-0.27 38.19,-0.58 57.48,-0.92 72.11,-1.28 144.74,-3.52 217.48,-6.57 l 60.4,-2.5 c 1.16,-0.04 2.31,-0.18 3.43,-0.34 51.45,-2.11 111.37,-5.06 181.51,-10.18 1.2,-0.08 2.3,-0.22 3.48,-0.31 1.66,-0.1 3.31,-0.23 4.98,-0.34 l 0.05,0.28 c 31.81,-2.14 56.66,-3.92 77.21,-5.48 l -0.04,-0.15 c 17.24,-1.24 34.42,-2.59 51.61,-3.91 7.33,-0.59 14.32,-1.16 21.27,-1.71 l 0.04,0.1 c 209.64,-16.37 415.6,-37.69 609.47,-61.35 l 13.88,-1.71 c 1.28,0 2.56,-0.09 3.85,-0.25 l 32.95,-4.24 0.54,-0.06 c 0.21,-0.03 0.41,-0.05 0.59,-0.09 l 50.33,-6.48 c 286.99,-36.97 542.38,-77.89 737.94,-113.26 69.71,-13.46 164.25,-32.35 236.15,-48.03 0,0 -0.01,0.06 -0.01,0.13 l 33.5,-7.46 25.59,-137.37 23.4,28.67 -23.75,142.5"
         style="fill:#231f20;fill-opacity:1;fill-rule:nonzero;stroke:none"
         id="path18"
         inkscape:connector-curvature="0" /><path
         d="M 1314,3182.4 1104.84,2282.49 C 953.102,2249.9 817.938,2208.82 721.566,2168 l 240.012,933.77 c -123.226,-30 -227.453,-57.07 -291.219,-74.13 L 95.5039,955.109 c 94.0821,27.481 208.5901,59.961 338.8091,95.321 l 187.832,731.91 C 750.09,1892.83 883.051,1960.46 1040.97,2010 l -198.7,-853.27 c 106.406,26.59 218.04,53.54 333.41,80.24 l 425.43,2000.52 C 1510.35,3222.4 1412.17,3203.22 1314,3182.4"
         style="fill:#ffffff;fill-opacity:1;fill-rule:nonzero;stroke:none"
         id="path20"
         inkscape:connector-curvature="0" /><path
         d="m 4729.94,3327.37 c -19.14,0.34 -38.19,0.63 -57.16,0.9 l 20.09,-997.5 -439.26,998.33 c -90.7,-0.93 -178.38,-2.54 -262.65,-4.65 l -58.85,-1743.56 c 109.67,3.48 214.34,5.75 315.34,6.82 l 8.12,1098.91 478.18,-1103.34 c 97.51,-2.97 193.58,-7.17 289.74,-12.62 l -78.37,1750.22 c -72.08,3 -143.92,5.22 -215.18,6.49"
         style="fill:#ffffff;fill-opacity:1;fill-rule:nonzero;stroke:none"
         id="path22"
         inkscape:connector-curvature="0" /><path
         d="m 6983.89,3072.3 c -197.7,40.56 -534.68,99.45 -931.59,150.57 l 26.94,-214.98 c 111.18,-13.65 224.83,-28.83 332.34,-45.21 l 237.09,-1572.37 c 123.05,-19.45 230.5,-37.78 318.77,-53.58 L 6694.5,2915.57 c 177.57,-30.59 279.7,-49.12 333.56,-59.15 l -44.17,215.88"
         style="fill:#ffffff;fill-opacity:1;fill-rule:nonzero;stroke:none"
         id="path24"
         inkscape:connector-curvature="0" /><path
         d="m 5521.5,1817.33 -43.95,536.99 c 155.82,-10.68 391.87,-29.63 589.39,-63.08 l -29.66,241.29 c -166.96,23.11 -354.51,41.07 -579.07,57.96 l -39.78,486.22 c 92.45,-7.71 312.38,-27.95 558.87,-56.64 l -26.5,215.53 c -259.46,31.68 -540.51,59.27 -822.49,76.01 l 100.45,-1754.39 c 96.9,-7.11 195.01,-15.45 295.98,-24.96 229.24,-21.54 446.48,-46.76 644.51,-72.73 l -34.95,284.18 c -174.8,28.62 -440.61,62.21 -612.8,73.62"
         style="fill:#ffffff;fill-opacity:1;fill-rule:nonzero;stroke:none"
         id="path26"
         inkscape:connector-curvature="0" /><path
         d="m 8423.02,1496.54 c -16.37,81.68 -46.75,170.37 -75.47,248.55 -10.11,27.49 -21.58,54.46 -34.65,80.68 -26.98,54 -59.64,109 -97.45,156.24 -76.42,95.54 -168.5,177.43 -270.44,245.2 -177.87,118.24 -427.14,199.75 -524.72,407.22 -23.76,50.53 -32.62,115.78 -24.56,171.23 23.41,161.02 242.08,108.97 322.62,28.08 32.94,-33.09 62.6,-76.35 81.67,-119.05 7.38,-16.47 45.87,-146.64 47.1,-164.68 0.01,0 300.49,-79.48 300.49,-79.48 -9.16,53.67 -60.1,228.74 -122.13,317.92 -45.01,64.68 -90.52,127.26 -150.15,179.52 -134.08,117.51 -371.55,221.59 -551.84,174.75 -177.42,-46.09 -226.43,-267.73 -186.23,-422.71 36.26,-139.72 108.29,-280.9 208.2,-385.72 56.92,-59.69 126.07,-114.05 196.6,-156.84 67.7,-41.1 138.94,-75.32 207.88,-114.08 87.39,-49.12 172.33,-104.17 236.52,-182.43 58.54,-71.39 114.15,-181.16 138.12,-269.97 19.27,-71.4 47.63,-198.01 -20.4,-250.41 -75.01,-57.73 -231.98,22.68 -297.99,65.72 -79.48,51.8 -148.04,149.89 -168.42,243.62 -19.38,89.17 -23.27,120.19 -23.27,120.19 l -314.05,69.79 c 0,0 11.63,-89.17 34.91,-168.65 25.88,-88.38 52.15,-177.5 96.77,-258.58 72.52,-131.74 195.81,-239.02 327.12,-308.77 104.19,-55.35 229.14,-103.77 346.87,-117.03 33.81,-3.79 67.86,-4.12 101.59,0.7 82.73,11.86 161.51,58.42 205.49,130.53 57.48,94.28 36.54,222.25 16.8,323.09 -2.29,11.79 -4.61,23.59 -6.98,35.37"
         style="fill:#ffffff;fill-opacity:1;fill-rule:nonzero;stroke:none"
         id="path28"
         inkscape:connector-curvature="0" /><path
         d="m 2362.96,2809.77 c -5.81,-44.59 -129.88,-870.4 -139.57,-934.37 -9.69,-63.99 -48.47,-112.45 -75.6,-137.66 -27.15,-25.19 -102.75,-87.22 -221,-81.42 -118.25,5.82 -129.89,96.94 -120.19,157.05 9.69,60.08 149.26,860.7 166.71,944.06 17.45,83.36 87.24,172.53 174.48,193.86 58.98,14.41 159.97,19.16 195.79,-25.2 32.22,-39.9 25.19,-71.73 19.38,-116.32 z m 189.98,312.11 c -114.37,102.75 -330.26,75.81 -438.11,38.77 -253.95,-87.23 -405.16,-290.78 -430.36,-430.35 -21.82,-120.86 -176.41,-903.37 -191.91,-978.98 -15.51,-75.6 -5.82,-186.09 48.46,-257.81 54.28,-71.74 158.96,-153.14 385.77,-120.21 226.81,32.97 376.09,155.09 445.86,230.7 69.8,75.6 135.7,164.77 160.91,337.3 25.2,172.53 108.55,827.76 118.25,916.94 9.69,89.17 15.51,160.9 -98.87,263.64"
         style="fill:#ffffff;fill-opacity:1;fill-rule:nonzero;stroke:none"
         id="path30"
         inkscape:connector-curvature="0" /><path
         d="m 3408.54,2610.73 c -33.33,-27.4 -59.94,-33.45 -115.71,-40.69 -53,-6.88 -112.38,-16.95 -198.26,-30.26 l 49.52,520.24 c 43.62,8.72 85.25,17.57 131.93,21.15 126.01,9.69 205.49,-11.63 230.69,-145.39 25.2,-133.76 -44.18,-280.66 -98.17,-325.05 z m 311.41,-6.44 c 127.95,222.93 65.91,403.22 36.84,471.07 -29.08,67.84 -145.4,226.81 -315.99,222.93 -77.23,-1.76 -180.28,-7.49 -278.41,-14.31 l -278.38,-31.42 -21.76,-190.01 -177.72,-1557.4 c 88.88,9.49 176.39,17.35 261.94,23.24 17.78,1.22 35.41,2.43 52.94,3.6 l 73.19,786.68 c 33.4,15.83 87.47,24.24 149.02,29.94 12.14,0.97 23.37,1.9 33.83,2.86 l 225.24,-790.11 c 114.04,6.08 222.42,11.1 326.19,15.12 l -295.39,838.47 c 73.61,35.54 153.66,93.84 208.46,189.34"
         style="fill:#ffffff;fill-opacity:1;fill-rule:nonzero;stroke:none"
         id="path32"
         inkscape:connector-curvature="0" /><path
         d="m 2127.85,3380.83 c -41.68,-17.44 -61.06,-17.44 -97.42,-18.42 -36.34,-0.96 -57.18,18.42 -57.18,18.42 l -70.27,-58.64 c 17.44,-13.09 42.64,-29.56 103.23,-28.6 60.58,0.98 114.22,11.91 160.41,35.39 59.12,30.04 94.4,66.6 98.87,115.35 5.33,58.15 -26.18,79.47 -77.06,81.9 -50.89,2.42 -74.15,-2.91 -98.87,-2.43 -24.72,0.49 -44.58,15.99 -27.63,46.52 16.97,30.54 71.74,40.71 91.61,42.17 19.86,1.45 42.55,0.82 54.76,-6.3 5.81,-3.39 12.12,-9.21 12.12,-9.21 l 67.36,54.28 c -24.72,16.96 -59.13,28.6 -113.89,24.72 -54.76,-3.88 -132.8,-25.69 -171.57,-65.91 -38.77,-40.23 -48.95,-77.55 -41.19,-110.02 7.76,-32.46 50.41,-47.01 100.8,-45.07 50.41,1.95 96.45,9.22 103.23,-7.75 6.79,-16.96 4.37,-48.94 -37.31,-66.4"
         style="fill:#ffffff;fill-opacity:1;fill-rule:nonzero;stroke:none"
         id="path34"
         inkscape:connector-curvature="0" /><path
         d="m 2583.41,3491.81 c -10.67,-31.01 -30.53,-53.3 -74.15,-64.93 -43.62,-11.64 -74.15,5.81 -79.48,31.01 -5.34,25.2 8.72,92.09 12.59,114.38 3.88,22.28 13.58,53.79 29.57,65.91 15.99,12.11 33.92,23.75 61.55,27.14 54.19,6.64 67.36,-23.75 67.36,-47.5 0,-23.75 -6.78,-94.99 -17.44,-126.01 z m 93.05,194.83 c -29.57,40.22 -99.86,47.11 -143.45,39.25 -53.8,-9.69 -102.26,-37.79 -135.7,-67.84 -33.44,-30.05 -43.14,-83.84 -50.89,-131.34 -7.75,-47.5 -12.6,-89.66 -1.45,-114.86 11.14,-25.2 44.1,-54.76 112.92,-53.31 68.81,1.45 108.07,20.36 155.56,52.82 47.5,32.48 60.1,82.4 66.88,118.25 6.79,35.87 25.7,116.81 -3.87,157.03"
         style="fill:#ffffff;fill-opacity:1;fill-rule:nonzero;stroke:none"
         id="path36"
         inkscape:connector-curvature="0" /><path
         d="m 5925.06,3660.31 c 18.89,22.29 41.67,19.88 54.76,19.39 37.37,-1.38 84.81,-23.75 94.01,-84.81 9.21,-61.07 20.36,-115.35 4.37,-136.19 -16,-20.83 -49.44,-26.17 -84.33,-14.06 -34.89,12.13 -54.27,32.48 -59.6,54.29 -5.33,21.81 -28.1,139.09 -9.21,161.38 z m 95.47,-285.45 c 84.32,-11.14 131.83,21.33 148.79,53.79 16.95,32.48 1.94,103.72 -4.37,146.37 -6.3,42.65 -21.32,77.54 -54.77,108.07 -33.43,30.54 -94.54,55.42 -145.87,59.13 -87.23,6.3 -122.12,-38.77 -133.76,-68.34 -11.63,-29.56 4.46,-126.21 15.52,-176.41 11.62,-52.83 90.14,-111.46 174.46,-122.61"
         style="fill:#ffffff;fill-opacity:1;fill-rule:nonzero;stroke:none"
         id="path38"
         inkscape:connector-curvature="0" /><path
         d="m 6517.92,3309.28 c 25.56,-4.42 50.72,-8.78 75.05,-12.99 l -10.26,65 c 0,0 -66.38,11.15 -121.16,19.87 -54.77,8.72 -90.63,13.57 -90.63,13.57 l -44.28,294.98 c -34.77,5.4 -65.71,10.22 -89.61,13.72 l 51.52,-360.66 c 57.8,-7.21 145.46,-19.01 229.37,-33.49"
         style="fill:#ffffff;fill-opacity:1;fill-rule:nonzero;stroke:none"
         id="path40"
         inkscape:connector-curvature="0" /><path
         d="m 6704.4,3276.93 c 36.16,-6.3 67.41,-11.77 91.42,-16.02 l -27.97,153.21 97.94,190.4 c -23.98,4.09 -56.47,9.52 -93.07,15.53 l -57.22,-125.97 -105.55,152.3 c -39.02,6.17 -75.61,11.88 -105.29,16.35 l 171.59,-234.08 28.15,-151.72"
         style="fill:#ffffff;fill-opacity:1;fill-rule:nonzero;stroke:none"
         id="path42"
         inkscape:connector-curvature="0" /><path
         d="m 4467.92,3775.6 c 42.43,-0.5 75.59,-1.15 89.98,-1.39 27.61,-0.5 57.67,-23.75 56.69,-46.05 -0.97,-22.29 -15.02,-44.58 -52.81,-45.07 -29.1,-0.37 -73.9,0.69 -93.03,1.2 z m 1.38,-150.69 c 8.79,-0.08 36.01,-0.29 61.98,-0.12 l 91.39,-145.78 c 34.67,-0.68 70.38,-1.38 107.64,-2.1 l -107.69,158.87 c 21.51,6.15 44.14,15.38 56.58,28.9 28.11,30.53 31.35,66.39 9.06,107.59 -22.3,41.19 -72.69,57.67 -118.73,62.03 -22.29,2.11 -63.5,2.86 -102.15,3.07 l -86.87,-0.16 v -354.14 c 29.51,-0.33 59.49,-0.77 90.09,-1.26 l -1.3,143.1"
         style="fill:#ffffff;fill-opacity:1;fill-rule:nonzero;stroke:none"
         id="path44"
         inkscape:connector-curvature="0" /><path
         d="m 5618.77,3714.6 c 26.17,-2.43 61.54,-31.02 58.16,-59.13 -3.4,-28.11 -24.73,-38.29 -55.26,-35.86 -30.53,2.42 -89.17,7.75 -89.17,7.75 l -7.76,96.44 c 0,0 67.85,-6.78 94.03,-9.2 z m -67.7,-286.54 -12.28,137.27 c 0,0 11.65,-1.94 104.2,-9.22 92.57,-7.26 129.89,49.44 119.23,112.93 -10.66,63.48 -101.29,102.74 -146.37,107.11 -45.07,4.35 -185.13,16.47 -185.13,16.47 l 30.69,-357.06 c 39.42,-3.16 70.54,-5.78 89.66,-7.5"
         style="fill:#ffffff;fill-opacity:1;fill-rule:nonzero;stroke:none"
         id="path46"
         inkscape:connector-curvature="0" /><path
         d="m 3817.41,3685.09 c -63.67,-2.02 -123.45,-3.98 -152.75,-5.11 l 8.21,141.34 c -29.62,-1.44 -59,-2.91 -87.75,-4.41 l -22.61,-355.11 c 29.59,1.68 59.62,3.27 89.77,4.79 l 8.62,148.55 c 33.59,1.78 93.33,4.87 153.61,7.57 l -6.94,-149.12 c 30.54,1.25 60.53,2.38 89.64,3.42 l 13.37,354.38 c -27.93,-0.97 -56.93,-2.07 -86.53,-3.28 l -6.64,-143.02"
         style="fill:#ffffff;fill-opacity:1;fill-rule:nonzero;stroke:none"
         id="path48"
         inkscape:connector-curvature="0" /><path
         d="m 2812.64,3420.57 c 51.37,-27.14 137.64,-13.08 189.98,13.09 45.82,22.91 85.3,66.88 91.11,111.47 4.71,36.07 19.25,183.46 24.62,238.44 -29.34,-2.7 -58.92,-5.5 -87.8,-8.28 -5.75,-55.09 -21.38,-204.47 -24.54,-229.68 -3.88,-31.01 -27.62,-67.85 -89.17,-73.66 -61.55,-5.82 -71.24,32.46 -69.79,56.21 1.21,19.66 20.65,177.64 27.32,231.54 -38.28,-3.95 -69.21,-7.27 -88.21,-9.43 -6.43,-52.27 -24.78,-200.89 -28.77,-230.35 -4.85,-35.86 3.88,-72.21 55.25,-99.35"
         style="fill:#ffffff;fill-opacity:1;fill-rule:nonzero;stroke:none"
         id="path50"
         inkscape:connector-curvature="0" /><path
         d="m 4293.92,3483.72 0.28,61.92 c -75.97,0.9 -173.17,-0.18 -213.2,-0.84 l 2.36,85.31 c 72.6,1.85 145.4,3.73 180.19,4.02 l 1.24,61.06 c -47.37,-0.31 -126.71,-1.6 -179.71,-2.64 l 2.27,82.37 c 39.66,0.35 130.51,0.7 207.94,1.04 l 0.29,61.07 c -79.1,-0.12 -164.04,-0.87 -271.27,-3.05 -7.37,-0.16 -14.98,-0.33 -22.7,-0.51 l -10.99,-354.05 c 63.37,1.87 118.99,3.12 161.63,3.67 47.54,0.63 94.39,0.8 141.67,0.63"
         style="fill:#ffffff;fill-opacity:1;fill-rule:nonzero;stroke:none"
         id="path52"
         inkscape:connector-curvature="0" /><path
         d="m 5132.02,3813.53 c -29.16,1.58 -58.71,3.08 -88.34,4.51 l 9.97,-212.87 -186.35,220.54 c -3.69,0.15 -7.35,0.28 -11.03,0.43 -22.83,0.89 -45.42,1.72 -67.34,2.5 l 11,-353.09 c 28.26,-0.69 59.23,-1.78 92.03,-3.17 l -8.88,210.75 189.44,-220.21 c 26.69,-1.6 53.53,-3.29 80.19,-5.01 l -20.69,355.62"
         style="fill:#ffffff;fill-opacity:1;fill-rule:nonzero;stroke:none"
         id="path54"
         inkscape:connector-curvature="0" /><path
         d="m 3273.15,3440.01 c 28.06,2.84 58.88,5.56 91.66,8.17 l 23.07,294.88 c 49.83,3.46 94.6,6.34 116.75,7.26 l 4.63,62.04 c -59.66,-3.28 -114.48,-6.52 -159.57,-9.4 -43.73,-2.79 -101.07,-7.44 -162.59,-12.86 l -6.28,-62.35 c 21.01,1.7 66.87,5.21 118.3,8.98 l -25.97,-296.72"
         style="fill:#ffffff;fill-opacity:1;fill-rule:nonzero;stroke:none"
         id="path56"
         inkscape:connector-curvature="0" /></g></g></svg>