<?xml version="1.0" encoding="UTF-8" standalone="no"?>
<!-- Created with Inkscape (http://www.inkscape.org/) -->

<svg
   xmlns:dc="http://purl.org/dc/elements/1.1/"
   xmlns:cc="http://creativecommons.org/ns#"
   xmlns:rdf="http://www.w3.org/1999/02/22-rdf-syntax-ns#"
   xmlns:svg="http://www.w3.org/2000/svg"
   xmlns="http://www.w3.org/2000/svg"
   xmlns:sodipodi="http://sodipodi.sourceforge.net/DTD/sodipodi-0.dtd"
   xmlns:inkscape="http://www.inkscape.org/namespaces/inkscape"
   version="1.1"
   id="svg2"
   xml:space="preserve"
   width="462.20663"
   height="238.39052"
   viewBox="0 0 462.20663 238.39051"
   sodipodi:docname="SPSU_WORD_K.svg"
   inkscape:version="0.92.1 r15371"
   inkscape:export-filename="/home/kurt/Desktop/SPSU Visual Identity WIP/Logos/wordmark_BW/SPSU_WORD_K.png"
   inkscape:export-xdpi="62.309795"
   inkscape:export-ydpi="62.309795"><metadata
     id="metadata8"><rdf:RDF><cc:Work
         rdf:about=""><dc:format>image/svg+xml</dc:format><dc:type
           rdf:resource="http://purl.org/dc/dcmitype/StillImage" /><dc:title></dc:title></cc:Work></rdf:RDF></metadata><defs
     id="defs6" /><sodipodi:namedview
     pagecolor="#ffffff"
     bordercolor="#666666"
     borderopacity="1"
     objecttolerance="10"
     gridtolerance="10"
     guidetolerance="10"
     inkscape:pageopacity="0"
     inkscape:pageshadow="2"
     inkscape:window-width="1440"
     inkscape:window-height="843"
     id="namedview4"
     showgrid="false"
     inkscape:zoom="2.0553578"
     inkscape:cx="231.10332"
     inkscape:cy="119.19526"
     inkscape:window-x="0"
     inkscape:window-y="31"
     inkscape:window-maximized="1"
     inkscape:current-layer="g10"
     fit-margin-top="0"
     fit-margin-left="0"
     fit-margin-right="0"
     fit-margin-bottom="0" /><g
     id="g10"
     inkscape:groupmode="layer"
     inkscape:label="ink_ext_XXXXXX"
     transform="matrix(1.3333333,0,0,-1.3333333,-10.22136,248.37333)"><g
       id="g12"
       transform="scale(0.1)"><path
         d="M 269.719,877.148 C 261.848,861.891 247.82,852.75 213.367,852.461 h -34.922 v 193.299 h 38.352 c 32.898,-0.35 45.793,-10.27 53.508,-26.56 7.715,-16.68 8.035,-42.208 7.949,-70.919 0.086,-30.472 -0.52,-55.531 -8.535,-71.133 z m 63.797,220.152 c -31.321,33.4 -69.422,45.28 -118.457,45.14 H 76.6602 V 517.289 H 178.445 v 238.492 h 37.551 c 66.008,-0.25 108.047,25.469 133.035,66.949 21.653,35.161 25.918,72.969 25.918,126.391 0.102,73.219 -9.605,114.669 -41.433,148.179"
         style="fill:#000000;fill-opacity:1;fill-rule:nonzero;stroke:none"
         id="path14"
         inkscape:connector-curvature="0" /><path
         d="m 522.559,991.133 c 0.468,38.517 23.203,54.067 52.031,54.647 28.777,-0.58 51.515,-16.13 52.031,-54.647 V 668.539 c -0.516,-38.5 -23.254,-54.008 -52.031,-54.609 -28.828,0.601 -51.563,16.109 -52.031,54.609 z M 574.59,1147.6 C 500.293,1147.42 420.891,1094.8 420.703,991.133 V 668.539 c 0.188,-103.66 79.59,-156.238 153.887,-156.449 74.277,0.211 153.703,52.789 153.894,156.449 V 991.133 C 728.293,1094.8 648.867,1147.42 574.59,1147.6"
         style="fill:#000000;fill-opacity:1;fill-rule:nonzero;stroke:none"
         id="path16"
         inkscape:connector-curvature="0" /><path
         d="m 886.941,613.93 0.051,528.51 H 785.129 V 517.289 H 1053.34 V 613.93 H 886.941"
         style="fill:#000000;fill-opacity:1;fill-rule:nonzero;stroke:none"
         id="path18"
         inkscape:connector-curvature="0" /><path
         d="m 1306,1142.44 h -90.84 l -65.86,-227.19 -65.86,227.19 H 975.41 L 1098.34,781.52 V 517.23 h 101.87 V 781.5 L 1306,1092.23 v -46.45 h 95.32 V 517.23 h 101.81 v 528.55 h 107.18 v 96.66 H 1323.06 1306"
         style="fill:#000000;fill-opacity:1;fill-rule:nonzero;stroke:none"
         id="path20"
         inkscape:connector-curvature="0" /><path
         d="M 2515.98,1142.44 V 880.738 H 2408.97 V 1142.44 H 2307.26 V 517.23 h 101.71 v 266.848 h 107.01 V 517.23 h 101.81 v 625.21 h -101.81"
         style="fill:#000000;fill-opacity:1;fill-rule:nonzero;stroke:none"
         id="path22"
         inkscape:connector-curvature="0" /><path
         d="m 2902.25,1142.44 -0.32,-348.721 -125.24,348.721 h -96.18 V 517.23 h 98 v 349.52 l 127.23,-349.461 h 94.5 v 625.151 h -97.99"
         style="fill:#000000;fill-opacity:1;fill-rule:nonzero;stroke:none"
         id="path24"
         inkscape:connector-curvature="0" /><path
         d="M 3065.49,1142.44 V 517.289 h 101.8 v 625.151 h -101.8"
         style="fill:#000000;fill-opacity:1;fill-rule:nonzero;stroke:none"
         id="path26"
         inkscape:connector-curvature="0" /><path
         d="m 1909.54,1045.78 v 96.66 H 1639.11 V 517.23 h 270.43 v 96.7 h -168.61 v 170.148 h 155.74 v 96.66 h -155.74 v 165.042 h 168.61"
         style="fill:#000000;fill-opacity:1;fill-rule:nonzero;stroke:none"
         id="path28"
         inkscape:connector-curvature="0" /><path
         d="m 3055.49,77.3594 h -45.9 V 386.859 h 45.9 V 77.3594"
         style="fill:#737373;fill-opacity:1;fill-rule:nonzero;stroke:none"
         id="path30"
         inkscape:connector-curvature="0" /><path
         d="M 1927.21,77.3594 H 1881.3 V 386.859 h 45.91 V 77.3594"
         style="fill:#737373;fill-opacity:1;fill-rule:nonzero;stroke:none"
         id="path32"
         inkscape:connector-curvature="0" /><path
         d="m 462.688,386.859 h -163.68 v -44.5 h 58.887 V 77.4688 h 45.906 V 342.359 h 58.887 v 44.5"
         style="fill:#737373;fill-opacity:1;fill-rule:nonzero;stroke:none"
         id="path34"
         inkscape:connector-curvature="0" /><path
         d="M 885.25,386.859 H 721.578 v -44.5 h 58.887 V 77.4688 h 45.902 V 342.359 h 58.883 v 44.5"
         style="fill:#737373;fill-opacity:1;fill-rule:nonzero;stroke:none"
         id="path36"
         inkscape:connector-curvature="0" /><path
         d="M 1477.68,386.859 V 166.781 c 0,-30.101 -19.34,-47.082 -43.21,-47.082 -23.84,0 -43.18,16.981 -43.18,47.082 v 220.078 h -45.63 V 166.781 c 0,-62.383 32.04,-91.7419 88.81,-91.7419 56.8,0 88.82,29.3589 88.82,91.7419 v 220.078 h -45.61"
         style="fill:#737373;fill-opacity:1;fill-rule:nonzero;stroke:none"
         id="path38"
         inkscape:connector-curvature="0" /><path
         d="m 1116.23,342.449 v 44.41 H 948.676 V 77.4688 H 1116.23 V 121.879 H 994.578 v 86.019 H 1095.53 V 252 H 994.578 v 90.449 h 121.652"
         style="fill:#737373;fill-opacity:1;fill-rule:nonzero;stroke:none"
         id="path40"
         inkscape:connector-curvature="0" /><path
         d="m 2423.8,342.449 v 44.41 H 2265.25 V 77.4688 h 158.55 v 44.4102 h -112.64 v 86.019 h 91.93 V 252 h -91.93 v 90.449 h 112.64"
         style="fill:#737373;fill-opacity:1;fill-rule:nonzero;stroke:none"
         id="path42"
         inkscape:connector-curvature="0" /><path
         d="m 2590.92,251.301 h -42.66 v 90.777 h 42.65 c 25.11,0 45.46,-20.219 45.46,-45.316 0,-25.114 -20.35,-45.461 -45.45,-45.461 z m 43.12,-34.75 c 30.3,14.308 51.27,45.121 51.27,80.847 0,49.364 -40.02,89.383 -89.38,89.383 l -88.32,0.078 v -0.078 h -0.05 l 0.05,-309.3122 h 45.9 V 207.898 h 39.79 l 44.1,-130.4292 h 48.46 l -51.82,139.0822"
         style="fill:#737373;fill-opacity:1;fill-rule:nonzero;stroke:none"
         id="path44"
         inkscape:connector-curvature="0" /><path
         d="M 1789.58,77.4688 V 386.859 h -44.61 v -202.14 l -84,202.14 h -48.3 V 77.3594 h 44.61 V 279.5 l 83.95,-202.0312 h 48.35"
         style="fill:#737373;fill-opacity:1;fill-rule:nonzero;stroke:none"
         id="path46"
         inkscape:connector-curvature="0" /><path
         d="m 3294.82,386.859 h -163.68 v -44.5 h 58.88 V 77.4688 h 45.92 V 342.359 h 58.88 v 44.5"
         style="fill:#737373;fill-opacity:1;fill-rule:nonzero;stroke:none"
         id="path48"
         inkscape:connector-curvature="0" /><path
         d="m 3494.78,386.859 -44.95,-131.097 -44.96,131.097 h -48.42 l 70.43,-197.23 V 77.3789 h 45.89 V 189.629 l 70.44,197.23 h -48.43"
         style="fill:#737373;fill-opacity:1;fill-rule:nonzero;stroke:none"
         id="path50"
         inkscape:connector-curvature="0" /><path
         d="m 2070.92,77.2305 -70.85,309.6285 h 46.59 l 49,-214.027 49.03,214.027 h 46.59 L 2120.43,77.2305 h -49.51"
         style="fill:#737373;fill-opacity:1;fill-rule:nonzero;stroke:none"
         id="path52"
         inkscape:connector-curvature="0" /><path
         d="m 556.719,187.879 33.531,114 33.527,-114 z M 656.324,77.2305 h 47.848 L 613.105,386.859 h -45.71 L 476.328,77.2305 h 47.848 l 19.031,64.6995 h 94.09 l 19.027,-64.6995"
         style="fill:#737373;fill-opacity:1;fill-rule:nonzero;stroke:none"
         id="path54"
         inkscape:connector-curvature="0" /><path
         d="m 3528.13,953.691 v 41.219 c 0,89.05 -61.55,152.99 -149.4,152.99 -93.23,0 -148.82,-64.54 -148.82,-147.01 V 663.84 c 0,-114.141 77.7,-151.789 148.82,-151.789 82.46,0 149.4,55.59 149.4,148.801 v 45.398 h -101.61 v -37.648 c 0,-39.43 -16.72,-54.364 -48.37,-54.364 -35.28,0 -45.43,22.114 -46.03,55.582 v 311.95 c 0,36.46 10.75,65.13 46.61,65.13 34.04,0 47.79,-25.68 47.79,-57.369 v -35.84 h 101.61 v 0"
         style="fill:#000000;fill-opacity:1;fill-rule:nonzero;stroke:none"
         id="path56"
         inkscape:connector-curvature="0" /><path
         d="m 2251.25,953.691 v 41.219 c 0,89.05 -61.54,152.99 -149.39,152.99 -93.24,0 -148.82,-64.54 -148.82,-147.01 V 663.84 c 0,-114.141 77.69,-151.789 148.82,-151.789 82.46,0 149.39,55.59 149.39,148.801 v 45.398 h -101.6 v -37.648 c 0,-39.43 -16.72,-54.364 -48.37,-54.364 -35.28,0 -45.43,22.114 -46.04,55.582 v 311.95 c 0,36.46 10.76,65.13 46.62,65.13 34.04,0 47.79,-25.68 47.79,-57.369 v -35.84 h 101.6 v 0"
         style="fill:#000000;fill-opacity:1;fill-rule:nonzero;stroke:none"
         id="path58"
         inkscape:connector-curvature="0" /><path
         d="m 764.785,1408.2 c 0,-41.97 -22.699,-79.33 -86.441,-79.33 -63.739,0 -86.442,37.36 -86.442,79.33 V 1695 c 0,41.98 22.703,79.34 86.442,79.34 63.742,0 86.441,-37.36 86.441,-79.34 z m -86.441,453.51 c -131.239,0 -173.824,-78.58 -173.824,-149.05 v -322.11 c 0,-70.47 42.585,-149.06 173.824,-149.06 131.242,0 173.824,78.59 173.824,149.06 v 322.11 c 0,70.47 -42.582,149.05 -173.824,149.05"
         style="fill:#484848;fill-opacity:1;fill-rule:nonzero;stroke:none"
         id="path60"
         inkscape:connector-curvature="0" /><path
         d="M 1204.79,1856.58 V 1408.2 c 0,-41.97 -22.71,-79.33 -86.45,-79.33 -63.74,0 -86.44,37.36 -86.44,79.33 v 448.38 h -87.384 v -466.03 c 0,-70.47 42.586,-149.06 173.824,-149.06 131.24,0 173.83,78.59 173.83,149.06 v 466.03 h -87.38"
         style="fill:#484848;fill-opacity:1;fill-rule:nonzero;stroke:none"
         id="path62"
         inkscape:connector-curvature="0" /><path
         d="m 1504.43,1769.38 h -128.61 v 87.2 h 344.61 v -87.2 h -128.61 v -522.74 h -87.39 v 522.74"
         style="fill:#484848;fill-opacity:1;fill-rule:nonzero;stroke:none"
         id="path64"
         inkscape:connector-curvature="0" /><path
         d="m 1809.79,1856.58 h 87.39 v -260.02 h 188.56 v 260.02 h 87.39 v -609.94 h -87.39 v 261.8 h -188.56 v -261.8 h -87.39 v 609.94"
         style="fill:#484848;fill-opacity:1;fill-rule:nonzero;stroke:none"
         id="path66"
         inkscape:connector-curvature="0" /><path
         d="m 2295,1856.58 h 312.5 v -87.2 h -223.75 v -174.09 h 201.47 v -86.85 h -201.47 v -174.42 h 223.75 v -87.38 H 2295 v 609.94"
         style="fill:#484848;fill-opacity:1;fill-rule:nonzero;stroke:none"
         id="path68"
         inkscape:connector-curvature="0" /><path
         d="m 2802.5,1596.56 h 83.54 c 60.83,0 89.52,31.57 89.52,82.68 0,52.64 -39.31,90.14 -93.8,90.14 h -79.26 z m -90,260.02 h 176.96 c 88.67,0 173.47,-70.95 173.47,-179.04 0,-70.25 -44.11,-124.82 -99.8,-155.66 l 99.37,-275.24 h -92.51 L 2880.63,1505 h -78.13 v -258.36 h -90 v 609.94"
         style="fill:#484848;fill-opacity:1;fill-rule:nonzero;stroke:none"
         id="path70"
         inkscape:connector-curvature="0" /><path
         d="m 3157.3,1856.58 h 96.03 L 3431.53,1460 h 1.71 v 396.58 h 87.39 v -609.94 h -95.29 l -178.94,399.61 h -1.72 v -399.61 h -87.38 v 609.94"
         style="fill:#484848;fill-opacity:1;fill-rule:nonzero;stroke:none"
         id="path72"
         inkscape:connector-curvature="0" /><path
         d="m 122.113,305.68 c 0,21.269 11.578,40.25 43.942,40.25 32.328,0 43.84,-18.981 43.84,-40.25 v -6.852 h 44.457 v 15.832 c 0,35.719 -21.68,75.559 -88.297,75.559 -66.5745,0 -89.3753,-41.028 -89.3753,-83.09 0,-60.93 26.5783,-77 88.1173,-96.731 30.5,-8.968 43.902,-18.238 43.902,-50.789 0,-21.289 -11.504,-40.308 -43.902,-40.308 -32.332,0 -43.914,19.019 -43.914,40.308 v 6.84 H 76.6797 v -15.801 c 0,-35.789 21.4922,-75.7769 88.1173,-75.7769 66.652,0 89.555,41.1879 89.555,83.2699 0,60.847 -27.532,78.39 -89.555,96.621 -30.41,8.918 -42.684,18.258 -42.684,50.918"
         style="fill:#737373;fill-opacity:1;fill-rule:nonzero;stroke:none"
         id="path74"
         inkscape:connector-curvature="0" /><path
         d="m 2798.78,305.68 c 0,21.269 11.57,40.25 43.93,40.25 32.34,0 43.85,-18.981 43.85,-40.25 v -6.852 h 44.46 v 15.832 c 0,35.719 -21.68,75.559 -88.31,75.559 -66.56,0 -89.37,-41.028 -89.37,-83.09 0,-60.93 26.58,-77 88.12,-96.731 30.5,-8.968 43.91,-18.238 43.91,-50.789 0,-21.289 -11.5,-40.308 -43.91,-40.308 -32.33,0 -43.91,19.019 -43.91,40.308 v 6.84 h -44.21 v -15.801 c 0,-35.789 21.5,-75.7769 88.12,-75.7769 66.66,0 89.56,41.1879 89.56,83.2699 0,60.847 -27.53,78.39 -89.56,96.621 -30.41,8.918 -42.68,18.258 -42.68,50.918"
         style="fill:#737373;fill-opacity:1;fill-rule:nonzero;stroke:none"
         id="path76"
         inkscape:connector-curvature="0" /><path
         d="m 167.223,1697.1 c 0,41.14 21.699,78.86 85.703,78.86 63.992,0 86.855,-37.72 86.855,-78.86 v -13.72 h 86.864 v 30.86 c 0,70.86 -42.286,148.56 -173.719,148.56 -131.426,0 -176.0041,-80 -176.0041,-163.41 0,-120 52.5861,-152.01 173.7191,-190.87 60.586,-17.14 86.863,-35.41 86.863,-99.42 0,-42.29 -22.859,-80 -86.863,-80 -63.996,0 -85.715,37.71 -85.715,80 v 12.56 H 76.9219 v -30.86 c 0,-69.69 42.3011,-148.55 173.7191,-148.55 131.445,0 176.004,81.13 176.004,163.41 0,120 -53.719,155.45 -176.004,190.86 -59.414,17.14 -83.418,35.44 -83.418,100.58 v 0"
         style="fill:#484848;fill-opacity:1;fill-rule:nonzero;stroke:none"
         id="path78"
         inkscape:connector-curvature="0" /></g></g></svg>