<?xml version="1.0" encoding="UTF-8" standalone="no"?>
<!-- Created with Inkscape (http://www.inkscape.org/) -->

<svg
   xmlns:dc="http://purl.org/dc/elements/1.1/"
   xmlns:cc="http://creativecommons.org/ns#"
   xmlns:rdf="http://www.w3.org/1999/02/22-rdf-syntax-ns#"
   xmlns:svg="http://www.w3.org/2000/svg"
   xmlns="http://www.w3.org/2000/svg"
   xmlns:sodipodi="http://sodipodi.sourceforge.net/DTD/sodipodi-0.dtd"
   xmlns:inkscape="http://www.inkscape.org/namespaces/inkscape"
   version="1.1"
   id="svg2"
   xml:space="preserve"
   width="200"
   height="200"
   viewBox="0 0 200 200"
   sodipodi:docname="SPSU_ICON_REV_BW.svg"
   inkscape:version="0.92.1 r15371"
   inkscape:export-filename="/home/kurt/Desktop/SPSU Visual Identity WIP/Logos/icon_BW/SPSU_ICON_REV_BW.png"
   inkscape:export-xdpi="48"
   inkscape:export-ydpi="48"><metadata
     id="metadata8"><rdf:RDF><cc:Work
         rdf:about=""><dc:format>image/svg+xml</dc:format><dc:type
           rdf:resource="http://purl.org/dc/dcmitype/StillImage" /><dc:title></dc:title></cc:Work></rdf:RDF></metadata><defs
     id="defs6" /><sodipodi:namedview
     pagecolor="#ffffff"
     bordercolor="#666666"
     borderopacity="1"
     objecttolerance="10"
     gridtolerance="10"
     guidetolerance="10"
     inkscape:pageopacity="0"
     inkscape:pageshadow="2"
     inkscape:window-width="1440"
     inkscape:window-height="843"
     id="namedview4"
     showgrid="false"
     inkscape:pagecheckerboard="true"
     inkscape:zoom="3.13"
     inkscape:cx="100"
     inkscape:cy="100"
     inkscape:window-x="0"
     inkscape:window-y="31"
     inkscape:window-maximized="1"
     inkscape:current-layer="g10" /><g
     id="g10"
     inkscape:groupmode="layer"
     inkscape:label="ink_ext_XXXXXX"
     transform="matrix(1.3333333,0,0,-1.3333333,0,199.99999)"><g
       id="g12"
       transform="matrix(0.09966744,0,0,0.09966744,10.242079,1.8749903)"><path
         d="m 649.797,9.98828 c -16.809,0 -32.723,3.82032 -44.758,10.74222 L 54.793,338.559 C 29.6875,352.988 10,387.02 10,416.02 v 635.38 c 0,29.03 19.6875,63.08 44.8164,77.49 L 605.02,1446.52 c 12.031,6.99 27.949,10.85 44.777,10.85 16.824,0 32.742,-3.86 44.793,-10.85 l 550.1,-317.64 c 25.1,-14.38 44.79,-48.43 44.79,-77.48 V 416.02 c 0,-29.032 -19.69,-63.071 -44.81,-77.481 L 694.57,20.75 C 682.52,13.8086 666.602,9.98828 649.797,9.98828 v 0"
         style="fill:#231f20;fill-opacity:1;fill-rule:nonzero;stroke:none"
         id="path14"
         inkscape:connector-curvature="0" /><path
         d="m 649.801,1467.38 c -18.567,0 -36.262,-4.34 -49.821,-12.21 L 49.793,1137.55 C 21.8906,1121.52 0,1083.66 0,1051.39 V 416.012 C 0,383.781 21.8867,345.941 49.8281,329.879 L 600.016,12.1016 C 613.598,4.28125 631.266,0 649.801,0 c 18.527,0 36.195,4.28125 49.742,12.082 L 1249.7,329.91 c 27.89,16 49.78,53.828 49.78,86.102 v 635.378 c 0,32.29 -21.89,70.15 -49.84,86.18 l -550.077,317.62 c -13.508,7.85 -31.196,12.19 -49.762,12.19 z m 0,-20 c 14.429,0 28.851,-3.17 39.762,-9.5 l 550.127,-317.65 c 21.93,-12.59 39.79,-43.6 39.79,-68.84 V 416.012 c 0,-25.211 -17.86,-56.211 -39.79,-68.793 L 689.563,29.4102 C 678.652,23.1289 664.23,20 649.801,20 c -14.43,0 -28.863,3.1289 -39.781,9.4102 L 59.793,347.219 C 37.8828,359.82 20,390.801 20,416.012 v 635.378 c 0,25.24 17.8828,56.25 39.793,68.84 l 550.227,317.65 c 10.918,6.33 25.351,9.5 39.781,9.5"
         style="fill:#ffffff;fill-opacity:1;fill-rule:nonzero;stroke:none"
         id="path16"
         inkscape:connector-curvature="0" /><path
         d="m 554.59,703.648 c 0,-35.41 0,-61.718 -43.438,-61.718 H 466.68 v 307.441 h 44.472 c 43.438,0 43.438,-34.297 43.438,-81.137 z M 511.152,1007.65 H 396.957 V 447.648 h 69.723 v 134.868 h 44.472 c 113.141,0 113.141,90.273 113.141,125.722 V 881.93 c 0,32.004 0,125.72 -113.141,125.72 v 0 0"
         style="fill:#ffffff;fill-opacity:1;fill-rule:nonzero;stroke:none"
         id="path18"
         inkscape:connector-curvature="0" /><path
         d="m 833.699,739.582 c -54.844,74.277 -86.59,98.277 -86.59,146.277 0,37.723 15.75,61.723 45.457,61.723 26.301,0 39.309,-22.863 39.309,-50.305 v -25.25 h 70.859 v 28.692 c 0,56.004 -41.589,106.281 -110.168,106.281 -62.871,0 -114.043,-35.422 -114.043,-123.418 0,-69.723 44.336,-113.141 88.899,-173.723 52.578,-69.726 68.586,-88.007 68.586,-139.414 0,-30.859 -9.145,-66.308 -43.442,-66.308 -36.558,0 -51.421,30.859 -51.421,55.996 v 33.144 h -69.719 v -29.695 c 0,-32.004 18.269,-117.723 121.14,-117.723 61.719,0 114.297,35.426 114.297,128.004 0,69.719 -35.437,115.41 -73.164,165.719 v 0"
         style="fill:#ffffff;fill-opacity:1;fill-rule:nonzero;stroke:none"
         id="path20"
         inkscape:connector-curvature="0" /><path
         d="m 278.137,739.582 c -54.848,74.277 -86.594,98.277 -86.594,146.277 0,37.723 15.754,61.723 45.461,61.723 26.297,0 39.305,-22.863 39.305,-50.305 v -25.25 h 70.859 v 28.692 c 0,56.004 -41.594,106.281 -110.164,106.281 -62.871,0 -114.043,-35.422 -114.043,-123.418 0,-69.723 44.336,-113.141 88.894,-173.723 52.579,-69.726 68.583,-88.007 68.583,-139.414 0,-30.859 -9.137,-66.308 -43.434,-66.308 -36.566,0 -51.43,30.859 -51.43,55.996 v 33.144 h -69.715 v -29.695 c 0,-32.004 18.274,-117.723 121.145,-117.723 61.719,0 114.297,35.426 114.297,128.004 0,69.719 -35.442,115.41 -73.164,165.719 v 0"
         style="fill:#ffffff;fill-opacity:1;fill-rule:nonzero;stroke:none"
         id="path22"
         inkscape:connector-curvature="0" /><path
         d="M 1183.52,582.691 V 1007.5 h -69.76 V 582.691 c 0,-41.132 -0.89,-76.914 -43.82,-76.914 -42.93,0 -50.98,35.782 -50.98,76.914 V 1007.5 H 949.211 V 582.691 c 0,-37.558 5.367,-135.941 120.729,-135.941 116.27,0 113.58,98.383 113.58,135.941 v 0"
         style="fill:#ffffff;fill-opacity:1;fill-rule:nonzero;stroke:none"
         id="path24"
         inkscape:connector-curvature="0" /></g></g></svg>