<?xml version="1.0" encoding="UTF-8" standalone="no"?>
<!-- Created with Inkscape (http://www.inkscape.org/) -->

<svg
   xmlns:dc="http://purl.org/dc/elements/1.1/"
   xmlns:cc="http://creativecommons.org/ns#"
   xmlns:rdf="http://www.w3.org/1999/02/22-rdf-syntax-ns#"
   xmlns:svg="http://www.w3.org/2000/svg"
   xmlns="http://www.w3.org/2000/svg"
   xmlns:sodipodi="http://sodipodi.sourceforge.net/DTD/sodipodi-0.dtd"
   xmlns:inkscape="http://www.inkscape.org/namespaces/inkscape"
   version="1.1"
   id="svg2"
   xml:space="preserve"
   width="889.08002"
   height="1064.52"
   viewBox="0 0 889.08002 1064.52"
   sodipodi:docname="SPSU HORNET FINAL.svg"
   inkscape:version="0.92.1 r15371"><metadata
     id="metadata8"><rdf:RDF><cc:Work
         rdf:about=""><dc:format>image/svg+xml</dc:format><dc:type
           rdf:resource="http://purl.org/dc/dcmitype/StillImage" /><dc:title></dc:title></cc:Work></rdf:RDF></metadata><defs
     id="defs6"><clipPath
       clipPathUnits="userSpaceOnUse"
       id="clipPath28"><path
         d="m 6555.54,4310.18 c -48.53,-89.41 -136.06,-152.23 -254.32,-195 -118.04,-42.66 -265.64,-64.28 -428.58,-71.74 -90.23,-4.18 -185.16,-4.03 -282.45,-0.99 -222.77,6.98 -713.01,70.68 -1145.84,132.64 -216.54,30.99 -419.02,61.52 -567.36,84.3 -148.31,22.81 -242.24,37.81 -242.47,37.84 -13.64,2.18 -26.47,-7.12 -28.63,-20.75 -2.18,-13.64 7.12,-26.44 20.77,-28.63 0.26,-0.01 183.78,-29.34 441.89,-68.12 2.14,-1.36 4.45,-2.51 7.04,-3.18 423.96,-110.1 922.97,-284.05 1419.08,-565.04 210.89,-119.39 340.53,-225.72 417.29,-314.87 76.82,-89.27 100.65,-160.56 103.03,-212.07 0.82,-17.82 -0.93,-33.42 -4.08,-46.92 -11.13,-46.73 -42.95,-103.35 -119.85,-163.33 -76.88,-59.86 -198.82,-122.23 -386.9,-177.9 -182.19,-54.13 -374.67,-134.98 -584.91,-144.51 -232.94,-10.3 -489.29,63.29 -787.1,364.03 -286.02,289.49 -450.23,461.95 -542.79,561.88 -46.28,49.95 -74.66,81.76 -91.37,100.98 -8.34,9.61 -13.77,16.07 -17.06,20.04 -3.29,3.99 -4.2,5.2 -4.22,5.2 -1.89,2.46 -4.19,4.4 -6.68,5.95 l 0.28,0.25 c -285.32,319.07 -402.46,562.87 -410.51,745.57 -5.87,134.16 43.92,237.27 132.9,323.23 133.42,128.64 357.94,212.83 600.56,271.52 238.32,57.91 497.22,88.75 701.84,122.76 0.9,0.06 1.79,0.04 2.69,0.2 421.84,73.86 781.85,148.62 1064.88,161.58 160.41,7.46 295.68,-5.09 403.1,-46.92 126.16,-48.7 278.55,-175.77 398.4,-323.65 120.33,-147.52 208.07,-316.9 213.32,-443.1 1.94,-42.94 -5.16,-80.28 -21.95,-111.25 z"
         id="path26"
         inkscape:connector-curvature="0" /></clipPath><radialGradient
       fx="0"
       fy="0"
       cx="0"
       cy="0"
       r="1"
       gradientUnits="userSpaceOnUse"
       gradientTransform="matrix(2388.97,110.013,110.013,-2388.97,4119.21,4205.02)"
       spreadMethod="pad"
       id="radialGradient36"><stop
         style="stop-opacity:1;stop-color:#94989a"
         offset="0"
         id="stop30" /><stop
         style="stop-opacity:1;stop-color:#94989a"
         offset="0.285714"
         id="stop32" /><stop
         style="stop-opacity:1;stop-color:#ffffff"
         offset="1"
         id="stop34" /></radialGradient><clipPath
       clipPathUnits="userSpaceOnUse"
       id="clipPath46"><path
         d="m 3041.4,4148.47 c -26.01,-54.62 -60.84,-99.58 -107.28,-131.19 -46.51,-31.54 -105.16,-50.45 -181.82,-50.73 -47.83,-0.15 -102.58,7.1 -164.95,23.46 -639.37,167.87 -728.64,179.72 -1039.68,326.39 -19.41,9.85 -44.85,22.77 -75.14,38.22 -215.62,109.94 -672.374,345.77 -865.776,466.51 -253.184,157.79 -480.539,490.54 -507.711,908.89 -5.2735,80.44 -8.7539,167.87 -9.0235,257.38 -0.6015,187.07 12.9925,383.45 52.7505,543.53 39.535,160.68 106.019,281.78 201.781,325.57 27.375,12.75 57.519,18.79 90.554,18.89 125.047,1.17 289.36,-88.75 439.125,-203.85 150.11,-114.67 287.17,-252.9 365.89,-342.76 89.51,-102.15 341.54,-412.54 570.58,-696.69 114.59,-142.13 223.5,-277.83 303.8,-378 80.29,-100.17 131.79,-164.63 131.93,-164.8 8.61,-10.78 24.35,-12.53 35.13,-3.94 10.78,8.65 12.55,24.37 3.93,35.16 -0.07,0.08 -74.3,92.98 -183.08,228.58 -0.07,0.15 -0.09,0.3 -0.15,0.45 -325.72,729.36 -513.62,1129.27 -617.37,1568.73 -44.22,187.08 -66.64,355.28 -67.04,496.5 -0.85,190.93 39.82,331.18 114.15,403.4 55.58,54.76 135.97,75.44 226.68,75.73 117.03,0.43 247.75,-33.74 348.71,-63.42 90.36,-26.44 262.5,-72.41 424.3,-205.3 161.47,-132.98 313.4,-351.93 360.79,-731.41 30.67,-246.96 66.75,-603.46 95.11,-898.04 14.17,-147.3 26.45,-279.15 35.15,-374.16 8.73,-95.01 13.89,-153.02 13.89,-153.19 0.23,-2.56 0.94,-4.93 1.86,-7.19 3.18,-31.92 10.11,-102.46 18.1,-189.89 10.99,-119.84 23.91,-270.89 31.77,-395.44 4.76,-75.15 18.95,-199.66 19.35,-333.62 0.55,-137.62 -14.19,-284.68 -66.31,-393.77 z"
         id="path44"
         inkscape:connector-curvature="0" /></clipPath><radialGradient
       fx="0"
       fy="0"
       cx="0"
       cy="0"
       r="1"
       gradientUnits="userSpaceOnUse"
       gradientTransform="matrix(2545.63,7.6369,7.6369,-2545.63,2128.46,5176.7)"
       spreadMethod="pad"
       id="radialGradient54"><stop
         style="stop-opacity:1;stop-color:#94989a"
         offset="0"
         id="stop48" /><stop
         style="stop-opacity:1;stop-color:#94989a"
         offset="0.285714"
         id="stop50" /><stop
         style="stop-opacity:1;stop-color:#ffffff"
         offset="1"
         id="stop52" /></radialGradient><clipPath
       clipPathUnits="userSpaceOnUse"
       id="clipPath92"><path
         d="m 4033.5,846.25 c -168.62,-31.52 -287.26,-37.691 -365.57,-35.461 -20.71,-64.641 -47.27,-127.559 -78.98,-187.809 102.72,2.231 412.5,23.438 704.55,189.93 356.67,203.33 643.34,506.67 643.34,506.67 0,0 -546.68,-406.658 -903.34,-473.33 z"
         id="path90"
         inkscape:connector-curvature="0" /></clipPath><linearGradient
       x1="0"
       y1="0"
       x2="1"
       y2="0"
       gradientUnits="userSpaceOnUse"
       gradientTransform="matrix(-689.653,-241.376,-241.376,689.653,4417.73,985.65)"
       spreadMethod="pad"
       id="linearGradient98"><stop
         style="stop-opacity:1;stop-color:#ffffff"
         offset="0"
         id="stop94" /><stop
         style="stop-opacity:1;stop-color:#94989a"
         offset="1"
         id="stop96" /></linearGradient></defs><sodipodi:namedview
     pagecolor="#ffffff"
     bordercolor="#666666"
     borderopacity="1"
     objecttolerance="10"
     gridtolerance="10"
     guidetolerance="10"
     inkscape:pageopacity="0"
     inkscape:pageshadow="2"
     inkscape:window-width="1440"
     inkscape:window-height="843"
     id="namedview4"
     showgrid="false"
     inkscape:zoom="0.22169616"
     inkscape:cx="458.07204"
     inkscape:cy="532.26001"
     inkscape:window-x="0"
     inkscape:window-y="31"
     inkscape:window-maximized="1"
     inkscape:current-layer="g10" /><g
     id="g10"
     inkscape:groupmode="layer"
     inkscape:label="ink_ext_XXXXXX"
     transform="matrix(1.3333333,0,0,-1.3333333,0,1064.52)"><g
       id="g12"
       transform="scale(0.1)"><path
         d="m 6667.37,4425.74 c -8.86,160.92 -106.67,338.16 -233.29,495.46 l -31.1,-25.14 31,25.25 c -127.94,156.58 -285.6,291.65 -435.54,350.74 -125.69,48.64 -272.82,60.53 -439.9,52.96 -291.97,-13.65 -648.78,-87.91 -1063.95,-160.65 l -0.88,-0.04 -2.42,-0.41 c -271.76,-46.05 -650.98,-88.05 -961.59,-196.25 -155.22,-54.4 -295.58,-124.39 -399.34,-223.69 -103.84,-98.59 -168.29,-231.49 -160.54,-391.16 0.02,0 0.03,-0.73 0.12,-2.01 11.27,-217.38 142.49,-474.25 433.2,-800.48 l 17.65,-19.79 c 41.94,-49.15 188.71,-213.58 647.33,-677.84 307.53,-313.03 595.41,-402.66 851.12,-390.88 0.81,0.03 1.59,0.08 2.4,0.12 0.62,0.02 1.16,0.05 1.75,0.08 230.54,11.03 431.1,96.72 606.27,148.13 195.37,57.92 327.31,123.76 416.64,193.13 89.29,69.21 135.86,144.03 152.22,213.79 4.98,21.44 7.59,45.48 6.38,71.67 l -0.03,0.08 c -3.49,76.15 -38.59,166.76 -124.76,266.59 -86.36,100.12 -224.15,211.49 -441.07,334.45 -244.58,138.49 -489.51,251.28 -725.92,343.44 313.31,-41.5 608.99,-75.43 774.22,-80.79 99.06,-3.11 196.23,-3.27 289.44,1.03 168.32,7.86 323.7,29.74 454.96,77 130.77,47.03 240.49,121.83 302.9,236.71 23.91,44.16 33.51,93.32 33.15,143.22 l 0.31,0.4 -0.73,14.88"
         style="fill:#ffffff;fill-opacity:1;fill-rule:nonzero;stroke:none"
         id="path14"
         inkscape:connector-curvature="0" /><path
         d="m 3178.18,4881.5 c -7.95,126.09 -20.96,277.71 -31.96,398.02 -5.5,60.14 -10.52,112.44 -14.14,149.71 -1.82,18.63 -3.3,33.52 -4.32,43.75 -0.5,5.12 -0.91,9.08 -1.18,11.75 -0.08,0.85 -0.16,1.58 -0.21,2.16 l -0.13,42.11 -4.65,-0.47 c -18.32,202.8 -86.78,949.39 -139.8,1376.36 -48.94,398.91 -214.28,643.79 -393.02,789.87 -177.73,146.16 -366.74,195.78 -456.06,222.09 -103.13,30.03 -239.78,67.04 -373.51,67.04 -0.59,0 -0.91,0 -0.95,0 -102.84,-0.27 -209.67,-23.61 -289.3,-101.48 -102.18,-102.32 -141.07,-265.78 -141.11,-467.85 0.49,-150.49 24.08,-324.76 69.45,-516.98 82.42,-348.28 214.62,-668.35 419.41,-1129.6 -210.4,260.62 -425.38,524.73 -508.91,620.11 -82.51,94.1 -222.22,235.11 -378.895,354.96 -156.922,118.51 -328.118,220.51 -492.961,222.34 -0.813,0.02 -1.239,0.01 -1.27,0.01 -43.836,-0.11 -87.508,-8.35 -128.164,-27.33 -68.551,-32.42 -121.07,-87.3 -161.07,-153.95 C 105.32,6717.31 76.8398,6638.19 55.4297,6552.67 12.9063,6380.77 -0.46875,6178.81 0.015625,5987.16 0.3125,5895.48 3.83203,5806.23 9.21484,5724.14 39.0742,5276.17 279.68,4919.71 559.098,4744.81 772.203,4611.95 1275.42,4353.86 1470.4,4254.72 l -0.12,-0.26 34.79,-17.45 c 4.67,-2.34 9.3,-4.62 13.86,-6.91 9.51,-4.81 17.11,-8.65 22.3,-11.26 2.59,-1.31 4.58,-2.3 5.92,-3 0.65,-0.33 1.17,-0.59 1.5,-0.75 0.07,-0.03 0.12,-0.06 0.18,-0.09 -0.07,0.04 -0.21,0.12 -0.68,0.37 l 0.5,-0.26 0.29,-0.16 c -0.03,0.02 -0.07,0.03 -0.11,0.05 0.04,-0.02 0.04,-0.02 0.1,-0.06 l 0.11,-0.06 0.06,-0.02 0.12,-0.06 c 2.66,-1.34 4.87,-2.16 6.39,-2.69 138.66,-67.18 241.44,-105.48 382.69,-145.84 142.15,-40.67 323.64,-83.9 626.2,-163.28 68.51,-17.98 130.93,-26.62 188.06,-26.45 h 0.37 c 0.16,0 0.33,0 0.48,0 91.11,0.27 169.2,23.91 231.33,66.34 93.74,63.96 146.29,163.84 175.75,269.62 29.55,106.35 37.45,222 37.21,329.99 -0.43,139.65 -15.12,268.08 -19.52,339.01"
         style="fill:#ffffff;fill-opacity:1;fill-rule:nonzero;stroke:none"
         id="path16"
         inkscape:connector-curvature="0" /><path
         d="m 6402.98,4896.05 c -124.43,152.79 -279.59,284.19 -419.1,338.74 -117.56,45.6 -259.34,57.77 -423.51,50.27 -287.56,-13.35 -645.08,-87.6 -1062.35,-160.72 l -0.03,0.14 h -0.02 c -273.39,-46.19 -650.76,-88.41 -955.07,-194.6 -152.21,-53.23 -287.59,-121.51 -384.84,-214.78 -97.29,-92.97 -155.38,-213.14 -148.2,-361.59 9.7,-202.19 134.6,-453.25 423.14,-776.56 l 1.31,1.16 c 0.73,-1.56 1.63,-3.08 2.73,-4.5 1.65,-2.06 86.91,-113.16 659.54,-692.82 303.36,-307.77 577.64,-390.23 823.24,-378.92 0.6,0.03 1.15,0.06 1.74,0.09 221.56,10.36 418.44,93.89 596.78,146.52 192.14,56.93 319.6,121.21 403.42,186.38 83.75,65.05 123.83,131.87 137.82,191.34 4.17,17.91 6.39,38.23 5.36,60.68 -2.98,65.16 -33.08,147.25 -115.1,242.4 -82.12,95.25 -216.26,204.37 -430.52,325.75 -373.37,211.45 -747.93,362.64 -1091.35,471.89 435.74,-62.43 931.36,-127.12 1160.65,-134.44 98.26,-3.1 194.44,-3.23 286.33,1 165.94,7.7 317.83,29.45 443.23,74.68 125.19,45.12 225.07,114.61 281.31,218.18 22.1,40.76 30.25,87.74 27.94,137.39 -7.3,145.75 -100.53,319.19 -224.45,472.32"
         style="fill:#231f20;fill-opacity:1;fill-rule:nonzero;stroke:none"
         id="path18"
         inkscape:connector-curvature="0" /><path
         d="m 3086.38,5484.8 -1.01,-0.09 c -9.79,109.28 -85.74,952.11 -143.27,1415.23 -48.24,390.24 -207.67,623.68 -378.68,763.87 -170.67,140.3 -352.16,188.27 -441.96,214.65 -102.32,29.9 -236.44,65.69 -362.93,65.43 -97.48,-0.27 -192.55,-22.38 -261.56,-90.04 -89.89,-89.09 -129.43,-241.95 -129.13,-439.24 0.46,-146.34 23.53,-317.9 68.39,-507.84 96.88,-409.74 264.45,-782.42 542.67,-1403.9 -254.87,317.03 -592.73,735.04 -701.19,858.86 -80.83,92.22 -219.34,231.97 -373.108,349.54 -154.098,117.18 -321.981,213.79 -469.645,214.12 -39.035,-0.09 -76.766,-7.36 -111.523,-23.58 C 204.277,6845.46 135.73,6708.99 94.2422,6542.96 52.9531,6376.35 39.4922,6176.89 40.0195,5987.25 c 0.2891,-90.71 3.7891,-179.15 9.1172,-260.5 28.6797,-434.82 263.3593,-780.71 531.1523,-948.03 223.844,-139.63 781.841,-424.31 942.751,-505.86 l -0.04,-0.08 c 4.63,-2.32 9.21,-4.61 13.75,-6.86 19.49,-9.87 30.39,-15.36 30.45,-15.39 1.1,-0.55 2.25,-0.85 3.39,-1.23 276.91,-134.32 398.33,-148.71 1004.07,-307.64 65.79,-17.26 124.79,-25.28 177.8,-25.12 0.11,0 0.24,0 0.35,0 84.66,0.25 154.27,21.82 209.41,59.39 83.03,56.55 131.71,146.72 159.75,247.3 28.07,100.82 36.02,213.25 35.75,319.16 -0.43,137.12 -14.9,263.78 -19.46,336.61 -15.81,250.74 -51.88,605.64 -51.88,605.8"
         style="fill:#231f20;fill-opacity:1;fill-rule:nonzero;stroke:none"
         id="path20"
         inkscape:connector-curvature="0" /><g
         id="g22"><g
           id="g24"
           clip-path="url(#clipPath28)"><path
             d="m 6555.54,4310.18 c -48.53,-89.41 -136.06,-152.23 -254.32,-195 -118.04,-42.66 -265.64,-64.28 -428.58,-71.74 -90.23,-4.18 -185.16,-4.03 -282.45,-0.99 -222.77,6.98 -713.01,70.68 -1145.84,132.64 -216.54,30.99 -419.02,61.52 -567.36,84.3 -148.31,22.81 -242.24,37.81 -242.47,37.84 -13.64,2.18 -26.47,-7.12 -28.63,-20.75 -2.18,-13.64 7.12,-26.44 20.77,-28.63 0.26,-0.01 183.78,-29.34 441.89,-68.12 2.14,-1.36 4.45,-2.51 7.04,-3.18 423.96,-110.1 922.97,-284.05 1419.08,-565.04 210.89,-119.39 340.53,-225.72 417.29,-314.87 76.82,-89.27 100.65,-160.56 103.03,-212.07 0.82,-17.82 -0.93,-33.42 -4.08,-46.92 -11.13,-46.73 -42.95,-103.35 -119.85,-163.33 -76.88,-59.86 -198.82,-122.23 -386.9,-177.9 -182.19,-54.13 -374.67,-134.98 -584.91,-144.51 -232.94,-10.3 -489.29,63.29 -787.1,364.03 -286.02,289.49 -450.23,461.95 -542.79,561.88 -46.28,49.95 -74.66,81.76 -91.37,100.98 -8.34,9.61 -13.77,16.07 -17.06,20.04 -3.29,3.99 -4.2,5.2 -4.22,5.2 -1.89,2.46 -4.19,4.4 -6.68,5.95 l 0.28,0.25 c -285.32,319.07 -402.46,562.87 -410.51,745.57 -5.87,134.16 43.92,237.27 132.9,323.23 133.42,128.64 357.94,212.83 600.56,271.52 238.32,57.91 497.22,88.75 701.84,122.76 0.9,0.06 1.79,0.04 2.69,0.2 421.84,73.86 781.85,148.62 1064.88,161.58 160.41,7.46 295.68,-5.09 403.1,-46.92 126.16,-48.7 278.55,-175.77 398.4,-323.65 120.33,-147.52 208.07,-316.9 213.32,-443.1 1.94,-42.94 -5.16,-80.28 -21.95,-111.25"
             style="fill:url(#radialGradient36);fill-opacity:1;fill-rule:nonzero;stroke:none"
             id="path38"
             inkscape:connector-curvature="0" /></g></g><g
         id="g40"><g
           id="g42"
           clip-path="url(#clipPath46)"><path
             d="m 3041.4,4148.47 c -26.01,-54.62 -60.84,-99.58 -107.28,-131.19 -46.51,-31.54 -105.16,-50.45 -181.82,-50.73 -47.83,-0.15 -102.58,7.1 -164.95,23.46 -639.37,167.87 -728.64,179.72 -1039.68,326.39 -19.41,9.85 -44.85,22.77 -75.14,38.22 -215.62,109.94 -672.374,345.77 -865.776,466.51 -253.184,157.79 -480.539,490.54 -507.711,908.89 -5.2735,80.44 -8.7539,167.87 -9.0235,257.38 -0.6015,187.07 12.9925,383.45 52.7505,543.53 39.535,160.68 106.019,281.78 201.781,325.57 27.375,12.75 57.519,18.79 90.554,18.89 125.047,1.17 289.36,-88.75 439.125,-203.85 150.11,-114.67 287.17,-252.9 365.89,-342.76 89.51,-102.15 341.54,-412.54 570.58,-696.69 114.59,-142.13 223.5,-277.83 303.8,-378 80.29,-100.17 131.79,-164.63 131.93,-164.8 8.61,-10.78 24.35,-12.53 35.13,-3.94 10.78,8.65 12.55,24.37 3.93,35.16 -0.07,0.08 -74.3,92.98 -183.08,228.58 -0.07,0.15 -0.09,0.3 -0.15,0.45 -325.72,729.36 -513.62,1129.27 -617.37,1568.73 -44.22,187.08 -66.64,355.28 -67.04,496.5 -0.85,190.93 39.82,331.18 114.15,403.4 55.58,54.76 135.97,75.44 226.68,75.73 117.03,0.43 247.75,-33.74 348.71,-63.42 90.36,-26.44 262.5,-72.41 424.3,-205.3 161.47,-132.98 313.4,-351.93 360.79,-731.41 30.67,-246.96 66.75,-603.46 95.11,-898.04 14.17,-147.3 26.45,-279.15 35.15,-374.16 8.73,-95.01 13.89,-153.02 13.89,-153.19 0.23,-2.56 0.94,-4.93 1.86,-7.19 3.18,-31.92 10.11,-102.46 18.1,-189.89 10.99,-119.84 23.91,-270.89 31.77,-395.44 4.76,-75.15 18.95,-199.66 19.35,-333.62 0.55,-137.62 -14.19,-284.68 -66.31,-393.77"
             style="fill:url(#radialGradient54);fill-opacity:1;fill-rule:nonzero;stroke:none"
             id="path56"
             inkscape:connector-curvature="0" /></g></g><path
         d="m 5535.47,5827.88 -35.21,-18.95 35.19,19 c -31.06,58.16 -79.57,103.44 -144.53,131.24 -65,28.01 -145.34,40.34 -246.04,40.4 -22.5,0 -46.08,-0.62 -70.71,-1.87 -211.16,-10.99 -463.07,-97.97 -668.28,-161.59 -0.56,0.44 -1.14,0.88 -1.72,1.31 -78.71,58.35 -180.79,85.25 -237.06,97.38 -7.55,11.16 -15.57,21.55 -23.99,31.18 64.18,57.25 178.12,162.65 299.65,292.99 88.03,94.47 187.65,163.66 275.46,208.78 87.17,45.3 165.27,65.74 198.61,65.16 42.85,0.07 91.08,-9.15 135.78,-19.75 45.04,-10.54 85.4,-22.43 119.54,-26.64 3.73,-0.43 7.37,-0.63 10.91,-0.63 27.18,0.15 52.03,11.17 71.1,29.25 18.98,18.01 32.38,44.76 32.33,75.16 -0.17,46.82 -30.37,92.5 -87.89,129.51 -52.87,34.49 -112.79,53.2 -178.36,53.05 -105.99,-0.3 -224.02,-45.75 -371.04,-135.87 -227.32,-140.15 -455.69,-403.08 -636.17,-584.79 -0.35,0.11 -0.69,0.23 -1.03,0.34 -34.93,38.35 -97.15,78.91 -205,97.29 -16.9,2.94 -34.18,4.29 -51.7,4.29 -76.71,-0.17 -157.65,-25.38 -230.57,-64.7 -65.55,-35.64 -124.67,-82.75 -166.38,-137.46 -3.49,0.04 -7.01,0.06 -10.56,0.05 -114.56,0.09 -260.39,-25.24 -396.2,-124.27 -131.44,-96.41 -205.68,-241.6 -241.79,-335.73 -1.92,-0.81 -3.84,-1.64 -5.77,-2.49 -44.74,-19.98 -80.53,-46.29 -105.9,-71.98 -21.37,8.87 -42.07,11.15 -58.37,11.14 -8.01,-0.03 -15.41,-0.56 -22.09,-1.35 -8.51,12.81 -17.49,25.31 -26.9,37.44 -17.57,22.58 -37.23,47.12 -60.48,68.95 -26.54,24.87 -55.77,48.11 -86.41,68.23 -32.89,21.56 -68.23,39.16 -104.14,53.22 -101.49,39.72 -193.71,51.4 -266.66,51.38 -91.73,-0.02 -153.06,-18.29 -166.18,-22.56 -56.9,91.46 -133.96,145.94 -198.29,169.1 -36.65,13.01 -75.21,16.89 -110.25,16.96 -7.19,0 -14.24,-0.18 -21.09,-0.5 4.72,25.23 8.61,50.14 12.64,74.5 2.81,17.05 5.75,33.92 8.95,50.65 11.1,57.96 28.36,115.5 46.74,174.11 6.76,21.66 14.94,42.8 24.79,61.57 15.63,29.9 40.06,57.15 68.18,83.23 5.8,5.45 11.24,10.42 16.24,14.58 60.58,-36.57 128.45,-52.87 196.78,-52.8 48.34,0.03 97.1,8.01 144.8,22.33 20.12,6.06 34.76,15.22 43.95,20.46 4.57,2.66 7.77,4.32 9.05,4.81 0.01,0.01 0.02,0.01 0.03,0.01 0.47,-0.01 0.94,-0.02 1.43,-0.03 0,0.13 3.93,-0.62 13.08,-6.12 8.95,-5.15 21.75,-14 39.31,-21.36 55.67,-22.97 130.76,-51.27 207.58,-55 4.96,-0.22 9.87,-0.33 14.79,-0.33 56.89,-0.36 117.75,16.66 161.81,66.02 27.45,30.34 37.95,68.33 37.72,103.05 -0.46,47.23 -16.3,91.62 -33.46,128.9 12.03,4.17 23.62,9.17 34.75,15.02 19.87,10.61 45.74,27.1 69.68,52.11 23.85,24.9 45.84,59.1 54.55,102.64 11.68,60.52 16.73,105.86 36.91,172.67 8.9,29.43 12.96,56.21 12.96,80.74 0,0.15 0,0.28 0,0.39 0,0.32 0,0.51 0,0.56 -0.01,46.59 -15.75,81.73 -25.69,103.67 -12.41,26.92 -33.06,53.54 -61.25,76.69 -18.81,15.2 -41.46,28.76 -68.01,36.9 l -4,0.87 0.02,0.1 c -0.15,0.02 -0.74,0.18 -1.75,0.39 -3.13,0.82 -6.3,1.55 -9.51,2.19 -9.59,3.38 -18.64,10.69 -32.1,26.4 -25.9,34 -58.62,78.05 -111.17,119.06 -27.58,21.85 -59.7,32.57 -90.27,32.53 -0.12,-0.02 -0.57,-0.01 -1.53,-0.04 -44.01,-0.74 -78.09,-19.51 -102.19,-34.78 -54.12,38.61 -118.67,71.68 -193.26,79.69 -4.63,0.5 -9.11,0.71 -13.46,0.74 -0.32,0.01 -0.65,0.02 -0.98,0.03 -54.28,-0.15 -90.69,-32.55 -109.04,-57.97 -2.96,-4.01 -5.64,-8 -8.02,-11.82 -2.51,0.2 -6.72,0.67 -12.27,1.17 -18.88,4.27 -37.3,6.9 -55.95,7 v 0 c -0.25,0 -0.39,0 -0.4,0 -21,0.03 -41.78,-3.56 -61.51,-10.69 -42.96,-15.91 -68.87,-48.3 -85.98,-75.8 -6.6,-10.79 -12.01,-21.33 -16.57,-31.28 -0.08,-0.11 -0.16,-0.22 -0.23,-0.33 -0.78,-0.36 -1.8,-0.83 -3.04,-1.39 -16.85,-8.01 -28.72,-20.01 -43.88,-38.77 -14.98,-18.96 -32.87,-45.82 -56.57,-86.16 -17.01,-29.05 -27.85,-61.53 -35.31,-94.2 -11.19,-26.49 -27.29,-59.65 -48.85,-93.15 -63.84,-99.01 -122.19,-172.82 -224.41,-224.69 -110.26,-55.73 -181.58,-87.74 -362.555,-205.97 -184.305,-120.69 -284.864,-240.57 -314.45,-356.29 -13.011,-52.25 -17.238,-105.9 -20.949,-152.74 -3.187,-43.47 -6.754,-81.89 -12.933,-102.72 -16.321,-26.36 -33.164,-54.59 -47.61,-81.66 -12.191,-22.92 -22.304,-40.44 -30.422,-57.72 -7.961,-17.03 -14.492,-35.38 -14.492,-56.38 0.067,-25.42 9.383,-48 22.887,-71.92 48.883,-85.19 90.168,-190.47 186.434,-261.83 9.668,-7.08 19.363,-13.5 28.933,-19.53 11.133,-145.28 56.664,-289.06 160.824,-401.31 26.879,-28.88 56.7,-60.87 91.028,-87.7 61.699,-48.13 131.665,-90.66 204.595,-121.28 47.88,-20.08 96.84,-34.05 145.64,-45.19 -49.9,-120.23 -94.09,-247.88 -94.35,-390.6 -0.03,-27.09 1.61,-54.59 5.1,-82.52 22.38,-172.54 77.21,-329.65 77.83,-478.62 0.53,-32.32 6.52,-83.79 6.44,-123.48 v -0.11 c 0,-0.41 0,-1.04 0.03,-1.79 0.02,-0.98 0.04,-2.06 0.04,-3.21 0,-8.92 -0.76,-17.65 -1.57,-23.49 -0.19,-1.32 -0.39,-2.51 -0.56,-3.46 -42.16,-79.55 -114.7,-175.76 -185.68,-354.57 C 995.496,3023.01 924.438,2756.72 873.945,2321 c -10.8,-93.37 -16.015,-189.38 -16.015,-285.08 0,-78.79 3.539,-157.41 10.433,-234.2 C 921.605,1216.04 1261.9,665.219 1712.37,304.852 1962.63,105.129 2278.82,0.109375 2596.25,0 c 115.37,0.0390625 230.96,13.9297 343.65,42.3984 256.67,65.2306 470.06,232.4026 614.82,445.8636 137.87,0.859 340.19,19.769 686.27,188.687 512.17,250.063 854.93,750.961 857.13,753.301 11.14,16.21 8.91,38 -5.33,51.59 -14.21,13.58 -36.07,14.87 -51.76,2.98 0,0 -0.54,-0.4 -2.15,-1.58 -24.26,-17.68 -251.76,-178.38 -687.39,-315.48 -200.65,-63.15 -352.13,-83.16 -467.32,-83.16 -49.34,0 -92.06,3.68 -129.33,9.28 0.03,2.92 0.04,5.85 0.04,8.78 -0.02,66.32 -6.06,132.46 -17.82,192.98 -35.87,184.09 -142.53,330.38 -275.23,441.48 -132.91,111.38 -292.65,190.06 -445.46,243.88 l -0.74,0.26 c -11.14,3.61 -20.67,5.45 -34.9,8.8 -21.45,4.89 -49.87,11.29 -71.83,17.11 -1.32,0.34 -2.62,0.69 -3.9,1.04 -21.86,83.37 -34.25,164.37 -114.48,300.18 -101.18,173.47 -189.29,247.53 -278,334.5 -6.18,6.19 -8.46,10.07 -8.99,11.23 -0.2,0.65 -0.19,0.32 -0.2,0.5 0.05,0.23 0.18,0.72 0.52,1.73 0.64,1.93 2.1,5.2 4.91,9.62 7.76,13.25 28.86,34.8 56.12,57.54 27.27,23.04 60.63,48.35 93.85,74.62 59.46,47.6 118.31,86.07 161.95,112.35 21.82,13.16 39.83,23.27 52.24,30.01 4.3,2.35 7.89,4.27 10.72,5.77 32.25,6.63 136.35,29.27 261.73,69.63 150.45,48.88 331.51,121.18 460.22,230.46 34.08,29.13 66.45,59.93 96.76,92.55 48.89,-39.83 118.95,-64.48 211.31,-64.23 0.58,0 1.39,0 2.4,0.02 38.6,0.06 81.53,3.92 130.03,12.09 -0.89,-10.61 -1.42,-21.69 -1.46,-33.1 h 0.01 c -0.01,-0.43 -0.01,-0.71 -0.01,-0.84 0.16,-65.81 15.83,-137.79 60.37,-195.26 34.72,-44.57 80.6,-67.28 125.8,-83.17 50.03,-17.63 96.88,-23.27 140.72,-32.68 34.26,-6.5 74.71,-21.7 87.42,-38.21 10.41,-11.92 15.43,-29.2 15.48,-53.17 0.08,-19.01 -3.46,-40.67 -7.91,-61.68 -0.73,-0.41 -1.46,-0.82 -2.19,-1.25 -86.71,-50.24 -167.24,-118.44 -198.15,-220.41 -13.42,-44.7 -19.51,-72.76 -24.51,-92.1 -5.16,-19.53 -8.12,-28.49 -17.74,-45.74 -7.81,-13.86 -17.75,-28.41 -26.84,-46.09 -8.97,-17.51 -17.1,-39.29 -17.07,-64.7 -0.01,-14.73 2.74,-30.23 8.4,-45.77 9.57,-26.51 16.51,-41.83 22.48,-53.61 6.06,-11.9 9.61,-17.86 15.41,-31.34 5.11,-11.7 10.61,-30.6 17.76,-49.66 2.95,-7.69 6.18,-15.53 10.34,-23.4 -12.8,-19.02 -23.77,-45.34 -23.71,-78.87 0,-18.15 3.21,-37.94 10.39,-58.87 16.86,-50.79 47.96,-85.21 81.79,-103.59 32.88,-18.15 66,-22.4 91.12,-24.05 31.43,-4.45 50.55,-3.73 54.07,-5.02 1.95,-0.53 1.01,-0.02 3.8,-1.76 2.42,-1.64 7.43,-5.92 14.89,-13.95 23.74,-33.08 51.11,-66.05 90.72,-84.54 20.76,-9.43 42.18,-13.72 62.47,-13.65 0.27,0 0.55,0 0.83,0 13.18,-11.87 33.07,-24.59 61.55,-33.59 12.71,-4.1 25.56,-6.11 38.01,-6.09 25.46,-0.07 48.42,8.56 66.87,20.35 18.61,11.86 33.58,26.66 46.62,41.74 34.88,40.96 61.02,81.21 93.48,108.05 35.63,30.14 79.2,59.58 116.62,101.41 28.39,31.88 38.42,69.86 40.72,105.01 1.89,2.06 3.76,4.26 5.61,6.6 18.78,23.81 25.1,51.98 24.92,76.28 -0.07,24.44 -5.43,46.4 -10.89,65.33 -6.86,23.36 -12.83,43.86 -14.37,62.24 -0.89,10 -1.29,19.96 -1.32,29.95 0,19.8 1.59,39.76 4.21,60 9.47,76.94 35.29,158.35 35.64,249.51 -0.03,1.33 -0.03,2.34 -0.03,2.92 v 0.69 c -0.18,21.38 -1.74,44.55 -8.11,68.36 -2.5,9.2 -5.48,17.23 -8.31,24.46 -18.94,405.68 -49.66,631.14 -91,772.31 -40.36,141.08 -98.59,200.32 -153.01,251.01 -51.3,54.87 -110.24,97.98 -171.37,127.61 -49.14,29.22 -81.57,79.41 -113.6,138.34 -0.84,1.54 -1.77,3.01 -2.8,4.41 -46.5,86 -111.26,155.05 -180.02,217.44 -81.8,74.31 -172.42,125.64 -277.25,159.36 -18.44,5.94 -37.03,11.41 -55.7,16.43 41.8,-3.57 81.05,-5.35 117.81,-5.37 96.02,0.14 175.89,11.73 241.38,37.46 2.28,-1.39 4.57,-2.77 6.89,-4.12 42.89,-25.12 90.57,-36.28 137.44,-36.26 90.67,0.3 179.43,40.4 238.57,107.09 78.06,89.04 104.1,206.59 104.19,316.29 0,18.94 -0.77,37.63 -2.22,55.97 -5.47,67.99 -19.96,140.88 -46.6,206.03 -13.45,32.83 -29.64,65.71 -47.89,97.37 3.05,2.24 6.28,4.62 9.72,7.18 16.66,12.28 28.45,29.18 35.08,46.53 6.15,15.96 8.54,32.21 8.93,48.11 2.97,0.15 5.94,0.64 8.89,1.48 15.69,4.46 27,17.86 28.81,34.04 0.12,1.17 1.95,17.8 1.95,43.63 -0.15,43.9 -4.85,114.3 -35.34,181.26 -12.19,26.36 -26.09,47.72 -43.52,64.12 -17.13,16.23 -39.71,27.83 -64.57,27.76 -10.04,0.02 -19.63,-1.84 -28.61,-5.13 -19.51,26.7 -38.86,45.58 -60.19,58.63 -29.63,18.25 -60.47,21.26 -85.11,21.06 -13.34,-0.02 -25.62,-0.66 -37.68,-0.64 -23.63,0.01 -43.36,3.92 -59.34,9.66 68.61,18.02 152.72,41.95 242.93,71.83 98.09,32.53 194.79,44.66 276.5,44.64 47.94,0 90.72,-4.17 125.17,-10.59 34.34,-6.27 60.75,-15.37 73.41,-22.46 32.33,-17.6 65.27,-44.69 95.02,-71.53 30.08,-26.92 56.01,-53 81.02,-71 16.32,-11.52 35.08,-16.59 53.5,-16.61 23.6,0.04 47.81,8.39 66.92,26.32 19.22,17.78 31.21,45.53 30.95,75.92 -0.06,27.54 -8.65,56.9 -25.78,88.78"
         style="fill:#ffffff;fill-opacity:1;fill-rule:nonzero;stroke:none"
         id="path58"
         inkscape:connector-curvature="0" /><path
         d="m 5500.26,5808.93 c -61.1,113.22 -184.68,160.86 -424.02,148.81 -208.98,-10.52 -469.54,-101.67 -678.97,-166.16 -5.37,4.67 -11.04,9.29 -17.1,13.83 -77.24,57.93 -190.18,84.52 -237.65,93.63 -16.93,28.04 -36.55,50.59 -57.99,68.6 50.29,43.75 184.41,163.53 328.98,318.6 183.34,196.67 412.77,286.67 503.33,286.67 96.67,0 203.33,-40 260,-46.67 56.67,-6.67 123.33,80 0,160 -123.33,80 -273.33,60 -506.67,-83.33 -226.66,-139.22 -462.71,-413.67 -647.14,-597.31 -11.06,4.81 -22.36,8.83 -33.82,12.09 -27.21,33.27 -79.23,73.63 -189.04,92.72 -140.68,24.47 -339.51,-75.78 -421.65,-199.02 -113.22,4.59 -263.85,-14.31 -403.35,-115.98 -129.28,-94.22 -202.7,-245.81 -234.07,-334.07 -7.1,-2.65 -14.12,-5.43 -20.93,-8.43 -54.26,-23.87 -95.29,-60.91 -113.36,-86.63 -2.04,1.52 -3.95,3.04 -6.1,4.55 -20.67,14.38 -43.09,17.84 -60.99,17.85 -18.77,-0.07 -33.67,-3.7 -41.17,-5.89 -12.02,19.93 -25.17,39.16 -39.38,57.46 -17.17,22.13 -35.74,45.1 -56.22,64.29 -24.89,23.34 -52.43,45.23 -80.99,63.95 -30.22,19.82 -63.13,36.25 -96.79,49.42 -230,90 -407.5,27.5 -407.5,27.5 l -28.61,-10.72 c -52.64,100.86 -132.79,158.9 -193.89,180.72 -56.47,20.17 -127.54,15.93 -168.67,8.29 10.5,41.78 16.95,84.39 23.96,126.86 2.85,17.26 5.84,34.48 9.13,51.66 11.62,60.66 29.4,119.66 47.84,178.54 7.29,23.27 16.22,46.6 27.56,68.2 18.91,36.05 46.73,66.39 76.37,93.93 11.33,10.53 23.13,21.62 36.6,29.39 0.85,0.5 3.89,2.04 7.33,3.42 95.59,-68.03 214.34,-74.32 329.61,-39.68 29.26,8.8 44.35,27.1 63.37,27 1.55,0 3,-0.04 4.4,-0.11 22.24,-1.06 39.84,-19.64 65.95,-30.49 54.08,-22.49 126.09,-48.88 194.02,-51.98 54.89,-2.5 107.11,10.21 145.03,52.47 58,64.65 11.28,165.2 -22.3,228.81 -0.54,1.03 -1.08,2.2 -1.62,3.26 27.39,4.19 52.03,11.97 74.06,23.57 34.15,18.14 89.67,57.66 103.65,127.22 11.29,58.19 16.67,106.3 37.84,176.36 7.94,26.29 11.25,49.05 11.25,69.17 0.08,38.33 -12.27,66.32 -22.15,88.16 -9.16,20.08 -26.43,42.86 -50.09,62.17 -15.42,12.48 -33.83,23.34 -54.39,29.62 -1.04,0.14 -1.95,0.44 -2.97,0.61 -3.43,0.94 -6.91,1.73 -10.46,2.37 -21.79,6.62 -37.45,21.37 -53.43,40.18 -26.18,34.4 -56.22,74.82 -104.58,112.6 -21.32,16.81 -44.51,24.12 -66.1,24.03 -34.36,-0.31 -62.94,-16.25 -85.66,-31.02 -20.6,-8.75 -32.21,-1.97 -40.06,3.08 -50.86,36.47 -109.61,66.09 -175.06,73.05 -3.46,0.37 -6.85,0.53 -10.15,0.53 -37.1,0.02 -62.56,-22.16 -76.83,-41.6 -2.88,-3.9 -5.39,-7.72 -7.61,-11.38 -16.73,-21.8 -29.99,-16.87 -51.16,-15.23 -17.9,4.19 -34.15,6.51 -49.96,6.6 -16.63,0.02 -32.6,-2.74 -48.14,-8.32 -30.07,-10.98 -50.62,-35.16 -65.51,-59.22 -6.21,-10.15 -11.37,-20.41 -15.68,-30.15 -8.29,-12 -10.55,-13.18 -21.64,-18.22 -13.75,-6.25 -36.25,-30 -82.5,-108.75 -14.63,-24.9 -24.74,-55.07 -31.55,-86.17 -11.92,-28.65 -29.4,-65.18 -53.45,-102.58 -64.58,-100.41 -128.75,-182.5 -240,-238.75 -111.25,-56.25 -178.75,-86.25 -358.748,-203.75 -180,-117.5 -272.5,-232.5 -297.5,-332.5 -23.957,-95.81 -17.004,-206.38 -36.156,-262.76 -16.86,-27.1 -34.328,-56.27 -48.844,-83.49 -40,-75 -55,-90 -22.5,-147.5 50.18,-88.78 90.457,-187.15 175.238,-249.26 14.137,-10.36 28.93,-19.55 43.863,-28.51 0.012,-0.16 0.028,-0.37 0.036,-0.46 8.015,-146.25 50.703,-288.32 151.543,-396.92 26.675,-28.73 55.355,-59.22 86.312,-83.38 59.113,-46.14 126.326,-86.92 195.466,-115.94 59.71,-25.06 122.53,-40.43 185.86,-53.02 -56.9,-132.59 -109.87,-268.69 -110.06,-419.69 0,-25.46 1.53,-51.27 4.81,-77.49 21.24,-167.01 76.97,-325.12 78.13,-483.31 0.36,-28.28 6.5,-81.42 6.46,-124.35 0.53,-23.97 -3.35,-45.62 -5.07,-47.06 -44.65,-84.88 -115.16,-176.6 -185.5,-353.76 -70.41,-177.32 -140.854,-440 -191.069,-873.38 -10.621,-91.71 -15.753,-186.22 -15.753,-280.48 0,-77.6 3.48,-155.04 10.281,-230.61 C 959.895,1232.9 1294.45,690.109 1737.35,336.09 1980,142.371 2287.63,40.0508 2596.26,40 c 112.15,0.0313 224.46,13.5313 333.83,41.1719 252.66,64.1561 463.03,232.1681 603.2,447.0391 135.13,-0.281 329.38,9.098 690.21,184.699 500,243.34 841.67,740 841.67,740 0,0 -231.91,-175.49 -701.67,-323.33 -318.18,-100.12 -518.93,-94.76 -649.53,-69.24 0.58,14.06 0.92,28.18 0.92,42.31 0,63.86 -5.86,127.68 -17.08,185.33 -33.77,173.09 -133.95,311.43 -261.66,418.49 -127.83,107.19 -283.53,184.18 -433.05,236.79 -7.67,2.53 -16.76,4.42 -31.44,7.84 -21.2,4.84 -49.89,11.28 -73,17.4 -10.57,2.78 -20.04,5.57 -26.42,7.8 -27.34,96.24 -32.24,169.03 -116.2,311.8 -98.94,169.16 -181.15,237.57 -271.53,326.23 -17.25,17.31 -21.01,29.12 -21.2,39.96 -0.02,8.98 3.31,19.82 11.65,33.07 24.66,40.31 93.37,90.22 158.95,142.14 61.13,48.9 121.34,88.25 166.12,115.23 22.39,13.5 40.91,23.9 53.78,30.9 7.54,4.11 13.04,7 16.29,8.68 22.53,4.52 131.02,27.15 263.02,69.64 148.1,47.89 325.58,119.75 446.54,222.84 43.46,37.15 83.91,77.01 120.68,119.86 4.67,-5.4 9.65,-10.73 15.07,-15.9 40.88,-39.18 103.55,-66.09 198.26,-66.09 0.58,0 1.16,0 1.75,0.01 49.38,0.02 107.87,6.79 178.38,22.05 -4.79,-22.91 -9.08,-51.97 -9.15,-83.14 -0.12,-59.61 14.65,-123.71 51.89,-171.39 28.22,-36.12 65.13,-55.05 107.62,-70.1 44.78,-15.87 89.6,-21.48 135.66,-31.24 36.77,-7.78 83.87,-21.71 109.37,-51.16 38.77,-44.76 24.49,-115.56 12.22,-168.21 -5.87,-2.64 -11.58,-5.52 -17.05,-8.68 -82.84,-47.96 -153.69,-110.11 -179.85,-197.31 -26.17,-87.2 -22.9,-105.73 -45.79,-146.06 -22.89,-40.33 -51.22,-71.94 -32.7,-123.18 18.53,-51.24 23.98,-52.33 37.06,-82.85 13.08,-30.52 21.8,-76.31 42.51,-89.38 0.42,-0.27 0.77,-0.45 1.17,-0.7 -17.38,-14.29 -51.79,-53.1 -27.84,-123.53 29.2,-85.86 93.33,-98.03 139.36,-100.78 58.63,-8.85 62,5.66 99.59,-35.25 22.1,-31.62 47.65,-60.54 76.05,-73.35 22.05,-9.94 42.73,-11.84 63.46,-8.86 4.66,-7.15 19.43,-24.66 57.17,-36.76 45.45,-14.57 80.46,10.87 109,44.03 32.51,37.78 59.53,80.28 98.05,112.58 37.77,31.69 79.51,60.29 112.43,97.33 24.25,27.3 31,60.76 31.18,95.93 4.93,4.25 9.6,8.74 13.57,13.81 24.13,30.79 17.29,70.91 7.11,105.78 -6.7,22.96 -13.73,45.94 -15.83,69.88 -2.93,33.36 -1.08,66.11 3.07,98.57 10.55,82.62 35.98,163.38 35.3,247.66 -0.15,19.57 -1.66,39.33 -6.76,58.29 -2.29,8.5 -5.4,16.51 -8.65,24.68 -0.18,0.48 -0.44,1.18 -0.68,1.85 -37.47,816.74 -124.26,900.5 -232.59,1003.31 -48.6,52.25 -104.59,93.05 -161.92,120.61 -60.85,35.72 -96.95,94.17 -129.91,154.5 -0.13,-0.15 -0.18,-0.33 -0.16,-0.53 -43.45,82.45 -105.82,149.72 -174.43,211.94 -77.83,70.59 -162.59,118.64 -262.66,150.92 -26.09,8.41 -52.55,15.85 -79.18,22.37 -42.72,10.46 -83.38,18.15 -119.33,23.62 -5.36,24.5 -11.82,48.48 -19.39,71.83 112.22,-19.3 209.48,-28.67 292.3,-28.7 102.79,0.08 183.86,14.14 245.23,42.58 7.86,-5.27 15.63,-10.28 23.21,-14.72 106.2,-62.12 248.84,-24.67 325.82,62.75 81.02,92 101.54,224.1 92.1,342.71 -5.14,64.47 -19.12,133.91 -43.73,194 -17.16,41.89 -39.26,84.27 -64.41,123.62 8.24,5.52 20.65,14.24 39.38,28.17 39.38,29.28 30.63,91.99 13.29,145.98 32.3,-17.67 52.54,-43.48 52.54,-43.48 0,0 12.5,111.25 -30,203.75 -32.96,71.74 -76.41,86.09 -111.77,48.22 -65.5,108.68 -107.67,94.28 -171.56,94.28 -46.89,0 -83.32,13.04 -108.46,29.68 -5.22,14.37 -12.13,28.93 -21.22,43.36 75.4,18.57 182.92,47.42 300.71,86.44 223.34,73.99 437.3,46.74 506.84,8.72 74.21,-40.6 139.32,-116.11 180.02,-145.03 40.7,-28.93 128.3,9.63 67.2,122.85"
         style="fill:#231f20;fill-opacity:1;fill-rule:nonzero;stroke:none"
         id="path60"
         inkscape:connector-curvature="0" /><path
         d="m 4178.97,3534.23 -0.02,0.01 v -0.01 z"
         style="fill:#008350;fill-opacity:1;fill-rule:nonzero;stroke:none"
         id="path62"
         inkscape:connector-curvature="0" /><path
         d="m 1480.17,4815.41 c 52.15,-26.07 106.18,-48.98 162.27,-65.15 83.74,-24.14 161.3,-2.7 212.73,70.15 60,85 152.5,177.5 152.5,177.5 0,0 -75,-97.5 -97.5,-210 -22.97,-114.87 -33.59,-231.09 -53.36,-346.36 -0.36,-2.07 -0.81,-4.08 -1.2,-6.12 1.99,17.57 0.26,43.38 -17.94,69.98 -24.42,35.7 -59.45,72.73 -63.66,117.78 -0.84,9.05 0.73,16.68 -3.66,25.05 -19.09,36.37 -82.07,43.63 -117.71,52.83 -46.01,11.87 -95.86,21.8 -132.47,54.34 -42.36,37.66 -65,60 -157.5,80 0,0 82.5,-2.5 117.5,-20 z m 67.5,-165 c -3.62,3.26 -15.15,4.04 -19.6,5.19 -17.11,4.44 -34.3,8.59 -51.63,12.08 -33.13,6.67 -66.65,11.11 -99.98,16.6 -13.93,-32.29 -27.5,-64.4 -40.09,-96.47 -48.76,-135.01 -87.33,-321.44 68.8,-402.4 202.5,-105 552.5,-7.5 760,162.5 203.02,166.34 415.49,490.53 429.25,661.33 -12.17,36.88 -29.62,80.09 -54.25,123.67 -65,115 -192.5,240 -192.5,240 0,0 90.31,-59.76 155.97,-124.35 -68.05,122.46 -126.7,231.36 -315.97,311.85 -176.71,75.16 -315.47,11.69 -361.3,-14.76 35.93,-93.85 45.18,-117.22 73.8,-150.24 0,0 -70,52.5 -105,112.5 -35,60 -62.5,132.5 -172.5,212.5 -102.57,74.6 -174.7,53.56 -214.37,44.3 -1.8,-4.75 -3.63,-9.47 -5.59,-14.15 -33.81,-80.52 -101,-149.44 -179.7,-187.24 -32.69,-15.7 -69.57,-26.27 -106.51,-32.31 -4.48,-12 -7.71,-25.99 -8.83,-40.6 -2.5,-32.5 10,-142.5 10,-142.5 0,0 -67.5,57.5 -70,112.5 -1.3,28.71 6.25,50.54 13.77,64.92 -39.29,-1.68 -78.979,1.23 -117.323,10.07 -43.16,9.97 -71.758,31.25 -108.929,52.51 97.269,-55.62 235.592,-35.84 330.032,12.29 115.94,59.1 170.99,163.57 205.1,284.64 20.78,73.76 30.08,152.25 53.83,224.88 38.08,116.44 85.63,232.67 188.43,303.34 -7.21,11.41 -6.08,26.65 3.71,36.79 11.53,11.92 30.51,12.26 42.43,0.74 47.62,-46.06 110.95,-84.29 178.68,-87.09 74.87,-3.08 137.73,46.83 211.79,47.06 2.34,0 4.87,-0.03 7.33,-0.18 32.99,-1.45 58.79,-11.56 85.16,-22.57 82.75,-34.56 295.91,-105.45 283.34,56.57 -1.73,22.4 -9.48,43.77 -19.51,63.7 -5.22,10.38 -17.46,37.59 -29.42,53.35 -17.72,0.61 -36.04,3.49 -52.45,7.04 -1.84,-18.13 -3.57,-37.41 1.53,-48.89 6.67,-15 28.34,-48.34 28.34,-48.34 0,0 -18.33,-9.99 -45,11.67 -26.67,21.67 -38.33,63.33 -30,86.67 1.4,3.92 2.95,6.98 4.55,9.7 -8.84,2.76 -14.37,4.77 -14.7,4.82 -0.05,0.02 -0.09,0.05 -0.15,0.07 -19.34,-5.41 -57.76,-12.79 -80.54,-16.26 -8.6,-1.31 -15.61,-2.01 -22.05,-2.42 -3.23,-10.86 -4.21,-24.13 -3.74,-29.14 0.98,-10.57 4.59,-20.79 9.59,-30.3 3.74,-7.12 8.25,-13.84 13.01,-20.01 23.21,-30.12 57.12,-53.5 94.02,-63.13 -65.11,-5.51 -129.2,17.14 -151.11,83.15 -1.44,4.32 -9.23,44.15 -6,59.34 -0.43,0 -0.79,0.01 -1.22,0.01 -26.87,0 -52.5,8.13 -70,11.25 -17.5,3.13 -56.87,-5.62 -79.37,-7.5 -22.5,-1.87 -56.25,5 -78.75,19.38 -22.5,14.37 -35,25.62 -61.88,41.87 -26.87,16.25 -36.87,9.38 -87.5,50 -50.62,40.63 -40.62,80.63 -40.62,80.63 17.5,-12.5 55.62,-16.88 78.75,-10.63 17.88,4.84 34.94,16.09 46.13,32.76 -16.43,-1.17 -36.55,-7.31 -81.76,5.37 -51.25,14.37 -51.25,61.25 -51.25,61.25 0,0 38.75,-21.88 71.88,-24.38 17.33,-1.31 31.93,5.26 38.43,9.84 -23.43,10.16 -55.23,27.03 -82.81,70.79 -36.25,57.5 -37.5,148.12 -37.5,148.12 0,0 34.38,-90 80,-132.5 36.22,-33.74 40,-22.5 40,-22.5 -1.25,19.38 -6.25,23.75 2.5,79.38 8.75,55.62 27.09,57.71 27.09,57.71 -3.34,-40 11.45,-122.92 34.79,-149.59 23.33,-26.67 32.5,-25.62 55.21,-18.75 0,0 -5.42,-70.21 2.91,-96.87 8.33,-26.67 27.09,-61.46 27.09,-61.46 0,0 -8.34,-8.33 -25,11.67 -16.67,20 -33.34,36.66 -33.34,36.66 0,0 -11.53,-49.8 33.34,-80 22.29,-15 51.04,-30 86.04,-28.75 35,1.25 60.62,32.5 73.75,61.88 1.14,2.56 2.35,4.78 3.59,6.86 20.87,48.11 35.69,105.62 35.24,128.7 0,1.72 -0.08,3.2 -0.18,4.21 -3.17,30.17 -9.62,61.09 -22.97,121.1 -4.56,20.56 -6.24,41.57 -6.75,62.58 -0.52,20.72 1.1,42.12 -3.81,62.43 -6.05,25.09 -24.67,45.07 -42.57,62.47 -18.67,18.15 -39.71,33.09 -62.35,45.88 -28.03,15.83 -58.48,26.16 -88.68,36.91 -27.86,9.92 -56.43,18.79 -85.95,21.97 -16.41,1.76 -33.04,0.5 -48.65,-5.07 -40.91,-14.6 -61.61,-55.73 -76.68,-93.61 -7.51,-18.89 -15.89,-39.94 -15.89,-60.59 0,0.87 -9.43,14.19 -14.28,31.95 -22.59,-38.87 -48.96,-70.04 -73.2,-128.92 -26.25,-63.75 -42.5,-128.75 -45,-175 -2.5,-46.25 1.25,-63.75 1.25,-63.75 0,0 -10,6.25 -16.25,53.75 -1.73,13.17 -2.84,32.91 -2.62,56.05 -36.81,-93.91 -95.49,-176.52 -182.47,-231.57 -61.81,-39.14 -133.16,-59.9 -196.58,-96.15 -67.5,-38.57 -118.33,-134.58 -118.33,-134.58 13.75,56.25 38.34,96.25 38.34,96.25 -51.25,-28.75 -154.588,-93.75 -242.088,-161.25 -87.5,-67.5 -165.836,-180.83 -189.586,-267.08 -12.551,-45.57 -11.344,-80.55 -7.441,-103.52 7.382,16.75 16.589,37.56 30.777,64.35 22.5,42.5 47.5,72.5 47.5,72.5 0,0 -15,-22.5 -27.5,-72.5 -12.5,-50 -35,-132.5 -65,-205 -30,-72.5 -65,-125 -75,-165 -7.012,-28.04 3.816,-50.24 20.558,-71.9 44.653,-57.74 80.993,-124.83 131.59,-177.62 21.125,-22.04 47.332,-38.15 71.219,-56.9 28.586,-22.43 55.34,-47.4 77.324,-76.4 18.766,-24.74 44.61,-53.73 54.352,-83.81 -2.93,1.47 -5.227,4.04 -7.543,6.63 -62.5,70 -97.5,75 -145,105 -0.684,0.43 -1.383,0.84 -2.067,1.27 20.629,-70.23 82.106,-252.79 189.567,-356.27 134.998,-130 302.498,-207.5 439.998,-235 137.5,-27.5 157.5,-57.5 182.5,-80"
         style="fill:#008350;fill-opacity:1;fill-rule:nonzero;stroke:none"
         id="path64"
         inkscape:connector-curvature="0" /><path
         d="m 2122.32,7131.55 c 13.41,-22.91 13.92,-47.59 14.51,-72.46 0.38,-25.06 0.12,-51.25 6.2,-78.5 13.31,-59.99 20.19,-92.4 23.72,-125.72 0.24,-2.62 0.36,-5.36 0.36,-8.27 -0.56,-42.97 -24.79,-124.63 -57.92,-183.6 -9.9,-17.3 -20.13,-31.43 -31.74,-42.59 11.25,-1.87 21.48,-2.85 30.48,-2.85 31.13,0.22 49.87,9.11 67.54,22.93 17.57,13.91 32.9,33.94 51.69,54.35 39.74,42.84 64.59,88.63 73.51,127.56 2.22,9.64 3.08,18.34 3.09,27.16 0.19,25.32 -8.14,53.27 -13.45,95.93 -1.87,15.31 -2.36,30.44 -2.36,45.3 0.02,18.92 0.81,37.41 0.79,55.18 0.02,22.52 -1.26,43.87 -6.28,63.66 -12.32,51.58 -70.17,101.66 -117.72,138.03 -51.61,40.13 -110.65,72.18 -173.41,78.7 -2.01,0.23 -3.95,0.33 -5.88,0.33 -17.79,-0.08 -30.21,-8.62 -40.64,-20.39 -10.15,-11.61 -16.37,-25.83 -18.24,-30.93 -0.11,-0.28 -0.13,-0.37 -0.21,-0.58 8.66,-3.05 17.71,-6.28 27.29,-9.73 101.58,-36.54 147.61,-98.02 168.67,-133.51"
         style="fill:#008350;fill-opacity:1;fill-rule:nonzero;stroke:none"
         id="path66"
         inkscape:connector-curvature="0" /><path
         d="m 2491.82,6890.59 c -1.69,-50.98 -6.82,-92.12 -13.61,-131.09 -3.51,-20.06 -8.21,-38.25 -19.24,-55.06 -11,-16.79 -27.32,-30.53 -50.47,-43.85 -22.06,-12.72 -58.23,-31.63 -94.36,-47.7 -0.45,-0.2 -0.89,-0.38 -1.34,-0.58 1.08,-0.29 2.11,-0.57 3.23,-0.86 19.9,-5.23 45.49,-10.25 65.8,-10.18 44.36,0 79.2,7.87 107.36,22.67 29.17,15.19 73.67,49.01 83.02,99.47 10.92,56.07 16.68,107.01 38.8,180.29 6.98,23.14 9.53,41.84 9.53,57.6 -0.08,29.88 -8.82,49.9 -18.61,71.74 -5.62,12.76 -20.09,32.5 -38.79,47.5 -14.56,11.83 -31.37,20.78 -48.58,24.19 2.97,-10.84 4.75,-22.42 4.64,-35.26 0,-9.78 -0.87,-20.11 -2.6,-31.3 -8.76,-55.26 -23.37,-101.26 -24.78,-147.58"
         style="fill:#008350;fill-opacity:1;fill-rule:nonzero;stroke:none"
         id="path68"
         inkscape:connector-curvature="0" /><path
         d="m 2321.23,7119.46 c 6.28,-24.84 7.51,-49.57 7.52,-73.49 -0.01,-18.93 -0.81,-37.41 -0.79,-55.18 0,-13.97 0.47,-27.47 2.05,-40.46 4.62,-39.08 13.54,-67.12 13.75,-100.77 0,-11.5 -1.18,-23.5 -4.11,-36.15 -11.08,-47.69 -39.54,-98.59 -83.14,-145.76 -12.99,-13.92 -25.51,-29.86 -40.75,-44.74 0.59,-0.02 1,-0.04 1.19,-0.02 11.53,-0.57 47.05,11.11 80.96,26.55 34.47,15.32 70.01,33.91 90.61,45.81 20.17,11.67 30.52,21.27 37.02,31.13 6.48,9.88 10.09,21.68 13.26,39.96 6.54,37.7 11.41,76.55 13.04,125.58 1.94,53.69 17.32,101 25.23,152.38 1.48,9.52 2.14,17.82 2.14,25.17 -0.33,30.16 -9.81,46.32 -31.46,74.46 -30.67,39.3 -59.23,81.98 -109.91,121.56 -15.3,11.84 -28.32,15.42 -41.46,15.55 -23.47,0.34 -49.47,-14.52 -72.22,-29.99 40.47,-34.1 82.64,-77.03 97.07,-131.59"
         style="fill:#008350;fill-opacity:1;fill-rule:nonzero;stroke:none"
         id="path70"
         inkscape:connector-curvature="0" /><path
         d="m 2842.67,5025.41 c 140,-72.5 460,-142.5 580,-167.5 -56.85,-8.84 -114.92,-9.19 -172.2,-4.65 -68.13,5.42 -136.94,17.63 -202.94,35.24 -37.88,10.12 -75.35,21.85 -112.4,34.75 15.64,-18.06 35.81,-38.87 61.76,-61.47 86.74,-75.54 237.01,-170.72 490.3,-244.87 311.63,-91.27 549.28,-131.93 717.88,-131.87 82.75,-0.06 148.56,9.89 198.12,27.34 -73.59,59.07 -154.35,143.23 -228.8,224.91 -130.44,60.98 -282.81,121.37 -529.22,175.62 -189.58,41.75 -382.69,82.6 -562.89,156.52 -71.87,29.48 -142.92,63.96 -209.23,104.55 -33.8,20.69 -94.78,55.62 -87.88,103.93 7.5,52.5 45,72.5 45,72.5 0,0 -16,-36.22 0.59,-61.72 91.89,53.74 221.32,106.71 472.28,121.59 l 0.47,0.13 c 0,0 0.11,-0.04 0.22,-0.09 0.48,0.03 0.95,0.06 1.44,0.09 257.5,15 545,-140 722.5,-332.5 0,0 -143.56,97.12 -321.87,177.63 212.6,-145.51 528.75,-504.07 650.21,-627.63 70.75,-71.97 150.86,-130.45 240.89,-131.93 63.85,44.24 195.57,181.17 118.28,530.26 0,0 78.34,-210 41.67,-355 -25.48,-100.73 -50.96,-138.71 -78.66,-160.89 14.13,5.22 28.46,11.88 43.03,20.28 114.95,66.28 121.2,235.71 107.7,351.39 -22.01,188.71 -117.7,354.16 -230.41,503.39 13.28,-11.18 26.56,-22.59 39.68,-34.26 8.49,2.24 24.76,11.45 15.31,49.26 -12.5,50 -27.5,75 -27.5,75 0,0 55,-40 92.5,47.5 0.22,0.5 0.44,0.91 0.66,1.4 -26.09,41.85 -69.5,89.88 -136.49,93.6 -47.67,2.65 -79.82,6.06 -102.58,14.57 1.99,-20.92 1.47,-40.38 0.08,-57.07 -5,-60 -12.5,-55 -45,22.5 -31.44,74.99 -60.57,182.74 -254.93,214.56 4.72,-15.49 8.89,-31.97 12.43,-49.56 72.5,-360 250,-370 332.5,-287.5 0,0 -110.51,-220.98 -274.61,-103.4 -12.23,-16.49 -28.7,-33.27 -48.61,-41.14 7.75,-3.58 15.5,-7.08 23.22,-10.46 120,-52.5 185,-60 185,-60 0,0 0,0 -80,2.5 -80,2.5 -250,55 -395,137.5 -145,82.5 -390,245 -485,290 -95,45 -280,2.5 -280,2.5 l 2.5,10 c 127.91,80.72 249.63,67.02 359.38,20.88 8.7,37.94 38.05,102.85 120.62,130.37 74.53,24.85 149.02,34.03 214.57,21.24 -60.78,67.46 -120.25,106.65 -189.57,102.51 38.09,18.63 101.12,41.24 170.65,49.06 -47.7,16.51 -101.51,13.56 -215.65,-16.56 -180,-47.5 -290,-185 -290,-185 1.46,9.14 3.77,18.28 6.75,27.39 -103.71,-2.84 -198.05,-23.27 -321.75,-107.39 -108.99,-74.12 -179.42,-183.85 -213.66,-263.29 13.14,2.76 25.97,4.97 38.14,6.66 70.92,16.85 120.52,6.63 120.52,6.63 -11.62,2.42 -36.01,-8.66 -47.22,-11.77 -36.32,-10.06 -95.76,-28.38 -127.78,-48.23 -74.24,-46.01 -177.33,-125.48 -170.53,-226.07 6.24,-92.21 146.54,-148.2 215.53,-183.93"
         style="fill:#008350;fill-opacity:1;fill-rule:nonzero;stroke:none"
         id="path72"
         inkscape:connector-curvature="0" /><path
         d="m 2442.48,2571.52 c -8.88,8.59 -16.33,17.79 -22.34,27.38 -154.91,-199.77 -539.76,-109.62 -737.1,-56.12 -284.66,77.15 -494.69,210.82 -574.29,476.16 -40.02,-131.02 -78.67,-300.57 -111.516,-526.18 -3.976,-41.46 -16.867,-70.13 19.556,-129.36 23.18,-37.69 61.3,-72.9 91.99,-104.61 32.41,-33.49 67.17,-64.68 104.53,-92.57 138.36,-103.31 306.05,-157.83 474.92,-185.53 184.68,-30.3 372.92,-10.6 550.17,50.21 102.57,35.19 198.62,93.9 264.77,181.27 25.82,34.12 46.99,72.7 56.55,114.67 10.09,44.34 17.02,97.31 -14.55,134.4 -25.19,29.6 -42.51,49.43 -54.69,63.74 -15.54,15.02 -31.45,30.28 -48,46.54"
         style="fill:#008350;fill-opacity:1;fill-rule:nonzero;stroke:none"
         id="path74"
         inkscape:connector-curvature="0" /><path
         d="m 4864.1,1975.65 c -9.31,-7.12 -18.35,-14.55 -27.28,-22.13 -2.73,-14.98 -8.53,-39.51 -19.77,-59.98 -17.5,-31.88 -50,-81.88 -95,-101.25 -4.63,-1.99 -9.17,-3.89 -13.68,-5.7 1.89,-0.95 3.73,-2.01 5.66,-2.83 41.81,-17.82 76.62,21.03 98.02,52.28 8.28,12.08 16.47,24.22 24.82,36.25 11.64,16.77 23.41,33.87 37.46,48.74 16.24,17.18 36.82,29.14 56.32,42.15 30.75,20.5 60.77,44.08 83.24,73.71 5.08,6.7 9.86,13.93 13.36,21.6 0.22,0.47 0.48,1.37 0.76,2.43 -17.94,-8.85 -36.91,-16.05 -53.6,-23.52 -38.85,-17.4 -76.36,-35.8 -110.31,-61.75"
         style="fill:#008350;fill-opacity:1;fill-rule:nonzero;stroke:none"
         id="path76"
         inkscape:connector-curvature="0" /><path
         d="m 5043.5,2482.91 c 6.66,44.17 16.67,109.17 18.34,143.33 1.67,34.16 -0.84,57.5 -4.17,65.84 -3.05,7.64 -6.12,11.92 -7.46,25.03 -0.01,0.01 -0.04,0.32 -0.08,0.76 -0.09,1 -0.19,1.92 -0.27,3.01 -1.78,21.58 -11.41,134.05 -28.05,271.24 -18.48,152.58 -45.68,335.55 -80.01,455.55 -67.88,238.27 -268.11,375.13 -429.43,378.99 -2.7,0.09 -5.38,0.13 -8.06,0.11 -155.77,0.02 -256.93,-116 -325.36,-292.53 l 2.94,12.97 c 9.51,34.92 19.34,69.8 31.57,103.88 16.5,45.95 37.72,92.73 69.98,129.86 17.76,20.43 39.71,36.88 62.88,50.72 55.91,33.38 115.92,38.8 177.22,38.8 3.87,0 7.77,0 11.73,-0.06 3.77,-0.05 7.59,-0.26 11.4,-0.45 -1.25,4.77 -2.43,9.58 -3.79,14.26 -36.83,115.33 -115.03,198.42 -251.09,303.35 -86.26,67.58 -231.66,103.63 -345.43,120.12 5.43,-44.51 8.03,-90.01 8.07,-135.78 -0.11,-194.48 -45.04,-394 -107.75,-541.66 -25.55,-60.06 -57.34,-115.62 -94.23,-167.18 12.13,-18.67 26.35,-35.83 44.25,-49.55 35.42,-27.14 82.75,-33.97 126.15,-35.74 75.23,-3.09 149.06,11.01 222.71,24.28 2.91,0.25 5.42,0.17 7.7,-0.09 -4.44,0.51 -11.55,-127.02 -11.47,-138.7 0.3,-45.89 7.78,-90.1 30.97,-130.31 37.4,-64.8 121.65,-93.81 191.14,-106.5 59.35,-10.83 128.03,-17.5 172.53,-64.46 14,-14.78 21.88,-33.47 26.12,-53.6 6.47,-30.59 4.56,-64.51 3.14,-93 -0.15,-2.98 -0.98,-19.32 -2.08,-35.16 69.28,13.02 137.67,5.26 137.67,5.26 -59.95,-14.17 -164.61,-40.33 -232.18,-99.2 -67.58,-58.87 -114.46,-110.09 -125.35,-126.44 -10.9,-16.36 -13.09,-30.53 -15.27,-62.14 -2.18,-31.61 -6.54,-51.23 -19.62,-85.02 -13.07,-33.79 -29.43,-58.86 -38.15,-74.12 -8.72,-15.27 -10.89,-32.71 -1.09,-46.88 9.81,-14.17 22.88,-30.52 29.43,-53.42 6.54,-22.89 1.53,-47.02 24.42,-63.36 22.89,-16.35 32.27,-17.3 46.44,-22.75 11.27,-4.33 -18.11,-9.32 -38.29,-4.07 l -0.32,-3.51 c 7.91,-8.97 26.68,-23.6 78.87,-36.05 68.13,-16.25 117.5,20.62 138.13,40.62 20.62,20 17.5,41.25 16.25,60.63 -1.09,16.86 -4.08,24.73 -8.13,34.31 -5.05,-0.13 -11.11,-0.18 -17.5,0.06 -16.25,0.63 -14.19,8.62 2.5,18.75 17.5,10.63 45.63,21.88 101.88,61.88 55.66,39.59 90,85 90,85 -8.75,-45 -35.63,-75 -71.88,-105.63 -35.33,-29.84 -65.82,-43.63 -85.29,-52.98 11.89,-19.84 41.33,-57.9 88.42,-76.39 52.5,-20.63 96.87,-19.38 126.87,-5 0,0 -10.62,-31.25 -56.87,-31.25 -14.02,0 -25.41,0.75 -34.54,1.79 2.58,-5.01 6.45,-11.76 11.41,-18.04 9.38,-11.88 26.88,-20.63 26.88,-20.63 0,0 -41.88,20 -65,33.13 -18.28,10.37 -31.54,20.39 -48.61,33.06 -9.13,-4.93 -27.27,-15.41 -45.77,-29.94 -26.25,-20.62 -49.37,-63.12 -70.62,-105 0,0 10.53,38.15 23.51,68.54 -64.26,-45.64 -156.14,-25.05 -192.89,-7.29 -1.66,0.8 -3.18,1.64 -4.73,2.48 -7.98,-26.69 -13.76,-53.97 -12.14,-74.35 1.87,-23.75 12.5,-58.13 61.87,-71.88 37.83,-10.53 67.89,-9.69 79.91,-8.73 -10.76,18.03 -15.82,23.58 -29.91,29.98 -6.36,2.89 41.88,-10 62.5,-31.25 20.63,-21.25 47.5,-50.62 91.25,-90 43.75,-39.37 108.75,-45.62 151.25,-8.75 32.23,27.96 48.99,58.41 58.48,77.5 -10.62,-9.31 -21.27,-18.58 -32.23,-27.5 4.98,8.26 10.65,16.16 16.27,23.99 23.39,32.56 51.33,62.11 84.51,84.77 38.99,26.62 82.27,45.86 122.16,70.98 33.16,20.88 57.34,45.11 57.38,86.53 0.04,40.23 -16.5,77.24 -30.96,113.9 -4.55,11.52 -30.68,66.97 -12.18,75.59 -1.24,-5.44 -1.11,-8.58 -0.3,-12.63 2.51,-12.55 8.12,-25.63 20.62,-50.63 1.02,-2.02 1.95,-3.82 2.87,-5.52 -4.61,23.78 -3.81,52.09 -1.2,85.94 3.01,39.07 12.5,74.16 19.16,118.33"
         style="fill:#008350;fill-opacity:1;fill-rule:nonzero;stroke:none"
         id="path78"
         inkscape:connector-curvature="0" /><path
         d="m 2914.51,1626.4 c 6.33,50.03 2.74,68.71 -13.44,101.92 -16.03,26.48 -31.19,54.73 -44.65,84.59 -29.51,65.51 -46.55,137.5 -55.72,186.9 -0.61,7.55 -1.54,15.96 -3.03,25.6 -10,65 -14.95,98.29 -37.77,136.01 l -1.39,-0.18 c 15,-56.66 16.67,-188.33 -61.67,-298.33 -2.79,-3.91 -5.17,-7.34 -7.33,-10.5 -395.79,-542.27 -1268.86,-565.57 -1719.686,-59.29 1.977,-19.77 4.321,-39.5 6.996,-59.21 22.473,-121.55 50.51,-239.47 85.89,-355.45 37.16,-106.82 83.7,-210.95 138.27,-311.08 14.29,-23.98 29.29,-43.04 69.3,-66.95 592.35,-326.828 1507.37,-121.551 1644.23,625.97"
         style="fill:#008350;fill-opacity:1;fill-rule:nonzero;stroke:none"
         id="path80"
         inkscape:connector-curvature="0" /><path
         d="m 2850.66,4954.27 c -5.75,2.08 -11.59,4.18 -17.63,6.34 18.51,-77.95 78.87,-217.68 269.64,-317.7 257.5,-135 452.5,-142.5 497.5,-135 18.69,3.12 36.05,7.96 50,12.55 -56.25,14.28 -115.17,30.36 -177.04,48.46 -444.61,129.78 -588.91,327.59 -622.47,385.35"
         style="fill:#008350;fill-opacity:1;fill-rule:nonzero;stroke:none"
         id="path82"
         inkscape:connector-curvature="0" /><path
         d="m 2992.38,1670.74 c 0,0 38.08,-84.88 95.05,-141.65 -14.95,9.62 -30.29,20.17 -44.76,31.32 -18.35,14.15 -38.1,32.65 -58.16,54.76 -0.59,-26.01 9.03,-55.19 13.34,-89.65 C 3158.42,833.73 2382.56,237.469 1732.31,417.828 c 14.05,-11.808 28.2,-23.437 42.48,-34.848 231.24,-184.73 526.06,-282.9995 821.47,-282.96 16.74,0 33.47,0.371 50.19,1.019 10.62,0.723 22.08,1.371 34.71,1.859 1.66,0.071 3.25,0.18 4.89,0.25 20.73,1.422 41.43,3.372 62.08,5.782 56.77,8.199 100.92,23.461 138.17,42.379 108.89,60.39 201.76,150.453 269.5,261.429 226.66,371.34 240.23,831.032 -27.46,1160.242 -50.6,46.94 -98.13,83.41 -135.96,97.76"
         style="fill:#008350;fill-opacity:1;fill-rule:nonzero;stroke:none"
         id="path84"
         inkscape:connector-curvature="0" /><g
         id="g86"><g
           id="g88"
           clip-path="url(#clipPath92)"><path
             d="m 4033.5,846.25 c -168.62,-31.52 -287.26,-37.691 -365.57,-35.461 -20.71,-64.641 -47.27,-127.559 -78.98,-187.809 102.72,2.231 412.5,23.438 704.55,189.93 356.67,203.33 643.34,506.67 643.34,506.67 0,0 -546.68,-406.658 -903.34,-473.33"
             style="fill:url(#linearGradient98);fill-opacity:1;fill-rule:nonzero;stroke:none"
             id="path100"
             inkscape:connector-curvature="0" /></g></g><path
         d="m 4178.95,3534.24 v -0.01 h 0.02 z"
         style="fill:#918f90;fill-opacity:1;fill-rule:nonzero;stroke:none"
         id="path102"
         inkscape:connector-curvature="0" /><path
         d="m 3843.35,5598.7 c 8.76,-1.02 17.86,-1.58 27.06,-1.94 18.57,-22.45 47.07,-52.91 84.76,-81.35 71.25,-53.75 132.5,-91.25 132.5,-91.25 0,0 -87.9,104.33 -131.23,178.81 16.87,3.14 33.27,7.28 48.46,12.73 11.18,4.01 25.94,10.11 38.42,18.66 -38.81,57.22 -74.36,110.15 -108.32,156.45 -87.89,46.62 -191.65,47.65 -281.74,0.74 -3.57,-1.86 -52.42,-29.64 -48.09,-36.14 51.45,-77.28 145.19,-145.9 238.18,-156.71"
         style="fill:#94989a;fill-opacity:1;fill-rule:nonzero;stroke:none"
         id="path104"
         inkscape:connector-curvature="0" /><path
         d="m 4793.22,5320.35 c 2.68,21.42 4.03,39.74 4.7,54.13 -1.75,0.31 -3.47,0.7 -5.25,0.93 -40.98,5.35 -56.52,-2.03 -66.62,-14.84 l -16.09,-29.17 c -5.33,-14.16 -7.89,-29.82 -9.02,-38.73 12.04,-12.55 23.67,-25.44 34.73,-38.74 18.56,7.83 52.65,27.31 57.55,66.42"
         style="fill:#94989a;fill-opacity:1;fill-rule:nonzero;stroke:none"
         id="path106"
         inkscape:connector-curvature="0" /><path
         d="m 3756.22,5738.72 c 37.02,6.26 64.65,25.42 61.74,42.78 -2.92,17.37 -35.3,26.37 -72.32,20.11 -37.01,-6.26 -64.66,-25.41 -61.74,-42.77 2.92,-17.37 35.3,-26.38 72.32,-20.12"
         style="fill:#ffffff;fill-opacity:1;fill-rule:nonzero;stroke:none"
         id="path108"
         inkscape:connector-curvature="0" /><path
         d="m 4773.88,5359.29 c -4.38,4.22 -15.26,0.21 -24.32,-8.97 -9.05,-9.16 -12.85,-20.02 -8.46,-24.24 4.37,-4.22 15.26,-0.21 24.32,8.96 9.05,9.17 12.84,20.03 8.46,24.25"
         style="fill:#ffffff;fill-opacity:1;fill-rule:nonzero;stroke:none"
         id="path110"
         inkscape:connector-curvature="0" /><path
         d="m 3553.51,5272.91 c -133.48,58.51 -244.08,74.17 -325.24,76.43 -15,-17.9 -23.96,-48.85 -21.4,-70.98 160.37,-37.51 384.89,-116.52 538.3,-205.45 0,0 -274.88,108.87 -605.94,162.24 -36,-16.27 -82.59,-50.12 -109.28,-88.84 119.44,-50.13 200.63,-82.81 492.72,-153.4 249.66,-60.33 464.58,-117.19 570.06,-164.84 -17.22,19.27 -33.7,37.71 -49.22,54.84 -120,132.5 -307.5,310 -490,390"
         style="fill:#ffffff;fill-opacity:1;fill-rule:nonzero;stroke:none"
         id="path112"
         inkscape:connector-curvature="0" /><path
         d="m 3359.81,3788.01 v 0.02 c -73.39,64.88 -147.14,132.38 -222.36,200.47 -3.3,2.99 -8.72,6.82 -14.75,9.32 -0.08,0.03 -0.14,0.09 -0.23,0.11 -22.92,6.23 -42.3,9.36 -79.8,15.61 l -222.76,41.61 c -18.71,-28.39 -29.14,-43.13 -49.02,-68.71 45.6,-42.15 94.53,-86.11 132.88,-114.35 6.27,8.58 10.41,14.51 17.25,24.56 1.5,2.22 4.65,2.87 8.39,2.37 50.14,-6.73 73.26,-8.61 118.41,-16.04 6.19,-1.02 12.6,-2.54 17.68,-4.73 5.06,-2.18 9.6,-5.28 13.26,-9.12 47.66,-49.97 68.29,-71.84 109.96,-116.21 6.58,-6.95 7.39,-16.02 2.04,-24.46 -5.93,-8.53 -8.94,-12.76 -15.13,-21.19 -3.13,-4.26 -4.72,-6.38 -7.92,-10.62 -30.19,-39.99 -46.57,-62.16 -79.9,-102.41 -3.6,-4.03 -8.42,-7.35 -13.95,-9.73 -9.47,-5.03 -20.6,-4.16 -20.6,-4.16 -83.09,5.06 -121.84,8.81 -199.65,13.02 -6.22,0.33 -11.64,3.36 -16.36,6.42 -4.75,3.06 -9.38,6.17 -12.37,10.51 -21.72,32.19 -34.08,50.17 -59.83,88.49 -1.97,2.93 -2.07,5.98 -0.27,7.99 14.51,16.23 22.21,25 35.48,40.33 -44.4,35.32 -96.24,82.79 -131.6,117.8 -35.38,-44.05 -54.11,-67.01 -92.05,-110.6 -11.39,-13.09 -17.13,-19.57 -28.73,-32.44 -3.68,-4.08 -5.52,-6.11 -9.21,-10.17 -32.48,-35.58 -49.15,-52.98 -83.69,-86.13 31.76,-62.82 47.8,-93 74.42,-146.7 39.35,31.59 58.3,48.34 95,82.86 4.16,3.91 6.23,5.88 10.35,9.82 10.22,9.75 15.28,14.65 25.3,24.58 1.94,1.91 5.42,2.53 9.07,1.63 3.65,-0.9 7.01,-3.2 8.73,-6 20.06,-32.46 29.52,-47.7 46.06,-75.4 1.95,-3.4 6.9,-7.43 11.98,-10.61 5.33,-3.34 11.82,-7.15 16.8,-7.46 128.73,-7.88 254.98,-21.63 385.07,-20.09 11.18,0.12 30.19,8.52 35.98,15.36 7.42,7.99 11.09,12.02 18.37,20.28 3.85,4.36 5.76,6.57 9.56,11.01 40.18,46.84 60.39,77.05 94.11,125.37 3.19,4.57 4.75,6.87 7.87,11.46 26.9,39.63 38.93,59.75 60.78,100.75 4.48,7.52 1.96,20.98 -4.62,25.58"
         style="fill:#008350;fill-opacity:1;fill-rule:nonzero;stroke:none"
         id="path114"
         inkscape:connector-curvature="0" /><path
         d="m 3314.06,3644.47 c -20.91,-32.96 -65.47,-97.94 -92.75,-127.63 13.2,-5.31 20.8,-8.27 34.92,-13.59 3.34,-1.26 4.02,-4.24 1.59,-7 -13.83,-15.64 -20.86,-23.19 -35.16,-37.74 -13.33,-13.12 -39.09,-23.68 -61.85,-25.62 -153.14,5.02 -290.64,7.52 -444.65,19.54 -10.18,1.92 -20.07,6.89 -28.31,12.17 -7.7,4.93 -15.09,11.11 -19,18.18 -12.38,22.75 -19.31,35 -34.06,60.81 -38.67,-35.57 -58.66,-52.82 -100.24,-85.15 -2.19,-1.7 -5.74,-2.13 -9.25,-1.12 -1.73,0.5 -3.34,1.3 -4.69,2.34 -1.37,1.06 -2.45,2.32 -3.11,3.68 -29.02,60.13 -47.24,94.6 -82.74,166.28 -1.6,3.24 -1.43,6.36 0.43,8.16 37.91,36.55 56.12,55.85 91.58,95.38 -25.68,46.59 -38.68,70.77 -62.4,118.86 -9.55,19.93 -9.42,42.29 -0.33,54.17 11.88,14.72 17.8,22.13 29.58,37.03 -60.63,59.74 -87.74,90.1 -124.43,141.91 -30.77,-37.21 -45.99,-55.57 -76.89,-90.98 -10.02,-11.02 -15.21,-38.77 -9.38,-58.45 65.92,-193.17 162.92,-368.75 244.41,-555.14 2.93,-7.02 10.05,-14.7 18.83,-20.63 9.98,-6.75 22.07,-11.98 32.71,-14.05 227.55,-17.97 446.3,-11.72 672.3,-12.4 24.64,-0.08 62.52,13.84 76.26,27.04 73.99,71.14 139.46,141.28 199.02,227.53 -83.28,20.61 -128.04,30.32 -212.39,56.42"
         style="fill:#94989a;fill-opacity:1;fill-rule:nonzero;stroke:none"
         id="path116"
         inkscape:connector-curvature="0" /><path
         d="m 3628.77,3901.18 c -136.1,102.98 -267.35,196.73 -400.93,301.17 -9.54,7.59 -17.98,13.22 -30.01,18.22 -10.46,4.35 -25.63,8.75 -40.16,11.09 -190.76,40.14 -327.13,71.57 -528.75,120 -18.29,4.4 -37.78,-0.83 -47.52,-12.55 -61.23,-73.7 -87.14,-105.64 -144.07,-171.46 46.73,-81.88 107.43,-155.43 172.7,-223.11 0,0 0.01,-0.01 0.02,-0.02 19.65,-20.66 29.82,-30.97 50.47,-51.22 6.92,-6.77 10.39,-10.15 17.39,-16.85 52.41,-50.2 80.18,-74.61 133.02,-116.97 7.05,-5.66 10.56,-8.44 17.55,-13.89 7.8,-6.09 11.69,-9.07 19.4,-14.89 84.88,-64.12 118.28,-87.15 191.8,-127.72 8.62,-1.47 18.46,-1.47 27.06,2.47 16.96,19.68 43.09,54.92 75.93,98.09 -65.62,33.75 -87.5,45 -160.37,89.65 -0.04,0.03 -0.11,0.04 -0.16,0.07 -27.84,18.31 -42.27,28.6 -71.25,50.66 -7.11,5.41 -10.67,8.17 -17.8,13.77 -53.49,41.96 -80.97,65.98 -132.84,115.21 -6.92,6.58 -10.36,9.87 -17.2,16.52 -21.2,20.58 -31.61,31.08 -51.8,52.09 0,0 -0.01,0.01 -0.01,0.02 -22.77,23.69 -33.81,35.65 -54.88,59.35 -2.99,3.37 -3.8,7.51 -1.94,9.78 9.83,12.02 14.64,18.1 24.1,30.42 13.16,16.99 32.69,18.23 53.02,14.06 138.63,-28.48 199.49,-45.94 344.26,-75.74 42.5,-8.75 64.37,-13.13 87.5,-21.49 9.65,-3.49 20.44,-12.27 26.96,-18.89 91.16,-77.36 173.66,-146.11 260.72,-220.62 11.91,-10.18 16.52,-27.36 9.41,-43.08 -10.3,-21.64 -15.73,-32.37 -27.24,-53.69 58.27,-19.97 98.27,-34.97 153.27,-49.97 25.68,56.18 59.57,120.77 78.11,178.2 6.05,17.74 -2.56,41.34 -15.76,51.32"
         style="fill:#94989a;fill-opacity:1;fill-rule:nonzero;stroke:none"
         id="path118"
         inkscape:connector-curvature="0" /></g></g></svg>